%TF.GenerationSoftware,KiCad,Pcbnew,8.0.3*%
%TF.CreationDate,2024-07-14T14:59:13-06:00*%
%TF.ProjectId,PowerSupplyBoard,506f7765-7253-4757-9070-6c79426f6172,rev?*%
%TF.SameCoordinates,Original*%
%TF.FileFunction,Copper,L2,Inr*%
%TF.FilePolarity,Positive*%
%FSLAX46Y46*%
G04 Gerber Fmt 4.6, Leading zero omitted, Abs format (unit mm)*
G04 Created by KiCad (PCBNEW 8.0.3) date 2024-07-14 14:59:13*
%MOMM*%
%LPD*%
G01*
G04 APERTURE LIST*
%TA.AperFunction,ComponentPad*%
%ADD10O,0.900000X2.000000*%
%TD*%
%TA.AperFunction,ComponentPad*%
%ADD11O,0.900000X1.700000*%
%TD*%
%TA.AperFunction,ComponentPad*%
%ADD12R,1.600000X1.600000*%
%TD*%
%TA.AperFunction,ComponentPad*%
%ADD13O,1.600000X1.600000*%
%TD*%
%TA.AperFunction,ComponentPad*%
%ADD14O,1.700000X1.700000*%
%TD*%
%TA.AperFunction,ComponentPad*%
%ADD15R,1.700000X1.700000*%
%TD*%
%TA.AperFunction,ComponentPad*%
%ADD16R,1.800000X1.800000*%
%TD*%
%TA.AperFunction,ComponentPad*%
%ADD17C,1.800000*%
%TD*%
%TA.AperFunction,ComponentPad*%
%ADD18C,1.400000*%
%TD*%
%TA.AperFunction,ComponentPad*%
%ADD19O,1.400000X1.400000*%
%TD*%
%TA.AperFunction,ComponentPad*%
%ADD20O,0.900000X1.600000*%
%TD*%
%TA.AperFunction,ComponentPad*%
%ADD21C,1.300000*%
%TD*%
%TA.AperFunction,ComponentPad*%
%ADD22C,1.600000*%
%TD*%
%TA.AperFunction,ViaPad*%
%ADD23C,1.000000*%
%TD*%
%TA.AperFunction,ViaPad*%
%ADD24C,0.800000*%
%TD*%
%TA.AperFunction,ViaPad*%
%ADD25C,0.650000*%
%TD*%
G04 APERTURE END LIST*
D10*
%TO.N,GND*%
%TO.C,J103*%
X47520000Y-6280001D03*
D11*
X47520000Y-2110001D03*
D10*
X38880000Y-6280001D03*
D11*
X38880000Y-2110001D03*
%TD*%
D12*
%TO.N,Net-(JP102-A)*%
%TO.C,U103*%
X15740000Y-55540000D03*
D13*
%TO.N,Net-(U103-CAP+)*%
X18280000Y-55540000D03*
%TO.N,GND*%
X20819999Y-55540000D03*
%TO.N,Net-(U103-CAP-)*%
X23360000Y-55540000D03*
%TO.N,-12VA*%
X23360000Y-47920000D03*
%TO.N,unconnected-(U103-LV-Pad6)*%
X20820000Y-47920000D03*
%TO.N,unconnected-(U103-OSC-Pad7)*%
X18280000Y-47920000D03*
%TO.N,+12V*%
X15740000Y-47920000D03*
%TD*%
D14*
%TO.N,BATT_REF*%
%TO.C,J105*%
X6200000Y-59555000D03*
%TO.N,USBC_D+*%
X6200000Y-57015000D03*
D15*
%TO.N,USBC_D-*%
X6200000Y-54475000D03*
%TD*%
%TO.N,VBATT*%
%TO.C,J101*%
X3950000Y-17000000D03*
D14*
%TO.N,GND*%
X3950000Y-14460000D03*
%TD*%
D16*
%TO.N,Net-(D102-K)*%
%TO.C,D102*%
X7600000Y-4225000D03*
D17*
%TO.N,Net-(D102-A)*%
X10140000Y-4225000D03*
%TD*%
D18*
%TO.N,GND*%
%TO.C,R115*%
X43375000Y-42454999D03*
D19*
X43375000Y-37375000D03*
%TD*%
D16*
%TO.N,Net-(D101-K)*%
%TO.C,D101*%
X1950000Y-4175000D03*
D17*
%TO.N,Net-(D101-A)*%
X4490000Y-4175000D03*
%TD*%
D15*
%TO.N,GND*%
%TO.C,J104*%
X6200000Y-31535000D03*
D14*
%TO.N,+3.3V*%
X6200000Y-34075000D03*
%TO.N,+12V*%
X6200000Y-36615000D03*
%TO.N,-12V*%
X6200000Y-39155000D03*
%TO.N,GND*%
X6200000Y-41695000D03*
%TD*%
D20*
%TO.N,GND*%
%TO.C,J106*%
X35849999Y-2325000D03*
X29250001Y-2325000D03*
%TD*%
D12*
%TO.N,Net-(JP103-A)*%
%TO.C,U104*%
X31722500Y-57350000D03*
D13*
%TO.N,Net-(U104-CAP+)*%
X34262500Y-57350000D03*
%TO.N,GND*%
X36802499Y-57350000D03*
%TO.N,Net-(U104-CAP-)*%
X39342500Y-57350000D03*
%TO.N,-12VA*%
X39342500Y-49730000D03*
%TO.N,unconnected-(U104-LV-Pad6)*%
X36802500Y-49730000D03*
%TO.N,unconnected-(U104-OSC-Pad7)*%
X34262500Y-49730000D03*
%TO.N,+12V*%
X31722500Y-49730000D03*
%TD*%
D16*
%TO.N,Net-(D105-K)*%
%TO.C,D105*%
X13300000Y-4225000D03*
D17*
%TO.N,Net-(D105-A)*%
X15840000Y-4225000D03*
%TD*%
D21*
%TO.N,*%
%TO.C,SW101*%
X24514201Y-1422101D03*
X19434201Y-1422100D03*
D22*
%TO.N,V_PWR*%
X24514201Y-6502100D03*
%TO.N,VCC*%
X21974201Y-6502100D03*
%TO.N,unconnected-(SW101-C-Pad3)*%
X19434202Y-6502100D03*
%TD*%
D15*
%TO.N,USBM_D+*%
%TO.C,J102*%
X6200000Y-46915000D03*
D14*
%TO.N,USBM_D-*%
X6200000Y-49455000D03*
%TD*%
D23*
%TO.N,VBATT*%
X29350000Y-14750000D03*
D24*
%TO.N,USBM_D+*%
X31725000Y-12500000D03*
%TO.N,USBM_D-*%
X32775000Y-12500000D03*
%TO.N,GND*%
X36975000Y-10625000D03*
%TO.N,Net-(D108-A)*%
X30100000Y-11050000D03*
%TO.N,GND*%
X47950000Y-70119999D03*
X47950000Y-67119999D03*
X47950000Y-64119999D03*
X47950000Y-61119999D03*
X47950000Y-58119999D03*
X47950000Y-55119999D03*
X47950000Y-52119999D03*
X47950000Y-49119999D03*
X47950000Y-46119999D03*
X47950000Y-43119999D03*
X47950000Y-40119999D03*
X47950000Y-37119999D03*
X47950000Y-34119999D03*
X47950000Y-31119999D03*
X47950000Y-28119999D03*
X47950000Y-25119999D03*
X47950000Y-22119999D03*
X47950000Y-19119999D03*
X47950000Y-16119999D03*
X47950000Y-13119999D03*
X47950000Y-10119999D03*
X47950000Y-4119999D03*
X44950000Y-73119999D03*
X44950000Y-64119999D03*
X44950000Y-61119999D03*
X44950000Y-58119999D03*
X44950000Y-55119999D03*
X44950000Y-52119999D03*
X44950000Y-49119999D03*
X44950000Y-46119999D03*
X44950000Y-43119999D03*
X44950000Y-40119999D03*
X44950000Y-37119999D03*
X44950000Y-34119999D03*
X44950000Y-31119999D03*
X44950000Y-28119999D03*
X44950000Y-1119999D03*
X41950000Y-73119999D03*
X41950000Y-70119999D03*
X41950000Y-64119999D03*
X41950000Y-49119999D03*
X41950000Y-46119999D03*
X41950000Y-40119999D03*
X41950000Y-34119999D03*
X41950000Y-1119999D03*
X38950000Y-73119999D03*
X38950000Y-70119999D03*
X38950000Y-67119999D03*
X38950000Y-64119999D03*
X38950000Y-55119999D03*
X38950000Y-52119999D03*
X38950000Y-43119999D03*
X38950000Y-40119999D03*
X35950000Y-73119999D03*
X35950000Y-70119999D03*
X35950000Y-67119999D03*
X35950000Y-64119999D03*
X35950000Y-55119999D03*
X35950000Y-52119999D03*
X35950000Y-25119999D03*
X32950000Y-73119999D03*
X32950000Y-70119999D03*
X32950000Y-67119999D03*
X32950000Y-64119999D03*
X32950000Y-55119999D03*
X32950000Y-52119999D03*
X29950000Y-73119999D03*
X29950000Y-64119999D03*
X29950000Y-61119999D03*
X29950000Y-58119999D03*
X26950000Y-73119999D03*
X26950000Y-58119999D03*
X26950000Y-46119999D03*
X26950000Y-40119999D03*
X26950000Y-1119999D03*
X23950000Y-73119999D03*
X23950000Y-43119999D03*
X20950000Y-52119999D03*
X20950000Y-1119999D03*
X17950000Y-52119999D03*
X17950000Y-1119999D03*
X14950000Y-52119999D03*
X14950000Y-1119999D03*
X11950000Y-73119999D03*
X11950000Y-64119999D03*
X11950000Y-55119999D03*
X11950000Y-46119999D03*
X11950000Y-43119999D03*
X11950000Y-37119999D03*
X11950000Y-34119999D03*
X11950000Y-7119999D03*
X11950000Y-1119999D03*
X8950000Y-73119999D03*
X8950000Y-70119999D03*
X8950000Y-31119999D03*
X8950000Y-28119999D03*
X8950000Y-22119999D03*
X8950000Y-1119999D03*
X5950000Y-73119999D03*
X5950000Y-64119999D03*
X5950000Y-52119999D03*
X5950000Y-28119999D03*
X5950000Y-13119999D03*
X5950000Y-1119999D03*
X2950000Y-73119999D03*
X2950000Y-70119999D03*
X2950000Y-64119999D03*
X2950000Y-61119999D03*
X2950000Y-58119999D03*
X2950000Y-55119999D03*
X2950000Y-52119999D03*
X2950000Y-49119999D03*
X2950000Y-46119999D03*
X2950000Y-43119999D03*
X2950000Y-40119999D03*
X2950000Y-37119999D03*
X2950000Y-34119999D03*
X2950000Y-31119999D03*
X2950000Y-28119999D03*
X2950000Y-19119999D03*
X2950000Y-10119999D03*
X2950000Y-7119999D03*
X2950000Y-1119999D03*
D25*
%TO.N,BATT_REF*%
X8820000Y-44010000D03*
D24*
%TO.N,Net-(D108-A)*%
X34996250Y-7243750D03*
%TO.N,Net-(Q104B-B2)*%
X13980000Y-41420000D03*
X18170000Y-39630000D03*
%TO.N,GND*%
X6370000Y-15040000D03*
X6410000Y-17790000D03*
%TO.N,Net-(U105-Vc)*%
X31400000Y-40880000D03*
%TO.N,GND*%
X37600000Y-46790000D03*
%TO.N,Net-(C110-Pad2)*%
X32420000Y-44170000D03*
X36260000Y-45940000D03*
%TO.N,GND*%
X33810000Y-46830000D03*
X24030000Y-45850000D03*
X17060000Y-59060000D03*
X30050000Y-68970000D03*
X37650000Y-32810000D03*
X34570000Y-38140000D03*
%TO.N,Net-(U105-Vc)*%
X32710000Y-38880000D03*
%TO.N,GND*%
X24710000Y-35600000D03*
X24900000Y-31180000D03*
X23170000Y-28520000D03*
X19550000Y-28900000D03*
X17760000Y-33270000D03*
X12940000Y-29850000D03*
X15800000Y-15230000D03*
X16170000Y-10290000D03*
X13350000Y-15540000D03*
%TO.N,Net-(D102-K)*%
X17270000Y-17210000D03*
%TO.N,Net-(D101-K)*%
X17320000Y-15680000D03*
%TO.N,GND*%
X23560000Y-14670000D03*
X20720000Y-15060000D03*
%TO.N,Net-(D105-A)*%
X22740000Y-17800000D03*
%TO.N,GND*%
X21610000Y-18540000D03*
%TO.N,Net-(D105-K)*%
X17060000Y-19930000D03*
%TO.N,GND*%
X16830000Y-22670000D03*
X16840000Y-21290000D03*
X21490000Y-22500000D03*
X21540000Y-21440000D03*
X23480000Y-25740000D03*
D23*
%TO.N,VBATT*%
X10628750Y-24188750D03*
D25*
%TO.N,BATT_REF*%
X12260000Y-27460000D03*
D24*
%TO.N,GND*%
X14080000Y-27300000D03*
X18020000Y-26780000D03*
X32110000Y-18360000D03*
X39870000Y-13880000D03*
%TO.N,USBC_D+*%
X43831373Y-13948630D03*
%TO.N,USBC_D-*%
X42831429Y-13959468D03*
%TO.N,GND*%
X45370000Y-12090000D03*
%TO.N,USBC_D+*%
X41950000Y-8710000D03*
%TO.N,USBC_D-*%
X43110000Y-5130000D03*
%TD*%
%TA.AperFunction,Conductor*%
%TO.N,GND*%
G36*
X18701711Y-520185D02*
G01*
X18747466Y-572989D01*
X18757410Y-642147D01*
X18728385Y-705703D01*
X18723813Y-710612D01*
X18598291Y-863560D01*
X18598287Y-863567D01*
X18505389Y-1037366D01*
X18448176Y-1225970D01*
X18428860Y-1422100D01*
X18448176Y-1618229D01*
X18448177Y-1618232D01*
X18485617Y-1741656D01*
X18505389Y-1806833D01*
X18598287Y-1980632D01*
X18598291Y-1980639D01*
X18723317Y-2132983D01*
X18875661Y-2258009D01*
X18875668Y-2258013D01*
X19049467Y-2350911D01*
X19049470Y-2350911D01*
X19049474Y-2350914D01*
X19238069Y-2408124D01*
X19434201Y-2427441D01*
X19630333Y-2408124D01*
X19818928Y-2350914D01*
X19992739Y-2258010D01*
X20145084Y-2132983D01*
X20270111Y-1980638D01*
X20363015Y-1806827D01*
X20420225Y-1618232D01*
X20439542Y-1422100D01*
X20420225Y-1225968D01*
X20363015Y-1037373D01*
X20363012Y-1037367D01*
X20363012Y-1037366D01*
X20270114Y-863567D01*
X20270110Y-863560D01*
X20141220Y-706508D01*
X20142415Y-705526D01*
X20112564Y-650858D01*
X20117548Y-581166D01*
X20159420Y-525233D01*
X20224884Y-500816D01*
X20233730Y-500500D01*
X23714673Y-500500D01*
X23781712Y-520185D01*
X23827467Y-572989D01*
X23837411Y-642147D01*
X23808386Y-705703D01*
X23803812Y-710614D01*
X23678291Y-863561D01*
X23678287Y-863568D01*
X23585389Y-1037367D01*
X23528176Y-1225971D01*
X23508860Y-1422101D01*
X23528176Y-1618230D01*
X23585389Y-1806834D01*
X23678287Y-1980633D01*
X23678291Y-1980640D01*
X23803317Y-2132984D01*
X23955661Y-2258010D01*
X23955668Y-2258014D01*
X24129467Y-2350912D01*
X24129470Y-2350912D01*
X24129474Y-2350915D01*
X24318069Y-2408125D01*
X24514201Y-2427442D01*
X24710333Y-2408125D01*
X24898928Y-2350915D01*
X24898936Y-2350911D01*
X25072733Y-2258014D01*
X25072735Y-2258013D01*
X25072739Y-2258011D01*
X25225084Y-2132984D01*
X25350111Y-1980639D01*
X25395243Y-1896202D01*
X28450001Y-1896202D01*
X28450001Y-2075000D01*
X29000001Y-2075000D01*
X29000001Y-2575000D01*
X28450001Y-2575000D01*
X28450001Y-2753797D01*
X28480742Y-2908343D01*
X28480744Y-2908351D01*
X28541048Y-3053939D01*
X28541053Y-3053948D01*
X28628599Y-3184969D01*
X28628602Y-3184973D01*
X28740027Y-3296398D01*
X28740035Y-3296404D01*
X28871048Y-3383944D01*
X28871066Y-3383954D01*
X29000000Y-3437360D01*
X29000001Y-3437360D01*
X29000001Y-2724728D01*
X29038061Y-2816614D01*
X29108387Y-2886940D01*
X29200273Y-2925000D01*
X29299729Y-2925000D01*
X29391615Y-2886940D01*
X29461941Y-2816614D01*
X29500001Y-2724728D01*
X29500001Y-3437360D01*
X29628935Y-3383954D01*
X29628953Y-3383944D01*
X29759966Y-3296404D01*
X29759974Y-3296398D01*
X29871399Y-3184973D01*
X29871402Y-3184969D01*
X29958948Y-3053948D01*
X29958953Y-3053939D01*
X30019257Y-2908351D01*
X30019259Y-2908343D01*
X30050000Y-2753797D01*
X30050001Y-2753794D01*
X30050001Y-2575000D01*
X29500001Y-2575000D01*
X29500001Y-2075000D01*
X30050001Y-2075000D01*
X30050001Y-1896206D01*
X30050000Y-1896202D01*
X35049999Y-1896202D01*
X35049999Y-2075000D01*
X35599999Y-2075000D01*
X35599999Y-2575000D01*
X35049999Y-2575000D01*
X35049999Y-2753797D01*
X35080740Y-2908343D01*
X35080742Y-2908351D01*
X35141046Y-3053939D01*
X35141051Y-3053948D01*
X35228597Y-3184969D01*
X35228600Y-3184973D01*
X35340025Y-3296398D01*
X35340033Y-3296404D01*
X35471046Y-3383944D01*
X35471064Y-3383954D01*
X35599998Y-3437360D01*
X35599999Y-3437360D01*
X35599999Y-2724728D01*
X35638059Y-2816614D01*
X35708385Y-2886940D01*
X35800271Y-2925000D01*
X35899727Y-2925000D01*
X35991613Y-2886940D01*
X36061939Y-2816614D01*
X36099999Y-2724728D01*
X36099999Y-3437360D01*
X36228933Y-3383954D01*
X36228951Y-3383944D01*
X36359964Y-3296404D01*
X36359972Y-3296398D01*
X36471397Y-3184973D01*
X36471400Y-3184969D01*
X36558946Y-3053948D01*
X36558951Y-3053939D01*
X36619255Y-2908351D01*
X36619257Y-2908343D01*
X36649998Y-2753797D01*
X36649999Y-2753794D01*
X36649999Y-2575000D01*
X36099999Y-2575000D01*
X36099999Y-2075000D01*
X36649999Y-2075000D01*
X36649999Y-1896206D01*
X36649998Y-1896202D01*
X36619257Y-1741656D01*
X36619255Y-1741648D01*
X36573508Y-1631203D01*
X38080000Y-1631203D01*
X38080000Y-1860001D01*
X38580000Y-1860001D01*
X38580000Y-2360001D01*
X38080000Y-2360001D01*
X38080000Y-2588798D01*
X38110741Y-2743344D01*
X38110743Y-2743352D01*
X38171047Y-2888940D01*
X38171052Y-2888949D01*
X38258598Y-3019970D01*
X38258601Y-3019974D01*
X38370026Y-3131399D01*
X38370034Y-3131405D01*
X38501047Y-3218945D01*
X38501065Y-3218955D01*
X38629999Y-3272361D01*
X38630000Y-3272361D01*
X38630000Y-2676989D01*
X38639940Y-2694206D01*
X38695795Y-2750061D01*
X38764204Y-2789557D01*
X38840504Y-2810001D01*
X38919496Y-2810001D01*
X38995796Y-2789557D01*
X39064205Y-2750061D01*
X39120060Y-2694206D01*
X39130000Y-2676989D01*
X39130000Y-3272361D01*
X39258934Y-3218955D01*
X39258952Y-3218945D01*
X39389965Y-3131405D01*
X39389973Y-3131399D01*
X39501398Y-3019974D01*
X39501401Y-3019970D01*
X39588947Y-2888949D01*
X39588952Y-2888940D01*
X39649256Y-2743352D01*
X39649258Y-2743344D01*
X39679999Y-2588798D01*
X39680000Y-2588795D01*
X39680000Y-2360001D01*
X39180000Y-2360001D01*
X39180000Y-1860001D01*
X39680000Y-1860001D01*
X39680000Y-1631207D01*
X39679999Y-1631203D01*
X46720000Y-1631203D01*
X46720000Y-1860001D01*
X47220000Y-1860001D01*
X47220000Y-2360001D01*
X46720000Y-2360001D01*
X46720000Y-2588798D01*
X46750741Y-2743344D01*
X46750743Y-2743352D01*
X46811047Y-2888940D01*
X46811052Y-2888949D01*
X46898598Y-3019970D01*
X46898601Y-3019974D01*
X47010026Y-3131399D01*
X47010034Y-3131405D01*
X47141047Y-3218945D01*
X47141065Y-3218955D01*
X47269999Y-3272361D01*
X47270000Y-3272361D01*
X47270000Y-2676989D01*
X47279940Y-2694206D01*
X47335795Y-2750061D01*
X47404204Y-2789557D01*
X47480504Y-2810001D01*
X47559496Y-2810001D01*
X47635796Y-2789557D01*
X47704205Y-2750061D01*
X47760060Y-2694206D01*
X47770000Y-2676989D01*
X47770000Y-3272361D01*
X47898934Y-3218955D01*
X47898952Y-3218945D01*
X48029965Y-3131405D01*
X48029973Y-3131399D01*
X48141398Y-3019974D01*
X48141401Y-3019970D01*
X48228947Y-2888949D01*
X48228952Y-2888940D01*
X48289256Y-2743352D01*
X48289258Y-2743344D01*
X48319999Y-2588798D01*
X48320000Y-2588795D01*
X48320000Y-2360001D01*
X47820000Y-2360001D01*
X47820000Y-1860001D01*
X48320000Y-1860001D01*
X48320000Y-1631207D01*
X48319999Y-1631203D01*
X48289258Y-1476657D01*
X48289256Y-1476649D01*
X48228952Y-1331061D01*
X48228947Y-1331052D01*
X48141401Y-1200031D01*
X48141398Y-1200027D01*
X48029973Y-1088602D01*
X48029969Y-1088599D01*
X47898948Y-1001053D01*
X47898938Y-1001048D01*
X47770000Y-947640D01*
X47770000Y-1543012D01*
X47760060Y-1525796D01*
X47704205Y-1469941D01*
X47635796Y-1430445D01*
X47559496Y-1410001D01*
X47480504Y-1410001D01*
X47404204Y-1430445D01*
X47335795Y-1469941D01*
X47279940Y-1525796D01*
X47270000Y-1543012D01*
X47270000Y-947640D01*
X47269999Y-947640D01*
X47141061Y-1001048D01*
X47141051Y-1001053D01*
X47010030Y-1088599D01*
X47010026Y-1088602D01*
X46898601Y-1200027D01*
X46898598Y-1200031D01*
X46811052Y-1331052D01*
X46811047Y-1331061D01*
X46750743Y-1476649D01*
X46750741Y-1476657D01*
X46720000Y-1631203D01*
X39679999Y-1631203D01*
X39649258Y-1476657D01*
X39649256Y-1476649D01*
X39588952Y-1331061D01*
X39588947Y-1331052D01*
X39501401Y-1200031D01*
X39501398Y-1200027D01*
X39389973Y-1088602D01*
X39389969Y-1088599D01*
X39258948Y-1001053D01*
X39258938Y-1001048D01*
X39130000Y-947640D01*
X39130000Y-1543012D01*
X39120060Y-1525796D01*
X39064205Y-1469941D01*
X38995796Y-1430445D01*
X38919496Y-1410001D01*
X38840504Y-1410001D01*
X38764204Y-1430445D01*
X38695795Y-1469941D01*
X38639940Y-1525796D01*
X38630000Y-1543012D01*
X38630000Y-947640D01*
X38629999Y-947640D01*
X38501061Y-1001048D01*
X38501051Y-1001053D01*
X38370030Y-1088599D01*
X38370026Y-1088602D01*
X38258601Y-1200027D01*
X38258598Y-1200031D01*
X38171052Y-1331052D01*
X38171047Y-1331061D01*
X38110743Y-1476649D01*
X38110741Y-1476657D01*
X38080000Y-1631203D01*
X36573508Y-1631203D01*
X36558951Y-1596060D01*
X36558946Y-1596051D01*
X36471400Y-1465030D01*
X36471397Y-1465026D01*
X36359972Y-1353601D01*
X36359968Y-1353598D01*
X36228947Y-1266052D01*
X36228937Y-1266047D01*
X36099999Y-1212639D01*
X36099999Y-1925272D01*
X36061939Y-1833386D01*
X35991613Y-1763060D01*
X35899727Y-1725000D01*
X35800271Y-1725000D01*
X35708385Y-1763060D01*
X35638059Y-1833386D01*
X35599999Y-1925272D01*
X35599999Y-1212639D01*
X35599998Y-1212639D01*
X35471060Y-1266047D01*
X35471050Y-1266052D01*
X35340029Y-1353598D01*
X35340025Y-1353601D01*
X35228600Y-1465026D01*
X35228597Y-1465030D01*
X35141051Y-1596051D01*
X35141046Y-1596060D01*
X35080742Y-1741648D01*
X35080740Y-1741656D01*
X35049999Y-1896202D01*
X30050000Y-1896202D01*
X30019259Y-1741656D01*
X30019257Y-1741648D01*
X29958953Y-1596060D01*
X29958948Y-1596051D01*
X29871402Y-1465030D01*
X29871399Y-1465026D01*
X29759974Y-1353601D01*
X29759970Y-1353598D01*
X29628949Y-1266052D01*
X29628939Y-1266047D01*
X29500001Y-1212639D01*
X29500001Y-1925272D01*
X29461941Y-1833386D01*
X29391615Y-1763060D01*
X29299729Y-1725000D01*
X29200273Y-1725000D01*
X29108387Y-1763060D01*
X29038061Y-1833386D01*
X29000001Y-1925272D01*
X29000001Y-1212639D01*
X29000000Y-1212639D01*
X28871062Y-1266047D01*
X28871052Y-1266052D01*
X28740031Y-1353598D01*
X28740027Y-1353601D01*
X28628602Y-1465026D01*
X28628599Y-1465030D01*
X28541053Y-1596051D01*
X28541048Y-1596060D01*
X28480744Y-1741648D01*
X28480742Y-1741656D01*
X28450001Y-1896202D01*
X25395243Y-1896202D01*
X25414593Y-1860001D01*
X25443012Y-1806834D01*
X25443012Y-1806833D01*
X25443015Y-1806828D01*
X25500225Y-1618233D01*
X25519542Y-1422101D01*
X25500225Y-1225969D01*
X25443015Y-1037374D01*
X25443012Y-1037370D01*
X25443012Y-1037367D01*
X25350114Y-863568D01*
X25350110Y-863561D01*
X25221220Y-706509D01*
X25222415Y-705528D01*
X25192563Y-650858D01*
X25197547Y-581166D01*
X25239419Y-525233D01*
X25304883Y-500816D01*
X25313729Y-500500D01*
X48591324Y-500500D01*
X48658363Y-520185D01*
X48679005Y-536819D01*
X49463181Y-1320995D01*
X49496666Y-1382318D01*
X49499500Y-1408676D01*
X49499500Y-70766324D01*
X49479815Y-70833363D01*
X49463181Y-70854005D01*
X45854005Y-74463181D01*
X45792682Y-74496666D01*
X45766324Y-74499500D01*
X3058676Y-74499500D01*
X2991637Y-74479815D01*
X2970995Y-74463181D01*
X536819Y-72029005D01*
X503334Y-71967682D01*
X500500Y-71941324D01*
X500500Y-67873619D01*
X3071700Y-67873619D01*
X3071700Y-68126380D01*
X3071701Y-68126396D01*
X3104693Y-68376998D01*
X3170116Y-68621160D01*
X3266848Y-68854691D01*
X3266853Y-68854702D01*
X3342847Y-68986325D01*
X3393237Y-69073604D01*
X3393239Y-69073607D01*
X3393240Y-69073608D01*
X3547115Y-69274142D01*
X3547121Y-69274149D01*
X3725850Y-69452878D01*
X3725856Y-69452883D01*
X3926396Y-69606763D01*
X4067090Y-69687992D01*
X4145297Y-69733146D01*
X4145302Y-69733148D01*
X4145305Y-69733150D01*
X4378838Y-69829883D01*
X4623000Y-69895306D01*
X4873613Y-69928300D01*
X4873620Y-69928300D01*
X5126380Y-69928300D01*
X5126387Y-69928300D01*
X5377000Y-69895306D01*
X5621162Y-69829883D01*
X5854695Y-69733150D01*
X6073604Y-69606763D01*
X6274144Y-69452883D01*
X6452883Y-69274144D01*
X6606763Y-69073604D01*
X6733150Y-68854695D01*
X6829883Y-68621162D01*
X6895306Y-68377000D01*
X6928300Y-68126387D01*
X6928300Y-67873619D01*
X42071700Y-67873619D01*
X42071700Y-68126380D01*
X42071701Y-68126396D01*
X42104693Y-68376998D01*
X42170116Y-68621160D01*
X42266848Y-68854691D01*
X42266853Y-68854702D01*
X42342847Y-68986325D01*
X42393237Y-69073604D01*
X42393239Y-69073607D01*
X42393240Y-69073608D01*
X42547115Y-69274142D01*
X42547121Y-69274149D01*
X42725850Y-69452878D01*
X42725856Y-69452883D01*
X42926396Y-69606763D01*
X43067090Y-69687992D01*
X43145297Y-69733146D01*
X43145302Y-69733148D01*
X43145305Y-69733150D01*
X43378838Y-69829883D01*
X43623000Y-69895306D01*
X43873613Y-69928300D01*
X43873620Y-69928300D01*
X44126380Y-69928300D01*
X44126387Y-69928300D01*
X44377000Y-69895306D01*
X44621162Y-69829883D01*
X44854695Y-69733150D01*
X45073604Y-69606763D01*
X45274144Y-69452883D01*
X45452883Y-69274144D01*
X45606763Y-69073604D01*
X45733150Y-68854695D01*
X45829883Y-68621162D01*
X45895306Y-68377000D01*
X45928300Y-68126387D01*
X45928300Y-67873613D01*
X45895306Y-67623000D01*
X45829883Y-67378838D01*
X45733150Y-67145305D01*
X45733148Y-67145302D01*
X45733146Y-67145297D01*
X45687992Y-67067090D01*
X45606763Y-66926396D01*
X45452883Y-66725856D01*
X45452878Y-66725850D01*
X45274149Y-66547121D01*
X45274142Y-66547115D01*
X45073608Y-66393240D01*
X45073607Y-66393239D01*
X45073604Y-66393237D01*
X44986325Y-66342847D01*
X44854702Y-66266853D01*
X44854691Y-66266848D01*
X44621160Y-66170116D01*
X44376998Y-66104693D01*
X44126396Y-66071701D01*
X44126393Y-66071700D01*
X44126387Y-66071700D01*
X43873613Y-66071700D01*
X43873607Y-66071700D01*
X43873603Y-66071701D01*
X43623001Y-66104693D01*
X43378839Y-66170116D01*
X43145308Y-66266848D01*
X43145297Y-66266853D01*
X42926391Y-66393240D01*
X42725857Y-66547115D01*
X42725850Y-66547121D01*
X42547121Y-66725850D01*
X42547115Y-66725857D01*
X42393240Y-66926391D01*
X42266853Y-67145297D01*
X42266848Y-67145308D01*
X42170116Y-67378839D01*
X42104693Y-67623001D01*
X42071701Y-67873603D01*
X42071700Y-67873619D01*
X6928300Y-67873619D01*
X6928300Y-67873613D01*
X6895306Y-67623000D01*
X6829883Y-67378838D01*
X6733150Y-67145305D01*
X6733148Y-67145302D01*
X6733146Y-67145297D01*
X6687992Y-67067090D01*
X6606763Y-66926396D01*
X6452883Y-66725856D01*
X6452878Y-66725850D01*
X6274149Y-66547121D01*
X6274142Y-66547115D01*
X6073608Y-66393240D01*
X6073607Y-66393239D01*
X6073604Y-66393237D01*
X5986325Y-66342847D01*
X5854702Y-66266853D01*
X5854691Y-66266848D01*
X5621160Y-66170116D01*
X5376998Y-66104693D01*
X5126396Y-66071701D01*
X5126393Y-66071700D01*
X5126387Y-66071700D01*
X4873613Y-66071700D01*
X4873607Y-66071700D01*
X4873603Y-66071701D01*
X4623001Y-66104693D01*
X4378839Y-66170116D01*
X4145308Y-66266848D01*
X4145297Y-66266853D01*
X3926391Y-66393240D01*
X3725857Y-66547115D01*
X3725850Y-66547121D01*
X3547121Y-66725850D01*
X3547115Y-66725857D01*
X3393240Y-66926391D01*
X3266853Y-67145297D01*
X3266848Y-67145308D01*
X3170116Y-67378839D01*
X3104693Y-67623001D01*
X3071701Y-67873603D01*
X3071700Y-67873619D01*
X500500Y-67873619D01*
X500500Y-57014999D01*
X4994357Y-57014999D01*
X4994357Y-57015000D01*
X5014884Y-57236535D01*
X5014885Y-57236537D01*
X5075769Y-57450523D01*
X5075775Y-57450538D01*
X5174938Y-57649683D01*
X5174943Y-57649691D01*
X5309020Y-57827238D01*
X5473437Y-57977123D01*
X5473439Y-57977125D01*
X5662595Y-58094245D01*
X5662596Y-58094245D01*
X5662599Y-58094247D01*
X5856524Y-58169374D01*
X5911924Y-58211946D01*
X5935515Y-58277713D01*
X5919804Y-58345793D01*
X5869780Y-58394572D01*
X5856533Y-58400622D01*
X5708488Y-58457975D01*
X5662601Y-58475752D01*
X5662595Y-58475754D01*
X5473439Y-58592874D01*
X5473437Y-58592876D01*
X5309020Y-58742761D01*
X5174943Y-58920308D01*
X5174938Y-58920316D01*
X5075775Y-59119461D01*
X5075769Y-59119476D01*
X5014885Y-59333462D01*
X5014884Y-59333464D01*
X4994357Y-59554999D01*
X4994357Y-59555000D01*
X5014884Y-59776535D01*
X5014885Y-59776537D01*
X5075769Y-59990523D01*
X5075775Y-59990538D01*
X5174938Y-60189683D01*
X5174943Y-60189691D01*
X5309020Y-60367238D01*
X5473437Y-60517123D01*
X5473439Y-60517125D01*
X5662595Y-60634245D01*
X5662596Y-60634245D01*
X5662599Y-60634247D01*
X5870060Y-60714618D01*
X6088757Y-60755500D01*
X6088759Y-60755500D01*
X6311241Y-60755500D01*
X6311243Y-60755500D01*
X6529940Y-60714618D01*
X6737401Y-60634247D01*
X6926562Y-60517124D01*
X7090981Y-60367236D01*
X7225058Y-60189689D01*
X7324229Y-59990528D01*
X7385115Y-59776536D01*
X7405643Y-59555000D01*
X7385115Y-59333464D01*
X7324229Y-59119472D01*
X7324224Y-59119461D01*
X7225061Y-58920316D01*
X7225056Y-58920308D01*
X7090979Y-58742761D01*
X6926562Y-58592876D01*
X6926560Y-58592874D01*
X6737404Y-58475754D01*
X6737395Y-58475750D01*
X6643037Y-58439196D01*
X6543475Y-58400625D01*
X6488075Y-58358054D01*
X6464484Y-58292288D01*
X6480195Y-58224207D01*
X6530219Y-58175428D01*
X6543466Y-58169377D01*
X6737401Y-58094247D01*
X6926562Y-57977124D01*
X7090981Y-57827236D01*
X7225058Y-57649689D01*
X7324229Y-57450528D01*
X7385115Y-57236536D01*
X7405643Y-57015000D01*
X7385115Y-56793464D01*
X7324229Y-56579472D01*
X7321653Y-56574298D01*
X7225061Y-56380316D01*
X7225056Y-56380308D01*
X7090979Y-56202761D01*
X6926562Y-56052876D01*
X6926560Y-56052874D01*
X6737404Y-55935754D01*
X6737398Y-55935751D01*
X6684159Y-55915127D01*
X6628758Y-55872554D01*
X6605167Y-55806787D01*
X6620878Y-55738707D01*
X6670902Y-55689928D01*
X6728953Y-55675500D01*
X7083261Y-55675500D01*
X7105971Y-55672191D01*
X7151393Y-55665573D01*
X7256483Y-55614198D01*
X7339198Y-55531483D01*
X7390573Y-55426393D01*
X7400500Y-55358260D01*
X7400500Y-54706739D01*
X14589500Y-54706739D01*
X14589500Y-56373260D01*
X14599426Y-56441391D01*
X14650803Y-56546485D01*
X14733514Y-56629196D01*
X14733515Y-56629196D01*
X14733517Y-56629198D01*
X14838607Y-56680573D01*
X14872673Y-56685536D01*
X14906739Y-56690500D01*
X14906740Y-56690500D01*
X16573261Y-56690500D01*
X16595971Y-56687191D01*
X16641393Y-56680573D01*
X16746483Y-56629198D01*
X16829198Y-56546483D01*
X16880573Y-56441393D01*
X16890500Y-56373260D01*
X16890500Y-55696053D01*
X16910185Y-55629014D01*
X16962989Y-55583259D01*
X17032147Y-55573315D01*
X17095703Y-55602340D01*
X17133477Y-55661118D01*
X17137971Y-55684612D01*
X17144244Y-55752310D01*
X17202596Y-55957392D01*
X17202596Y-55957394D01*
X17297632Y-56148253D01*
X17424085Y-56315702D01*
X17426128Y-56318407D01*
X17583698Y-56462052D01*
X17764981Y-56574298D01*
X17963802Y-56651321D01*
X18173390Y-56690500D01*
X18173392Y-56690500D01*
X18386608Y-56690500D01*
X18386610Y-56690500D01*
X18596198Y-56651321D01*
X18795019Y-56574298D01*
X18976302Y-56462052D01*
X19133872Y-56318407D01*
X19262366Y-56148255D01*
X19357405Y-55957389D01*
X19415756Y-55752310D01*
X19435429Y-55540000D01*
X19415756Y-55327690D01*
X19405032Y-55289999D01*
X19695486Y-55289999D01*
X19695487Y-55290000D01*
X20504313Y-55290000D01*
X20499919Y-55294394D01*
X20447258Y-55385606D01*
X20419999Y-55487339D01*
X20419999Y-55592661D01*
X20447258Y-55694394D01*
X20499919Y-55785606D01*
X20504313Y-55790000D01*
X19695487Y-55790000D01*
X19743061Y-55957205D01*
X19743066Y-55957218D01*
X19838060Y-56147991D01*
X19966499Y-56318071D01*
X20123999Y-56461651D01*
X20124001Y-56461653D01*
X20305200Y-56573846D01*
X20305206Y-56573849D01*
X20503940Y-56650838D01*
X20569999Y-56663186D01*
X20569999Y-55855686D01*
X20574393Y-55860080D01*
X20665605Y-55912741D01*
X20767338Y-55940000D01*
X20872660Y-55940000D01*
X20974393Y-55912741D01*
X21065605Y-55860080D01*
X21069999Y-55855686D01*
X21069999Y-56663185D01*
X21136057Y-56650838D01*
X21334791Y-56573849D01*
X21334797Y-56573846D01*
X21515996Y-56461653D01*
X21515998Y-56461651D01*
X21673498Y-56318071D01*
X21801937Y-56147991D01*
X21896931Y-55957218D01*
X21896936Y-55957205D01*
X21944511Y-55790000D01*
X21135685Y-55790000D01*
X21140079Y-55785606D01*
X21192740Y-55694394D01*
X21219999Y-55592661D01*
X21219999Y-55539999D01*
X22204571Y-55539999D01*
X22204571Y-55540000D01*
X22224244Y-55752310D01*
X22282596Y-55957392D01*
X22282596Y-55957394D01*
X22377632Y-56148253D01*
X22504085Y-56315702D01*
X22506128Y-56318407D01*
X22663698Y-56462052D01*
X22844981Y-56574298D01*
X23043802Y-56651321D01*
X23253390Y-56690500D01*
X23253392Y-56690500D01*
X23466608Y-56690500D01*
X23466610Y-56690500D01*
X23676198Y-56651321D01*
X23875019Y-56574298D01*
X23967980Y-56516739D01*
X30572000Y-56516739D01*
X30572000Y-58183260D01*
X30581926Y-58251391D01*
X30633303Y-58356485D01*
X30716014Y-58439196D01*
X30716015Y-58439196D01*
X30716017Y-58439198D01*
X30821107Y-58490573D01*
X30855173Y-58495536D01*
X30889239Y-58500500D01*
X30889240Y-58500500D01*
X32555761Y-58500500D01*
X32578471Y-58497191D01*
X32623893Y-58490573D01*
X32728983Y-58439198D01*
X32811698Y-58356483D01*
X32863073Y-58251393D01*
X32873000Y-58183260D01*
X32873000Y-57506053D01*
X32892685Y-57439014D01*
X32945489Y-57393259D01*
X33014647Y-57383315D01*
X33078203Y-57412340D01*
X33115977Y-57471118D01*
X33120470Y-57494611D01*
X33126744Y-57562310D01*
X33151606Y-57649691D01*
X33185096Y-57767392D01*
X33185096Y-57767394D01*
X33280132Y-57958253D01*
X33294383Y-57977124D01*
X33408628Y-58128407D01*
X33566198Y-58272052D01*
X33747481Y-58384298D01*
X33946302Y-58461321D01*
X34155890Y-58500500D01*
X34155892Y-58500500D01*
X34369108Y-58500500D01*
X34369110Y-58500500D01*
X34578698Y-58461321D01*
X34777519Y-58384298D01*
X34958802Y-58272052D01*
X35116372Y-58128407D01*
X35244866Y-57958255D01*
X35339905Y-57767389D01*
X35398256Y-57562310D01*
X35417929Y-57350000D01*
X35398256Y-57137690D01*
X35387532Y-57099999D01*
X35677986Y-57099999D01*
X35677987Y-57100000D01*
X36486813Y-57100000D01*
X36482419Y-57104394D01*
X36429758Y-57195606D01*
X36402499Y-57297339D01*
X36402499Y-57402661D01*
X36429758Y-57504394D01*
X36482419Y-57595606D01*
X36486813Y-57600000D01*
X35677987Y-57600000D01*
X35725561Y-57767205D01*
X35725566Y-57767218D01*
X35820560Y-57957991D01*
X35948999Y-58128071D01*
X36106499Y-58271651D01*
X36106501Y-58271653D01*
X36287700Y-58383846D01*
X36287706Y-58383849D01*
X36486440Y-58460838D01*
X36552499Y-58473186D01*
X36552499Y-57665686D01*
X36556893Y-57670080D01*
X36648105Y-57722741D01*
X36749838Y-57750000D01*
X36855160Y-57750000D01*
X36956893Y-57722741D01*
X37048105Y-57670080D01*
X37052499Y-57665686D01*
X37052499Y-58473185D01*
X37118557Y-58460838D01*
X37317291Y-58383849D01*
X37317297Y-58383846D01*
X37498496Y-58271653D01*
X37498498Y-58271651D01*
X37655998Y-58128071D01*
X37784437Y-57957991D01*
X37879431Y-57767218D01*
X37879436Y-57767205D01*
X37927011Y-57600000D01*
X37118185Y-57600000D01*
X37122579Y-57595606D01*
X37175240Y-57504394D01*
X37202499Y-57402661D01*
X37202499Y-57350000D01*
X38187071Y-57350000D01*
X38206744Y-57562310D01*
X38231606Y-57649691D01*
X38265096Y-57767392D01*
X38265096Y-57767394D01*
X38360132Y-57958253D01*
X38374383Y-57977124D01*
X38488628Y-58128407D01*
X38646198Y-58272052D01*
X38827481Y-58384298D01*
X39026302Y-58461321D01*
X39235890Y-58500500D01*
X39235892Y-58500500D01*
X39449108Y-58500500D01*
X39449110Y-58500500D01*
X39658698Y-58461321D01*
X39857519Y-58384298D01*
X40038802Y-58272052D01*
X40196372Y-58128407D01*
X40324866Y-57958255D01*
X40419905Y-57767389D01*
X40478256Y-57562310D01*
X40497929Y-57350000D01*
X40478256Y-57137690D01*
X40419905Y-56932611D01*
X40419903Y-56932606D01*
X40419903Y-56932605D01*
X40324867Y-56741746D01*
X40196372Y-56571593D01*
X40168828Y-56546483D01*
X40038802Y-56427948D01*
X39857519Y-56315702D01*
X39857517Y-56315701D01*
X39715807Y-56260803D01*
X39658698Y-56238679D01*
X39449110Y-56199500D01*
X39235890Y-56199500D01*
X39026302Y-56238679D01*
X39026299Y-56238679D01*
X39026299Y-56238680D01*
X38827482Y-56315701D01*
X38827480Y-56315702D01*
X38646199Y-56427947D01*
X38488627Y-56571593D01*
X38360132Y-56741746D01*
X38265096Y-56932605D01*
X38265096Y-56932607D01*
X38206744Y-57137689D01*
X38190358Y-57314532D01*
X38187071Y-57350000D01*
X37202499Y-57350000D01*
X37202499Y-57297339D01*
X37175240Y-57195606D01*
X37122579Y-57104394D01*
X37118185Y-57100000D01*
X37927011Y-57100000D01*
X37927011Y-57099999D01*
X37879436Y-56932794D01*
X37879431Y-56932781D01*
X37784437Y-56742008D01*
X37655998Y-56571928D01*
X37498498Y-56428348D01*
X37498496Y-56428346D01*
X37317297Y-56316153D01*
X37317288Y-56316149D01*
X37118562Y-56239163D01*
X37118557Y-56239162D01*
X37052499Y-56226813D01*
X37052499Y-57034314D01*
X37048105Y-57029920D01*
X36956893Y-56977259D01*
X36855160Y-56950000D01*
X36749838Y-56950000D01*
X36648105Y-56977259D01*
X36556893Y-57029920D01*
X36552499Y-57034314D01*
X36552499Y-56226813D01*
X36486440Y-56239162D01*
X36486435Y-56239163D01*
X36287709Y-56316149D01*
X36287700Y-56316153D01*
X36106501Y-56428346D01*
X36106499Y-56428348D01*
X35948999Y-56571928D01*
X35820560Y-56742008D01*
X35725566Y-56932781D01*
X35725561Y-56932794D01*
X35677986Y-57099999D01*
X35387532Y-57099999D01*
X35339905Y-56932611D01*
X35339903Y-56932606D01*
X35339903Y-56932605D01*
X35244867Y-56741746D01*
X35116372Y-56571593D01*
X35088828Y-56546483D01*
X34958802Y-56427948D01*
X34777519Y-56315702D01*
X34777517Y-56315701D01*
X34635807Y-56260803D01*
X34578698Y-56238679D01*
X34369110Y-56199500D01*
X34155890Y-56199500D01*
X33946302Y-56238679D01*
X33946299Y-56238679D01*
X33946299Y-56238680D01*
X33747482Y-56315701D01*
X33747480Y-56315702D01*
X33566199Y-56427947D01*
X33408627Y-56571593D01*
X33280132Y-56741746D01*
X33185096Y-56932605D01*
X33185096Y-56932607D01*
X33126744Y-57137689D01*
X33120471Y-57205387D01*
X33094685Y-57270324D01*
X33037884Y-57311012D01*
X32968104Y-57314532D01*
X32907497Y-57279767D01*
X32875307Y-57217754D01*
X32873000Y-57193946D01*
X32873000Y-56516739D01*
X32864974Y-56461653D01*
X32863073Y-56448607D01*
X32811698Y-56343517D01*
X32811696Y-56343515D01*
X32811696Y-56343514D01*
X32728985Y-56260803D01*
X32623891Y-56209426D01*
X32555761Y-56199500D01*
X32555760Y-56199500D01*
X30889240Y-56199500D01*
X30889239Y-56199500D01*
X30821108Y-56209426D01*
X30716014Y-56260803D01*
X30633303Y-56343514D01*
X30581926Y-56448608D01*
X30572000Y-56516739D01*
X23967980Y-56516739D01*
X24056302Y-56462052D01*
X24213872Y-56318407D01*
X24342366Y-56148255D01*
X24437405Y-55957389D01*
X24495756Y-55752310D01*
X24515429Y-55540000D01*
X24495756Y-55327690D01*
X24437405Y-55122611D01*
X24437403Y-55122606D01*
X24437403Y-55122605D01*
X24342367Y-54931746D01*
X24213872Y-54761593D01*
X24056302Y-54617948D01*
X23875019Y-54505702D01*
X23875017Y-54505701D01*
X23733307Y-54450803D01*
X23676198Y-54428679D01*
X23466610Y-54389500D01*
X23253390Y-54389500D01*
X23043802Y-54428679D01*
X23043799Y-54428679D01*
X23043799Y-54428680D01*
X22844982Y-54505701D01*
X22844980Y-54505702D01*
X22663699Y-54617947D01*
X22506127Y-54761593D01*
X22377632Y-54931746D01*
X22282596Y-55122605D01*
X22282596Y-55122607D01*
X22224244Y-55327689D01*
X22204571Y-55539999D01*
X21219999Y-55539999D01*
X21219999Y-55487339D01*
X21192740Y-55385606D01*
X21140079Y-55294394D01*
X21135685Y-55290000D01*
X21944511Y-55290000D01*
X21944511Y-55289999D01*
X21896936Y-55122794D01*
X21896931Y-55122781D01*
X21801937Y-54932008D01*
X21673498Y-54761928D01*
X21515998Y-54618348D01*
X21515996Y-54618346D01*
X21334797Y-54506153D01*
X21334788Y-54506149D01*
X21136062Y-54429163D01*
X21136057Y-54429162D01*
X21069999Y-54416813D01*
X21069999Y-55224314D01*
X21065605Y-55219920D01*
X20974393Y-55167259D01*
X20872660Y-55140000D01*
X20767338Y-55140000D01*
X20665605Y-55167259D01*
X20574393Y-55219920D01*
X20569999Y-55224314D01*
X20569999Y-54416813D01*
X20503940Y-54429162D01*
X20503935Y-54429163D01*
X20305209Y-54506149D01*
X20305200Y-54506153D01*
X20124001Y-54618346D01*
X20123999Y-54618348D01*
X19966499Y-54761928D01*
X19838060Y-54932008D01*
X19743066Y-55122781D01*
X19743061Y-55122794D01*
X19695486Y-55289999D01*
X19405032Y-55289999D01*
X19357405Y-55122611D01*
X19357403Y-55122606D01*
X19357403Y-55122605D01*
X19262367Y-54931746D01*
X19133872Y-54761593D01*
X18976302Y-54617948D01*
X18795019Y-54505702D01*
X18795017Y-54505701D01*
X18653307Y-54450803D01*
X18596198Y-54428679D01*
X18386610Y-54389500D01*
X18173390Y-54389500D01*
X17963802Y-54428679D01*
X17963799Y-54428679D01*
X17963799Y-54428680D01*
X17764982Y-54505701D01*
X17764980Y-54505702D01*
X17583699Y-54617947D01*
X17426127Y-54761593D01*
X17297632Y-54931746D01*
X17202596Y-55122605D01*
X17202596Y-55122607D01*
X17144244Y-55327689D01*
X17137971Y-55395387D01*
X17112185Y-55460324D01*
X17055384Y-55501012D01*
X16985604Y-55504532D01*
X16924997Y-55469767D01*
X16892807Y-55407754D01*
X16890500Y-55383946D01*
X16890500Y-54706739D01*
X16880573Y-54638608D01*
X16870668Y-54618346D01*
X16829198Y-54533517D01*
X16829196Y-54533515D01*
X16829196Y-54533514D01*
X16746485Y-54450803D01*
X16641391Y-54399426D01*
X16573261Y-54389500D01*
X16573260Y-54389500D01*
X14906740Y-54389500D01*
X14906739Y-54389500D01*
X14838608Y-54399426D01*
X14733514Y-54450803D01*
X14650803Y-54533514D01*
X14599426Y-54638608D01*
X14589500Y-54706739D01*
X7400500Y-54706739D01*
X7400500Y-53591740D01*
X7390573Y-53523607D01*
X7339198Y-53418517D01*
X7339196Y-53418515D01*
X7339196Y-53418514D01*
X7256485Y-53335803D01*
X7151391Y-53284426D01*
X7083261Y-53274500D01*
X7083260Y-53274500D01*
X5316740Y-53274500D01*
X5316739Y-53274500D01*
X5248608Y-53284426D01*
X5143514Y-53335803D01*
X5060803Y-53418514D01*
X5009426Y-53523608D01*
X4999500Y-53591739D01*
X4999500Y-55358260D01*
X5009426Y-55426391D01*
X5060803Y-55531485D01*
X5143514Y-55614196D01*
X5143515Y-55614196D01*
X5143517Y-55614198D01*
X5248607Y-55665573D01*
X5282673Y-55670536D01*
X5316739Y-55675500D01*
X5671047Y-55675500D01*
X5738086Y-55695185D01*
X5783841Y-55747989D01*
X5793785Y-55817147D01*
X5764760Y-55880703D01*
X5715841Y-55915127D01*
X5662601Y-55935751D01*
X5662595Y-55935754D01*
X5473439Y-56052874D01*
X5473437Y-56052876D01*
X5309020Y-56202761D01*
X5174943Y-56380308D01*
X5174938Y-56380316D01*
X5075775Y-56579461D01*
X5075769Y-56579476D01*
X5014885Y-56793462D01*
X5014884Y-56793464D01*
X4994357Y-57014999D01*
X500500Y-57014999D01*
X500500Y-49454999D01*
X4994357Y-49454999D01*
X4994357Y-49455000D01*
X5014884Y-49676535D01*
X5014885Y-49676537D01*
X5075769Y-49890523D01*
X5075775Y-49890538D01*
X5174938Y-50089683D01*
X5174943Y-50089691D01*
X5309020Y-50267238D01*
X5473437Y-50417123D01*
X5473439Y-50417125D01*
X5662595Y-50534245D01*
X5662596Y-50534245D01*
X5662599Y-50534247D01*
X5870060Y-50614618D01*
X6088757Y-50655500D01*
X6088759Y-50655500D01*
X6311241Y-50655500D01*
X6311243Y-50655500D01*
X6529940Y-50614618D01*
X6737401Y-50534247D01*
X6926562Y-50417124D01*
X7090981Y-50267236D01*
X7225058Y-50089689D01*
X7324229Y-49890528D01*
X7369903Y-49729999D01*
X30567071Y-49729999D01*
X30567071Y-49730000D01*
X30586744Y-49942310D01*
X30645096Y-50147392D01*
X30645096Y-50147394D01*
X30740132Y-50338253D01*
X30799694Y-50417125D01*
X30868628Y-50508407D01*
X31026198Y-50652052D01*
X31207481Y-50764298D01*
X31406302Y-50841321D01*
X31615890Y-50880500D01*
X31615892Y-50880500D01*
X31829108Y-50880500D01*
X31829110Y-50880500D01*
X32038698Y-50841321D01*
X32237519Y-50764298D01*
X32418802Y-50652052D01*
X32576372Y-50508407D01*
X32704866Y-50338255D01*
X32799905Y-50147389D01*
X32858256Y-49942310D01*
X32869029Y-49826047D01*
X32894815Y-49761111D01*
X32937122Y-49730804D01*
X33045630Y-49730804D01*
X33082003Y-49751668D01*
X33114193Y-49813681D01*
X33115971Y-49826048D01*
X33126744Y-49942310D01*
X33185096Y-50147392D01*
X33185096Y-50147394D01*
X33280132Y-50338253D01*
X33339694Y-50417125D01*
X33408628Y-50508407D01*
X33566198Y-50652052D01*
X33747481Y-50764298D01*
X33946302Y-50841321D01*
X34155890Y-50880500D01*
X34155892Y-50880500D01*
X34369108Y-50880500D01*
X34369110Y-50880500D01*
X34578698Y-50841321D01*
X34777519Y-50764298D01*
X34958802Y-50652052D01*
X35116372Y-50508407D01*
X35244866Y-50338255D01*
X35339905Y-50147389D01*
X35398256Y-49942310D01*
X35409029Y-49826047D01*
X35434815Y-49761111D01*
X35477122Y-49730804D01*
X35585630Y-49730804D01*
X35622003Y-49751668D01*
X35654193Y-49813681D01*
X35655971Y-49826048D01*
X35666744Y-49942310D01*
X35725096Y-50147392D01*
X35725096Y-50147394D01*
X35820132Y-50338253D01*
X35879694Y-50417125D01*
X35948628Y-50508407D01*
X36106198Y-50652052D01*
X36287481Y-50764298D01*
X36486302Y-50841321D01*
X36695890Y-50880500D01*
X36695892Y-50880500D01*
X36909108Y-50880500D01*
X36909110Y-50880500D01*
X37118698Y-50841321D01*
X37317519Y-50764298D01*
X37498802Y-50652052D01*
X37656372Y-50508407D01*
X37784866Y-50338255D01*
X37879905Y-50147389D01*
X37938256Y-49942310D01*
X37949029Y-49826047D01*
X37974815Y-49761111D01*
X38017122Y-49730804D01*
X38125630Y-49730804D01*
X38162003Y-49751668D01*
X38194193Y-49813681D01*
X38195971Y-49826048D01*
X38206744Y-49942310D01*
X38265096Y-50147392D01*
X38265096Y-50147394D01*
X38360132Y-50338253D01*
X38419694Y-50417125D01*
X38488628Y-50508407D01*
X38646198Y-50652052D01*
X38827481Y-50764298D01*
X39026302Y-50841321D01*
X39235890Y-50880500D01*
X39235892Y-50880500D01*
X39449108Y-50880500D01*
X39449110Y-50880500D01*
X39658698Y-50841321D01*
X39857519Y-50764298D01*
X40038802Y-50652052D01*
X40196372Y-50508407D01*
X40324866Y-50338255D01*
X40419905Y-50147389D01*
X40478256Y-49942310D01*
X40497929Y-49730000D01*
X40478256Y-49517690D01*
X40419905Y-49312611D01*
X40419903Y-49312606D01*
X40419903Y-49312605D01*
X40324867Y-49121746D01*
X40196372Y-48951593D01*
X40038802Y-48807948D01*
X39857519Y-48695702D01*
X39857517Y-48695701D01*
X39720861Y-48642761D01*
X39658698Y-48618679D01*
X39449110Y-48579500D01*
X39235890Y-48579500D01*
X39026302Y-48618679D01*
X39026299Y-48618679D01*
X39026299Y-48618680D01*
X38827482Y-48695701D01*
X38827480Y-48695702D01*
X38646199Y-48807947D01*
X38488627Y-48951593D01*
X38360132Y-49121746D01*
X38265096Y-49312605D01*
X38265096Y-49312607D01*
X38206744Y-49517689D01*
X38195971Y-49633951D01*
X38170185Y-49698888D01*
X38125630Y-49730804D01*
X38017122Y-49730804D01*
X38019369Y-49729194D01*
X37982997Y-49708331D01*
X37950807Y-49646318D01*
X37949029Y-49633951D01*
X37948349Y-49626613D01*
X37938256Y-49517690D01*
X37879905Y-49312611D01*
X37879903Y-49312606D01*
X37879903Y-49312605D01*
X37784867Y-49121746D01*
X37656372Y-48951593D01*
X37498802Y-48807948D01*
X37317519Y-48695702D01*
X37317517Y-48695701D01*
X37180861Y-48642761D01*
X37118698Y-48618679D01*
X36909110Y-48579500D01*
X36695890Y-48579500D01*
X36486302Y-48618679D01*
X36486299Y-48618679D01*
X36486299Y-48618680D01*
X36287482Y-48695701D01*
X36287480Y-48695702D01*
X36106199Y-48807947D01*
X35948627Y-48951593D01*
X35820132Y-49121746D01*
X35725096Y-49312605D01*
X35725096Y-49312607D01*
X35666744Y-49517689D01*
X35655971Y-49633951D01*
X35630185Y-49698888D01*
X35585630Y-49730804D01*
X35477122Y-49730804D01*
X35479369Y-49729194D01*
X35442997Y-49708331D01*
X35410807Y-49646318D01*
X35409029Y-49633951D01*
X35408349Y-49626613D01*
X35398256Y-49517690D01*
X35339905Y-49312611D01*
X35339903Y-49312606D01*
X35339903Y-49312605D01*
X35244867Y-49121746D01*
X35116372Y-48951593D01*
X34958802Y-48807948D01*
X34777519Y-48695702D01*
X34777517Y-48695701D01*
X34640861Y-48642761D01*
X34578698Y-48618679D01*
X34369110Y-48579500D01*
X34155890Y-48579500D01*
X33946302Y-48618679D01*
X33946299Y-48618679D01*
X33946299Y-48618680D01*
X33747482Y-48695701D01*
X33747480Y-48695702D01*
X33566199Y-48807947D01*
X33408627Y-48951593D01*
X33280132Y-49121746D01*
X33185096Y-49312605D01*
X33185096Y-49312607D01*
X33126744Y-49517689D01*
X33115971Y-49633951D01*
X33090185Y-49698888D01*
X33045630Y-49730804D01*
X32937122Y-49730804D01*
X32939369Y-49729194D01*
X32902997Y-49708331D01*
X32870807Y-49646318D01*
X32869029Y-49633951D01*
X32868349Y-49626613D01*
X32858256Y-49517690D01*
X32799905Y-49312611D01*
X32799903Y-49312606D01*
X32799903Y-49312605D01*
X32704867Y-49121746D01*
X32576372Y-48951593D01*
X32418802Y-48807948D01*
X32237519Y-48695702D01*
X32237517Y-48695701D01*
X32100861Y-48642761D01*
X32038698Y-48618679D01*
X31829110Y-48579500D01*
X31615890Y-48579500D01*
X31406302Y-48618679D01*
X31406299Y-48618679D01*
X31406299Y-48618680D01*
X31207482Y-48695701D01*
X31207480Y-48695702D01*
X31026199Y-48807947D01*
X30868627Y-48951593D01*
X30740132Y-49121746D01*
X30645096Y-49312605D01*
X30645096Y-49312607D01*
X30586744Y-49517689D01*
X30567071Y-49729999D01*
X7369903Y-49729999D01*
X7385115Y-49676536D01*
X7405643Y-49455000D01*
X7385115Y-49233464D01*
X7324229Y-49019472D01*
X7291776Y-48954297D01*
X7225061Y-48820316D01*
X7225056Y-48820308D01*
X7090979Y-48642761D01*
X6926562Y-48492876D01*
X6926560Y-48492874D01*
X6737404Y-48375754D01*
X6737398Y-48375751D01*
X6684159Y-48355127D01*
X6628758Y-48312554D01*
X6605167Y-48246787D01*
X6620878Y-48178707D01*
X6670902Y-48129928D01*
X6728953Y-48115500D01*
X7083261Y-48115500D01*
X7105971Y-48112191D01*
X7151393Y-48105573D01*
X7256483Y-48054198D01*
X7339198Y-47971483D01*
X7364367Y-47919999D01*
X14584571Y-47919999D01*
X14584571Y-47920000D01*
X14604244Y-48132310D01*
X14662596Y-48337392D01*
X14662596Y-48337394D01*
X14757632Y-48528253D01*
X14884085Y-48695702D01*
X14886128Y-48698407D01*
X15043698Y-48842052D01*
X15224981Y-48954298D01*
X15423802Y-49031321D01*
X15633390Y-49070500D01*
X15633392Y-49070500D01*
X15846608Y-49070500D01*
X15846610Y-49070500D01*
X16056198Y-49031321D01*
X16255019Y-48954298D01*
X16436302Y-48842052D01*
X16593872Y-48698407D01*
X16722366Y-48528255D01*
X16722367Y-48528253D01*
X16817403Y-48337394D01*
X16817403Y-48337393D01*
X16817405Y-48337389D01*
X16875756Y-48132310D01*
X16886529Y-48016047D01*
X16912315Y-47951111D01*
X16954622Y-47920804D01*
X17063130Y-47920804D01*
X17099503Y-47941668D01*
X17131693Y-48003681D01*
X17133471Y-48016048D01*
X17144244Y-48132310D01*
X17202596Y-48337392D01*
X17202596Y-48337394D01*
X17297632Y-48528253D01*
X17424085Y-48695702D01*
X17426128Y-48698407D01*
X17583698Y-48842052D01*
X17764981Y-48954298D01*
X17963802Y-49031321D01*
X18173390Y-49070500D01*
X18173392Y-49070500D01*
X18386608Y-49070500D01*
X18386610Y-49070500D01*
X18596198Y-49031321D01*
X18795019Y-48954298D01*
X18976302Y-48842052D01*
X19133872Y-48698407D01*
X19262366Y-48528255D01*
X19262367Y-48528253D01*
X19357403Y-48337394D01*
X19357403Y-48337393D01*
X19357405Y-48337389D01*
X19415756Y-48132310D01*
X19426529Y-48016047D01*
X19452315Y-47951111D01*
X19494622Y-47920804D01*
X19603130Y-47920804D01*
X19639503Y-47941668D01*
X19671693Y-48003681D01*
X19673471Y-48016048D01*
X19684244Y-48132310D01*
X19742596Y-48337392D01*
X19742596Y-48337394D01*
X19837632Y-48528253D01*
X19964085Y-48695702D01*
X19966128Y-48698407D01*
X20123698Y-48842052D01*
X20304981Y-48954298D01*
X20503802Y-49031321D01*
X20713390Y-49070500D01*
X20713392Y-49070500D01*
X20926608Y-49070500D01*
X20926610Y-49070500D01*
X21136198Y-49031321D01*
X21335019Y-48954298D01*
X21516302Y-48842052D01*
X21673872Y-48698407D01*
X21802366Y-48528255D01*
X21802367Y-48528253D01*
X21897403Y-48337394D01*
X21897403Y-48337393D01*
X21897405Y-48337389D01*
X21955756Y-48132310D01*
X21966529Y-48016047D01*
X21992315Y-47951111D01*
X22034622Y-47920804D01*
X22143130Y-47920804D01*
X22179503Y-47941668D01*
X22211693Y-48003681D01*
X22213471Y-48016048D01*
X22224244Y-48132310D01*
X22282596Y-48337392D01*
X22282596Y-48337394D01*
X22377632Y-48528253D01*
X22504085Y-48695702D01*
X22506128Y-48698407D01*
X22663698Y-48842052D01*
X22844981Y-48954298D01*
X23043802Y-49031321D01*
X23253390Y-49070500D01*
X23253392Y-49070500D01*
X23466608Y-49070500D01*
X23466610Y-49070500D01*
X23676198Y-49031321D01*
X23875019Y-48954298D01*
X24056302Y-48842052D01*
X24213872Y-48698407D01*
X24342366Y-48528255D01*
X24342367Y-48528253D01*
X24437403Y-48337394D01*
X24437403Y-48337393D01*
X24437405Y-48337389D01*
X24495756Y-48132310D01*
X24515429Y-47920000D01*
X24495756Y-47707690D01*
X24437405Y-47502611D01*
X24437403Y-47502606D01*
X24437403Y-47502605D01*
X24342367Y-47311746D01*
X24213872Y-47141593D01*
X24056302Y-46997948D01*
X23875019Y-46885702D01*
X23875017Y-46885701D01*
X23775608Y-46847190D01*
X23676198Y-46808679D01*
X23466610Y-46769500D01*
X23253390Y-46769500D01*
X23043802Y-46808679D01*
X23043799Y-46808679D01*
X23043799Y-46808680D01*
X22844982Y-46885701D01*
X22844980Y-46885702D01*
X22663699Y-46997947D01*
X22506127Y-47141593D01*
X22377632Y-47311746D01*
X22282596Y-47502605D01*
X22282596Y-47502607D01*
X22224244Y-47707689D01*
X22213471Y-47823951D01*
X22187685Y-47888888D01*
X22143130Y-47920804D01*
X22034622Y-47920804D01*
X22036869Y-47919194D01*
X22000497Y-47898331D01*
X21968307Y-47836318D01*
X21966529Y-47823951D01*
X21964148Y-47798260D01*
X21955756Y-47707690D01*
X21897405Y-47502611D01*
X21897403Y-47502606D01*
X21897403Y-47502605D01*
X21802367Y-47311746D01*
X21673872Y-47141593D01*
X21516302Y-46997948D01*
X21335019Y-46885702D01*
X21335017Y-46885701D01*
X21235608Y-46847190D01*
X21136198Y-46808679D01*
X20926610Y-46769500D01*
X20713390Y-46769500D01*
X20503802Y-46808679D01*
X20503799Y-46808679D01*
X20503799Y-46808680D01*
X20304982Y-46885701D01*
X20304980Y-46885702D01*
X20123699Y-46997947D01*
X19966127Y-47141593D01*
X19837632Y-47311746D01*
X19742596Y-47502605D01*
X19742596Y-47502607D01*
X19684244Y-47707689D01*
X19673471Y-47823951D01*
X19647685Y-47888888D01*
X19603130Y-47920804D01*
X19494622Y-47920804D01*
X19496869Y-47919194D01*
X19460497Y-47898331D01*
X19428307Y-47836318D01*
X19426529Y-47823951D01*
X19424148Y-47798260D01*
X19415756Y-47707690D01*
X19357405Y-47502611D01*
X19357403Y-47502606D01*
X19357403Y-47502605D01*
X19262367Y-47311746D01*
X19133872Y-47141593D01*
X18976302Y-46997948D01*
X18795019Y-46885702D01*
X18795017Y-46885701D01*
X18695608Y-46847190D01*
X18596198Y-46808679D01*
X18386610Y-46769500D01*
X18173390Y-46769500D01*
X17963802Y-46808679D01*
X17963799Y-46808679D01*
X17963799Y-46808680D01*
X17764982Y-46885701D01*
X17764980Y-46885702D01*
X17583699Y-46997947D01*
X17426127Y-47141593D01*
X17297632Y-47311746D01*
X17202596Y-47502605D01*
X17202596Y-47502607D01*
X17144244Y-47707689D01*
X17133471Y-47823951D01*
X17107685Y-47888888D01*
X17063130Y-47920804D01*
X16954622Y-47920804D01*
X16956869Y-47919194D01*
X16920497Y-47898331D01*
X16888307Y-47836318D01*
X16886529Y-47823951D01*
X16884148Y-47798260D01*
X16875756Y-47707690D01*
X16817405Y-47502611D01*
X16817403Y-47502606D01*
X16817403Y-47502605D01*
X16722367Y-47311746D01*
X16593872Y-47141593D01*
X16436302Y-46997948D01*
X16255019Y-46885702D01*
X16255017Y-46885701D01*
X16155608Y-46847190D01*
X16056198Y-46808679D01*
X15846610Y-46769500D01*
X15633390Y-46769500D01*
X15423802Y-46808679D01*
X15423799Y-46808679D01*
X15423799Y-46808680D01*
X15224982Y-46885701D01*
X15224980Y-46885702D01*
X15043699Y-46997947D01*
X14886127Y-47141593D01*
X14757632Y-47311746D01*
X14662596Y-47502605D01*
X14662596Y-47502607D01*
X14604244Y-47707689D01*
X14584571Y-47919999D01*
X7364367Y-47919999D01*
X7390573Y-47866393D01*
X7400500Y-47798260D01*
X7400500Y-46031740D01*
X7390573Y-45963607D01*
X7379031Y-45939997D01*
X35504751Y-45939997D01*
X35504751Y-45940002D01*
X35523685Y-46108056D01*
X35579545Y-46267694D01*
X35579547Y-46267697D01*
X35669518Y-46410884D01*
X35669523Y-46410890D01*
X35789109Y-46530476D01*
X35789115Y-46530481D01*
X35932302Y-46620452D01*
X35932305Y-46620454D01*
X35932309Y-46620455D01*
X35932310Y-46620456D01*
X36004913Y-46645860D01*
X36091943Y-46676314D01*
X36259997Y-46695249D01*
X36260000Y-46695249D01*
X36260003Y-46695249D01*
X36428056Y-46676314D01*
X36428059Y-46676313D01*
X36587690Y-46620456D01*
X36587692Y-46620454D01*
X36587694Y-46620454D01*
X36587697Y-46620452D01*
X36730884Y-46530481D01*
X36730885Y-46530480D01*
X36730890Y-46530477D01*
X36850477Y-46410890D01*
X36940452Y-46267697D01*
X36940454Y-46267694D01*
X36940454Y-46267692D01*
X36940456Y-46267690D01*
X36996313Y-46108059D01*
X36996313Y-46108058D01*
X36996314Y-46108056D01*
X37015249Y-45940002D01*
X37015249Y-45939997D01*
X36996314Y-45771943D01*
X36940454Y-45612305D01*
X36940452Y-45612302D01*
X36850481Y-45469115D01*
X36850476Y-45469109D01*
X36730890Y-45349523D01*
X36730884Y-45349518D01*
X36587697Y-45259547D01*
X36587694Y-45259545D01*
X36428056Y-45203685D01*
X36260003Y-45184751D01*
X36259997Y-45184751D01*
X36091943Y-45203685D01*
X35932305Y-45259545D01*
X35932302Y-45259547D01*
X35789115Y-45349518D01*
X35789109Y-45349523D01*
X35669523Y-45469109D01*
X35669518Y-45469115D01*
X35579547Y-45612302D01*
X35579545Y-45612305D01*
X35523685Y-45771943D01*
X35504751Y-45939997D01*
X7379031Y-45939997D01*
X7339198Y-45858517D01*
X7339196Y-45858515D01*
X7339196Y-45858514D01*
X7256485Y-45775803D01*
X7151391Y-45724426D01*
X7083261Y-45714500D01*
X7083260Y-45714500D01*
X5316740Y-45714500D01*
X5316739Y-45714500D01*
X5248608Y-45724426D01*
X5143514Y-45775803D01*
X5060803Y-45858514D01*
X5009426Y-45963608D01*
X4999500Y-46031739D01*
X4999500Y-47798260D01*
X5009426Y-47866391D01*
X5060803Y-47971485D01*
X5143514Y-48054196D01*
X5143515Y-48054196D01*
X5143517Y-48054198D01*
X5248607Y-48105573D01*
X5282673Y-48110536D01*
X5316739Y-48115500D01*
X5671047Y-48115500D01*
X5738086Y-48135185D01*
X5783841Y-48187989D01*
X5793785Y-48257147D01*
X5764760Y-48320703D01*
X5715841Y-48355127D01*
X5662601Y-48375751D01*
X5662595Y-48375754D01*
X5473439Y-48492874D01*
X5473437Y-48492876D01*
X5309020Y-48642761D01*
X5174943Y-48820308D01*
X5174938Y-48820316D01*
X5075775Y-49019461D01*
X5075769Y-49019476D01*
X5014885Y-49233462D01*
X5014884Y-49233464D01*
X4994357Y-49454999D01*
X500500Y-49454999D01*
X500500Y-44009999D01*
X8139539Y-44009999D01*
X8139539Y-44010000D01*
X8159311Y-44172842D01*
X8159312Y-44172845D01*
X8217483Y-44326228D01*
X8296055Y-44440059D01*
X8310668Y-44461229D01*
X8310670Y-44461231D01*
X8310672Y-44461233D01*
X8433451Y-44570006D01*
X8433452Y-44570006D01*
X8433454Y-44570008D01*
X8578705Y-44646242D01*
X8578707Y-44646242D01*
X8578708Y-44646243D01*
X8737978Y-44685500D01*
X8737979Y-44685500D01*
X8902022Y-44685500D01*
X9061291Y-44646243D01*
X9061291Y-44646242D01*
X9061295Y-44646242D01*
X9206546Y-44570008D01*
X9329332Y-44461229D01*
X9422518Y-44326226D01*
X9480688Y-44172845D01*
X9481034Y-44169997D01*
X31664751Y-44169997D01*
X31664751Y-44170002D01*
X31683685Y-44338056D01*
X31739545Y-44497694D01*
X31739547Y-44497697D01*
X31829518Y-44640884D01*
X31829523Y-44640890D01*
X31949109Y-44760476D01*
X31949115Y-44760481D01*
X32092302Y-44850452D01*
X32092305Y-44850454D01*
X32092309Y-44850455D01*
X32092310Y-44850456D01*
X32164913Y-44875860D01*
X32251943Y-44906314D01*
X32419997Y-44925249D01*
X32420000Y-44925249D01*
X32420003Y-44925249D01*
X32588056Y-44906314D01*
X32588059Y-44906313D01*
X32747690Y-44850456D01*
X32747692Y-44850454D01*
X32747694Y-44850454D01*
X32747697Y-44850452D01*
X32890884Y-44760481D01*
X32890885Y-44760480D01*
X32890890Y-44760477D01*
X33010477Y-44640890D01*
X33010481Y-44640884D01*
X33100452Y-44497697D01*
X33100454Y-44497694D01*
X33100454Y-44497692D01*
X33100456Y-44497690D01*
X33156313Y-44338059D01*
X33156313Y-44338058D01*
X33156314Y-44338056D01*
X33175249Y-44170002D01*
X33175249Y-44169997D01*
X33156314Y-44001943D01*
X33100454Y-43842305D01*
X33100452Y-43842302D01*
X33010481Y-43699115D01*
X33010476Y-43699109D01*
X32890890Y-43579523D01*
X32890884Y-43579518D01*
X32747697Y-43489547D01*
X32747694Y-43489545D01*
X32588056Y-43433685D01*
X32420003Y-43414751D01*
X32419997Y-43414751D01*
X32251943Y-43433685D01*
X32092305Y-43489545D01*
X32092302Y-43489547D01*
X31949115Y-43579518D01*
X31949109Y-43579523D01*
X31829523Y-43699109D01*
X31829518Y-43699115D01*
X31739547Y-43842302D01*
X31739545Y-43842305D01*
X31683685Y-44001943D01*
X31664751Y-44169997D01*
X9481034Y-44169997D01*
X9500461Y-44010000D01*
X9499482Y-44001941D01*
X9480688Y-43847157D01*
X9480688Y-43847155D01*
X9422518Y-43693774D01*
X9329332Y-43558771D01*
X9329329Y-43558768D01*
X9329327Y-43558766D01*
X9206548Y-43449993D01*
X9061291Y-43373756D01*
X8981226Y-43354022D01*
X42829528Y-43354022D01*
X42971233Y-43429765D01*
X43169165Y-43489807D01*
X43375000Y-43510079D01*
X43580834Y-43489807D01*
X43778764Y-43429765D01*
X43920470Y-43354021D01*
X43375001Y-42808552D01*
X43375000Y-42808552D01*
X42829528Y-43354022D01*
X8981226Y-43354022D01*
X8902022Y-43334500D01*
X8902021Y-43334500D01*
X8737979Y-43334500D01*
X8737978Y-43334500D01*
X8578708Y-43373756D01*
X8433451Y-43449993D01*
X8310672Y-43558766D01*
X8310666Y-43558773D01*
X8217483Y-43693771D01*
X8159312Y-43847154D01*
X8159311Y-43847157D01*
X8139539Y-44009999D01*
X500500Y-44009999D01*
X500500Y-34074999D01*
X4994357Y-34074999D01*
X4994357Y-34075000D01*
X5014884Y-34296535D01*
X5014885Y-34296537D01*
X5075769Y-34510523D01*
X5075775Y-34510538D01*
X5174938Y-34709683D01*
X5174943Y-34709691D01*
X5309020Y-34887238D01*
X5473437Y-35037123D01*
X5473439Y-35037125D01*
X5662595Y-35154245D01*
X5662596Y-35154245D01*
X5662599Y-35154247D01*
X5856524Y-35229374D01*
X5911924Y-35271946D01*
X5935515Y-35337713D01*
X5919804Y-35405793D01*
X5869780Y-35454572D01*
X5856533Y-35460622D01*
X5708488Y-35517975D01*
X5662601Y-35535752D01*
X5662595Y-35535754D01*
X5473439Y-35652874D01*
X5473437Y-35652876D01*
X5309020Y-35802761D01*
X5174943Y-35980308D01*
X5174938Y-35980316D01*
X5075775Y-36179461D01*
X5075769Y-36179476D01*
X5014885Y-36393462D01*
X5014884Y-36393464D01*
X4994357Y-36614999D01*
X4994357Y-36615000D01*
X5014884Y-36836535D01*
X5014885Y-36836537D01*
X5075769Y-37050523D01*
X5075775Y-37050538D01*
X5174938Y-37249683D01*
X5174943Y-37249691D01*
X5309020Y-37427238D01*
X5473437Y-37577123D01*
X5473439Y-37577125D01*
X5662595Y-37694245D01*
X5662596Y-37694245D01*
X5662599Y-37694247D01*
X5856524Y-37769374D01*
X5911924Y-37811946D01*
X5935515Y-37877713D01*
X5919804Y-37945793D01*
X5869780Y-37994572D01*
X5856533Y-38000622D01*
X5708488Y-38057975D01*
X5662601Y-38075752D01*
X5662595Y-38075754D01*
X5473439Y-38192874D01*
X5473437Y-38192876D01*
X5309020Y-38342761D01*
X5174943Y-38520308D01*
X5174938Y-38520316D01*
X5075775Y-38719461D01*
X5075769Y-38719476D01*
X5014885Y-38933462D01*
X5014884Y-38933464D01*
X4994357Y-39154999D01*
X4994357Y-39155000D01*
X5014884Y-39376535D01*
X5014885Y-39376537D01*
X5075769Y-39590523D01*
X5075775Y-39590538D01*
X5174938Y-39789683D01*
X5174943Y-39789691D01*
X5309020Y-39967238D01*
X5473437Y-40117123D01*
X5473439Y-40117125D01*
X5662595Y-40234245D01*
X5662596Y-40234245D01*
X5662599Y-40234247D01*
X5857215Y-40309642D01*
X5912614Y-40352213D01*
X5936205Y-40417980D01*
X5920494Y-40486060D01*
X5870470Y-40534839D01*
X5857213Y-40540893D01*
X5662831Y-40616197D01*
X5662820Y-40616202D01*
X5473738Y-40733278D01*
X5309391Y-40883099D01*
X5175368Y-41060574D01*
X5076239Y-41259650D01*
X5023505Y-41445000D01*
X5766988Y-41445000D01*
X5734075Y-41502007D01*
X5700000Y-41629174D01*
X5700000Y-41760826D01*
X5734075Y-41887993D01*
X5766988Y-41945000D01*
X5023505Y-41945000D01*
X5076239Y-42130349D01*
X5175368Y-42329425D01*
X5309391Y-42506900D01*
X5473738Y-42656721D01*
X5662820Y-42773797D01*
X5662822Y-42773798D01*
X5870195Y-42854135D01*
X5950000Y-42869052D01*
X5950000Y-42128012D01*
X6007007Y-42160925D01*
X6134174Y-42195000D01*
X6265826Y-42195000D01*
X6392993Y-42160925D01*
X6450000Y-42128012D01*
X6450000Y-42869052D01*
X6529804Y-42854135D01*
X6737177Y-42773798D01*
X6737179Y-42773797D01*
X6926261Y-42656721D01*
X7090608Y-42506900D01*
X7129802Y-42454999D01*
X42319919Y-42454999D01*
X42340191Y-42660833D01*
X42400233Y-42858765D01*
X42475975Y-43000468D01*
X42475976Y-43000468D01*
X43021447Y-42454999D01*
X42975369Y-42408921D01*
X43025000Y-42408921D01*
X43025000Y-42501077D01*
X43048852Y-42590094D01*
X43094930Y-42669904D01*
X43160095Y-42735069D01*
X43239905Y-42781147D01*
X43328922Y-42804999D01*
X43421078Y-42804999D01*
X43510095Y-42781147D01*
X43589905Y-42735069D01*
X43655070Y-42669904D01*
X43701148Y-42590094D01*
X43725000Y-42501077D01*
X43725000Y-42454998D01*
X43728553Y-42454998D01*
X43728553Y-42454999D01*
X44274022Y-43000468D01*
X44349766Y-42858763D01*
X44409808Y-42660833D01*
X44430080Y-42454999D01*
X44409808Y-42249164D01*
X44349766Y-42051232D01*
X44274023Y-41909527D01*
X43728553Y-42454998D01*
X43725000Y-42454998D01*
X43725000Y-42408921D01*
X43701148Y-42319904D01*
X43655070Y-42240094D01*
X43589905Y-42174929D01*
X43510095Y-42128851D01*
X43421078Y-42104999D01*
X43328922Y-42104999D01*
X43239905Y-42128851D01*
X43160095Y-42174929D01*
X43094930Y-42240094D01*
X43048852Y-42319904D01*
X43025000Y-42408921D01*
X42975369Y-42408921D01*
X42475976Y-41909528D01*
X42475975Y-41909528D01*
X42400234Y-42051233D01*
X42340191Y-42249165D01*
X42319919Y-42454999D01*
X7129802Y-42454999D01*
X7224631Y-42329425D01*
X7323760Y-42130349D01*
X7376495Y-41945000D01*
X6633012Y-41945000D01*
X6665925Y-41887993D01*
X6700000Y-41760826D01*
X6700000Y-41629174D01*
X6665925Y-41502007D01*
X6633012Y-41445000D01*
X7376495Y-41445000D01*
X7369381Y-41419997D01*
X13224751Y-41419997D01*
X13224751Y-41420002D01*
X13243685Y-41588056D01*
X13299545Y-41747694D01*
X13299547Y-41747697D01*
X13389518Y-41890884D01*
X13389523Y-41890890D01*
X13509109Y-42010476D01*
X13509115Y-42010481D01*
X13652302Y-42100452D01*
X13652305Y-42100454D01*
X13652309Y-42100455D01*
X13652310Y-42100456D01*
X13724913Y-42125860D01*
X13811943Y-42156314D01*
X13979997Y-42175249D01*
X13980000Y-42175249D01*
X13980003Y-42175249D01*
X14148056Y-42156314D01*
X14148059Y-42156313D01*
X14307690Y-42100456D01*
X14307692Y-42100454D01*
X14307694Y-42100454D01*
X14307697Y-42100452D01*
X14450884Y-42010481D01*
X14450885Y-42010480D01*
X14450890Y-42010477D01*
X14570477Y-41890890D01*
X14570481Y-41890884D01*
X14660452Y-41747697D01*
X14660454Y-41747694D01*
X14660454Y-41747692D01*
X14660456Y-41747690D01*
X14716313Y-41588059D01*
X14716313Y-41588058D01*
X14716314Y-41588056D01*
X14735249Y-41420002D01*
X14735249Y-41419997D01*
X14716314Y-41251943D01*
X14660454Y-41092305D01*
X14660452Y-41092302D01*
X14570481Y-40949115D01*
X14570476Y-40949109D01*
X14501364Y-40879997D01*
X30644751Y-40879997D01*
X30644751Y-40880002D01*
X30663685Y-41048056D01*
X30719545Y-41207694D01*
X30719547Y-41207697D01*
X30809518Y-41350884D01*
X30809523Y-41350890D01*
X30929109Y-41470476D01*
X30929115Y-41470481D01*
X31072302Y-41560452D01*
X31072305Y-41560454D01*
X31072309Y-41560455D01*
X31072310Y-41560456D01*
X31144913Y-41585860D01*
X31231943Y-41616314D01*
X31399997Y-41635249D01*
X31400000Y-41635249D01*
X31400003Y-41635249D01*
X31568056Y-41616314D01*
X31568059Y-41616313D01*
X31727690Y-41560456D01*
X31727692Y-41560454D01*
X31727694Y-41560454D01*
X31727697Y-41560452D01*
X31734824Y-41555974D01*
X42829529Y-41555974D01*
X42829529Y-41555975D01*
X43375000Y-42101446D01*
X43375001Y-42101446D01*
X43920469Y-41555975D01*
X43920469Y-41555974D01*
X43778766Y-41480232D01*
X43580834Y-41420190D01*
X43375000Y-41399918D01*
X43169166Y-41420190D01*
X42971234Y-41480233D01*
X42829529Y-41555974D01*
X31734824Y-41555974D01*
X31870884Y-41470481D01*
X31870885Y-41470480D01*
X31870890Y-41470477D01*
X31990477Y-41350890D01*
X31990481Y-41350884D01*
X32080452Y-41207697D01*
X32080454Y-41207694D01*
X32080454Y-41207692D01*
X32080456Y-41207690D01*
X32136313Y-41048059D01*
X32136313Y-41048058D01*
X32136314Y-41048056D01*
X32155249Y-40880002D01*
X32155249Y-40879997D01*
X32136314Y-40711943D01*
X32080454Y-40552305D01*
X32080452Y-40552302D01*
X31990481Y-40409115D01*
X31990476Y-40409109D01*
X31870890Y-40289523D01*
X31870884Y-40289518D01*
X31727697Y-40199547D01*
X31727694Y-40199545D01*
X31568056Y-40143685D01*
X31400003Y-40124751D01*
X31399997Y-40124751D01*
X31231943Y-40143685D01*
X31072305Y-40199545D01*
X31072302Y-40199547D01*
X30929115Y-40289518D01*
X30929109Y-40289523D01*
X30809523Y-40409109D01*
X30809518Y-40409115D01*
X30719547Y-40552302D01*
X30719545Y-40552305D01*
X30663685Y-40711943D01*
X30644751Y-40879997D01*
X14501364Y-40879997D01*
X14450890Y-40829523D01*
X14450884Y-40829518D01*
X14307697Y-40739547D01*
X14307694Y-40739545D01*
X14148056Y-40683685D01*
X13980003Y-40664751D01*
X13979997Y-40664751D01*
X13811943Y-40683685D01*
X13652305Y-40739545D01*
X13652302Y-40739547D01*
X13509115Y-40829518D01*
X13509109Y-40829523D01*
X13389523Y-40949109D01*
X13389518Y-40949115D01*
X13299547Y-41092302D01*
X13299545Y-41092305D01*
X13243685Y-41251943D01*
X13224751Y-41419997D01*
X7369381Y-41419997D01*
X7323760Y-41259650D01*
X7224631Y-41060574D01*
X7090608Y-40883099D01*
X6926261Y-40733278D01*
X6737179Y-40616202D01*
X6737177Y-40616201D01*
X6542786Y-40540894D01*
X6487384Y-40498321D01*
X6463794Y-40432554D01*
X6479505Y-40364474D01*
X6529529Y-40315695D01*
X6542772Y-40309646D01*
X6737401Y-40234247D01*
X6926562Y-40117124D01*
X7090981Y-39967236D01*
X7225058Y-39789689D01*
X7304576Y-39629997D01*
X17414751Y-39629997D01*
X17414751Y-39630002D01*
X17433685Y-39798056D01*
X17489545Y-39957694D01*
X17489547Y-39957697D01*
X17579518Y-40100884D01*
X17579523Y-40100890D01*
X17699109Y-40220476D01*
X17699115Y-40220481D01*
X17842302Y-40310452D01*
X17842305Y-40310454D01*
X17842309Y-40310455D01*
X17842310Y-40310456D01*
X17914913Y-40335860D01*
X18001943Y-40366314D01*
X18169997Y-40385249D01*
X18170000Y-40385249D01*
X18170003Y-40385249D01*
X18338056Y-40366314D01*
X18338059Y-40366313D01*
X18497690Y-40310456D01*
X18497692Y-40310454D01*
X18497694Y-40310454D01*
X18497697Y-40310452D01*
X18640884Y-40220481D01*
X18640885Y-40220480D01*
X18640890Y-40220477D01*
X18760477Y-40100890D01*
X18850452Y-39957697D01*
X18850454Y-39957694D01*
X18850454Y-39957692D01*
X18850456Y-39957690D01*
X18906313Y-39798059D01*
X18906313Y-39798058D01*
X18906314Y-39798056D01*
X18925249Y-39630002D01*
X18925249Y-39629997D01*
X18906314Y-39461943D01*
X18850454Y-39302305D01*
X18850452Y-39302302D01*
X18760481Y-39159115D01*
X18760476Y-39159109D01*
X18640890Y-39039523D01*
X18640884Y-39039518D01*
X18497697Y-38949547D01*
X18497694Y-38949545D01*
X18338056Y-38893685D01*
X18216565Y-38879997D01*
X31954751Y-38879997D01*
X31954751Y-38880002D01*
X31973685Y-39048056D01*
X32029545Y-39207694D01*
X32029547Y-39207697D01*
X32119518Y-39350884D01*
X32119523Y-39350890D01*
X32239109Y-39470476D01*
X32239115Y-39470481D01*
X32382302Y-39560452D01*
X32382305Y-39560454D01*
X32382309Y-39560455D01*
X32382310Y-39560456D01*
X32454913Y-39585860D01*
X32541943Y-39616314D01*
X32709997Y-39635249D01*
X32710000Y-39635249D01*
X32710003Y-39635249D01*
X32878056Y-39616314D01*
X32878059Y-39616313D01*
X33037690Y-39560456D01*
X33037692Y-39560454D01*
X33037694Y-39560454D01*
X33037697Y-39560452D01*
X33180884Y-39470481D01*
X33180885Y-39470480D01*
X33180890Y-39470477D01*
X33300477Y-39350890D01*
X33390452Y-39207697D01*
X33390454Y-39207694D01*
X33390454Y-39207692D01*
X33390456Y-39207690D01*
X33446313Y-39048059D01*
X33446313Y-39048058D01*
X33446314Y-39048056D01*
X33465249Y-38880002D01*
X33465249Y-38879997D01*
X33446314Y-38711943D01*
X33390454Y-38552305D01*
X33390452Y-38552302D01*
X33300481Y-38409115D01*
X33300476Y-38409109D01*
X33180890Y-38289523D01*
X33180884Y-38289518D01*
X33037697Y-38199547D01*
X33037694Y-38199545D01*
X32878056Y-38143685D01*
X32710003Y-38124751D01*
X32709997Y-38124751D01*
X32541943Y-38143685D01*
X32382305Y-38199545D01*
X32382302Y-38199547D01*
X32239115Y-38289518D01*
X32239109Y-38289523D01*
X32119523Y-38409109D01*
X32119518Y-38409115D01*
X32029547Y-38552302D01*
X32029545Y-38552305D01*
X31973685Y-38711943D01*
X31954751Y-38879997D01*
X18216565Y-38879997D01*
X18170003Y-38874751D01*
X18169997Y-38874751D01*
X18001943Y-38893685D01*
X17842305Y-38949545D01*
X17842302Y-38949547D01*
X17699115Y-39039518D01*
X17699109Y-39039523D01*
X17579523Y-39159109D01*
X17579518Y-39159115D01*
X17489547Y-39302302D01*
X17489545Y-39302305D01*
X17433685Y-39461943D01*
X17414751Y-39629997D01*
X7304576Y-39629997D01*
X7324229Y-39590528D01*
X7385115Y-39376536D01*
X7405643Y-39155000D01*
X7385115Y-38933464D01*
X7324229Y-38719472D01*
X7240992Y-38552310D01*
X7225061Y-38520316D01*
X7225056Y-38520308D01*
X7090979Y-38342761D01*
X6926562Y-38192876D01*
X6926560Y-38192874D01*
X6737404Y-38075754D01*
X6737395Y-38075750D01*
X6643956Y-38039552D01*
X6543475Y-38000625D01*
X6488075Y-37958054D01*
X6464484Y-37892288D01*
X6480195Y-37824207D01*
X6530219Y-37775428D01*
X6543466Y-37769377D01*
X6737401Y-37694247D01*
X6849239Y-37625000D01*
X42353590Y-37625000D01*
X42400233Y-37778766D01*
X42497728Y-37961166D01*
X42497732Y-37961173D01*
X42628944Y-38121055D01*
X42788826Y-38252267D01*
X42788833Y-38252271D01*
X42971233Y-38349766D01*
X43125000Y-38396410D01*
X43625000Y-38396410D01*
X43778766Y-38349766D01*
X43961166Y-38252271D01*
X43961173Y-38252267D01*
X44121055Y-38121055D01*
X44252267Y-37961173D01*
X44252271Y-37961166D01*
X44349766Y-37778766D01*
X44396410Y-37625000D01*
X43625000Y-37625000D01*
X43625000Y-38396410D01*
X43125000Y-38396410D01*
X43125000Y-37625000D01*
X42353590Y-37625000D01*
X6849239Y-37625000D01*
X6926562Y-37577124D01*
X7090981Y-37427236D01*
X7165224Y-37328922D01*
X43025000Y-37328922D01*
X43025000Y-37421078D01*
X43048852Y-37510095D01*
X43094930Y-37589905D01*
X43160095Y-37655070D01*
X43239905Y-37701148D01*
X43328922Y-37725000D01*
X43421078Y-37725000D01*
X43510095Y-37701148D01*
X43589905Y-37655070D01*
X43655070Y-37589905D01*
X43701148Y-37510095D01*
X43725000Y-37421078D01*
X43725000Y-37328922D01*
X43701148Y-37239905D01*
X43655070Y-37160095D01*
X43619975Y-37125000D01*
X43625000Y-37125000D01*
X44396410Y-37125000D01*
X44349766Y-36971233D01*
X44252271Y-36788833D01*
X44252267Y-36788826D01*
X44121055Y-36628944D01*
X43961173Y-36497732D01*
X43961166Y-36497728D01*
X43778763Y-36400232D01*
X43625000Y-36353587D01*
X43625000Y-37125000D01*
X43619975Y-37125000D01*
X43589905Y-37094930D01*
X43510095Y-37048852D01*
X43421078Y-37025000D01*
X43328922Y-37025000D01*
X43239905Y-37048852D01*
X43160095Y-37094930D01*
X43094930Y-37160095D01*
X43048852Y-37239905D01*
X43025000Y-37328922D01*
X7165224Y-37328922D01*
X7225058Y-37249689D01*
X7287146Y-37125000D01*
X42353590Y-37125000D01*
X43125000Y-37125000D01*
X43125000Y-36353587D01*
X42971236Y-36400232D01*
X42788833Y-36497728D01*
X42788826Y-36497732D01*
X42628944Y-36628944D01*
X42497732Y-36788826D01*
X42497728Y-36788833D01*
X42400233Y-36971233D01*
X42353590Y-37125000D01*
X7287146Y-37125000D01*
X7324229Y-37050528D01*
X7385115Y-36836536D01*
X7405643Y-36615000D01*
X7385115Y-36393464D01*
X7324229Y-36179472D01*
X7324224Y-36179461D01*
X7225061Y-35980316D01*
X7225056Y-35980308D01*
X7090979Y-35802761D01*
X6926562Y-35652876D01*
X6926560Y-35652874D01*
X6737404Y-35535754D01*
X6737395Y-35535750D01*
X6643956Y-35499552D01*
X6543475Y-35460625D01*
X6488075Y-35418054D01*
X6464484Y-35352288D01*
X6480195Y-35284207D01*
X6530219Y-35235428D01*
X6543466Y-35229377D01*
X6737401Y-35154247D01*
X6926562Y-35037124D01*
X7090981Y-34887236D01*
X7225058Y-34709689D01*
X7324229Y-34510528D01*
X7385115Y-34296536D01*
X7405643Y-34075000D01*
X7385115Y-33853464D01*
X7324229Y-33639472D01*
X7324224Y-33639461D01*
X7225061Y-33440316D01*
X7225056Y-33440308D01*
X7090979Y-33262761D01*
X6926562Y-33112876D01*
X6926560Y-33112874D01*
X6737404Y-32995754D01*
X6737395Y-32995750D01*
X6682866Y-32974626D01*
X6627464Y-32932053D01*
X6603873Y-32866287D01*
X6619584Y-32798206D01*
X6669607Y-32749427D01*
X6727659Y-32734999D01*
X7083218Y-32734999D01*
X7151249Y-32725087D01*
X7256191Y-32673784D01*
X7338787Y-32591188D01*
X7390087Y-32486251D01*
X7390088Y-32486248D01*
X7400000Y-32418219D01*
X7400000Y-31785000D01*
X6633012Y-31785000D01*
X6665925Y-31727993D01*
X6700000Y-31600826D01*
X6700000Y-31469174D01*
X6665925Y-31342007D01*
X6633012Y-31285000D01*
X7399999Y-31285000D01*
X7399999Y-30651782D01*
X7390087Y-30583750D01*
X7338784Y-30478808D01*
X7256188Y-30396212D01*
X7151251Y-30344912D01*
X7151248Y-30344911D01*
X7083220Y-30335000D01*
X6450000Y-30335000D01*
X6450000Y-31101988D01*
X6392993Y-31069075D01*
X6265826Y-31035000D01*
X6134174Y-31035000D01*
X6007007Y-31069075D01*
X5950000Y-31101988D01*
X5950000Y-30335000D01*
X5316782Y-30335000D01*
X5248750Y-30344912D01*
X5143808Y-30396215D01*
X5061212Y-30478811D01*
X5009912Y-30583748D01*
X5009911Y-30583751D01*
X5000000Y-30651780D01*
X5000000Y-31285000D01*
X5766988Y-31285000D01*
X5734075Y-31342007D01*
X5700000Y-31469174D01*
X5700000Y-31600826D01*
X5734075Y-31727993D01*
X5766988Y-31785000D01*
X5000001Y-31785000D01*
X5000001Y-32418217D01*
X5009912Y-32486249D01*
X5061215Y-32591191D01*
X5143811Y-32673787D01*
X5248748Y-32725087D01*
X5248751Y-32725088D01*
X5316780Y-32734999D01*
X5672338Y-32734999D01*
X5739377Y-32754683D01*
X5785132Y-32807487D01*
X5795076Y-32876646D01*
X5766051Y-32940201D01*
X5717133Y-32974625D01*
X5662607Y-32995748D01*
X5662595Y-32995754D01*
X5473439Y-33112874D01*
X5473437Y-33112876D01*
X5309020Y-33262761D01*
X5174943Y-33440308D01*
X5174938Y-33440316D01*
X5075775Y-33639461D01*
X5075769Y-33639476D01*
X5014885Y-33853462D01*
X5014884Y-33853464D01*
X4994357Y-34074999D01*
X500500Y-34074999D01*
X500500Y-27459999D01*
X11579539Y-27459999D01*
X11579539Y-27460000D01*
X11599311Y-27622842D01*
X11599312Y-27622845D01*
X11657482Y-27776226D01*
X11750668Y-27911229D01*
X11750670Y-27911231D01*
X11750672Y-27911233D01*
X11873451Y-28020006D01*
X11873452Y-28020006D01*
X11873454Y-28020008D01*
X12018705Y-28096242D01*
X12018707Y-28096242D01*
X12018708Y-28096243D01*
X12177978Y-28135500D01*
X12177979Y-28135500D01*
X12342022Y-28135500D01*
X12501291Y-28096243D01*
X12501291Y-28096242D01*
X12501295Y-28096242D01*
X12646546Y-28020008D01*
X12769332Y-27911229D01*
X12862518Y-27776226D01*
X12920688Y-27622845D01*
X12940461Y-27460000D01*
X12920688Y-27297155D01*
X12862518Y-27143774D01*
X12769332Y-27008771D01*
X12769329Y-27008768D01*
X12769327Y-27008766D01*
X12646548Y-26899993D01*
X12501291Y-26823756D01*
X12342022Y-26784500D01*
X12342021Y-26784500D01*
X12177979Y-26784500D01*
X12177978Y-26784500D01*
X12018708Y-26823756D01*
X11873451Y-26899993D01*
X11750672Y-27008766D01*
X11750666Y-27008773D01*
X11657483Y-27143771D01*
X11599312Y-27297154D01*
X11599311Y-27297157D01*
X11579539Y-27459999D01*
X500500Y-27459999D01*
X500500Y-23873619D01*
X3071700Y-23873619D01*
X3071700Y-24126380D01*
X3071701Y-24126396D01*
X3104693Y-24376998D01*
X3170116Y-24621160D01*
X3266848Y-24854691D01*
X3266853Y-24854702D01*
X3309959Y-24929362D01*
X3393237Y-25073604D01*
X3393239Y-25073607D01*
X3393240Y-25073608D01*
X3547115Y-25274142D01*
X3547121Y-25274149D01*
X3725850Y-25452878D01*
X3725856Y-25452883D01*
X3926396Y-25606763D01*
X4067090Y-25687992D01*
X4145297Y-25733146D01*
X4145302Y-25733148D01*
X4145305Y-25733150D01*
X4378838Y-25829883D01*
X4623000Y-25895306D01*
X4873613Y-25928300D01*
X4873620Y-25928300D01*
X5126380Y-25928300D01*
X5126387Y-25928300D01*
X5377000Y-25895306D01*
X5621162Y-25829883D01*
X5854695Y-25733150D01*
X6073604Y-25606763D01*
X6274144Y-25452883D01*
X6452883Y-25274144D01*
X6606763Y-25073604D01*
X6733150Y-24854695D01*
X6829883Y-24621162D01*
X6895306Y-24377000D01*
X6920090Y-24188750D01*
X9773565Y-24188750D01*
X9792253Y-24366555D01*
X9792254Y-24366557D01*
X9847497Y-24536579D01*
X9847500Y-24536585D01*
X9936891Y-24691415D01*
X9978562Y-24737696D01*
X10056514Y-24824271D01*
X10056517Y-24824273D01*
X10056520Y-24824276D01*
X10201157Y-24929362D01*
X10364483Y-25002079D01*
X10539359Y-25039250D01*
X10539360Y-25039250D01*
X10718139Y-25039250D01*
X10718141Y-25039250D01*
X10893017Y-25002079D01*
X11056343Y-24929362D01*
X11200980Y-24824276D01*
X11320609Y-24691415D01*
X11410000Y-24536585D01*
X11465247Y-24366553D01*
X11483935Y-24188750D01*
X11465247Y-24010947D01*
X11420626Y-23873619D01*
X42071700Y-23873619D01*
X42071700Y-24126380D01*
X42071701Y-24126396D01*
X42104693Y-24376998D01*
X42170116Y-24621160D01*
X42266848Y-24854691D01*
X42266853Y-24854702D01*
X42309959Y-24929362D01*
X42393237Y-25073604D01*
X42393239Y-25073607D01*
X42393240Y-25073608D01*
X42547115Y-25274142D01*
X42547121Y-25274149D01*
X42725850Y-25452878D01*
X42725856Y-25452883D01*
X42926396Y-25606763D01*
X43067090Y-25687992D01*
X43145297Y-25733146D01*
X43145302Y-25733148D01*
X43145305Y-25733150D01*
X43378838Y-25829883D01*
X43623000Y-25895306D01*
X43873613Y-25928300D01*
X43873620Y-25928300D01*
X44126380Y-25928300D01*
X44126387Y-25928300D01*
X44377000Y-25895306D01*
X44621162Y-25829883D01*
X44854695Y-25733150D01*
X45073604Y-25606763D01*
X45274144Y-25452883D01*
X45452883Y-25274144D01*
X45606763Y-25073604D01*
X45733150Y-24854695D01*
X45829883Y-24621162D01*
X45895306Y-24377000D01*
X45928300Y-24126387D01*
X45928300Y-23873613D01*
X45895306Y-23623000D01*
X45829883Y-23378838D01*
X45733150Y-23145305D01*
X45733148Y-23145302D01*
X45733146Y-23145297D01*
X45687992Y-23067090D01*
X45606763Y-22926396D01*
X45452883Y-22725856D01*
X45452878Y-22725850D01*
X45274149Y-22547121D01*
X45274142Y-22547115D01*
X45073608Y-22393240D01*
X45073607Y-22393239D01*
X45073604Y-22393237D01*
X44986325Y-22342847D01*
X44854702Y-22266853D01*
X44854691Y-22266848D01*
X44621160Y-22170116D01*
X44376998Y-22104693D01*
X44126396Y-22071701D01*
X44126393Y-22071700D01*
X44126387Y-22071700D01*
X43873613Y-22071700D01*
X43873607Y-22071700D01*
X43873603Y-22071701D01*
X43623001Y-22104693D01*
X43378839Y-22170116D01*
X43145308Y-22266848D01*
X43145297Y-22266853D01*
X42926391Y-22393240D01*
X42725857Y-22547115D01*
X42725850Y-22547121D01*
X42547121Y-22725850D01*
X42547115Y-22725857D01*
X42393240Y-22926391D01*
X42266853Y-23145297D01*
X42266848Y-23145308D01*
X42170116Y-23378839D01*
X42104693Y-23623001D01*
X42071701Y-23873603D01*
X42071700Y-23873619D01*
X11420626Y-23873619D01*
X11410002Y-23840920D01*
X11409999Y-23840914D01*
X11320609Y-23686085D01*
X11263807Y-23623000D01*
X11200985Y-23553228D01*
X11200982Y-23553226D01*
X11200981Y-23553225D01*
X11200980Y-23553224D01*
X11056343Y-23448138D01*
X10893017Y-23375421D01*
X10893015Y-23375420D01*
X10765344Y-23348283D01*
X10718141Y-23338250D01*
X10539359Y-23338250D01*
X10508704Y-23344765D01*
X10364483Y-23375420D01*
X10364478Y-23375422D01*
X10201158Y-23448137D01*
X10056518Y-23553225D01*
X9936890Y-23686086D01*
X9847500Y-23840914D01*
X9847497Y-23840920D01*
X9792254Y-24010942D01*
X9792253Y-24010944D01*
X9773565Y-24188750D01*
X6920090Y-24188750D01*
X6928300Y-24126387D01*
X6928300Y-23873613D01*
X6895306Y-23623000D01*
X6829883Y-23378838D01*
X6733150Y-23145305D01*
X6733148Y-23145302D01*
X6733146Y-23145297D01*
X6687992Y-23067090D01*
X6606763Y-22926396D01*
X6452883Y-22725856D01*
X6452878Y-22725850D01*
X6274149Y-22547121D01*
X6274142Y-22547115D01*
X6073608Y-22393240D01*
X6073607Y-22393239D01*
X6073604Y-22393237D01*
X5986325Y-22342847D01*
X5854702Y-22266853D01*
X5854691Y-22266848D01*
X5621160Y-22170116D01*
X5376998Y-22104693D01*
X5126396Y-22071701D01*
X5126393Y-22071700D01*
X5126387Y-22071700D01*
X4873613Y-22071700D01*
X4873607Y-22071700D01*
X4873603Y-22071701D01*
X4623001Y-22104693D01*
X4378839Y-22170116D01*
X4145308Y-22266848D01*
X4145297Y-22266853D01*
X3926391Y-22393240D01*
X3725857Y-22547115D01*
X3725850Y-22547121D01*
X3547121Y-22725850D01*
X3547115Y-22725857D01*
X3393240Y-22926391D01*
X3266853Y-23145297D01*
X3266848Y-23145308D01*
X3170116Y-23378839D01*
X3104693Y-23623001D01*
X3071701Y-23873603D01*
X3071700Y-23873619D01*
X500500Y-23873619D01*
X500500Y-19929997D01*
X16304751Y-19929997D01*
X16304751Y-19930002D01*
X16323685Y-20098056D01*
X16379545Y-20257694D01*
X16379547Y-20257697D01*
X16469518Y-20400884D01*
X16469523Y-20400890D01*
X16589109Y-20520476D01*
X16589115Y-20520481D01*
X16732302Y-20610452D01*
X16732305Y-20610454D01*
X16732309Y-20610455D01*
X16732310Y-20610456D01*
X16804913Y-20635860D01*
X16891943Y-20666314D01*
X17059997Y-20685249D01*
X17060000Y-20685249D01*
X17060003Y-20685249D01*
X17228056Y-20666314D01*
X17228059Y-20666313D01*
X17387690Y-20610456D01*
X17387692Y-20610454D01*
X17387694Y-20610454D01*
X17387697Y-20610452D01*
X17530884Y-20520481D01*
X17530885Y-20520480D01*
X17530890Y-20520477D01*
X17650477Y-20400890D01*
X17740452Y-20257697D01*
X17740454Y-20257694D01*
X17740454Y-20257692D01*
X17740456Y-20257690D01*
X17796313Y-20098059D01*
X17796313Y-20098058D01*
X17796314Y-20098056D01*
X17815249Y-19930002D01*
X17815249Y-19929997D01*
X17796314Y-19761943D01*
X17740454Y-19602305D01*
X17740452Y-19602302D01*
X17650481Y-19459115D01*
X17650476Y-19459109D01*
X17530890Y-19339523D01*
X17530884Y-19339518D01*
X17387697Y-19249547D01*
X17387694Y-19249545D01*
X17228056Y-19193685D01*
X17060003Y-19174751D01*
X17059997Y-19174751D01*
X16891943Y-19193685D01*
X16732305Y-19249545D01*
X16732302Y-19249547D01*
X16589115Y-19339518D01*
X16589109Y-19339523D01*
X16469523Y-19459109D01*
X16469518Y-19459115D01*
X16379547Y-19602302D01*
X16379545Y-19602305D01*
X16323685Y-19761943D01*
X16304751Y-19929997D01*
X500500Y-19929997D01*
X500500Y-16116739D01*
X2749500Y-16116739D01*
X2749500Y-17883260D01*
X2759426Y-17951391D01*
X2810803Y-18056485D01*
X2893514Y-18139196D01*
X2893515Y-18139196D01*
X2893517Y-18139198D01*
X2998607Y-18190573D01*
X3032673Y-18195536D01*
X3066739Y-18200500D01*
X3066740Y-18200500D01*
X4833261Y-18200500D01*
X4855971Y-18197191D01*
X4901393Y-18190573D01*
X5006483Y-18139198D01*
X5089198Y-18056483D01*
X5140573Y-17951393D01*
X5150500Y-17883260D01*
X5150500Y-17209997D01*
X16514751Y-17209997D01*
X16514751Y-17210002D01*
X16533685Y-17378056D01*
X16589545Y-17537694D01*
X16589547Y-17537697D01*
X16679518Y-17680884D01*
X16679523Y-17680890D01*
X16799109Y-17800476D01*
X16799115Y-17800481D01*
X16942302Y-17890452D01*
X16942305Y-17890454D01*
X16942309Y-17890455D01*
X16942310Y-17890456D01*
X17014913Y-17915860D01*
X17101943Y-17946314D01*
X17269997Y-17965249D01*
X17270000Y-17965249D01*
X17270003Y-17965249D01*
X17438056Y-17946314D01*
X17438059Y-17946313D01*
X17597690Y-17890456D01*
X17597692Y-17890454D01*
X17597694Y-17890454D01*
X17597697Y-17890452D01*
X17740884Y-17800481D01*
X17740885Y-17800480D01*
X17740890Y-17800477D01*
X17741370Y-17799997D01*
X21984751Y-17799997D01*
X21984751Y-17800002D01*
X22003685Y-17968056D01*
X22059545Y-18127694D01*
X22059547Y-18127697D01*
X22149518Y-18270884D01*
X22149523Y-18270890D01*
X22269109Y-18390476D01*
X22269115Y-18390481D01*
X22412302Y-18480452D01*
X22412305Y-18480454D01*
X22412309Y-18480455D01*
X22412310Y-18480456D01*
X22484913Y-18505860D01*
X22571943Y-18536314D01*
X22739997Y-18555249D01*
X22740000Y-18555249D01*
X22740003Y-18555249D01*
X22908056Y-18536314D01*
X22908059Y-18536313D01*
X23067690Y-18480456D01*
X23067692Y-18480454D01*
X23067694Y-18480454D01*
X23067697Y-18480452D01*
X23210884Y-18390481D01*
X23210885Y-18390480D01*
X23210890Y-18390477D01*
X23330477Y-18270890D01*
X23330481Y-18270884D01*
X23420452Y-18127697D01*
X23420454Y-18127694D01*
X23420454Y-18127692D01*
X23420456Y-18127690D01*
X23476313Y-17968059D01*
X23476313Y-17968058D01*
X23476314Y-17968056D01*
X23495249Y-17800002D01*
X23495249Y-17799997D01*
X23476314Y-17631943D01*
X23420454Y-17472305D01*
X23420452Y-17472302D01*
X23330481Y-17329115D01*
X23330476Y-17329109D01*
X23210890Y-17209523D01*
X23210884Y-17209518D01*
X23067697Y-17119547D01*
X23067694Y-17119545D01*
X22908056Y-17063685D01*
X22740003Y-17044751D01*
X22739997Y-17044751D01*
X22571943Y-17063685D01*
X22412305Y-17119545D01*
X22412302Y-17119547D01*
X22269115Y-17209518D01*
X22269109Y-17209523D01*
X22149523Y-17329109D01*
X22149518Y-17329115D01*
X22059547Y-17472302D01*
X22059545Y-17472305D01*
X22003685Y-17631943D01*
X21984751Y-17799997D01*
X17741370Y-17799997D01*
X17860477Y-17680890D01*
X17950452Y-17537697D01*
X17950454Y-17537694D01*
X17950454Y-17537692D01*
X17950456Y-17537690D01*
X18006313Y-17378059D01*
X18006313Y-17378058D01*
X18006314Y-17378056D01*
X18025249Y-17210002D01*
X18025249Y-17209997D01*
X18006314Y-17041943D01*
X17950454Y-16882305D01*
X17950452Y-16882302D01*
X17860481Y-16739115D01*
X17860476Y-16739109D01*
X17740890Y-16619523D01*
X17740887Y-16619521D01*
X17655235Y-16565701D01*
X17608944Y-16513366D01*
X17598297Y-16444313D01*
X17626673Y-16380464D01*
X17655233Y-16355715D01*
X17790890Y-16270477D01*
X17910477Y-16150890D01*
X17931936Y-16116739D01*
X18000452Y-16007697D01*
X18000454Y-16007694D01*
X18000454Y-16007692D01*
X18000456Y-16007690D01*
X18056313Y-15848059D01*
X18056313Y-15848058D01*
X18056314Y-15848056D01*
X18075249Y-15680002D01*
X18075249Y-15679997D01*
X18056314Y-15511943D01*
X18000454Y-15352305D01*
X18000452Y-15352302D01*
X17910481Y-15209115D01*
X17910476Y-15209109D01*
X17790890Y-15089523D01*
X17790884Y-15089518D01*
X17647697Y-14999547D01*
X17647694Y-14999545D01*
X17488056Y-14943685D01*
X17320003Y-14924751D01*
X17319997Y-14924751D01*
X17151943Y-14943685D01*
X16992305Y-14999545D01*
X16992302Y-14999547D01*
X16849115Y-15089518D01*
X16849109Y-15089523D01*
X16729523Y-15209109D01*
X16729518Y-15209115D01*
X16639547Y-15352302D01*
X16639545Y-15352305D01*
X16583685Y-15511943D01*
X16564751Y-15679997D01*
X16564751Y-15680002D01*
X16583685Y-15848056D01*
X16639545Y-16007694D01*
X16639547Y-16007697D01*
X16729518Y-16150884D01*
X16729523Y-16150890D01*
X16849111Y-16270478D01*
X16934764Y-16324298D01*
X16981054Y-16376633D01*
X16991702Y-16445686D01*
X16963327Y-16509534D01*
X16934764Y-16534284D01*
X16799112Y-16619521D01*
X16799109Y-16619523D01*
X16679523Y-16739109D01*
X16679518Y-16739115D01*
X16589547Y-16882302D01*
X16589545Y-16882305D01*
X16533685Y-17041943D01*
X16514751Y-17209997D01*
X5150500Y-17209997D01*
X5150500Y-16116740D01*
X5140573Y-16048607D01*
X5089198Y-15943517D01*
X5089196Y-15943515D01*
X5089196Y-15943514D01*
X5006485Y-15860803D01*
X4901391Y-15809426D01*
X4833261Y-15799500D01*
X4833260Y-15799500D01*
X4477571Y-15799500D01*
X4410532Y-15779815D01*
X4364777Y-15727011D01*
X4354833Y-15657853D01*
X4383858Y-15594297D01*
X4432777Y-15559873D01*
X4487177Y-15538798D01*
X4487179Y-15538797D01*
X4676261Y-15421721D01*
X4840608Y-15271900D01*
X4974631Y-15094425D01*
X5073760Y-14895349D01*
X5115114Y-14750000D01*
X28494815Y-14750000D01*
X28513503Y-14927805D01*
X28513504Y-14927807D01*
X28568747Y-15097829D01*
X28568750Y-15097835D01*
X28658141Y-15252665D01*
X28699812Y-15298946D01*
X28777764Y-15385521D01*
X28777767Y-15385523D01*
X28777770Y-15385526D01*
X28922407Y-15490612D01*
X29085733Y-15563329D01*
X29260609Y-15600500D01*
X29260610Y-15600500D01*
X29439389Y-15600500D01*
X29439391Y-15600500D01*
X29614267Y-15563329D01*
X29777593Y-15490612D01*
X29922230Y-15385526D01*
X30041859Y-15252665D01*
X30131250Y-15097835D01*
X30186497Y-14927803D01*
X30205185Y-14750000D01*
X30186497Y-14572197D01*
X30131250Y-14402165D01*
X30041859Y-14247335D01*
X29995003Y-14195296D01*
X29922235Y-14114478D01*
X29922232Y-14114476D01*
X29922231Y-14114475D01*
X29922230Y-14114474D01*
X29777593Y-14009388D01*
X29665463Y-13959465D01*
X42076180Y-13959465D01*
X42076180Y-13959470D01*
X42095114Y-14127524D01*
X42150974Y-14287162D01*
X42150976Y-14287165D01*
X42240947Y-14430352D01*
X42240952Y-14430358D01*
X42360538Y-14549944D01*
X42360544Y-14549949D01*
X42503731Y-14639920D01*
X42503734Y-14639922D01*
X42503738Y-14639923D01*
X42503739Y-14639924D01*
X42576342Y-14665328D01*
X42663372Y-14695782D01*
X42831426Y-14714717D01*
X42831429Y-14714717D01*
X42831432Y-14714717D01*
X42999485Y-14695782D01*
X42999488Y-14695781D01*
X43159119Y-14639924D01*
X43274053Y-14567705D01*
X43341289Y-14548705D01*
X43405997Y-14567705D01*
X43413145Y-14572197D01*
X43503680Y-14629084D01*
X43503678Y-14629084D01*
X43503682Y-14629085D01*
X43503683Y-14629086D01*
X43572006Y-14652993D01*
X43663316Y-14684944D01*
X43831370Y-14703879D01*
X43831373Y-14703879D01*
X43831376Y-14703879D01*
X43999429Y-14684944D01*
X43999432Y-14684943D01*
X44159063Y-14629086D01*
X44159065Y-14629084D01*
X44159067Y-14629084D01*
X44159070Y-14629082D01*
X44302257Y-14539111D01*
X44302258Y-14539110D01*
X44302263Y-14539107D01*
X44421850Y-14419520D01*
X44505015Y-14287165D01*
X44511825Y-14276327D01*
X44511827Y-14276324D01*
X44511827Y-14276322D01*
X44511829Y-14276320D01*
X44567686Y-14116689D01*
X44567686Y-14116688D01*
X44567687Y-14116686D01*
X44586622Y-13948632D01*
X44586622Y-13948627D01*
X44567687Y-13780573D01*
X44515621Y-13631778D01*
X44511829Y-13620940D01*
X44511828Y-13620939D01*
X44511827Y-13620935D01*
X44511825Y-13620932D01*
X44421854Y-13477745D01*
X44421849Y-13477739D01*
X44302263Y-13358153D01*
X44302257Y-13358148D01*
X44159070Y-13268177D01*
X44159067Y-13268175D01*
X43999429Y-13212315D01*
X43831376Y-13193381D01*
X43831370Y-13193381D01*
X43663316Y-13212315D01*
X43503680Y-13268175D01*
X43388748Y-13340392D01*
X43321511Y-13359392D01*
X43256803Y-13340391D01*
X43159121Y-13279013D01*
X43159123Y-13279013D01*
X42999485Y-13223153D01*
X42831432Y-13204219D01*
X42831426Y-13204219D01*
X42663372Y-13223153D01*
X42503734Y-13279013D01*
X42503731Y-13279015D01*
X42360544Y-13368986D01*
X42360538Y-13368991D01*
X42240952Y-13488577D01*
X42240947Y-13488583D01*
X42150976Y-13631770D01*
X42150974Y-13631773D01*
X42095114Y-13791411D01*
X42076180Y-13959465D01*
X29665463Y-13959465D01*
X29614267Y-13936671D01*
X29614265Y-13936670D01*
X29486594Y-13909533D01*
X29439391Y-13899500D01*
X29260609Y-13899500D01*
X29229954Y-13906015D01*
X29085733Y-13936670D01*
X29085728Y-13936672D01*
X28922408Y-14009387D01*
X28777768Y-14114475D01*
X28658140Y-14247336D01*
X28568750Y-14402164D01*
X28568747Y-14402170D01*
X28513504Y-14572192D01*
X28513503Y-14572194D01*
X28494815Y-14750000D01*
X5115114Y-14750000D01*
X5126495Y-14710000D01*
X4383012Y-14710000D01*
X4415925Y-14652993D01*
X4450000Y-14525826D01*
X4450000Y-14394174D01*
X4415925Y-14267007D01*
X4383012Y-14210000D01*
X5126495Y-14210000D01*
X5073760Y-14024650D01*
X4974631Y-13825574D01*
X4840608Y-13648099D01*
X4676261Y-13498278D01*
X4487179Y-13381202D01*
X4487177Y-13381201D01*
X4279799Y-13300864D01*
X4200000Y-13285946D01*
X4200000Y-14026988D01*
X4142993Y-13994075D01*
X4015826Y-13960000D01*
X3884174Y-13960000D01*
X3757007Y-13994075D01*
X3700000Y-14026988D01*
X3700000Y-13285946D01*
X3620200Y-13300864D01*
X3412822Y-13381201D01*
X3412820Y-13381202D01*
X3223738Y-13498278D01*
X3059391Y-13648099D01*
X2925368Y-13825574D01*
X2826239Y-14024650D01*
X2773505Y-14210000D01*
X3516988Y-14210000D01*
X3484075Y-14267007D01*
X3450000Y-14394174D01*
X3450000Y-14525826D01*
X3484075Y-14652993D01*
X3516988Y-14710000D01*
X2773505Y-14710000D01*
X2826239Y-14895349D01*
X2925368Y-15094425D01*
X3059391Y-15271900D01*
X3223738Y-15421721D01*
X3412820Y-15538797D01*
X3412822Y-15538798D01*
X3467223Y-15559873D01*
X3522624Y-15602446D01*
X3546215Y-15668213D01*
X3530504Y-15736293D01*
X3480480Y-15785072D01*
X3422429Y-15799500D01*
X3066739Y-15799500D01*
X2998608Y-15809426D01*
X2893514Y-15860803D01*
X2810803Y-15943514D01*
X2759426Y-16048608D01*
X2749500Y-16116739D01*
X500500Y-16116739D01*
X500500Y-12499997D01*
X30969751Y-12499997D01*
X30969751Y-12500002D01*
X30988685Y-12668056D01*
X31044545Y-12827694D01*
X31044547Y-12827697D01*
X31134518Y-12970884D01*
X31134523Y-12970890D01*
X31254109Y-13090476D01*
X31254115Y-13090481D01*
X31397302Y-13180452D01*
X31397305Y-13180454D01*
X31397309Y-13180455D01*
X31397310Y-13180456D01*
X31434248Y-13193381D01*
X31556943Y-13236314D01*
X31724997Y-13255249D01*
X31725000Y-13255249D01*
X31725003Y-13255249D01*
X31893056Y-13236314D01*
X31893059Y-13236313D01*
X32052690Y-13180456D01*
X32184027Y-13097930D01*
X32251264Y-13078930D01*
X32315973Y-13097931D01*
X32447307Y-13180454D01*
X32447305Y-13180454D01*
X32447309Y-13180455D01*
X32447310Y-13180456D01*
X32484248Y-13193381D01*
X32606943Y-13236314D01*
X32774997Y-13255249D01*
X32775000Y-13255249D01*
X32775003Y-13255249D01*
X32943056Y-13236314D01*
X32943059Y-13236313D01*
X33102690Y-13180456D01*
X33102692Y-13180454D01*
X33102694Y-13180454D01*
X33102697Y-13180452D01*
X33245884Y-13090481D01*
X33245885Y-13090480D01*
X33245890Y-13090477D01*
X33365477Y-12970890D01*
X33455452Y-12827697D01*
X33455454Y-12827694D01*
X33455454Y-12827692D01*
X33455456Y-12827690D01*
X33511313Y-12668059D01*
X33511313Y-12668058D01*
X33511314Y-12668056D01*
X33530249Y-12500002D01*
X33530249Y-12499997D01*
X33511314Y-12331943D01*
X33455454Y-12172305D01*
X33455452Y-12172302D01*
X33365481Y-12029115D01*
X33365476Y-12029109D01*
X33245890Y-11909523D01*
X33245884Y-11909518D01*
X33102697Y-11819547D01*
X33102694Y-11819545D01*
X32943056Y-11763685D01*
X32775003Y-11744751D01*
X32774997Y-11744751D01*
X32606943Y-11763685D01*
X32447307Y-11819545D01*
X32315972Y-11902069D01*
X32248735Y-11921069D01*
X32184028Y-11902069D01*
X32052692Y-11819545D01*
X32052691Y-11819544D01*
X32052690Y-11819544D01*
X32011837Y-11805249D01*
X31893056Y-11763685D01*
X31725003Y-11744751D01*
X31724997Y-11744751D01*
X31556943Y-11763685D01*
X31397305Y-11819545D01*
X31397302Y-11819547D01*
X31254115Y-11909518D01*
X31254109Y-11909523D01*
X31134523Y-12029109D01*
X31134518Y-12029115D01*
X31044547Y-12172302D01*
X31044545Y-12172305D01*
X30988685Y-12331943D01*
X30969751Y-12499997D01*
X500500Y-12499997D01*
X500500Y-11049997D01*
X29344751Y-11049997D01*
X29344751Y-11050002D01*
X29363685Y-11218056D01*
X29419545Y-11377694D01*
X29419547Y-11377697D01*
X29509518Y-11520884D01*
X29509523Y-11520890D01*
X29629109Y-11640476D01*
X29629115Y-11640481D01*
X29772302Y-11730452D01*
X29772305Y-11730454D01*
X29772309Y-11730455D01*
X29772310Y-11730456D01*
X29813163Y-11744751D01*
X29931943Y-11786314D01*
X30099997Y-11805249D01*
X30100000Y-11805249D01*
X30100003Y-11805249D01*
X30268056Y-11786314D01*
X30268059Y-11786313D01*
X30427690Y-11730456D01*
X30427692Y-11730454D01*
X30427694Y-11730454D01*
X30427697Y-11730452D01*
X30570884Y-11640481D01*
X30570885Y-11640480D01*
X30570890Y-11640477D01*
X30690477Y-11520890D01*
X30780452Y-11377697D01*
X30780454Y-11377694D01*
X30780454Y-11377692D01*
X30780456Y-11377690D01*
X30836313Y-11218059D01*
X30836313Y-11218058D01*
X30836314Y-11218056D01*
X30855249Y-11050002D01*
X30855249Y-11049997D01*
X30836314Y-10881943D01*
X30780454Y-10722305D01*
X30780452Y-10722302D01*
X30690481Y-10579115D01*
X30690476Y-10579109D01*
X30570890Y-10459523D01*
X30570884Y-10459518D01*
X30427697Y-10369547D01*
X30427694Y-10369545D01*
X30268056Y-10313685D01*
X30100003Y-10294751D01*
X30099997Y-10294751D01*
X29931943Y-10313685D01*
X29772305Y-10369545D01*
X29772302Y-10369547D01*
X29629115Y-10459518D01*
X29629109Y-10459523D01*
X29509523Y-10579109D01*
X29509518Y-10579115D01*
X29419547Y-10722302D01*
X29419545Y-10722305D01*
X29363685Y-10881943D01*
X29344751Y-11049997D01*
X500500Y-11049997D01*
X500500Y-8709997D01*
X41194751Y-8709997D01*
X41194751Y-8710002D01*
X41213685Y-8878056D01*
X41269545Y-9037694D01*
X41269547Y-9037697D01*
X41359518Y-9180884D01*
X41359523Y-9180890D01*
X41479109Y-9300476D01*
X41479115Y-9300481D01*
X41622302Y-9390452D01*
X41622305Y-9390454D01*
X41622309Y-9390455D01*
X41622310Y-9390456D01*
X41694913Y-9415860D01*
X41781943Y-9446314D01*
X41949997Y-9465249D01*
X41950000Y-9465249D01*
X41950003Y-9465249D01*
X42118056Y-9446314D01*
X42118059Y-9446313D01*
X42277690Y-9390456D01*
X42277692Y-9390454D01*
X42277694Y-9390454D01*
X42277697Y-9390452D01*
X42420884Y-9300481D01*
X42420885Y-9300480D01*
X42420890Y-9300477D01*
X42540477Y-9180890D01*
X42630452Y-9037697D01*
X42630454Y-9037694D01*
X42630454Y-9037692D01*
X42630456Y-9037690D01*
X42686313Y-8878059D01*
X42686313Y-8878058D01*
X42686314Y-8878056D01*
X42705249Y-8710002D01*
X42705249Y-8709997D01*
X42686314Y-8541943D01*
X42630454Y-8382305D01*
X42630452Y-8382302D01*
X42540481Y-8239115D01*
X42540476Y-8239109D01*
X42420890Y-8119523D01*
X42420884Y-8119518D01*
X42277697Y-8029547D01*
X42277694Y-8029545D01*
X42118056Y-7973685D01*
X41950003Y-7954751D01*
X41949997Y-7954751D01*
X41781943Y-7973685D01*
X41622305Y-8029545D01*
X41622302Y-8029547D01*
X41479115Y-8119518D01*
X41479109Y-8119523D01*
X41359523Y-8239109D01*
X41359518Y-8239115D01*
X41269547Y-8382302D01*
X41269545Y-8382305D01*
X41213685Y-8541943D01*
X41194751Y-8709997D01*
X500500Y-8709997D01*
X500500Y-6502099D01*
X18278773Y-6502099D01*
X18278773Y-6502100D01*
X18298446Y-6714410D01*
X18356798Y-6919492D01*
X18356798Y-6919494D01*
X18451834Y-7110353D01*
X18580329Y-7280506D01*
X18580330Y-7280507D01*
X18737900Y-7424152D01*
X18919183Y-7536398D01*
X19118004Y-7613421D01*
X19327592Y-7652600D01*
X19327594Y-7652600D01*
X19540810Y-7652600D01*
X19540812Y-7652600D01*
X19750400Y-7613421D01*
X19949221Y-7536398D01*
X20130504Y-7424152D01*
X20288074Y-7280507D01*
X20416568Y-7110355D01*
X20416965Y-7109557D01*
X20511605Y-6919494D01*
X20511605Y-6919493D01*
X20511607Y-6919489D01*
X20569958Y-6714410D01*
X20580730Y-6598152D01*
X20606516Y-6533217D01*
X20648832Y-6502904D01*
X20757321Y-6502904D01*
X20793704Y-6523774D01*
X20825894Y-6585786D01*
X20827672Y-6598153D01*
X20838445Y-6714410D01*
X20896797Y-6919492D01*
X20896797Y-6919494D01*
X20991833Y-7110353D01*
X21120328Y-7280506D01*
X21120329Y-7280507D01*
X21277899Y-7424152D01*
X21459182Y-7536398D01*
X21658003Y-7613421D01*
X21867591Y-7652600D01*
X21867593Y-7652600D01*
X22080809Y-7652600D01*
X22080811Y-7652600D01*
X22290399Y-7613421D01*
X22489220Y-7536398D01*
X22670503Y-7424152D01*
X22828073Y-7280507D01*
X22956567Y-7110355D01*
X22956964Y-7109557D01*
X23051604Y-6919494D01*
X23051604Y-6919493D01*
X23051606Y-6919489D01*
X23109957Y-6714410D01*
X23120730Y-6598147D01*
X23146516Y-6533211D01*
X23188823Y-6502904D01*
X23297331Y-6502904D01*
X23333704Y-6523768D01*
X23365894Y-6585781D01*
X23367672Y-6598148D01*
X23378445Y-6714410D01*
X23436797Y-6919492D01*
X23436797Y-6919494D01*
X23531833Y-7110353D01*
X23660328Y-7280506D01*
X23660329Y-7280507D01*
X23817899Y-7424152D01*
X23999182Y-7536398D01*
X24198003Y-7613421D01*
X24407591Y-7652600D01*
X24407593Y-7652600D01*
X24620809Y-7652600D01*
X24620811Y-7652600D01*
X24830399Y-7613421D01*
X25029220Y-7536398D01*
X25210503Y-7424152D01*
X25368073Y-7280507D01*
X25395833Y-7243747D01*
X34241001Y-7243747D01*
X34241001Y-7243752D01*
X34259935Y-7411806D01*
X34315795Y-7571444D01*
X34315797Y-7571447D01*
X34405768Y-7714634D01*
X34405773Y-7714640D01*
X34525359Y-7834226D01*
X34525365Y-7834231D01*
X34668552Y-7924202D01*
X34668555Y-7924204D01*
X34668559Y-7924205D01*
X34668560Y-7924206D01*
X34741163Y-7949610D01*
X34828193Y-7980064D01*
X34996247Y-7998999D01*
X34996250Y-7998999D01*
X34996253Y-7998999D01*
X35164306Y-7980064D01*
X35164309Y-7980063D01*
X35323940Y-7924206D01*
X35323942Y-7924204D01*
X35323944Y-7924204D01*
X35323947Y-7924202D01*
X35467134Y-7834231D01*
X35467135Y-7834230D01*
X35467140Y-7834227D01*
X35586727Y-7714640D01*
X35625710Y-7652600D01*
X35676702Y-7571447D01*
X35676704Y-7571444D01*
X35676704Y-7571442D01*
X35676706Y-7571440D01*
X35732563Y-7411809D01*
X35732563Y-7411808D01*
X35732564Y-7411806D01*
X35751499Y-7243752D01*
X35751499Y-7243747D01*
X35732564Y-7075693D01*
X35687111Y-6945797D01*
X35676706Y-6916060D01*
X35676705Y-6916059D01*
X35676704Y-6916055D01*
X35676702Y-6916052D01*
X35586731Y-6772865D01*
X35586726Y-6772859D01*
X35467140Y-6653273D01*
X35467134Y-6653268D01*
X35323947Y-6563297D01*
X35323944Y-6563295D01*
X35164306Y-6507435D01*
X34996253Y-6488501D01*
X34996247Y-6488501D01*
X34828193Y-6507435D01*
X34668555Y-6563295D01*
X34668552Y-6563297D01*
X34525365Y-6653268D01*
X34525359Y-6653273D01*
X34405773Y-6772859D01*
X34405768Y-6772865D01*
X34315797Y-6916052D01*
X34315795Y-6916055D01*
X34259935Y-7075693D01*
X34241001Y-7243747D01*
X25395833Y-7243747D01*
X25496567Y-7110355D01*
X25496964Y-7109557D01*
X25591604Y-6919494D01*
X25591604Y-6919493D01*
X25591606Y-6919489D01*
X25649957Y-6714410D01*
X25669630Y-6502100D01*
X25649957Y-6289790D01*
X25591606Y-6084711D01*
X25591604Y-6084706D01*
X25591604Y-6084705D01*
X25496568Y-5893846D01*
X25368073Y-5723693D01*
X25288560Y-5651207D01*
X25288556Y-5651203D01*
X38080000Y-5651203D01*
X38080000Y-6030001D01*
X38580000Y-6030001D01*
X38580000Y-6530001D01*
X38080000Y-6530001D01*
X38080000Y-6908798D01*
X38110741Y-7063344D01*
X38110743Y-7063352D01*
X38171047Y-7208940D01*
X38171052Y-7208949D01*
X38258598Y-7339970D01*
X38258601Y-7339974D01*
X38370026Y-7451399D01*
X38370034Y-7451405D01*
X38501047Y-7538945D01*
X38501065Y-7538955D01*
X38629999Y-7592361D01*
X38630000Y-7592361D01*
X38630000Y-6996989D01*
X38639940Y-7014206D01*
X38695795Y-7070061D01*
X38764204Y-7109557D01*
X38840504Y-7130001D01*
X38919496Y-7130001D01*
X38995796Y-7109557D01*
X39064205Y-7070061D01*
X39120060Y-7014206D01*
X39130000Y-6996989D01*
X39130000Y-7592361D01*
X39258934Y-7538955D01*
X39258952Y-7538945D01*
X39389965Y-7451405D01*
X39389973Y-7451399D01*
X39501398Y-7339974D01*
X39501401Y-7339970D01*
X39588947Y-7208949D01*
X39588952Y-7208940D01*
X39649256Y-7063352D01*
X39649258Y-7063344D01*
X39679999Y-6908798D01*
X39680000Y-6908795D01*
X39680000Y-6530001D01*
X39180000Y-6530001D01*
X39180000Y-6030001D01*
X39679999Y-6030001D01*
X39699180Y-6010820D01*
X39760503Y-5977334D01*
X39830195Y-5982318D01*
X39886128Y-6024189D01*
X39894249Y-6036499D01*
X39927263Y-6093682D01*
X39927265Y-6093684D01*
X40016317Y-6182736D01*
X40125383Y-6245705D01*
X40247031Y-6278301D01*
X40247034Y-6278301D01*
X40372966Y-6278301D01*
X40372969Y-6278301D01*
X40494617Y-6245705D01*
X40603683Y-6182736D01*
X40692735Y-6093684D01*
X40755704Y-5984618D01*
X40788300Y-5862970D01*
X40788300Y-5737032D01*
X40755704Y-5615384D01*
X40692735Y-5506318D01*
X40603683Y-5417266D01*
X40603682Y-5417265D01*
X40603679Y-5417263D01*
X40494619Y-5354298D01*
X40494618Y-5354297D01*
X40464205Y-5346148D01*
X40372969Y-5321701D01*
X40247031Y-5321701D01*
X40174042Y-5341258D01*
X40125381Y-5354297D01*
X40125380Y-5354298D01*
X40016320Y-5417263D01*
X40016315Y-5417267D01*
X39927266Y-5506316D01*
X39927264Y-5506319D01*
X39886654Y-5576657D01*
X39836086Y-5624872D01*
X39767479Y-5638094D01*
X39702614Y-5612126D01*
X39662087Y-5555211D01*
X39657649Y-5538845D01*
X39649256Y-5496650D01*
X39649256Y-5496649D01*
X39588952Y-5351061D01*
X39588947Y-5351052D01*
X39501401Y-5220031D01*
X39501398Y-5220027D01*
X39411368Y-5129997D01*
X42354751Y-5129997D01*
X42354751Y-5130002D01*
X42373685Y-5298056D01*
X42429545Y-5457694D01*
X42429547Y-5457697D01*
X42519518Y-5600884D01*
X42519523Y-5600890D01*
X42639109Y-5720476D01*
X42639115Y-5720481D01*
X42782302Y-5810452D01*
X42782305Y-5810454D01*
X42782309Y-5810455D01*
X42782310Y-5810456D01*
X42854913Y-5835860D01*
X42941943Y-5866314D01*
X43109997Y-5885249D01*
X43110000Y-5885249D01*
X43110003Y-5885249D01*
X43278056Y-5866314D01*
X43287621Y-5862967D01*
X45611699Y-5862967D01*
X45644296Y-5984619D01*
X45644297Y-5984620D01*
X45707262Y-6093680D01*
X45707264Y-6093682D01*
X45707265Y-6093684D01*
X45796317Y-6182736D01*
X45905383Y-6245705D01*
X46027031Y-6278301D01*
X46027034Y-6278301D01*
X46152966Y-6278301D01*
X46152969Y-6278301D01*
X46274617Y-6245705D01*
X46383683Y-6182736D01*
X46472735Y-6093684D01*
X46505751Y-6036499D01*
X46556316Y-5988285D01*
X46624923Y-5975061D01*
X46689788Y-6001029D01*
X46700818Y-6010819D01*
X46720000Y-6030001D01*
X47220000Y-6030001D01*
X47220000Y-6530001D01*
X46720000Y-6530001D01*
X46720000Y-6908798D01*
X46750741Y-7063344D01*
X46750743Y-7063352D01*
X46811047Y-7208940D01*
X46811052Y-7208949D01*
X46898598Y-7339970D01*
X46898601Y-7339974D01*
X47010026Y-7451399D01*
X47010034Y-7451405D01*
X47141047Y-7538945D01*
X47141065Y-7538955D01*
X47269999Y-7592361D01*
X47270000Y-7592361D01*
X47270000Y-6996989D01*
X47279940Y-7014206D01*
X47335795Y-7070061D01*
X47404204Y-7109557D01*
X47480504Y-7130001D01*
X47559496Y-7130001D01*
X47635796Y-7109557D01*
X47704205Y-7070061D01*
X47760060Y-7014206D01*
X47770000Y-6996989D01*
X47770000Y-7592361D01*
X47898934Y-7538955D01*
X47898952Y-7538945D01*
X48029965Y-7451405D01*
X48029973Y-7451399D01*
X48141398Y-7339974D01*
X48141401Y-7339970D01*
X48228947Y-7208949D01*
X48228952Y-7208940D01*
X48289256Y-7063352D01*
X48289258Y-7063344D01*
X48319999Y-6908798D01*
X48320000Y-6908795D01*
X48320000Y-6530001D01*
X47820000Y-6530001D01*
X47820000Y-6030001D01*
X48320000Y-6030001D01*
X48320000Y-5651207D01*
X48319999Y-5651203D01*
X48289258Y-5496657D01*
X48289256Y-5496649D01*
X48228952Y-5351061D01*
X48228947Y-5351052D01*
X48141401Y-5220031D01*
X48141398Y-5220027D01*
X48029973Y-5108602D01*
X48029969Y-5108599D01*
X47898948Y-5021053D01*
X47898938Y-5021048D01*
X47770000Y-4967640D01*
X47770000Y-5563012D01*
X47760060Y-5545796D01*
X47704205Y-5489941D01*
X47635796Y-5450445D01*
X47559496Y-5430001D01*
X47480504Y-5430001D01*
X47404204Y-5450445D01*
X47335795Y-5489941D01*
X47279940Y-5545796D01*
X47270000Y-5563012D01*
X47270000Y-4967640D01*
X47269999Y-4967640D01*
X47141061Y-5021048D01*
X47141051Y-5021053D01*
X47010030Y-5108599D01*
X47010026Y-5108602D01*
X46898601Y-5220027D01*
X46898598Y-5220031D01*
X46811052Y-5351052D01*
X46811047Y-5351061D01*
X46750743Y-5496649D01*
X46750741Y-5496657D01*
X46742349Y-5538847D01*
X46709964Y-5600758D01*
X46649249Y-5635332D01*
X46579479Y-5631593D01*
X46522807Y-5590726D01*
X46513345Y-5576656D01*
X46472737Y-5506321D01*
X46472736Y-5506319D01*
X46472735Y-5506318D01*
X46383683Y-5417266D01*
X46383682Y-5417265D01*
X46383679Y-5417263D01*
X46274619Y-5354298D01*
X46274618Y-5354297D01*
X46244205Y-5346148D01*
X46152969Y-5321701D01*
X46027031Y-5321701D01*
X45954042Y-5341258D01*
X45905381Y-5354297D01*
X45905380Y-5354298D01*
X45796320Y-5417263D01*
X45796315Y-5417267D01*
X45707266Y-5506316D01*
X45707262Y-5506321D01*
X45644297Y-5615381D01*
X45644296Y-5615382D01*
X45634698Y-5651203D01*
X45611700Y-5737032D01*
X45611700Y-5737034D01*
X45611700Y-5862967D01*
X45611699Y-5862967D01*
X43287621Y-5862967D01*
X43437690Y-5810456D01*
X43437692Y-5810454D01*
X43437694Y-5810454D01*
X43437697Y-5810452D01*
X43580884Y-5720481D01*
X43580885Y-5720480D01*
X43580890Y-5720477D01*
X43700477Y-5600890D01*
X43700560Y-5600758D01*
X43790452Y-5457697D01*
X43790454Y-5457694D01*
X43790454Y-5457692D01*
X43790456Y-5457690D01*
X43846313Y-5298059D01*
X43846313Y-5298058D01*
X43846314Y-5298056D01*
X43865249Y-5130002D01*
X43865249Y-5129997D01*
X43846314Y-4961943D01*
X43801588Y-4834124D01*
X43790456Y-4802310D01*
X43790455Y-4802309D01*
X43790454Y-4802305D01*
X43790452Y-4802302D01*
X43700481Y-4659115D01*
X43700476Y-4659109D01*
X43580890Y-4539523D01*
X43580884Y-4539518D01*
X43437697Y-4449547D01*
X43437694Y-4449545D01*
X43278056Y-4393685D01*
X43110003Y-4374751D01*
X43109997Y-4374751D01*
X42941943Y-4393685D01*
X42782305Y-4449545D01*
X42782302Y-4449547D01*
X42639115Y-4539518D01*
X42639109Y-4539523D01*
X42519523Y-4659109D01*
X42519518Y-4659115D01*
X42429547Y-4802302D01*
X42429545Y-4802305D01*
X42373685Y-4961943D01*
X42354751Y-5129997D01*
X39411368Y-5129997D01*
X39389973Y-5108602D01*
X39389969Y-5108599D01*
X39258948Y-5021053D01*
X39258938Y-5021048D01*
X39130000Y-4967640D01*
X39130000Y-5563012D01*
X39120060Y-5545796D01*
X39064205Y-5489941D01*
X38995796Y-5450445D01*
X38919496Y-5430001D01*
X38840504Y-5430001D01*
X38764204Y-5450445D01*
X38695795Y-5489941D01*
X38639940Y-5545796D01*
X38630000Y-5563012D01*
X38630000Y-4967640D01*
X38629999Y-4967640D01*
X38501061Y-5021048D01*
X38501051Y-5021053D01*
X38370030Y-5108599D01*
X38370026Y-5108602D01*
X38258601Y-5220027D01*
X38258598Y-5220031D01*
X38171052Y-5351052D01*
X38171047Y-5351061D01*
X38110743Y-5496649D01*
X38110741Y-5496657D01*
X38080000Y-5651203D01*
X25288556Y-5651203D01*
X25210503Y-5580048D01*
X25029220Y-5467802D01*
X25029218Y-5467801D01*
X24898770Y-5417266D01*
X24830399Y-5390779D01*
X24620811Y-5351600D01*
X24407591Y-5351600D01*
X24198003Y-5390779D01*
X24198000Y-5390779D01*
X24198000Y-5390780D01*
X23999183Y-5467801D01*
X23999181Y-5467802D01*
X23817900Y-5580047D01*
X23660328Y-5723693D01*
X23531833Y-5893846D01*
X23436797Y-6084705D01*
X23436797Y-6084707D01*
X23378445Y-6289789D01*
X23367672Y-6406051D01*
X23341886Y-6470988D01*
X23297331Y-6502904D01*
X23188823Y-6502904D01*
X23191070Y-6501294D01*
X23154698Y-6480431D01*
X23122508Y-6418418D01*
X23120730Y-6406051D01*
X23120050Y-6398713D01*
X23109957Y-6289790D01*
X23051606Y-6084711D01*
X23051604Y-6084706D01*
X23051604Y-6084705D01*
X22956568Y-5893846D01*
X22828073Y-5723693D01*
X22748560Y-5651207D01*
X22670503Y-5580048D01*
X22489220Y-5467802D01*
X22489218Y-5467801D01*
X22358770Y-5417266D01*
X22290399Y-5390779D01*
X22080811Y-5351600D01*
X21867591Y-5351600D01*
X21658003Y-5390779D01*
X21658000Y-5390779D01*
X21658000Y-5390780D01*
X21459183Y-5467801D01*
X21459181Y-5467802D01*
X21277900Y-5580047D01*
X21120328Y-5723693D01*
X20991833Y-5893846D01*
X20896797Y-6084705D01*
X20896797Y-6084707D01*
X20838445Y-6289789D01*
X20827672Y-6406046D01*
X20801886Y-6470983D01*
X20757321Y-6502904D01*
X20648832Y-6502904D01*
X20651079Y-6501294D01*
X20614698Y-6480424D01*
X20582508Y-6418412D01*
X20580730Y-6406045D01*
X20569958Y-6289790D01*
X20511607Y-6084711D01*
X20511605Y-6084706D01*
X20511605Y-6084705D01*
X20416569Y-5893846D01*
X20288074Y-5723693D01*
X20208561Y-5651207D01*
X20130504Y-5580048D01*
X19949221Y-5467802D01*
X19949219Y-5467801D01*
X19818771Y-5417266D01*
X19750400Y-5390779D01*
X19540812Y-5351600D01*
X19327592Y-5351600D01*
X19118004Y-5390779D01*
X19118001Y-5390779D01*
X19118001Y-5390780D01*
X18919184Y-5467801D01*
X18919182Y-5467802D01*
X18737901Y-5580047D01*
X18580329Y-5723693D01*
X18451834Y-5893846D01*
X18356798Y-6084705D01*
X18356798Y-6084707D01*
X18298446Y-6289789D01*
X18278773Y-6502099D01*
X500500Y-6502099D01*
X500500Y-5285006D01*
X520185Y-5217967D01*
X572989Y-5172212D01*
X642147Y-5162268D01*
X705703Y-5191293D01*
X735901Y-5230546D01*
X760803Y-5281485D01*
X843514Y-5364196D01*
X843515Y-5364196D01*
X843517Y-5364198D01*
X948607Y-5415573D01*
X960227Y-5417266D01*
X1016739Y-5425500D01*
X1016740Y-5425500D01*
X2883261Y-5425500D01*
X2905971Y-5422191D01*
X2951393Y-5415573D01*
X3056483Y-5364198D01*
X3139198Y-5281483D01*
X3190573Y-5176393D01*
X3200500Y-5108260D01*
X3200500Y-4906862D01*
X3220185Y-4839823D01*
X3272989Y-4794068D01*
X3342147Y-4784124D01*
X3405703Y-4813149D01*
X3426071Y-4835734D01*
X3528402Y-4981877D01*
X3683123Y-5136598D01*
X3862361Y-5262102D01*
X4060670Y-5354575D01*
X4272023Y-5411207D01*
X4454926Y-5427208D01*
X4489998Y-5430277D01*
X4490000Y-5430277D01*
X4490002Y-5430277D01*
X4518254Y-5427805D01*
X4707977Y-5411207D01*
X4919330Y-5354575D01*
X5117639Y-5262102D01*
X5296877Y-5136598D01*
X5451598Y-4981877D01*
X5577102Y-4802639D01*
X5669575Y-4604330D01*
X5726207Y-4392977D01*
X5745277Y-4175000D01*
X5726207Y-3957023D01*
X5682974Y-3795677D01*
X5669577Y-3745677D01*
X5669576Y-3745676D01*
X5669575Y-3745670D01*
X5577102Y-3547362D01*
X5577100Y-3547359D01*
X5577099Y-3547357D01*
X5451599Y-3368124D01*
X5375214Y-3291739D01*
X6349500Y-3291739D01*
X6349500Y-5158260D01*
X6359426Y-5226391D01*
X6410803Y-5331485D01*
X6493514Y-5414196D01*
X6493515Y-5414196D01*
X6493517Y-5414198D01*
X6598607Y-5465573D01*
X6613899Y-5467801D01*
X6666739Y-5475500D01*
X6666740Y-5475500D01*
X8533261Y-5475500D01*
X8555971Y-5472191D01*
X8601393Y-5465573D01*
X8706483Y-5414198D01*
X8789198Y-5331483D01*
X8840573Y-5226393D01*
X8850500Y-5158260D01*
X8850500Y-4956862D01*
X8870185Y-4889823D01*
X8922989Y-4844068D01*
X8992147Y-4834124D01*
X9055703Y-4863149D01*
X9076071Y-4885734D01*
X9178402Y-5031877D01*
X9333123Y-5186598D01*
X9512361Y-5312102D01*
X9710670Y-5404575D01*
X9922023Y-5461207D01*
X10104926Y-5477208D01*
X10139998Y-5480277D01*
X10140000Y-5480277D01*
X10140002Y-5480277D01*
X10168254Y-5477805D01*
X10357977Y-5461207D01*
X10569330Y-5404575D01*
X10767639Y-5312102D01*
X10946877Y-5186598D01*
X11101598Y-5031877D01*
X11227102Y-4852639D01*
X11319575Y-4654330D01*
X11376207Y-4442977D01*
X11395277Y-4225000D01*
X11376207Y-4007023D01*
X11319575Y-3795670D01*
X11227102Y-3597362D01*
X11227100Y-3597359D01*
X11227099Y-3597357D01*
X11101599Y-3418124D01*
X11051596Y-3368121D01*
X10975214Y-3291739D01*
X12049500Y-3291739D01*
X12049500Y-5158260D01*
X12059426Y-5226391D01*
X12110803Y-5331485D01*
X12193514Y-5414196D01*
X12193515Y-5414196D01*
X12193517Y-5414198D01*
X12298607Y-5465573D01*
X12313899Y-5467801D01*
X12366739Y-5475500D01*
X12366740Y-5475500D01*
X14233261Y-5475500D01*
X14255971Y-5472191D01*
X14301393Y-5465573D01*
X14406483Y-5414198D01*
X14489198Y-5331483D01*
X14540573Y-5226393D01*
X14550500Y-5158260D01*
X14550500Y-4956862D01*
X14570185Y-4889823D01*
X14622989Y-4844068D01*
X14692147Y-4834124D01*
X14755703Y-4863149D01*
X14776071Y-4885734D01*
X14878402Y-5031877D01*
X15033123Y-5186598D01*
X15212361Y-5312102D01*
X15410670Y-5404575D01*
X15622023Y-5461207D01*
X15804926Y-5477208D01*
X15839998Y-5480277D01*
X15840000Y-5480277D01*
X15840002Y-5480277D01*
X15868254Y-5477805D01*
X16057977Y-5461207D01*
X16269330Y-5404575D01*
X16467639Y-5312102D01*
X16646877Y-5186598D01*
X16801598Y-5031877D01*
X16927102Y-4852639D01*
X17019575Y-4654330D01*
X17076207Y-4442977D01*
X17095277Y-4225000D01*
X17076207Y-4007023D01*
X17019575Y-3795670D01*
X16927102Y-3597362D01*
X16927100Y-3597359D01*
X16927099Y-3597357D01*
X16801599Y-3418124D01*
X16751596Y-3368121D01*
X16646877Y-3263402D01*
X16467639Y-3137898D01*
X16467640Y-3137898D01*
X16467638Y-3137897D01*
X16360414Y-3087898D01*
X16269330Y-3045425D01*
X16269326Y-3045424D01*
X16269322Y-3045422D01*
X16057977Y-2988793D01*
X15840002Y-2969723D01*
X15839998Y-2969723D01*
X15694682Y-2982436D01*
X15622023Y-2988793D01*
X15622020Y-2988793D01*
X15410677Y-3045422D01*
X15410668Y-3045426D01*
X15212361Y-3137898D01*
X15212357Y-3137900D01*
X15033121Y-3263402D01*
X14878402Y-3418121D01*
X14776075Y-3564261D01*
X14721498Y-3607886D01*
X14652000Y-3615080D01*
X14589645Y-3583557D01*
X14554231Y-3523327D01*
X14550500Y-3493138D01*
X14550500Y-3291739D01*
X14540573Y-3223608D01*
X14540573Y-3223607D01*
X14489198Y-3118517D01*
X14489196Y-3118515D01*
X14489196Y-3118514D01*
X14406485Y-3035803D01*
X14301391Y-2984426D01*
X14233261Y-2974500D01*
X14233260Y-2974500D01*
X12366740Y-2974500D01*
X12366739Y-2974500D01*
X12298608Y-2984426D01*
X12193514Y-3035803D01*
X12110803Y-3118514D01*
X12059426Y-3223608D01*
X12049500Y-3291739D01*
X10975214Y-3291739D01*
X10946877Y-3263402D01*
X10767639Y-3137898D01*
X10767640Y-3137898D01*
X10767638Y-3137897D01*
X10660414Y-3087898D01*
X10569330Y-3045425D01*
X10569326Y-3045424D01*
X10569322Y-3045422D01*
X10357977Y-2988793D01*
X10140002Y-2969723D01*
X10139998Y-2969723D01*
X9994682Y-2982436D01*
X9922023Y-2988793D01*
X9922020Y-2988793D01*
X9710677Y-3045422D01*
X9710668Y-3045426D01*
X9512361Y-3137898D01*
X9512357Y-3137900D01*
X9333121Y-3263402D01*
X9178402Y-3418121D01*
X9076075Y-3564261D01*
X9021498Y-3607886D01*
X8952000Y-3615080D01*
X8889645Y-3583557D01*
X8854231Y-3523327D01*
X8850500Y-3493138D01*
X8850500Y-3291739D01*
X8840573Y-3223608D01*
X8840573Y-3223607D01*
X8789198Y-3118517D01*
X8789196Y-3118515D01*
X8789196Y-3118514D01*
X8706485Y-3035803D01*
X8601391Y-2984426D01*
X8533261Y-2974500D01*
X8533260Y-2974500D01*
X6666740Y-2974500D01*
X6666739Y-2974500D01*
X6598608Y-2984426D01*
X6493514Y-3035803D01*
X6410803Y-3118514D01*
X6359426Y-3223608D01*
X6349500Y-3291739D01*
X5375214Y-3291739D01*
X5296877Y-3213402D01*
X5117639Y-3087898D01*
X5117640Y-3087898D01*
X5117638Y-3087897D01*
X5005919Y-3035802D01*
X4919330Y-2995425D01*
X4919326Y-2995424D01*
X4919322Y-2995422D01*
X4707977Y-2938793D01*
X4490002Y-2919723D01*
X4489998Y-2919723D01*
X4344682Y-2932436D01*
X4272023Y-2938793D01*
X4272020Y-2938793D01*
X4060677Y-2995422D01*
X4060668Y-2995426D01*
X3862361Y-3087898D01*
X3862357Y-3087900D01*
X3683121Y-3213402D01*
X3528402Y-3368121D01*
X3426075Y-3514261D01*
X3371498Y-3557886D01*
X3302000Y-3565080D01*
X3239645Y-3533557D01*
X3204231Y-3473327D01*
X3200500Y-3443138D01*
X3200500Y-3241739D01*
X3190573Y-3173608D01*
X3189316Y-3171036D01*
X3139198Y-3068517D01*
X3139196Y-3068515D01*
X3139196Y-3068514D01*
X3056485Y-2985803D01*
X2951391Y-2934426D01*
X2883261Y-2924500D01*
X2883260Y-2924500D01*
X1016740Y-2924500D01*
X1016739Y-2924500D01*
X948608Y-2934426D01*
X843514Y-2985803D01*
X760802Y-3068515D01*
X735900Y-3119454D01*
X688772Y-3171036D01*
X621238Y-3188950D01*
X554740Y-3167509D01*
X510390Y-3113520D01*
X500500Y-3064993D01*
X500500Y-1433676D01*
X520185Y-1366637D01*
X536819Y-1345995D01*
X1345995Y-536819D01*
X1407318Y-503334D01*
X1433676Y-500500D01*
X18634672Y-500500D01*
X18701711Y-520185D01*
G37*
%TD.AperFunction*%
%TD*%
M02*
