M48
; DRILL file {KiCad 8.0.3} date 2024-07-14T14:59:10-0600
; FORMAT={3:3/ absolute / metric / suppress leading zeros}
; #@! TF.CreationDate,2024-07-14T14:59:10-06:00
; #@! TF.GenerationSoftware,Kicad,Pcbnew,8.0.3
; #@! TF.FileFunction,MixedPlating,1,4
FMAT,2
METRIC,TZ
; #@! TA.AperFunction,Plated,PTH,ViaDrill
T1C0.350
; #@! TA.AperFunction,Plated,PTH,ViaDrill
T2C0.400
; #@! TA.AperFunction,Plated,PTH,ViaDrill
T3C0.500
; #@! TA.AperFunction,Plated,PTH,ComponentDrill
T4C0.500
; #@! TA.AperFunction,Plated,PTH,ComponentDrill
T5C0.600
; #@! TA.AperFunction,Plated,PTH,ComponentDrill
T6C0.700
; #@! TA.AperFunction,Plated,PTH,ComponentDrill
T7C0.800
; #@! TA.AperFunction,Plated,PTH,ComponentDrill
T8C0.900
; #@! TA.AperFunction,Plated,PTH,ComponentDrill
T9C1.000
; #@! TA.AperFunction,NonPlated,NPTH,ComponentDrill
T10C0.600
; #@! TA.AperFunction,NonPlated,NPTH,ComponentDrill
T11C3.500
%
G90
G05
T1
X8820Y-44010
X12260Y-27460
T2
X2950Y-1120
X2950Y-7120
X2950Y-10120
X2950Y-19120
X2950Y-28120
X2950Y-31120
X2950Y-34120
X2950Y-37120
X2950Y-40120
X2950Y-43120
X2950Y-46120
X2950Y-49120
X2950Y-52120
X2950Y-55120
X2950Y-58120
X2950Y-61120
X2950Y-64120
X2950Y-70120
X2950Y-73120
X5950Y-1120
X5950Y-13120
X5950Y-28120
X5950Y-52120
X5950Y-64120
X5950Y-73120
X6370Y-15040
X6410Y-17790
X8950Y-1120
X8950Y-22120
X8950Y-28120
X8950Y-31120
X8950Y-70120
X8950Y-73120
X11950Y-1120
X11950Y-7120
X11950Y-34120
X11950Y-37120
X11950Y-43120
X11950Y-46120
X11950Y-55120
X11950Y-64120
X11950Y-73120
X12940Y-29850
X13350Y-15540
X13980Y-41420
X14080Y-27300
X14950Y-1120
X14950Y-52120
X15800Y-15230
X16170Y-10290
X16830Y-22670
X16840Y-21290
X17060Y-19930
X17060Y-59060
X17270Y-17210
X17320Y-15680
X17760Y-33270
X17950Y-1120
X17950Y-52120
X18020Y-26780
X18170Y-39630
X19550Y-28900
X20720Y-15060
X20950Y-1120
X20950Y-52120
X21490Y-22500
X21540Y-21440
X21610Y-18540
X22740Y-17800
X23170Y-28520
X23480Y-25740
X23560Y-14670
X23950Y-43120
X23950Y-73120
X24030Y-45850
X24710Y-35600
X24900Y-31180
X26950Y-1120
X26950Y-40120
X26950Y-46120
X26950Y-58120
X26950Y-73120
X29950Y-58120
X29950Y-61120
X29950Y-64120
X29950Y-73120
X30050Y-68970
X30100Y-11050
X31400Y-40880
X31725Y-12500
X32110Y-18360
X32420Y-44170
X32710Y-38880
X32775Y-12500
X32950Y-52120
X32950Y-55120
X32950Y-64120
X32950Y-67120
X32950Y-70120
X32950Y-73120
X33810Y-46830
X34570Y-38140
X34996Y-7244
X35950Y-25120
X35950Y-52120
X35950Y-55120
X35950Y-64120
X35950Y-67120
X35950Y-70120
X35950Y-73120
X36260Y-45940
X36975Y-10625
X37600Y-46790
X37650Y-32810
X38950Y-40120
X38950Y-43120
X38950Y-52120
X38950Y-55120
X38950Y-64120
X38950Y-67120
X38950Y-70120
X38950Y-73120
X39870Y-13880
X41950Y-1120
X41950Y-8710
X41950Y-34120
X41950Y-40120
X41950Y-46120
X41950Y-49120
X41950Y-64120
X41950Y-70120
X41950Y-73120
X42831Y-13959
X43110Y-5130
X43831Y-13949
X44950Y-1120
X44950Y-28120
X44950Y-31120
X44950Y-34120
X44950Y-37120
X44950Y-40120
X44950Y-43120
X44950Y-46120
X44950Y-49120
X44950Y-52120
X44950Y-55120
X44950Y-58120
X44950Y-61120
X44950Y-64120
X44950Y-73120
X45370Y-12090
X47950Y-4120
X47950Y-10120
X47950Y-13120
X47950Y-16120
X47950Y-19120
X47950Y-22120
X47950Y-25120
X47950Y-28120
X47950Y-31120
X47950Y-34120
X47950Y-37120
X47950Y-40120
X47950Y-43120
X47950Y-46120
X47950Y-49120
X47950Y-52120
X47950Y-55120
X47950Y-58120
X47950Y-61120
X47950Y-64120
X47950Y-67120
X47950Y-70120
T3
X10629Y-24189
X29350Y-14750
T6
X43375Y-37375
X43375Y-42455
T7
X15740Y-47920
X15740Y-55540
X18280Y-47920
X18280Y-55540
X19434Y-1422
X19434Y-6502
X20820Y-55540
X20820Y-47920
X21974Y-6502
X23360Y-47920
X23360Y-55540
X24514Y-1422
X24514Y-6502
X31723Y-49730
X31723Y-57350
X34262Y-49730
X34262Y-57350
X36802Y-57350
X36803Y-49730
X39343Y-49730
X39343Y-57350
T8
X1950Y-4175
X4490Y-4175
X7600Y-4225
X10140Y-4225
X13300Y-4225
X15840Y-4225
T9
X3950Y-14460
X3950Y-17000
X6200Y-31535
X6200Y-34075
X6200Y-36615
X6200Y-39155
X6200Y-41695
X6200Y-46915
X6200Y-49455
X6200Y-54475
X6200Y-57015
X6200Y-59555
T10
X40310Y-5800
X46090Y-5800
T11
X5000Y-24000
X5000Y-68000
X44000Y-24000
X44000Y-68000
T4
G00X29250Y-1975
M15
G01X29250Y-2675
M16
G05
G00X35850Y-1975
M15
G01X35850Y-2675
M16
G05
T5
G00X38880Y-1710
M15
G01X38880Y-2510
M16
G05
G00X38880Y-5730
M15
G01X38880Y-6830
M16
G05
G00X47520Y-1710
M15
G01X47520Y-2510
M16
G05
G00X47520Y-5730
M15
G01X47520Y-6830
M16
G05
M30
