%TF.GenerationSoftware,KiCad,Pcbnew,8.0.3*%
%TF.CreationDate,2024-07-14T14:59:13-06:00*%
%TF.ProjectId,PowerSupplyBoard,506f7765-7253-4757-9070-6c79426f6172,rev?*%
%TF.SameCoordinates,Original*%
%TF.FileFunction,Soldermask,Top*%
%TF.FilePolarity,Negative*%
%FSLAX46Y46*%
G04 Gerber Fmt 4.6, Leading zero omitted, Abs format (unit mm)*
G04 Created by KiCad (PCBNEW 8.0.3) date 2024-07-14 14:59:13*
%MOMM*%
%LPD*%
G01*
G04 APERTURE LIST*
G04 Aperture macros list*
%AMRoundRect*
0 Rectangle with rounded corners*
0 $1 Rounding radius*
0 $2 $3 $4 $5 $6 $7 $8 $9 X,Y pos of 4 corners*
0 Add a 4 corners polygon primitive as box body*
4,1,4,$2,$3,$4,$5,$6,$7,$8,$9,$2,$3,0*
0 Add four circle primitives for the rounded corners*
1,1,$1+$1,$2,$3*
1,1,$1+$1,$4,$5*
1,1,$1+$1,$6,$7*
1,1,$1+$1,$8,$9*
0 Add four rect primitives between the rounded corners*
20,1,$1+$1,$2,$3,$4,$5,0*
20,1,$1+$1,$4,$5,$6,$7,0*
20,1,$1+$1,$6,$7,$8,$9,0*
20,1,$1+$1,$8,$9,$2,$3,0*%
%AMFreePoly0*
4,1,6,0.900000,0.000000,0.400000,-0.750000,-0.500000,-0.750000,-0.500000,0.750000,0.400000,0.750000,0.900000,0.000000,0.900000,0.000000,$1*%
%AMFreePoly1*
4,1,6,0.650000,-0.750000,-0.650000,-0.750000,-0.150000,0.000000,-0.650000,0.750000,0.650000,0.750000,0.650000,-0.750000,0.650000,-0.750000,$1*%
G04 Aperture macros list end*
%ADD10C,0.600000*%
%ADD11R,0.600000X1.160000*%
%ADD12R,0.300000X1.160000*%
%ADD13O,0.900000X2.000000*%
%ADD14O,0.900000X1.700000*%
%ADD15R,1.600000X1.600000*%
%ADD16O,1.600000X1.600000*%
%ADD17RoundRect,0.075000X0.625000X0.075000X-0.625000X0.075000X-0.625000X-0.075000X0.625000X-0.075000X0*%
%ADD18RoundRect,0.250000X0.262500X0.450000X-0.262500X0.450000X-0.262500X-0.450000X0.262500X-0.450000X0*%
%ADD19O,1.700000X1.700000*%
%ADD20R,1.700000X1.700000*%
%ADD21RoundRect,0.225000X0.375000X-0.225000X0.375000X0.225000X-0.375000X0.225000X-0.375000X-0.225000X0*%
%ADD22O,0.280000X0.850000*%
%ADD23R,0.850000X0.280000*%
%ADD24R,3.000000X1.540000*%
%ADD25R,3.400000X0.980000*%
%ADD26C,1.000000*%
%ADD27FreePoly0,90.000000*%
%ADD28FreePoly1,90.000000*%
%ADD29RoundRect,0.250000X0.450000X-0.262500X0.450000X0.262500X-0.450000X0.262500X-0.450000X-0.262500X0*%
%ADD30RoundRect,0.250000X0.475000X-0.250000X0.475000X0.250000X-0.475000X0.250000X-0.475000X-0.250000X0*%
%ADD31FreePoly0,180.000000*%
%ADD32FreePoly1,180.000000*%
%ADD33R,0.950000X2.800000*%
%ADD34RoundRect,0.250000X0.250000X0.475000X-0.250000X0.475000X-0.250000X-0.475000X0.250000X-0.475000X0*%
%ADD35R,3.700000X1.100000*%
%ADD36RoundRect,0.250000X-0.250000X-0.475000X0.250000X-0.475000X0.250000X0.475000X-0.250000X0.475000X0*%
%ADD37R,1.800000X1.800000*%
%ADD38C,1.800000*%
%ADD39C,1.400000*%
%ADD40O,1.400000X1.400000*%
%ADD41RoundRect,0.250000X-0.262500X-0.450000X0.262500X-0.450000X0.262500X0.450000X-0.262500X0.450000X0*%
%ADD42RoundRect,0.175000X0.175000X0.325000X-0.175000X0.325000X-0.175000X-0.325000X0.175000X-0.325000X0*%
%ADD43RoundRect,0.150000X0.200000X0.150000X-0.200000X0.150000X-0.200000X-0.150000X0.200000X-0.150000X0*%
%ADD44RoundRect,0.200000X0.200000X0.275000X-0.200000X0.275000X-0.200000X-0.275000X0.200000X-0.275000X0*%
%ADD45RoundRect,0.225000X-0.225000X-0.375000X0.225000X-0.375000X0.225000X0.375000X-0.225000X0.375000X0*%
%ADD46RoundRect,0.250000X-0.475000X0.250000X-0.475000X-0.250000X0.475000X-0.250000X0.475000X0.250000X0*%
%ADD47RoundRect,0.225000X0.225000X0.375000X-0.225000X0.375000X-0.225000X-0.375000X0.225000X-0.375000X0*%
%ADD48RoundRect,0.100000X0.100000X0.575000X-0.100000X0.575000X-0.100000X-0.575000X0.100000X-0.575000X0*%
%ADD49O,0.900000X1.600000*%
%ADD50RoundRect,0.250000X0.550000X0.450000X-0.550000X0.450000X-0.550000X-0.450000X0.550000X-0.450000X0*%
%ADD51RoundRect,0.250000X0.700000X0.700000X-0.700000X0.700000X-0.700000X-0.700000X0.700000X-0.700000X0*%
%ADD52RoundRect,0.150000X0.825000X0.150000X-0.825000X0.150000X-0.825000X-0.150000X0.825000X-0.150000X0*%
%ADD53RoundRect,0.250000X-0.450000X0.262500X-0.450000X-0.262500X0.450000X-0.262500X0.450000X0.262500X0*%
%ADD54C,3.500000*%
%ADD55R,2.800000X0.950000*%
%ADD56C,1.300000*%
%ADD57C,1.600000*%
%ADD58R,0.800000X0.900000*%
G04 APERTURE END LIST*
D10*
%TO.C,J103*%
X46090000Y-5800001D03*
X40310000Y-5800001D03*
D11*
X46400000Y-6860001D03*
X45600000Y-6860001D03*
D12*
X44450000Y-6860001D03*
X43450000Y-6860001D03*
X42950000Y-6860001D03*
X41950000Y-6860001D03*
D11*
X40800000Y-6860001D03*
X40000000Y-6860001D03*
X40000000Y-6860001D03*
X40800000Y-6860001D03*
D12*
X41450000Y-6860001D03*
X42450000Y-6860001D03*
X43950000Y-6860001D03*
X44950000Y-6860001D03*
D11*
X45600000Y-6860001D03*
X46400000Y-6860001D03*
D13*
X47520000Y-6280001D03*
D14*
X47520000Y-2110001D03*
D13*
X38880000Y-6280001D03*
D14*
X38880000Y-2110001D03*
%TD*%
D15*
%TO.C,U103*%
X15740000Y-55540000D03*
D16*
X18280000Y-55540000D03*
X20819999Y-55540000D03*
X23360000Y-55540000D03*
X23360000Y-47920000D03*
X20820000Y-47920000D03*
X18280000Y-47920000D03*
X15740000Y-47920000D03*
%TD*%
D17*
%TO.C,U102*%
X15860000Y-17790000D03*
X15860000Y-17290000D03*
X15860000Y-16790000D03*
X15860000Y-16290000D03*
X15860000Y-15790000D03*
X11460000Y-15790000D03*
X11460000Y-16290000D03*
X11460000Y-16790000D03*
X11460000Y-17290000D03*
X11460000Y-17790000D03*
%TD*%
D18*
%TO.C,R102*%
X35197500Y-19065000D03*
X33372500Y-19065000D03*
%TD*%
D19*
%TO.C,J105*%
X6200000Y-59555000D03*
X6200000Y-57015000D03*
D20*
X6200000Y-54475000D03*
%TD*%
D21*
%TO.C,D107*%
X44080000Y-19050000D03*
X44080000Y-15750000D03*
%TD*%
D20*
%TO.C,J101*%
X3950000Y-17000000D03*
D19*
X3950000Y-14460000D03*
%TD*%
D22*
%TO.C,U101*%
X17619999Y-23390000D03*
X18119999Y-23390000D03*
X18620000Y-23390000D03*
X19119999Y-23390000D03*
X19619998Y-23390000D03*
X20119999Y-23390000D03*
X20619999Y-23390000D03*
X20619999Y-20590000D03*
X20119999Y-20590000D03*
X19619998Y-20590000D03*
X19119999Y-20590000D03*
X18620000Y-20590000D03*
X18119999Y-20590000D03*
X17619999Y-20590000D03*
D23*
X17619999Y-22490000D03*
X20619999Y-22490000D03*
X17619998Y-21990000D03*
D24*
X19120000Y-21990000D03*
D23*
X20619999Y-21990000D03*
X17619999Y-21490000D03*
X20619999Y-21490000D03*
%TD*%
D25*
%TO.C,L101*%
X24020000Y-20829999D03*
X24020000Y-23200001D03*
%TD*%
D26*
%TO.C,TP101*%
X38465000Y-22295000D03*
%TD*%
D27*
%TO.C,JP103*%
X28892500Y-54419999D03*
D28*
X28892500Y-52920000D03*
%TD*%
D29*
%TO.C,R114*%
X39850000Y-16942500D03*
X39850000Y-15117500D03*
%TD*%
D30*
%TO.C,C117*%
X15725000Y-60949999D03*
X15725000Y-59050001D03*
%TD*%
D31*
%TO.C,JP105*%
X22624999Y-70350000D03*
D32*
X21125000Y-70350000D03*
%TD*%
D29*
%TO.C,R112*%
X15711500Y-64987500D03*
X15711500Y-63162500D03*
%TD*%
D33*
%TO.C,Q104*%
X13995000Y-44063501D03*
X15515000Y-44063501D03*
X17035000Y-44063501D03*
X18555000Y-44063501D03*
X18555000Y-37263501D03*
X17035000Y-37263501D03*
X15515000Y-37263501D03*
X13995000Y-37263501D03*
%TD*%
D26*
%TO.C,TP104*%
X16970000Y-68480000D03*
%TD*%
D18*
%TO.C,R110*%
X36422500Y-36135000D03*
X34597500Y-36135000D03*
%TD*%
D34*
%TO.C,C103*%
X27969999Y-30315000D03*
X26070001Y-30315000D03*
%TD*%
D35*
%TO.C,L102*%
X23165000Y-37145000D03*
X23165000Y-34145000D03*
%TD*%
D36*
%TO.C,C112*%
X35852501Y-59800000D03*
X37752499Y-59800000D03*
%TD*%
D26*
%TO.C,TP106*%
X26850000Y-69020000D03*
%TD*%
D37*
%TO.C,D102*%
X7600000Y-4225000D03*
D38*
X10140000Y-4225000D03*
%TD*%
D36*
%TO.C,C113*%
X30280001Y-46830000D03*
X32179999Y-46830000D03*
%TD*%
%TO.C,C104*%
X16120000Y-25340000D03*
X18019998Y-25340000D03*
%TD*%
%TO.C,C101*%
X18520000Y-18540000D03*
X20420000Y-18540000D03*
%TD*%
D39*
%TO.C,R115*%
X43375000Y-42454999D03*
D40*
X43375000Y-37375000D03*
%TD*%
D41*
%TO.C,R106*%
X11607500Y-13680000D03*
X13432500Y-13680000D03*
%TD*%
D37*
%TO.C,D101*%
X1950000Y-4175000D03*
D38*
X4490000Y-4175000D03*
%TD*%
D42*
%TO.C,D109*%
X44280000Y-12090000D03*
D43*
X44280000Y-10390000D03*
X42280000Y-10390000D03*
X42280000Y-12290000D03*
%TD*%
D30*
%TO.C,C106*%
X16470000Y-13649999D03*
X16470000Y-11750001D03*
%TD*%
D36*
%TO.C,C108*%
X20395000Y-25740000D03*
X22294998Y-25740000D03*
%TD*%
D44*
%TO.C,TH101*%
X9185000Y-15055000D03*
X7535000Y-15055000D03*
%TD*%
D26*
%TO.C,TP103*%
X9960000Y-26470000D03*
%TD*%
D45*
%TO.C,D104*%
X26287500Y-16895000D03*
X29587500Y-16895000D03*
%TD*%
D20*
%TO.C,J104*%
X6200000Y-31535000D03*
D19*
X6200000Y-34075000D03*
X6200000Y-36615000D03*
X6200000Y-39155000D03*
X6200000Y-41695000D03*
%TD*%
D34*
%TO.C,C116*%
X36469999Y-39510000D03*
X34570001Y-39510000D03*
%TD*%
D36*
%TO.C,C111*%
X19860000Y-57770000D03*
X21760000Y-57770000D03*
%TD*%
D31*
%TO.C,JP101*%
X35364999Y-23280000D03*
D32*
X33865000Y-23280000D03*
%TD*%
D46*
%TO.C,C119*%
X21225000Y-43950002D03*
X21225000Y-45850000D03*
%TD*%
D27*
%TO.C,JP104*%
X20875000Y-41400000D03*
D28*
X20875000Y-39900001D03*
%TD*%
D47*
%TO.C,D106*%
X37020000Y-42980000D03*
X33720000Y-42980000D03*
%TD*%
D48*
%TO.C,J106*%
X33850000Y-5000000D03*
X33200000Y-5000000D03*
X32550000Y-5000001D03*
X31900000Y-5000000D03*
X31250000Y-5000000D03*
D49*
X35849999Y-2325000D03*
D50*
X35750000Y-4775000D03*
D51*
X33750000Y-2325000D03*
X31350000Y-2325000D03*
D50*
X29350000Y-4775000D03*
D49*
X29250001Y-2325000D03*
%TD*%
D36*
%TO.C,C118*%
X14325001Y-32000000D03*
X16224999Y-32000000D03*
%TD*%
D34*
%TO.C,C109*%
X9459999Y-17785000D03*
X7560001Y-17785000D03*
%TD*%
D41*
%TO.C,R105*%
X28837500Y-20680000D03*
X30662500Y-20680000D03*
%TD*%
D52*
%TO.C,U105*%
X31785000Y-37390000D03*
X31785000Y-36120000D03*
X31785000Y-34850000D03*
X31785000Y-33580000D03*
X26835000Y-33580000D03*
X26835000Y-34850000D03*
X26835000Y-36120000D03*
X26835000Y-37390000D03*
%TD*%
D41*
%TO.C,R108*%
X12267500Y-26055000D03*
X14092500Y-26055000D03*
%TD*%
D36*
%TO.C,C102*%
X18519999Y-16440000D03*
X20419999Y-16440000D03*
%TD*%
D34*
%TO.C,C107*%
X16179999Y-29840000D03*
X14280001Y-29840000D03*
%TD*%
D41*
%TO.C,R107*%
X12257500Y-22560000D03*
X14082500Y-22560000D03*
%TD*%
D46*
%TO.C,C105*%
X22560000Y-11130001D03*
X22560000Y-13029999D03*
%TD*%
D29*
%TO.C,R101*%
X4620000Y-11022500D03*
X4620000Y-9197500D03*
%TD*%
D21*
%TO.C,D108*%
X36730000Y-12277500D03*
X36730000Y-8977500D03*
%TD*%
D29*
%TO.C,R104*%
X8730000Y-11042500D03*
X8730000Y-9217500D03*
%TD*%
D53*
%TO.C,R109*%
X39010000Y-45217500D03*
X39010000Y-47042500D03*
%TD*%
D15*
%TO.C,U104*%
X31722500Y-57350000D03*
D16*
X34262500Y-57350000D03*
X36802499Y-57350000D03*
X39342500Y-57350000D03*
X39342500Y-49730000D03*
X36802500Y-49730000D03*
X34262500Y-49730000D03*
X31722500Y-49730000D03*
%TD*%
D54*
%TO.C,REF\u002A\u002A*%
X44000000Y-24000000D03*
%TD*%
D26*
%TO.C,TP102*%
X29540000Y-23745000D03*
%TD*%
D37*
%TO.C,D105*%
X13300000Y-4225000D03*
D38*
X15840000Y-4225000D03*
%TD*%
D41*
%TO.C,R103*%
X26132500Y-28215000D03*
X27957500Y-28215000D03*
%TD*%
D55*
%TO.C,Q103*%
X25425000Y-66355000D03*
X25425000Y-64835000D03*
X25425000Y-63315000D03*
X25425000Y-61795000D03*
X18625000Y-61795000D03*
X18625000Y-63315000D03*
X18625000Y-64835000D03*
X18625000Y-66355000D03*
%TD*%
D54*
%TO.C,REF\u002A\u002A*%
X44000000Y-68000000D03*
%TD*%
D56*
%TO.C,SW101*%
X24514201Y-1422101D03*
X19434201Y-1422100D03*
D57*
X24514201Y-6502100D03*
X21974201Y-6502100D03*
X19434202Y-6502100D03*
%TD*%
D58*
%TO.C,Q101*%
X35210000Y-15090000D03*
X33310000Y-15090000D03*
X34260000Y-17090000D03*
%TD*%
D27*
%TO.C,JP102*%
X12930000Y-52569999D03*
D28*
X12930000Y-51070000D03*
%TD*%
D26*
%TO.C,TP105*%
X38930000Y-37185000D03*
%TD*%
D54*
%TO.C,REF\u002A\u002A*%
X5000000Y-68000000D03*
%TD*%
D42*
%TO.C,D110*%
X33250000Y-11000000D03*
D43*
X33250000Y-9300000D03*
X31250000Y-9300000D03*
X31250000Y-11200000D03*
%TD*%
D30*
%TO.C,C114*%
X23190000Y-32184999D03*
X23190000Y-30285001D03*
%TD*%
D41*
%TO.C,R111*%
X34572500Y-34035000D03*
X36397500Y-34035000D03*
%TD*%
D54*
%TO.C,REF\u002A\u002A*%
X5000000Y-24000000D03*
%TD*%
D36*
%TO.C,C120*%
X28150000Y-66350000D03*
X30050000Y-66350000D03*
%TD*%
D18*
%TO.C,R113*%
X16212500Y-34400000D03*
X14387500Y-34400000D03*
%TD*%
D55*
%TO.C,Q102*%
X38103500Y-30160000D03*
X38103500Y-28640000D03*
X38103500Y-27120000D03*
X38103500Y-25600000D03*
X31303500Y-25600000D03*
X31303500Y-27120000D03*
X31303500Y-28640000D03*
X31303500Y-30160000D03*
%TD*%
D34*
%TO.C,C110*%
X30379999Y-40660000D03*
X28480001Y-40660000D03*
%TD*%
D30*
%TO.C,C115*%
X19565000Y-32209999D03*
X19565000Y-30310001D03*
%TD*%
D45*
%TO.C,D103*%
X26212500Y-12920000D03*
X29512500Y-12920000D03*
%TD*%
D26*
%TO.C,TP107*%
X12340000Y-48470000D03*
%TD*%
D20*
%TO.C,J102*%
X6200000Y-46915000D03*
D19*
X6200000Y-49455000D03*
%TD*%
M02*
