%TF.GenerationSoftware,KiCad,Pcbnew,8.0.3*%
%TF.CreationDate,2024-07-14T14:59:13-06:00*%
%TF.ProjectId,PowerSupplyBoard,506f7765-7253-4757-9070-6c79426f6172,rev?*%
%TF.SameCoordinates,Original*%
%TF.FileFunction,Copper,L4,Bot*%
%TF.FilePolarity,Positive*%
%FSLAX46Y46*%
G04 Gerber Fmt 4.6, Leading zero omitted, Abs format (unit mm)*
G04 Created by KiCad (PCBNEW 8.0.3) date 2024-07-14 14:59:13*
%MOMM*%
%LPD*%
G01*
G04 APERTURE LIST*
%TA.AperFunction,ComponentPad*%
%ADD10O,0.900000X2.000000*%
%TD*%
%TA.AperFunction,ComponentPad*%
%ADD11O,0.900000X1.700000*%
%TD*%
%TA.AperFunction,ComponentPad*%
%ADD12R,1.600000X1.600000*%
%TD*%
%TA.AperFunction,ComponentPad*%
%ADD13O,1.600000X1.600000*%
%TD*%
%TA.AperFunction,ComponentPad*%
%ADD14O,1.700000X1.700000*%
%TD*%
%TA.AperFunction,ComponentPad*%
%ADD15R,1.700000X1.700000*%
%TD*%
%TA.AperFunction,ComponentPad*%
%ADD16R,1.800000X1.800000*%
%TD*%
%TA.AperFunction,ComponentPad*%
%ADD17C,1.800000*%
%TD*%
%TA.AperFunction,ComponentPad*%
%ADD18C,1.400000*%
%TD*%
%TA.AperFunction,ComponentPad*%
%ADD19O,1.400000X1.400000*%
%TD*%
%TA.AperFunction,ComponentPad*%
%ADD20O,0.900000X1.600000*%
%TD*%
%TA.AperFunction,ComponentPad*%
%ADD21C,1.300000*%
%TD*%
%TA.AperFunction,ComponentPad*%
%ADD22C,1.600000*%
%TD*%
%TA.AperFunction,ViaPad*%
%ADD23C,1.000000*%
%TD*%
%TA.AperFunction,ViaPad*%
%ADD24C,0.800000*%
%TD*%
%TA.AperFunction,ViaPad*%
%ADD25C,0.650000*%
%TD*%
%TA.AperFunction,Conductor*%
%ADD26C,0.200000*%
%TD*%
%TA.AperFunction,Conductor*%
%ADD27C,0.450000*%
%TD*%
G04 APERTURE END LIST*
D10*
%TO.P,J103,S1,SHIELD*%
%TO.N,GND*%
X47520000Y-6280001D03*
D11*
X47520000Y-2110001D03*
D10*
X38880000Y-6280001D03*
D11*
X38880000Y-2110001D03*
%TD*%
D12*
%TO.P,U103,1,BOOST*%
%TO.N,Net-(JP102-A)*%
X15740000Y-55540000D03*
D13*
%TO.P,U103,2,CAP+*%
%TO.N,Net-(U103-CAP+)*%
X18280000Y-55540000D03*
%TO.P,U103,3,GND*%
%TO.N,GND*%
X20819999Y-55540000D03*
%TO.P,U103,4,CAP-*%
%TO.N,Net-(U103-CAP-)*%
X23360000Y-55540000D03*
%TO.P,U103,5,VOUT*%
%TO.N,-12VA*%
X23360000Y-47920000D03*
%TO.P,U103,6,LV*%
%TO.N,unconnected-(U103-LV-Pad6)*%
X20820000Y-47920000D03*
%TO.P,U103,7,OSC*%
%TO.N,unconnected-(U103-OSC-Pad7)*%
X18280000Y-47920000D03*
%TO.P,U103,8,V+*%
%TO.N,+12V*%
X15740000Y-47920000D03*
%TD*%
D14*
%TO.P,J105,3,Pin_3*%
%TO.N,BATT_REF*%
X6200000Y-59555000D03*
%TO.P,J105,2,Pin_2*%
%TO.N,USBC_D+*%
X6200000Y-57015000D03*
D15*
%TO.P,J105,1,Pin_1*%
%TO.N,USBC_D-*%
X6200000Y-54475000D03*
%TD*%
%TO.P,J101,1,Pin_1*%
%TO.N,VBATT*%
X3950000Y-17000000D03*
D14*
%TO.P,J101,2,Pin_2*%
%TO.N,GND*%
X3950000Y-14460000D03*
%TD*%
D16*
%TO.P,D102,1,K*%
%TO.N,Net-(D102-K)*%
X7600000Y-4225000D03*
D17*
%TO.P,D102,2,A*%
%TO.N,Net-(D102-A)*%
X10140000Y-4225000D03*
%TD*%
D18*
%TO.P,R115,1*%
%TO.N,GND*%
X43375000Y-42454999D03*
D19*
%TO.P,R115,2*%
X43375000Y-37375000D03*
%TD*%
D16*
%TO.P,D101,1,K*%
%TO.N,Net-(D101-K)*%
X1950000Y-4175000D03*
D17*
%TO.P,D101,2,A*%
%TO.N,Net-(D101-A)*%
X4490000Y-4175000D03*
%TD*%
D15*
%TO.P,J104,1,Pin_1*%
%TO.N,GND*%
X6200000Y-31535000D03*
D14*
%TO.P,J104,2,Pin_2*%
%TO.N,+3.3V*%
X6200000Y-34075000D03*
%TO.P,J104,3,Pin_3*%
%TO.N,+12V*%
X6200000Y-36615000D03*
%TO.P,J104,4,Pin_4*%
%TO.N,-12V*%
X6200000Y-39155000D03*
%TO.P,J104,5,Pin_5*%
%TO.N,GND*%
X6200000Y-41695000D03*
%TD*%
D20*
%TO.P,J106,6,Shield*%
%TO.N,GND*%
X35849999Y-2325000D03*
X29250001Y-2325000D03*
%TD*%
D12*
%TO.P,U104,1,BOOST*%
%TO.N,Net-(JP103-A)*%
X31722500Y-57350000D03*
D13*
%TO.P,U104,2,CAP+*%
%TO.N,Net-(U104-CAP+)*%
X34262500Y-57350000D03*
%TO.P,U104,3,GND*%
%TO.N,GND*%
X36802499Y-57350000D03*
%TO.P,U104,4,CAP-*%
%TO.N,Net-(U104-CAP-)*%
X39342500Y-57350000D03*
%TO.P,U104,5,VOUT*%
%TO.N,-12VA*%
X39342500Y-49730000D03*
%TO.P,U104,6,LV*%
%TO.N,unconnected-(U104-LV-Pad6)*%
X36802500Y-49730000D03*
%TO.P,U104,7,OSC*%
%TO.N,unconnected-(U104-OSC-Pad7)*%
X34262500Y-49730000D03*
%TO.P,U104,8,V+*%
%TO.N,+12V*%
X31722500Y-49730000D03*
%TD*%
D16*
%TO.P,D105,1,K*%
%TO.N,Net-(D105-K)*%
X13300000Y-4225000D03*
D17*
%TO.P,D105,2,A*%
%TO.N,Net-(D105-A)*%
X15840000Y-4225000D03*
%TD*%
D21*
%TO.P,SW101,*%
%TO.N,*%
X24514201Y-1422101D03*
X19434201Y-1422100D03*
D22*
%TO.P,SW101,1,A*%
%TO.N,V_PWR*%
X24514201Y-6502100D03*
%TO.P,SW101,2,B*%
%TO.N,VCC*%
X21974201Y-6502100D03*
%TO.P,SW101,3,C*%
%TO.N,unconnected-(SW101-C-Pad3)*%
X19434202Y-6502100D03*
%TD*%
D15*
%TO.P,J102,1,Pin_1*%
%TO.N,USBM_D+*%
X6200000Y-46915000D03*
D14*
%TO.P,J102,2,Pin_2*%
%TO.N,USBM_D-*%
X6200000Y-49455000D03*
%TD*%
D23*
%TO.N,VBATT*%
X29350000Y-14750000D03*
D24*
%TO.N,USBM_D+*%
X31725000Y-12500000D03*
%TO.N,USBM_D-*%
X32775000Y-12500000D03*
%TO.N,GND*%
X36975000Y-10625000D03*
%TO.N,Net-(D108-A)*%
X30100000Y-11050000D03*
%TO.N,GND*%
X47950000Y-70119999D03*
X47950000Y-67119999D03*
X47950000Y-64119999D03*
X47950000Y-61119999D03*
X47950000Y-58119999D03*
X47950000Y-55119999D03*
X47950000Y-52119999D03*
X47950000Y-49119999D03*
X47950000Y-46119999D03*
X47950000Y-43119999D03*
X47950000Y-40119999D03*
X47950000Y-37119999D03*
X47950000Y-34119999D03*
X47950000Y-31119999D03*
X47950000Y-28119999D03*
X47950000Y-25119999D03*
X47950000Y-22119999D03*
X47950000Y-19119999D03*
X47950000Y-16119999D03*
X47950000Y-13119999D03*
X47950000Y-10119999D03*
X47950000Y-4119999D03*
X44950000Y-73119999D03*
X44950000Y-64119999D03*
X44950000Y-61119999D03*
X44950000Y-58119999D03*
X44950000Y-55119999D03*
X44950000Y-52119999D03*
X44950000Y-49119999D03*
X44950000Y-46119999D03*
X44950000Y-43119999D03*
X44950000Y-40119999D03*
X44950000Y-37119999D03*
X44950000Y-34119999D03*
X44950000Y-31119999D03*
X44950000Y-28119999D03*
X44950000Y-1119999D03*
X41950000Y-73119999D03*
X41950000Y-70119999D03*
X41950000Y-64119999D03*
X41950000Y-49119999D03*
X41950000Y-46119999D03*
X41950000Y-40119999D03*
X41950000Y-34119999D03*
X41950000Y-1119999D03*
X38950000Y-73119999D03*
X38950000Y-70119999D03*
X38950000Y-67119999D03*
X38950000Y-64119999D03*
X38950000Y-55119999D03*
X38950000Y-52119999D03*
X38950000Y-43119999D03*
X38950000Y-40119999D03*
X35950000Y-73119999D03*
X35950000Y-70119999D03*
X35950000Y-67119999D03*
X35950000Y-64119999D03*
X35950000Y-55119999D03*
X35950000Y-52119999D03*
X35950000Y-25119999D03*
X32950000Y-73119999D03*
X32950000Y-70119999D03*
X32950000Y-67119999D03*
X32950000Y-64119999D03*
X32950000Y-55119999D03*
X32950000Y-52119999D03*
X29950000Y-73119999D03*
X29950000Y-64119999D03*
X29950000Y-61119999D03*
X29950000Y-58119999D03*
X26950000Y-73119999D03*
X26950000Y-58119999D03*
X26950000Y-46119999D03*
X26950000Y-40119999D03*
X26950000Y-1119999D03*
X23950000Y-73119999D03*
X23950000Y-43119999D03*
X20950000Y-52119999D03*
X20950000Y-1119999D03*
X17950000Y-52119999D03*
X17950000Y-1119999D03*
X14950000Y-52119999D03*
X14950000Y-1119999D03*
X11950000Y-73119999D03*
X11950000Y-64119999D03*
X11950000Y-55119999D03*
X11950000Y-46119999D03*
X11950000Y-43119999D03*
X11950000Y-37119999D03*
X11950000Y-34119999D03*
X11950000Y-7119999D03*
X11950000Y-1119999D03*
X8950000Y-73119999D03*
X8950000Y-70119999D03*
X8950000Y-31119999D03*
X8950000Y-28119999D03*
X8950000Y-22119999D03*
X8950000Y-1119999D03*
X5950000Y-73119999D03*
X5950000Y-64119999D03*
X5950000Y-52119999D03*
X5950000Y-28119999D03*
X5950000Y-13119999D03*
X5950000Y-1119999D03*
X2950000Y-73119999D03*
X2950000Y-70119999D03*
X2950000Y-64119999D03*
X2950000Y-61119999D03*
X2950000Y-58119999D03*
X2950000Y-55119999D03*
X2950000Y-52119999D03*
X2950000Y-49119999D03*
X2950000Y-46119999D03*
X2950000Y-43119999D03*
X2950000Y-40119999D03*
X2950000Y-37119999D03*
X2950000Y-34119999D03*
X2950000Y-31119999D03*
X2950000Y-28119999D03*
X2950000Y-19119999D03*
X2950000Y-10119999D03*
X2950000Y-7119999D03*
X2950000Y-1119999D03*
D25*
%TO.N,BATT_REF*%
X8820000Y-44010000D03*
D24*
%TO.N,Net-(D108-A)*%
X34996250Y-7243750D03*
%TO.N,Net-(Q104B-B2)*%
X13980000Y-41420000D03*
X18170000Y-39630000D03*
%TO.N,GND*%
X6370000Y-15040000D03*
X6410000Y-17790000D03*
%TO.N,Net-(U105-Vc)*%
X31400000Y-40880000D03*
%TO.N,GND*%
X37600000Y-46790000D03*
%TO.N,Net-(C110-Pad2)*%
X32420000Y-44170000D03*
X36260000Y-45940000D03*
%TO.N,GND*%
X33810000Y-46830000D03*
X24030000Y-45850000D03*
X17060000Y-59060000D03*
X30050000Y-68970000D03*
X37650000Y-32810000D03*
X34570000Y-38140000D03*
%TO.N,Net-(U105-Vc)*%
X32710000Y-38880000D03*
%TO.N,GND*%
X24710000Y-35600000D03*
X24900000Y-31180000D03*
X23170000Y-28520000D03*
X19550000Y-28900000D03*
X17760000Y-33270000D03*
X12940000Y-29850000D03*
X15800000Y-15230000D03*
X16170000Y-10290000D03*
X13350000Y-15540000D03*
%TO.N,Net-(D102-K)*%
X17270000Y-17210000D03*
%TO.N,Net-(D101-K)*%
X17320000Y-15680000D03*
%TO.N,GND*%
X23560000Y-14670000D03*
X20720000Y-15060000D03*
%TO.N,Net-(D105-A)*%
X22740000Y-17800000D03*
%TO.N,GND*%
X21610000Y-18540000D03*
%TO.N,Net-(D105-K)*%
X17060000Y-19930000D03*
%TO.N,GND*%
X16830000Y-22670000D03*
X16840000Y-21290000D03*
X21490000Y-22500000D03*
X21540000Y-21440000D03*
X23480000Y-25740000D03*
D23*
%TO.N,VBATT*%
X10628750Y-24188750D03*
D25*
%TO.N,BATT_REF*%
X12260000Y-27460000D03*
D24*
%TO.N,GND*%
X14080000Y-27300000D03*
X18020000Y-26780000D03*
X32110000Y-18360000D03*
X39870000Y-13880000D03*
%TO.N,USBC_D+*%
X43831373Y-13948630D03*
%TO.N,USBC_D-*%
X42831429Y-13959468D03*
%TO.N,GND*%
X45370000Y-12090000D03*
%TO.N,USBC_D+*%
X41950000Y-8710000D03*
%TO.N,USBC_D-*%
X43110000Y-5130000D03*
%TD*%
D26*
%TO.N,USBM_D+*%
X7475001Y-46915000D02*
X6200000Y-46915000D01*
X22485000Y-37686800D02*
X12211800Y-47960000D01*
%TO.N,USBM_D-*%
X22935000Y-37873200D02*
X12398200Y-48410000D01*
%TO.N,USBM_D+*%
X8520001Y-47960000D02*
X7475001Y-46915000D01*
X29775000Y-24356800D02*
X22485000Y-31646800D01*
X31725000Y-12500000D02*
X32024999Y-12799999D01*
%TO.N,USBM_D-*%
X12398200Y-48410000D02*
X8520001Y-48410000D01*
%TO.N,USBM_D+*%
X32024999Y-15056801D02*
X29775000Y-17306800D01*
X12211800Y-47960000D02*
X8520001Y-47960000D01*
%TO.N,USBM_D-*%
X32475001Y-12799999D02*
X32475001Y-15243199D01*
%TO.N,USBM_D+*%
X32024999Y-12799999D02*
X32024999Y-15056801D01*
X29775000Y-17306800D02*
X29775000Y-24356800D01*
%TO.N,USBM_D-*%
X32475001Y-15243199D02*
X30225000Y-17493200D01*
%TO.N,USBM_D+*%
X22485000Y-31646800D02*
X22485000Y-37686800D01*
%TO.N,USBM_D-*%
X7475001Y-49455000D02*
X6200000Y-49455000D01*
X32775000Y-12500000D02*
X32475001Y-12799999D01*
X30225000Y-17493200D02*
X30225000Y-24543200D01*
X30225000Y-24543200D02*
X22935000Y-31833200D01*
X22935000Y-31833200D02*
X22935000Y-37873200D01*
X8520001Y-48410000D02*
X7475001Y-49455000D01*
D27*
%TO.N,VBATT*%
X28450000Y-14770000D02*
X29330000Y-14770000D01*
X29330000Y-14770000D02*
X29350000Y-14750000D01*
%TO.N,Net-(D108-A)*%
X30100000Y-11050000D02*
X32325000Y-11050000D01*
X32325000Y-11050000D02*
X34996250Y-8378750D01*
X34996250Y-8378750D02*
X34996250Y-7243750D01*
D26*
%TO.N,BATT_REF*%
X8820000Y-44010000D02*
X8820000Y-42620000D01*
X8820000Y-42620000D02*
X10850000Y-40590000D01*
X10850000Y-40590000D02*
X10850000Y-28870000D01*
X10850000Y-28870000D02*
X12260000Y-27460000D01*
%TO.N,Net-(Q104B-B2)*%
X15770000Y-39630000D02*
X16840000Y-39630000D01*
X13980000Y-41420000D02*
X15770000Y-39630000D01*
D27*
%TO.N,VBATT*%
X22961250Y-24188750D02*
X10628750Y-24188750D01*
D26*
%TO.N,USBC_D-*%
X6200000Y-54475000D02*
X7244999Y-55519999D01*
X8068199Y-55519999D02*
X12513200Y-59965000D01*
X7244999Y-55519999D02*
X8068199Y-55519999D01*
X29145000Y-28876800D02*
X43054999Y-14966801D01*
X43054999Y-14149999D02*
X41200000Y-12295000D01*
X12513200Y-59965000D02*
X21596800Y-59965000D01*
X21596800Y-59965000D02*
X29145000Y-52416800D01*
X29145000Y-52416800D02*
X29145000Y-28876800D01*
X43054999Y-14966801D02*
X43054999Y-14149999D01*
X41200000Y-12295000D02*
X41200000Y-7040000D01*
X41200000Y-7040000D02*
X43110000Y-5130000D01*
%TO.N,USBC_D+*%
X12326800Y-60415000D02*
X7881801Y-55970001D01*
X7244999Y-55970001D02*
X6200000Y-57015000D01*
X7881801Y-55970001D02*
X7244999Y-55970001D01*
X41950000Y-8710000D02*
X43705000Y-10465000D01*
X43705000Y-10465000D02*
X43705000Y-13950000D01*
X21783200Y-60415000D02*
X12326800Y-60415000D01*
X29595000Y-52603200D02*
X21783200Y-60415000D01*
X29595000Y-29063200D02*
X29595000Y-52603200D01*
X43505001Y-15153199D02*
X29595000Y-29063200D01*
X43705000Y-13950000D02*
X43505001Y-14149999D01*
X43505001Y-14149999D02*
X43505001Y-15153199D01*
D27*
%TO.N,VBATT*%
X28450000Y-14770000D02*
X27170000Y-16050000D01*
X27170000Y-16050000D02*
X27170000Y-19980000D01*
X27170000Y-19980000D02*
X22961250Y-24188750D01*
D26*
%TO.N,Net-(U105-Vc)*%
X31400000Y-40880000D02*
X32710000Y-39570000D01*
X32710000Y-39570000D02*
X32710000Y-38880000D01*
%TO.N,Net-(C110-Pad2)*%
X32420000Y-44170000D02*
X32500000Y-44250000D01*
X32500000Y-44250000D02*
X34570000Y-44250000D01*
X34570000Y-44250000D02*
X36260000Y-45940000D01*
%TO.N,Net-(D101-K)*%
X17320000Y-15680000D02*
X17320000Y-15090000D01*
X17320000Y-15090000D02*
X12510000Y-10280000D01*
X8055000Y-10280000D02*
X1950000Y-4175000D01*
X12510000Y-10280000D02*
X8055000Y-10280000D01*
%TO.N,Net-(D102-K)*%
X17270000Y-17210000D02*
X18370000Y-16110000D01*
X13490000Y-9340000D02*
X10460000Y-9340000D01*
X7600000Y-6480000D02*
X7600000Y-4225000D01*
X10460000Y-9340000D02*
X7600000Y-6480000D01*
X18370000Y-14220000D02*
X13490000Y-9340000D01*
X18370000Y-16110000D02*
X18370000Y-14220000D01*
%TO.N,Net-(D105-K)*%
X18300000Y-19930000D02*
X19750000Y-18480000D01*
X19750000Y-18480000D02*
X19750000Y-12450000D01*
X17060000Y-19930000D02*
X18300000Y-19930000D01*
X19750000Y-12450000D02*
X13300000Y-6000000D01*
X13300000Y-6000000D02*
X13300000Y-4225000D01*
%TO.N,Net-(D105-A)*%
X21280000Y-11970000D02*
X15840000Y-6530000D01*
X22740000Y-15880000D02*
X21280000Y-14420000D01*
X15840000Y-6530000D02*
X15840000Y-4225000D01*
X22740000Y-17800000D02*
X22740000Y-15880000D01*
X21280000Y-14420000D02*
X21280000Y-11970000D01*
%TO.N,Net-(Q104B-B2)*%
X16840000Y-39630000D02*
X18170000Y-39630000D01*
%TD*%
M02*
