%TF.GenerationSoftware,KiCad,Pcbnew,8.0.3*%
%TF.CreationDate,2024-07-14T14:59:13-06:00*%
%TF.ProjectId,PowerSupplyBoard,506f7765-7253-4757-9070-6c79426f6172,rev?*%
%TF.SameCoordinates,Original*%
%TF.FileFunction,Legend,Top*%
%TF.FilePolarity,Positive*%
%FSLAX46Y46*%
G04 Gerber Fmt 4.6, Leading zero omitted, Abs format (unit mm)*
G04 Created by KiCad (PCBNEW 8.0.3) date 2024-07-14 14:59:13*
%MOMM*%
%LPD*%
G01*
G04 APERTURE LIST*
%ADD10C,0.100000*%
%ADD11C,0.240000*%
%ADD12C,0.150000*%
%ADD13C,0.120000*%
%ADD14C,0.300000*%
G04 APERTURE END LIST*
D10*
X1487217Y-59578609D02*
X1630074Y-59626228D01*
X1630074Y-59626228D02*
X1677693Y-59673847D01*
X1677693Y-59673847D02*
X1725312Y-59769085D01*
X1725312Y-59769085D02*
X1725312Y-59911942D01*
X1725312Y-59911942D02*
X1677693Y-60007180D01*
X1677693Y-60007180D02*
X1630074Y-60054800D01*
X1630074Y-60054800D02*
X1534836Y-60102419D01*
X1534836Y-60102419D02*
X1153884Y-60102419D01*
X1153884Y-60102419D02*
X1153884Y-59102419D01*
X1153884Y-59102419D02*
X1487217Y-59102419D01*
X1487217Y-59102419D02*
X1582455Y-59150038D01*
X1582455Y-59150038D02*
X1630074Y-59197657D01*
X1630074Y-59197657D02*
X1677693Y-59292895D01*
X1677693Y-59292895D02*
X1677693Y-59388133D01*
X1677693Y-59388133D02*
X1630074Y-59483371D01*
X1630074Y-59483371D02*
X1582455Y-59530990D01*
X1582455Y-59530990D02*
X1487217Y-59578609D01*
X1487217Y-59578609D02*
X1153884Y-59578609D01*
X2582455Y-60102419D02*
X2582455Y-59578609D01*
X2582455Y-59578609D02*
X2534836Y-59483371D01*
X2534836Y-59483371D02*
X2439598Y-59435752D01*
X2439598Y-59435752D02*
X2249122Y-59435752D01*
X2249122Y-59435752D02*
X2153884Y-59483371D01*
X2582455Y-60054800D02*
X2487217Y-60102419D01*
X2487217Y-60102419D02*
X2249122Y-60102419D01*
X2249122Y-60102419D02*
X2153884Y-60054800D01*
X2153884Y-60054800D02*
X2106265Y-59959561D01*
X2106265Y-59959561D02*
X2106265Y-59864323D01*
X2106265Y-59864323D02*
X2153884Y-59769085D01*
X2153884Y-59769085D02*
X2249122Y-59721466D01*
X2249122Y-59721466D02*
X2487217Y-59721466D01*
X2487217Y-59721466D02*
X2582455Y-59673847D01*
X2915789Y-59435752D02*
X3296741Y-59435752D01*
X3058646Y-59102419D02*
X3058646Y-59959561D01*
X3058646Y-59959561D02*
X3106265Y-60054800D01*
X3106265Y-60054800D02*
X3201503Y-60102419D01*
X3201503Y-60102419D02*
X3296741Y-60102419D01*
X3487218Y-59435752D02*
X3868170Y-59435752D01*
X3630075Y-59102419D02*
X3630075Y-59959561D01*
X3630075Y-59959561D02*
X3677694Y-60054800D01*
X3677694Y-60054800D02*
X3772932Y-60102419D01*
X3772932Y-60102419D02*
X3868170Y-60102419D01*
X1643884Y-7772419D02*
X1643884Y-6772419D01*
X1643884Y-6772419D02*
X2024836Y-6772419D01*
X2024836Y-6772419D02*
X2120074Y-6820038D01*
X2120074Y-6820038D02*
X2167693Y-6867657D01*
X2167693Y-6867657D02*
X2215312Y-6962895D01*
X2215312Y-6962895D02*
X2215312Y-7105752D01*
X2215312Y-7105752D02*
X2167693Y-7200990D01*
X2167693Y-7200990D02*
X2120074Y-7248609D01*
X2120074Y-7248609D02*
X2024836Y-7296228D01*
X2024836Y-7296228D02*
X1643884Y-7296228D01*
X2548646Y-6772419D02*
X2786741Y-7772419D01*
X2786741Y-7772419D02*
X2977217Y-7058133D01*
X2977217Y-7058133D02*
X3167693Y-7772419D01*
X3167693Y-7772419D02*
X3405789Y-6772419D01*
X4358169Y-7772419D02*
X4024836Y-7296228D01*
X3786741Y-7772419D02*
X3786741Y-6772419D01*
X3786741Y-6772419D02*
X4167693Y-6772419D01*
X4167693Y-6772419D02*
X4262931Y-6820038D01*
X4262931Y-6820038D02*
X4310550Y-6867657D01*
X4310550Y-6867657D02*
X4358169Y-6962895D01*
X4358169Y-6962895D02*
X4358169Y-7105752D01*
X4358169Y-7105752D02*
X4310550Y-7200990D01*
X4310550Y-7200990D02*
X4262931Y-7248609D01*
X4262931Y-7248609D02*
X4167693Y-7296228D01*
X4167693Y-7296228D02*
X3786741Y-7296228D01*
X7575312Y-7677180D02*
X7527693Y-7724800D01*
X7527693Y-7724800D02*
X7384836Y-7772419D01*
X7384836Y-7772419D02*
X7289598Y-7772419D01*
X7289598Y-7772419D02*
X7146741Y-7724800D01*
X7146741Y-7724800D02*
X7051503Y-7629561D01*
X7051503Y-7629561D02*
X7003884Y-7534323D01*
X7003884Y-7534323D02*
X6956265Y-7343847D01*
X6956265Y-7343847D02*
X6956265Y-7200990D01*
X6956265Y-7200990D02*
X7003884Y-7010514D01*
X7003884Y-7010514D02*
X7051503Y-6915276D01*
X7051503Y-6915276D02*
X7146741Y-6820038D01*
X7146741Y-6820038D02*
X7289598Y-6772419D01*
X7289598Y-6772419D02*
X7384836Y-6772419D01*
X7384836Y-6772419D02*
X7527693Y-6820038D01*
X7527693Y-6820038D02*
X7575312Y-6867657D01*
X8003884Y-7772419D02*
X8003884Y-6772419D01*
X8003884Y-7248609D02*
X8575312Y-7248609D01*
X8575312Y-7772419D02*
X8575312Y-6772419D01*
X9575312Y-6820038D02*
X9480074Y-6772419D01*
X9480074Y-6772419D02*
X9337217Y-6772419D01*
X9337217Y-6772419D02*
X9194360Y-6820038D01*
X9194360Y-6820038D02*
X9099122Y-6915276D01*
X9099122Y-6915276D02*
X9051503Y-7010514D01*
X9051503Y-7010514D02*
X9003884Y-7200990D01*
X9003884Y-7200990D02*
X9003884Y-7343847D01*
X9003884Y-7343847D02*
X9051503Y-7534323D01*
X9051503Y-7534323D02*
X9099122Y-7629561D01*
X9099122Y-7629561D02*
X9194360Y-7724800D01*
X9194360Y-7724800D02*
X9337217Y-7772419D01*
X9337217Y-7772419D02*
X9432455Y-7772419D01*
X9432455Y-7772419D02*
X9575312Y-7724800D01*
X9575312Y-7724800D02*
X9622931Y-7677180D01*
X9622931Y-7677180D02*
X9622931Y-7343847D01*
X9622931Y-7343847D02*
X9432455Y-7343847D01*
X12876265Y-7834800D02*
X13019122Y-7882419D01*
X13019122Y-7882419D02*
X13257217Y-7882419D01*
X13257217Y-7882419D02*
X13352455Y-7834800D01*
X13352455Y-7834800D02*
X13400074Y-7787180D01*
X13400074Y-7787180D02*
X13447693Y-7691942D01*
X13447693Y-7691942D02*
X13447693Y-7596704D01*
X13447693Y-7596704D02*
X13400074Y-7501466D01*
X13400074Y-7501466D02*
X13352455Y-7453847D01*
X13352455Y-7453847D02*
X13257217Y-7406228D01*
X13257217Y-7406228D02*
X13066741Y-7358609D01*
X13066741Y-7358609D02*
X12971503Y-7310990D01*
X12971503Y-7310990D02*
X12923884Y-7263371D01*
X12923884Y-7263371D02*
X12876265Y-7168133D01*
X12876265Y-7168133D02*
X12876265Y-7072895D01*
X12876265Y-7072895D02*
X12923884Y-6977657D01*
X12923884Y-6977657D02*
X12971503Y-6930038D01*
X12971503Y-6930038D02*
X13066741Y-6882419D01*
X13066741Y-6882419D02*
X13304836Y-6882419D01*
X13304836Y-6882419D02*
X13447693Y-6930038D01*
X13876265Y-7882419D02*
X13876265Y-6882419D01*
X13876265Y-6882419D02*
X14209598Y-7596704D01*
X14209598Y-7596704D02*
X14542931Y-6882419D01*
X14542931Y-6882419D02*
X14542931Y-7882419D01*
X15019122Y-7882419D02*
X15019122Y-6882419D01*
X15019122Y-6882419D02*
X15400074Y-6882419D01*
X15400074Y-6882419D02*
X15495312Y-6930038D01*
X15495312Y-6930038D02*
X15542931Y-6977657D01*
X15542931Y-6977657D02*
X15590550Y-7072895D01*
X15590550Y-7072895D02*
X15590550Y-7215752D01*
X15590550Y-7215752D02*
X15542931Y-7310990D01*
X15542931Y-7310990D02*
X15495312Y-7358609D01*
X15495312Y-7358609D02*
X15400074Y-7406228D01*
X15400074Y-7406228D02*
X15019122Y-7406228D01*
X15971503Y-7834800D02*
X16114360Y-7882419D01*
X16114360Y-7882419D02*
X16352455Y-7882419D01*
X16352455Y-7882419D02*
X16447693Y-7834800D01*
X16447693Y-7834800D02*
X16495312Y-7787180D01*
X16495312Y-7787180D02*
X16542931Y-7691942D01*
X16542931Y-7691942D02*
X16542931Y-7596704D01*
X16542931Y-7596704D02*
X16495312Y-7501466D01*
X16495312Y-7501466D02*
X16447693Y-7453847D01*
X16447693Y-7453847D02*
X16352455Y-7406228D01*
X16352455Y-7406228D02*
X16161979Y-7358609D01*
X16161979Y-7358609D02*
X16066741Y-7310990D01*
X16066741Y-7310990D02*
X16019122Y-7263371D01*
X16019122Y-7263371D02*
X15971503Y-7168133D01*
X15971503Y-7168133D02*
X15971503Y-7072895D01*
X15971503Y-7072895D02*
X16019122Y-6977657D01*
X16019122Y-6977657D02*
X16066741Y-6930038D01*
X16066741Y-6930038D02*
X16161979Y-6882419D01*
X16161979Y-6882419D02*
X16400074Y-6882419D01*
X16400074Y-6882419D02*
X16542931Y-6930038D01*
D11*
X8319337Y-35383608D02*
X9519337Y-35383608D01*
X9519337Y-35383608D02*
X9519337Y-35840751D01*
X9519337Y-35840751D02*
X9462194Y-35955036D01*
X9462194Y-35955036D02*
X9405051Y-36012179D01*
X9405051Y-36012179D02*
X9290765Y-36069322D01*
X9290765Y-36069322D02*
X9119337Y-36069322D01*
X9119337Y-36069322D02*
X9005051Y-36012179D01*
X9005051Y-36012179D02*
X8947908Y-35955036D01*
X8947908Y-35955036D02*
X8890765Y-35840751D01*
X8890765Y-35840751D02*
X8890765Y-35383608D01*
X9519337Y-36812179D02*
X9519337Y-37040751D01*
X9519337Y-37040751D02*
X9462194Y-37155036D01*
X9462194Y-37155036D02*
X9347908Y-37269322D01*
X9347908Y-37269322D02*
X9119337Y-37326465D01*
X9119337Y-37326465D02*
X8719337Y-37326465D01*
X8719337Y-37326465D02*
X8490765Y-37269322D01*
X8490765Y-37269322D02*
X8376480Y-37155036D01*
X8376480Y-37155036D02*
X8319337Y-37040751D01*
X8319337Y-37040751D02*
X8319337Y-36812179D01*
X8319337Y-36812179D02*
X8376480Y-36697894D01*
X8376480Y-36697894D02*
X8490765Y-36583608D01*
X8490765Y-36583608D02*
X8719337Y-36526465D01*
X8719337Y-36526465D02*
X9119337Y-36526465D01*
X9119337Y-36526465D02*
X9347908Y-36583608D01*
X9347908Y-36583608D02*
X9462194Y-36697894D01*
X9462194Y-36697894D02*
X9519337Y-36812179D01*
X9519337Y-37726465D02*
X8319337Y-38012179D01*
X8319337Y-38012179D02*
X9176480Y-38240751D01*
X9176480Y-38240751D02*
X8319337Y-38469322D01*
X8319337Y-38469322D02*
X9519337Y-38755037D01*
X8947908Y-39212180D02*
X8947908Y-39612180D01*
X8319337Y-39783608D02*
X8319337Y-39212180D01*
X8319337Y-39212180D02*
X9519337Y-39212180D01*
X9519337Y-39212180D02*
X9519337Y-39783608D01*
X8319337Y-40983608D02*
X8890765Y-40583608D01*
X8319337Y-40297894D02*
X9519337Y-40297894D01*
X9519337Y-40297894D02*
X9519337Y-40755037D01*
X9519337Y-40755037D02*
X9462194Y-40869322D01*
X9462194Y-40869322D02*
X9405051Y-40926465D01*
X9405051Y-40926465D02*
X9290765Y-40983608D01*
X9290765Y-40983608D02*
X9119337Y-40983608D01*
X9119337Y-40983608D02*
X9005051Y-40926465D01*
X9005051Y-40926465D02*
X8947908Y-40869322D01*
X8947908Y-40869322D02*
X8890765Y-40755037D01*
X8890765Y-40755037D02*
X8890765Y-40297894D01*
D10*
X832931Y-16979800D02*
X1975789Y-16979800D01*
X1404360Y-17551228D02*
X1404360Y-16408371D01*
D11*
X8639337Y-45703608D02*
X9839337Y-45703608D01*
X9839337Y-45703608D02*
X8982194Y-46103608D01*
X8982194Y-46103608D02*
X9839337Y-46503608D01*
X9839337Y-46503608D02*
X8639337Y-46503608D01*
X8639337Y-47075037D02*
X9839337Y-47075037D01*
X8753622Y-48332180D02*
X8696480Y-48275037D01*
X8696480Y-48275037D02*
X8639337Y-48103609D01*
X8639337Y-48103609D02*
X8639337Y-47989323D01*
X8639337Y-47989323D02*
X8696480Y-47817894D01*
X8696480Y-47817894D02*
X8810765Y-47703609D01*
X8810765Y-47703609D02*
X8925051Y-47646466D01*
X8925051Y-47646466D02*
X9153622Y-47589323D01*
X9153622Y-47589323D02*
X9325051Y-47589323D01*
X9325051Y-47589323D02*
X9553622Y-47646466D01*
X9553622Y-47646466D02*
X9667908Y-47703609D01*
X9667908Y-47703609D02*
X9782194Y-47817894D01*
X9782194Y-47817894D02*
X9839337Y-47989323D01*
X9839337Y-47989323D02*
X9839337Y-48103609D01*
X9839337Y-48103609D02*
X9782194Y-48275037D01*
X9782194Y-48275037D02*
X9725051Y-48332180D01*
X8639337Y-49532180D02*
X9210765Y-49132180D01*
X8639337Y-48846466D02*
X9839337Y-48846466D01*
X9839337Y-48846466D02*
X9839337Y-49303609D01*
X9839337Y-49303609D02*
X9782194Y-49417894D01*
X9782194Y-49417894D02*
X9725051Y-49475037D01*
X9725051Y-49475037D02*
X9610765Y-49532180D01*
X9610765Y-49532180D02*
X9439337Y-49532180D01*
X9439337Y-49532180D02*
X9325051Y-49475037D01*
X9325051Y-49475037D02*
X9267908Y-49417894D01*
X9267908Y-49417894D02*
X9210765Y-49303609D01*
X9210765Y-49303609D02*
X9210765Y-48846466D01*
X9839337Y-50275037D02*
X9839337Y-50503609D01*
X9839337Y-50503609D02*
X9782194Y-50617894D01*
X9782194Y-50617894D02*
X9667908Y-50732180D01*
X9667908Y-50732180D02*
X9439337Y-50789323D01*
X9439337Y-50789323D02*
X9039337Y-50789323D01*
X9039337Y-50789323D02*
X8810765Y-50732180D01*
X8810765Y-50732180D02*
X8696480Y-50617894D01*
X8696480Y-50617894D02*
X8639337Y-50503609D01*
X8639337Y-50503609D02*
X8639337Y-50275037D01*
X8639337Y-50275037D02*
X8696480Y-50160752D01*
X8696480Y-50160752D02*
X8810765Y-50046466D01*
X8810765Y-50046466D02*
X9039337Y-49989323D01*
X9039337Y-49989323D02*
X9439337Y-49989323D01*
X9439337Y-49989323D02*
X9667908Y-50046466D01*
X9667908Y-50046466D02*
X9782194Y-50160752D01*
X9782194Y-50160752D02*
X9839337Y-50275037D01*
X9709337Y-54213608D02*
X8737908Y-54213608D01*
X8737908Y-54213608D02*
X8623622Y-54270751D01*
X8623622Y-54270751D02*
X8566480Y-54327894D01*
X8566480Y-54327894D02*
X8509337Y-54442179D01*
X8509337Y-54442179D02*
X8509337Y-54670751D01*
X8509337Y-54670751D02*
X8566480Y-54785036D01*
X8566480Y-54785036D02*
X8623622Y-54842179D01*
X8623622Y-54842179D02*
X8737908Y-54899322D01*
X8737908Y-54899322D02*
X9709337Y-54899322D01*
X8566480Y-55413608D02*
X8509337Y-55585037D01*
X8509337Y-55585037D02*
X8509337Y-55870751D01*
X8509337Y-55870751D02*
X8566480Y-55985037D01*
X8566480Y-55985037D02*
X8623622Y-56042179D01*
X8623622Y-56042179D02*
X8737908Y-56099322D01*
X8737908Y-56099322D02*
X8852194Y-56099322D01*
X8852194Y-56099322D02*
X8966480Y-56042179D01*
X8966480Y-56042179D02*
X9023622Y-55985037D01*
X9023622Y-55985037D02*
X9080765Y-55870751D01*
X9080765Y-55870751D02*
X9137908Y-55642179D01*
X9137908Y-55642179D02*
X9195051Y-55527894D01*
X9195051Y-55527894D02*
X9252194Y-55470751D01*
X9252194Y-55470751D02*
X9366480Y-55413608D01*
X9366480Y-55413608D02*
X9480765Y-55413608D01*
X9480765Y-55413608D02*
X9595051Y-55470751D01*
X9595051Y-55470751D02*
X9652194Y-55527894D01*
X9652194Y-55527894D02*
X9709337Y-55642179D01*
X9709337Y-55642179D02*
X9709337Y-55927894D01*
X9709337Y-55927894D02*
X9652194Y-56099322D01*
X9137908Y-57013608D02*
X9080765Y-57185036D01*
X9080765Y-57185036D02*
X9023622Y-57242179D01*
X9023622Y-57242179D02*
X8909337Y-57299322D01*
X8909337Y-57299322D02*
X8737908Y-57299322D01*
X8737908Y-57299322D02*
X8623622Y-57242179D01*
X8623622Y-57242179D02*
X8566480Y-57185036D01*
X8566480Y-57185036D02*
X8509337Y-57070751D01*
X8509337Y-57070751D02*
X8509337Y-56613608D01*
X8509337Y-56613608D02*
X9709337Y-56613608D01*
X9709337Y-56613608D02*
X9709337Y-57013608D01*
X9709337Y-57013608D02*
X9652194Y-57127894D01*
X9652194Y-57127894D02*
X9595051Y-57185036D01*
X9595051Y-57185036D02*
X9480765Y-57242179D01*
X9480765Y-57242179D02*
X9366480Y-57242179D01*
X9366480Y-57242179D02*
X9252194Y-57185036D01*
X9252194Y-57185036D02*
X9195051Y-57127894D01*
X9195051Y-57127894D02*
X9137908Y-57013608D01*
X9137908Y-57013608D02*
X9137908Y-56613608D01*
X8623622Y-59413608D02*
X8566480Y-59356465D01*
X8566480Y-59356465D02*
X8509337Y-59185037D01*
X8509337Y-59185037D02*
X8509337Y-59070751D01*
X8509337Y-59070751D02*
X8566480Y-58899322D01*
X8566480Y-58899322D02*
X8680765Y-58785037D01*
X8680765Y-58785037D02*
X8795051Y-58727894D01*
X8795051Y-58727894D02*
X9023622Y-58670751D01*
X9023622Y-58670751D02*
X9195051Y-58670751D01*
X9195051Y-58670751D02*
X9423622Y-58727894D01*
X9423622Y-58727894D02*
X9537908Y-58785037D01*
X9537908Y-58785037D02*
X9652194Y-58899322D01*
X9652194Y-58899322D02*
X9709337Y-59070751D01*
X9709337Y-59070751D02*
X9709337Y-59185037D01*
X9709337Y-59185037D02*
X9652194Y-59356465D01*
X9652194Y-59356465D02*
X9595051Y-59413608D01*
D10*
X2083884Y-54832419D02*
X2083884Y-53832419D01*
X2083884Y-53832419D02*
X2321979Y-53832419D01*
X2321979Y-53832419D02*
X2464836Y-53880038D01*
X2464836Y-53880038D02*
X2560074Y-53975276D01*
X2560074Y-53975276D02*
X2607693Y-54070514D01*
X2607693Y-54070514D02*
X2655312Y-54260990D01*
X2655312Y-54260990D02*
X2655312Y-54403847D01*
X2655312Y-54403847D02*
X2607693Y-54594323D01*
X2607693Y-54594323D02*
X2560074Y-54689561D01*
X2560074Y-54689561D02*
X2464836Y-54784800D01*
X2464836Y-54784800D02*
X2321979Y-54832419D01*
X2321979Y-54832419D02*
X2083884Y-54832419D01*
X3083884Y-54451466D02*
X3845789Y-54451466D01*
X2173884Y-57492419D02*
X2173884Y-56492419D01*
X2173884Y-56492419D02*
X2411979Y-56492419D01*
X2411979Y-56492419D02*
X2554836Y-56540038D01*
X2554836Y-56540038D02*
X2650074Y-56635276D01*
X2650074Y-56635276D02*
X2697693Y-56730514D01*
X2697693Y-56730514D02*
X2745312Y-56920990D01*
X2745312Y-56920990D02*
X2745312Y-57063847D01*
X2745312Y-57063847D02*
X2697693Y-57254323D01*
X2697693Y-57254323D02*
X2650074Y-57349561D01*
X2650074Y-57349561D02*
X2554836Y-57444800D01*
X2554836Y-57444800D02*
X2411979Y-57492419D01*
X2411979Y-57492419D02*
X2173884Y-57492419D01*
X3173884Y-57111466D02*
X3935789Y-57111466D01*
X3554836Y-57492419D02*
X3554836Y-56730514D01*
X1763884Y-49982419D02*
X1763884Y-48982419D01*
X1763884Y-48982419D02*
X2001979Y-48982419D01*
X2001979Y-48982419D02*
X2144836Y-49030038D01*
X2144836Y-49030038D02*
X2240074Y-49125276D01*
X2240074Y-49125276D02*
X2287693Y-49220514D01*
X2287693Y-49220514D02*
X2335312Y-49410990D01*
X2335312Y-49410990D02*
X2335312Y-49553847D01*
X2335312Y-49553847D02*
X2287693Y-49744323D01*
X2287693Y-49744323D02*
X2240074Y-49839561D01*
X2240074Y-49839561D02*
X2144836Y-49934800D01*
X2144836Y-49934800D02*
X2001979Y-49982419D01*
X2001979Y-49982419D02*
X1763884Y-49982419D01*
X2763884Y-49601466D02*
X3525789Y-49601466D01*
X1763884Y-47422419D02*
X1763884Y-46422419D01*
X1763884Y-46422419D02*
X2001979Y-46422419D01*
X2001979Y-46422419D02*
X2144836Y-46470038D01*
X2144836Y-46470038D02*
X2240074Y-46565276D01*
X2240074Y-46565276D02*
X2287693Y-46660514D01*
X2287693Y-46660514D02*
X2335312Y-46850990D01*
X2335312Y-46850990D02*
X2335312Y-46993847D01*
X2335312Y-46993847D02*
X2287693Y-47184323D01*
X2287693Y-47184323D02*
X2240074Y-47279561D01*
X2240074Y-47279561D02*
X2144836Y-47374800D01*
X2144836Y-47374800D02*
X2001979Y-47422419D01*
X2001979Y-47422419D02*
X1763884Y-47422419D01*
X2763884Y-47041466D02*
X3525789Y-47041466D01*
X3144836Y-47422419D02*
X3144836Y-46660514D01*
X1987693Y-41280038D02*
X1892455Y-41232419D01*
X1892455Y-41232419D02*
X1749598Y-41232419D01*
X1749598Y-41232419D02*
X1606741Y-41280038D01*
X1606741Y-41280038D02*
X1511503Y-41375276D01*
X1511503Y-41375276D02*
X1463884Y-41470514D01*
X1463884Y-41470514D02*
X1416265Y-41660990D01*
X1416265Y-41660990D02*
X1416265Y-41803847D01*
X1416265Y-41803847D02*
X1463884Y-41994323D01*
X1463884Y-41994323D02*
X1511503Y-42089561D01*
X1511503Y-42089561D02*
X1606741Y-42184800D01*
X1606741Y-42184800D02*
X1749598Y-42232419D01*
X1749598Y-42232419D02*
X1844836Y-42232419D01*
X1844836Y-42232419D02*
X1987693Y-42184800D01*
X1987693Y-42184800D02*
X2035312Y-42137180D01*
X2035312Y-42137180D02*
X2035312Y-41803847D01*
X2035312Y-41803847D02*
X1844836Y-41803847D01*
X2463884Y-42232419D02*
X2463884Y-41232419D01*
X2463884Y-41232419D02*
X3035312Y-42232419D01*
X3035312Y-42232419D02*
X3035312Y-41232419D01*
X3511503Y-42232419D02*
X3511503Y-41232419D01*
X3511503Y-41232419D02*
X3749598Y-41232419D01*
X3749598Y-41232419D02*
X3892455Y-41280038D01*
X3892455Y-41280038D02*
X3987693Y-41375276D01*
X3987693Y-41375276D02*
X4035312Y-41470514D01*
X4035312Y-41470514D02*
X4082931Y-41660990D01*
X4082931Y-41660990D02*
X4082931Y-41803847D01*
X4082931Y-41803847D02*
X4035312Y-41994323D01*
X4035312Y-41994323D02*
X3987693Y-42089561D01*
X3987693Y-42089561D02*
X3892455Y-42184800D01*
X3892455Y-42184800D02*
X3749598Y-42232419D01*
X3749598Y-42232419D02*
X3511503Y-42232419D01*
X1368646Y-39336466D02*
X2130551Y-39336466D01*
X3130550Y-39717419D02*
X2559122Y-39717419D01*
X2844836Y-39717419D02*
X2844836Y-38717419D01*
X2844836Y-38717419D02*
X2749598Y-38860276D01*
X2749598Y-38860276D02*
X2654360Y-38955514D01*
X2654360Y-38955514D02*
X2559122Y-39003133D01*
X3511503Y-38812657D02*
X3559122Y-38765038D01*
X3559122Y-38765038D02*
X3654360Y-38717419D01*
X3654360Y-38717419D02*
X3892455Y-38717419D01*
X3892455Y-38717419D02*
X3987693Y-38765038D01*
X3987693Y-38765038D02*
X4035312Y-38812657D01*
X4035312Y-38812657D02*
X4082931Y-38907895D01*
X4082931Y-38907895D02*
X4082931Y-39003133D01*
X4082931Y-39003133D02*
X4035312Y-39145990D01*
X4035312Y-39145990D02*
X3463884Y-39717419D01*
X3463884Y-39717419D02*
X4082931Y-39717419D01*
X1368646Y-36821466D02*
X2130551Y-36821466D01*
X1749598Y-37202419D02*
X1749598Y-36440514D01*
X3130550Y-37202419D02*
X2559122Y-37202419D01*
X2844836Y-37202419D02*
X2844836Y-36202419D01*
X2844836Y-36202419D02*
X2749598Y-36345276D01*
X2749598Y-36345276D02*
X2654360Y-36440514D01*
X2654360Y-36440514D02*
X2559122Y-36488133D01*
X3511503Y-36297657D02*
X3559122Y-36250038D01*
X3559122Y-36250038D02*
X3654360Y-36202419D01*
X3654360Y-36202419D02*
X3892455Y-36202419D01*
X3892455Y-36202419D02*
X3987693Y-36250038D01*
X3987693Y-36250038D02*
X4035312Y-36297657D01*
X4035312Y-36297657D02*
X4082931Y-36392895D01*
X4082931Y-36392895D02*
X4082931Y-36488133D01*
X4082931Y-36488133D02*
X4035312Y-36630990D01*
X4035312Y-36630990D02*
X3463884Y-37202419D01*
X3463884Y-37202419D02*
X4082931Y-37202419D01*
X892456Y-34306466D02*
X1654361Y-34306466D01*
X1273408Y-34687419D02*
X1273408Y-33925514D01*
X2035313Y-33687419D02*
X2654360Y-33687419D01*
X2654360Y-33687419D02*
X2321027Y-34068371D01*
X2321027Y-34068371D02*
X2463884Y-34068371D01*
X2463884Y-34068371D02*
X2559122Y-34115990D01*
X2559122Y-34115990D02*
X2606741Y-34163609D01*
X2606741Y-34163609D02*
X2654360Y-34258847D01*
X2654360Y-34258847D02*
X2654360Y-34496942D01*
X2654360Y-34496942D02*
X2606741Y-34592180D01*
X2606741Y-34592180D02*
X2559122Y-34639800D01*
X2559122Y-34639800D02*
X2463884Y-34687419D01*
X2463884Y-34687419D02*
X2178170Y-34687419D01*
X2178170Y-34687419D02*
X2082932Y-34639800D01*
X2082932Y-34639800D02*
X2035313Y-34592180D01*
X3082932Y-34592180D02*
X3130551Y-34639800D01*
X3130551Y-34639800D02*
X3082932Y-34687419D01*
X3082932Y-34687419D02*
X3035313Y-34639800D01*
X3035313Y-34639800D02*
X3082932Y-34592180D01*
X3082932Y-34592180D02*
X3082932Y-34687419D01*
X3463884Y-33687419D02*
X4082931Y-33687419D01*
X4082931Y-33687419D02*
X3749598Y-34068371D01*
X3749598Y-34068371D02*
X3892455Y-34068371D01*
X3892455Y-34068371D02*
X3987693Y-34115990D01*
X3987693Y-34115990D02*
X4035312Y-34163609D01*
X4035312Y-34163609D02*
X4082931Y-34258847D01*
X4082931Y-34258847D02*
X4082931Y-34496942D01*
X4082931Y-34496942D02*
X4035312Y-34592180D01*
X4035312Y-34592180D02*
X3987693Y-34639800D01*
X3987693Y-34639800D02*
X3892455Y-34687419D01*
X3892455Y-34687419D02*
X3606741Y-34687419D01*
X3606741Y-34687419D02*
X3511503Y-34639800D01*
X3511503Y-34639800D02*
X3463884Y-34592180D01*
X1987693Y-31220038D02*
X1892455Y-31172419D01*
X1892455Y-31172419D02*
X1749598Y-31172419D01*
X1749598Y-31172419D02*
X1606741Y-31220038D01*
X1606741Y-31220038D02*
X1511503Y-31315276D01*
X1511503Y-31315276D02*
X1463884Y-31410514D01*
X1463884Y-31410514D02*
X1416265Y-31600990D01*
X1416265Y-31600990D02*
X1416265Y-31743847D01*
X1416265Y-31743847D02*
X1463884Y-31934323D01*
X1463884Y-31934323D02*
X1511503Y-32029561D01*
X1511503Y-32029561D02*
X1606741Y-32124800D01*
X1606741Y-32124800D02*
X1749598Y-32172419D01*
X1749598Y-32172419D02*
X1844836Y-32172419D01*
X1844836Y-32172419D02*
X1987693Y-32124800D01*
X1987693Y-32124800D02*
X2035312Y-32077180D01*
X2035312Y-32077180D02*
X2035312Y-31743847D01*
X2035312Y-31743847D02*
X1844836Y-31743847D01*
X2463884Y-32172419D02*
X2463884Y-31172419D01*
X2463884Y-31172419D02*
X3035312Y-32172419D01*
X3035312Y-32172419D02*
X3035312Y-31172419D01*
X3511503Y-32172419D02*
X3511503Y-31172419D01*
X3511503Y-31172419D02*
X3749598Y-31172419D01*
X3749598Y-31172419D02*
X3892455Y-31220038D01*
X3892455Y-31220038D02*
X3987693Y-31315276D01*
X3987693Y-31315276D02*
X4035312Y-31410514D01*
X4035312Y-31410514D02*
X4082931Y-31600990D01*
X4082931Y-31600990D02*
X4082931Y-31743847D01*
X4082931Y-31743847D02*
X4035312Y-31934323D01*
X4035312Y-31934323D02*
X3987693Y-32029561D01*
X3987693Y-32029561D02*
X3892455Y-32124800D01*
X3892455Y-32124800D02*
X3749598Y-32172419D01*
X3749598Y-32172419D02*
X3511503Y-32172419D01*
D12*
X41914285Y-8384820D02*
X41914285Y-9099105D01*
X41914285Y-9099105D02*
X41866666Y-9241962D01*
X41866666Y-9241962D02*
X41771428Y-9337201D01*
X41771428Y-9337201D02*
X41628571Y-9384820D01*
X41628571Y-9384820D02*
X41533333Y-9384820D01*
X42914285Y-9384820D02*
X42342857Y-9384820D01*
X42628571Y-9384820D02*
X42628571Y-8384820D01*
X42628571Y-8384820D02*
X42533333Y-8527677D01*
X42533333Y-8527677D02*
X42438095Y-8622915D01*
X42438095Y-8622915D02*
X42342857Y-8670534D01*
X43533333Y-8384820D02*
X43628571Y-8384820D01*
X43628571Y-8384820D02*
X43723809Y-8432439D01*
X43723809Y-8432439D02*
X43771428Y-8480058D01*
X43771428Y-8480058D02*
X43819047Y-8575296D01*
X43819047Y-8575296D02*
X43866666Y-8765772D01*
X43866666Y-8765772D02*
X43866666Y-9003867D01*
X43866666Y-9003867D02*
X43819047Y-9194343D01*
X43819047Y-9194343D02*
X43771428Y-9289581D01*
X43771428Y-9289581D02*
X43723809Y-9337201D01*
X43723809Y-9337201D02*
X43628571Y-9384820D01*
X43628571Y-9384820D02*
X43533333Y-9384820D01*
X43533333Y-9384820D02*
X43438095Y-9337201D01*
X43438095Y-9337201D02*
X43390476Y-9289581D01*
X43390476Y-9289581D02*
X43342857Y-9194343D01*
X43342857Y-9194343D02*
X43295238Y-9003867D01*
X43295238Y-9003867D02*
X43295238Y-8765772D01*
X43295238Y-8765772D02*
X43342857Y-8575296D01*
X43342857Y-8575296D02*
X43390476Y-8480058D01*
X43390476Y-8480058D02*
X43438095Y-8432439D01*
X43438095Y-8432439D02*
X43533333Y-8384820D01*
X44200000Y-8384820D02*
X44819047Y-8384820D01*
X44819047Y-8384820D02*
X44485714Y-8765772D01*
X44485714Y-8765772D02*
X44628571Y-8765772D01*
X44628571Y-8765772D02*
X44723809Y-8813391D01*
X44723809Y-8813391D02*
X44771428Y-8861010D01*
X44771428Y-8861010D02*
X44819047Y-8956248D01*
X44819047Y-8956248D02*
X44819047Y-9194343D01*
X44819047Y-9194343D02*
X44771428Y-9289581D01*
X44771428Y-9289581D02*
X44723809Y-9337201D01*
X44723809Y-9337201D02*
X44628571Y-9384820D01*
X44628571Y-9384820D02*
X44342857Y-9384820D01*
X44342857Y-9384820D02*
X44247619Y-9337201D01*
X44247619Y-9337201D02*
X44200000Y-9289581D01*
X25144819Y-53494285D02*
X25954342Y-53494285D01*
X25954342Y-53494285D02*
X26049580Y-53446666D01*
X26049580Y-53446666D02*
X26097200Y-53399047D01*
X26097200Y-53399047D02*
X26144819Y-53303809D01*
X26144819Y-53303809D02*
X26144819Y-53113333D01*
X26144819Y-53113333D02*
X26097200Y-53018095D01*
X26097200Y-53018095D02*
X26049580Y-52970476D01*
X26049580Y-52970476D02*
X25954342Y-52922857D01*
X25954342Y-52922857D02*
X25144819Y-52922857D01*
X26144819Y-51922857D02*
X26144819Y-52494285D01*
X26144819Y-52208571D02*
X25144819Y-52208571D01*
X25144819Y-52208571D02*
X25287676Y-52303809D01*
X25287676Y-52303809D02*
X25382914Y-52399047D01*
X25382914Y-52399047D02*
X25430533Y-52494285D01*
X25144819Y-51303809D02*
X25144819Y-51208571D01*
X25144819Y-51208571D02*
X25192438Y-51113333D01*
X25192438Y-51113333D02*
X25240057Y-51065714D01*
X25240057Y-51065714D02*
X25335295Y-51018095D01*
X25335295Y-51018095D02*
X25525771Y-50970476D01*
X25525771Y-50970476D02*
X25763866Y-50970476D01*
X25763866Y-50970476D02*
X25954342Y-51018095D01*
X25954342Y-51018095D02*
X26049580Y-51065714D01*
X26049580Y-51065714D02*
X26097200Y-51113333D01*
X26097200Y-51113333D02*
X26144819Y-51208571D01*
X26144819Y-51208571D02*
X26144819Y-51303809D01*
X26144819Y-51303809D02*
X26097200Y-51399047D01*
X26097200Y-51399047D02*
X26049580Y-51446666D01*
X26049580Y-51446666D02*
X25954342Y-51494285D01*
X25954342Y-51494285D02*
X25763866Y-51541904D01*
X25763866Y-51541904D02*
X25525771Y-51541904D01*
X25525771Y-51541904D02*
X25335295Y-51494285D01*
X25335295Y-51494285D02*
X25240057Y-51446666D01*
X25240057Y-51446666D02*
X25192438Y-51399047D01*
X25192438Y-51399047D02*
X25144819Y-51303809D01*
X25144819Y-50637142D02*
X25144819Y-50018095D01*
X25144819Y-50018095D02*
X25525771Y-50351428D01*
X25525771Y-50351428D02*
X25525771Y-50208571D01*
X25525771Y-50208571D02*
X25573390Y-50113333D01*
X25573390Y-50113333D02*
X25621009Y-50065714D01*
X25621009Y-50065714D02*
X25716247Y-50018095D01*
X25716247Y-50018095D02*
X25954342Y-50018095D01*
X25954342Y-50018095D02*
X26049580Y-50065714D01*
X26049580Y-50065714D02*
X26097200Y-50113333D01*
X26097200Y-50113333D02*
X26144819Y-50208571D01*
X26144819Y-50208571D02*
X26144819Y-50494285D01*
X26144819Y-50494285D02*
X26097200Y-50589523D01*
X26097200Y-50589523D02*
X26049580Y-50637142D01*
X11945714Y-18966819D02*
X11945714Y-19776342D01*
X11945714Y-19776342D02*
X11993333Y-19871580D01*
X11993333Y-19871580D02*
X12040952Y-19919200D01*
X12040952Y-19919200D02*
X12136190Y-19966819D01*
X12136190Y-19966819D02*
X12326666Y-19966819D01*
X12326666Y-19966819D02*
X12421904Y-19919200D01*
X12421904Y-19919200D02*
X12469523Y-19871580D01*
X12469523Y-19871580D02*
X12517142Y-19776342D01*
X12517142Y-19776342D02*
X12517142Y-18966819D01*
X13517142Y-19966819D02*
X12945714Y-19966819D01*
X13231428Y-19966819D02*
X13231428Y-18966819D01*
X13231428Y-18966819D02*
X13136190Y-19109676D01*
X13136190Y-19109676D02*
X13040952Y-19204914D01*
X13040952Y-19204914D02*
X12945714Y-19252533D01*
X14136190Y-18966819D02*
X14231428Y-18966819D01*
X14231428Y-18966819D02*
X14326666Y-19014438D01*
X14326666Y-19014438D02*
X14374285Y-19062057D01*
X14374285Y-19062057D02*
X14421904Y-19157295D01*
X14421904Y-19157295D02*
X14469523Y-19347771D01*
X14469523Y-19347771D02*
X14469523Y-19585866D01*
X14469523Y-19585866D02*
X14421904Y-19776342D01*
X14421904Y-19776342D02*
X14374285Y-19871580D01*
X14374285Y-19871580D02*
X14326666Y-19919200D01*
X14326666Y-19919200D02*
X14231428Y-19966819D01*
X14231428Y-19966819D02*
X14136190Y-19966819D01*
X14136190Y-19966819D02*
X14040952Y-19919200D01*
X14040952Y-19919200D02*
X13993333Y-19871580D01*
X13993333Y-19871580D02*
X13945714Y-19776342D01*
X13945714Y-19776342D02*
X13898095Y-19585866D01*
X13898095Y-19585866D02*
X13898095Y-19347771D01*
X13898095Y-19347771D02*
X13945714Y-19157295D01*
X13945714Y-19157295D02*
X13993333Y-19062057D01*
X13993333Y-19062057D02*
X14040952Y-19014438D01*
X14040952Y-19014438D02*
X14136190Y-18966819D01*
X14850476Y-19062057D02*
X14898095Y-19014438D01*
X14898095Y-19014438D02*
X14993333Y-18966819D01*
X14993333Y-18966819D02*
X15231428Y-18966819D01*
X15231428Y-18966819D02*
X15326666Y-19014438D01*
X15326666Y-19014438D02*
X15374285Y-19062057D01*
X15374285Y-19062057D02*
X15421904Y-19157295D01*
X15421904Y-19157295D02*
X15421904Y-19252533D01*
X15421904Y-19252533D02*
X15374285Y-19395390D01*
X15374285Y-19395390D02*
X14802857Y-19966819D01*
X14802857Y-19966819D02*
X15421904Y-19966819D01*
X36915952Y-19594819D02*
X36582619Y-19118628D01*
X36344524Y-19594819D02*
X36344524Y-18594819D01*
X36344524Y-18594819D02*
X36725476Y-18594819D01*
X36725476Y-18594819D02*
X36820714Y-18642438D01*
X36820714Y-18642438D02*
X36868333Y-18690057D01*
X36868333Y-18690057D02*
X36915952Y-18785295D01*
X36915952Y-18785295D02*
X36915952Y-18928152D01*
X36915952Y-18928152D02*
X36868333Y-19023390D01*
X36868333Y-19023390D02*
X36820714Y-19071009D01*
X36820714Y-19071009D02*
X36725476Y-19118628D01*
X36725476Y-19118628D02*
X36344524Y-19118628D01*
X37868333Y-19594819D02*
X37296905Y-19594819D01*
X37582619Y-19594819D02*
X37582619Y-18594819D01*
X37582619Y-18594819D02*
X37487381Y-18737676D01*
X37487381Y-18737676D02*
X37392143Y-18832914D01*
X37392143Y-18832914D02*
X37296905Y-18880533D01*
X38487381Y-18594819D02*
X38582619Y-18594819D01*
X38582619Y-18594819D02*
X38677857Y-18642438D01*
X38677857Y-18642438D02*
X38725476Y-18690057D01*
X38725476Y-18690057D02*
X38773095Y-18785295D01*
X38773095Y-18785295D02*
X38820714Y-18975771D01*
X38820714Y-18975771D02*
X38820714Y-19213866D01*
X38820714Y-19213866D02*
X38773095Y-19404342D01*
X38773095Y-19404342D02*
X38725476Y-19499580D01*
X38725476Y-19499580D02*
X38677857Y-19547200D01*
X38677857Y-19547200D02*
X38582619Y-19594819D01*
X38582619Y-19594819D02*
X38487381Y-19594819D01*
X38487381Y-19594819D02*
X38392143Y-19547200D01*
X38392143Y-19547200D02*
X38344524Y-19499580D01*
X38344524Y-19499580D02*
X38296905Y-19404342D01*
X38296905Y-19404342D02*
X38249286Y-19213866D01*
X38249286Y-19213866D02*
X38249286Y-18975771D01*
X38249286Y-18975771D02*
X38296905Y-18785295D01*
X38296905Y-18785295D02*
X38344524Y-18690057D01*
X38344524Y-18690057D02*
X38392143Y-18642438D01*
X38392143Y-18642438D02*
X38487381Y-18594819D01*
X39201667Y-18690057D02*
X39249286Y-18642438D01*
X39249286Y-18642438D02*
X39344524Y-18594819D01*
X39344524Y-18594819D02*
X39582619Y-18594819D01*
X39582619Y-18594819D02*
X39677857Y-18642438D01*
X39677857Y-18642438D02*
X39725476Y-18690057D01*
X39725476Y-18690057D02*
X39773095Y-18785295D01*
X39773095Y-18785295D02*
X39773095Y-18880533D01*
X39773095Y-18880533D02*
X39725476Y-19023390D01*
X39725476Y-19023390D02*
X39154048Y-19594819D01*
X39154048Y-19594819D02*
X39773095Y-19594819D01*
X4914285Y-51599819D02*
X4914285Y-52314104D01*
X4914285Y-52314104D02*
X4866666Y-52456961D01*
X4866666Y-52456961D02*
X4771428Y-52552200D01*
X4771428Y-52552200D02*
X4628571Y-52599819D01*
X4628571Y-52599819D02*
X4533333Y-52599819D01*
X5914285Y-52599819D02*
X5342857Y-52599819D01*
X5628571Y-52599819D02*
X5628571Y-51599819D01*
X5628571Y-51599819D02*
X5533333Y-51742676D01*
X5533333Y-51742676D02*
X5438095Y-51837914D01*
X5438095Y-51837914D02*
X5342857Y-51885533D01*
X6533333Y-51599819D02*
X6628571Y-51599819D01*
X6628571Y-51599819D02*
X6723809Y-51647438D01*
X6723809Y-51647438D02*
X6771428Y-51695057D01*
X6771428Y-51695057D02*
X6819047Y-51790295D01*
X6819047Y-51790295D02*
X6866666Y-51980771D01*
X6866666Y-51980771D02*
X6866666Y-52218866D01*
X6866666Y-52218866D02*
X6819047Y-52409342D01*
X6819047Y-52409342D02*
X6771428Y-52504580D01*
X6771428Y-52504580D02*
X6723809Y-52552200D01*
X6723809Y-52552200D02*
X6628571Y-52599819D01*
X6628571Y-52599819D02*
X6533333Y-52599819D01*
X6533333Y-52599819D02*
X6438095Y-52552200D01*
X6438095Y-52552200D02*
X6390476Y-52504580D01*
X6390476Y-52504580D02*
X6342857Y-52409342D01*
X6342857Y-52409342D02*
X6295238Y-52218866D01*
X6295238Y-52218866D02*
X6295238Y-51980771D01*
X6295238Y-51980771D02*
X6342857Y-51790295D01*
X6342857Y-51790295D02*
X6390476Y-51695057D01*
X6390476Y-51695057D02*
X6438095Y-51647438D01*
X6438095Y-51647438D02*
X6533333Y-51599819D01*
X7771428Y-51599819D02*
X7295238Y-51599819D01*
X7295238Y-51599819D02*
X7247619Y-52076009D01*
X7247619Y-52076009D02*
X7295238Y-52028390D01*
X7295238Y-52028390D02*
X7390476Y-51980771D01*
X7390476Y-51980771D02*
X7628571Y-51980771D01*
X7628571Y-51980771D02*
X7723809Y-52028390D01*
X7723809Y-52028390D02*
X7771428Y-52076009D01*
X7771428Y-52076009D02*
X7819047Y-52171247D01*
X7819047Y-52171247D02*
X7819047Y-52409342D01*
X7819047Y-52409342D02*
X7771428Y-52504580D01*
X7771428Y-52504580D02*
X7723809Y-52552200D01*
X7723809Y-52552200D02*
X7628571Y-52599819D01*
X7628571Y-52599819D02*
X7390476Y-52599819D01*
X7390476Y-52599819D02*
X7295238Y-52552200D01*
X7295238Y-52552200D02*
X7247619Y-52504580D01*
X42534818Y-19090475D02*
X41534818Y-19090475D01*
X41534818Y-19090475D02*
X41534818Y-18852380D01*
X41534818Y-18852380D02*
X41582437Y-18709523D01*
X41582437Y-18709523D02*
X41677675Y-18614285D01*
X41677675Y-18614285D02*
X41772913Y-18566666D01*
X41772913Y-18566666D02*
X41963389Y-18519047D01*
X41963389Y-18519047D02*
X42106246Y-18519047D01*
X42106246Y-18519047D02*
X42296722Y-18566666D01*
X42296722Y-18566666D02*
X42391960Y-18614285D01*
X42391960Y-18614285D02*
X42487199Y-18709523D01*
X42487199Y-18709523D02*
X42534818Y-18852380D01*
X42534818Y-18852380D02*
X42534818Y-19090475D01*
X42534818Y-17566666D02*
X42534818Y-18138094D01*
X42534818Y-17852380D02*
X41534818Y-17852380D01*
X41534818Y-17852380D02*
X41677675Y-17947618D01*
X41677675Y-17947618D02*
X41772913Y-18042856D01*
X41772913Y-18042856D02*
X41820532Y-18138094D01*
X41534818Y-16947618D02*
X41534818Y-16852380D01*
X41534818Y-16852380D02*
X41582437Y-16757142D01*
X41582437Y-16757142D02*
X41630056Y-16709523D01*
X41630056Y-16709523D02*
X41725294Y-16661904D01*
X41725294Y-16661904D02*
X41915770Y-16614285D01*
X41915770Y-16614285D02*
X42153865Y-16614285D01*
X42153865Y-16614285D02*
X42344341Y-16661904D01*
X42344341Y-16661904D02*
X42439579Y-16709523D01*
X42439579Y-16709523D02*
X42487199Y-16757142D01*
X42487199Y-16757142D02*
X42534818Y-16852380D01*
X42534818Y-16852380D02*
X42534818Y-16947618D01*
X42534818Y-16947618D02*
X42487199Y-17042856D01*
X42487199Y-17042856D02*
X42439579Y-17090475D01*
X42439579Y-17090475D02*
X42344341Y-17138094D01*
X42344341Y-17138094D02*
X42153865Y-17185713D01*
X42153865Y-17185713D02*
X41915770Y-17185713D01*
X41915770Y-17185713D02*
X41725294Y-17138094D01*
X41725294Y-17138094D02*
X41630056Y-17090475D01*
X41630056Y-17090475D02*
X41582437Y-17042856D01*
X41582437Y-17042856D02*
X41534818Y-16947618D01*
X41534818Y-16280951D02*
X41534818Y-15614285D01*
X41534818Y-15614285D02*
X42534818Y-16042856D01*
X804819Y-15775714D02*
X1519104Y-15775714D01*
X1519104Y-15775714D02*
X1661961Y-15823333D01*
X1661961Y-15823333D02*
X1757200Y-15918571D01*
X1757200Y-15918571D02*
X1804819Y-16061428D01*
X1804819Y-16061428D02*
X1804819Y-16156666D01*
X1804819Y-14775714D02*
X1804819Y-15347142D01*
X1804819Y-15061428D02*
X804819Y-15061428D01*
X804819Y-15061428D02*
X947676Y-15156666D01*
X947676Y-15156666D02*
X1042914Y-15251904D01*
X1042914Y-15251904D02*
X1090533Y-15347142D01*
X804819Y-14156666D02*
X804819Y-14061428D01*
X804819Y-14061428D02*
X852438Y-13966190D01*
X852438Y-13966190D02*
X900057Y-13918571D01*
X900057Y-13918571D02*
X995295Y-13870952D01*
X995295Y-13870952D02*
X1185771Y-13823333D01*
X1185771Y-13823333D02*
X1423866Y-13823333D01*
X1423866Y-13823333D02*
X1614342Y-13870952D01*
X1614342Y-13870952D02*
X1709580Y-13918571D01*
X1709580Y-13918571D02*
X1757200Y-13966190D01*
X1757200Y-13966190D02*
X1804819Y-14061428D01*
X1804819Y-14061428D02*
X1804819Y-14156666D01*
X1804819Y-14156666D02*
X1757200Y-14251904D01*
X1757200Y-14251904D02*
X1709580Y-14299523D01*
X1709580Y-14299523D02*
X1614342Y-14347142D01*
X1614342Y-14347142D02*
X1423866Y-14394761D01*
X1423866Y-14394761D02*
X1185771Y-14394761D01*
X1185771Y-14394761D02*
X995295Y-14347142D01*
X995295Y-14347142D02*
X900057Y-14299523D01*
X900057Y-14299523D02*
X852438Y-14251904D01*
X852438Y-14251904D02*
X804819Y-14156666D01*
X1804819Y-12870952D02*
X1804819Y-13442380D01*
X1804819Y-13156666D02*
X804819Y-13156666D01*
X804819Y-13156666D02*
X947676Y-13251904D01*
X947676Y-13251904D02*
X1042914Y-13347142D01*
X1042914Y-13347142D02*
X1090533Y-13442380D01*
D10*
X15634894Y-23341428D02*
X16282513Y-23341428D01*
X16282513Y-23341428D02*
X16358703Y-23303333D01*
X16358703Y-23303333D02*
X16396799Y-23265238D01*
X16396799Y-23265238D02*
X16434894Y-23189047D01*
X16434894Y-23189047D02*
X16434894Y-23036666D01*
X16434894Y-23036666D02*
X16396799Y-22960476D01*
X16396799Y-22960476D02*
X16358703Y-22922381D01*
X16358703Y-22922381D02*
X16282513Y-22884285D01*
X16282513Y-22884285D02*
X15634894Y-22884285D01*
X16434894Y-22084286D02*
X16434894Y-22541429D01*
X16434894Y-22312857D02*
X15634894Y-22312857D01*
X15634894Y-22312857D02*
X15749179Y-22389048D01*
X15749179Y-22389048D02*
X15825370Y-22465238D01*
X15825370Y-22465238D02*
X15863465Y-22541429D01*
X15634894Y-21589047D02*
X15634894Y-21512857D01*
X15634894Y-21512857D02*
X15672989Y-21436666D01*
X15672989Y-21436666D02*
X15711084Y-21398571D01*
X15711084Y-21398571D02*
X15787275Y-21360476D01*
X15787275Y-21360476D02*
X15939656Y-21322381D01*
X15939656Y-21322381D02*
X16130132Y-21322381D01*
X16130132Y-21322381D02*
X16282513Y-21360476D01*
X16282513Y-21360476D02*
X16358703Y-21398571D01*
X16358703Y-21398571D02*
X16396799Y-21436666D01*
X16396799Y-21436666D02*
X16434894Y-21512857D01*
X16434894Y-21512857D02*
X16434894Y-21589047D01*
X16434894Y-21589047D02*
X16396799Y-21665238D01*
X16396799Y-21665238D02*
X16358703Y-21703333D01*
X16358703Y-21703333D02*
X16282513Y-21741428D01*
X16282513Y-21741428D02*
X16130132Y-21779524D01*
X16130132Y-21779524D02*
X15939656Y-21779524D01*
X15939656Y-21779524D02*
X15787275Y-21741428D01*
X15787275Y-21741428D02*
X15711084Y-21703333D01*
X15711084Y-21703333D02*
X15672989Y-21665238D01*
X15672989Y-21665238D02*
X15634894Y-21589047D01*
X16434894Y-20560476D02*
X16434894Y-21017619D01*
X16434894Y-20789047D02*
X15634894Y-20789047D01*
X15634894Y-20789047D02*
X15749179Y-20865238D01*
X15749179Y-20865238D02*
X15825370Y-20941428D01*
X15825370Y-20941428D02*
X15863465Y-21017619D01*
D12*
X27624818Y-23134047D02*
X27624818Y-23610237D01*
X27624818Y-23610237D02*
X26624818Y-23610237D01*
X27624818Y-22276904D02*
X27624818Y-22848332D01*
X27624818Y-22562618D02*
X26624818Y-22562618D01*
X26624818Y-22562618D02*
X26767675Y-22657856D01*
X26767675Y-22657856D02*
X26862913Y-22753094D01*
X26862913Y-22753094D02*
X26910532Y-22848332D01*
X26624818Y-21657856D02*
X26624818Y-21562618D01*
X26624818Y-21562618D02*
X26672437Y-21467380D01*
X26672437Y-21467380D02*
X26720056Y-21419761D01*
X26720056Y-21419761D02*
X26815294Y-21372142D01*
X26815294Y-21372142D02*
X27005770Y-21324523D01*
X27005770Y-21324523D02*
X27243865Y-21324523D01*
X27243865Y-21324523D02*
X27434341Y-21372142D01*
X27434341Y-21372142D02*
X27529579Y-21419761D01*
X27529579Y-21419761D02*
X27577199Y-21467380D01*
X27577199Y-21467380D02*
X27624818Y-21562618D01*
X27624818Y-21562618D02*
X27624818Y-21657856D01*
X27624818Y-21657856D02*
X27577199Y-21753094D01*
X27577199Y-21753094D02*
X27529579Y-21800713D01*
X27529579Y-21800713D02*
X27434341Y-21848332D01*
X27434341Y-21848332D02*
X27243865Y-21895951D01*
X27243865Y-21895951D02*
X27005770Y-21895951D01*
X27005770Y-21895951D02*
X26815294Y-21848332D01*
X26815294Y-21848332D02*
X26720056Y-21800713D01*
X26720056Y-21800713D02*
X26672437Y-21753094D01*
X26672437Y-21753094D02*
X26624818Y-21657856D01*
X27624818Y-20372142D02*
X27624818Y-20943570D01*
X27624818Y-20657856D02*
X26624818Y-20657856D01*
X26624818Y-20657856D02*
X26767675Y-20753094D01*
X26767675Y-20753094D02*
X26862913Y-20848332D01*
X26862913Y-20848332D02*
X26910532Y-20943570D01*
X37426905Y-20249819D02*
X38045952Y-20249819D01*
X38045952Y-20249819D02*
X37712619Y-20630771D01*
X37712619Y-20630771D02*
X37855476Y-20630771D01*
X37855476Y-20630771D02*
X37950714Y-20678390D01*
X37950714Y-20678390D02*
X37998333Y-20726009D01*
X37998333Y-20726009D02*
X38045952Y-20821247D01*
X38045952Y-20821247D02*
X38045952Y-21059342D01*
X38045952Y-21059342D02*
X37998333Y-21154580D01*
X37998333Y-21154580D02*
X37950714Y-21202200D01*
X37950714Y-21202200D02*
X37855476Y-21249819D01*
X37855476Y-21249819D02*
X37569762Y-21249819D01*
X37569762Y-21249819D02*
X37474524Y-21202200D01*
X37474524Y-21202200D02*
X37426905Y-21154580D01*
X38331667Y-20249819D02*
X38665000Y-21249819D01*
X38665000Y-21249819D02*
X38998333Y-20249819D01*
X39236429Y-20249819D02*
X39855476Y-20249819D01*
X39855476Y-20249819D02*
X39522143Y-20630771D01*
X39522143Y-20630771D02*
X39665000Y-20630771D01*
X39665000Y-20630771D02*
X39760238Y-20678390D01*
X39760238Y-20678390D02*
X39807857Y-20726009D01*
X39807857Y-20726009D02*
X39855476Y-20821247D01*
X39855476Y-20821247D02*
X39855476Y-21059342D01*
X39855476Y-21059342D02*
X39807857Y-21154580D01*
X39807857Y-21154580D02*
X39760238Y-21202200D01*
X39760238Y-21202200D02*
X39665000Y-21249819D01*
X39665000Y-21249819D02*
X39379286Y-21249819D01*
X39379286Y-21249819D02*
X39284048Y-21202200D01*
X39284048Y-21202200D02*
X39236429Y-21154580D01*
X28337319Y-59495714D02*
X29051604Y-59495714D01*
X29051604Y-59495714D02*
X29194461Y-59543333D01*
X29194461Y-59543333D02*
X29289700Y-59638571D01*
X29289700Y-59638571D02*
X29337319Y-59781428D01*
X29337319Y-59781428D02*
X29337319Y-59876666D01*
X29337319Y-59019523D02*
X28337319Y-59019523D01*
X28337319Y-59019523D02*
X28337319Y-58638571D01*
X28337319Y-58638571D02*
X28384938Y-58543333D01*
X28384938Y-58543333D02*
X28432557Y-58495714D01*
X28432557Y-58495714D02*
X28527795Y-58448095D01*
X28527795Y-58448095D02*
X28670652Y-58448095D01*
X28670652Y-58448095D02*
X28765890Y-58495714D01*
X28765890Y-58495714D02*
X28813509Y-58543333D01*
X28813509Y-58543333D02*
X28861128Y-58638571D01*
X28861128Y-58638571D02*
X28861128Y-59019523D01*
X29337319Y-57495714D02*
X29337319Y-58067142D01*
X29337319Y-57781428D02*
X28337319Y-57781428D01*
X28337319Y-57781428D02*
X28480176Y-57876666D01*
X28480176Y-57876666D02*
X28575414Y-57971904D01*
X28575414Y-57971904D02*
X28623033Y-58067142D01*
X28337319Y-56876666D02*
X28337319Y-56781428D01*
X28337319Y-56781428D02*
X28384938Y-56686190D01*
X28384938Y-56686190D02*
X28432557Y-56638571D01*
X28432557Y-56638571D02*
X28527795Y-56590952D01*
X28527795Y-56590952D02*
X28718271Y-56543333D01*
X28718271Y-56543333D02*
X28956366Y-56543333D01*
X28956366Y-56543333D02*
X29146842Y-56590952D01*
X29146842Y-56590952D02*
X29242080Y-56638571D01*
X29242080Y-56638571D02*
X29289700Y-56686190D01*
X29289700Y-56686190D02*
X29337319Y-56781428D01*
X29337319Y-56781428D02*
X29337319Y-56876666D01*
X29337319Y-56876666D02*
X29289700Y-56971904D01*
X29289700Y-56971904D02*
X29242080Y-57019523D01*
X29242080Y-57019523D02*
X29146842Y-57067142D01*
X29146842Y-57067142D02*
X28956366Y-57114761D01*
X28956366Y-57114761D02*
X28718271Y-57114761D01*
X28718271Y-57114761D02*
X28527795Y-57067142D01*
X28527795Y-57067142D02*
X28432557Y-57019523D01*
X28432557Y-57019523D02*
X28384938Y-56971904D01*
X28384938Y-56971904D02*
X28337319Y-56876666D01*
X28337319Y-56209999D02*
X28337319Y-55590952D01*
X28337319Y-55590952D02*
X28718271Y-55924285D01*
X28718271Y-55924285D02*
X28718271Y-55781428D01*
X28718271Y-55781428D02*
X28765890Y-55686190D01*
X28765890Y-55686190D02*
X28813509Y-55638571D01*
X28813509Y-55638571D02*
X28908747Y-55590952D01*
X28908747Y-55590952D02*
X29146842Y-55590952D01*
X29146842Y-55590952D02*
X29242080Y-55638571D01*
X29242080Y-55638571D02*
X29289700Y-55686190D01*
X29289700Y-55686190D02*
X29337319Y-55781428D01*
X29337319Y-55781428D02*
X29337319Y-56067142D01*
X29337319Y-56067142D02*
X29289700Y-56162380D01*
X29289700Y-56162380D02*
X29242080Y-56209999D01*
X38654819Y-17149047D02*
X38178628Y-17482380D01*
X38654819Y-17720475D02*
X37654819Y-17720475D01*
X37654819Y-17720475D02*
X37654819Y-17339523D01*
X37654819Y-17339523D02*
X37702438Y-17244285D01*
X37702438Y-17244285D02*
X37750057Y-17196666D01*
X37750057Y-17196666D02*
X37845295Y-17149047D01*
X37845295Y-17149047D02*
X37988152Y-17149047D01*
X37988152Y-17149047D02*
X38083390Y-17196666D01*
X38083390Y-17196666D02*
X38131009Y-17244285D01*
X38131009Y-17244285D02*
X38178628Y-17339523D01*
X38178628Y-17339523D02*
X38178628Y-17720475D01*
X38654819Y-16196666D02*
X38654819Y-16768094D01*
X38654819Y-16482380D02*
X37654819Y-16482380D01*
X37654819Y-16482380D02*
X37797676Y-16577618D01*
X37797676Y-16577618D02*
X37892914Y-16672856D01*
X37892914Y-16672856D02*
X37940533Y-16768094D01*
X38654819Y-15244285D02*
X38654819Y-15815713D01*
X38654819Y-15529999D02*
X37654819Y-15529999D01*
X37654819Y-15529999D02*
X37797676Y-15625237D01*
X37797676Y-15625237D02*
X37892914Y-15720475D01*
X37892914Y-15720475D02*
X37940533Y-15815713D01*
X37988152Y-14387142D02*
X38654819Y-14387142D01*
X37607200Y-14625237D02*
X38321485Y-14863332D01*
X38321485Y-14863332D02*
X38321485Y-14244285D01*
X14404581Y-61119047D02*
X14452201Y-61166666D01*
X14452201Y-61166666D02*
X14499820Y-61309523D01*
X14499820Y-61309523D02*
X14499820Y-61404761D01*
X14499820Y-61404761D02*
X14452201Y-61547618D01*
X14452201Y-61547618D02*
X14356962Y-61642856D01*
X14356962Y-61642856D02*
X14261724Y-61690475D01*
X14261724Y-61690475D02*
X14071248Y-61738094D01*
X14071248Y-61738094D02*
X13928391Y-61738094D01*
X13928391Y-61738094D02*
X13737915Y-61690475D01*
X13737915Y-61690475D02*
X13642677Y-61642856D01*
X13642677Y-61642856D02*
X13547439Y-61547618D01*
X13547439Y-61547618D02*
X13499820Y-61404761D01*
X13499820Y-61404761D02*
X13499820Y-61309523D01*
X13499820Y-61309523D02*
X13547439Y-61166666D01*
X13547439Y-61166666D02*
X13595058Y-61119047D01*
X14499820Y-60166666D02*
X14499820Y-60738094D01*
X14499820Y-60452380D02*
X13499820Y-60452380D01*
X13499820Y-60452380D02*
X13642677Y-60547618D01*
X13642677Y-60547618D02*
X13737915Y-60642856D01*
X13737915Y-60642856D02*
X13785534Y-60738094D01*
X14499820Y-59214285D02*
X14499820Y-59785713D01*
X14499820Y-59499999D02*
X13499820Y-59499999D01*
X13499820Y-59499999D02*
X13642677Y-59595237D01*
X13642677Y-59595237D02*
X13737915Y-59690475D01*
X13737915Y-59690475D02*
X13785534Y-59785713D01*
X13499820Y-58880951D02*
X13499820Y-58214285D01*
X13499820Y-58214285D02*
X14499820Y-58642856D01*
X20039285Y-71604819D02*
X20039285Y-72319104D01*
X20039285Y-72319104D02*
X19991666Y-72461961D01*
X19991666Y-72461961D02*
X19896428Y-72557200D01*
X19896428Y-72557200D02*
X19753571Y-72604819D01*
X19753571Y-72604819D02*
X19658333Y-72604819D01*
X20515476Y-72604819D02*
X20515476Y-71604819D01*
X20515476Y-71604819D02*
X20896428Y-71604819D01*
X20896428Y-71604819D02*
X20991666Y-71652438D01*
X20991666Y-71652438D02*
X21039285Y-71700057D01*
X21039285Y-71700057D02*
X21086904Y-71795295D01*
X21086904Y-71795295D02*
X21086904Y-71938152D01*
X21086904Y-71938152D02*
X21039285Y-72033390D01*
X21039285Y-72033390D02*
X20991666Y-72081009D01*
X20991666Y-72081009D02*
X20896428Y-72128628D01*
X20896428Y-72128628D02*
X20515476Y-72128628D01*
X22039285Y-72604819D02*
X21467857Y-72604819D01*
X21753571Y-72604819D02*
X21753571Y-71604819D01*
X21753571Y-71604819D02*
X21658333Y-71747676D01*
X21658333Y-71747676D02*
X21563095Y-71842914D01*
X21563095Y-71842914D02*
X21467857Y-71890533D01*
X22658333Y-71604819D02*
X22753571Y-71604819D01*
X22753571Y-71604819D02*
X22848809Y-71652438D01*
X22848809Y-71652438D02*
X22896428Y-71700057D01*
X22896428Y-71700057D02*
X22944047Y-71795295D01*
X22944047Y-71795295D02*
X22991666Y-71985771D01*
X22991666Y-71985771D02*
X22991666Y-72223866D01*
X22991666Y-72223866D02*
X22944047Y-72414342D01*
X22944047Y-72414342D02*
X22896428Y-72509580D01*
X22896428Y-72509580D02*
X22848809Y-72557200D01*
X22848809Y-72557200D02*
X22753571Y-72604819D01*
X22753571Y-72604819D02*
X22658333Y-72604819D01*
X22658333Y-72604819D02*
X22563095Y-72557200D01*
X22563095Y-72557200D02*
X22515476Y-72509580D01*
X22515476Y-72509580D02*
X22467857Y-72414342D01*
X22467857Y-72414342D02*
X22420238Y-72223866D01*
X22420238Y-72223866D02*
X22420238Y-71985771D01*
X22420238Y-71985771D02*
X22467857Y-71795295D01*
X22467857Y-71795295D02*
X22515476Y-71700057D01*
X22515476Y-71700057D02*
X22563095Y-71652438D01*
X22563095Y-71652438D02*
X22658333Y-71604819D01*
X23896428Y-71604819D02*
X23420238Y-71604819D01*
X23420238Y-71604819D02*
X23372619Y-72081009D01*
X23372619Y-72081009D02*
X23420238Y-72033390D01*
X23420238Y-72033390D02*
X23515476Y-71985771D01*
X23515476Y-71985771D02*
X23753571Y-71985771D01*
X23753571Y-71985771D02*
X23848809Y-72033390D01*
X23848809Y-72033390D02*
X23896428Y-72081009D01*
X23896428Y-72081009D02*
X23944047Y-72176247D01*
X23944047Y-72176247D02*
X23944047Y-72414342D01*
X23944047Y-72414342D02*
X23896428Y-72509580D01*
X23896428Y-72509580D02*
X23848809Y-72557200D01*
X23848809Y-72557200D02*
X23753571Y-72604819D01*
X23753571Y-72604819D02*
X23515476Y-72604819D01*
X23515476Y-72604819D02*
X23420238Y-72557200D01*
X23420238Y-72557200D02*
X23372619Y-72509580D01*
X14516319Y-65194047D02*
X14040128Y-65527380D01*
X14516319Y-65765475D02*
X13516319Y-65765475D01*
X13516319Y-65765475D02*
X13516319Y-65384523D01*
X13516319Y-65384523D02*
X13563938Y-65289285D01*
X13563938Y-65289285D02*
X13611557Y-65241666D01*
X13611557Y-65241666D02*
X13706795Y-65194047D01*
X13706795Y-65194047D02*
X13849652Y-65194047D01*
X13849652Y-65194047D02*
X13944890Y-65241666D01*
X13944890Y-65241666D02*
X13992509Y-65289285D01*
X13992509Y-65289285D02*
X14040128Y-65384523D01*
X14040128Y-65384523D02*
X14040128Y-65765475D01*
X14516319Y-64241666D02*
X14516319Y-64813094D01*
X14516319Y-64527380D02*
X13516319Y-64527380D01*
X13516319Y-64527380D02*
X13659176Y-64622618D01*
X13659176Y-64622618D02*
X13754414Y-64717856D01*
X13754414Y-64717856D02*
X13802033Y-64813094D01*
X14516319Y-63289285D02*
X14516319Y-63860713D01*
X14516319Y-63574999D02*
X13516319Y-63574999D01*
X13516319Y-63574999D02*
X13659176Y-63670237D01*
X13659176Y-63670237D02*
X13754414Y-63765475D01*
X13754414Y-63765475D02*
X13802033Y-63860713D01*
X13611557Y-62908332D02*
X13563938Y-62860713D01*
X13563938Y-62860713D02*
X13516319Y-62765475D01*
X13516319Y-62765475D02*
X13516319Y-62527380D01*
X13516319Y-62527380D02*
X13563938Y-62432142D01*
X13563938Y-62432142D02*
X13611557Y-62384523D01*
X13611557Y-62384523D02*
X13706795Y-62336904D01*
X13706795Y-62336904D02*
X13802033Y-62336904D01*
X13802033Y-62336904D02*
X13944890Y-62384523D01*
X13944890Y-62384523D02*
X14516319Y-62955951D01*
X14516319Y-62955951D02*
X14516319Y-62336904D01*
X12570057Y-41711120D02*
X12522438Y-41806358D01*
X12522438Y-41806358D02*
X12427200Y-41901596D01*
X12427200Y-41901596D02*
X12284342Y-42044453D01*
X12284342Y-42044453D02*
X12236723Y-42139691D01*
X12236723Y-42139691D02*
X12236723Y-42234929D01*
X12474819Y-42187310D02*
X12427200Y-42282548D01*
X12427200Y-42282548D02*
X12331961Y-42377786D01*
X12331961Y-42377786D02*
X12141485Y-42425405D01*
X12141485Y-42425405D02*
X11808152Y-42425405D01*
X11808152Y-42425405D02*
X11617676Y-42377786D01*
X11617676Y-42377786D02*
X11522438Y-42282548D01*
X11522438Y-42282548D02*
X11474819Y-42187310D01*
X11474819Y-42187310D02*
X11474819Y-41996834D01*
X11474819Y-41996834D02*
X11522438Y-41901596D01*
X11522438Y-41901596D02*
X11617676Y-41806358D01*
X11617676Y-41806358D02*
X11808152Y-41758739D01*
X11808152Y-41758739D02*
X12141485Y-41758739D01*
X12141485Y-41758739D02*
X12331961Y-41806358D01*
X12331961Y-41806358D02*
X12427200Y-41901596D01*
X12427200Y-41901596D02*
X12474819Y-41996834D01*
X12474819Y-41996834D02*
X12474819Y-42187310D01*
X12474819Y-40806358D02*
X12474819Y-41377786D01*
X12474819Y-41092072D02*
X11474819Y-41092072D01*
X11474819Y-41092072D02*
X11617676Y-41187310D01*
X11617676Y-41187310D02*
X11712914Y-41282548D01*
X11712914Y-41282548D02*
X11760533Y-41377786D01*
X11474819Y-40187310D02*
X11474819Y-40092072D01*
X11474819Y-40092072D02*
X11522438Y-39996834D01*
X11522438Y-39996834D02*
X11570057Y-39949215D01*
X11570057Y-39949215D02*
X11665295Y-39901596D01*
X11665295Y-39901596D02*
X11855771Y-39853977D01*
X11855771Y-39853977D02*
X12093866Y-39853977D01*
X12093866Y-39853977D02*
X12284342Y-39901596D01*
X12284342Y-39901596D02*
X12379580Y-39949215D01*
X12379580Y-39949215D02*
X12427200Y-39996834D01*
X12427200Y-39996834D02*
X12474819Y-40092072D01*
X12474819Y-40092072D02*
X12474819Y-40187310D01*
X12474819Y-40187310D02*
X12427200Y-40282548D01*
X12427200Y-40282548D02*
X12379580Y-40330167D01*
X12379580Y-40330167D02*
X12284342Y-40377786D01*
X12284342Y-40377786D02*
X12093866Y-40425405D01*
X12093866Y-40425405D02*
X11855771Y-40425405D01*
X11855771Y-40425405D02*
X11665295Y-40377786D01*
X11665295Y-40377786D02*
X11570057Y-40330167D01*
X11570057Y-40330167D02*
X11522438Y-40282548D01*
X11522438Y-40282548D02*
X11474819Y-40187310D01*
X11808152Y-38996834D02*
X12474819Y-38996834D01*
X11427200Y-39234929D02*
X12141485Y-39473024D01*
X12141485Y-39473024D02*
X12141485Y-38853977D01*
X15008095Y-70053866D02*
X15770000Y-70053866D01*
X16769999Y-70434819D02*
X16198571Y-70434819D01*
X16484285Y-70434819D02*
X16484285Y-69434819D01*
X16484285Y-69434819D02*
X16389047Y-69577676D01*
X16389047Y-69577676D02*
X16293809Y-69672914D01*
X16293809Y-69672914D02*
X16198571Y-69720533D01*
X17150952Y-69530057D02*
X17198571Y-69482438D01*
X17198571Y-69482438D02*
X17293809Y-69434819D01*
X17293809Y-69434819D02*
X17531904Y-69434819D01*
X17531904Y-69434819D02*
X17627142Y-69482438D01*
X17627142Y-69482438D02*
X17674761Y-69530057D01*
X17674761Y-69530057D02*
X17722380Y-69625295D01*
X17722380Y-69625295D02*
X17722380Y-69720533D01*
X17722380Y-69720533D02*
X17674761Y-69863390D01*
X17674761Y-69863390D02*
X17103333Y-70434819D01*
X17103333Y-70434819D02*
X17722380Y-70434819D01*
X18103333Y-70149104D02*
X18579523Y-70149104D01*
X18008095Y-70434819D02*
X18341428Y-69434819D01*
X18341428Y-69434819D02*
X18674761Y-70434819D01*
X34390952Y-38239819D02*
X34057619Y-37763628D01*
X33819524Y-38239819D02*
X33819524Y-37239819D01*
X33819524Y-37239819D02*
X34200476Y-37239819D01*
X34200476Y-37239819D02*
X34295714Y-37287438D01*
X34295714Y-37287438D02*
X34343333Y-37335057D01*
X34343333Y-37335057D02*
X34390952Y-37430295D01*
X34390952Y-37430295D02*
X34390952Y-37573152D01*
X34390952Y-37573152D02*
X34343333Y-37668390D01*
X34343333Y-37668390D02*
X34295714Y-37716009D01*
X34295714Y-37716009D02*
X34200476Y-37763628D01*
X34200476Y-37763628D02*
X33819524Y-37763628D01*
X35343333Y-38239819D02*
X34771905Y-38239819D01*
X35057619Y-38239819D02*
X35057619Y-37239819D01*
X35057619Y-37239819D02*
X34962381Y-37382676D01*
X34962381Y-37382676D02*
X34867143Y-37477914D01*
X34867143Y-37477914D02*
X34771905Y-37525533D01*
X36295714Y-38239819D02*
X35724286Y-38239819D01*
X36010000Y-38239819D02*
X36010000Y-37239819D01*
X36010000Y-37239819D02*
X35914762Y-37382676D01*
X35914762Y-37382676D02*
X35819524Y-37477914D01*
X35819524Y-37477914D02*
X35724286Y-37525533D01*
X36914762Y-37239819D02*
X37010000Y-37239819D01*
X37010000Y-37239819D02*
X37105238Y-37287438D01*
X37105238Y-37287438D02*
X37152857Y-37335057D01*
X37152857Y-37335057D02*
X37200476Y-37430295D01*
X37200476Y-37430295D02*
X37248095Y-37620771D01*
X37248095Y-37620771D02*
X37248095Y-37858866D01*
X37248095Y-37858866D02*
X37200476Y-38049342D01*
X37200476Y-38049342D02*
X37152857Y-38144580D01*
X37152857Y-38144580D02*
X37105238Y-38192200D01*
X37105238Y-38192200D02*
X37010000Y-38239819D01*
X37010000Y-38239819D02*
X36914762Y-38239819D01*
X36914762Y-38239819D02*
X36819524Y-38192200D01*
X36819524Y-38192200D02*
X36771905Y-38144580D01*
X36771905Y-38144580D02*
X36724286Y-38049342D01*
X36724286Y-38049342D02*
X36676667Y-37858866D01*
X36676667Y-37858866D02*
X36676667Y-37620771D01*
X36676667Y-37620771D02*
X36724286Y-37430295D01*
X36724286Y-37430295D02*
X36771905Y-37335057D01*
X36771905Y-37335057D02*
X36819524Y-37287438D01*
X36819524Y-37287438D02*
X36914762Y-37239819D01*
X25900952Y-32354579D02*
X25853333Y-32402199D01*
X25853333Y-32402199D02*
X25710476Y-32449818D01*
X25710476Y-32449818D02*
X25615238Y-32449818D01*
X25615238Y-32449818D02*
X25472381Y-32402199D01*
X25472381Y-32402199D02*
X25377143Y-32306960D01*
X25377143Y-32306960D02*
X25329524Y-32211722D01*
X25329524Y-32211722D02*
X25281905Y-32021246D01*
X25281905Y-32021246D02*
X25281905Y-31878389D01*
X25281905Y-31878389D02*
X25329524Y-31687913D01*
X25329524Y-31687913D02*
X25377143Y-31592675D01*
X25377143Y-31592675D02*
X25472381Y-31497437D01*
X25472381Y-31497437D02*
X25615238Y-31449818D01*
X25615238Y-31449818D02*
X25710476Y-31449818D01*
X25710476Y-31449818D02*
X25853333Y-31497437D01*
X25853333Y-31497437D02*
X25900952Y-31545056D01*
X26853333Y-32449818D02*
X26281905Y-32449818D01*
X26567619Y-32449818D02*
X26567619Y-31449818D01*
X26567619Y-31449818D02*
X26472381Y-31592675D01*
X26472381Y-31592675D02*
X26377143Y-31687913D01*
X26377143Y-31687913D02*
X26281905Y-31735532D01*
X27472381Y-31449818D02*
X27567619Y-31449818D01*
X27567619Y-31449818D02*
X27662857Y-31497437D01*
X27662857Y-31497437D02*
X27710476Y-31545056D01*
X27710476Y-31545056D02*
X27758095Y-31640294D01*
X27758095Y-31640294D02*
X27805714Y-31830770D01*
X27805714Y-31830770D02*
X27805714Y-32068865D01*
X27805714Y-32068865D02*
X27758095Y-32259341D01*
X27758095Y-32259341D02*
X27710476Y-32354579D01*
X27710476Y-32354579D02*
X27662857Y-32402199D01*
X27662857Y-32402199D02*
X27567619Y-32449818D01*
X27567619Y-32449818D02*
X27472381Y-32449818D01*
X27472381Y-32449818D02*
X27377143Y-32402199D01*
X27377143Y-32402199D02*
X27329524Y-32354579D01*
X27329524Y-32354579D02*
X27281905Y-32259341D01*
X27281905Y-32259341D02*
X27234286Y-32068865D01*
X27234286Y-32068865D02*
X27234286Y-31830770D01*
X27234286Y-31830770D02*
X27281905Y-31640294D01*
X27281905Y-31640294D02*
X27329524Y-31545056D01*
X27329524Y-31545056D02*
X27377143Y-31497437D01*
X27377143Y-31497437D02*
X27472381Y-31449818D01*
X28139048Y-31449818D02*
X28758095Y-31449818D01*
X28758095Y-31449818D02*
X28424762Y-31830770D01*
X28424762Y-31830770D02*
X28567619Y-31830770D01*
X28567619Y-31830770D02*
X28662857Y-31878389D01*
X28662857Y-31878389D02*
X28710476Y-31926008D01*
X28710476Y-31926008D02*
X28758095Y-32021246D01*
X28758095Y-32021246D02*
X28758095Y-32259341D01*
X28758095Y-32259341D02*
X28710476Y-32354579D01*
X28710476Y-32354579D02*
X28662857Y-32402199D01*
X28662857Y-32402199D02*
X28567619Y-32449818D01*
X28567619Y-32449818D02*
X28281905Y-32449818D01*
X28281905Y-32449818D02*
X28186667Y-32402199D01*
X28186667Y-32402199D02*
X28139048Y-32354579D01*
X20619819Y-36764047D02*
X20619819Y-37240237D01*
X20619819Y-37240237D02*
X19619819Y-37240237D01*
X20619819Y-35906904D02*
X20619819Y-36478332D01*
X20619819Y-36192618D02*
X19619819Y-36192618D01*
X19619819Y-36192618D02*
X19762676Y-36287856D01*
X19762676Y-36287856D02*
X19857914Y-36383094D01*
X19857914Y-36383094D02*
X19905533Y-36478332D01*
X19619819Y-35287856D02*
X19619819Y-35192618D01*
X19619819Y-35192618D02*
X19667438Y-35097380D01*
X19667438Y-35097380D02*
X19715057Y-35049761D01*
X19715057Y-35049761D02*
X19810295Y-35002142D01*
X19810295Y-35002142D02*
X20000771Y-34954523D01*
X20000771Y-34954523D02*
X20238866Y-34954523D01*
X20238866Y-34954523D02*
X20429342Y-35002142D01*
X20429342Y-35002142D02*
X20524580Y-35049761D01*
X20524580Y-35049761D02*
X20572200Y-35097380D01*
X20572200Y-35097380D02*
X20619819Y-35192618D01*
X20619819Y-35192618D02*
X20619819Y-35287856D01*
X20619819Y-35287856D02*
X20572200Y-35383094D01*
X20572200Y-35383094D02*
X20524580Y-35430713D01*
X20524580Y-35430713D02*
X20429342Y-35478332D01*
X20429342Y-35478332D02*
X20238866Y-35525951D01*
X20238866Y-35525951D02*
X20000771Y-35525951D01*
X20000771Y-35525951D02*
X19810295Y-35478332D01*
X19810295Y-35478332D02*
X19715057Y-35430713D01*
X19715057Y-35430713D02*
X19667438Y-35383094D01*
X19667438Y-35383094D02*
X19619819Y-35287856D01*
X19715057Y-34573570D02*
X19667438Y-34525951D01*
X19667438Y-34525951D02*
X19619819Y-34430713D01*
X19619819Y-34430713D02*
X19619819Y-34192618D01*
X19619819Y-34192618D02*
X19667438Y-34097380D01*
X19667438Y-34097380D02*
X19715057Y-34049761D01*
X19715057Y-34049761D02*
X19810295Y-34002142D01*
X19810295Y-34002142D02*
X19905533Y-34002142D01*
X19905533Y-34002142D02*
X20048390Y-34049761D01*
X20048390Y-34049761D02*
X20619819Y-34621189D01*
X20619819Y-34621189D02*
X20619819Y-34002142D01*
X35683452Y-61899580D02*
X35635833Y-61947200D01*
X35635833Y-61947200D02*
X35492976Y-61994819D01*
X35492976Y-61994819D02*
X35397738Y-61994819D01*
X35397738Y-61994819D02*
X35254881Y-61947200D01*
X35254881Y-61947200D02*
X35159643Y-61851961D01*
X35159643Y-61851961D02*
X35112024Y-61756723D01*
X35112024Y-61756723D02*
X35064405Y-61566247D01*
X35064405Y-61566247D02*
X35064405Y-61423390D01*
X35064405Y-61423390D02*
X35112024Y-61232914D01*
X35112024Y-61232914D02*
X35159643Y-61137676D01*
X35159643Y-61137676D02*
X35254881Y-61042438D01*
X35254881Y-61042438D02*
X35397738Y-60994819D01*
X35397738Y-60994819D02*
X35492976Y-60994819D01*
X35492976Y-60994819D02*
X35635833Y-61042438D01*
X35635833Y-61042438D02*
X35683452Y-61090057D01*
X36635833Y-61994819D02*
X36064405Y-61994819D01*
X36350119Y-61994819D02*
X36350119Y-60994819D01*
X36350119Y-60994819D02*
X36254881Y-61137676D01*
X36254881Y-61137676D02*
X36159643Y-61232914D01*
X36159643Y-61232914D02*
X36064405Y-61280533D01*
X37588214Y-61994819D02*
X37016786Y-61994819D01*
X37302500Y-61994819D02*
X37302500Y-60994819D01*
X37302500Y-60994819D02*
X37207262Y-61137676D01*
X37207262Y-61137676D02*
X37112024Y-61232914D01*
X37112024Y-61232914D02*
X37016786Y-61280533D01*
X37969167Y-61090057D02*
X38016786Y-61042438D01*
X38016786Y-61042438D02*
X38112024Y-60994819D01*
X38112024Y-60994819D02*
X38350119Y-60994819D01*
X38350119Y-60994819D02*
X38445357Y-61042438D01*
X38445357Y-61042438D02*
X38492976Y-61090057D01*
X38492976Y-61090057D02*
X38540595Y-61185295D01*
X38540595Y-61185295D02*
X38540595Y-61280533D01*
X38540595Y-61280533D02*
X38492976Y-61423390D01*
X38492976Y-61423390D02*
X37921548Y-61994819D01*
X37921548Y-61994819D02*
X38540595Y-61994819D01*
X24888095Y-70593866D02*
X25650000Y-70593866D01*
X26649999Y-70974819D02*
X26078571Y-70974819D01*
X26364285Y-70974819D02*
X26364285Y-69974819D01*
X26364285Y-69974819D02*
X26269047Y-70117676D01*
X26269047Y-70117676D02*
X26173809Y-70212914D01*
X26173809Y-70212914D02*
X26078571Y-70260533D01*
X27030952Y-70070057D02*
X27078571Y-70022438D01*
X27078571Y-70022438D02*
X27173809Y-69974819D01*
X27173809Y-69974819D02*
X27411904Y-69974819D01*
X27411904Y-69974819D02*
X27507142Y-70022438D01*
X27507142Y-70022438D02*
X27554761Y-70070057D01*
X27554761Y-70070057D02*
X27602380Y-70165295D01*
X27602380Y-70165295D02*
X27602380Y-70260533D01*
X27602380Y-70260533D02*
X27554761Y-70403390D01*
X27554761Y-70403390D02*
X26983333Y-70974819D01*
X26983333Y-70974819D02*
X27602380Y-70974819D01*
X27888095Y-69974819D02*
X28221428Y-70974819D01*
X28221428Y-70974819D02*
X28554761Y-69974819D01*
X7179524Y-1719819D02*
X7179524Y-719819D01*
X7179524Y-719819D02*
X7417619Y-719819D01*
X7417619Y-719819D02*
X7560476Y-767438D01*
X7560476Y-767438D02*
X7655714Y-862676D01*
X7655714Y-862676D02*
X7703333Y-957914D01*
X7703333Y-957914D02*
X7750952Y-1148390D01*
X7750952Y-1148390D02*
X7750952Y-1291247D01*
X7750952Y-1291247D02*
X7703333Y-1481723D01*
X7703333Y-1481723D02*
X7655714Y-1576961D01*
X7655714Y-1576961D02*
X7560476Y-1672200D01*
X7560476Y-1672200D02*
X7417619Y-1719819D01*
X7417619Y-1719819D02*
X7179524Y-1719819D01*
X8703333Y-1719819D02*
X8131905Y-1719819D01*
X8417619Y-1719819D02*
X8417619Y-719819D01*
X8417619Y-719819D02*
X8322381Y-862676D01*
X8322381Y-862676D02*
X8227143Y-957914D01*
X8227143Y-957914D02*
X8131905Y-1005533D01*
X9322381Y-719819D02*
X9417619Y-719819D01*
X9417619Y-719819D02*
X9512857Y-767438D01*
X9512857Y-767438D02*
X9560476Y-815057D01*
X9560476Y-815057D02*
X9608095Y-910295D01*
X9608095Y-910295D02*
X9655714Y-1100771D01*
X9655714Y-1100771D02*
X9655714Y-1338866D01*
X9655714Y-1338866D02*
X9608095Y-1529342D01*
X9608095Y-1529342D02*
X9560476Y-1624580D01*
X9560476Y-1624580D02*
X9512857Y-1672200D01*
X9512857Y-1672200D02*
X9417619Y-1719819D01*
X9417619Y-1719819D02*
X9322381Y-1719819D01*
X9322381Y-1719819D02*
X9227143Y-1672200D01*
X9227143Y-1672200D02*
X9179524Y-1624580D01*
X9179524Y-1624580D02*
X9131905Y-1529342D01*
X9131905Y-1529342D02*
X9084286Y-1338866D01*
X9084286Y-1338866D02*
X9084286Y-1100771D01*
X9084286Y-1100771D02*
X9131905Y-910295D01*
X9131905Y-910295D02*
X9179524Y-815057D01*
X9179524Y-815057D02*
X9227143Y-767438D01*
X9227143Y-767438D02*
X9322381Y-719819D01*
X10036667Y-815057D02*
X10084286Y-767438D01*
X10084286Y-767438D02*
X10179524Y-719819D01*
X10179524Y-719819D02*
X10417619Y-719819D01*
X10417619Y-719819D02*
X10512857Y-767438D01*
X10512857Y-767438D02*
X10560476Y-815057D01*
X10560476Y-815057D02*
X10608095Y-910295D01*
X10608095Y-910295D02*
X10608095Y-1005533D01*
X10608095Y-1005533D02*
X10560476Y-1148390D01*
X10560476Y-1148390D02*
X9989048Y-1719819D01*
X9989048Y-1719819D02*
X10608095Y-1719819D01*
X30110952Y-45509581D02*
X30063333Y-45557201D01*
X30063333Y-45557201D02*
X29920476Y-45604820D01*
X29920476Y-45604820D02*
X29825238Y-45604820D01*
X29825238Y-45604820D02*
X29682381Y-45557201D01*
X29682381Y-45557201D02*
X29587143Y-45461962D01*
X29587143Y-45461962D02*
X29539524Y-45366724D01*
X29539524Y-45366724D02*
X29491905Y-45176248D01*
X29491905Y-45176248D02*
X29491905Y-45033391D01*
X29491905Y-45033391D02*
X29539524Y-44842915D01*
X29539524Y-44842915D02*
X29587143Y-44747677D01*
X29587143Y-44747677D02*
X29682381Y-44652439D01*
X29682381Y-44652439D02*
X29825238Y-44604820D01*
X29825238Y-44604820D02*
X29920476Y-44604820D01*
X29920476Y-44604820D02*
X30063333Y-44652439D01*
X30063333Y-44652439D02*
X30110952Y-44700058D01*
X31063333Y-45604820D02*
X30491905Y-45604820D01*
X30777619Y-45604820D02*
X30777619Y-44604820D01*
X30777619Y-44604820D02*
X30682381Y-44747677D01*
X30682381Y-44747677D02*
X30587143Y-44842915D01*
X30587143Y-44842915D02*
X30491905Y-44890534D01*
X32015714Y-45604820D02*
X31444286Y-45604820D01*
X31730000Y-45604820D02*
X31730000Y-44604820D01*
X31730000Y-44604820D02*
X31634762Y-44747677D01*
X31634762Y-44747677D02*
X31539524Y-44842915D01*
X31539524Y-44842915D02*
X31444286Y-44890534D01*
X32349048Y-44604820D02*
X32968095Y-44604820D01*
X32968095Y-44604820D02*
X32634762Y-44985772D01*
X32634762Y-44985772D02*
X32777619Y-44985772D01*
X32777619Y-44985772D02*
X32872857Y-45033391D01*
X32872857Y-45033391D02*
X32920476Y-45081010D01*
X32920476Y-45081010D02*
X32968095Y-45176248D01*
X32968095Y-45176248D02*
X32968095Y-45414343D01*
X32968095Y-45414343D02*
X32920476Y-45509581D01*
X32920476Y-45509581D02*
X32872857Y-45557201D01*
X32872857Y-45557201D02*
X32777619Y-45604820D01*
X32777619Y-45604820D02*
X32491905Y-45604820D01*
X32491905Y-45604820D02*
X32396667Y-45557201D01*
X32396667Y-45557201D02*
X32349048Y-45509581D01*
X15950951Y-27399580D02*
X15903332Y-27447200D01*
X15903332Y-27447200D02*
X15760475Y-27494819D01*
X15760475Y-27494819D02*
X15665237Y-27494819D01*
X15665237Y-27494819D02*
X15522380Y-27447200D01*
X15522380Y-27447200D02*
X15427142Y-27351961D01*
X15427142Y-27351961D02*
X15379523Y-27256723D01*
X15379523Y-27256723D02*
X15331904Y-27066247D01*
X15331904Y-27066247D02*
X15331904Y-26923390D01*
X15331904Y-26923390D02*
X15379523Y-26732914D01*
X15379523Y-26732914D02*
X15427142Y-26637676D01*
X15427142Y-26637676D02*
X15522380Y-26542438D01*
X15522380Y-26542438D02*
X15665237Y-26494819D01*
X15665237Y-26494819D02*
X15760475Y-26494819D01*
X15760475Y-26494819D02*
X15903332Y-26542438D01*
X15903332Y-26542438D02*
X15950951Y-26590057D01*
X16903332Y-27494819D02*
X16331904Y-27494819D01*
X16617618Y-27494819D02*
X16617618Y-26494819D01*
X16617618Y-26494819D02*
X16522380Y-26637676D01*
X16522380Y-26637676D02*
X16427142Y-26732914D01*
X16427142Y-26732914D02*
X16331904Y-26780533D01*
X17522380Y-26494819D02*
X17617618Y-26494819D01*
X17617618Y-26494819D02*
X17712856Y-26542438D01*
X17712856Y-26542438D02*
X17760475Y-26590057D01*
X17760475Y-26590057D02*
X17808094Y-26685295D01*
X17808094Y-26685295D02*
X17855713Y-26875771D01*
X17855713Y-26875771D02*
X17855713Y-27113866D01*
X17855713Y-27113866D02*
X17808094Y-27304342D01*
X17808094Y-27304342D02*
X17760475Y-27399580D01*
X17760475Y-27399580D02*
X17712856Y-27447200D01*
X17712856Y-27447200D02*
X17617618Y-27494819D01*
X17617618Y-27494819D02*
X17522380Y-27494819D01*
X17522380Y-27494819D02*
X17427142Y-27447200D01*
X17427142Y-27447200D02*
X17379523Y-27399580D01*
X17379523Y-27399580D02*
X17331904Y-27304342D01*
X17331904Y-27304342D02*
X17284285Y-27113866D01*
X17284285Y-27113866D02*
X17284285Y-26875771D01*
X17284285Y-26875771D02*
X17331904Y-26685295D01*
X17331904Y-26685295D02*
X17379523Y-26590057D01*
X17379523Y-26590057D02*
X17427142Y-26542438D01*
X17427142Y-26542438D02*
X17522380Y-26494819D01*
X18712856Y-26828152D02*
X18712856Y-27494819D01*
X18474761Y-26447200D02*
X18236666Y-27161485D01*
X18236666Y-27161485D02*
X18855713Y-27161485D01*
X22275951Y-18924580D02*
X22228332Y-18972200D01*
X22228332Y-18972200D02*
X22085475Y-19019819D01*
X22085475Y-19019819D02*
X21990237Y-19019819D01*
X21990237Y-19019819D02*
X21847380Y-18972200D01*
X21847380Y-18972200D02*
X21752142Y-18876961D01*
X21752142Y-18876961D02*
X21704523Y-18781723D01*
X21704523Y-18781723D02*
X21656904Y-18591247D01*
X21656904Y-18591247D02*
X21656904Y-18448390D01*
X21656904Y-18448390D02*
X21704523Y-18257914D01*
X21704523Y-18257914D02*
X21752142Y-18162676D01*
X21752142Y-18162676D02*
X21847380Y-18067438D01*
X21847380Y-18067438D02*
X21990237Y-18019819D01*
X21990237Y-18019819D02*
X22085475Y-18019819D01*
X22085475Y-18019819D02*
X22228332Y-18067438D01*
X22228332Y-18067438D02*
X22275951Y-18115057D01*
X23228332Y-19019819D02*
X22656904Y-19019819D01*
X22942618Y-19019819D02*
X22942618Y-18019819D01*
X22942618Y-18019819D02*
X22847380Y-18162676D01*
X22847380Y-18162676D02*
X22752142Y-18257914D01*
X22752142Y-18257914D02*
X22656904Y-18305533D01*
X23847380Y-18019819D02*
X23942618Y-18019819D01*
X23942618Y-18019819D02*
X24037856Y-18067438D01*
X24037856Y-18067438D02*
X24085475Y-18115057D01*
X24085475Y-18115057D02*
X24133094Y-18210295D01*
X24133094Y-18210295D02*
X24180713Y-18400771D01*
X24180713Y-18400771D02*
X24180713Y-18638866D01*
X24180713Y-18638866D02*
X24133094Y-18829342D01*
X24133094Y-18829342D02*
X24085475Y-18924580D01*
X24085475Y-18924580D02*
X24037856Y-18972200D01*
X24037856Y-18972200D02*
X23942618Y-19019819D01*
X23942618Y-19019819D02*
X23847380Y-19019819D01*
X23847380Y-19019819D02*
X23752142Y-18972200D01*
X23752142Y-18972200D02*
X23704523Y-18924580D01*
X23704523Y-18924580D02*
X23656904Y-18829342D01*
X23656904Y-18829342D02*
X23609285Y-18638866D01*
X23609285Y-18638866D02*
X23609285Y-18400771D01*
X23609285Y-18400771D02*
X23656904Y-18210295D01*
X23656904Y-18210295D02*
X23704523Y-18115057D01*
X23704523Y-18115057D02*
X23752142Y-18067438D01*
X23752142Y-18067438D02*
X23847380Y-18019819D01*
X25133094Y-19019819D02*
X24561666Y-19019819D01*
X24847380Y-19019819D02*
X24847380Y-18019819D01*
X24847380Y-18019819D02*
X24752142Y-18162676D01*
X24752142Y-18162676D02*
X24656904Y-18257914D01*
X24656904Y-18257914D02*
X24561666Y-18305533D01*
X11400952Y-12484819D02*
X11067619Y-12008628D01*
X10829524Y-12484819D02*
X10829524Y-11484819D01*
X10829524Y-11484819D02*
X11210476Y-11484819D01*
X11210476Y-11484819D02*
X11305714Y-11532438D01*
X11305714Y-11532438D02*
X11353333Y-11580057D01*
X11353333Y-11580057D02*
X11400952Y-11675295D01*
X11400952Y-11675295D02*
X11400952Y-11818152D01*
X11400952Y-11818152D02*
X11353333Y-11913390D01*
X11353333Y-11913390D02*
X11305714Y-11961009D01*
X11305714Y-11961009D02*
X11210476Y-12008628D01*
X11210476Y-12008628D02*
X10829524Y-12008628D01*
X12353333Y-12484819D02*
X11781905Y-12484819D01*
X12067619Y-12484819D02*
X12067619Y-11484819D01*
X12067619Y-11484819D02*
X11972381Y-11627676D01*
X11972381Y-11627676D02*
X11877143Y-11722914D01*
X11877143Y-11722914D02*
X11781905Y-11770533D01*
X12972381Y-11484819D02*
X13067619Y-11484819D01*
X13067619Y-11484819D02*
X13162857Y-11532438D01*
X13162857Y-11532438D02*
X13210476Y-11580057D01*
X13210476Y-11580057D02*
X13258095Y-11675295D01*
X13258095Y-11675295D02*
X13305714Y-11865771D01*
X13305714Y-11865771D02*
X13305714Y-12103866D01*
X13305714Y-12103866D02*
X13258095Y-12294342D01*
X13258095Y-12294342D02*
X13210476Y-12389580D01*
X13210476Y-12389580D02*
X13162857Y-12437200D01*
X13162857Y-12437200D02*
X13067619Y-12484819D01*
X13067619Y-12484819D02*
X12972381Y-12484819D01*
X12972381Y-12484819D02*
X12877143Y-12437200D01*
X12877143Y-12437200D02*
X12829524Y-12389580D01*
X12829524Y-12389580D02*
X12781905Y-12294342D01*
X12781905Y-12294342D02*
X12734286Y-12103866D01*
X12734286Y-12103866D02*
X12734286Y-11865771D01*
X12734286Y-11865771D02*
X12781905Y-11675295D01*
X12781905Y-11675295D02*
X12829524Y-11580057D01*
X12829524Y-11580057D02*
X12877143Y-11532438D01*
X12877143Y-11532438D02*
X12972381Y-11484819D01*
X14162857Y-11484819D02*
X13972381Y-11484819D01*
X13972381Y-11484819D02*
X13877143Y-11532438D01*
X13877143Y-11532438D02*
X13829524Y-11580057D01*
X13829524Y-11580057D02*
X13734286Y-11722914D01*
X13734286Y-11722914D02*
X13686667Y-11913390D01*
X13686667Y-11913390D02*
X13686667Y-12294342D01*
X13686667Y-12294342D02*
X13734286Y-12389580D01*
X13734286Y-12389580D02*
X13781905Y-12437200D01*
X13781905Y-12437200D02*
X13877143Y-12484819D01*
X13877143Y-12484819D02*
X14067619Y-12484819D01*
X14067619Y-12484819D02*
X14162857Y-12437200D01*
X14162857Y-12437200D02*
X14210476Y-12389580D01*
X14210476Y-12389580D02*
X14258095Y-12294342D01*
X14258095Y-12294342D02*
X14258095Y-12056247D01*
X14258095Y-12056247D02*
X14210476Y-11961009D01*
X14210476Y-11961009D02*
X14162857Y-11913390D01*
X14162857Y-11913390D02*
X14067619Y-11865771D01*
X14067619Y-11865771D02*
X13877143Y-11865771D01*
X13877143Y-11865771D02*
X13781905Y-11913390D01*
X13781905Y-11913390D02*
X13734286Y-11961009D01*
X13734286Y-11961009D02*
X13686667Y-12056247D01*
X1529524Y-1669819D02*
X1529524Y-669819D01*
X1529524Y-669819D02*
X1767619Y-669819D01*
X1767619Y-669819D02*
X1910476Y-717438D01*
X1910476Y-717438D02*
X2005714Y-812676D01*
X2005714Y-812676D02*
X2053333Y-907914D01*
X2053333Y-907914D02*
X2100952Y-1098390D01*
X2100952Y-1098390D02*
X2100952Y-1241247D01*
X2100952Y-1241247D02*
X2053333Y-1431723D01*
X2053333Y-1431723D02*
X2005714Y-1526961D01*
X2005714Y-1526961D02*
X1910476Y-1622200D01*
X1910476Y-1622200D02*
X1767619Y-1669819D01*
X1767619Y-1669819D02*
X1529524Y-1669819D01*
X3053333Y-1669819D02*
X2481905Y-1669819D01*
X2767619Y-1669819D02*
X2767619Y-669819D01*
X2767619Y-669819D02*
X2672381Y-812676D01*
X2672381Y-812676D02*
X2577143Y-907914D01*
X2577143Y-907914D02*
X2481905Y-955533D01*
X3672381Y-669819D02*
X3767619Y-669819D01*
X3767619Y-669819D02*
X3862857Y-717438D01*
X3862857Y-717438D02*
X3910476Y-765057D01*
X3910476Y-765057D02*
X3958095Y-860295D01*
X3958095Y-860295D02*
X4005714Y-1050771D01*
X4005714Y-1050771D02*
X4005714Y-1288866D01*
X4005714Y-1288866D02*
X3958095Y-1479342D01*
X3958095Y-1479342D02*
X3910476Y-1574580D01*
X3910476Y-1574580D02*
X3862857Y-1622200D01*
X3862857Y-1622200D02*
X3767619Y-1669819D01*
X3767619Y-1669819D02*
X3672381Y-1669819D01*
X3672381Y-1669819D02*
X3577143Y-1622200D01*
X3577143Y-1622200D02*
X3529524Y-1574580D01*
X3529524Y-1574580D02*
X3481905Y-1479342D01*
X3481905Y-1479342D02*
X3434286Y-1288866D01*
X3434286Y-1288866D02*
X3434286Y-1050771D01*
X3434286Y-1050771D02*
X3481905Y-860295D01*
X3481905Y-860295D02*
X3529524Y-765057D01*
X3529524Y-765057D02*
X3577143Y-717438D01*
X3577143Y-717438D02*
X3672381Y-669819D01*
X4958095Y-1669819D02*
X4386667Y-1669819D01*
X4672381Y-1669819D02*
X4672381Y-669819D01*
X4672381Y-669819D02*
X4577143Y-812676D01*
X4577143Y-812676D02*
X4481905Y-907914D01*
X4481905Y-907914D02*
X4386667Y-955533D01*
X41569524Y-14494819D02*
X41569524Y-13494819D01*
X41569524Y-13494819D02*
X41807619Y-13494819D01*
X41807619Y-13494819D02*
X41950476Y-13542438D01*
X41950476Y-13542438D02*
X42045714Y-13637676D01*
X42045714Y-13637676D02*
X42093333Y-13732914D01*
X42093333Y-13732914D02*
X42140952Y-13923390D01*
X42140952Y-13923390D02*
X42140952Y-14066247D01*
X42140952Y-14066247D02*
X42093333Y-14256723D01*
X42093333Y-14256723D02*
X42045714Y-14351961D01*
X42045714Y-14351961D02*
X41950476Y-14447200D01*
X41950476Y-14447200D02*
X41807619Y-14494819D01*
X41807619Y-14494819D02*
X41569524Y-14494819D01*
X43093333Y-14494819D02*
X42521905Y-14494819D01*
X42807619Y-14494819D02*
X42807619Y-13494819D01*
X42807619Y-13494819D02*
X42712381Y-13637676D01*
X42712381Y-13637676D02*
X42617143Y-13732914D01*
X42617143Y-13732914D02*
X42521905Y-13780533D01*
X43712381Y-13494819D02*
X43807619Y-13494819D01*
X43807619Y-13494819D02*
X43902857Y-13542438D01*
X43902857Y-13542438D02*
X43950476Y-13590057D01*
X43950476Y-13590057D02*
X43998095Y-13685295D01*
X43998095Y-13685295D02*
X44045714Y-13875771D01*
X44045714Y-13875771D02*
X44045714Y-14113866D01*
X44045714Y-14113866D02*
X43998095Y-14304342D01*
X43998095Y-14304342D02*
X43950476Y-14399580D01*
X43950476Y-14399580D02*
X43902857Y-14447200D01*
X43902857Y-14447200D02*
X43807619Y-14494819D01*
X43807619Y-14494819D02*
X43712381Y-14494819D01*
X43712381Y-14494819D02*
X43617143Y-14447200D01*
X43617143Y-14447200D02*
X43569524Y-14399580D01*
X43569524Y-14399580D02*
X43521905Y-14304342D01*
X43521905Y-14304342D02*
X43474286Y-14113866D01*
X43474286Y-14113866D02*
X43474286Y-13875771D01*
X43474286Y-13875771D02*
X43521905Y-13685295D01*
X43521905Y-13685295D02*
X43569524Y-13590057D01*
X43569524Y-13590057D02*
X43617143Y-13542438D01*
X43617143Y-13542438D02*
X43712381Y-13494819D01*
X44521905Y-14494819D02*
X44712381Y-14494819D01*
X44712381Y-14494819D02*
X44807619Y-14447200D01*
X44807619Y-14447200D02*
X44855238Y-14399580D01*
X44855238Y-14399580D02*
X44950476Y-14256723D01*
X44950476Y-14256723D02*
X44998095Y-14066247D01*
X44998095Y-14066247D02*
X44998095Y-13685295D01*
X44998095Y-13685295D02*
X44950476Y-13590057D01*
X44950476Y-13590057D02*
X44902857Y-13542438D01*
X44902857Y-13542438D02*
X44807619Y-13494819D01*
X44807619Y-13494819D02*
X44617143Y-13494819D01*
X44617143Y-13494819D02*
X44521905Y-13542438D01*
X44521905Y-13542438D02*
X44474286Y-13590057D01*
X44474286Y-13590057D02*
X44426667Y-13685295D01*
X44426667Y-13685295D02*
X44426667Y-13923390D01*
X44426667Y-13923390D02*
X44474286Y-14018628D01*
X44474286Y-14018628D02*
X44521905Y-14066247D01*
X44521905Y-14066247D02*
X44617143Y-14113866D01*
X44617143Y-14113866D02*
X44807619Y-14113866D01*
X44807619Y-14113866D02*
X44902857Y-14066247D01*
X44902857Y-14066247D02*
X44950476Y-14018628D01*
X44950476Y-14018628D02*
X44998095Y-13923390D01*
X18679580Y-13844047D02*
X18727200Y-13891666D01*
X18727200Y-13891666D02*
X18774819Y-14034523D01*
X18774819Y-14034523D02*
X18774819Y-14129761D01*
X18774819Y-14129761D02*
X18727200Y-14272618D01*
X18727200Y-14272618D02*
X18631961Y-14367856D01*
X18631961Y-14367856D02*
X18536723Y-14415475D01*
X18536723Y-14415475D02*
X18346247Y-14463094D01*
X18346247Y-14463094D02*
X18203390Y-14463094D01*
X18203390Y-14463094D02*
X18012914Y-14415475D01*
X18012914Y-14415475D02*
X17917676Y-14367856D01*
X17917676Y-14367856D02*
X17822438Y-14272618D01*
X17822438Y-14272618D02*
X17774819Y-14129761D01*
X17774819Y-14129761D02*
X17774819Y-14034523D01*
X17774819Y-14034523D02*
X17822438Y-13891666D01*
X17822438Y-13891666D02*
X17870057Y-13844047D01*
X18774819Y-12891666D02*
X18774819Y-13463094D01*
X18774819Y-13177380D02*
X17774819Y-13177380D01*
X17774819Y-13177380D02*
X17917676Y-13272618D01*
X17917676Y-13272618D02*
X18012914Y-13367856D01*
X18012914Y-13367856D02*
X18060533Y-13463094D01*
X17774819Y-12272618D02*
X17774819Y-12177380D01*
X17774819Y-12177380D02*
X17822438Y-12082142D01*
X17822438Y-12082142D02*
X17870057Y-12034523D01*
X17870057Y-12034523D02*
X17965295Y-11986904D01*
X17965295Y-11986904D02*
X18155771Y-11939285D01*
X18155771Y-11939285D02*
X18393866Y-11939285D01*
X18393866Y-11939285D02*
X18584342Y-11986904D01*
X18584342Y-11986904D02*
X18679580Y-12034523D01*
X18679580Y-12034523D02*
X18727200Y-12082142D01*
X18727200Y-12082142D02*
X18774819Y-12177380D01*
X18774819Y-12177380D02*
X18774819Y-12272618D01*
X18774819Y-12272618D02*
X18727200Y-12367856D01*
X18727200Y-12367856D02*
X18679580Y-12415475D01*
X18679580Y-12415475D02*
X18584342Y-12463094D01*
X18584342Y-12463094D02*
X18393866Y-12510713D01*
X18393866Y-12510713D02*
X18155771Y-12510713D01*
X18155771Y-12510713D02*
X17965295Y-12463094D01*
X17965295Y-12463094D02*
X17870057Y-12415475D01*
X17870057Y-12415475D02*
X17822438Y-12367856D01*
X17822438Y-12367856D02*
X17774819Y-12272618D01*
X17774819Y-11082142D02*
X17774819Y-11272618D01*
X17774819Y-11272618D02*
X17822438Y-11367856D01*
X17822438Y-11367856D02*
X17870057Y-11415475D01*
X17870057Y-11415475D02*
X18012914Y-11510713D01*
X18012914Y-11510713D02*
X18203390Y-11558332D01*
X18203390Y-11558332D02*
X18584342Y-11558332D01*
X18584342Y-11558332D02*
X18679580Y-11510713D01*
X18679580Y-11510713D02*
X18727200Y-11463094D01*
X18727200Y-11463094D02*
X18774819Y-11367856D01*
X18774819Y-11367856D02*
X18774819Y-11177380D01*
X18774819Y-11177380D02*
X18727200Y-11082142D01*
X18727200Y-11082142D02*
X18679580Y-11034523D01*
X18679580Y-11034523D02*
X18584342Y-10986904D01*
X18584342Y-10986904D02*
X18346247Y-10986904D01*
X18346247Y-10986904D02*
X18251009Y-11034523D01*
X18251009Y-11034523D02*
X18203390Y-11082142D01*
X18203390Y-11082142D02*
X18155771Y-11177380D01*
X18155771Y-11177380D02*
X18155771Y-11367856D01*
X18155771Y-11367856D02*
X18203390Y-11463094D01*
X18203390Y-11463094D02*
X18251009Y-11510713D01*
X18251009Y-11510713D02*
X18346247Y-11558332D01*
X20225951Y-27824580D02*
X20178332Y-27872200D01*
X20178332Y-27872200D02*
X20035475Y-27919819D01*
X20035475Y-27919819D02*
X19940237Y-27919819D01*
X19940237Y-27919819D02*
X19797380Y-27872200D01*
X19797380Y-27872200D02*
X19702142Y-27776961D01*
X19702142Y-27776961D02*
X19654523Y-27681723D01*
X19654523Y-27681723D02*
X19606904Y-27491247D01*
X19606904Y-27491247D02*
X19606904Y-27348390D01*
X19606904Y-27348390D02*
X19654523Y-27157914D01*
X19654523Y-27157914D02*
X19702142Y-27062676D01*
X19702142Y-27062676D02*
X19797380Y-26967438D01*
X19797380Y-26967438D02*
X19940237Y-26919819D01*
X19940237Y-26919819D02*
X20035475Y-26919819D01*
X20035475Y-26919819D02*
X20178332Y-26967438D01*
X20178332Y-26967438D02*
X20225951Y-27015057D01*
X21178332Y-27919819D02*
X20606904Y-27919819D01*
X20892618Y-27919819D02*
X20892618Y-26919819D01*
X20892618Y-26919819D02*
X20797380Y-27062676D01*
X20797380Y-27062676D02*
X20702142Y-27157914D01*
X20702142Y-27157914D02*
X20606904Y-27205533D01*
X21797380Y-26919819D02*
X21892618Y-26919819D01*
X21892618Y-26919819D02*
X21987856Y-26967438D01*
X21987856Y-26967438D02*
X22035475Y-27015057D01*
X22035475Y-27015057D02*
X22083094Y-27110295D01*
X22083094Y-27110295D02*
X22130713Y-27300771D01*
X22130713Y-27300771D02*
X22130713Y-27538866D01*
X22130713Y-27538866D02*
X22083094Y-27729342D01*
X22083094Y-27729342D02*
X22035475Y-27824580D01*
X22035475Y-27824580D02*
X21987856Y-27872200D01*
X21987856Y-27872200D02*
X21892618Y-27919819D01*
X21892618Y-27919819D02*
X21797380Y-27919819D01*
X21797380Y-27919819D02*
X21702142Y-27872200D01*
X21702142Y-27872200D02*
X21654523Y-27824580D01*
X21654523Y-27824580D02*
X21606904Y-27729342D01*
X21606904Y-27729342D02*
X21559285Y-27538866D01*
X21559285Y-27538866D02*
X21559285Y-27300771D01*
X21559285Y-27300771D02*
X21606904Y-27110295D01*
X21606904Y-27110295D02*
X21654523Y-27015057D01*
X21654523Y-27015057D02*
X21702142Y-26967438D01*
X21702142Y-26967438D02*
X21797380Y-26919819D01*
X22702142Y-27348390D02*
X22606904Y-27300771D01*
X22606904Y-27300771D02*
X22559285Y-27253152D01*
X22559285Y-27253152D02*
X22511666Y-27157914D01*
X22511666Y-27157914D02*
X22511666Y-27110295D01*
X22511666Y-27110295D02*
X22559285Y-27015057D01*
X22559285Y-27015057D02*
X22606904Y-26967438D01*
X22606904Y-26967438D02*
X22702142Y-26919819D01*
X22702142Y-26919819D02*
X22892618Y-26919819D01*
X22892618Y-26919819D02*
X22987856Y-26967438D01*
X22987856Y-26967438D02*
X23035475Y-27015057D01*
X23035475Y-27015057D02*
X23083094Y-27110295D01*
X23083094Y-27110295D02*
X23083094Y-27157914D01*
X23083094Y-27157914D02*
X23035475Y-27253152D01*
X23035475Y-27253152D02*
X22987856Y-27300771D01*
X22987856Y-27300771D02*
X22892618Y-27348390D01*
X22892618Y-27348390D02*
X22702142Y-27348390D01*
X22702142Y-27348390D02*
X22606904Y-27396009D01*
X22606904Y-27396009D02*
X22559285Y-27443628D01*
X22559285Y-27443628D02*
X22511666Y-27538866D01*
X22511666Y-27538866D02*
X22511666Y-27729342D01*
X22511666Y-27729342D02*
X22559285Y-27824580D01*
X22559285Y-27824580D02*
X22606904Y-27872200D01*
X22606904Y-27872200D02*
X22702142Y-27919819D01*
X22702142Y-27919819D02*
X22892618Y-27919819D01*
X22892618Y-27919819D02*
X22987856Y-27872200D01*
X22987856Y-27872200D02*
X23035475Y-27824580D01*
X23035475Y-27824580D02*
X23083094Y-27729342D01*
X23083094Y-27729342D02*
X23083094Y-27538866D01*
X23083094Y-27538866D02*
X23035475Y-27443628D01*
X23035475Y-27443628D02*
X22987856Y-27396009D01*
X22987856Y-27396009D02*
X22892618Y-27348390D01*
X6121905Y-12984819D02*
X6693333Y-12984819D01*
X6407619Y-13984819D02*
X6407619Y-12984819D01*
X7026667Y-13984819D02*
X7026667Y-12984819D01*
X7026667Y-13461009D02*
X7598095Y-13461009D01*
X7598095Y-13984819D02*
X7598095Y-12984819D01*
X8598095Y-13984819D02*
X8026667Y-13984819D01*
X8312381Y-13984819D02*
X8312381Y-12984819D01*
X8312381Y-12984819D02*
X8217143Y-13127676D01*
X8217143Y-13127676D02*
X8121905Y-13222914D01*
X8121905Y-13222914D02*
X8026667Y-13270533D01*
X9217143Y-12984819D02*
X9312381Y-12984819D01*
X9312381Y-12984819D02*
X9407619Y-13032438D01*
X9407619Y-13032438D02*
X9455238Y-13080057D01*
X9455238Y-13080057D02*
X9502857Y-13175295D01*
X9502857Y-13175295D02*
X9550476Y-13365771D01*
X9550476Y-13365771D02*
X9550476Y-13603866D01*
X9550476Y-13603866D02*
X9502857Y-13794342D01*
X9502857Y-13794342D02*
X9455238Y-13889580D01*
X9455238Y-13889580D02*
X9407619Y-13937200D01*
X9407619Y-13937200D02*
X9312381Y-13984819D01*
X9312381Y-13984819D02*
X9217143Y-13984819D01*
X9217143Y-13984819D02*
X9121905Y-13937200D01*
X9121905Y-13937200D02*
X9074286Y-13889580D01*
X9074286Y-13889580D02*
X9026667Y-13794342D01*
X9026667Y-13794342D02*
X8979048Y-13603866D01*
X8979048Y-13603866D02*
X8979048Y-13365771D01*
X8979048Y-13365771D02*
X9026667Y-13175295D01*
X9026667Y-13175295D02*
X9074286Y-13080057D01*
X9074286Y-13080057D02*
X9121905Y-13032438D01*
X9121905Y-13032438D02*
X9217143Y-12984819D01*
X10502857Y-13984819D02*
X9931429Y-13984819D01*
X10217143Y-13984819D02*
X10217143Y-12984819D01*
X10217143Y-12984819D02*
X10121905Y-13127676D01*
X10121905Y-13127676D02*
X10026667Y-13222914D01*
X10026667Y-13222914D02*
X9931429Y-13270533D01*
X7736190Y-27424819D02*
X8069523Y-28424819D01*
X8069523Y-28424819D02*
X8402856Y-27424819D01*
X9069523Y-27901009D02*
X9212380Y-27948628D01*
X9212380Y-27948628D02*
X9259999Y-27996247D01*
X9259999Y-27996247D02*
X9307618Y-28091485D01*
X9307618Y-28091485D02*
X9307618Y-28234342D01*
X9307618Y-28234342D02*
X9259999Y-28329580D01*
X9259999Y-28329580D02*
X9212380Y-28377200D01*
X9212380Y-28377200D02*
X9117142Y-28424819D01*
X9117142Y-28424819D02*
X8736190Y-28424819D01*
X8736190Y-28424819D02*
X8736190Y-27424819D01*
X8736190Y-27424819D02*
X9069523Y-27424819D01*
X9069523Y-27424819D02*
X9164761Y-27472438D01*
X9164761Y-27472438D02*
X9212380Y-27520057D01*
X9212380Y-27520057D02*
X9259999Y-27615295D01*
X9259999Y-27615295D02*
X9259999Y-27710533D01*
X9259999Y-27710533D02*
X9212380Y-27805771D01*
X9212380Y-27805771D02*
X9164761Y-27853390D01*
X9164761Y-27853390D02*
X9069523Y-27901009D01*
X9069523Y-27901009D02*
X8736190Y-27901009D01*
X9688571Y-28139104D02*
X10164761Y-28139104D01*
X9593333Y-28424819D02*
X9926666Y-27424819D01*
X9926666Y-27424819D02*
X10259999Y-28424819D01*
X10450476Y-27424819D02*
X11021904Y-27424819D01*
X10736190Y-28424819D02*
X10736190Y-27424819D01*
X11212381Y-27424819D02*
X11783809Y-27424819D01*
X11498095Y-28424819D02*
X11498095Y-27424819D01*
X26247024Y-15349819D02*
X26247024Y-14349819D01*
X26247024Y-14349819D02*
X26485119Y-14349819D01*
X26485119Y-14349819D02*
X26627976Y-14397438D01*
X26627976Y-14397438D02*
X26723214Y-14492676D01*
X26723214Y-14492676D02*
X26770833Y-14587914D01*
X26770833Y-14587914D02*
X26818452Y-14778390D01*
X26818452Y-14778390D02*
X26818452Y-14921247D01*
X26818452Y-14921247D02*
X26770833Y-15111723D01*
X26770833Y-15111723D02*
X26723214Y-15206961D01*
X26723214Y-15206961D02*
X26627976Y-15302200D01*
X26627976Y-15302200D02*
X26485119Y-15349819D01*
X26485119Y-15349819D02*
X26247024Y-15349819D01*
X27770833Y-15349819D02*
X27199405Y-15349819D01*
X27485119Y-15349819D02*
X27485119Y-14349819D01*
X27485119Y-14349819D02*
X27389881Y-14492676D01*
X27389881Y-14492676D02*
X27294643Y-14587914D01*
X27294643Y-14587914D02*
X27199405Y-14635533D01*
X28389881Y-14349819D02*
X28485119Y-14349819D01*
X28485119Y-14349819D02*
X28580357Y-14397438D01*
X28580357Y-14397438D02*
X28627976Y-14445057D01*
X28627976Y-14445057D02*
X28675595Y-14540295D01*
X28675595Y-14540295D02*
X28723214Y-14730771D01*
X28723214Y-14730771D02*
X28723214Y-14968866D01*
X28723214Y-14968866D02*
X28675595Y-15159342D01*
X28675595Y-15159342D02*
X28627976Y-15254580D01*
X28627976Y-15254580D02*
X28580357Y-15302200D01*
X28580357Y-15302200D02*
X28485119Y-15349819D01*
X28485119Y-15349819D02*
X28389881Y-15349819D01*
X28389881Y-15349819D02*
X28294643Y-15302200D01*
X28294643Y-15302200D02*
X28247024Y-15254580D01*
X28247024Y-15254580D02*
X28199405Y-15159342D01*
X28199405Y-15159342D02*
X28151786Y-14968866D01*
X28151786Y-14968866D02*
X28151786Y-14730771D01*
X28151786Y-14730771D02*
X28199405Y-14540295D01*
X28199405Y-14540295D02*
X28247024Y-14445057D01*
X28247024Y-14445057D02*
X28294643Y-14397438D01*
X28294643Y-14397438D02*
X28389881Y-14349819D01*
X29580357Y-14683152D02*
X29580357Y-15349819D01*
X29342262Y-14302200D02*
X29104167Y-15016485D01*
X29104167Y-15016485D02*
X29723214Y-15016485D01*
X4914285Y-28659819D02*
X4914285Y-29374104D01*
X4914285Y-29374104D02*
X4866666Y-29516961D01*
X4866666Y-29516961D02*
X4771428Y-29612200D01*
X4771428Y-29612200D02*
X4628571Y-29659819D01*
X4628571Y-29659819D02*
X4533333Y-29659819D01*
X5914285Y-29659819D02*
X5342857Y-29659819D01*
X5628571Y-29659819D02*
X5628571Y-28659819D01*
X5628571Y-28659819D02*
X5533333Y-28802676D01*
X5533333Y-28802676D02*
X5438095Y-28897914D01*
X5438095Y-28897914D02*
X5342857Y-28945533D01*
X6533333Y-28659819D02*
X6628571Y-28659819D01*
X6628571Y-28659819D02*
X6723809Y-28707438D01*
X6723809Y-28707438D02*
X6771428Y-28755057D01*
X6771428Y-28755057D02*
X6819047Y-28850295D01*
X6819047Y-28850295D02*
X6866666Y-29040771D01*
X6866666Y-29040771D02*
X6866666Y-29278866D01*
X6866666Y-29278866D02*
X6819047Y-29469342D01*
X6819047Y-29469342D02*
X6771428Y-29564580D01*
X6771428Y-29564580D02*
X6723809Y-29612200D01*
X6723809Y-29612200D02*
X6628571Y-29659819D01*
X6628571Y-29659819D02*
X6533333Y-29659819D01*
X6533333Y-29659819D02*
X6438095Y-29612200D01*
X6438095Y-29612200D02*
X6390476Y-29564580D01*
X6390476Y-29564580D02*
X6342857Y-29469342D01*
X6342857Y-29469342D02*
X6295238Y-29278866D01*
X6295238Y-29278866D02*
X6295238Y-29040771D01*
X6295238Y-29040771D02*
X6342857Y-28850295D01*
X6342857Y-28850295D02*
X6390476Y-28755057D01*
X6390476Y-28755057D02*
X6438095Y-28707438D01*
X6438095Y-28707438D02*
X6533333Y-28659819D01*
X7723809Y-28993152D02*
X7723809Y-29659819D01*
X7485714Y-28612200D02*
X7247619Y-29326485D01*
X7247619Y-29326485D02*
X7866666Y-29326485D01*
X34400952Y-41549579D02*
X34353333Y-41597199D01*
X34353333Y-41597199D02*
X34210476Y-41644818D01*
X34210476Y-41644818D02*
X34115238Y-41644818D01*
X34115238Y-41644818D02*
X33972381Y-41597199D01*
X33972381Y-41597199D02*
X33877143Y-41501960D01*
X33877143Y-41501960D02*
X33829524Y-41406722D01*
X33829524Y-41406722D02*
X33781905Y-41216246D01*
X33781905Y-41216246D02*
X33781905Y-41073389D01*
X33781905Y-41073389D02*
X33829524Y-40882913D01*
X33829524Y-40882913D02*
X33877143Y-40787675D01*
X33877143Y-40787675D02*
X33972381Y-40692437D01*
X33972381Y-40692437D02*
X34115238Y-40644818D01*
X34115238Y-40644818D02*
X34210476Y-40644818D01*
X34210476Y-40644818D02*
X34353333Y-40692437D01*
X34353333Y-40692437D02*
X34400952Y-40740056D01*
X35353333Y-41644818D02*
X34781905Y-41644818D01*
X35067619Y-41644818D02*
X35067619Y-40644818D01*
X35067619Y-40644818D02*
X34972381Y-40787675D01*
X34972381Y-40787675D02*
X34877143Y-40882913D01*
X34877143Y-40882913D02*
X34781905Y-40930532D01*
X36305714Y-41644818D02*
X35734286Y-41644818D01*
X36020000Y-41644818D02*
X36020000Y-40644818D01*
X36020000Y-40644818D02*
X35924762Y-40787675D01*
X35924762Y-40787675D02*
X35829524Y-40882913D01*
X35829524Y-40882913D02*
X35734286Y-40930532D01*
X37162857Y-40644818D02*
X36972381Y-40644818D01*
X36972381Y-40644818D02*
X36877143Y-40692437D01*
X36877143Y-40692437D02*
X36829524Y-40740056D01*
X36829524Y-40740056D02*
X36734286Y-40882913D01*
X36734286Y-40882913D02*
X36686667Y-41073389D01*
X36686667Y-41073389D02*
X36686667Y-41454341D01*
X36686667Y-41454341D02*
X36734286Y-41549579D01*
X36734286Y-41549579D02*
X36781905Y-41597199D01*
X36781905Y-41597199D02*
X36877143Y-41644818D01*
X36877143Y-41644818D02*
X37067619Y-41644818D01*
X37067619Y-41644818D02*
X37162857Y-41597199D01*
X37162857Y-41597199D02*
X37210476Y-41549579D01*
X37210476Y-41549579D02*
X37258095Y-41454341D01*
X37258095Y-41454341D02*
X37258095Y-41216246D01*
X37258095Y-41216246D02*
X37210476Y-41121008D01*
X37210476Y-41121008D02*
X37162857Y-41073389D01*
X37162857Y-41073389D02*
X37067619Y-41025770D01*
X37067619Y-41025770D02*
X36877143Y-41025770D01*
X36877143Y-41025770D02*
X36781905Y-41073389D01*
X36781905Y-41073389D02*
X36734286Y-41121008D01*
X36734286Y-41121008D02*
X36686667Y-41216246D01*
X19690952Y-59849580D02*
X19643333Y-59897200D01*
X19643333Y-59897200D02*
X19500476Y-59944819D01*
X19500476Y-59944819D02*
X19405238Y-59944819D01*
X19405238Y-59944819D02*
X19262381Y-59897200D01*
X19262381Y-59897200D02*
X19167143Y-59801961D01*
X19167143Y-59801961D02*
X19119524Y-59706723D01*
X19119524Y-59706723D02*
X19071905Y-59516247D01*
X19071905Y-59516247D02*
X19071905Y-59373390D01*
X19071905Y-59373390D02*
X19119524Y-59182914D01*
X19119524Y-59182914D02*
X19167143Y-59087676D01*
X19167143Y-59087676D02*
X19262381Y-58992438D01*
X19262381Y-58992438D02*
X19405238Y-58944819D01*
X19405238Y-58944819D02*
X19500476Y-58944819D01*
X19500476Y-58944819D02*
X19643333Y-58992438D01*
X19643333Y-58992438D02*
X19690952Y-59040057D01*
X20643333Y-59944819D02*
X20071905Y-59944819D01*
X20357619Y-59944819D02*
X20357619Y-58944819D01*
X20357619Y-58944819D02*
X20262381Y-59087676D01*
X20262381Y-59087676D02*
X20167143Y-59182914D01*
X20167143Y-59182914D02*
X20071905Y-59230533D01*
X21595714Y-59944819D02*
X21024286Y-59944819D01*
X21310000Y-59944819D02*
X21310000Y-58944819D01*
X21310000Y-58944819D02*
X21214762Y-59087676D01*
X21214762Y-59087676D02*
X21119524Y-59182914D01*
X21119524Y-59182914D02*
X21024286Y-59230533D01*
X22548095Y-59944819D02*
X21976667Y-59944819D01*
X22262381Y-59944819D02*
X22262381Y-58944819D01*
X22262381Y-58944819D02*
X22167143Y-59087676D01*
X22167143Y-59087676D02*
X22071905Y-59182914D01*
X22071905Y-59182914D02*
X21976667Y-59230533D01*
X32829285Y-20909819D02*
X32829285Y-21624104D01*
X32829285Y-21624104D02*
X32781666Y-21766961D01*
X32781666Y-21766961D02*
X32686428Y-21862200D01*
X32686428Y-21862200D02*
X32543571Y-21909819D01*
X32543571Y-21909819D02*
X32448333Y-21909819D01*
X33305476Y-21909819D02*
X33305476Y-20909819D01*
X33305476Y-20909819D02*
X33686428Y-20909819D01*
X33686428Y-20909819D02*
X33781666Y-20957438D01*
X33781666Y-20957438D02*
X33829285Y-21005057D01*
X33829285Y-21005057D02*
X33876904Y-21100295D01*
X33876904Y-21100295D02*
X33876904Y-21243152D01*
X33876904Y-21243152D02*
X33829285Y-21338390D01*
X33829285Y-21338390D02*
X33781666Y-21386009D01*
X33781666Y-21386009D02*
X33686428Y-21433628D01*
X33686428Y-21433628D02*
X33305476Y-21433628D01*
X34829285Y-21909819D02*
X34257857Y-21909819D01*
X34543571Y-21909819D02*
X34543571Y-20909819D01*
X34543571Y-20909819D02*
X34448333Y-21052676D01*
X34448333Y-21052676D02*
X34353095Y-21147914D01*
X34353095Y-21147914D02*
X34257857Y-21195533D01*
X35448333Y-20909819D02*
X35543571Y-20909819D01*
X35543571Y-20909819D02*
X35638809Y-20957438D01*
X35638809Y-20957438D02*
X35686428Y-21005057D01*
X35686428Y-21005057D02*
X35734047Y-21100295D01*
X35734047Y-21100295D02*
X35781666Y-21290771D01*
X35781666Y-21290771D02*
X35781666Y-21528866D01*
X35781666Y-21528866D02*
X35734047Y-21719342D01*
X35734047Y-21719342D02*
X35686428Y-21814580D01*
X35686428Y-21814580D02*
X35638809Y-21862200D01*
X35638809Y-21862200D02*
X35543571Y-21909819D01*
X35543571Y-21909819D02*
X35448333Y-21909819D01*
X35448333Y-21909819D02*
X35353095Y-21862200D01*
X35353095Y-21862200D02*
X35305476Y-21814580D01*
X35305476Y-21814580D02*
X35257857Y-21719342D01*
X35257857Y-21719342D02*
X35210238Y-21528866D01*
X35210238Y-21528866D02*
X35210238Y-21290771D01*
X35210238Y-21290771D02*
X35257857Y-21100295D01*
X35257857Y-21100295D02*
X35305476Y-21005057D01*
X35305476Y-21005057D02*
X35353095Y-20957438D01*
X35353095Y-20957438D02*
X35448333Y-20909819D01*
X36734047Y-21909819D02*
X36162619Y-21909819D01*
X36448333Y-21909819D02*
X36448333Y-20909819D01*
X36448333Y-20909819D02*
X36353095Y-21052676D01*
X36353095Y-21052676D02*
X36257857Y-21147914D01*
X36257857Y-21147914D02*
X36162619Y-21195533D01*
X23264579Y-46019048D02*
X23312199Y-46066667D01*
X23312199Y-46066667D02*
X23359818Y-46209524D01*
X23359818Y-46209524D02*
X23359818Y-46304762D01*
X23359818Y-46304762D02*
X23312199Y-46447619D01*
X23312199Y-46447619D02*
X23216960Y-46542857D01*
X23216960Y-46542857D02*
X23121722Y-46590476D01*
X23121722Y-46590476D02*
X22931246Y-46638095D01*
X22931246Y-46638095D02*
X22788389Y-46638095D01*
X22788389Y-46638095D02*
X22597913Y-46590476D01*
X22597913Y-46590476D02*
X22502675Y-46542857D01*
X22502675Y-46542857D02*
X22407437Y-46447619D01*
X22407437Y-46447619D02*
X22359818Y-46304762D01*
X22359818Y-46304762D02*
X22359818Y-46209524D01*
X22359818Y-46209524D02*
X22407437Y-46066667D01*
X22407437Y-46066667D02*
X22455056Y-46019048D01*
X23359818Y-45066667D02*
X23359818Y-45638095D01*
X23359818Y-45352381D02*
X22359818Y-45352381D01*
X22359818Y-45352381D02*
X22502675Y-45447619D01*
X22502675Y-45447619D02*
X22597913Y-45542857D01*
X22597913Y-45542857D02*
X22645532Y-45638095D01*
X23359818Y-44114286D02*
X23359818Y-44685714D01*
X23359818Y-44400000D02*
X22359818Y-44400000D01*
X22359818Y-44400000D02*
X22502675Y-44495238D01*
X22502675Y-44495238D02*
X22597913Y-44590476D01*
X22597913Y-44590476D02*
X22645532Y-44685714D01*
X23359818Y-43638095D02*
X23359818Y-43447619D01*
X23359818Y-43447619D02*
X23312199Y-43352381D01*
X23312199Y-43352381D02*
X23264579Y-43304762D01*
X23264579Y-43304762D02*
X23121722Y-43209524D01*
X23121722Y-43209524D02*
X22931246Y-43161905D01*
X22931246Y-43161905D02*
X22550294Y-43161905D01*
X22550294Y-43161905D02*
X22455056Y-43209524D01*
X22455056Y-43209524D02*
X22407437Y-43257143D01*
X22407437Y-43257143D02*
X22359818Y-43352381D01*
X22359818Y-43352381D02*
X22359818Y-43542857D01*
X22359818Y-43542857D02*
X22407437Y-43638095D01*
X22407437Y-43638095D02*
X22455056Y-43685714D01*
X22455056Y-43685714D02*
X22550294Y-43733333D01*
X22550294Y-43733333D02*
X22788389Y-43733333D01*
X22788389Y-43733333D02*
X22883627Y-43685714D01*
X22883627Y-43685714D02*
X22931246Y-43638095D01*
X22931246Y-43638095D02*
X22978865Y-43542857D01*
X22978865Y-43542857D02*
X22978865Y-43352381D01*
X22978865Y-43352381D02*
X22931246Y-43257143D01*
X22931246Y-43257143D02*
X22883627Y-43209524D01*
X22883627Y-43209524D02*
X22788389Y-43161905D01*
X22254819Y-42410715D02*
X22969104Y-42410715D01*
X22969104Y-42410715D02*
X23111961Y-42458334D01*
X23111961Y-42458334D02*
X23207200Y-42553572D01*
X23207200Y-42553572D02*
X23254819Y-42696429D01*
X23254819Y-42696429D02*
X23254819Y-42791667D01*
X23254819Y-41934524D02*
X22254819Y-41934524D01*
X22254819Y-41934524D02*
X22254819Y-41553572D01*
X22254819Y-41553572D02*
X22302438Y-41458334D01*
X22302438Y-41458334D02*
X22350057Y-41410715D01*
X22350057Y-41410715D02*
X22445295Y-41363096D01*
X22445295Y-41363096D02*
X22588152Y-41363096D01*
X22588152Y-41363096D02*
X22683390Y-41410715D01*
X22683390Y-41410715D02*
X22731009Y-41458334D01*
X22731009Y-41458334D02*
X22778628Y-41553572D01*
X22778628Y-41553572D02*
X22778628Y-41934524D01*
X23254819Y-40410715D02*
X23254819Y-40982143D01*
X23254819Y-40696429D02*
X22254819Y-40696429D01*
X22254819Y-40696429D02*
X22397676Y-40791667D01*
X22397676Y-40791667D02*
X22492914Y-40886905D01*
X22492914Y-40886905D02*
X22540533Y-40982143D01*
X22254819Y-39791667D02*
X22254819Y-39696429D01*
X22254819Y-39696429D02*
X22302438Y-39601191D01*
X22302438Y-39601191D02*
X22350057Y-39553572D01*
X22350057Y-39553572D02*
X22445295Y-39505953D01*
X22445295Y-39505953D02*
X22635771Y-39458334D01*
X22635771Y-39458334D02*
X22873866Y-39458334D01*
X22873866Y-39458334D02*
X23064342Y-39505953D01*
X23064342Y-39505953D02*
X23159580Y-39553572D01*
X23159580Y-39553572D02*
X23207200Y-39601191D01*
X23207200Y-39601191D02*
X23254819Y-39696429D01*
X23254819Y-39696429D02*
X23254819Y-39791667D01*
X23254819Y-39791667D02*
X23207200Y-39886905D01*
X23207200Y-39886905D02*
X23159580Y-39934524D01*
X23159580Y-39934524D02*
X23064342Y-39982143D01*
X23064342Y-39982143D02*
X22873866Y-40029762D01*
X22873866Y-40029762D02*
X22635771Y-40029762D01*
X22635771Y-40029762D02*
X22445295Y-39982143D01*
X22445295Y-39982143D02*
X22350057Y-39934524D01*
X22350057Y-39934524D02*
X22302438Y-39886905D01*
X22302438Y-39886905D02*
X22254819Y-39791667D01*
X22588152Y-38601191D02*
X23254819Y-38601191D01*
X22207200Y-38839286D02*
X22921485Y-39077381D01*
X22921485Y-39077381D02*
X22921485Y-38458334D01*
X33672024Y-45424819D02*
X33672024Y-44424819D01*
X33672024Y-44424819D02*
X33910119Y-44424819D01*
X33910119Y-44424819D02*
X34052976Y-44472438D01*
X34052976Y-44472438D02*
X34148214Y-44567676D01*
X34148214Y-44567676D02*
X34195833Y-44662914D01*
X34195833Y-44662914D02*
X34243452Y-44853390D01*
X34243452Y-44853390D02*
X34243452Y-44996247D01*
X34243452Y-44996247D02*
X34195833Y-45186723D01*
X34195833Y-45186723D02*
X34148214Y-45281961D01*
X34148214Y-45281961D02*
X34052976Y-45377200D01*
X34052976Y-45377200D02*
X33910119Y-45424819D01*
X33910119Y-45424819D02*
X33672024Y-45424819D01*
X35195833Y-45424819D02*
X34624405Y-45424819D01*
X34910119Y-45424819D02*
X34910119Y-44424819D01*
X34910119Y-44424819D02*
X34814881Y-44567676D01*
X34814881Y-44567676D02*
X34719643Y-44662914D01*
X34719643Y-44662914D02*
X34624405Y-44710533D01*
X35814881Y-44424819D02*
X35910119Y-44424819D01*
X35910119Y-44424819D02*
X36005357Y-44472438D01*
X36005357Y-44472438D02*
X36052976Y-44520057D01*
X36052976Y-44520057D02*
X36100595Y-44615295D01*
X36100595Y-44615295D02*
X36148214Y-44805771D01*
X36148214Y-44805771D02*
X36148214Y-45043866D01*
X36148214Y-45043866D02*
X36100595Y-45234342D01*
X36100595Y-45234342D02*
X36052976Y-45329580D01*
X36052976Y-45329580D02*
X36005357Y-45377200D01*
X36005357Y-45377200D02*
X35910119Y-45424819D01*
X35910119Y-45424819D02*
X35814881Y-45424819D01*
X35814881Y-45424819D02*
X35719643Y-45377200D01*
X35719643Y-45377200D02*
X35672024Y-45329580D01*
X35672024Y-45329580D02*
X35624405Y-45234342D01*
X35624405Y-45234342D02*
X35576786Y-45043866D01*
X35576786Y-45043866D02*
X35576786Y-44805771D01*
X35576786Y-44805771D02*
X35624405Y-44615295D01*
X35624405Y-44615295D02*
X35672024Y-44520057D01*
X35672024Y-44520057D02*
X35719643Y-44472438D01*
X35719643Y-44472438D02*
X35814881Y-44424819D01*
X37005357Y-44424819D02*
X36814881Y-44424819D01*
X36814881Y-44424819D02*
X36719643Y-44472438D01*
X36719643Y-44472438D02*
X36672024Y-44520057D01*
X36672024Y-44520057D02*
X36576786Y-44662914D01*
X36576786Y-44662914D02*
X36529167Y-44853390D01*
X36529167Y-44853390D02*
X36529167Y-45234342D01*
X36529167Y-45234342D02*
X36576786Y-45329580D01*
X36576786Y-45329580D02*
X36624405Y-45377200D01*
X36624405Y-45377200D02*
X36719643Y-45424819D01*
X36719643Y-45424819D02*
X36910119Y-45424819D01*
X36910119Y-45424819D02*
X37005357Y-45377200D01*
X37005357Y-45377200D02*
X37052976Y-45329580D01*
X37052976Y-45329580D02*
X37100595Y-45234342D01*
X37100595Y-45234342D02*
X37100595Y-44996247D01*
X37100595Y-44996247D02*
X37052976Y-44901009D01*
X37052976Y-44901009D02*
X37005357Y-44853390D01*
X37005357Y-44853390D02*
X36910119Y-44805771D01*
X36910119Y-44805771D02*
X36719643Y-44805771D01*
X36719643Y-44805771D02*
X36624405Y-44853390D01*
X36624405Y-44853390D02*
X36576786Y-44901009D01*
X36576786Y-44901009D02*
X36529167Y-44996247D01*
X31264285Y-6279820D02*
X31264285Y-6994105D01*
X31264285Y-6994105D02*
X31216666Y-7136962D01*
X31216666Y-7136962D02*
X31121428Y-7232201D01*
X31121428Y-7232201D02*
X30978571Y-7279820D01*
X30978571Y-7279820D02*
X30883333Y-7279820D01*
X32264285Y-7279820D02*
X31692857Y-7279820D01*
X31978571Y-7279820D02*
X31978571Y-6279820D01*
X31978571Y-6279820D02*
X31883333Y-6422677D01*
X31883333Y-6422677D02*
X31788095Y-6517915D01*
X31788095Y-6517915D02*
X31692857Y-6565534D01*
X32883333Y-6279820D02*
X32978571Y-6279820D01*
X32978571Y-6279820D02*
X33073809Y-6327439D01*
X33073809Y-6327439D02*
X33121428Y-6375058D01*
X33121428Y-6375058D02*
X33169047Y-6470296D01*
X33169047Y-6470296D02*
X33216666Y-6660772D01*
X33216666Y-6660772D02*
X33216666Y-6898867D01*
X33216666Y-6898867D02*
X33169047Y-7089343D01*
X33169047Y-7089343D02*
X33121428Y-7184581D01*
X33121428Y-7184581D02*
X33073809Y-7232201D01*
X33073809Y-7232201D02*
X32978571Y-7279820D01*
X32978571Y-7279820D02*
X32883333Y-7279820D01*
X32883333Y-7279820D02*
X32788095Y-7232201D01*
X32788095Y-7232201D02*
X32740476Y-7184581D01*
X32740476Y-7184581D02*
X32692857Y-7089343D01*
X32692857Y-7089343D02*
X32645238Y-6898867D01*
X32645238Y-6898867D02*
X32645238Y-6660772D01*
X32645238Y-6660772D02*
X32692857Y-6470296D01*
X32692857Y-6470296D02*
X32740476Y-6375058D01*
X32740476Y-6375058D02*
X32788095Y-6327439D01*
X32788095Y-6327439D02*
X32883333Y-6279820D01*
X34073809Y-6279820D02*
X33883333Y-6279820D01*
X33883333Y-6279820D02*
X33788095Y-6327439D01*
X33788095Y-6327439D02*
X33740476Y-6375058D01*
X33740476Y-6375058D02*
X33645238Y-6517915D01*
X33645238Y-6517915D02*
X33597619Y-6708391D01*
X33597619Y-6708391D02*
X33597619Y-7089343D01*
X33597619Y-7089343D02*
X33645238Y-7184581D01*
X33645238Y-7184581D02*
X33692857Y-7232201D01*
X33692857Y-7232201D02*
X33788095Y-7279820D01*
X33788095Y-7279820D02*
X33978571Y-7279820D01*
X33978571Y-7279820D02*
X34073809Y-7232201D01*
X34073809Y-7232201D02*
X34121428Y-7184581D01*
X34121428Y-7184581D02*
X34169047Y-7089343D01*
X34169047Y-7089343D02*
X34169047Y-6851248D01*
X34169047Y-6851248D02*
X34121428Y-6756010D01*
X34121428Y-6756010D02*
X34073809Y-6708391D01*
X34073809Y-6708391D02*
X33978571Y-6660772D01*
X33978571Y-6660772D02*
X33788095Y-6660772D01*
X33788095Y-6660772D02*
X33692857Y-6708391D01*
X33692857Y-6708391D02*
X33645238Y-6756010D01*
X33645238Y-6756010D02*
X33597619Y-6851248D01*
X10280952Y-32334580D02*
X10233333Y-32382200D01*
X10233333Y-32382200D02*
X10090476Y-32429819D01*
X10090476Y-32429819D02*
X9995238Y-32429819D01*
X9995238Y-32429819D02*
X9852381Y-32382200D01*
X9852381Y-32382200D02*
X9757143Y-32286961D01*
X9757143Y-32286961D02*
X9709524Y-32191723D01*
X9709524Y-32191723D02*
X9661905Y-32001247D01*
X9661905Y-32001247D02*
X9661905Y-31858390D01*
X9661905Y-31858390D02*
X9709524Y-31667914D01*
X9709524Y-31667914D02*
X9757143Y-31572676D01*
X9757143Y-31572676D02*
X9852381Y-31477438D01*
X9852381Y-31477438D02*
X9995238Y-31429819D01*
X9995238Y-31429819D02*
X10090476Y-31429819D01*
X10090476Y-31429819D02*
X10233333Y-31477438D01*
X10233333Y-31477438D02*
X10280952Y-31525057D01*
X11233333Y-32429819D02*
X10661905Y-32429819D01*
X10947619Y-32429819D02*
X10947619Y-31429819D01*
X10947619Y-31429819D02*
X10852381Y-31572676D01*
X10852381Y-31572676D02*
X10757143Y-31667914D01*
X10757143Y-31667914D02*
X10661905Y-31715533D01*
X12185714Y-32429819D02*
X11614286Y-32429819D01*
X11900000Y-32429819D02*
X11900000Y-31429819D01*
X11900000Y-31429819D02*
X11804762Y-31572676D01*
X11804762Y-31572676D02*
X11709524Y-31667914D01*
X11709524Y-31667914D02*
X11614286Y-31715533D01*
X12757143Y-31858390D02*
X12661905Y-31810771D01*
X12661905Y-31810771D02*
X12614286Y-31763152D01*
X12614286Y-31763152D02*
X12566667Y-31667914D01*
X12566667Y-31667914D02*
X12566667Y-31620295D01*
X12566667Y-31620295D02*
X12614286Y-31525057D01*
X12614286Y-31525057D02*
X12661905Y-31477438D01*
X12661905Y-31477438D02*
X12757143Y-31429819D01*
X12757143Y-31429819D02*
X12947619Y-31429819D01*
X12947619Y-31429819D02*
X13042857Y-31477438D01*
X13042857Y-31477438D02*
X13090476Y-31525057D01*
X13090476Y-31525057D02*
X13138095Y-31620295D01*
X13138095Y-31620295D02*
X13138095Y-31667914D01*
X13138095Y-31667914D02*
X13090476Y-31763152D01*
X13090476Y-31763152D02*
X13042857Y-31810771D01*
X13042857Y-31810771D02*
X12947619Y-31858390D01*
X12947619Y-31858390D02*
X12757143Y-31858390D01*
X12757143Y-31858390D02*
X12661905Y-31906009D01*
X12661905Y-31906009D02*
X12614286Y-31953628D01*
X12614286Y-31953628D02*
X12566667Y-32048866D01*
X12566667Y-32048866D02*
X12566667Y-32239342D01*
X12566667Y-32239342D02*
X12614286Y-32334580D01*
X12614286Y-32334580D02*
X12661905Y-32382200D01*
X12661905Y-32382200D02*
X12757143Y-32429819D01*
X12757143Y-32429819D02*
X12947619Y-32429819D01*
X12947619Y-32429819D02*
X13042857Y-32382200D01*
X13042857Y-32382200D02*
X13090476Y-32334580D01*
X13090476Y-32334580D02*
X13138095Y-32239342D01*
X13138095Y-32239342D02*
X13138095Y-32048866D01*
X13138095Y-32048866D02*
X13090476Y-31953628D01*
X13090476Y-31953628D02*
X13042857Y-31906009D01*
X13042857Y-31906009D02*
X12947619Y-31858390D01*
X7390952Y-19824579D02*
X7343333Y-19872199D01*
X7343333Y-19872199D02*
X7200476Y-19919818D01*
X7200476Y-19919818D02*
X7105238Y-19919818D01*
X7105238Y-19919818D02*
X6962381Y-19872199D01*
X6962381Y-19872199D02*
X6867143Y-19776960D01*
X6867143Y-19776960D02*
X6819524Y-19681722D01*
X6819524Y-19681722D02*
X6771905Y-19491246D01*
X6771905Y-19491246D02*
X6771905Y-19348389D01*
X6771905Y-19348389D02*
X6819524Y-19157913D01*
X6819524Y-19157913D02*
X6867143Y-19062675D01*
X6867143Y-19062675D02*
X6962381Y-18967437D01*
X6962381Y-18967437D02*
X7105238Y-18919818D01*
X7105238Y-18919818D02*
X7200476Y-18919818D01*
X7200476Y-18919818D02*
X7343333Y-18967437D01*
X7343333Y-18967437D02*
X7390952Y-19015056D01*
X8343333Y-19919818D02*
X7771905Y-19919818D01*
X8057619Y-19919818D02*
X8057619Y-18919818D01*
X8057619Y-18919818D02*
X7962381Y-19062675D01*
X7962381Y-19062675D02*
X7867143Y-19157913D01*
X7867143Y-19157913D02*
X7771905Y-19205532D01*
X8962381Y-18919818D02*
X9057619Y-18919818D01*
X9057619Y-18919818D02*
X9152857Y-18967437D01*
X9152857Y-18967437D02*
X9200476Y-19015056D01*
X9200476Y-19015056D02*
X9248095Y-19110294D01*
X9248095Y-19110294D02*
X9295714Y-19300770D01*
X9295714Y-19300770D02*
X9295714Y-19538865D01*
X9295714Y-19538865D02*
X9248095Y-19729341D01*
X9248095Y-19729341D02*
X9200476Y-19824579D01*
X9200476Y-19824579D02*
X9152857Y-19872199D01*
X9152857Y-19872199D02*
X9057619Y-19919818D01*
X9057619Y-19919818D02*
X8962381Y-19919818D01*
X8962381Y-19919818D02*
X8867143Y-19872199D01*
X8867143Y-19872199D02*
X8819524Y-19824579D01*
X8819524Y-19824579D02*
X8771905Y-19729341D01*
X8771905Y-19729341D02*
X8724286Y-19538865D01*
X8724286Y-19538865D02*
X8724286Y-19300770D01*
X8724286Y-19300770D02*
X8771905Y-19110294D01*
X8771905Y-19110294D02*
X8819524Y-19015056D01*
X8819524Y-19015056D02*
X8867143Y-18967437D01*
X8867143Y-18967437D02*
X8962381Y-18919818D01*
X9771905Y-19919818D02*
X9962381Y-19919818D01*
X9962381Y-19919818D02*
X10057619Y-19872199D01*
X10057619Y-19872199D02*
X10105238Y-19824579D01*
X10105238Y-19824579D02*
X10200476Y-19681722D01*
X10200476Y-19681722D02*
X10248095Y-19491246D01*
X10248095Y-19491246D02*
X10248095Y-19110294D01*
X10248095Y-19110294D02*
X10200476Y-19015056D01*
X10200476Y-19015056D02*
X10152857Y-18967437D01*
X10152857Y-18967437D02*
X10057619Y-18919818D01*
X10057619Y-18919818D02*
X9867143Y-18919818D01*
X9867143Y-18919818D02*
X9771905Y-18967437D01*
X9771905Y-18967437D02*
X9724286Y-19015056D01*
X9724286Y-19015056D02*
X9676667Y-19110294D01*
X9676667Y-19110294D02*
X9676667Y-19348389D01*
X9676667Y-19348389D02*
X9724286Y-19443627D01*
X9724286Y-19443627D02*
X9771905Y-19491246D01*
X9771905Y-19491246D02*
X9867143Y-19538865D01*
X9867143Y-19538865D02*
X10057619Y-19538865D01*
X10057619Y-19538865D02*
X10152857Y-19491246D01*
X10152857Y-19491246D02*
X10200476Y-19443627D01*
X10200476Y-19443627D02*
X10248095Y-19348389D01*
X28630952Y-19484819D02*
X28297619Y-19008628D01*
X28059524Y-19484819D02*
X28059524Y-18484819D01*
X28059524Y-18484819D02*
X28440476Y-18484819D01*
X28440476Y-18484819D02*
X28535714Y-18532438D01*
X28535714Y-18532438D02*
X28583333Y-18580057D01*
X28583333Y-18580057D02*
X28630952Y-18675295D01*
X28630952Y-18675295D02*
X28630952Y-18818152D01*
X28630952Y-18818152D02*
X28583333Y-18913390D01*
X28583333Y-18913390D02*
X28535714Y-18961009D01*
X28535714Y-18961009D02*
X28440476Y-19008628D01*
X28440476Y-19008628D02*
X28059524Y-19008628D01*
X29583333Y-19484819D02*
X29011905Y-19484819D01*
X29297619Y-19484819D02*
X29297619Y-18484819D01*
X29297619Y-18484819D02*
X29202381Y-18627676D01*
X29202381Y-18627676D02*
X29107143Y-18722914D01*
X29107143Y-18722914D02*
X29011905Y-18770533D01*
X30202381Y-18484819D02*
X30297619Y-18484819D01*
X30297619Y-18484819D02*
X30392857Y-18532438D01*
X30392857Y-18532438D02*
X30440476Y-18580057D01*
X30440476Y-18580057D02*
X30488095Y-18675295D01*
X30488095Y-18675295D02*
X30535714Y-18865771D01*
X30535714Y-18865771D02*
X30535714Y-19103866D01*
X30535714Y-19103866D02*
X30488095Y-19294342D01*
X30488095Y-19294342D02*
X30440476Y-19389580D01*
X30440476Y-19389580D02*
X30392857Y-19437200D01*
X30392857Y-19437200D02*
X30297619Y-19484819D01*
X30297619Y-19484819D02*
X30202381Y-19484819D01*
X30202381Y-19484819D02*
X30107143Y-19437200D01*
X30107143Y-19437200D02*
X30059524Y-19389580D01*
X30059524Y-19389580D02*
X30011905Y-19294342D01*
X30011905Y-19294342D02*
X29964286Y-19103866D01*
X29964286Y-19103866D02*
X29964286Y-18865771D01*
X29964286Y-18865771D02*
X30011905Y-18675295D01*
X30011905Y-18675295D02*
X30059524Y-18580057D01*
X30059524Y-18580057D02*
X30107143Y-18532438D01*
X30107143Y-18532438D02*
X30202381Y-18484819D01*
X31440476Y-18484819D02*
X30964286Y-18484819D01*
X30964286Y-18484819D02*
X30916667Y-18961009D01*
X30916667Y-18961009D02*
X30964286Y-18913390D01*
X30964286Y-18913390D02*
X31059524Y-18865771D01*
X31059524Y-18865771D02*
X31297619Y-18865771D01*
X31297619Y-18865771D02*
X31392857Y-18913390D01*
X31392857Y-18913390D02*
X31440476Y-18961009D01*
X31440476Y-18961009D02*
X31488095Y-19056247D01*
X31488095Y-19056247D02*
X31488095Y-19294342D01*
X31488095Y-19294342D02*
X31440476Y-19389580D01*
X31440476Y-19389580D02*
X31392857Y-19437200D01*
X31392857Y-19437200D02*
X31297619Y-19484819D01*
X31297619Y-19484819D02*
X31059524Y-19484819D01*
X31059524Y-19484819D02*
X30964286Y-19437200D01*
X30964286Y-19437200D02*
X30916667Y-19389580D01*
X27595714Y-38339819D02*
X27595714Y-39149342D01*
X27595714Y-39149342D02*
X27643333Y-39244580D01*
X27643333Y-39244580D02*
X27690952Y-39292200D01*
X27690952Y-39292200D02*
X27786190Y-39339819D01*
X27786190Y-39339819D02*
X27976666Y-39339819D01*
X27976666Y-39339819D02*
X28071904Y-39292200D01*
X28071904Y-39292200D02*
X28119523Y-39244580D01*
X28119523Y-39244580D02*
X28167142Y-39149342D01*
X28167142Y-39149342D02*
X28167142Y-38339819D01*
X29167142Y-39339819D02*
X28595714Y-39339819D01*
X28881428Y-39339819D02*
X28881428Y-38339819D01*
X28881428Y-38339819D02*
X28786190Y-38482676D01*
X28786190Y-38482676D02*
X28690952Y-38577914D01*
X28690952Y-38577914D02*
X28595714Y-38625533D01*
X29786190Y-38339819D02*
X29881428Y-38339819D01*
X29881428Y-38339819D02*
X29976666Y-38387438D01*
X29976666Y-38387438D02*
X30024285Y-38435057D01*
X30024285Y-38435057D02*
X30071904Y-38530295D01*
X30071904Y-38530295D02*
X30119523Y-38720771D01*
X30119523Y-38720771D02*
X30119523Y-38958866D01*
X30119523Y-38958866D02*
X30071904Y-39149342D01*
X30071904Y-39149342D02*
X30024285Y-39244580D01*
X30024285Y-39244580D02*
X29976666Y-39292200D01*
X29976666Y-39292200D02*
X29881428Y-39339819D01*
X29881428Y-39339819D02*
X29786190Y-39339819D01*
X29786190Y-39339819D02*
X29690952Y-39292200D01*
X29690952Y-39292200D02*
X29643333Y-39244580D01*
X29643333Y-39244580D02*
X29595714Y-39149342D01*
X29595714Y-39149342D02*
X29548095Y-38958866D01*
X29548095Y-38958866D02*
X29548095Y-38720771D01*
X29548095Y-38720771D02*
X29595714Y-38530295D01*
X29595714Y-38530295D02*
X29643333Y-38435057D01*
X29643333Y-38435057D02*
X29690952Y-38387438D01*
X29690952Y-38387438D02*
X29786190Y-38339819D01*
X31024285Y-38339819D02*
X30548095Y-38339819D01*
X30548095Y-38339819D02*
X30500476Y-38816009D01*
X30500476Y-38816009D02*
X30548095Y-38768390D01*
X30548095Y-38768390D02*
X30643333Y-38720771D01*
X30643333Y-38720771D02*
X30881428Y-38720771D01*
X30881428Y-38720771D02*
X30976666Y-38768390D01*
X30976666Y-38768390D02*
X31024285Y-38816009D01*
X31024285Y-38816009D02*
X31071904Y-38911247D01*
X31071904Y-38911247D02*
X31071904Y-39149342D01*
X31071904Y-39149342D02*
X31024285Y-39244580D01*
X31024285Y-39244580D02*
X30976666Y-39292200D01*
X30976666Y-39292200D02*
X30881428Y-39339819D01*
X30881428Y-39339819D02*
X30643333Y-39339819D01*
X30643333Y-39339819D02*
X30548095Y-39292200D01*
X30548095Y-39292200D02*
X30500476Y-39244580D01*
X12060952Y-24859819D02*
X11727619Y-24383628D01*
X11489524Y-24859819D02*
X11489524Y-23859819D01*
X11489524Y-23859819D02*
X11870476Y-23859819D01*
X11870476Y-23859819D02*
X11965714Y-23907438D01*
X11965714Y-23907438D02*
X12013333Y-23955057D01*
X12013333Y-23955057D02*
X12060952Y-24050295D01*
X12060952Y-24050295D02*
X12060952Y-24193152D01*
X12060952Y-24193152D02*
X12013333Y-24288390D01*
X12013333Y-24288390D02*
X11965714Y-24336009D01*
X11965714Y-24336009D02*
X11870476Y-24383628D01*
X11870476Y-24383628D02*
X11489524Y-24383628D01*
X13013333Y-24859819D02*
X12441905Y-24859819D01*
X12727619Y-24859819D02*
X12727619Y-23859819D01*
X12727619Y-23859819D02*
X12632381Y-24002676D01*
X12632381Y-24002676D02*
X12537143Y-24097914D01*
X12537143Y-24097914D02*
X12441905Y-24145533D01*
X13632381Y-23859819D02*
X13727619Y-23859819D01*
X13727619Y-23859819D02*
X13822857Y-23907438D01*
X13822857Y-23907438D02*
X13870476Y-23955057D01*
X13870476Y-23955057D02*
X13918095Y-24050295D01*
X13918095Y-24050295D02*
X13965714Y-24240771D01*
X13965714Y-24240771D02*
X13965714Y-24478866D01*
X13965714Y-24478866D02*
X13918095Y-24669342D01*
X13918095Y-24669342D02*
X13870476Y-24764580D01*
X13870476Y-24764580D02*
X13822857Y-24812200D01*
X13822857Y-24812200D02*
X13727619Y-24859819D01*
X13727619Y-24859819D02*
X13632381Y-24859819D01*
X13632381Y-24859819D02*
X13537143Y-24812200D01*
X13537143Y-24812200D02*
X13489524Y-24764580D01*
X13489524Y-24764580D02*
X13441905Y-24669342D01*
X13441905Y-24669342D02*
X13394286Y-24478866D01*
X13394286Y-24478866D02*
X13394286Y-24240771D01*
X13394286Y-24240771D02*
X13441905Y-24050295D01*
X13441905Y-24050295D02*
X13489524Y-23955057D01*
X13489524Y-23955057D02*
X13537143Y-23907438D01*
X13537143Y-23907438D02*
X13632381Y-23859819D01*
X14537143Y-24288390D02*
X14441905Y-24240771D01*
X14441905Y-24240771D02*
X14394286Y-24193152D01*
X14394286Y-24193152D02*
X14346667Y-24097914D01*
X14346667Y-24097914D02*
X14346667Y-24050295D01*
X14346667Y-24050295D02*
X14394286Y-23955057D01*
X14394286Y-23955057D02*
X14441905Y-23907438D01*
X14441905Y-23907438D02*
X14537143Y-23859819D01*
X14537143Y-23859819D02*
X14727619Y-23859819D01*
X14727619Y-23859819D02*
X14822857Y-23907438D01*
X14822857Y-23907438D02*
X14870476Y-23955057D01*
X14870476Y-23955057D02*
X14918095Y-24050295D01*
X14918095Y-24050295D02*
X14918095Y-24097914D01*
X14918095Y-24097914D02*
X14870476Y-24193152D01*
X14870476Y-24193152D02*
X14822857Y-24240771D01*
X14822857Y-24240771D02*
X14727619Y-24288390D01*
X14727619Y-24288390D02*
X14537143Y-24288390D01*
X14537143Y-24288390D02*
X14441905Y-24336009D01*
X14441905Y-24336009D02*
X14394286Y-24383628D01*
X14394286Y-24383628D02*
X14346667Y-24478866D01*
X14346667Y-24478866D02*
X14346667Y-24669342D01*
X14346667Y-24669342D02*
X14394286Y-24764580D01*
X14394286Y-24764580D02*
X14441905Y-24812200D01*
X14441905Y-24812200D02*
X14537143Y-24859819D01*
X14537143Y-24859819D02*
X14727619Y-24859819D01*
X14727619Y-24859819D02*
X14822857Y-24812200D01*
X14822857Y-24812200D02*
X14870476Y-24764580D01*
X14870476Y-24764580D02*
X14918095Y-24669342D01*
X14918095Y-24669342D02*
X14918095Y-24478866D01*
X14918095Y-24478866D02*
X14870476Y-24383628D01*
X14870476Y-24383628D02*
X14822857Y-24336009D01*
X14822857Y-24336009D02*
X14727619Y-24288390D01*
X22025951Y-16799580D02*
X21978332Y-16847200D01*
X21978332Y-16847200D02*
X21835475Y-16894819D01*
X21835475Y-16894819D02*
X21740237Y-16894819D01*
X21740237Y-16894819D02*
X21597380Y-16847200D01*
X21597380Y-16847200D02*
X21502142Y-16751961D01*
X21502142Y-16751961D02*
X21454523Y-16656723D01*
X21454523Y-16656723D02*
X21406904Y-16466247D01*
X21406904Y-16466247D02*
X21406904Y-16323390D01*
X21406904Y-16323390D02*
X21454523Y-16132914D01*
X21454523Y-16132914D02*
X21502142Y-16037676D01*
X21502142Y-16037676D02*
X21597380Y-15942438D01*
X21597380Y-15942438D02*
X21740237Y-15894819D01*
X21740237Y-15894819D02*
X21835475Y-15894819D01*
X21835475Y-15894819D02*
X21978332Y-15942438D01*
X21978332Y-15942438D02*
X22025951Y-15990057D01*
X22978332Y-16894819D02*
X22406904Y-16894819D01*
X22692618Y-16894819D02*
X22692618Y-15894819D01*
X22692618Y-15894819D02*
X22597380Y-16037676D01*
X22597380Y-16037676D02*
X22502142Y-16132914D01*
X22502142Y-16132914D02*
X22406904Y-16180533D01*
X23597380Y-15894819D02*
X23692618Y-15894819D01*
X23692618Y-15894819D02*
X23787856Y-15942438D01*
X23787856Y-15942438D02*
X23835475Y-15990057D01*
X23835475Y-15990057D02*
X23883094Y-16085295D01*
X23883094Y-16085295D02*
X23930713Y-16275771D01*
X23930713Y-16275771D02*
X23930713Y-16513866D01*
X23930713Y-16513866D02*
X23883094Y-16704342D01*
X23883094Y-16704342D02*
X23835475Y-16799580D01*
X23835475Y-16799580D02*
X23787856Y-16847200D01*
X23787856Y-16847200D02*
X23692618Y-16894819D01*
X23692618Y-16894819D02*
X23597380Y-16894819D01*
X23597380Y-16894819D02*
X23502142Y-16847200D01*
X23502142Y-16847200D02*
X23454523Y-16799580D01*
X23454523Y-16799580D02*
X23406904Y-16704342D01*
X23406904Y-16704342D02*
X23359285Y-16513866D01*
X23359285Y-16513866D02*
X23359285Y-16275771D01*
X23359285Y-16275771D02*
X23406904Y-16085295D01*
X23406904Y-16085295D02*
X23454523Y-15990057D01*
X23454523Y-15990057D02*
X23502142Y-15942438D01*
X23502142Y-15942438D02*
X23597380Y-15894819D01*
X24311666Y-15990057D02*
X24359285Y-15942438D01*
X24359285Y-15942438D02*
X24454523Y-15894819D01*
X24454523Y-15894819D02*
X24692618Y-15894819D01*
X24692618Y-15894819D02*
X24787856Y-15942438D01*
X24787856Y-15942438D02*
X24835475Y-15990057D01*
X24835475Y-15990057D02*
X24883094Y-16085295D01*
X24883094Y-16085295D02*
X24883094Y-16180533D01*
X24883094Y-16180533D02*
X24835475Y-16323390D01*
X24835475Y-16323390D02*
X24264047Y-16894819D01*
X24264047Y-16894819D02*
X24883094Y-16894819D01*
X10300952Y-30169580D02*
X10253333Y-30217200D01*
X10253333Y-30217200D02*
X10110476Y-30264819D01*
X10110476Y-30264819D02*
X10015238Y-30264819D01*
X10015238Y-30264819D02*
X9872381Y-30217200D01*
X9872381Y-30217200D02*
X9777143Y-30121961D01*
X9777143Y-30121961D02*
X9729524Y-30026723D01*
X9729524Y-30026723D02*
X9681905Y-29836247D01*
X9681905Y-29836247D02*
X9681905Y-29693390D01*
X9681905Y-29693390D02*
X9729524Y-29502914D01*
X9729524Y-29502914D02*
X9777143Y-29407676D01*
X9777143Y-29407676D02*
X9872381Y-29312438D01*
X9872381Y-29312438D02*
X10015238Y-29264819D01*
X10015238Y-29264819D02*
X10110476Y-29264819D01*
X10110476Y-29264819D02*
X10253333Y-29312438D01*
X10253333Y-29312438D02*
X10300952Y-29360057D01*
X11253333Y-30264819D02*
X10681905Y-30264819D01*
X10967619Y-30264819D02*
X10967619Y-29264819D01*
X10967619Y-29264819D02*
X10872381Y-29407676D01*
X10872381Y-29407676D02*
X10777143Y-29502914D01*
X10777143Y-29502914D02*
X10681905Y-29550533D01*
X11872381Y-29264819D02*
X11967619Y-29264819D01*
X11967619Y-29264819D02*
X12062857Y-29312438D01*
X12062857Y-29312438D02*
X12110476Y-29360057D01*
X12110476Y-29360057D02*
X12158095Y-29455295D01*
X12158095Y-29455295D02*
X12205714Y-29645771D01*
X12205714Y-29645771D02*
X12205714Y-29883866D01*
X12205714Y-29883866D02*
X12158095Y-30074342D01*
X12158095Y-30074342D02*
X12110476Y-30169580D01*
X12110476Y-30169580D02*
X12062857Y-30217200D01*
X12062857Y-30217200D02*
X11967619Y-30264819D01*
X11967619Y-30264819D02*
X11872381Y-30264819D01*
X11872381Y-30264819D02*
X11777143Y-30217200D01*
X11777143Y-30217200D02*
X11729524Y-30169580D01*
X11729524Y-30169580D02*
X11681905Y-30074342D01*
X11681905Y-30074342D02*
X11634286Y-29883866D01*
X11634286Y-29883866D02*
X11634286Y-29645771D01*
X11634286Y-29645771D02*
X11681905Y-29455295D01*
X11681905Y-29455295D02*
X11729524Y-29360057D01*
X11729524Y-29360057D02*
X11777143Y-29312438D01*
X11777143Y-29312438D02*
X11872381Y-29264819D01*
X12539048Y-29264819D02*
X13205714Y-29264819D01*
X13205714Y-29264819D02*
X12777143Y-30264819D01*
X12050952Y-21364819D02*
X11717619Y-20888628D01*
X11479524Y-21364819D02*
X11479524Y-20364819D01*
X11479524Y-20364819D02*
X11860476Y-20364819D01*
X11860476Y-20364819D02*
X11955714Y-20412438D01*
X11955714Y-20412438D02*
X12003333Y-20460057D01*
X12003333Y-20460057D02*
X12050952Y-20555295D01*
X12050952Y-20555295D02*
X12050952Y-20698152D01*
X12050952Y-20698152D02*
X12003333Y-20793390D01*
X12003333Y-20793390D02*
X11955714Y-20841009D01*
X11955714Y-20841009D02*
X11860476Y-20888628D01*
X11860476Y-20888628D02*
X11479524Y-20888628D01*
X13003333Y-21364819D02*
X12431905Y-21364819D01*
X12717619Y-21364819D02*
X12717619Y-20364819D01*
X12717619Y-20364819D02*
X12622381Y-20507676D01*
X12622381Y-20507676D02*
X12527143Y-20602914D01*
X12527143Y-20602914D02*
X12431905Y-20650533D01*
X13622381Y-20364819D02*
X13717619Y-20364819D01*
X13717619Y-20364819D02*
X13812857Y-20412438D01*
X13812857Y-20412438D02*
X13860476Y-20460057D01*
X13860476Y-20460057D02*
X13908095Y-20555295D01*
X13908095Y-20555295D02*
X13955714Y-20745771D01*
X13955714Y-20745771D02*
X13955714Y-20983866D01*
X13955714Y-20983866D02*
X13908095Y-21174342D01*
X13908095Y-21174342D02*
X13860476Y-21269580D01*
X13860476Y-21269580D02*
X13812857Y-21317200D01*
X13812857Y-21317200D02*
X13717619Y-21364819D01*
X13717619Y-21364819D02*
X13622381Y-21364819D01*
X13622381Y-21364819D02*
X13527143Y-21317200D01*
X13527143Y-21317200D02*
X13479524Y-21269580D01*
X13479524Y-21269580D02*
X13431905Y-21174342D01*
X13431905Y-21174342D02*
X13384286Y-20983866D01*
X13384286Y-20983866D02*
X13384286Y-20745771D01*
X13384286Y-20745771D02*
X13431905Y-20555295D01*
X13431905Y-20555295D02*
X13479524Y-20460057D01*
X13479524Y-20460057D02*
X13527143Y-20412438D01*
X13527143Y-20412438D02*
X13622381Y-20364819D01*
X14289048Y-20364819D02*
X14955714Y-20364819D01*
X14955714Y-20364819D02*
X14527143Y-21364819D01*
X24599579Y-13199047D02*
X24647199Y-13246666D01*
X24647199Y-13246666D02*
X24694818Y-13389523D01*
X24694818Y-13389523D02*
X24694818Y-13484761D01*
X24694818Y-13484761D02*
X24647199Y-13627618D01*
X24647199Y-13627618D02*
X24551960Y-13722856D01*
X24551960Y-13722856D02*
X24456722Y-13770475D01*
X24456722Y-13770475D02*
X24266246Y-13818094D01*
X24266246Y-13818094D02*
X24123389Y-13818094D01*
X24123389Y-13818094D02*
X23932913Y-13770475D01*
X23932913Y-13770475D02*
X23837675Y-13722856D01*
X23837675Y-13722856D02*
X23742437Y-13627618D01*
X23742437Y-13627618D02*
X23694818Y-13484761D01*
X23694818Y-13484761D02*
X23694818Y-13389523D01*
X23694818Y-13389523D02*
X23742437Y-13246666D01*
X23742437Y-13246666D02*
X23790056Y-13199047D01*
X24694818Y-12246666D02*
X24694818Y-12818094D01*
X24694818Y-12532380D02*
X23694818Y-12532380D01*
X23694818Y-12532380D02*
X23837675Y-12627618D01*
X23837675Y-12627618D02*
X23932913Y-12722856D01*
X23932913Y-12722856D02*
X23980532Y-12818094D01*
X23694818Y-11627618D02*
X23694818Y-11532380D01*
X23694818Y-11532380D02*
X23742437Y-11437142D01*
X23742437Y-11437142D02*
X23790056Y-11389523D01*
X23790056Y-11389523D02*
X23885294Y-11341904D01*
X23885294Y-11341904D02*
X24075770Y-11294285D01*
X24075770Y-11294285D02*
X24313865Y-11294285D01*
X24313865Y-11294285D02*
X24504341Y-11341904D01*
X24504341Y-11341904D02*
X24599579Y-11389523D01*
X24599579Y-11389523D02*
X24647199Y-11437142D01*
X24647199Y-11437142D02*
X24694818Y-11532380D01*
X24694818Y-11532380D02*
X24694818Y-11627618D01*
X24694818Y-11627618D02*
X24647199Y-11722856D01*
X24647199Y-11722856D02*
X24599579Y-11770475D01*
X24599579Y-11770475D02*
X24504341Y-11818094D01*
X24504341Y-11818094D02*
X24313865Y-11865713D01*
X24313865Y-11865713D02*
X24075770Y-11865713D01*
X24075770Y-11865713D02*
X23885294Y-11818094D01*
X23885294Y-11818094D02*
X23790056Y-11770475D01*
X23790056Y-11770475D02*
X23742437Y-11722856D01*
X23742437Y-11722856D02*
X23694818Y-11627618D01*
X23694818Y-10389523D02*
X23694818Y-10865713D01*
X23694818Y-10865713D02*
X24171008Y-10913332D01*
X24171008Y-10913332D02*
X24123389Y-10865713D01*
X24123389Y-10865713D02*
X24075770Y-10770475D01*
X24075770Y-10770475D02*
X24075770Y-10532380D01*
X24075770Y-10532380D02*
X24123389Y-10437142D01*
X24123389Y-10437142D02*
X24171008Y-10389523D01*
X24171008Y-10389523D02*
X24266246Y-10341904D01*
X24266246Y-10341904D02*
X24504341Y-10341904D01*
X24504341Y-10341904D02*
X24599579Y-10389523D01*
X24599579Y-10389523D02*
X24647199Y-10437142D01*
X24647199Y-10437142D02*
X24694818Y-10532380D01*
X24694818Y-10532380D02*
X24694818Y-10770475D01*
X24694818Y-10770475D02*
X24647199Y-10865713D01*
X24647199Y-10865713D02*
X24599579Y-10913332D01*
X3424819Y-11229047D02*
X2948628Y-11562380D01*
X3424819Y-11800475D02*
X2424819Y-11800475D01*
X2424819Y-11800475D02*
X2424819Y-11419523D01*
X2424819Y-11419523D02*
X2472438Y-11324285D01*
X2472438Y-11324285D02*
X2520057Y-11276666D01*
X2520057Y-11276666D02*
X2615295Y-11229047D01*
X2615295Y-11229047D02*
X2758152Y-11229047D01*
X2758152Y-11229047D02*
X2853390Y-11276666D01*
X2853390Y-11276666D02*
X2901009Y-11324285D01*
X2901009Y-11324285D02*
X2948628Y-11419523D01*
X2948628Y-11419523D02*
X2948628Y-11800475D01*
X3424819Y-10276666D02*
X3424819Y-10848094D01*
X3424819Y-10562380D02*
X2424819Y-10562380D01*
X2424819Y-10562380D02*
X2567676Y-10657618D01*
X2567676Y-10657618D02*
X2662914Y-10752856D01*
X2662914Y-10752856D02*
X2710533Y-10848094D01*
X2424819Y-9657618D02*
X2424819Y-9562380D01*
X2424819Y-9562380D02*
X2472438Y-9467142D01*
X2472438Y-9467142D02*
X2520057Y-9419523D01*
X2520057Y-9419523D02*
X2615295Y-9371904D01*
X2615295Y-9371904D02*
X2805771Y-9324285D01*
X2805771Y-9324285D02*
X3043866Y-9324285D01*
X3043866Y-9324285D02*
X3234342Y-9371904D01*
X3234342Y-9371904D02*
X3329580Y-9419523D01*
X3329580Y-9419523D02*
X3377200Y-9467142D01*
X3377200Y-9467142D02*
X3424819Y-9562380D01*
X3424819Y-9562380D02*
X3424819Y-9657618D01*
X3424819Y-9657618D02*
X3377200Y-9752856D01*
X3377200Y-9752856D02*
X3329580Y-9800475D01*
X3329580Y-9800475D02*
X3234342Y-9848094D01*
X3234342Y-9848094D02*
X3043866Y-9895713D01*
X3043866Y-9895713D02*
X2805771Y-9895713D01*
X2805771Y-9895713D02*
X2615295Y-9848094D01*
X2615295Y-9848094D02*
X2520057Y-9800475D01*
X2520057Y-9800475D02*
X2472438Y-9752856D01*
X2472438Y-9752856D02*
X2424819Y-9657618D01*
X3424819Y-8371904D02*
X3424819Y-8943332D01*
X3424819Y-8657618D02*
X2424819Y-8657618D01*
X2424819Y-8657618D02*
X2567676Y-8752856D01*
X2567676Y-8752856D02*
X2662914Y-8848094D01*
X2662914Y-8848094D02*
X2710533Y-8943332D01*
X35209819Y-12342975D02*
X34209819Y-12342975D01*
X34209819Y-12342975D02*
X34209819Y-12104880D01*
X34209819Y-12104880D02*
X34257438Y-11962023D01*
X34257438Y-11962023D02*
X34352676Y-11866785D01*
X34352676Y-11866785D02*
X34447914Y-11819166D01*
X34447914Y-11819166D02*
X34638390Y-11771547D01*
X34638390Y-11771547D02*
X34781247Y-11771547D01*
X34781247Y-11771547D02*
X34971723Y-11819166D01*
X34971723Y-11819166D02*
X35066961Y-11866785D01*
X35066961Y-11866785D02*
X35162200Y-11962023D01*
X35162200Y-11962023D02*
X35209819Y-12104880D01*
X35209819Y-12104880D02*
X35209819Y-12342975D01*
X35209819Y-10819166D02*
X35209819Y-11390594D01*
X35209819Y-11104880D02*
X34209819Y-11104880D01*
X34209819Y-11104880D02*
X34352676Y-11200118D01*
X34352676Y-11200118D02*
X34447914Y-11295356D01*
X34447914Y-11295356D02*
X34495533Y-11390594D01*
X34209819Y-10200118D02*
X34209819Y-10104880D01*
X34209819Y-10104880D02*
X34257438Y-10009642D01*
X34257438Y-10009642D02*
X34305057Y-9962023D01*
X34305057Y-9962023D02*
X34400295Y-9914404D01*
X34400295Y-9914404D02*
X34590771Y-9866785D01*
X34590771Y-9866785D02*
X34828866Y-9866785D01*
X34828866Y-9866785D02*
X35019342Y-9914404D01*
X35019342Y-9914404D02*
X35114580Y-9962023D01*
X35114580Y-9962023D02*
X35162200Y-10009642D01*
X35162200Y-10009642D02*
X35209819Y-10104880D01*
X35209819Y-10104880D02*
X35209819Y-10200118D01*
X35209819Y-10200118D02*
X35162200Y-10295356D01*
X35162200Y-10295356D02*
X35114580Y-10342975D01*
X35114580Y-10342975D02*
X35019342Y-10390594D01*
X35019342Y-10390594D02*
X34828866Y-10438213D01*
X34828866Y-10438213D02*
X34590771Y-10438213D01*
X34590771Y-10438213D02*
X34400295Y-10390594D01*
X34400295Y-10390594D02*
X34305057Y-10342975D01*
X34305057Y-10342975D02*
X34257438Y-10295356D01*
X34257438Y-10295356D02*
X34209819Y-10200118D01*
X34638390Y-9295356D02*
X34590771Y-9390594D01*
X34590771Y-9390594D02*
X34543152Y-9438213D01*
X34543152Y-9438213D02*
X34447914Y-9485832D01*
X34447914Y-9485832D02*
X34400295Y-9485832D01*
X34400295Y-9485832D02*
X34305057Y-9438213D01*
X34305057Y-9438213D02*
X34257438Y-9390594D01*
X34257438Y-9390594D02*
X34209819Y-9295356D01*
X34209819Y-9295356D02*
X34209819Y-9104880D01*
X34209819Y-9104880D02*
X34257438Y-9009642D01*
X34257438Y-9009642D02*
X34305057Y-8962023D01*
X34305057Y-8962023D02*
X34400295Y-8914404D01*
X34400295Y-8914404D02*
X34447914Y-8914404D01*
X34447914Y-8914404D02*
X34543152Y-8962023D01*
X34543152Y-8962023D02*
X34590771Y-9009642D01*
X34590771Y-9009642D02*
X34638390Y-9104880D01*
X34638390Y-9104880D02*
X34638390Y-9295356D01*
X34638390Y-9295356D02*
X34686009Y-9390594D01*
X34686009Y-9390594D02*
X34733628Y-9438213D01*
X34733628Y-9438213D02*
X34828866Y-9485832D01*
X34828866Y-9485832D02*
X35019342Y-9485832D01*
X35019342Y-9485832D02*
X35114580Y-9438213D01*
X35114580Y-9438213D02*
X35162200Y-9390594D01*
X35162200Y-9390594D02*
X35209819Y-9295356D01*
X35209819Y-9295356D02*
X35209819Y-9104880D01*
X35209819Y-9104880D02*
X35162200Y-9009642D01*
X35162200Y-9009642D02*
X35114580Y-8962023D01*
X35114580Y-8962023D02*
X35019342Y-8914404D01*
X35019342Y-8914404D02*
X34828866Y-8914404D01*
X34828866Y-8914404D02*
X34733628Y-8962023D01*
X34733628Y-8962023D02*
X34686009Y-9009642D01*
X34686009Y-9009642D02*
X34638390Y-9104880D01*
X7534819Y-11249047D02*
X7058628Y-11582380D01*
X7534819Y-11820475D02*
X6534819Y-11820475D01*
X6534819Y-11820475D02*
X6534819Y-11439523D01*
X6534819Y-11439523D02*
X6582438Y-11344285D01*
X6582438Y-11344285D02*
X6630057Y-11296666D01*
X6630057Y-11296666D02*
X6725295Y-11249047D01*
X6725295Y-11249047D02*
X6868152Y-11249047D01*
X6868152Y-11249047D02*
X6963390Y-11296666D01*
X6963390Y-11296666D02*
X7011009Y-11344285D01*
X7011009Y-11344285D02*
X7058628Y-11439523D01*
X7058628Y-11439523D02*
X7058628Y-11820475D01*
X7534819Y-10296666D02*
X7534819Y-10868094D01*
X7534819Y-10582380D02*
X6534819Y-10582380D01*
X6534819Y-10582380D02*
X6677676Y-10677618D01*
X6677676Y-10677618D02*
X6772914Y-10772856D01*
X6772914Y-10772856D02*
X6820533Y-10868094D01*
X6534819Y-9677618D02*
X6534819Y-9582380D01*
X6534819Y-9582380D02*
X6582438Y-9487142D01*
X6582438Y-9487142D02*
X6630057Y-9439523D01*
X6630057Y-9439523D02*
X6725295Y-9391904D01*
X6725295Y-9391904D02*
X6915771Y-9344285D01*
X6915771Y-9344285D02*
X7153866Y-9344285D01*
X7153866Y-9344285D02*
X7344342Y-9391904D01*
X7344342Y-9391904D02*
X7439580Y-9439523D01*
X7439580Y-9439523D02*
X7487200Y-9487142D01*
X7487200Y-9487142D02*
X7534819Y-9582380D01*
X7534819Y-9582380D02*
X7534819Y-9677618D01*
X7534819Y-9677618D02*
X7487200Y-9772856D01*
X7487200Y-9772856D02*
X7439580Y-9820475D01*
X7439580Y-9820475D02*
X7344342Y-9868094D01*
X7344342Y-9868094D02*
X7153866Y-9915713D01*
X7153866Y-9915713D02*
X6915771Y-9915713D01*
X6915771Y-9915713D02*
X6725295Y-9868094D01*
X6725295Y-9868094D02*
X6630057Y-9820475D01*
X6630057Y-9820475D02*
X6582438Y-9772856D01*
X6582438Y-9772856D02*
X6534819Y-9677618D01*
X6868152Y-8487142D02*
X7534819Y-8487142D01*
X6487200Y-8725237D02*
X7201485Y-8963332D01*
X7201485Y-8963332D02*
X7201485Y-8344285D01*
X41114819Y-47249047D02*
X40638628Y-47582380D01*
X41114819Y-47820475D02*
X40114819Y-47820475D01*
X40114819Y-47820475D02*
X40114819Y-47439523D01*
X40114819Y-47439523D02*
X40162438Y-47344285D01*
X40162438Y-47344285D02*
X40210057Y-47296666D01*
X40210057Y-47296666D02*
X40305295Y-47249047D01*
X40305295Y-47249047D02*
X40448152Y-47249047D01*
X40448152Y-47249047D02*
X40543390Y-47296666D01*
X40543390Y-47296666D02*
X40591009Y-47344285D01*
X40591009Y-47344285D02*
X40638628Y-47439523D01*
X40638628Y-47439523D02*
X40638628Y-47820475D01*
X41114819Y-46296666D02*
X41114819Y-46868094D01*
X41114819Y-46582380D02*
X40114819Y-46582380D01*
X40114819Y-46582380D02*
X40257676Y-46677618D01*
X40257676Y-46677618D02*
X40352914Y-46772856D01*
X40352914Y-46772856D02*
X40400533Y-46868094D01*
X40114819Y-45677618D02*
X40114819Y-45582380D01*
X40114819Y-45582380D02*
X40162438Y-45487142D01*
X40162438Y-45487142D02*
X40210057Y-45439523D01*
X40210057Y-45439523D02*
X40305295Y-45391904D01*
X40305295Y-45391904D02*
X40495771Y-45344285D01*
X40495771Y-45344285D02*
X40733866Y-45344285D01*
X40733866Y-45344285D02*
X40924342Y-45391904D01*
X40924342Y-45391904D02*
X41019580Y-45439523D01*
X41019580Y-45439523D02*
X41067200Y-45487142D01*
X41067200Y-45487142D02*
X41114819Y-45582380D01*
X41114819Y-45582380D02*
X41114819Y-45677618D01*
X41114819Y-45677618D02*
X41067200Y-45772856D01*
X41067200Y-45772856D02*
X41019580Y-45820475D01*
X41019580Y-45820475D02*
X40924342Y-45868094D01*
X40924342Y-45868094D02*
X40733866Y-45915713D01*
X40733866Y-45915713D02*
X40495771Y-45915713D01*
X40495771Y-45915713D02*
X40305295Y-45868094D01*
X40305295Y-45868094D02*
X40210057Y-45820475D01*
X40210057Y-45820475D02*
X40162438Y-45772856D01*
X40162438Y-45772856D02*
X40114819Y-45677618D01*
X41114819Y-44868094D02*
X41114819Y-44677618D01*
X41114819Y-44677618D02*
X41067200Y-44582380D01*
X41067200Y-44582380D02*
X41019580Y-44534761D01*
X41019580Y-44534761D02*
X40876723Y-44439523D01*
X40876723Y-44439523D02*
X40686247Y-44391904D01*
X40686247Y-44391904D02*
X40305295Y-44391904D01*
X40305295Y-44391904D02*
X40210057Y-44439523D01*
X40210057Y-44439523D02*
X40162438Y-44487142D01*
X40162438Y-44487142D02*
X40114819Y-44582380D01*
X40114819Y-44582380D02*
X40114819Y-44772856D01*
X40114819Y-44772856D02*
X40162438Y-44868094D01*
X40162438Y-44868094D02*
X40210057Y-44915713D01*
X40210057Y-44915713D02*
X40305295Y-44963332D01*
X40305295Y-44963332D02*
X40543390Y-44963332D01*
X40543390Y-44963332D02*
X40638628Y-44915713D01*
X40638628Y-44915713D02*
X40686247Y-44868094D01*
X40686247Y-44868094D02*
X40733866Y-44772856D01*
X40733866Y-44772856D02*
X40733866Y-44582380D01*
X40733866Y-44582380D02*
X40686247Y-44487142D01*
X40686247Y-44487142D02*
X40638628Y-44439523D01*
X40638628Y-44439523D02*
X40543390Y-44391904D01*
X41067319Y-55294285D02*
X41876842Y-55294285D01*
X41876842Y-55294285D02*
X41972080Y-55246666D01*
X41972080Y-55246666D02*
X42019700Y-55199047D01*
X42019700Y-55199047D02*
X42067319Y-55103809D01*
X42067319Y-55103809D02*
X42067319Y-54913333D01*
X42067319Y-54913333D02*
X42019700Y-54818095D01*
X42019700Y-54818095D02*
X41972080Y-54770476D01*
X41972080Y-54770476D02*
X41876842Y-54722857D01*
X41876842Y-54722857D02*
X41067319Y-54722857D01*
X42067319Y-53722857D02*
X42067319Y-54294285D01*
X42067319Y-54008571D02*
X41067319Y-54008571D01*
X41067319Y-54008571D02*
X41210176Y-54103809D01*
X41210176Y-54103809D02*
X41305414Y-54199047D01*
X41305414Y-54199047D02*
X41353033Y-54294285D01*
X41067319Y-53103809D02*
X41067319Y-53008571D01*
X41067319Y-53008571D02*
X41114938Y-52913333D01*
X41114938Y-52913333D02*
X41162557Y-52865714D01*
X41162557Y-52865714D02*
X41257795Y-52818095D01*
X41257795Y-52818095D02*
X41448271Y-52770476D01*
X41448271Y-52770476D02*
X41686366Y-52770476D01*
X41686366Y-52770476D02*
X41876842Y-52818095D01*
X41876842Y-52818095D02*
X41972080Y-52865714D01*
X41972080Y-52865714D02*
X42019700Y-52913333D01*
X42019700Y-52913333D02*
X42067319Y-53008571D01*
X42067319Y-53008571D02*
X42067319Y-53103809D01*
X42067319Y-53103809D02*
X42019700Y-53199047D01*
X42019700Y-53199047D02*
X41972080Y-53246666D01*
X41972080Y-53246666D02*
X41876842Y-53294285D01*
X41876842Y-53294285D02*
X41686366Y-53341904D01*
X41686366Y-53341904D02*
X41448271Y-53341904D01*
X41448271Y-53341904D02*
X41257795Y-53294285D01*
X41257795Y-53294285D02*
X41162557Y-53246666D01*
X41162557Y-53246666D02*
X41114938Y-53199047D01*
X41114938Y-53199047D02*
X41067319Y-53103809D01*
X41400652Y-51913333D02*
X42067319Y-51913333D01*
X41019700Y-52151428D02*
X41733985Y-52389523D01*
X41733985Y-52389523D02*
X41733985Y-51770476D01*
X28001905Y-21699819D02*
X28620952Y-21699819D01*
X28620952Y-21699819D02*
X28287619Y-22080771D01*
X28287619Y-22080771D02*
X28430476Y-22080771D01*
X28430476Y-22080771D02*
X28525714Y-22128390D01*
X28525714Y-22128390D02*
X28573333Y-22176009D01*
X28573333Y-22176009D02*
X28620952Y-22271247D01*
X28620952Y-22271247D02*
X28620952Y-22509342D01*
X28620952Y-22509342D02*
X28573333Y-22604580D01*
X28573333Y-22604580D02*
X28525714Y-22652200D01*
X28525714Y-22652200D02*
X28430476Y-22699819D01*
X28430476Y-22699819D02*
X28144762Y-22699819D01*
X28144762Y-22699819D02*
X28049524Y-22652200D01*
X28049524Y-22652200D02*
X28001905Y-22604580D01*
X28906667Y-21699819D02*
X29240000Y-22699819D01*
X29240000Y-22699819D02*
X29573333Y-21699819D01*
X29811429Y-21699819D02*
X30430476Y-21699819D01*
X30430476Y-21699819D02*
X30097143Y-22080771D01*
X30097143Y-22080771D02*
X30240000Y-22080771D01*
X30240000Y-22080771D02*
X30335238Y-22128390D01*
X30335238Y-22128390D02*
X30382857Y-22176009D01*
X30382857Y-22176009D02*
X30430476Y-22271247D01*
X30430476Y-22271247D02*
X30430476Y-22509342D01*
X30430476Y-22509342D02*
X30382857Y-22604580D01*
X30382857Y-22604580D02*
X30335238Y-22652200D01*
X30335238Y-22652200D02*
X30240000Y-22699819D01*
X30240000Y-22699819D02*
X29954286Y-22699819D01*
X29954286Y-22699819D02*
X29859048Y-22652200D01*
X29859048Y-22652200D02*
X29811429Y-22604580D01*
X30859048Y-22699819D02*
X30859048Y-21699819D01*
X30859048Y-21699819D02*
X31240000Y-21699819D01*
X31240000Y-21699819D02*
X31335238Y-21747438D01*
X31335238Y-21747438D02*
X31382857Y-21795057D01*
X31382857Y-21795057D02*
X31430476Y-21890295D01*
X31430476Y-21890295D02*
X31430476Y-22033152D01*
X31430476Y-22033152D02*
X31382857Y-22128390D01*
X31382857Y-22128390D02*
X31335238Y-22176009D01*
X31335238Y-22176009D02*
X31240000Y-22223628D01*
X31240000Y-22223628D02*
X30859048Y-22223628D01*
X12879524Y-1719819D02*
X12879524Y-719819D01*
X12879524Y-719819D02*
X13117619Y-719819D01*
X13117619Y-719819D02*
X13260476Y-767438D01*
X13260476Y-767438D02*
X13355714Y-862676D01*
X13355714Y-862676D02*
X13403333Y-957914D01*
X13403333Y-957914D02*
X13450952Y-1148390D01*
X13450952Y-1148390D02*
X13450952Y-1291247D01*
X13450952Y-1291247D02*
X13403333Y-1481723D01*
X13403333Y-1481723D02*
X13355714Y-1576961D01*
X13355714Y-1576961D02*
X13260476Y-1672200D01*
X13260476Y-1672200D02*
X13117619Y-1719819D01*
X13117619Y-1719819D02*
X12879524Y-1719819D01*
X14403333Y-1719819D02*
X13831905Y-1719819D01*
X14117619Y-1719819D02*
X14117619Y-719819D01*
X14117619Y-719819D02*
X14022381Y-862676D01*
X14022381Y-862676D02*
X13927143Y-957914D01*
X13927143Y-957914D02*
X13831905Y-1005533D01*
X15022381Y-719819D02*
X15117619Y-719819D01*
X15117619Y-719819D02*
X15212857Y-767438D01*
X15212857Y-767438D02*
X15260476Y-815057D01*
X15260476Y-815057D02*
X15308095Y-910295D01*
X15308095Y-910295D02*
X15355714Y-1100771D01*
X15355714Y-1100771D02*
X15355714Y-1338866D01*
X15355714Y-1338866D02*
X15308095Y-1529342D01*
X15308095Y-1529342D02*
X15260476Y-1624580D01*
X15260476Y-1624580D02*
X15212857Y-1672200D01*
X15212857Y-1672200D02*
X15117619Y-1719819D01*
X15117619Y-1719819D02*
X15022381Y-1719819D01*
X15022381Y-1719819D02*
X14927143Y-1672200D01*
X14927143Y-1672200D02*
X14879524Y-1624580D01*
X14879524Y-1624580D02*
X14831905Y-1529342D01*
X14831905Y-1529342D02*
X14784286Y-1338866D01*
X14784286Y-1338866D02*
X14784286Y-1100771D01*
X14784286Y-1100771D02*
X14831905Y-910295D01*
X14831905Y-910295D02*
X14879524Y-815057D01*
X14879524Y-815057D02*
X14927143Y-767438D01*
X14927143Y-767438D02*
X15022381Y-719819D01*
X16260476Y-719819D02*
X15784286Y-719819D01*
X15784286Y-719819D02*
X15736667Y-1196009D01*
X15736667Y-1196009D02*
X15784286Y-1148390D01*
X15784286Y-1148390D02*
X15879524Y-1100771D01*
X15879524Y-1100771D02*
X16117619Y-1100771D01*
X16117619Y-1100771D02*
X16212857Y-1148390D01*
X16212857Y-1148390D02*
X16260476Y-1196009D01*
X16260476Y-1196009D02*
X16308095Y-1291247D01*
X16308095Y-1291247D02*
X16308095Y-1529342D01*
X16308095Y-1529342D02*
X16260476Y-1624580D01*
X16260476Y-1624580D02*
X16212857Y-1672200D01*
X16212857Y-1672200D02*
X16117619Y-1719819D01*
X16117619Y-1719819D02*
X15879524Y-1719819D01*
X15879524Y-1719819D02*
X15784286Y-1672200D01*
X15784286Y-1672200D02*
X15736667Y-1624580D01*
X25925952Y-27019819D02*
X25592619Y-26543628D01*
X25354524Y-27019819D02*
X25354524Y-26019819D01*
X25354524Y-26019819D02*
X25735476Y-26019819D01*
X25735476Y-26019819D02*
X25830714Y-26067438D01*
X25830714Y-26067438D02*
X25878333Y-26115057D01*
X25878333Y-26115057D02*
X25925952Y-26210295D01*
X25925952Y-26210295D02*
X25925952Y-26353152D01*
X25925952Y-26353152D02*
X25878333Y-26448390D01*
X25878333Y-26448390D02*
X25830714Y-26496009D01*
X25830714Y-26496009D02*
X25735476Y-26543628D01*
X25735476Y-26543628D02*
X25354524Y-26543628D01*
X26878333Y-27019819D02*
X26306905Y-27019819D01*
X26592619Y-27019819D02*
X26592619Y-26019819D01*
X26592619Y-26019819D02*
X26497381Y-26162676D01*
X26497381Y-26162676D02*
X26402143Y-26257914D01*
X26402143Y-26257914D02*
X26306905Y-26305533D01*
X27497381Y-26019819D02*
X27592619Y-26019819D01*
X27592619Y-26019819D02*
X27687857Y-26067438D01*
X27687857Y-26067438D02*
X27735476Y-26115057D01*
X27735476Y-26115057D02*
X27783095Y-26210295D01*
X27783095Y-26210295D02*
X27830714Y-26400771D01*
X27830714Y-26400771D02*
X27830714Y-26638866D01*
X27830714Y-26638866D02*
X27783095Y-26829342D01*
X27783095Y-26829342D02*
X27735476Y-26924580D01*
X27735476Y-26924580D02*
X27687857Y-26972200D01*
X27687857Y-26972200D02*
X27592619Y-27019819D01*
X27592619Y-27019819D02*
X27497381Y-27019819D01*
X27497381Y-27019819D02*
X27402143Y-26972200D01*
X27402143Y-26972200D02*
X27354524Y-26924580D01*
X27354524Y-26924580D02*
X27306905Y-26829342D01*
X27306905Y-26829342D02*
X27259286Y-26638866D01*
X27259286Y-26638866D02*
X27259286Y-26400771D01*
X27259286Y-26400771D02*
X27306905Y-26210295D01*
X27306905Y-26210295D02*
X27354524Y-26115057D01*
X27354524Y-26115057D02*
X27402143Y-26067438D01*
X27402143Y-26067438D02*
X27497381Y-26019819D01*
X28164048Y-26019819D02*
X28783095Y-26019819D01*
X28783095Y-26019819D02*
X28449762Y-26400771D01*
X28449762Y-26400771D02*
X28592619Y-26400771D01*
X28592619Y-26400771D02*
X28687857Y-26448390D01*
X28687857Y-26448390D02*
X28735476Y-26496009D01*
X28735476Y-26496009D02*
X28783095Y-26591247D01*
X28783095Y-26591247D02*
X28783095Y-26829342D01*
X28783095Y-26829342D02*
X28735476Y-26924580D01*
X28735476Y-26924580D02*
X28687857Y-26972200D01*
X28687857Y-26972200D02*
X28592619Y-27019819D01*
X28592619Y-27019819D02*
X28306905Y-27019819D01*
X28306905Y-27019819D02*
X28211667Y-26972200D01*
X28211667Y-26972200D02*
X28164048Y-26924580D01*
X20977380Y-68880057D02*
X20882142Y-68832438D01*
X20882142Y-68832438D02*
X20786904Y-68737200D01*
X20786904Y-68737200D02*
X20644047Y-68594342D01*
X20644047Y-68594342D02*
X20548809Y-68546723D01*
X20548809Y-68546723D02*
X20453571Y-68546723D01*
X20501190Y-68784819D02*
X20405952Y-68737200D01*
X20405952Y-68737200D02*
X20310714Y-68641961D01*
X20310714Y-68641961D02*
X20263095Y-68451485D01*
X20263095Y-68451485D02*
X20263095Y-68118152D01*
X20263095Y-68118152D02*
X20310714Y-67927676D01*
X20310714Y-67927676D02*
X20405952Y-67832438D01*
X20405952Y-67832438D02*
X20501190Y-67784819D01*
X20501190Y-67784819D02*
X20691666Y-67784819D01*
X20691666Y-67784819D02*
X20786904Y-67832438D01*
X20786904Y-67832438D02*
X20882142Y-67927676D01*
X20882142Y-67927676D02*
X20929761Y-68118152D01*
X20929761Y-68118152D02*
X20929761Y-68451485D01*
X20929761Y-68451485D02*
X20882142Y-68641961D01*
X20882142Y-68641961D02*
X20786904Y-68737200D01*
X20786904Y-68737200D02*
X20691666Y-68784819D01*
X20691666Y-68784819D02*
X20501190Y-68784819D01*
X21882142Y-68784819D02*
X21310714Y-68784819D01*
X21596428Y-68784819D02*
X21596428Y-67784819D01*
X21596428Y-67784819D02*
X21501190Y-67927676D01*
X21501190Y-67927676D02*
X21405952Y-68022914D01*
X21405952Y-68022914D02*
X21310714Y-68070533D01*
X22501190Y-67784819D02*
X22596428Y-67784819D01*
X22596428Y-67784819D02*
X22691666Y-67832438D01*
X22691666Y-67832438D02*
X22739285Y-67880057D01*
X22739285Y-67880057D02*
X22786904Y-67975295D01*
X22786904Y-67975295D02*
X22834523Y-68165771D01*
X22834523Y-68165771D02*
X22834523Y-68403866D01*
X22834523Y-68403866D02*
X22786904Y-68594342D01*
X22786904Y-68594342D02*
X22739285Y-68689580D01*
X22739285Y-68689580D02*
X22691666Y-68737200D01*
X22691666Y-68737200D02*
X22596428Y-68784819D01*
X22596428Y-68784819D02*
X22501190Y-68784819D01*
X22501190Y-68784819D02*
X22405952Y-68737200D01*
X22405952Y-68737200D02*
X22358333Y-68689580D01*
X22358333Y-68689580D02*
X22310714Y-68594342D01*
X22310714Y-68594342D02*
X22263095Y-68403866D01*
X22263095Y-68403866D02*
X22263095Y-68165771D01*
X22263095Y-68165771D02*
X22310714Y-67975295D01*
X22310714Y-67975295D02*
X22358333Y-67880057D01*
X22358333Y-67880057D02*
X22405952Y-67832438D01*
X22405952Y-67832438D02*
X22501190Y-67784819D01*
X23167857Y-67784819D02*
X23786904Y-67784819D01*
X23786904Y-67784819D02*
X23453571Y-68165771D01*
X23453571Y-68165771D02*
X23596428Y-68165771D01*
X23596428Y-68165771D02*
X23691666Y-68213390D01*
X23691666Y-68213390D02*
X23739285Y-68261009D01*
X23739285Y-68261009D02*
X23786904Y-68356247D01*
X23786904Y-68356247D02*
X23786904Y-68594342D01*
X23786904Y-68594342D02*
X23739285Y-68689580D01*
X23739285Y-68689580D02*
X23691666Y-68737200D01*
X23691666Y-68737200D02*
X23596428Y-68784819D01*
X23596428Y-68784819D02*
X23310714Y-68784819D01*
X23310714Y-68784819D02*
X23215476Y-68737200D01*
X23215476Y-68737200D02*
X23167857Y-68689580D01*
D10*
X23929715Y-8098900D02*
X23786858Y-8051280D01*
X23786858Y-8051280D02*
X23548763Y-8051280D01*
X23548763Y-8051280D02*
X23453525Y-8098900D01*
X23453525Y-8098900D02*
X23405906Y-8146519D01*
X23405906Y-8146519D02*
X23358287Y-8241757D01*
X23358287Y-8241757D02*
X23358287Y-8336995D01*
X23358287Y-8336995D02*
X23405906Y-8432233D01*
X23405906Y-8432233D02*
X23453525Y-8479852D01*
X23453525Y-8479852D02*
X23548763Y-8527471D01*
X23548763Y-8527471D02*
X23739239Y-8575090D01*
X23739239Y-8575090D02*
X23834477Y-8622709D01*
X23834477Y-8622709D02*
X23882096Y-8670328D01*
X23882096Y-8670328D02*
X23929715Y-8765566D01*
X23929715Y-8765566D02*
X23929715Y-8860804D01*
X23929715Y-8860804D02*
X23882096Y-8956042D01*
X23882096Y-8956042D02*
X23834477Y-9003661D01*
X23834477Y-9003661D02*
X23739239Y-9051280D01*
X23739239Y-9051280D02*
X23501144Y-9051280D01*
X23501144Y-9051280D02*
X23358287Y-9003661D01*
X23024953Y-9051280D02*
X22786858Y-8051280D01*
X22786858Y-8051280D02*
X22596382Y-8765566D01*
X22596382Y-8765566D02*
X22405906Y-8051280D01*
X22405906Y-8051280D02*
X22167811Y-9051280D01*
X21263049Y-8051280D02*
X21834477Y-8051280D01*
X21548763Y-8051280D02*
X21548763Y-9051280D01*
X21548763Y-9051280D02*
X21644001Y-8908423D01*
X21644001Y-8908423D02*
X21739239Y-8813185D01*
X21739239Y-8813185D02*
X21834477Y-8765566D01*
X20644001Y-9051280D02*
X20548763Y-9051280D01*
X20548763Y-9051280D02*
X20453525Y-9003661D01*
X20453525Y-9003661D02*
X20405906Y-8956042D01*
X20405906Y-8956042D02*
X20358287Y-8860804D01*
X20358287Y-8860804D02*
X20310668Y-8670328D01*
X20310668Y-8670328D02*
X20310668Y-8432233D01*
X20310668Y-8432233D02*
X20358287Y-8241757D01*
X20358287Y-8241757D02*
X20405906Y-8146519D01*
X20405906Y-8146519D02*
X20453525Y-8098900D01*
X20453525Y-8098900D02*
X20548763Y-8051280D01*
X20548763Y-8051280D02*
X20644001Y-8051280D01*
X20644001Y-8051280D02*
X20739239Y-8098900D01*
X20739239Y-8098900D02*
X20786858Y-8146519D01*
X20786858Y-8146519D02*
X20834477Y-8241757D01*
X20834477Y-8241757D02*
X20882096Y-8432233D01*
X20882096Y-8432233D02*
X20882096Y-8670328D01*
X20882096Y-8670328D02*
X20834477Y-8860804D01*
X20834477Y-8860804D02*
X20786858Y-8956042D01*
X20786858Y-8956042D02*
X20739239Y-9003661D01*
X20739239Y-9003661D02*
X20644001Y-9051280D01*
X19358287Y-8051280D02*
X19929715Y-8051280D01*
X19644001Y-8051280D02*
X19644001Y-9051280D01*
X19644001Y-9051280D02*
X19739239Y-8908423D01*
X19739239Y-8908423D02*
X19834477Y-8813185D01*
X19834477Y-8813185D02*
X19929715Y-8765566D01*
D12*
X37310057Y-17137619D02*
X37262438Y-17232857D01*
X37262438Y-17232857D02*
X37167200Y-17328095D01*
X37167200Y-17328095D02*
X37024342Y-17470952D01*
X37024342Y-17470952D02*
X36976723Y-17566190D01*
X36976723Y-17566190D02*
X36976723Y-17661428D01*
X37214819Y-17613809D02*
X37167200Y-17709047D01*
X37167200Y-17709047D02*
X37071961Y-17804285D01*
X37071961Y-17804285D02*
X36881485Y-17851904D01*
X36881485Y-17851904D02*
X36548152Y-17851904D01*
X36548152Y-17851904D02*
X36357676Y-17804285D01*
X36357676Y-17804285D02*
X36262438Y-17709047D01*
X36262438Y-17709047D02*
X36214819Y-17613809D01*
X36214819Y-17613809D02*
X36214819Y-17423333D01*
X36214819Y-17423333D02*
X36262438Y-17328095D01*
X36262438Y-17328095D02*
X36357676Y-17232857D01*
X36357676Y-17232857D02*
X36548152Y-17185238D01*
X36548152Y-17185238D02*
X36881485Y-17185238D01*
X36881485Y-17185238D02*
X37071961Y-17232857D01*
X37071961Y-17232857D02*
X37167200Y-17328095D01*
X37167200Y-17328095D02*
X37214819Y-17423333D01*
X37214819Y-17423333D02*
X37214819Y-17613809D01*
X37214819Y-16232857D02*
X37214819Y-16804285D01*
X37214819Y-16518571D02*
X36214819Y-16518571D01*
X36214819Y-16518571D02*
X36357676Y-16613809D01*
X36357676Y-16613809D02*
X36452914Y-16709047D01*
X36452914Y-16709047D02*
X36500533Y-16804285D01*
X36214819Y-15613809D02*
X36214819Y-15518571D01*
X36214819Y-15518571D02*
X36262438Y-15423333D01*
X36262438Y-15423333D02*
X36310057Y-15375714D01*
X36310057Y-15375714D02*
X36405295Y-15328095D01*
X36405295Y-15328095D02*
X36595771Y-15280476D01*
X36595771Y-15280476D02*
X36833866Y-15280476D01*
X36833866Y-15280476D02*
X37024342Y-15328095D01*
X37024342Y-15328095D02*
X37119580Y-15375714D01*
X37119580Y-15375714D02*
X37167200Y-15423333D01*
X37167200Y-15423333D02*
X37214819Y-15518571D01*
X37214819Y-15518571D02*
X37214819Y-15613809D01*
X37214819Y-15613809D02*
X37167200Y-15709047D01*
X37167200Y-15709047D02*
X37119580Y-15756666D01*
X37119580Y-15756666D02*
X37024342Y-15804285D01*
X37024342Y-15804285D02*
X36833866Y-15851904D01*
X36833866Y-15851904D02*
X36595771Y-15851904D01*
X36595771Y-15851904D02*
X36405295Y-15804285D01*
X36405295Y-15804285D02*
X36310057Y-15756666D01*
X36310057Y-15756666D02*
X36262438Y-15709047D01*
X36262438Y-15709047D02*
X36214819Y-15613809D01*
X37214819Y-14328095D02*
X37214819Y-14899523D01*
X37214819Y-14613809D02*
X36214819Y-14613809D01*
X36214819Y-14613809D02*
X36357676Y-14709047D01*
X36357676Y-14709047D02*
X36452914Y-14804285D01*
X36452914Y-14804285D02*
X36500533Y-14899523D01*
X10584819Y-53555714D02*
X11299104Y-53555714D01*
X11299104Y-53555714D02*
X11441961Y-53603333D01*
X11441961Y-53603333D02*
X11537200Y-53698571D01*
X11537200Y-53698571D02*
X11584819Y-53841428D01*
X11584819Y-53841428D02*
X11584819Y-53936666D01*
X11584819Y-53079523D02*
X10584819Y-53079523D01*
X10584819Y-53079523D02*
X10584819Y-52698571D01*
X10584819Y-52698571D02*
X10632438Y-52603333D01*
X10632438Y-52603333D02*
X10680057Y-52555714D01*
X10680057Y-52555714D02*
X10775295Y-52508095D01*
X10775295Y-52508095D02*
X10918152Y-52508095D01*
X10918152Y-52508095D02*
X11013390Y-52555714D01*
X11013390Y-52555714D02*
X11061009Y-52603333D01*
X11061009Y-52603333D02*
X11108628Y-52698571D01*
X11108628Y-52698571D02*
X11108628Y-53079523D01*
X11584819Y-51555714D02*
X11584819Y-52127142D01*
X11584819Y-51841428D02*
X10584819Y-51841428D01*
X10584819Y-51841428D02*
X10727676Y-51936666D01*
X10727676Y-51936666D02*
X10822914Y-52031904D01*
X10822914Y-52031904D02*
X10870533Y-52127142D01*
X10584819Y-50936666D02*
X10584819Y-50841428D01*
X10584819Y-50841428D02*
X10632438Y-50746190D01*
X10632438Y-50746190D02*
X10680057Y-50698571D01*
X10680057Y-50698571D02*
X10775295Y-50650952D01*
X10775295Y-50650952D02*
X10965771Y-50603333D01*
X10965771Y-50603333D02*
X11203866Y-50603333D01*
X11203866Y-50603333D02*
X11394342Y-50650952D01*
X11394342Y-50650952D02*
X11489580Y-50698571D01*
X11489580Y-50698571D02*
X11537200Y-50746190D01*
X11537200Y-50746190D02*
X11584819Y-50841428D01*
X11584819Y-50841428D02*
X11584819Y-50936666D01*
X11584819Y-50936666D02*
X11537200Y-51031904D01*
X11537200Y-51031904D02*
X11489580Y-51079523D01*
X11489580Y-51079523D02*
X11394342Y-51127142D01*
X11394342Y-51127142D02*
X11203866Y-51174761D01*
X11203866Y-51174761D02*
X10965771Y-51174761D01*
X10965771Y-51174761D02*
X10775295Y-51127142D01*
X10775295Y-51127142D02*
X10680057Y-51079523D01*
X10680057Y-51079523D02*
X10632438Y-51031904D01*
X10632438Y-51031904D02*
X10584819Y-50936666D01*
X10680057Y-50222380D02*
X10632438Y-50174761D01*
X10632438Y-50174761D02*
X10584819Y-50079523D01*
X10584819Y-50079523D02*
X10584819Y-49841428D01*
X10584819Y-49841428D02*
X10632438Y-49746190D01*
X10632438Y-49746190D02*
X10680057Y-49698571D01*
X10680057Y-49698571D02*
X10775295Y-49650952D01*
X10775295Y-49650952D02*
X10870533Y-49650952D01*
X10870533Y-49650952D02*
X11013390Y-49698571D01*
X11013390Y-49698571D02*
X11584819Y-50269999D01*
X11584819Y-50269999D02*
X11584819Y-49650952D01*
X37368095Y-35758866D02*
X38130000Y-35758866D01*
X37749047Y-36139819D02*
X37749047Y-35377914D01*
X39129999Y-36139819D02*
X38558571Y-36139819D01*
X38844285Y-36139819D02*
X38844285Y-35139819D01*
X38844285Y-35139819D02*
X38749047Y-35282676D01*
X38749047Y-35282676D02*
X38653809Y-35377914D01*
X38653809Y-35377914D02*
X38558571Y-35425533D01*
X39510952Y-35235057D02*
X39558571Y-35187438D01*
X39558571Y-35187438D02*
X39653809Y-35139819D01*
X39653809Y-35139819D02*
X39891904Y-35139819D01*
X39891904Y-35139819D02*
X39987142Y-35187438D01*
X39987142Y-35187438D02*
X40034761Y-35235057D01*
X40034761Y-35235057D02*
X40082380Y-35330295D01*
X40082380Y-35330295D02*
X40082380Y-35425533D01*
X40082380Y-35425533D02*
X40034761Y-35568390D01*
X40034761Y-35568390D02*
X39463333Y-36139819D01*
X39463333Y-36139819D02*
X40082380Y-36139819D01*
X40463333Y-35854104D02*
X40939523Y-35854104D01*
X40368095Y-36139819D02*
X40701428Y-35139819D01*
X40701428Y-35139819D02*
X41034761Y-36139819D01*
X30539524Y-13404819D02*
X30539524Y-12404819D01*
X30539524Y-12404819D02*
X30777619Y-12404819D01*
X30777619Y-12404819D02*
X30920476Y-12452438D01*
X30920476Y-12452438D02*
X31015714Y-12547676D01*
X31015714Y-12547676D02*
X31063333Y-12642914D01*
X31063333Y-12642914D02*
X31110952Y-12833390D01*
X31110952Y-12833390D02*
X31110952Y-12976247D01*
X31110952Y-12976247D02*
X31063333Y-13166723D01*
X31063333Y-13166723D02*
X31015714Y-13261961D01*
X31015714Y-13261961D02*
X30920476Y-13357200D01*
X30920476Y-13357200D02*
X30777619Y-13404819D01*
X30777619Y-13404819D02*
X30539524Y-13404819D01*
X32063333Y-13404819D02*
X31491905Y-13404819D01*
X31777619Y-13404819D02*
X31777619Y-12404819D01*
X31777619Y-12404819D02*
X31682381Y-12547676D01*
X31682381Y-12547676D02*
X31587143Y-12642914D01*
X31587143Y-12642914D02*
X31491905Y-12690533D01*
X33015714Y-13404819D02*
X32444286Y-13404819D01*
X32730000Y-13404819D02*
X32730000Y-12404819D01*
X32730000Y-12404819D02*
X32634762Y-12547676D01*
X32634762Y-12547676D02*
X32539524Y-12642914D01*
X32539524Y-12642914D02*
X32444286Y-12690533D01*
X33634762Y-12404819D02*
X33730000Y-12404819D01*
X33730000Y-12404819D02*
X33825238Y-12452438D01*
X33825238Y-12452438D02*
X33872857Y-12500057D01*
X33872857Y-12500057D02*
X33920476Y-12595295D01*
X33920476Y-12595295D02*
X33968095Y-12785771D01*
X33968095Y-12785771D02*
X33968095Y-13023866D01*
X33968095Y-13023866D02*
X33920476Y-13214342D01*
X33920476Y-13214342D02*
X33872857Y-13309580D01*
X33872857Y-13309580D02*
X33825238Y-13357200D01*
X33825238Y-13357200D02*
X33730000Y-13404819D01*
X33730000Y-13404819D02*
X33634762Y-13404819D01*
X33634762Y-13404819D02*
X33539524Y-13357200D01*
X33539524Y-13357200D02*
X33491905Y-13309580D01*
X33491905Y-13309580D02*
X33444286Y-13214342D01*
X33444286Y-13214342D02*
X33396667Y-13023866D01*
X33396667Y-13023866D02*
X33396667Y-12785771D01*
X33396667Y-12785771D02*
X33444286Y-12595295D01*
X33444286Y-12595295D02*
X33491905Y-12500057D01*
X33491905Y-12500057D02*
X33539524Y-12452438D01*
X33539524Y-12452438D02*
X33634762Y-12404819D01*
X21869581Y-32354047D02*
X21917201Y-32401666D01*
X21917201Y-32401666D02*
X21964820Y-32544523D01*
X21964820Y-32544523D02*
X21964820Y-32639761D01*
X21964820Y-32639761D02*
X21917201Y-32782618D01*
X21917201Y-32782618D02*
X21821962Y-32877856D01*
X21821962Y-32877856D02*
X21726724Y-32925475D01*
X21726724Y-32925475D02*
X21536248Y-32973094D01*
X21536248Y-32973094D02*
X21393391Y-32973094D01*
X21393391Y-32973094D02*
X21202915Y-32925475D01*
X21202915Y-32925475D02*
X21107677Y-32877856D01*
X21107677Y-32877856D02*
X21012439Y-32782618D01*
X21012439Y-32782618D02*
X20964820Y-32639761D01*
X20964820Y-32639761D02*
X20964820Y-32544523D01*
X20964820Y-32544523D02*
X21012439Y-32401666D01*
X21012439Y-32401666D02*
X21060058Y-32354047D01*
X21964820Y-31401666D02*
X21964820Y-31973094D01*
X21964820Y-31687380D02*
X20964820Y-31687380D01*
X20964820Y-31687380D02*
X21107677Y-31782618D01*
X21107677Y-31782618D02*
X21202915Y-31877856D01*
X21202915Y-31877856D02*
X21250534Y-31973094D01*
X21964820Y-30449285D02*
X21964820Y-31020713D01*
X21964820Y-30734999D02*
X20964820Y-30734999D01*
X20964820Y-30734999D02*
X21107677Y-30830237D01*
X21107677Y-30830237D02*
X21202915Y-30925475D01*
X21202915Y-30925475D02*
X21250534Y-31020713D01*
X21298153Y-29592142D02*
X21964820Y-29592142D01*
X20917201Y-29830237D02*
X21631486Y-30068332D01*
X21631486Y-30068332D02*
X21631486Y-29449285D01*
X38210952Y-34549819D02*
X37877619Y-34073628D01*
X37639524Y-34549819D02*
X37639524Y-33549819D01*
X37639524Y-33549819D02*
X38020476Y-33549819D01*
X38020476Y-33549819D02*
X38115714Y-33597438D01*
X38115714Y-33597438D02*
X38163333Y-33645057D01*
X38163333Y-33645057D02*
X38210952Y-33740295D01*
X38210952Y-33740295D02*
X38210952Y-33883152D01*
X38210952Y-33883152D02*
X38163333Y-33978390D01*
X38163333Y-33978390D02*
X38115714Y-34026009D01*
X38115714Y-34026009D02*
X38020476Y-34073628D01*
X38020476Y-34073628D02*
X37639524Y-34073628D01*
X39163333Y-34549819D02*
X38591905Y-34549819D01*
X38877619Y-34549819D02*
X38877619Y-33549819D01*
X38877619Y-33549819D02*
X38782381Y-33692676D01*
X38782381Y-33692676D02*
X38687143Y-33787914D01*
X38687143Y-33787914D02*
X38591905Y-33835533D01*
X40115714Y-34549819D02*
X39544286Y-34549819D01*
X39830000Y-34549819D02*
X39830000Y-33549819D01*
X39830000Y-33549819D02*
X39734762Y-33692676D01*
X39734762Y-33692676D02*
X39639524Y-33787914D01*
X39639524Y-33787914D02*
X39544286Y-33835533D01*
X41068095Y-34549819D02*
X40496667Y-34549819D01*
X40782381Y-34549819D02*
X40782381Y-33549819D01*
X40782381Y-33549819D02*
X40687143Y-33692676D01*
X40687143Y-33692676D02*
X40591905Y-33787914D01*
X40591905Y-33787914D02*
X40496667Y-33835533D01*
X27980952Y-65029580D02*
X27933333Y-65077200D01*
X27933333Y-65077200D02*
X27790476Y-65124819D01*
X27790476Y-65124819D02*
X27695238Y-65124819D01*
X27695238Y-65124819D02*
X27552381Y-65077200D01*
X27552381Y-65077200D02*
X27457143Y-64981961D01*
X27457143Y-64981961D02*
X27409524Y-64886723D01*
X27409524Y-64886723D02*
X27361905Y-64696247D01*
X27361905Y-64696247D02*
X27361905Y-64553390D01*
X27361905Y-64553390D02*
X27409524Y-64362914D01*
X27409524Y-64362914D02*
X27457143Y-64267676D01*
X27457143Y-64267676D02*
X27552381Y-64172438D01*
X27552381Y-64172438D02*
X27695238Y-64124819D01*
X27695238Y-64124819D02*
X27790476Y-64124819D01*
X27790476Y-64124819D02*
X27933333Y-64172438D01*
X27933333Y-64172438D02*
X27980952Y-64220057D01*
X28933333Y-65124819D02*
X28361905Y-65124819D01*
X28647619Y-65124819D02*
X28647619Y-64124819D01*
X28647619Y-64124819D02*
X28552381Y-64267676D01*
X28552381Y-64267676D02*
X28457143Y-64362914D01*
X28457143Y-64362914D02*
X28361905Y-64410533D01*
X29314286Y-64220057D02*
X29361905Y-64172438D01*
X29361905Y-64172438D02*
X29457143Y-64124819D01*
X29457143Y-64124819D02*
X29695238Y-64124819D01*
X29695238Y-64124819D02*
X29790476Y-64172438D01*
X29790476Y-64172438D02*
X29838095Y-64220057D01*
X29838095Y-64220057D02*
X29885714Y-64315295D01*
X29885714Y-64315295D02*
X29885714Y-64410533D01*
X29885714Y-64410533D02*
X29838095Y-64553390D01*
X29838095Y-64553390D02*
X29266667Y-65124819D01*
X29266667Y-65124819D02*
X29885714Y-65124819D01*
X30504762Y-64124819D02*
X30600000Y-64124819D01*
X30600000Y-64124819D02*
X30695238Y-64172438D01*
X30695238Y-64172438D02*
X30742857Y-64220057D01*
X30742857Y-64220057D02*
X30790476Y-64315295D01*
X30790476Y-64315295D02*
X30838095Y-64505771D01*
X30838095Y-64505771D02*
X30838095Y-64743866D01*
X30838095Y-64743866D02*
X30790476Y-64934342D01*
X30790476Y-64934342D02*
X30742857Y-65029580D01*
X30742857Y-65029580D02*
X30695238Y-65077200D01*
X30695238Y-65077200D02*
X30600000Y-65124819D01*
X30600000Y-65124819D02*
X30504762Y-65124819D01*
X30504762Y-65124819D02*
X30409524Y-65077200D01*
X30409524Y-65077200D02*
X30361905Y-65029580D01*
X30361905Y-65029580D02*
X30314286Y-64934342D01*
X30314286Y-64934342D02*
X30266667Y-64743866D01*
X30266667Y-64743866D02*
X30266667Y-64505771D01*
X30266667Y-64505771D02*
X30314286Y-64315295D01*
X30314286Y-64315295D02*
X30361905Y-64220057D01*
X30361905Y-64220057D02*
X30409524Y-64172438D01*
X30409524Y-64172438D02*
X30504762Y-64124819D01*
X10555952Y-34954818D02*
X10222619Y-34478627D01*
X9984524Y-34954818D02*
X9984524Y-33954818D01*
X9984524Y-33954818D02*
X10365476Y-33954818D01*
X10365476Y-33954818D02*
X10460714Y-34002437D01*
X10460714Y-34002437D02*
X10508333Y-34050056D01*
X10508333Y-34050056D02*
X10555952Y-34145294D01*
X10555952Y-34145294D02*
X10555952Y-34288151D01*
X10555952Y-34288151D02*
X10508333Y-34383389D01*
X10508333Y-34383389D02*
X10460714Y-34431008D01*
X10460714Y-34431008D02*
X10365476Y-34478627D01*
X10365476Y-34478627D02*
X9984524Y-34478627D01*
X11508333Y-34954818D02*
X10936905Y-34954818D01*
X11222619Y-34954818D02*
X11222619Y-33954818D01*
X11222619Y-33954818D02*
X11127381Y-34097675D01*
X11127381Y-34097675D02*
X11032143Y-34192913D01*
X11032143Y-34192913D02*
X10936905Y-34240532D01*
X12460714Y-34954818D02*
X11889286Y-34954818D01*
X12175000Y-34954818D02*
X12175000Y-33954818D01*
X12175000Y-33954818D02*
X12079762Y-34097675D01*
X12079762Y-34097675D02*
X11984524Y-34192913D01*
X11984524Y-34192913D02*
X11889286Y-34240532D01*
X12794048Y-33954818D02*
X13413095Y-33954818D01*
X13413095Y-33954818D02*
X13079762Y-34335770D01*
X13079762Y-34335770D02*
X13222619Y-34335770D01*
X13222619Y-34335770D02*
X13317857Y-34383389D01*
X13317857Y-34383389D02*
X13365476Y-34431008D01*
X13365476Y-34431008D02*
X13413095Y-34526246D01*
X13413095Y-34526246D02*
X13413095Y-34764341D01*
X13413095Y-34764341D02*
X13365476Y-34859579D01*
X13365476Y-34859579D02*
X13317857Y-34907199D01*
X13317857Y-34907199D02*
X13222619Y-34954818D01*
X13222619Y-34954818D02*
X12936905Y-34954818D01*
X12936905Y-34954818D02*
X12841667Y-34907199D01*
X12841667Y-34907199D02*
X12794048Y-34859579D01*
X33655880Y-32685057D02*
X33560642Y-32637438D01*
X33560642Y-32637438D02*
X33465404Y-32542200D01*
X33465404Y-32542200D02*
X33322547Y-32399342D01*
X33322547Y-32399342D02*
X33227309Y-32351723D01*
X33227309Y-32351723D02*
X33132071Y-32351723D01*
X33179690Y-32589819D02*
X33084452Y-32542200D01*
X33084452Y-32542200D02*
X32989214Y-32446961D01*
X32989214Y-32446961D02*
X32941595Y-32256485D01*
X32941595Y-32256485D02*
X32941595Y-31923152D01*
X32941595Y-31923152D02*
X32989214Y-31732676D01*
X32989214Y-31732676D02*
X33084452Y-31637438D01*
X33084452Y-31637438D02*
X33179690Y-31589819D01*
X33179690Y-31589819D02*
X33370166Y-31589819D01*
X33370166Y-31589819D02*
X33465404Y-31637438D01*
X33465404Y-31637438D02*
X33560642Y-31732676D01*
X33560642Y-31732676D02*
X33608261Y-31923152D01*
X33608261Y-31923152D02*
X33608261Y-32256485D01*
X33608261Y-32256485D02*
X33560642Y-32446961D01*
X33560642Y-32446961D02*
X33465404Y-32542200D01*
X33465404Y-32542200D02*
X33370166Y-32589819D01*
X33370166Y-32589819D02*
X33179690Y-32589819D01*
X34560642Y-32589819D02*
X33989214Y-32589819D01*
X34274928Y-32589819D02*
X34274928Y-31589819D01*
X34274928Y-31589819D02*
X34179690Y-31732676D01*
X34179690Y-31732676D02*
X34084452Y-31827914D01*
X34084452Y-31827914D02*
X33989214Y-31875533D01*
X35179690Y-31589819D02*
X35274928Y-31589819D01*
X35274928Y-31589819D02*
X35370166Y-31637438D01*
X35370166Y-31637438D02*
X35417785Y-31685057D01*
X35417785Y-31685057D02*
X35465404Y-31780295D01*
X35465404Y-31780295D02*
X35513023Y-31970771D01*
X35513023Y-31970771D02*
X35513023Y-32208866D01*
X35513023Y-32208866D02*
X35465404Y-32399342D01*
X35465404Y-32399342D02*
X35417785Y-32494580D01*
X35417785Y-32494580D02*
X35370166Y-32542200D01*
X35370166Y-32542200D02*
X35274928Y-32589819D01*
X35274928Y-32589819D02*
X35179690Y-32589819D01*
X35179690Y-32589819D02*
X35084452Y-32542200D01*
X35084452Y-32542200D02*
X35036833Y-32494580D01*
X35036833Y-32494580D02*
X34989214Y-32399342D01*
X34989214Y-32399342D02*
X34941595Y-32208866D01*
X34941595Y-32208866D02*
X34941595Y-31970771D01*
X34941595Y-31970771D02*
X34989214Y-31780295D01*
X34989214Y-31780295D02*
X35036833Y-31685057D01*
X35036833Y-31685057D02*
X35084452Y-31637438D01*
X35084452Y-31637438D02*
X35179690Y-31589819D01*
X35893976Y-31685057D02*
X35941595Y-31637438D01*
X35941595Y-31637438D02*
X36036833Y-31589819D01*
X36036833Y-31589819D02*
X36274928Y-31589819D01*
X36274928Y-31589819D02*
X36370166Y-31637438D01*
X36370166Y-31637438D02*
X36417785Y-31685057D01*
X36417785Y-31685057D02*
X36465404Y-31780295D01*
X36465404Y-31780295D02*
X36465404Y-31875533D01*
X36465404Y-31875533D02*
X36417785Y-32018390D01*
X36417785Y-32018390D02*
X35846357Y-32589819D01*
X35846357Y-32589819D02*
X36465404Y-32589819D01*
X28810952Y-42679580D02*
X28763333Y-42727200D01*
X28763333Y-42727200D02*
X28620476Y-42774819D01*
X28620476Y-42774819D02*
X28525238Y-42774819D01*
X28525238Y-42774819D02*
X28382381Y-42727200D01*
X28382381Y-42727200D02*
X28287143Y-42631961D01*
X28287143Y-42631961D02*
X28239524Y-42536723D01*
X28239524Y-42536723D02*
X28191905Y-42346247D01*
X28191905Y-42346247D02*
X28191905Y-42203390D01*
X28191905Y-42203390D02*
X28239524Y-42012914D01*
X28239524Y-42012914D02*
X28287143Y-41917676D01*
X28287143Y-41917676D02*
X28382381Y-41822438D01*
X28382381Y-41822438D02*
X28525238Y-41774819D01*
X28525238Y-41774819D02*
X28620476Y-41774819D01*
X28620476Y-41774819D02*
X28763333Y-41822438D01*
X28763333Y-41822438D02*
X28810952Y-41870057D01*
X29763333Y-42774819D02*
X29191905Y-42774819D01*
X29477619Y-42774819D02*
X29477619Y-41774819D01*
X29477619Y-41774819D02*
X29382381Y-41917676D01*
X29382381Y-41917676D02*
X29287143Y-42012914D01*
X29287143Y-42012914D02*
X29191905Y-42060533D01*
X30715714Y-42774819D02*
X30144286Y-42774819D01*
X30430000Y-42774819D02*
X30430000Y-41774819D01*
X30430000Y-41774819D02*
X30334762Y-41917676D01*
X30334762Y-41917676D02*
X30239524Y-42012914D01*
X30239524Y-42012914D02*
X30144286Y-42060533D01*
X31334762Y-41774819D02*
X31430000Y-41774819D01*
X31430000Y-41774819D02*
X31525238Y-41822438D01*
X31525238Y-41822438D02*
X31572857Y-41870057D01*
X31572857Y-41870057D02*
X31620476Y-41965295D01*
X31620476Y-41965295D02*
X31668095Y-42155771D01*
X31668095Y-42155771D02*
X31668095Y-42393866D01*
X31668095Y-42393866D02*
X31620476Y-42584342D01*
X31620476Y-42584342D02*
X31572857Y-42679580D01*
X31572857Y-42679580D02*
X31525238Y-42727200D01*
X31525238Y-42727200D02*
X31430000Y-42774819D01*
X31430000Y-42774819D02*
X31334762Y-42774819D01*
X31334762Y-42774819D02*
X31239524Y-42727200D01*
X31239524Y-42727200D02*
X31191905Y-42679580D01*
X31191905Y-42679580D02*
X31144286Y-42584342D01*
X31144286Y-42584342D02*
X31096667Y-42393866D01*
X31096667Y-42393866D02*
X31096667Y-42155771D01*
X31096667Y-42155771D02*
X31144286Y-41965295D01*
X31144286Y-41965295D02*
X31191905Y-41870057D01*
X31191905Y-41870057D02*
X31239524Y-41822438D01*
X31239524Y-41822438D02*
X31334762Y-41774819D01*
X18244581Y-32379047D02*
X18292201Y-32426666D01*
X18292201Y-32426666D02*
X18339820Y-32569523D01*
X18339820Y-32569523D02*
X18339820Y-32664761D01*
X18339820Y-32664761D02*
X18292201Y-32807618D01*
X18292201Y-32807618D02*
X18196962Y-32902856D01*
X18196962Y-32902856D02*
X18101724Y-32950475D01*
X18101724Y-32950475D02*
X17911248Y-32998094D01*
X17911248Y-32998094D02*
X17768391Y-32998094D01*
X17768391Y-32998094D02*
X17577915Y-32950475D01*
X17577915Y-32950475D02*
X17482677Y-32902856D01*
X17482677Y-32902856D02*
X17387439Y-32807618D01*
X17387439Y-32807618D02*
X17339820Y-32664761D01*
X17339820Y-32664761D02*
X17339820Y-32569523D01*
X17339820Y-32569523D02*
X17387439Y-32426666D01*
X17387439Y-32426666D02*
X17435058Y-32379047D01*
X18339820Y-31426666D02*
X18339820Y-31998094D01*
X18339820Y-31712380D02*
X17339820Y-31712380D01*
X17339820Y-31712380D02*
X17482677Y-31807618D01*
X17482677Y-31807618D02*
X17577915Y-31902856D01*
X17577915Y-31902856D02*
X17625534Y-31998094D01*
X18339820Y-30474285D02*
X18339820Y-31045713D01*
X18339820Y-30759999D02*
X17339820Y-30759999D01*
X17339820Y-30759999D02*
X17482677Y-30855237D01*
X17482677Y-30855237D02*
X17577915Y-30950475D01*
X17577915Y-30950475D02*
X17625534Y-31045713D01*
X17339820Y-29569523D02*
X17339820Y-30045713D01*
X17339820Y-30045713D02*
X17816010Y-30093332D01*
X17816010Y-30093332D02*
X17768391Y-30045713D01*
X17768391Y-30045713D02*
X17720772Y-29950475D01*
X17720772Y-29950475D02*
X17720772Y-29712380D01*
X17720772Y-29712380D02*
X17768391Y-29617142D01*
X17768391Y-29617142D02*
X17816010Y-29569523D01*
X17816010Y-29569523D02*
X17911248Y-29521904D01*
X17911248Y-29521904D02*
X18149343Y-29521904D01*
X18149343Y-29521904D02*
X18244581Y-29569523D01*
X18244581Y-29569523D02*
X18292201Y-29617142D01*
X18292201Y-29617142D02*
X18339820Y-29712380D01*
X18339820Y-29712380D02*
X18339820Y-29950475D01*
X18339820Y-29950475D02*
X18292201Y-30045713D01*
X18292201Y-30045713D02*
X18244581Y-30093332D01*
X26172024Y-11374819D02*
X26172024Y-10374819D01*
X26172024Y-10374819D02*
X26410119Y-10374819D01*
X26410119Y-10374819D02*
X26552976Y-10422438D01*
X26552976Y-10422438D02*
X26648214Y-10517676D01*
X26648214Y-10517676D02*
X26695833Y-10612914D01*
X26695833Y-10612914D02*
X26743452Y-10803390D01*
X26743452Y-10803390D02*
X26743452Y-10946247D01*
X26743452Y-10946247D02*
X26695833Y-11136723D01*
X26695833Y-11136723D02*
X26648214Y-11231961D01*
X26648214Y-11231961D02*
X26552976Y-11327200D01*
X26552976Y-11327200D02*
X26410119Y-11374819D01*
X26410119Y-11374819D02*
X26172024Y-11374819D01*
X27695833Y-11374819D02*
X27124405Y-11374819D01*
X27410119Y-11374819D02*
X27410119Y-10374819D01*
X27410119Y-10374819D02*
X27314881Y-10517676D01*
X27314881Y-10517676D02*
X27219643Y-10612914D01*
X27219643Y-10612914D02*
X27124405Y-10660533D01*
X28314881Y-10374819D02*
X28410119Y-10374819D01*
X28410119Y-10374819D02*
X28505357Y-10422438D01*
X28505357Y-10422438D02*
X28552976Y-10470057D01*
X28552976Y-10470057D02*
X28600595Y-10565295D01*
X28600595Y-10565295D02*
X28648214Y-10755771D01*
X28648214Y-10755771D02*
X28648214Y-10993866D01*
X28648214Y-10993866D02*
X28600595Y-11184342D01*
X28600595Y-11184342D02*
X28552976Y-11279580D01*
X28552976Y-11279580D02*
X28505357Y-11327200D01*
X28505357Y-11327200D02*
X28410119Y-11374819D01*
X28410119Y-11374819D02*
X28314881Y-11374819D01*
X28314881Y-11374819D02*
X28219643Y-11327200D01*
X28219643Y-11327200D02*
X28172024Y-11279580D01*
X28172024Y-11279580D02*
X28124405Y-11184342D01*
X28124405Y-11184342D02*
X28076786Y-10993866D01*
X28076786Y-10993866D02*
X28076786Y-10755771D01*
X28076786Y-10755771D02*
X28124405Y-10565295D01*
X28124405Y-10565295D02*
X28172024Y-10470057D01*
X28172024Y-10470057D02*
X28219643Y-10422438D01*
X28219643Y-10422438D02*
X28314881Y-10374819D01*
X28981548Y-10374819D02*
X29600595Y-10374819D01*
X29600595Y-10374819D02*
X29267262Y-10755771D01*
X29267262Y-10755771D02*
X29410119Y-10755771D01*
X29410119Y-10755771D02*
X29505357Y-10803390D01*
X29505357Y-10803390D02*
X29552976Y-10851009D01*
X29552976Y-10851009D02*
X29600595Y-10946247D01*
X29600595Y-10946247D02*
X29600595Y-11184342D01*
X29600595Y-11184342D02*
X29552976Y-11279580D01*
X29552976Y-11279580D02*
X29505357Y-11327200D01*
X29505357Y-11327200D02*
X29410119Y-11374819D01*
X29410119Y-11374819D02*
X29124405Y-11374819D01*
X29124405Y-11374819D02*
X29029167Y-11327200D01*
X29029167Y-11327200D02*
X28981548Y-11279580D01*
X10618095Y-46643866D02*
X11380000Y-46643866D01*
X10999047Y-47024819D02*
X10999047Y-46262914D01*
X12379999Y-47024819D02*
X11808571Y-47024819D01*
X12094285Y-47024819D02*
X12094285Y-46024819D01*
X12094285Y-46024819D02*
X11999047Y-46167676D01*
X11999047Y-46167676D02*
X11903809Y-46262914D01*
X11903809Y-46262914D02*
X11808571Y-46310533D01*
X12760952Y-46120057D02*
X12808571Y-46072438D01*
X12808571Y-46072438D02*
X12903809Y-46024819D01*
X12903809Y-46024819D02*
X13141904Y-46024819D01*
X13141904Y-46024819D02*
X13237142Y-46072438D01*
X13237142Y-46072438D02*
X13284761Y-46120057D01*
X13284761Y-46120057D02*
X13332380Y-46215295D01*
X13332380Y-46215295D02*
X13332380Y-46310533D01*
X13332380Y-46310533D02*
X13284761Y-46453390D01*
X13284761Y-46453390D02*
X12713333Y-47024819D01*
X12713333Y-47024819D02*
X13332380Y-47024819D01*
X13618095Y-46024819D02*
X13951428Y-47024819D01*
X13951428Y-47024819D02*
X14284761Y-46024819D01*
X4914285Y-44039819D02*
X4914285Y-44754104D01*
X4914285Y-44754104D02*
X4866666Y-44896961D01*
X4866666Y-44896961D02*
X4771428Y-44992200D01*
X4771428Y-44992200D02*
X4628571Y-45039819D01*
X4628571Y-45039819D02*
X4533333Y-45039819D01*
X5914285Y-45039819D02*
X5342857Y-45039819D01*
X5628571Y-45039819D02*
X5628571Y-44039819D01*
X5628571Y-44039819D02*
X5533333Y-44182676D01*
X5533333Y-44182676D02*
X5438095Y-44277914D01*
X5438095Y-44277914D02*
X5342857Y-44325533D01*
X6533333Y-44039819D02*
X6628571Y-44039819D01*
X6628571Y-44039819D02*
X6723809Y-44087438D01*
X6723809Y-44087438D02*
X6771428Y-44135057D01*
X6771428Y-44135057D02*
X6819047Y-44230295D01*
X6819047Y-44230295D02*
X6866666Y-44420771D01*
X6866666Y-44420771D02*
X6866666Y-44658866D01*
X6866666Y-44658866D02*
X6819047Y-44849342D01*
X6819047Y-44849342D02*
X6771428Y-44944580D01*
X6771428Y-44944580D02*
X6723809Y-44992200D01*
X6723809Y-44992200D02*
X6628571Y-45039819D01*
X6628571Y-45039819D02*
X6533333Y-45039819D01*
X6533333Y-45039819D02*
X6438095Y-44992200D01*
X6438095Y-44992200D02*
X6390476Y-44944580D01*
X6390476Y-44944580D02*
X6342857Y-44849342D01*
X6342857Y-44849342D02*
X6295238Y-44658866D01*
X6295238Y-44658866D02*
X6295238Y-44420771D01*
X6295238Y-44420771D02*
X6342857Y-44230295D01*
X6342857Y-44230295D02*
X6390476Y-44135057D01*
X6390476Y-44135057D02*
X6438095Y-44087438D01*
X6438095Y-44087438D02*
X6533333Y-44039819D01*
X7247619Y-44135057D02*
X7295238Y-44087438D01*
X7295238Y-44087438D02*
X7390476Y-44039819D01*
X7390476Y-44039819D02*
X7628571Y-44039819D01*
X7628571Y-44039819D02*
X7723809Y-44087438D01*
X7723809Y-44087438D02*
X7771428Y-44135057D01*
X7771428Y-44135057D02*
X7819047Y-44230295D01*
X7819047Y-44230295D02*
X7819047Y-44325533D01*
X7819047Y-44325533D02*
X7771428Y-44468390D01*
X7771428Y-44468390D02*
X7200000Y-45039819D01*
X7200000Y-45039819D02*
X7819047Y-45039819D01*
D13*
%TO.C,J103*%
X38730000Y-286001D02*
X38730000Y-970001D01*
X38730000Y-5020001D02*
X38730000Y-3220001D01*
X47670000Y-311401D02*
X47670000Y-970001D01*
X47670000Y-5020001D02*
X47670000Y-3220001D01*
%TO.C,U103*%
X14410000Y-49080000D02*
X14410000Y-50729999D01*
X14410000Y-52730000D02*
X14410000Y-54380000D01*
X14410000Y-54380000D02*
X24690000Y-54380000D01*
X24690000Y-49080000D02*
X14410000Y-49080000D01*
X24690000Y-54380000D02*
X24690000Y-49080000D01*
X14410000Y-50729999D02*
G75*
G02*
X14410000Y-52730001I0J-1000001D01*
G01*
%TO.C,U102*%
X10460000Y-14890000D02*
X16860000Y-14890000D01*
X10460000Y-18690000D02*
X10460000Y-14890000D01*
X16260000Y-18690000D02*
X10460000Y-18690000D01*
X16860000Y-14890000D02*
X16860000Y-18090000D01*
D14*
X16723500Y-18490000D02*
G75*
G02*
X16596500Y-18490000I-63500J0D01*
G01*
X16596500Y-18490000D02*
G75*
G02*
X16723500Y-18490000I63500J0D01*
G01*
D13*
%TO.C,R102*%
X34512064Y-18330000D02*
X34057936Y-18330000D01*
X34512064Y-19800000D02*
X34057936Y-19800000D01*
%TO.C,J105*%
X7530000Y-55745000D02*
X7530000Y-60885000D01*
X4870000Y-60885000D02*
X7530000Y-60885000D01*
X4870000Y-55745000D02*
X7530000Y-55745000D01*
X4870000Y-55745000D02*
X4870000Y-60885000D01*
X4870000Y-54475000D02*
X4870000Y-53145000D01*
X4870000Y-53145000D02*
X6200000Y-53145000D01*
%TO.C,D107*%
X43080000Y-19760000D02*
X43080000Y-15750000D01*
X43080000Y-19760000D02*
X45080000Y-19760000D01*
X45080000Y-19760000D02*
X45080000Y-15750000D01*
%TO.C,J101*%
X2620000Y-15729999D02*
X2620000Y-13130000D01*
X5280000Y-13130000D02*
X2620000Y-13130000D01*
X5280000Y-15729999D02*
X2620000Y-15729999D01*
X5280000Y-15729999D02*
X5280000Y-13130000D01*
X5280000Y-17000000D02*
X5280000Y-18330000D01*
X5280000Y-18330000D02*
X3950000Y-18330000D01*
D10*
%TO.C,U101*%
X16819999Y-19890000D02*
X21319999Y-19890000D01*
X16819999Y-23590000D02*
X16819999Y-19890000D01*
X21319999Y-19890000D02*
X21319999Y-24090000D01*
X21319999Y-24090000D02*
X17219999Y-24090000D01*
X16869998Y-24098200D02*
G75*
G02*
X16769998Y-24098200I-50000J0D01*
G01*
X16769998Y-24098200D02*
G75*
G02*
X16869998Y-24098200I50000J0D01*
G01*
D13*
%TO.C,L101*%
X21610000Y-19605000D02*
X21610000Y-24425000D01*
X21610000Y-19605000D02*
X22060000Y-19605000D01*
X21610000Y-24425000D02*
X22060000Y-24425000D01*
X26430000Y-19605000D02*
X25980000Y-19605000D01*
X26430000Y-19605000D02*
X26430000Y-24425000D01*
X26430000Y-24425000D02*
X25980000Y-24425000D01*
%TO.C,TP101*%
X39165000Y-22295000D02*
G75*
G02*
X37765000Y-22295000I-700000J0D01*
G01*
X37765000Y-22295000D02*
G75*
G02*
X39165000Y-22295000I700000J0D01*
G01*
%TO.C,JP103*%
X27892500Y-52120000D02*
X29892500Y-52120000D01*
X27892500Y-55120000D02*
X27892500Y-52120000D01*
X29892500Y-52120000D02*
X29892500Y-55120000D01*
X29892500Y-55120000D02*
X27892500Y-55120000D01*
%TO.C,R114*%
X39115000Y-16257064D02*
X39115000Y-15802936D01*
X40585000Y-16257064D02*
X40585000Y-15802936D01*
%TO.C,C117*%
X14990000Y-60261253D02*
X14990000Y-59738747D01*
X16460000Y-60261253D02*
X16460000Y-59738747D01*
%TO.C,JP105*%
X20325000Y-69350000D02*
X23325000Y-69350000D01*
X20325000Y-71350000D02*
X20325000Y-69350000D01*
X23325000Y-69350000D02*
X23325000Y-71350000D01*
X23325000Y-71350000D02*
X20325000Y-71350000D01*
%TO.C,R112*%
X14976500Y-64302064D02*
X14976500Y-63847936D01*
X16446500Y-64302064D02*
X16446500Y-63847936D01*
%TO.C,Q104*%
X13019999Y-41363501D02*
X13020000Y-39163502D01*
X13020000Y-39163502D02*
X19530000Y-39163502D01*
X13820000Y-42163501D02*
X13019999Y-41363501D01*
X19530000Y-39163502D02*
X19530000Y-42163501D01*
X19530000Y-42163501D02*
X13820000Y-42163501D01*
%TO.C,TP104*%
X17670000Y-68480000D02*
G75*
G02*
X16270000Y-68480000I-700000J0D01*
G01*
X16270000Y-68480000D02*
G75*
G02*
X17670000Y-68480000I700000J0D01*
G01*
%TO.C,R110*%
X35737064Y-35400000D02*
X35282936Y-35400000D01*
X35737064Y-36870000D02*
X35282936Y-36870000D01*
%TO.C,C103*%
X27281253Y-29580000D02*
X26758747Y-29580000D01*
X27281253Y-31050000D02*
X26758747Y-31050000D01*
%TO.C,L102*%
X20905000Y-33385000D02*
X21055000Y-33385000D01*
X20905000Y-37905000D02*
X20905000Y-33385000D01*
X20905000Y-37905000D02*
X21055000Y-37905000D01*
X25425000Y-33385000D02*
X25275000Y-33385000D01*
X25425000Y-37905000D02*
X25275000Y-37905000D01*
X25425000Y-37905000D02*
X25425000Y-33385000D01*
%TO.C,C112*%
X36541247Y-59065000D02*
X37063753Y-59065000D01*
X36541247Y-60535000D02*
X37063753Y-60535000D01*
%TO.C,TP106*%
X27550000Y-69020000D02*
G75*
G02*
X26150000Y-69020000I-700000J0D01*
G01*
X26150000Y-69020000D02*
G75*
G02*
X27550000Y-69020000I700000J0D01*
G01*
%TO.C,D102*%
X7310000Y-2989000D02*
X7310000Y-3145000D01*
X7310000Y-5305000D02*
X7310000Y-5461000D01*
X7310000Y-2989484D02*
G75*
G02*
X10542335Y-3146392I1560000J-1235516D01*
G01*
X7829039Y-3145000D02*
G75*
G02*
X9911130Y-3145163I1040961J-1080000D01*
G01*
X9911130Y-5304837D02*
G75*
G02*
X7829039Y-5305000I-1041130J1079837D01*
G01*
X10542335Y-5303608D02*
G75*
G02*
X7310000Y-5460516I-1672335J1078608D01*
G01*
%TO.C,C113*%
X30968747Y-46095000D02*
X31491253Y-46095000D01*
X30968747Y-47565000D02*
X31491253Y-47565000D01*
%TO.C,C104*%
X16808746Y-24605000D02*
X17331252Y-24605000D01*
X16808746Y-26075000D02*
X17331252Y-26075000D01*
%TO.C,C101*%
X19208748Y-17805000D02*
X19731252Y-17805000D01*
X19208748Y-19275000D02*
X19731252Y-19275000D01*
%TO.C,R115*%
X42455000Y-41834999D02*
X42455000Y-37994999D01*
X44295000Y-41834999D02*
X44295000Y-37994999D01*
%TO.C,R106*%
X12292936Y-12945000D02*
X12747064Y-12945000D01*
X12292936Y-14415000D02*
X12747064Y-14415000D01*
%TO.C,D101*%
X1660000Y-2939000D02*
X1660000Y-3095000D01*
X1660000Y-5255000D02*
X1660000Y-5411000D01*
X1660000Y-2939484D02*
G75*
G02*
X4892335Y-3096392I1560000J-1235516D01*
G01*
X2179039Y-3095000D02*
G75*
G02*
X4261130Y-3095163I1040961J-1080000D01*
G01*
X4261130Y-5254837D02*
G75*
G02*
X2179039Y-5255000I-1041130J1079837D01*
G01*
X4892335Y-5253608D02*
G75*
G02*
X1660000Y-5410516I-1672335J1078608D01*
G01*
%TO.C,D109*%
X42630000Y-12900000D02*
X43900000Y-12900000D01*
X43930000Y-9780000D02*
X42630000Y-9780000D01*
X44520000Y-13180000D02*
X44040000Y-13180000D01*
X44280000Y-12850000D01*
X44520000Y-13180000D01*
G36*
X44520000Y-13180000D02*
G01*
X44040000Y-13180000D01*
X44280000Y-12850000D01*
X44520000Y-13180000D01*
G37*
%TO.C,C106*%
X15735000Y-12961253D02*
X15735000Y-12438747D01*
X17205000Y-12961253D02*
X17205000Y-12438747D01*
%TO.C,C108*%
X21083746Y-25005000D02*
X21606252Y-25005000D01*
X21083746Y-26475000D02*
X21606252Y-26475000D01*
%TO.C,TH101*%
X8597258Y-14532500D02*
X8122742Y-14532500D01*
X8597258Y-15577500D02*
X8122742Y-15577500D01*
%TO.C,TP103*%
X10660000Y-26470000D02*
G75*
G02*
X9260000Y-26470000I-700000J0D01*
G01*
X9260000Y-26470000D02*
G75*
G02*
X10660000Y-26470000I700000J0D01*
G01*
%TO.C,D104*%
X25577500Y-15895000D02*
X25577500Y-17895000D01*
X25577500Y-15895000D02*
X29587500Y-15895000D01*
X25577500Y-17895000D02*
X29587500Y-17895000D01*
%TO.C,J104*%
X4870000Y-30205000D02*
X6200000Y-30205000D01*
X4870000Y-31535000D02*
X4870000Y-30205000D01*
X4870000Y-32805000D02*
X4870000Y-43025000D01*
X4870000Y-32805000D02*
X7530000Y-32805000D01*
X4870000Y-43025000D02*
X7530000Y-43025000D01*
X7530000Y-32805000D02*
X7530000Y-43025000D01*
%TO.C,C116*%
X35781253Y-38775000D02*
X35258747Y-38775000D01*
X35781253Y-40245000D02*
X35258747Y-40245000D01*
%TO.C,C111*%
X20548748Y-57035000D02*
X21071252Y-57035000D01*
X20548748Y-58505000D02*
X21071252Y-58505000D01*
%TO.C,JP101*%
X33065000Y-22280000D02*
X36065000Y-22280000D01*
X33065000Y-24280000D02*
X33065000Y-22280000D01*
X36065000Y-22280000D02*
X36065000Y-24280000D01*
X36065000Y-24280000D02*
X33065000Y-24280000D01*
%TO.C,C119*%
X20490000Y-44638748D02*
X20490000Y-45161254D01*
X21960000Y-44638748D02*
X21960000Y-45161254D01*
%TO.C,JP104*%
X19875000Y-39100001D02*
X21875000Y-39100001D01*
X19875000Y-42100001D02*
X19875000Y-39100001D01*
X21875000Y-39100001D02*
X21875000Y-42100001D01*
X21875000Y-42100001D02*
X19875000Y-42100001D01*
%TO.C,D106*%
X37730000Y-41980000D02*
X33720000Y-41980000D01*
X37730000Y-43980000D02*
X33720000Y-43980000D01*
X37730000Y-43980000D02*
X37730000Y-41980000D01*
%TO.C,J106*%
X28290000Y-5735000D02*
X28290001Y-1375000D01*
X30790000Y-5735000D02*
X28290000Y-5735000D01*
X33650000Y-5935000D02*
X34309999Y-5935000D01*
X34310000Y-5735000D02*
X34309999Y-5935000D01*
X36810000Y-5735000D02*
X34310000Y-5735000D01*
X36810000Y-5735000D02*
X36809999Y-1375000D01*
%TO.C,C118*%
X15013747Y-31265000D02*
X15536253Y-31265000D01*
X15013747Y-32735000D02*
X15536253Y-32735000D01*
%TO.C,C109*%
X8771253Y-17050000D02*
X8248747Y-17050000D01*
X8771253Y-18520000D02*
X8248747Y-18520000D01*
%TO.C,R105*%
X29522936Y-19945000D02*
X29977064Y-19945000D01*
X29522936Y-21415000D02*
X29977064Y-21415000D01*
%TO.C,U105*%
X29310000Y-32925001D02*
X27360000Y-32925000D01*
X29310000Y-32925001D02*
X31260000Y-32925000D01*
X29310000Y-38044999D02*
X27360000Y-38045000D01*
X29310000Y-38044999D02*
X31260000Y-38045000D01*
X32249999Y-38280000D02*
X31770000Y-38280000D01*
X32010000Y-37950000D01*
X32249999Y-38280000D01*
G36*
X32249999Y-38280000D02*
G01*
X31770000Y-38280000D01*
X32010000Y-37950000D01*
X32249999Y-38280000D01*
G37*
%TO.C,R108*%
X12952936Y-25320000D02*
X13407064Y-25320000D01*
X12952936Y-26790000D02*
X13407064Y-26790000D01*
%TO.C,C102*%
X19208747Y-15705000D02*
X19731251Y-15705000D01*
X19208747Y-17175000D02*
X19731251Y-17175000D01*
%TO.C,C107*%
X15491253Y-29105000D02*
X14968747Y-29105000D01*
X15491253Y-30575000D02*
X14968747Y-30575000D01*
%TO.C,R107*%
X12942936Y-21825000D02*
X13397064Y-21825000D01*
X12942936Y-23295000D02*
X13397064Y-23295000D01*
%TO.C,C105*%
X21825000Y-11818747D02*
X21825000Y-12341253D01*
X23295000Y-11818747D02*
X23295000Y-12341253D01*
%TO.C,R101*%
X3885000Y-10337064D02*
X3885000Y-9882936D01*
X5355000Y-10337064D02*
X5355000Y-9882936D01*
%TO.C,D108*%
X35730000Y-12987500D02*
X35730000Y-8977500D01*
X35730000Y-12987500D02*
X37730000Y-12987500D01*
X37730000Y-12987500D02*
X37730000Y-8977500D01*
%TO.C,R104*%
X7995000Y-10357064D02*
X7995000Y-9902936D01*
X9465000Y-10357064D02*
X9465000Y-9902936D01*
%TO.C,R109*%
X38275000Y-45902936D02*
X38275000Y-46357064D01*
X39745000Y-45902936D02*
X39745000Y-46357064D01*
%TO.C,U104*%
X30392500Y-50890000D02*
X30392500Y-52539999D01*
X30392500Y-54540000D02*
X30392500Y-56190000D01*
X30392500Y-56190000D02*
X40672500Y-56190000D01*
X40672500Y-50890000D02*
X30392500Y-50890000D01*
X40672500Y-56190000D02*
X40672500Y-50890000D01*
X30392500Y-52539999D02*
G75*
G02*
X30392500Y-54540001I0J-1000001D01*
G01*
%TO.C,TP102*%
X30240000Y-23745000D02*
G75*
G02*
X28840000Y-23745000I-700000J0D01*
G01*
X28840000Y-23745000D02*
G75*
G02*
X30240000Y-23745000I700000J0D01*
G01*
%TO.C,D105*%
X13010000Y-2989000D02*
X13010000Y-3145000D01*
X13010000Y-5305000D02*
X13010000Y-5461000D01*
X13010000Y-2989484D02*
G75*
G02*
X16242335Y-3146392I1560000J-1235516D01*
G01*
X13529039Y-3145000D02*
G75*
G02*
X15611130Y-3145163I1040961J-1080000D01*
G01*
X15611130Y-5304837D02*
G75*
G02*
X13529039Y-5305000I-1041130J1079837D01*
G01*
X16242335Y-5303608D02*
G75*
G02*
X13010000Y-5460516I-1672335J1078608D01*
G01*
%TO.C,R103*%
X26817936Y-27480000D02*
X27272064Y-27480000D01*
X26817936Y-28950000D02*
X27272064Y-28950000D01*
%TO.C,Q103*%
X20525001Y-60820000D02*
X23525000Y-60820000D01*
X20525001Y-67330000D02*
X20525001Y-60820000D01*
X22725000Y-67330001D02*
X20525001Y-67330000D01*
X23525000Y-60820000D02*
X23525000Y-66530000D01*
X23525000Y-66530000D02*
X22725000Y-67330001D01*
D10*
%TO.C,SW101*%
X26266801Y-7492700D02*
X17732401Y-7492700D01*
X17732401Y-583900D01*
X26266801Y-583900D01*
X26266801Y-7492700D01*
D13*
%TO.C,Q101*%
X32680000Y-16850000D02*
X32680000Y-15390000D01*
X32680000Y-16850000D02*
X33610000Y-16850000D01*
X35840000Y-16850000D02*
X34910000Y-16850000D01*
X35840000Y-16850000D02*
X35840000Y-14690000D01*
%TO.C,JP102*%
X11930000Y-50270000D02*
X13930000Y-50270000D01*
X11930000Y-53270000D02*
X11930000Y-50270000D01*
X13930000Y-50270000D02*
X13930000Y-53270000D01*
X13930000Y-53270000D02*
X11930000Y-53270000D01*
%TO.C,TP105*%
X39630000Y-37185000D02*
G75*
G02*
X38230000Y-37185000I-700000J0D01*
G01*
X38230000Y-37185000D02*
G75*
G02*
X39630000Y-37185000I700000J0D01*
G01*
%TO.C,D110*%
X31600000Y-11810000D02*
X32870000Y-11810000D01*
X32900000Y-8690000D02*
X31600000Y-8690000D01*
X33490000Y-12090000D02*
X33010000Y-12090000D01*
X33250000Y-11760000D01*
X33490000Y-12090000D01*
G36*
X33490000Y-12090000D02*
G01*
X33010000Y-12090000D01*
X33250000Y-11760000D01*
X33490000Y-12090000D01*
G37*
%TO.C,C114*%
X22455000Y-31496253D02*
X22455000Y-30973747D01*
X23925000Y-31496253D02*
X23925000Y-30973747D01*
%TO.C,R111*%
X35257936Y-33300000D02*
X35712064Y-33300000D01*
X35257936Y-34770000D02*
X35712064Y-34770000D01*
%TO.C,C120*%
X28838748Y-65615000D02*
X29361252Y-65615000D01*
X28838748Y-67085000D02*
X29361252Y-67085000D01*
%TO.C,R113*%
X15527064Y-33665000D02*
X15072936Y-33665000D01*
X15527064Y-35135000D02*
X15072936Y-35135000D01*
%TO.C,Q102*%
X33203501Y-24625000D02*
X36203500Y-24625000D01*
X33203501Y-31135000D02*
X33203501Y-24625000D01*
X35403500Y-31135001D02*
X33203501Y-31135000D01*
X36203500Y-24625000D02*
X36203500Y-30335000D01*
X36203500Y-30335000D02*
X35403500Y-31135001D01*
%TO.C,C110*%
X29691253Y-39925000D02*
X29168747Y-39925000D01*
X29691253Y-41395000D02*
X29168747Y-41395000D01*
%TO.C,C115*%
X18830000Y-31521253D02*
X18830000Y-30998747D01*
X20300000Y-31521253D02*
X20300000Y-30998747D01*
%TO.C,D103*%
X25502500Y-11920000D02*
X25502500Y-13920000D01*
X25502500Y-11920000D02*
X29512500Y-11920000D01*
X25502500Y-13920000D02*
X29512500Y-13920000D01*
%TO.C,TP107*%
X13040000Y-48470000D02*
G75*
G02*
X11640000Y-48470000I-700000J0D01*
G01*
X11640000Y-48470000D02*
G75*
G02*
X13040000Y-48470000I700000J0D01*
G01*
%TO.C,J102*%
X4870000Y-45585000D02*
X6200000Y-45585000D01*
X4870000Y-46915000D02*
X4870000Y-45585000D01*
X4870000Y-48185000D02*
X4870000Y-50785000D01*
X4870000Y-48185000D02*
X7530000Y-48185000D01*
X4870000Y-50785000D02*
X7530000Y-50785000D01*
X7530000Y-48185000D02*
X7530000Y-50785000D01*
%TD*%
M02*
