%TF.GenerationSoftware,KiCad,Pcbnew,8.0.3*%
%TF.CreationDate,2024-07-14T14:59:13-06:00*%
%TF.ProjectId,PowerSupplyBoard,506f7765-7253-4757-9070-6c79426f6172,rev?*%
%TF.SameCoordinates,Original*%
%TF.FileFunction,Paste,Top*%
%TF.FilePolarity,Positive*%
%FSLAX46Y46*%
G04 Gerber Fmt 4.6, Leading zero omitted, Abs format (unit mm)*
G04 Created by KiCad (PCBNEW 8.0.3) date 2024-07-14 14:59:13*
%MOMM*%
%LPD*%
G01*
G04 APERTURE LIST*
G04 Aperture macros list*
%AMRoundRect*
0 Rectangle with rounded corners*
0 $1 Rounding radius*
0 $2 $3 $4 $5 $6 $7 $8 $9 X,Y pos of 4 corners*
0 Add a 4 corners polygon primitive as box body*
4,1,4,$2,$3,$4,$5,$6,$7,$8,$9,$2,$3,0*
0 Add four circle primitives for the rounded corners*
1,1,$1+$1,$2,$3*
1,1,$1+$1,$4,$5*
1,1,$1+$1,$6,$7*
1,1,$1+$1,$8,$9*
0 Add four rect primitives between the rounded corners*
20,1,$1+$1,$2,$3,$4,$5,0*
20,1,$1+$1,$4,$5,$6,$7,0*
20,1,$1+$1,$6,$7,$8,$9,0*
20,1,$1+$1,$8,$9,$2,$3,0*%
G04 Aperture macros list end*
%ADD10R,0.600000X1.160000*%
%ADD11R,0.300000X1.160000*%
%ADD12RoundRect,0.075000X0.625000X0.075000X-0.625000X0.075000X-0.625000X-0.075000X0.625000X-0.075000X0*%
%ADD13RoundRect,0.250000X0.262500X0.450000X-0.262500X0.450000X-0.262500X-0.450000X0.262500X-0.450000X0*%
%ADD14RoundRect,0.225000X0.375000X-0.225000X0.375000X0.225000X-0.375000X0.225000X-0.375000X-0.225000X0*%
%ADD15O,0.230000X0.800000*%
%ADD16R,0.800000X0.230000*%
%ADD17R,2.950000X1.490000*%
%ADD18R,3.400000X0.980000*%
%ADD19RoundRect,0.250000X0.450000X-0.262500X0.450000X0.262500X-0.450000X0.262500X-0.450000X-0.262500X0*%
%ADD20RoundRect,0.250000X0.475000X-0.250000X0.475000X0.250000X-0.475000X0.250000X-0.475000X-0.250000X0*%
%ADD21R,0.950000X2.800000*%
%ADD22RoundRect,0.250000X0.250000X0.475000X-0.250000X0.475000X-0.250000X-0.475000X0.250000X-0.475000X0*%
%ADD23R,3.700000X1.100000*%
%ADD24RoundRect,0.250000X-0.250000X-0.475000X0.250000X-0.475000X0.250000X0.475000X-0.250000X0.475000X0*%
%ADD25RoundRect,0.250000X-0.262500X-0.450000X0.262500X-0.450000X0.262500X0.450000X-0.262500X0.450000X0*%
%ADD26RoundRect,0.175000X0.175000X0.325000X-0.175000X0.325000X-0.175000X-0.325000X0.175000X-0.325000X0*%
%ADD27RoundRect,0.150000X0.200000X0.150000X-0.200000X0.150000X-0.200000X-0.150000X0.200000X-0.150000X0*%
%ADD28RoundRect,0.200000X0.200000X0.275000X-0.200000X0.275000X-0.200000X-0.275000X0.200000X-0.275000X0*%
%ADD29RoundRect,0.225000X-0.225000X-0.375000X0.225000X-0.375000X0.225000X0.375000X-0.225000X0.375000X0*%
%ADD30RoundRect,0.250000X-0.475000X0.250000X-0.475000X-0.250000X0.475000X-0.250000X0.475000X0.250000X0*%
%ADD31RoundRect,0.225000X0.225000X0.375000X-0.225000X0.375000X-0.225000X-0.375000X0.225000X-0.375000X0*%
%ADD32RoundRect,0.100000X0.100000X0.575000X-0.100000X0.575000X-0.100000X-0.575000X0.100000X-0.575000X0*%
%ADD33O,0.900000X1.600000*%
%ADD34RoundRect,0.250000X0.550000X0.450000X-0.550000X0.450000X-0.550000X-0.450000X0.550000X-0.450000X0*%
%ADD35RoundRect,0.250000X0.700000X0.700000X-0.700000X0.700000X-0.700000X-0.700000X0.700000X-0.700000X0*%
%ADD36RoundRect,0.150000X0.825000X0.150000X-0.825000X0.150000X-0.825000X-0.150000X0.825000X-0.150000X0*%
%ADD37RoundRect,0.250000X-0.450000X0.262500X-0.450000X-0.262500X0.450000X-0.262500X0.450000X0.262500X0*%
%ADD38R,2.800000X0.950000*%
%ADD39R,0.800000X0.900000*%
G04 APERTURE END LIST*
D10*
%TO.C,J103*%
X46400000Y-6860001D03*
X45600000Y-6860001D03*
D11*
X44450000Y-6860001D03*
X43450000Y-6860001D03*
X42950000Y-6860001D03*
X41950000Y-6860001D03*
D10*
X40800000Y-6860001D03*
X40000000Y-6860001D03*
X40000000Y-6860001D03*
X40800000Y-6860001D03*
D11*
X41450000Y-6860001D03*
X42450000Y-6860001D03*
X43950000Y-6860001D03*
X44950000Y-6860001D03*
D10*
X45600000Y-6860001D03*
X46400000Y-6860001D03*
%TD*%
D12*
%TO.C,U102*%
X15860000Y-17790000D03*
X15860000Y-17290000D03*
X15860000Y-16790000D03*
X15860000Y-16290000D03*
X15860000Y-15790000D03*
X11460000Y-15790000D03*
X11460000Y-16290000D03*
X11460000Y-16790000D03*
X11460000Y-17290000D03*
X11460000Y-17790000D03*
%TD*%
D13*
%TO.C,R102*%
X35197500Y-19065000D03*
X33372500Y-19065000D03*
%TD*%
D14*
%TO.C,D107*%
X44080000Y-19050000D03*
X44080000Y-15750000D03*
%TD*%
D15*
%TO.C,U101*%
X17619999Y-23390000D03*
X18119999Y-23390000D03*
X18620000Y-23390000D03*
X19119999Y-23390000D03*
X19619998Y-23390000D03*
X20119999Y-23390000D03*
X20619999Y-23390000D03*
X20619999Y-20590000D03*
X20119999Y-20590000D03*
X19619998Y-20590000D03*
X19119999Y-20590000D03*
X18620000Y-20590000D03*
X18119999Y-20590000D03*
X17619999Y-20590000D03*
D16*
X17619999Y-22490000D03*
X20619999Y-22490000D03*
X17619998Y-21990000D03*
D17*
X19120000Y-21990000D03*
D16*
X20619999Y-21990000D03*
X17619999Y-21490000D03*
X20619999Y-21490000D03*
%TD*%
D18*
%TO.C,L101*%
X24020000Y-20829999D03*
X24020000Y-23200001D03*
%TD*%
D19*
%TO.C,R114*%
X39850000Y-16942500D03*
X39850000Y-15117500D03*
%TD*%
D20*
%TO.C,C117*%
X15725000Y-60949999D03*
X15725000Y-59050001D03*
%TD*%
D19*
%TO.C,R112*%
X15711500Y-64987500D03*
X15711500Y-63162500D03*
%TD*%
D21*
%TO.C,Q104*%
X13995000Y-44063501D03*
X15515000Y-44063501D03*
X17035000Y-44063501D03*
X18555000Y-44063501D03*
X18555000Y-37263501D03*
X17035000Y-37263501D03*
X15515000Y-37263501D03*
X13995000Y-37263501D03*
%TD*%
D13*
%TO.C,R110*%
X36422500Y-36135000D03*
X34597500Y-36135000D03*
%TD*%
D22*
%TO.C,C103*%
X27969999Y-30315000D03*
X26070001Y-30315000D03*
%TD*%
D23*
%TO.C,L102*%
X23165000Y-37145000D03*
X23165000Y-34145000D03*
%TD*%
D24*
%TO.C,C112*%
X35852501Y-59800000D03*
X37752499Y-59800000D03*
%TD*%
%TO.C,C113*%
X30280001Y-46830000D03*
X32179999Y-46830000D03*
%TD*%
%TO.C,C104*%
X16120000Y-25340000D03*
X18019998Y-25340000D03*
%TD*%
%TO.C,C101*%
X18520000Y-18540000D03*
X20420000Y-18540000D03*
%TD*%
D25*
%TO.C,R106*%
X11607500Y-13680000D03*
X13432500Y-13680000D03*
%TD*%
D26*
%TO.C,D109*%
X44280000Y-12090000D03*
D27*
X44280000Y-10390000D03*
X42280000Y-10390000D03*
X42280000Y-12290000D03*
%TD*%
D20*
%TO.C,C106*%
X16470000Y-13649999D03*
X16470000Y-11750001D03*
%TD*%
D24*
%TO.C,C108*%
X20395000Y-25740000D03*
X22294998Y-25740000D03*
%TD*%
D28*
%TO.C,TH101*%
X9185000Y-15055000D03*
X7535000Y-15055000D03*
%TD*%
D29*
%TO.C,D104*%
X26287500Y-16895000D03*
X29587500Y-16895000D03*
%TD*%
D22*
%TO.C,C116*%
X36469999Y-39510000D03*
X34570001Y-39510000D03*
%TD*%
D24*
%TO.C,C111*%
X19860000Y-57770000D03*
X21760000Y-57770000D03*
%TD*%
D30*
%TO.C,C119*%
X21225000Y-43950002D03*
X21225000Y-45850000D03*
%TD*%
D31*
%TO.C,D106*%
X37020000Y-42980000D03*
X33720000Y-42980000D03*
%TD*%
D32*
%TO.C,J106*%
X33850000Y-5000000D03*
X33200000Y-5000000D03*
X32550000Y-5000001D03*
X31900000Y-5000000D03*
X31250000Y-5000000D03*
D33*
X35849999Y-2325000D03*
D34*
X35750000Y-4775000D03*
D35*
X33750000Y-2325000D03*
X31350000Y-2325000D03*
D34*
X29350000Y-4775000D03*
D33*
X29250001Y-2325000D03*
%TD*%
D24*
%TO.C,C118*%
X14325001Y-32000000D03*
X16224999Y-32000000D03*
%TD*%
D22*
%TO.C,C109*%
X9459999Y-17785000D03*
X7560001Y-17785000D03*
%TD*%
D25*
%TO.C,R105*%
X28837500Y-20680000D03*
X30662500Y-20680000D03*
%TD*%
D36*
%TO.C,U105*%
X31785000Y-37390000D03*
X31785000Y-36120000D03*
X31785000Y-34850000D03*
X31785000Y-33580000D03*
X26835000Y-33580000D03*
X26835000Y-34850000D03*
X26835000Y-36120000D03*
X26835000Y-37390000D03*
%TD*%
D25*
%TO.C,R108*%
X12267500Y-26055000D03*
X14092500Y-26055000D03*
%TD*%
D24*
%TO.C,C102*%
X18519999Y-16440000D03*
X20419999Y-16440000D03*
%TD*%
D22*
%TO.C,C107*%
X16179999Y-29840000D03*
X14280001Y-29840000D03*
%TD*%
D25*
%TO.C,R107*%
X12257500Y-22560000D03*
X14082500Y-22560000D03*
%TD*%
D30*
%TO.C,C105*%
X22560000Y-11130001D03*
X22560000Y-13029999D03*
%TD*%
D19*
%TO.C,R101*%
X4620000Y-11022500D03*
X4620000Y-9197500D03*
%TD*%
D14*
%TO.C,D108*%
X36730000Y-12277500D03*
X36730000Y-8977500D03*
%TD*%
D19*
%TO.C,R104*%
X8730000Y-11042500D03*
X8730000Y-9217500D03*
%TD*%
D37*
%TO.C,R109*%
X39010000Y-45217500D03*
X39010000Y-47042500D03*
%TD*%
D25*
%TO.C,R103*%
X26132500Y-28215000D03*
X27957500Y-28215000D03*
%TD*%
D38*
%TO.C,Q103*%
X25425000Y-66355000D03*
X25425000Y-64835000D03*
X25425000Y-63315000D03*
X25425000Y-61795000D03*
X18625000Y-61795000D03*
X18625000Y-63315000D03*
X18625000Y-64835000D03*
X18625000Y-66355000D03*
%TD*%
D39*
%TO.C,Q101*%
X35210000Y-15090000D03*
X33310000Y-15090000D03*
X34260000Y-17090000D03*
%TD*%
D26*
%TO.C,D110*%
X33250000Y-11000000D03*
D27*
X33250000Y-9300000D03*
X31250000Y-9300000D03*
X31250000Y-11200000D03*
%TD*%
D20*
%TO.C,C114*%
X23190000Y-32184999D03*
X23190000Y-30285001D03*
%TD*%
D25*
%TO.C,R111*%
X34572500Y-34035000D03*
X36397500Y-34035000D03*
%TD*%
D24*
%TO.C,C120*%
X28150000Y-66350000D03*
X30050000Y-66350000D03*
%TD*%
D13*
%TO.C,R113*%
X16212500Y-34400000D03*
X14387500Y-34400000D03*
%TD*%
D38*
%TO.C,Q102*%
X38103500Y-30160000D03*
X38103500Y-28640000D03*
X38103500Y-27120000D03*
X38103500Y-25600000D03*
X31303500Y-25600000D03*
X31303500Y-27120000D03*
X31303500Y-28640000D03*
X31303500Y-30160000D03*
%TD*%
D22*
%TO.C,C110*%
X30379999Y-40660000D03*
X28480001Y-40660000D03*
%TD*%
D20*
%TO.C,C115*%
X19565000Y-32209999D03*
X19565000Y-30310001D03*
%TD*%
D29*
%TO.C,D103*%
X26212500Y-12920000D03*
X29512500Y-12920000D03*
%TD*%
M02*
