%TF.GenerationSoftware,KiCad,Pcbnew,8.0.3*%
%TF.CreationDate,2024-07-17T18:03:28-06:00*%
%TF.ProjectId,VoiceBoardR4,566f6963-6542-46f6-9172-6452342e6b69,rev?*%
%TF.SameCoordinates,Original*%
%TF.FileFunction,Paste,Bot*%
%TF.FilePolarity,Positive*%
%FSLAX46Y46*%
G04 Gerber Fmt 4.6, Leading zero omitted, Abs format (unit mm)*
G04 Created by KiCad (PCBNEW 8.0.3) date 2024-07-17 18:03:28*
%MOMM*%
%LPD*%
G01*
G04 APERTURE LIST*
G04 Aperture macros list*
%AMRoundRect*
0 Rectangle with rounded corners*
0 $1 Rounding radius*
0 $2 $3 $4 $5 $6 $7 $8 $9 X,Y pos of 4 corners*
0 Add a 4 corners polygon primitive as box body*
4,1,4,$2,$3,$4,$5,$6,$7,$8,$9,$2,$3,0*
0 Add four circle primitives for the rounded corners*
1,1,$1+$1,$2,$3*
1,1,$1+$1,$4,$5*
1,1,$1+$1,$6,$7*
1,1,$1+$1,$8,$9*
0 Add four rect primitives between the rounded corners*
20,1,$1+$1,$2,$3,$4,$5,0*
20,1,$1+$1,$4,$5,$6,$7,0*
20,1,$1+$1,$6,$7,$8,$9,0*
20,1,$1+$1,$8,$9,$2,$3,0*%
G04 Aperture macros list end*
%ADD10RoundRect,0.100000X-0.637500X-0.100000X0.637500X-0.100000X0.637500X0.100000X-0.637500X0.100000X0*%
%ADD11RoundRect,0.250000X0.250000X0.475000X-0.250000X0.475000X-0.250000X-0.475000X0.250000X-0.475000X0*%
%ADD12RoundRect,0.250000X-0.250000X-0.475000X0.250000X-0.475000X0.250000X0.475000X-0.250000X0.475000X0*%
G04 APERTURE END LIST*
D10*
%TO.C,U101*%
X68662500Y-9925000D03*
X68662500Y-9275000D03*
X68662500Y-8625000D03*
X68662500Y-7975000D03*
X68662500Y-7325000D03*
X68662500Y-6675000D03*
X68662500Y-6025000D03*
X68662500Y-5375000D03*
X74387500Y-5375000D03*
X74387500Y-6025000D03*
X74387500Y-6675000D03*
X74387500Y-7325000D03*
X74387500Y-7975000D03*
X74387500Y-8625000D03*
X74387500Y-9275000D03*
X74387500Y-9925000D03*
%TD*%
D11*
%TO.C,C103*%
X66725000Y-15425000D03*
X64825000Y-15425000D03*
%TD*%
%TO.C,C101*%
X66712499Y-6025000D03*
X64812499Y-6025000D03*
%TD*%
D12*
%TO.C,C102*%
X74412500Y-11625000D03*
X76312498Y-11625000D03*
%TD*%
D10*
%TO.C,U102*%
X68637500Y-19325000D03*
X68637500Y-18675000D03*
X68637500Y-18025000D03*
X68637500Y-17375000D03*
X68637500Y-16725000D03*
X68637500Y-16075000D03*
X68637500Y-15425000D03*
X68637500Y-14775000D03*
X74362500Y-14775000D03*
X74362500Y-15425000D03*
X74362500Y-16075000D03*
X74362500Y-16725000D03*
X74362500Y-17375000D03*
X74362500Y-18025000D03*
X74362500Y-18675000D03*
X74362500Y-19325000D03*
%TD*%
D12*
%TO.C,C104*%
X74375001Y-20925000D03*
X76274999Y-20925000D03*
%TD*%
M02*
