M48
; DRILL file {KiCad 8.0.3} date 2024-07-01T12:15:51-0600
; FORMAT={3:3/ absolute / metric / suppress leading zeros}
; #@! TF.CreationDate,2024-07-01T12:15:51-06:00
; #@! TF.GenerationSoftware,Kicad,Pcbnew,8.0.3
; #@! TF.FileFunction,MixedPlating,1,4
FMAT,2
METRIC,TZ
; #@! TA.AperFunction,Plated,PTH,ViaDrill
T1C0.350
; #@! TA.AperFunction,Plated,PTH,ViaDrill
T2C0.400
; #@! TA.AperFunction,Plated,PTH,ComponentDrill
T3C0.500
; #@! TA.AperFunction,Plated,PTH,ComponentDrill
T4C1.000
%
G90
G05
T1
X39954Y-23876
X40818Y-39751
X42494Y-24384
X43409Y-35560
X55372Y-29083
X57506Y-28880
X59366Y-42119
X59715Y-3200
X60960Y-40462
X61443Y-3200
X63627Y-33274
X63983Y-35662
X65456Y-40462
X66523Y-42596
X71171Y-32893
X72339Y-17602
X74117Y-26010
X84480Y-26568
X118339Y-11735
X120498Y-11455
T2
X4851Y-9119
X7366Y-29566
X11913Y-11049
X12090Y-31953
X14097Y-30378
X15621Y-9423
X19329Y-12040
X19660Y-42418
X20015Y-34671
X20574Y-20091
X21717Y-3302
X21717Y-35484
X21742Y-26848
X21768Y-12725
X22962Y-33680
X23851Y-25756
X24308Y-3759
X28092Y-24105
X29769Y-16713
X32334Y-9830
X32334Y-32385
X32893Y-42875
X33909Y-17653
X35662Y-44501
X37389Y-41402
X38506Y-39649
X39497Y-32537
X39548Y-15723
X39624Y-37871
X39675Y-28829
X39700Y-18796
X41529Y-9220
X43815Y-32715
X45644Y-29464
X45923Y-15291
X45999Y-32410
X47092Y-34493
X47498Y-12624
X48311Y-18491
X49911Y-20472
X49914Y-29083
X51232Y-2337
X52705Y-36119
X53111Y-27661
X54229Y-21133
X54356Y-13691
X54635Y-1981
X54940Y-4064
X56439Y-31699
X56490Y-11862
X56566Y-25908
X56820Y-19533
X57607Y-37567
X59080Y-6401
X59385Y-29769
X59563Y-16129
X59868Y-12319
X60096Y-26213
X60096Y-31521
X60731Y-43383
X61112Y-14326
X62611Y-21158
X62687Y-18390
X62890Y-15646
X63957Y-10643
X65583Y-29464
X66708Y-16009
X66980Y-10693
X67031Y-17602
X68758Y-22530
X69139Y-6604
X69672Y-13792
X69926Y-27762
X70536Y-25095
X70714Y-18491
X71063Y-22963
X72238Y-9347
X72619Y-26416
X74193Y-7036
X74422Y-43180
X74778Y-23698
X75286Y-16256
X75362Y-31674
X75590Y-29642
X76225Y-21158
X76530Y-24257
X77089Y-17678
X77876Y-41250
X77902Y-9119
X79172Y-16180
X79248Y-43104
X79273Y-4115
X79908Y-11354
X80406Y-19025
X81001Y-40284
X81432Y-9728
X81940Y-12497
X82271Y-20295
X82347Y-26187
X83033Y-14605
X84049Y-6325
X84506Y-20295
X84607Y-16434
X86487Y-39878
X87097Y-8585
X88748Y-28296
X92177Y-15977
X92229Y-8129
X93955Y-6325
X94005Y-16459
X94488Y-24130
X95682Y-7366
X95987Y-14935
X96622Y-16586
X96698Y-24638
X97663Y-35585
X99162Y-26772
X99441Y-11125
X100025Y-16027
X100101Y-41453
X100940Y-30150
X100965Y-39726
X101054Y-14541
X101829Y-23673
X102184Y-20828
X104724Y-41631
X106553Y-8458
X106655Y-16789
X109042Y-42875
X109118Y-38405
X109652Y-25044
X110363Y-16053
X110795Y-8458
X110820Y-33376
X110820Y-41631
X112547Y-11608
X113309Y-33426
X113589Y-16535
X114071Y-8077
X114071Y-21605
X118085Y-15367
X118593Y-41554
X118872Y-23952
X119324Y-6305
X119863Y-17348
X121031Y-24257
X123063Y-8128
X124765Y-22987
X125578Y-21082
T3
X11354Y-20498
X32360Y-30277
X35331Y-37897
X37186Y-9195
T4
X43438Y-45348
X43438Y-47887
X45978Y-45348
X45978Y-47887
X48518Y-45348
X48518Y-47887
X51058Y-45348
X51058Y-47887
X53597Y-45348
X53597Y-47887
X56138Y-45348
X56138Y-47887
X58678Y-45348
X58678Y-47887
X61218Y-45348
X61218Y-47887
X63758Y-45348
X63758Y-47887
M30
