M48
; DRILL file {KiCad 8.0.3} date 2024-07-17T18:03:25-0600
; FORMAT={3:3/ absolute / metric / suppress leading zeros}
; #@! TF.CreationDate,2024-07-17T18:03:25-06:00
; #@! TF.GenerationSoftware,Kicad,Pcbnew,8.0.3
; #@! TF.FileFunction,MixedPlating,1,4
FMAT,2
METRIC,TZ
; #@! TA.AperFunction,Plated,PTH,ViaDrill
T1C0.300
; #@! TA.AperFunction,Plated,PTH,ViaDrill
T2C0.400
; #@! TA.AperFunction,Plated,PTH,ViaDrill
T3C0.500
; #@! TA.AperFunction,Plated,PTH,ComponentDrill
T4C0.500
; #@! TA.AperFunction,Plated,PTH,ComponentDrill
T5C0.700
; #@! TA.AperFunction,Plated,PTH,ComponentDrill
T6C0.750
; #@! TA.AperFunction,Plated,PTH,ComponentDrill
T7C1.000
%
G90
G05
T1
X2272Y-7545
X2272Y-10085
X2272Y-15165
X2272Y-17705
X2272Y-20245
X2272Y-22785
X2272Y-25325
X2272Y-27865
X2272Y-32945
X2272Y-35485
X2272Y-38025
X2475Y-11975
X3275Y-30925
X3675Y-16600
X4375Y-32875
X4812Y-5005
X4812Y-17705
X4812Y-20245
X4812Y-22785
X4812Y-38025
X4812Y-40565
X7352Y-2465
X7352Y-5005
X7352Y-10085
X7352Y-12625
X7352Y-15165
X7352Y-22785
X7352Y-30405
X7352Y-32945
X7352Y-40565
X7352Y-43105
X8300Y-18050
X9892Y-2465
X9892Y-5005
X9892Y-35485
X10575Y-42075
X11200Y-10725
X11325Y-30150
X12432Y-2465
X12432Y-5005
X12800Y-42925
X13275Y-39575
X14972Y-2465
X14972Y-5005
X15850Y-42150
X16675Y-20075
X17512Y-2465
X17512Y-5005
X17512Y-32945
X17700Y-9225
X18225Y-25900
X18225Y-28550
X19125Y-5525
X19475Y-40450
X20052Y-2465
X20475Y-19875
X20775Y-28550
X20775Y-33400
X20850Y-12325
X20963Y-16852
X20975Y-26775
X21075Y-37900
X22275Y-9500
X22592Y-2465
X22592Y-5005
X22592Y-32945
X24875Y-32750
X25132Y-2465
X25132Y-5005
X25132Y-7545
X25132Y-25325
X25200Y-34575
X26050Y-16700
X27672Y-2465
X27672Y-5005
X27672Y-7545
X27672Y-12625
X27672Y-15165
X27672Y-20245
X27672Y-22785
X27672Y-38025
X28900Y-32925
X30212Y-2465
X30212Y-7545
X30212Y-12625
X30212Y-20245
X30212Y-35485
X30212Y-38025
X30825Y-9750
X30825Y-23125
X32650Y-9250
X32752Y-2465
X32752Y-5005
X32752Y-17705
X32752Y-27865
X32752Y-35485
X32752Y-38025
X33550Y-24283
X35292Y-2465
X35292Y-5005
X35292Y-7545
X35292Y-10085
X35292Y-12625
X35292Y-27865
X35292Y-30405
X35292Y-35485
X35292Y-38025
X35292Y-40565
X37832Y-2465
X37832Y-5005
X37832Y-10085
X37832Y-17705
X37832Y-35485
X37832Y-38025
X37832Y-40565
X38550Y-23250
X40372Y-2465
X40372Y-5005
X40372Y-40565
X41250Y-11450
X41800Y-15300
X41800Y-29975
X42912Y-2465
X42912Y-17705
X42912Y-40565
X44600Y-6550
X44600Y-12275
X45300Y-37025
X45300Y-39200
X45425Y-21750
X45452Y-30405
X45452Y-32945
X45452Y-40565
X45975Y-2650
X46200Y-23825
X46550Y-37475
X47150Y-15650
X47650Y-13950
X47800Y-7775
X47800Y-11000
X48375Y-10200
X48375Y-26175
X48450Y-13925
X48875Y-28250
X49350Y-39225
X50475Y-39225
X50500Y-35200
X51050Y-7850
X51450Y-41300
X51575Y-15900
X51925Y-13100
X52200Y-16725
X52300Y-27775
X52475Y-41300
X52550Y-24625
X52650Y-38950
X53072Y-2465
X53550Y-31825
X53825Y-12875
X54200Y-35000
X54625Y-21725
X54925Y-16825
X55450Y-41125
X55612Y-2465
X55612Y-7545
X56150Y-40525
X56800Y-37300
X57225Y-28975
X57700Y-37550
X58050Y-31025
X58152Y-2465
X58152Y-7545
X58152Y-12625
X58710Y-17210
X59275Y-3700
X59400Y-31800
X59425Y-37775
X60075Y-21975
X60692Y-10085
X60700Y-4875
X61075Y-24150
X61775Y-18250
X61875Y-2675
X61875Y-43575
X62750Y-42775
X62800Y-3050
X63232Y-7545
X63275Y-18200
X63600Y-3750
X63650Y-6025
X64825Y-16575
X65000Y-3825
X65225Y-22100
X65772Y-48185
X65975Y-23550
X66250Y-3846
X67625Y-33100
X67675Y-22875
X68312Y-38025
X68312Y-40565
X68312Y-45645
X68600Y-13850
X68675Y-4575
X68900Y-31950
X69625Y-16075
X69650Y-7325
X69650Y-10800
X69725Y-3825
X69975Y-18925
X70175Y-17375
X70176Y-6677
X70425Y-33500
X70852Y-40565
X70852Y-45645
X72575Y-17450
X73100Y-18675
X73175Y-16075
X73392Y-22785
X73392Y-40565
X73392Y-45645
X74325Y-28750
X74375Y-13900
X75725Y-6025
X75775Y-44150
X75932Y-22785
X75932Y-45645
X76750Y-7325
X77325Y-20925
X77400Y-11625
X77675Y-8600
X78275Y-17375
X78472Y-25325
X78472Y-45645
X79400Y-40475
X79500Y-22650
X79625Y-32250
X79688Y-18863
X80475Y-3650
X80600Y-6975
X80950Y-11675
X81012Y-5005
X81012Y-25325
X81350Y-28825
X81950Y-11750
X82550Y-22725
X82600Y-32700
X83000Y-40675
X83050Y-43175
X86092Y-40565
X86092Y-43105
X86650Y-33825
X86725Y-38625
X87400Y-27175
X88150Y-40025
X88632Y-20245
X90100Y-16975
X90250Y-8675
X91172Y-43105
X91650Y-23900
X91675Y-30600
X91825Y-20300
X91850Y-21375
X91925Y-4975
X92375Y-38800
X93712Y-43105
X94150Y-4225
X94925Y-27300
X95750Y-20350
X96100Y-25375
X96252Y-5005
X96252Y-12625
X96252Y-32945
X96252Y-43105
X96775Y-40750
X97550Y-20950
X98175Y-28175
X98792Y-7545
X98792Y-17705
X98792Y-45645
X99350Y-14100
X99475Y-25375
X100225Y-40750
X101332Y-7545
X101332Y-17705
X101332Y-25325
X101332Y-32945
X101332Y-43105
X101332Y-45645
X103872Y-30405
X103872Y-43105
X103872Y-45645
X104800Y-4700
X104800Y-20425
X106412Y-40565
X106412Y-45645
X106925Y-20400
X106950Y-4700
X107125Y-43400
X108225Y-17375
X108600Y-21325
X108675Y-8150
X108952Y-22785
X108952Y-25325
X108952Y-27865
X108952Y-32945
X108952Y-45645
X110375Y-20125
X110400Y-4775
X111492Y-32945
X111492Y-45645
X111625Y-27150
X111625Y-37325
X112075Y-39675
X114032Y-45645
X114675Y-26225
X114750Y-29100
X115075Y-37275
X116572Y-7545
X116572Y-10085
X116572Y-15165
X116572Y-45645
X118725Y-35525
X119000Y-42125
X119112Y-45645
X119175Y-19450
X119375Y-22900
X120800Y-36975
X120825Y-23100
X120900Y-10200
X121075Y-15750
X121652Y-25325
X121652Y-45645
X121700Y-12900
X121900Y-23850
X122450Y-18927
X122800Y-41700
X122925Y-15925
X124192Y-43105
X124192Y-45645
X124325Y-15900
X124525Y-5400
X124950Y-12525
X125075Y-26250
X125775Y-22000
X126732Y-25325
X126732Y-30405
X126732Y-32945
X126732Y-35485
X126732Y-38025
X126732Y-40565
X126732Y-43105
T2
X11050Y-15100
X19100Y-12150
X19125Y-13950
X19475Y-31650
X19475Y-33575
X33750Y-21750
X38400Y-21750
X42500Y-28925
X45625Y-19800
X62525Y-21000
X64825Y-28450
X66725Y-16950
X69100Y-24375
X72975Y-4225
X78863Y-14163
X81325Y-35725
X81325Y-37475
X83050Y-17200
X91409Y-13865
X91925Y-11775
X99425Y-32150
X99475Y-34025
X110375Y-11775
X111575Y-13350
X113475Y-32150
X113475Y-34025
X119250Y-30475
X122350Y-43500
X125850Y-5425
X128625Y-8175
T3
X43800Y-4550
X52775Y-29625
T4
X8300Y-20750
X29025Y-6725
X33850Y-39550
X44300Y-31100
X44425Y-18275
X59200Y-12050
X61225Y-7675
T5
X32885Y-6375
X37965Y-6375
T6
X113390Y-20480
X114660Y-19210
X114660Y-21750
X117940Y-6160
X119210Y-4890
X119210Y-7430
T7
X43438Y-45348
X43438Y-47887
X45978Y-45348
X45978Y-47887
X48518Y-45348
X48518Y-47887
X51058Y-45348
X51058Y-47887
X53597Y-45348
X53597Y-47887
X56138Y-45348
X56138Y-47887
X58678Y-45348
X58678Y-47887
X61218Y-45348
X61218Y-47887
X63758Y-45348
X63758Y-47887
M30
