%TF.GenerationSoftware,KiCad,Pcbnew,8.0.3*%
%TF.CreationDate,2024-07-17T18:03:28-06:00*%
%TF.ProjectId,VoiceBoardR4,566f6963-6542-46f6-9172-6452342e6b69,rev?*%
%TF.SameCoordinates,Original*%
%TF.FileFunction,Copper,L1,Top*%
%TF.FilePolarity,Positive*%
%FSLAX46Y46*%
G04 Gerber Fmt 4.6, Leading zero omitted, Abs format (unit mm)*
G04 Created by KiCad (PCBNEW 8.0.3) date 2024-07-17 18:03:28*
%MOMM*%
%LPD*%
G01*
G04 APERTURE LIST*
G04 Aperture macros list*
%AMRoundRect*
0 Rectangle with rounded corners*
0 $1 Rounding radius*
0 $2 $3 $4 $5 $6 $7 $8 $9 X,Y pos of 4 corners*
0 Add a 4 corners polygon primitive as box body*
4,1,4,$2,$3,$4,$5,$6,$7,$8,$9,$2,$3,0*
0 Add four circle primitives for the rounded corners*
1,1,$1+$1,$2,$3*
1,1,$1+$1,$4,$5*
1,1,$1+$1,$6,$7*
1,1,$1+$1,$8,$9*
0 Add four rect primitives between the rounded corners*
20,1,$1+$1,$2,$3,$4,$5,0*
20,1,$1+$1,$4,$5,$6,$7,0*
20,1,$1+$1,$6,$7,$8,$9,0*
20,1,$1+$1,$8,$9,$2,$3,0*%
G04 Aperture macros list end*
%TA.AperFunction,SMDPad,CuDef*%
%ADD10RoundRect,0.250000X0.450000X-0.262500X0.450000X0.262500X-0.450000X0.262500X-0.450000X-0.262500X0*%
%TD*%
%TA.AperFunction,SMDPad,CuDef*%
%ADD11RoundRect,0.250000X-0.250000X-0.475000X0.250000X-0.475000X0.250000X0.475000X-0.250000X0.475000X0*%
%TD*%
%TA.AperFunction,SMDPad,CuDef*%
%ADD12RoundRect,0.250000X0.475000X-0.250000X0.475000X0.250000X-0.475000X0.250000X-0.475000X-0.250000X0*%
%TD*%
%TA.AperFunction,SMDPad,CuDef*%
%ADD13RoundRect,0.250000X-0.475000X0.250000X-0.475000X-0.250000X0.475000X-0.250000X0.475000X0.250000X0*%
%TD*%
%TA.AperFunction,SMDPad,CuDef*%
%ADD14RoundRect,0.250000X-0.262500X-0.450000X0.262500X-0.450000X0.262500X0.450000X-0.262500X0.450000X0*%
%TD*%
%TA.AperFunction,SMDPad,CuDef*%
%ADD15RoundRect,0.100000X0.100000X-0.637500X0.100000X0.637500X-0.100000X0.637500X-0.100000X-0.637500X0*%
%TD*%
%TA.AperFunction,SMDPad,CuDef*%
%ADD16RoundRect,0.250000X0.262500X0.450000X-0.262500X0.450000X-0.262500X-0.450000X0.262500X-0.450000X0*%
%TD*%
%TA.AperFunction,SMDPad,CuDef*%
%ADD17RoundRect,0.150000X0.150000X-0.825000X0.150000X0.825000X-0.150000X0.825000X-0.150000X-0.825000X0*%
%TD*%
%TA.AperFunction,SMDPad,CuDef*%
%ADD18RoundRect,0.250000X-0.450000X0.262500X-0.450000X-0.262500X0.450000X-0.262500X0.450000X0.262500X0*%
%TD*%
%TA.AperFunction,SMDPad,CuDef*%
%ADD19R,0.900000X0.800000*%
%TD*%
%TA.AperFunction,SMDPad,CuDef*%
%ADD20RoundRect,0.225000X0.375000X-0.225000X0.375000X0.225000X-0.375000X0.225000X-0.375000X-0.225000X0*%
%TD*%
%TA.AperFunction,SMDPad,CuDef*%
%ADD21RoundRect,0.150000X-0.150000X0.825000X-0.150000X-0.825000X0.150000X-0.825000X0.150000X0.825000X0*%
%TD*%
%TA.AperFunction,SMDPad,CuDef*%
%ADD22R,0.800000X0.900000*%
%TD*%
%TA.AperFunction,ComponentPad*%
%ADD23R,1.800000X1.100000*%
%TD*%
%TA.AperFunction,ComponentPad*%
%ADD24RoundRect,0.275000X0.625000X-0.275000X0.625000X0.275000X-0.625000X0.275000X-0.625000X-0.275000X0*%
%TD*%
%TA.AperFunction,ComponentPad*%
%ADD25R,1.700000X1.700000*%
%TD*%
%TA.AperFunction,ComponentPad*%
%ADD26O,1.700000X1.700000*%
%TD*%
%TA.AperFunction,SMDPad,CuDef*%
%ADD27RoundRect,0.100000X-0.100000X0.637500X-0.100000X-0.637500X0.100000X-0.637500X0.100000X0.637500X0*%
%TD*%
%TA.AperFunction,ComponentPad*%
%ADD28C,1.000000*%
%TD*%
%TA.AperFunction,SMDPad,CuDef*%
%ADD29RoundRect,0.150000X-0.825000X-0.150000X0.825000X-0.150000X0.825000X0.150000X-0.825000X0.150000X0*%
%TD*%
%TA.AperFunction,ComponentPad*%
%ADD30C,1.400000*%
%TD*%
%TA.AperFunction,ComponentPad*%
%ADD31O,1.400000X1.400000*%
%TD*%
%TA.AperFunction,SMDPad,CuDef*%
%ADD32RoundRect,0.250000X0.250000X0.475000X-0.250000X0.475000X-0.250000X-0.475000X0.250000X-0.475000X0*%
%TD*%
%TA.AperFunction,SMDPad,CuDef*%
%ADD33RoundRect,0.243750X0.243750X0.456250X-0.243750X0.456250X-0.243750X-0.456250X0.243750X-0.456250X0*%
%TD*%
%TA.AperFunction,SMDPad,CuDef*%
%ADD34RoundRect,0.243750X-0.243750X-0.456250X0.243750X-0.456250X0.243750X0.456250X-0.243750X0.456250X0*%
%TD*%
%TA.AperFunction,SMDPad,CuDef*%
%ADD35RoundRect,0.225000X-0.225000X-0.375000X0.225000X-0.375000X0.225000X0.375000X-0.225000X0.375000X0*%
%TD*%
%TA.AperFunction,ViaPad*%
%ADD36C,0.600000*%
%TD*%
%TA.AperFunction,ViaPad*%
%ADD37C,0.800000*%
%TD*%
%TA.AperFunction,ViaPad*%
%ADD38C,1.000000*%
%TD*%
%TA.AperFunction,Conductor*%
%ADD39C,0.152400*%
%TD*%
%TA.AperFunction,Conductor*%
%ADD40C,0.304800*%
%TD*%
%TA.AperFunction,Conductor*%
%ADD41C,0.500000*%
%TD*%
G04 APERTURE END LIST*
D10*
%TO.P,R207,1*%
%TO.N,Net-(U201A--)*%
X8952500Y-12427500D03*
%TO.P,R207,2*%
%TO.N,Net-(C201-Pad2)*%
X8952500Y-10602500D03*
%TD*%
D11*
%TO.P,C406,1*%
%TO.N,FOLDER_IN*%
X88720000Y-28255000D03*
%TO.P,C406,2*%
%TO.N,Net-(C406-Pad2)*%
X90620000Y-28255000D03*
%TD*%
D12*
%TO.P,C409,1*%
%TO.N,+12V*%
X99455000Y-28254999D03*
%TO.P,C409,2*%
%TO.N,GND*%
X99455000Y-26355001D03*
%TD*%
D10*
%TO.P,R215,1*%
%TO.N,Net-(C209-Pad2)*%
X9537500Y-27802500D03*
%TO.P,R215,2*%
%TO.N,Net-(Q202-C)*%
X9537500Y-25977500D03*
%TD*%
D13*
%TO.P,C216,1*%
%TO.N,GND*%
X53817500Y-14200001D03*
%TO.P,C216,2*%
%TO.N,-12V*%
X53817500Y-16099999D03*
%TD*%
D14*
%TO.P,R217,1*%
%TO.N,Net-(U202C-+)*%
X19055000Y-42425000D03*
%TO.P,R217,2*%
%TO.N,Net-(U202D--)*%
X20880000Y-42425000D03*
%TD*%
D15*
%TO.P,U205,1,P3A*%
%TO.N,GND*%
X53550000Y-38937500D03*
%TO.P,U205,2,P3W*%
%TO.N,Net-(U205D-P3W)*%
X54200000Y-38937500D03*
%TO.P,U205,3,P3B*%
%TO.N,TRI2_FULL*%
X54850000Y-38937500D03*
%TO.P,U205,4,HVC/A0*%
%TO.N,unconnected-(U205E-HVC{slash}A0-Pad4)*%
X55500000Y-38937500D03*
%TO.P,U205,5,SCL*%
%TO.N,SCL*%
X56150000Y-38937500D03*
%TO.P,U205,6,SDA*%
%TO.N,SDA*%
X56800000Y-38937500D03*
%TO.P,U205,7,VSS*%
%TO.N,GND*%
X57450000Y-38937500D03*
%TO.P,U205,8,P1B*%
%TO.N,PULSE2_FULL*%
X58100000Y-38937500D03*
%TO.P,U205,9,P1W*%
%TO.N,Net-(U205B-P1W)*%
X58750000Y-38937500D03*
%TO.P,U205,10,P1A*%
%TO.N,GND*%
X59400000Y-38937500D03*
%TO.P,U205,11,P0A*%
X59400000Y-33212500D03*
%TO.P,U205,12,P0W*%
%TO.N,Net-(U205A-P0W)*%
X58750000Y-33212500D03*
%TO.P,U205,13,P0B*%
%TO.N,/DCO/O1_MIXF*%
X58100000Y-33212500D03*
%TO.P,U205,14,NC*%
%TO.N,unconnected-(U205E-NC-Pad14)*%
X57450000Y-33212500D03*
%TO.P,U205,15,~{RESET}*%
%TO.N,+3.3V*%
X56800000Y-33212500D03*
%TO.P,U205,16,A1*%
X56150000Y-33212500D03*
%TO.P,U205,17,VDD*%
X55500000Y-33212500D03*
%TO.P,U205,18,P2B*%
%TO.N,SAW2_FULL*%
X54850000Y-33212500D03*
%TO.P,U205,19,P2W*%
%TO.N,Net-(U205C-P2W)*%
X54200000Y-33212500D03*
%TO.P,U205,20,P2A*%
%TO.N,GND*%
X53550000Y-33212500D03*
%TD*%
D16*
%TO.P,R304,1*%
%TO.N,Net-(Q301-B)*%
X83412500Y-3640000D03*
%TO.P,R304,2*%
%TO.N,GND*%
X81587500Y-3640000D03*
%TD*%
D17*
%TO.P,U303,1*%
%TO.N,Net-(R307-Pad2)*%
X104045000Y-15115000D03*
%TO.P,U303,2,DIODE_BIAS*%
%TO.N,unconnected-(U303C-DIODE_BIAS-Pad2)*%
X105315000Y-15115000D03*
%TO.P,U303,3,+*%
%TO.N,Net-(U303C-+)*%
X106585000Y-15115000D03*
%TO.P,U303,4,-*%
%TO.N,Net-(U303C--)*%
X107855000Y-15115000D03*
%TO.P,U303,5*%
%TO.N,Net-(U301D-+)*%
X109125000Y-15115000D03*
%TO.P,U303,6,V-*%
%TO.N,-12V*%
X110395000Y-15115000D03*
%TO.P,U303,7*%
%TO.N,unconnected-(U303-Pad7)*%
X111665000Y-15115000D03*
%TO.P,U303,8*%
%TO.N,unconnected-(U303-Pad8)*%
X112935000Y-15115000D03*
%TO.P,U303,9*%
%TO.N,unconnected-(U303-Pad9)*%
X112935000Y-10165000D03*
%TO.P,U303,10*%
%TO.N,unconnected-(U303-Pad10)*%
X111665000Y-10165000D03*
%TO.P,U303,11,V+*%
%TO.N,+12V*%
X110395000Y-10165000D03*
%TO.P,U303,12*%
%TO.N,Net-(U301A-+)*%
X109125000Y-10165000D03*
%TO.P,U303,13,-*%
%TO.N,Net-(U303A--)*%
X107855000Y-10165000D03*
%TO.P,U303,14,+*%
%TO.N,Net-(U303A-+)*%
X106585000Y-10165000D03*
%TO.P,U303,15,DIODE_BIAS*%
%TO.N,unconnected-(U303A-DIODE_BIAS-Pad15)*%
X105315000Y-10165000D03*
%TO.P,U303,16*%
%TO.N,Net-(R306-Pad2)*%
X104045000Y-10165000D03*
%TD*%
D18*
%TO.P,R241,1*%
%TO.N,Net-(U204C--)*%
X59195000Y-14237500D03*
%TO.P,R241,2*%
%TO.N,/DCO/O1_MIXF*%
X59195000Y-16062500D03*
%TD*%
D13*
%TO.P,C218,1*%
%TO.N,GND*%
X55515000Y-29345001D03*
%TO.P,C218,2*%
%TO.N,+3.3V*%
X55515000Y-31244999D03*
%TD*%
D12*
%TO.P,C407,1*%
%TO.N,+12V*%
X113530001Y-28129999D03*
%TO.P,C407,2*%
%TO.N,GND*%
X113530001Y-26230001D03*
%TD*%
D18*
%TO.P,R213,1*%
%TO.N,Net-(Q202-B)*%
X5997500Y-25767500D03*
%TO.P,R213,2*%
%TO.N,Net-(C208-Pad2)*%
X5997500Y-27592500D03*
%TD*%
%TO.P,R408,1*%
%TO.N,Net-(R408-Pad1)*%
X72570000Y-28762500D03*
%TO.P,R408,2*%
%TO.N,Net-(Q401-C)*%
X72570000Y-30587500D03*
%TD*%
D11*
%TO.P,C405,1*%
%TO.N,Net-(U404C--)*%
X73797500Y-39145000D03*
%TO.P,C405,2*%
%TO.N,Net-(Q401-E)*%
X75697500Y-39145000D03*
%TD*%
D16*
%TO.P,R226,1*%
%TO.N,PULSE1_FULL*%
X32652500Y-10922501D03*
%TO.P,R226,2*%
%TO.N,GND*%
X30827500Y-10922501D03*
%TD*%
D11*
%TO.P,C306,1*%
%TO.N,Net-(U301A-+)*%
X94190001Y-7000000D03*
%TO.P,C306,2*%
%TO.N,Net-(D301-K)*%
X96089999Y-7000000D03*
%TD*%
D19*
%TO.P,Q406,1,B*%
%TO.N,Net-(Q406-B)*%
X88090000Y-31600000D03*
%TO.P,Q406,2,E*%
%TO.N,Net-(Q406-E)*%
X88090000Y-33500000D03*
%TO.P,Q406,3,C*%
%TO.N,Net-(Q406-C)*%
X90090000Y-32550000D03*
%TD*%
D13*
%TO.P,C309,1*%
%TO.N,-12V*%
X91925000Y-17380001D03*
%TO.P,C309,2*%
%TO.N,GND*%
X91925000Y-19279999D03*
%TD*%
D16*
%TO.P,R210,1*%
%TO.N,Net-(U201C--)*%
X17032500Y-18210000D03*
%TO.P,R210,2*%
%TO.N,TRI1_FULL*%
X15207500Y-18210000D03*
%TD*%
D13*
%TO.P,C212,1*%
%TO.N,GND*%
X19490000Y-25895001D03*
%TO.P,C212,2*%
%TO.N,+12V*%
X19490000Y-27794999D03*
%TD*%
D18*
%TO.P,R401,1*%
%TO.N,Net-(U404C--)*%
X77795001Y-41342500D03*
%TO.P,R401,2*%
%TO.N,Net-(Q401-E)*%
X77795001Y-43167500D03*
%TD*%
D19*
%TO.P,Q301,1,B*%
%TO.N,Net-(Q301-B)*%
X83840000Y-11700000D03*
%TO.P,Q301,2,E*%
%TO.N,Net-(Q301-E)*%
X83840000Y-13600000D03*
%TO.P,Q301,3,C*%
%TO.N,Net-(Q301-C)*%
X85840000Y-12650000D03*
%TD*%
D10*
%TO.P,R406,1*%
%TO.N,GND*%
X93865000Y-28212500D03*
%TO.P,R406,2*%
%TO.N,Net-(U402A--)*%
X93865000Y-26387500D03*
%TD*%
D12*
%TO.P,C311,1*%
%TO.N,+12V*%
X110390000Y-7859999D03*
%TO.P,C311,2*%
%TO.N,GND*%
X110390000Y-5960001D03*
%TD*%
D13*
%TO.P,C217,1*%
%TO.N,GND*%
X47165000Y-2660001D03*
%TO.P,C217,2*%
%TO.N,+3.3V*%
X47165000Y-4559999D03*
%TD*%
D14*
%TO.P,R301,1*%
%TO.N,Net-(Q301-E)*%
X86507500Y-7440000D03*
%TO.P,R301,2*%
%TO.N,Net-(C301-Pad1)*%
X88332500Y-7440000D03*
%TD*%
D10*
%TO.P,R209,1*%
%TO.N,GND*%
X26065000Y-15642500D03*
%TO.P,R209,2*%
%TO.N,Net-(U201C-+)*%
X26065000Y-13817500D03*
%TD*%
D20*
%TO.P,D202,1,K*%
%TO.N,TRI1_FULL*%
X12950000Y-21950000D03*
%TO.P,D202,2,A*%
%TO.N,Net-(D202-A)*%
X12950000Y-18650000D03*
%TD*%
D16*
%TO.P,R230,1*%
%TO.N,Net-(U203B-P1W)*%
X42092500Y-9855000D03*
%TO.P,R230,2*%
%TO.N,Net-(U204D--)*%
X40267500Y-9855000D03*
%TD*%
D14*
%TO.P,R212,1*%
%TO.N,GND*%
X4375000Y-34290000D03*
%TO.P,R212,2*%
%TO.N,Net-(C208-Pad2)*%
X6200000Y-34290000D03*
%TD*%
D16*
%TO.P,R238,1*%
%TO.N,Net-(U205B-P1W)*%
X49650000Y-33200000D03*
%TO.P,R238,2*%
%TO.N,Net-(U204A--)*%
X47825000Y-33200000D03*
%TD*%
D14*
%TO.P,R202,1*%
%TO.N,Net-(U201D--)*%
X22577500Y-19485000D03*
%TO.P,R202,2*%
%TO.N,Net-(R202-Pad2)*%
X24402500Y-19485000D03*
%TD*%
D12*
%TO.P,C308,1*%
%TO.N,+12V*%
X91935000Y-7939999D03*
%TO.P,C308,2*%
%TO.N,GND*%
X91935000Y-6040001D03*
%TD*%
D16*
%TO.P,R308,1*%
%TO.N,Net-(U303A--)*%
X100512500Y-9600000D03*
%TO.P,R308,2*%
%TO.N,Net-(U301A--)*%
X98687500Y-9600000D03*
%TD*%
D11*
%TO.P,C211,1*%
%TO.N,Net-(U205A-P0W)*%
X61055001Y-33225000D03*
%TO.P,C211,2*%
%TO.N,Net-(C211-Pad2)*%
X62954999Y-33225000D03*
%TD*%
D10*
%TO.P,R220,1*%
%TO.N,Net-(R220-Pad1)*%
X57675000Y-27507500D03*
%TO.P,R220,2*%
%TO.N,Net-(U204B--)*%
X57675000Y-25682500D03*
%TD*%
D11*
%TO.P,C214,1*%
%TO.N,Net-(U203A-P0W)*%
X52615000Y-6530000D03*
%TO.P,C214,2*%
%TO.N,Net-(C214-Pad2)*%
X54515000Y-6530000D03*
%TD*%
D14*
%TO.P,R201,1*%
%TO.N,Net-(U201C-+)*%
X18987500Y-23000000D03*
%TO.P,R201,2*%
%TO.N,Net-(U201D--)*%
X20812500Y-23000000D03*
%TD*%
D12*
%TO.P,C213,1*%
%TO.N,GND*%
X19490000Y-39264999D03*
%TO.P,C213,2*%
%TO.N,-12V*%
X19490000Y-37365001D03*
%TD*%
D21*
%TO.P,U202,1*%
%TO.N,SAW2_FULL*%
X23300000Y-30140000D03*
%TO.P,U202,2,-*%
%TO.N,Net-(U202A--)*%
X22030000Y-30140000D03*
%TO.P,U202,3,+*%
%TO.N,GND*%
X20760000Y-30140000D03*
%TO.P,U202,4,V+*%
%TO.N,+12V*%
X19490000Y-30140000D03*
%TO.P,U202,5,+*%
%TO.N,GND*%
X18220000Y-30140000D03*
%TO.P,U202,6,-*%
%TO.N,Net-(Q202-E)*%
X16950000Y-30140000D03*
%TO.P,U202,7*%
%TO.N,Net-(C209-Pad2)*%
X15680000Y-30140000D03*
%TO.P,U202,8*%
%TO.N,Net-(D203-A)*%
X15680000Y-35090000D03*
%TO.P,U202,9,-*%
%TO.N,Net-(U202C--)*%
X16950000Y-35090000D03*
%TO.P,U202,10,+*%
%TO.N,Net-(U202C-+)*%
X18220000Y-35090000D03*
%TO.P,U202,11,V-*%
%TO.N,-12V*%
X19490000Y-35090000D03*
%TO.P,U202,12,+*%
%TO.N,GND*%
X20760000Y-35090000D03*
%TO.P,U202,13,-*%
%TO.N,Net-(U202D--)*%
X22030000Y-35090000D03*
%TO.P,U202,14*%
%TO.N,Net-(D204-A)*%
X23300000Y-35090000D03*
%TD*%
D10*
%TO.P,R204,1*%
%TO.N,Net-(C201-Pad2)*%
X8952500Y-8527500D03*
%TO.P,R204,2*%
%TO.N,Net-(Q201-C)*%
X8952500Y-6702500D03*
%TD*%
D14*
%TO.P,R218,1*%
%TO.N,Net-(U202D--)*%
X22815000Y-38755000D03*
%TO.P,R218,2*%
%TO.N,Net-(R218-Pad2)*%
X24640000Y-38755000D03*
%TD*%
D10*
%TO.P,R411,1*%
%TO.N,Net-(U403B-+)*%
X123870000Y-28072500D03*
%TO.P,R411,2*%
%TO.N,GND*%
X123870000Y-26247500D03*
%TD*%
D13*
%TO.P,C404,1*%
%TO.N,-12V*%
X81330000Y-41285001D03*
%TO.P,C404,2*%
%TO.N,GND*%
X81330000Y-43184999D03*
%TD*%
D11*
%TO.P,C301,1*%
%TO.N,Net-(C301-Pad1)*%
X86440000Y-4090000D03*
%TO.P,C301,2*%
%TO.N,Net-(Q301-C)*%
X88340000Y-4090000D03*
%TD*%
D22*
%TO.P,Q403,1,B*%
%TO.N,Net-(Q402-B)*%
X106370000Y-33420000D03*
%TO.P,Q403,2,E*%
%TO.N,Net-(Q403-E)*%
X104470000Y-33420000D03*
%TO.P,Q403,3,C*%
%TO.N,Net-(Q402-C)*%
X105420000Y-35420000D03*
%TD*%
D12*
%TO.P,C207,1*%
%TO.N,GND*%
X19115000Y-19829999D03*
%TO.P,C207,2*%
%TO.N,-12V*%
X19115000Y-17930001D03*
%TD*%
D16*
%TO.P,R424,1*%
%TO.N,Net-(R424-Pad1)*%
X90002500Y-35500000D03*
%TO.P,R424,2*%
%TO.N,Net-(Q406-C)*%
X88177500Y-35500000D03*
%TD*%
D14*
%TO.P,R214,1*%
%TO.N,LEVEL_2_CV*%
X11635000Y-32360000D03*
%TO.P,R214,2*%
%TO.N,Net-(Q202-E)*%
X13460000Y-32360000D03*
%TD*%
D17*
%TO.P,U204,1*%
%TO.N,Net-(R220-Pad1)*%
X50025000Y-23225000D03*
%TO.P,U204,2,-*%
%TO.N,Net-(U204A--)*%
X51295000Y-23225000D03*
%TO.P,U204,3,+*%
%TO.N,GND*%
X52565000Y-23225000D03*
%TO.P,U204,4,V+*%
%TO.N,+12V*%
X53835000Y-23225000D03*
%TO.P,U204,5,+*%
%TO.N,GND*%
X55105000Y-23225000D03*
%TO.P,U204,6,-*%
%TO.N,Net-(U204B--)*%
X56375000Y-23225000D03*
%TO.P,U204,7*%
%TO.N,/DCO/O2_MIXF*%
X57645000Y-23225000D03*
%TO.P,U204,8*%
%TO.N,/DCO/O1_MIXF*%
X57645000Y-18275000D03*
%TO.P,U204,9,-*%
%TO.N,Net-(U204C--)*%
X56375000Y-18275000D03*
%TO.P,U204,10,+*%
%TO.N,GND*%
X55105000Y-18275000D03*
%TO.P,U204,11,V-*%
%TO.N,-12V*%
X53835000Y-18275000D03*
%TO.P,U204,12,+*%
%TO.N,GND*%
X52565000Y-18275000D03*
%TO.P,U204,13,-*%
%TO.N,Net-(U204D--)*%
X51295000Y-18275000D03*
%TO.P,U204,14*%
%TO.N,Net-(R233-Pad2)*%
X50025000Y-18275000D03*
%TD*%
D10*
%TO.P,R409,1*%
%TO.N,Net-(R409-Pad1)*%
X116890001Y-28092500D03*
%TO.P,R409,2*%
%TO.N,Net-(U403A--)*%
X116890001Y-26267500D03*
%TD*%
D13*
%TO.P,C310,1*%
%TO.N,-12V*%
X110390000Y-17340001D03*
%TO.P,C310,2*%
%TO.N,GND*%
X110390000Y-19239999D03*
%TD*%
D14*
%TO.P,R311,1*%
%TO.N,LP_IN*%
X98677500Y-5800000D03*
%TO.P,R311,2*%
%TO.N,Net-(U303A--)*%
X100502500Y-5800000D03*
%TD*%
D13*
%TO.P,C408,1*%
%TO.N,-12V*%
X113450000Y-37760001D03*
%TO.P,C408,2*%
%TO.N,GND*%
X113450000Y-39659999D03*
%TD*%
D11*
%TO.P,C202,1*%
%TO.N,CLK_1*%
X3630000Y-11965000D03*
%TO.P,C202,2*%
%TO.N,Net-(C202-Pad2)*%
X5530000Y-11965000D03*
%TD*%
D20*
%TO.P,D204,1,K*%
%TO.N,TRI2_FULL*%
X27077500Y-40102500D03*
%TO.P,D204,2,A*%
%TO.N,Net-(D204-A)*%
X27077500Y-36802500D03*
%TD*%
D13*
%TO.P,C305,1*%
%TO.N,Net-(U301D--)*%
X94460000Y-17370001D03*
%TO.P,C305,2*%
%TO.N,FILTER_OUT*%
X94460000Y-19269999D03*
%TD*%
D14*
%TO.P,R221,1*%
%TO.N,GND*%
X15175000Y-40955000D03*
%TO.P,R221,2*%
%TO.N,Net-(U202C--)*%
X17000000Y-40955000D03*
%TD*%
D18*
%TO.P,R403,1*%
%TO.N,+12V*%
X71722500Y-37332500D03*
%TO.P,R403,2*%
%TO.N,Net-(U404C--)*%
X71722500Y-39157500D03*
%TD*%
D23*
%TO.P,U304,1,GND*%
%TO.N,GND*%
X115060000Y-21750000D03*
D24*
%TO.P,U304,2,Vin*%
%TO.N,-12V*%
X112990000Y-20480000D03*
%TO.P,U304,3,Vout*%
%TO.N,-5V*%
X115060000Y-19210000D03*
%TD*%
D16*
%TO.P,R235,1*%
%TO.N,Net-(R202-Pad2)*%
X24402500Y-21585000D03*
%TO.P,R235,2*%
%TO.N,TRI1_FULL*%
X22577500Y-21585000D03*
%TD*%
%TO.P,R232,1*%
%TO.N,Net-(U204A--)*%
X51972500Y-26170000D03*
%TO.P,R232,2*%
%TO.N,Net-(R220-Pad1)*%
X50147500Y-26170000D03*
%TD*%
D18*
%TO.P,R246,1*%
%TO.N,Net-(R245-Pad2)*%
X40275000Y-27587500D03*
%TO.P,R246,2*%
%TO.N,OSC_MIX*%
X40275000Y-29412500D03*
%TD*%
D14*
%TO.P,R205,1*%
%TO.N,GND*%
X3667500Y-15365000D03*
%TO.P,R205,2*%
%TO.N,Net-(C202-Pad2)*%
X5492500Y-15365000D03*
%TD*%
D25*
%TO.P,U103,1,SDA*%
%TO.N,SDA*%
X43437500Y-47887500D03*
D26*
%TO.P,U103,2,LVL1*%
%TO.N,LEVEL_1_CV*%
X43437500Y-45347500D03*
%TO.P,U103,3,SCL*%
%TO.N,SCL*%
X45977500Y-47887500D03*
%TO.P,U103,4,LVL2*%
%TO.N,LEVEL_2_CV*%
X45977500Y-45347500D03*
%TO.P,U103,5,CLK1*%
%TO.N,CLK_1*%
X48517500Y-47887500D03*
%TO.P,U103,6,PWM1*%
%TO.N,PWM_1_CV*%
X48517500Y-45347500D03*
%TO.P,U103,7,CLK2*%
%TO.N,CLK_2*%
X51057500Y-47887500D03*
%TO.P,U103,8,PWM2*%
%TO.N,PWM_2_CV*%
X51057500Y-45347500D03*
%TO.P,U103,9,HP*%
%TO.N,HP_MODE*%
X53597500Y-47887500D03*
%TO.P,U103,10,FOLD*%
%TO.N,FOLD_CV*%
X53597500Y-45347500D03*
%TO.P,U103,11,FF*%
%TO.N,FOLD_FIRST*%
X56137500Y-47887500D03*
%TO.P,U103,12,VCF*%
%TO.N,CUTOFF_CV*%
X56137500Y-45347500D03*
%TO.P,U103,13,OUT*%
%TO.N,VCA_OUT*%
X58677500Y-47887500D03*
%TO.P,U103,14,VCA*%
%TO.N,VCA_CV*%
X58677500Y-45347500D03*
%TO.P,U103,15,+3V3*%
%TO.N,+3.3V*%
X61217500Y-47887500D03*
%TO.P,U103,16,GND*%
%TO.N,GND*%
X61217500Y-45347500D03*
%TO.P,U103,17,+12V*%
%TO.N,+12V*%
X63757500Y-47887500D03*
%TO.P,U103,18,-12V*%
%TO.N,-12V*%
X63757500Y-45347500D03*
%TD*%
D27*
%TO.P,U302,1,A*%
%TO.N,FILTER_OUT*%
X124970000Y-14357500D03*
%TO.P,U302,2,W*%
%TO.N,Net-(U301C-+)*%
X124320000Y-14357500D03*
%TO.P,U302,3,B*%
%TO.N,GND*%
X123670000Y-14357500D03*
%TO.P,U302,4,VDD*%
%TO.N,+5V*%
X123020000Y-14357500D03*
%TO.P,U302,5,~{SHDN}*%
%TO.N,Net-(U302-~{SHDN})*%
X122370000Y-14357500D03*
%TO.P,U302,6,SCL*%
%TO.N,SCL*%
X121720000Y-14357500D03*
%TO.P,U302,7,SDA*%
%TO.N,SDA*%
X121070000Y-14357500D03*
%TO.P,U302,8,AD0*%
%TO.N,+3.3V*%
X121070000Y-20082500D03*
%TO.P,U302,9,AD1*%
%TO.N,GND*%
X121720000Y-20082500D03*
%TO.P,U302,10,GND*%
X122370000Y-20082500D03*
%TO.P,U302,11,VSS*%
%TO.N,-5V*%
X123020000Y-20082500D03*
%TO.P,U302,12,O2*%
%TO.N,unconnected-(U302-O2-Pad12)*%
X123670000Y-20082500D03*
%TO.P,U302,13,VLOG*%
%TO.N,+3.3V*%
X124320000Y-20082500D03*
%TO.P,U302,14,O1*%
%TO.N,unconnected-(U302-O1-Pad14)*%
X124970000Y-20082500D03*
%TD*%
D16*
%TO.P,R244,1*%
%TO.N,Net-(C211-Pad2)*%
X62907500Y-35345000D03*
%TO.P,R244,2*%
%TO.N,Net-(U206C--)*%
X61082500Y-35345000D03*
%TD*%
D20*
%TO.P,D201,1,K*%
%TO.N,TRI1_FULL*%
X26700000Y-21472500D03*
%TO.P,D201,2,A*%
%TO.N,Net-(D201-A)*%
X26700000Y-18172500D03*
%TD*%
D28*
%TO.P,SAW2,1,1*%
%TO.N,SAW2_FULL*%
X44300000Y-31100000D03*
%TD*%
D10*
%TO.P,R314,1*%
%TO.N,GND*%
X104820000Y-19212500D03*
%TO.P,R314,2*%
%TO.N,Net-(U303C-+)*%
X104820000Y-17387500D03*
%TD*%
D29*
%TO.P,U206,1*%
%TO.N,Net-(D205-A)*%
X35127500Y-17932501D03*
%TO.P,U206,2,-*%
%TO.N,SAW1_FULL*%
X35127500Y-19202501D03*
%TO.P,U206,3,+*%
%TO.N,PWM_1_CV*%
X35127500Y-20472501D03*
%TO.P,U206,4,V+*%
%TO.N,+12V*%
X35127500Y-21742501D03*
%TO.P,U206,5,+*%
%TO.N,PWM_2_CV*%
X35127500Y-23012501D03*
%TO.P,U206,6,-*%
%TO.N,SAW2_FULL*%
X35127500Y-24282501D03*
%TO.P,U206,7*%
%TO.N,Net-(D206-A)*%
X35127500Y-25552501D03*
%TO.P,U206,8*%
%TO.N,Net-(R245-Pad2)*%
X40077500Y-25552501D03*
%TO.P,U206,9,-*%
%TO.N,Net-(U206C--)*%
X40077500Y-24282501D03*
%TO.P,U206,10,+*%
%TO.N,GND*%
X40077500Y-23012501D03*
%TO.P,U206,11,V-*%
%TO.N,-12V*%
X40077500Y-21742501D03*
%TO.P,U206,12,+*%
%TO.N,unconnected-(U206D-+-Pad12)*%
X40077500Y-20472501D03*
%TO.P,U206,13,-*%
%TO.N,unconnected-(U206D---Pad13)*%
X40077500Y-19202501D03*
%TO.P,U206,14*%
%TO.N,unconnected-(U206-Pad14)*%
X40077500Y-17932501D03*
%TD*%
D28*
%TO.P,OSC2,1,1*%
%TO.N,/DCO/O2_MIXF*%
X61225000Y-7675000D03*
%TD*%
D12*
%TO.P,C215,1*%
%TO.N,GND*%
X55475000Y-27524999D03*
%TO.P,C215,2*%
%TO.N,+12V*%
X55475000Y-25625001D03*
%TD*%
D13*
%TO.P,C302,1*%
%TO.N,-12V*%
X117860000Y-21320001D03*
%TO.P,C302,2*%
%TO.N,GND*%
X117860000Y-23219999D03*
%TD*%
D30*
%TO.P,R247,1*%
%TO.N,GND*%
X32885000Y-6375000D03*
D31*
%TO.P,R247,2*%
X37965000Y-6375000D03*
%TD*%
D28*
%TO.P,SAW1,1,1*%
%TO.N,SAW1_FULL*%
X29025000Y-6725000D03*
%TD*%
D14*
%TO.P,R420,1*%
%TO.N,FOLDER_OUT*%
X108227500Y-43400000D03*
%TO.P,R420,2*%
%TO.N,Net-(R420-Pad2)*%
X110052500Y-43400000D03*
%TD*%
D12*
%TO.P,C403,1*%
%TO.N,+12V*%
X81340000Y-31844999D03*
%TO.P,C403,2*%
%TO.N,GND*%
X81340000Y-29945001D03*
%TD*%
D16*
%TO.P,R312,1*%
%TO.N,Net-(U303C--)*%
X100522500Y-11790000D03*
%TO.P,R312,2*%
%TO.N,Net-(U301D--)*%
X98697500Y-11790000D03*
%TD*%
D18*
%TO.P,R227,1*%
%TO.N,SAW2_FULL*%
X22897500Y-25937500D03*
%TO.P,R227,2*%
%TO.N,Net-(U202A--)*%
X22897500Y-27762500D03*
%TD*%
D16*
%TO.P,R237,1*%
%TO.N,Net-(U205D-P3W)*%
X49650000Y-36500000D03*
%TO.P,R237,2*%
%TO.N,Net-(U204A--)*%
X47825000Y-36500000D03*
%TD*%
%TO.P,R422,1*%
%TO.N,Net-(Q406-E)*%
X90002500Y-38825000D03*
%TO.P,R422,2*%
%TO.N,GND*%
X88177500Y-38825000D03*
%TD*%
%TO.P,R303,1*%
%TO.N,Net-(Q301-B)*%
X83412500Y-6970000D03*
%TO.P,R303,2*%
%TO.N,CUTOFF_CV*%
X81587500Y-6970000D03*
%TD*%
D17*
%TO.P,U402,1*%
%TO.N,Net-(R424-Pad1)*%
X93100000Y-35550000D03*
%TO.P,U402,2,DIODE_BIAS*%
%TO.N,unconnected-(U402C-DIODE_BIAS-Pad2)*%
X94370000Y-35550000D03*
%TO.P,U402,3,+*%
%TO.N,Net-(U402C-+)*%
X95640000Y-35550000D03*
%TO.P,U402,4,-*%
%TO.N,Net-(U402C--)*%
X96910000Y-35550000D03*
%TO.P,U402,5*%
%TO.N,Net-(U404B--)*%
X98180000Y-35550000D03*
%TO.P,U402,6,V-*%
%TO.N,-12V*%
X99450000Y-35550000D03*
%TO.P,U402,7*%
%TO.N,unconnected-(U402-Pad7)*%
X100720000Y-35550000D03*
%TO.P,U402,8*%
%TO.N,unconnected-(U402-Pad8)*%
X101990000Y-35550000D03*
%TO.P,U402,9*%
%TO.N,unconnected-(U402-Pad9)*%
X101990000Y-30600000D03*
%TO.P,U402,10*%
%TO.N,unconnected-(U402-Pad10)*%
X100720000Y-30600000D03*
%TO.P,U402,11,V+*%
%TO.N,+12V*%
X99450000Y-30600000D03*
%TO.P,U402,12*%
%TO.N,Net-(U403A--)*%
X98180000Y-30600000D03*
%TO.P,U402,13,-*%
%TO.N,Net-(U402A--)*%
X96910000Y-30600000D03*
%TO.P,U402,14,+*%
%TO.N,Net-(U402A-+)*%
X95640000Y-30600000D03*
%TO.P,U402,15,DIODE_BIAS*%
%TO.N,unconnected-(U402A-DIODE_BIAS-Pad15)*%
X94370000Y-30600000D03*
%TO.P,U402,16*%
%TO.N,Net-(R408-Pad1)*%
X93100000Y-30600000D03*
%TD*%
D28*
%TO.P,OSC1,1,1*%
%TO.N,/DCO/O1_MIXF*%
X59200000Y-12050000D03*
%TD*%
D32*
%TO.P,C210,1*%
%TO.N,GND*%
X44362499Y-21742501D03*
%TO.P,C210,2*%
%TO.N,-12V*%
X42462501Y-21742501D03*
%TD*%
D28*
%TO.P,TRI1,1,1*%
%TO.N,TRI1_FULL*%
X8300000Y-20750000D03*
%TD*%
D13*
%TO.P,C303,1*%
%TO.N,-5V*%
X117860000Y-17540001D03*
%TO.P,C303,2*%
%TO.N,GND*%
X117860000Y-19439999D03*
%TD*%
D14*
%TO.P,R421,1*%
%TO.N,Net-(U404A--)*%
X83752500Y-31775000D03*
%TO.P,R421,2*%
%TO.N,Net-(Q406-E)*%
X85577500Y-31775000D03*
%TD*%
D10*
%TO.P,R307,1*%
%TO.N,Net-(Q302-C)*%
X102470000Y-20962500D03*
%TO.P,R307,2*%
%TO.N,Net-(R307-Pad2)*%
X102470000Y-19137500D03*
%TD*%
D13*
%TO.P,C203,1*%
%TO.N,SAW1_FULL*%
X26090000Y-9955001D03*
%TO.P,C203,2*%
%TO.N,Net-(U201C-+)*%
X26090000Y-11854999D03*
%TD*%
D16*
%TO.P,R211,1*%
%TO.N,GND*%
X17032500Y-21550000D03*
%TO.P,R211,2*%
%TO.N,Net-(U201C--)*%
X15207500Y-21550000D03*
%TD*%
D18*
%TO.P,R234,1*%
%TO.N,SAW1_FULL*%
X22540000Y-6717500D03*
%TO.P,R234,2*%
%TO.N,Net-(U201A--)*%
X22540000Y-8542500D03*
%TD*%
D16*
%TO.P,R233,1*%
%TO.N,Net-(U204D--)*%
X50387500Y-15940000D03*
%TO.P,R233,2*%
%TO.N,Net-(R233-Pad2)*%
X48562500Y-15940000D03*
%TD*%
D13*
%TO.P,C307,1*%
%TO.N,Net-(U301D-+)*%
X93230000Y-21380001D03*
%TO.P,C307,2*%
%TO.N,HP_IN*%
X93230000Y-23279999D03*
%TD*%
D32*
%TO.P,C209,1*%
%TO.N,Net-(Q202-E)*%
X17199999Y-27655000D03*
%TO.P,C209,2*%
%TO.N,Net-(C209-Pad2)*%
X15300001Y-27655000D03*
%TD*%
D16*
%TO.P,R222,1*%
%TO.N,Net-(U202C--)*%
X17000000Y-37675000D03*
%TO.P,R222,2*%
%TO.N,TRI2_FULL*%
X15175000Y-37675000D03*
%TD*%
D10*
%TO.P,R426,1*%
%TO.N,GND*%
X93360000Y-39672500D03*
%TO.P,R426,2*%
%TO.N,Net-(U402C-+)*%
X93360000Y-37847500D03*
%TD*%
D14*
%TO.P,R203,1*%
%TO.N,LEVEL_1_CV*%
X11047500Y-13280000D03*
%TO.P,R203,2*%
%TO.N,Net-(Q201-E)*%
X12872500Y-13280000D03*
%TD*%
%TO.P,R423,1*%
%TO.N,VCA_CV*%
X76182500Y-27000000D03*
%TO.P,R423,2*%
%TO.N,Net-(U404A--)*%
X78007500Y-27000000D03*
%TD*%
D10*
%TO.P,R231,1*%
%TO.N,Net-(U204B--)*%
X61075000Y-27512500D03*
%TO.P,R231,2*%
%TO.N,/DCO/O2_MIXF*%
X61075000Y-25687500D03*
%TD*%
D22*
%TO.P,Q201,1,B*%
%TO.N,Net-(Q201-B)*%
X11022500Y-8535000D03*
%TO.P,Q201,2,E*%
%TO.N,Net-(Q201-E)*%
X12922500Y-8535000D03*
%TO.P,Q201,3,C*%
%TO.N,Net-(Q201-C)*%
X11972500Y-6535000D03*
%TD*%
D10*
%TO.P,R216,1*%
%TO.N,Net-(U202A--)*%
X9527500Y-31562500D03*
%TO.P,R216,2*%
%TO.N,Net-(C209-Pad2)*%
X9527500Y-29737500D03*
%TD*%
D16*
%TO.P,R428,1*%
%TO.N,Net-(U402C--)*%
X94312500Y-41710000D03*
%TO.P,R428,2*%
%TO.N,Net-(C414-Pad2)*%
X92487500Y-41710000D03*
%TD*%
D10*
%TO.P,R402,1*%
%TO.N,FOLD_CV*%
X75785000Y-43167500D03*
%TO.P,R402,2*%
%TO.N,Net-(U404C--)*%
X75785000Y-41342500D03*
%TD*%
D13*
%TO.P,C206,1*%
%TO.N,GND*%
X19115000Y-6680001D03*
%TO.P,C206,2*%
%TO.N,+12V*%
X19115000Y-8579999D03*
%TD*%
D22*
%TO.P,Q404,1,B*%
%TO.N,Net-(Q404-B)*%
X122750000Y-33830000D03*
%TO.P,Q404,2,E*%
%TO.N,Net-(Q404-E)*%
X120850000Y-33830000D03*
%TO.P,Q404,3,C*%
%TO.N,Net-(Q404-C)*%
X121800000Y-35830000D03*
%TD*%
D16*
%TO.P,R316,1*%
%TO.N,GND*%
X90562500Y-23880000D03*
%TO.P,R316,2*%
%TO.N,Net-(D301-A)*%
X88737500Y-23880000D03*
%TD*%
D10*
%TO.P,R418,1*%
%TO.N,Net-(R418-Pad1)*%
X116910001Y-43402500D03*
%TO.P,R418,2*%
%TO.N,Net-(U403D--)*%
X116910001Y-41577500D03*
%TD*%
D16*
%TO.P,R305,1*%
%TO.N,Net-(U303C-+)*%
X100522500Y-15540000D03*
%TO.P,R305,2*%
%TO.N,Net-(U301A--)*%
X98697500Y-15540000D03*
%TD*%
D18*
%TO.P,R206,1*%
%TO.N,Net-(Q201-B)*%
X5430000Y-6702500D03*
%TO.P,R206,2*%
%TO.N,Net-(C202-Pad2)*%
X5430000Y-8527500D03*
%TD*%
D10*
%TO.P,R430,1*%
%TO.N,Net-(R420-Pad2)*%
X113440000Y-43402500D03*
%TO.P,R430,2*%
%TO.N,Net-(R418-Pad1)*%
X113440000Y-41577500D03*
%TD*%
D19*
%TO.P,Q302,1,B*%
%TO.N,GND*%
X79940000Y-11725000D03*
%TO.P,Q302,2,E*%
%TO.N,Net-(Q301-E)*%
X79940000Y-13625000D03*
%TO.P,Q302,3,C*%
%TO.N,Net-(Q302-C)*%
X81940000Y-12675000D03*
%TD*%
D16*
%TO.P,R225,1*%
%TO.N,Net-(D205-K)*%
X32645000Y-14392501D03*
%TO.P,R225,2*%
%TO.N,PULSE1_FULL*%
X30820000Y-14392501D03*
%TD*%
D14*
%TO.P,R405,1*%
%TO.N,Net-(C406-Pad2)*%
X88757500Y-26255000D03*
%TO.P,R405,2*%
%TO.N,Net-(U402A--)*%
X90582500Y-26255000D03*
%TD*%
D16*
%TO.P,R242,1*%
%TO.N,Net-(C214-Pad2)*%
X54472500Y-8630000D03*
%TO.P,R242,2*%
%TO.N,Net-(U206C--)*%
X52647500Y-8630000D03*
%TD*%
D21*
%TO.P,U403,1*%
%TO.N,Net-(R409-Pad1)*%
X117280000Y-30585000D03*
%TO.P,U403,2,-*%
%TO.N,Net-(U403A--)*%
X116010000Y-30585000D03*
%TO.P,U403,3,+*%
%TO.N,GND*%
X114740000Y-30585000D03*
%TO.P,U403,4,V+*%
%TO.N,+12V*%
X113470000Y-30585000D03*
%TO.P,U403,5,+*%
%TO.N,Net-(U403B-+)*%
X112200000Y-30585000D03*
%TO.P,U403,6,-*%
%TO.N,Net-(Q402-B)*%
X110930000Y-30585000D03*
%TO.P,U403,7*%
X109660000Y-30585000D03*
%TO.P,U403,8*%
%TO.N,Net-(Q404-B)*%
X109660000Y-35535000D03*
%TO.P,U403,9,-*%
%TO.N,Net-(U403C--)*%
X110930000Y-35535000D03*
%TO.P,U403,10,+*%
%TO.N,GND*%
X112200000Y-35535000D03*
%TO.P,U403,11,V-*%
%TO.N,-12V*%
X113470000Y-35535000D03*
%TO.P,U403,12,+*%
%TO.N,GND*%
X114740000Y-35535000D03*
%TO.P,U403,13,-*%
%TO.N,Net-(U403D--)*%
X116010000Y-35535000D03*
%TO.P,U403,14*%
%TO.N,Net-(R420-Pad2)*%
X117280000Y-35535000D03*
%TD*%
%TO.P,U201,1*%
%TO.N,SAW1_FULL*%
X22922500Y-10755000D03*
%TO.P,U201,2,-*%
%TO.N,Net-(U201A--)*%
X21652500Y-10755000D03*
%TO.P,U201,3,+*%
%TO.N,GND*%
X20382500Y-10755000D03*
%TO.P,U201,4,V+*%
%TO.N,+12V*%
X19112500Y-10755000D03*
%TO.P,U201,5,+*%
%TO.N,GND*%
X17842500Y-10755000D03*
%TO.P,U201,6,-*%
%TO.N,Net-(Q201-E)*%
X16572500Y-10755000D03*
%TO.P,U201,7*%
%TO.N,Net-(C201-Pad2)*%
X15302500Y-10755000D03*
%TO.P,U201,8*%
%TO.N,Net-(D202-A)*%
X15302500Y-15705000D03*
%TO.P,U201,9,-*%
%TO.N,Net-(U201C--)*%
X16572500Y-15705000D03*
%TO.P,U201,10,+*%
%TO.N,Net-(U201C-+)*%
X17842500Y-15705000D03*
%TO.P,U201,11,V-*%
%TO.N,-12V*%
X19112500Y-15705000D03*
%TO.P,U201,12,+*%
%TO.N,GND*%
X20382500Y-15705000D03*
%TO.P,U201,13,-*%
%TO.N,Net-(U201D--)*%
X21652500Y-15705000D03*
%TO.P,U201,14*%
%TO.N,Net-(D201-A)*%
X22922500Y-15705000D03*
%TD*%
D20*
%TO.P,D203,1,K*%
%TO.N,TRI2_FULL*%
X12817500Y-41025000D03*
%TO.P,D203,2,A*%
%TO.N,Net-(D203-A)*%
X12817500Y-37725000D03*
%TD*%
D22*
%TO.P,Q405,1,B*%
%TO.N,Net-(Q404-B)*%
X122700000Y-37910000D03*
%TO.P,Q405,2,E*%
%TO.N,Net-(Q405-E)*%
X120800000Y-37910000D03*
%TO.P,Q405,3,C*%
%TO.N,Net-(Q404-C)*%
X121750000Y-39910000D03*
%TD*%
D16*
%TO.P,R236,1*%
%TO.N,Net-(R218-Pad2)*%
X24640000Y-40815000D03*
%TO.P,R236,2*%
%TO.N,TRI2_FULL*%
X22815000Y-40815000D03*
%TD*%
%TO.P,R315,1*%
%TO.N,Net-(D301-A)*%
X86622501Y-19430000D03*
%TO.P,R315,2*%
%TO.N,Net-(D301-K)*%
X84797501Y-19430000D03*
%TD*%
%TO.P,R223,1*%
%TO.N,PULSE2_FULL*%
X31692500Y-32900000D03*
%TO.P,R223,2*%
%TO.N,GND*%
X29867500Y-32900000D03*
%TD*%
D33*
%TO.P,D302,1,K*%
%TO.N,Net-(D301-A)*%
X86677502Y-23870000D03*
%TO.P,D302,2,A*%
%TO.N,Net-(D301-K)*%
X84802500Y-23870000D03*
%TD*%
D16*
%TO.P,R224,1*%
%TO.N,Net-(D206-K)*%
X31702500Y-29600000D03*
%TO.P,R224,2*%
%TO.N,PULSE2_FULL*%
X29877500Y-29600000D03*
%TD*%
D10*
%TO.P,R413,1*%
%TO.N,-12V*%
X103915000Y-39712500D03*
%TO.P,R413,2*%
%TO.N,Net-(Q403-E)*%
X103915000Y-37887500D03*
%TD*%
%TO.P,R416,1*%
%TO.N,Net-(Q404-E)*%
X120850000Y-32292500D03*
%TO.P,R416,2*%
%TO.N,+12V*%
X120850000Y-30467500D03*
%TD*%
D34*
%TO.P,D301,1,K*%
%TO.N,Net-(D301-K)*%
X84812501Y-21640000D03*
%TO.P,D301,2,A*%
%TO.N,Net-(D301-A)*%
X86687501Y-21640000D03*
%TD*%
D18*
%TO.P,R419,1*%
%TO.N,Net-(U403D--)*%
X116800000Y-37797500D03*
%TO.P,R419,2*%
%TO.N,Net-(Q404-C)*%
X116800000Y-39622500D03*
%TD*%
D23*
%TO.P,U305,1,Vout*%
%TO.N,+5V*%
X119610000Y-7430000D03*
D24*
%TO.P,U305,2,GND*%
%TO.N,GND*%
X117540000Y-6160000D03*
%TO.P,U305,3,Vin*%
%TO.N,+12V*%
X119610000Y-4890000D03*
%TD*%
D10*
%TO.P,R427,1*%
%TO.N,GND*%
X96760000Y-39662500D03*
%TO.P,R427,2*%
%TO.N,Net-(U402C--)*%
X96760000Y-37837500D03*
%TD*%
D19*
%TO.P,Q401,1,B*%
%TO.N,Net-(Q401-B)*%
X73747500Y-33920000D03*
%TO.P,Q401,2,E*%
%TO.N,Net-(Q401-E)*%
X73747500Y-35820000D03*
%TO.P,Q401,3,C*%
%TO.N,Net-(Q401-C)*%
X75747500Y-34870000D03*
%TD*%
D16*
%TO.P,R228,1*%
%TO.N,Net-(U203C-P2W)*%
X42102500Y-6345000D03*
%TO.P,R228,2*%
%TO.N,Net-(U204D--)*%
X40277500Y-6345000D03*
%TD*%
D10*
%TO.P,R417,1*%
%TO.N,-12V*%
X120820000Y-43502500D03*
%TO.P,R417,2*%
%TO.N,Net-(Q405-E)*%
X120820000Y-41677500D03*
%TD*%
D15*
%TO.P,U203,1,P3A*%
%TO.N,GND*%
X45200000Y-12275000D03*
%TO.P,U203,2,P3W*%
%TO.N,Net-(U203D-P3W)*%
X45850000Y-12275000D03*
%TO.P,U203,3,P3B*%
%TO.N,TRI1_FULL*%
X46500000Y-12275000D03*
%TO.P,U203,4,HVC/A0*%
%TO.N,unconnected-(U203E-HVC{slash}A0-Pad4)*%
X47150000Y-12275000D03*
%TO.P,U203,5,SCL*%
%TO.N,SCL*%
X47800000Y-12275000D03*
%TO.P,U203,6,SDA*%
%TO.N,SDA*%
X48450000Y-12275000D03*
%TO.P,U203,7,VSS*%
%TO.N,GND*%
X49100000Y-12275000D03*
%TO.P,U203,8,P1B*%
%TO.N,PULSE1_FULL*%
X49750000Y-12275000D03*
%TO.P,U203,9,P1W*%
%TO.N,Net-(U203B-P1W)*%
X50400000Y-12275000D03*
%TO.P,U203,10,P1A*%
%TO.N,GND*%
X51050000Y-12275000D03*
%TO.P,U203,11,P0A*%
X51050000Y-6550000D03*
%TO.P,U203,12,P0W*%
%TO.N,Net-(U203A-P0W)*%
X50400000Y-6550000D03*
%TO.P,U203,13,P0B*%
%TO.N,/DCO/O2_MIXF*%
X49750000Y-6550000D03*
%TO.P,U203,14,NC*%
%TO.N,unconnected-(U203E-NC-Pad14)*%
X49100000Y-6550000D03*
%TO.P,U203,15,~{RESET}*%
%TO.N,+3.3V*%
X48450000Y-6550000D03*
%TO.P,U203,16,A1*%
%TO.N,GND*%
X47800000Y-6550000D03*
%TO.P,U203,17,VDD*%
%TO.N,+3.3V*%
X47150000Y-6550000D03*
%TO.P,U203,18,P2B*%
%TO.N,SAW1_FULL*%
X46500000Y-6550000D03*
%TO.P,U203,19,P2W*%
%TO.N,Net-(U203C-P2W)*%
X45850000Y-6550000D03*
%TO.P,U203,20,P2A*%
%TO.N,GND*%
X45200000Y-6550000D03*
%TD*%
D13*
%TO.P,C204,1*%
%TO.N,SAW2_FULL*%
X26497500Y-28955001D03*
%TO.P,C204,2*%
%TO.N,Net-(U202C-+)*%
X26497500Y-30854999D03*
%TD*%
D18*
%TO.P,R240,1*%
%TO.N,Net-(R233-Pad2)*%
X55955000Y-14237500D03*
%TO.P,R240,2*%
%TO.N,Net-(U204C--)*%
X55955000Y-16062500D03*
%TD*%
%TO.P,R309,1*%
%TO.N,GND*%
X106950000Y-5997500D03*
%TO.P,R309,2*%
%TO.N,Net-(U303A--)*%
X106950000Y-7822500D03*
%TD*%
D10*
%TO.P,R302,1*%
%TO.N,-12V*%
X84750000Y-17537500D03*
%TO.P,R302,2*%
%TO.N,Net-(Q301-C)*%
X84750000Y-15712500D03*
%TD*%
D13*
%TO.P,C304,1*%
%TO.N,+12V*%
X122430000Y-3500001D03*
%TO.P,C304,2*%
%TO.N,GND*%
X122430000Y-5399999D03*
%TD*%
D11*
%TO.P,C208,1*%
%TO.N,CLK_2*%
X4367500Y-30920000D03*
%TO.P,C208,2*%
%TO.N,Net-(C208-Pad2)*%
X6267500Y-30920000D03*
%TD*%
D18*
%TO.P,R407,1*%
%TO.N,GND*%
X96090000Y-26387500D03*
%TO.P,R407,2*%
%TO.N,Net-(U402A-+)*%
X96090000Y-28212500D03*
%TD*%
D10*
%TO.P,R404,1*%
%TO.N,Net-(Q401-E)*%
X71722500Y-35332500D03*
%TO.P,R404,2*%
%TO.N,GND*%
X71722500Y-33507500D03*
%TD*%
D21*
%TO.P,U404,1*%
%TO.N,Net-(Q406-B)*%
X85150000Y-34150000D03*
%TO.P,U404,2,-*%
%TO.N,Net-(U404A--)*%
X83880000Y-34150000D03*
%TO.P,U404,3,+*%
%TO.N,GND*%
X82610000Y-34150000D03*
%TO.P,U404,4,V+*%
%TO.N,+12V*%
X81340000Y-34150000D03*
%TO.P,U404,5,+*%
%TO.N,GND*%
X80070000Y-34150000D03*
%TO.P,U404,6,-*%
%TO.N,Net-(U404B--)*%
X78800000Y-34150000D03*
%TO.P,U404,7*%
%TO.N,Net-(R425-Pad2)*%
X77530000Y-34150000D03*
%TO.P,U404,8*%
%TO.N,Net-(Q401-B)*%
X77530000Y-39100000D03*
%TO.P,U404,9,-*%
%TO.N,Net-(U404C--)*%
X78800000Y-39100000D03*
%TO.P,U404,10,+*%
%TO.N,GND*%
X80070000Y-39100000D03*
%TO.P,U404,11,V-*%
%TO.N,-12V*%
X81340000Y-39100000D03*
%TO.P,U404,12,+*%
%TO.N,GND*%
X82610000Y-39100000D03*
%TO.P,U404,13,-*%
%TO.N,unconnected-(U404D---Pad13)*%
X83880000Y-39100000D03*
%TO.P,U404,14*%
%TO.N,unconnected-(U404-Pad14)*%
X85150000Y-39100000D03*
%TD*%
D13*
%TO.P,C314,1*%
%TO.N,-5V*%
X123020000Y-21960001D03*
%TO.P,C314,2*%
%TO.N,GND*%
X123020000Y-23859999D03*
%TD*%
D16*
%TO.P,R239,1*%
%TO.N,Net-(U205C-P2W)*%
X49650000Y-29900000D03*
%TO.P,R239,2*%
%TO.N,Net-(U204A--)*%
X47825000Y-29900000D03*
%TD*%
D10*
%TO.P,R313,1*%
%TO.N,GND*%
X106940000Y-19192500D03*
%TO.P,R313,2*%
%TO.N,Net-(U303C--)*%
X106940000Y-17367500D03*
%TD*%
D12*
%TO.P,C313,1*%
%TO.N,+5V*%
X119690000Y-12099999D03*
%TO.P,C313,2*%
%TO.N,GND*%
X119690000Y-10200001D03*
%TD*%
D28*
%TO.P,OSCMIX1,1,1*%
%TO.N,OSC_MIX*%
X44425000Y-18275000D03*
%TD*%
D13*
%TO.P,C315,1*%
%TO.N,+3.3V*%
X126940000Y-20100001D03*
%TO.P,C315,2*%
%TO.N,GND*%
X126940000Y-21999999D03*
%TD*%
D14*
%TO.P,R208,1*%
%TO.N,-12V*%
X11047500Y-16625000D03*
%TO.P,R208,2*%
%TO.N,TRI1_FULL*%
X12872500Y-16625000D03*
%TD*%
D18*
%TO.P,R310,1*%
%TO.N,GND*%
X104810000Y-5997500D03*
%TO.P,R310,2*%
%TO.N,Net-(U303A-+)*%
X104810000Y-7822500D03*
%TD*%
D22*
%TO.P,Q202,1,B*%
%TO.N,Net-(Q202-B)*%
X11577500Y-27880000D03*
%TO.P,Q202,2,E*%
%TO.N,Net-(Q202-E)*%
X13477500Y-27880000D03*
%TO.P,Q202,3,C*%
%TO.N,Net-(Q202-C)*%
X12527500Y-25880000D03*
%TD*%
D11*
%TO.P,C414,1*%
%TO.N,VCA_IN*%
X88140000Y-42200000D03*
%TO.P,C414,2*%
%TO.N,Net-(C414-Pad2)*%
X90040000Y-42200000D03*
%TD*%
D35*
%TO.P,D206,1,K*%
%TO.N,Net-(D206-K)*%
X33350000Y-29600000D03*
%TO.P,D206,2,A*%
%TO.N,Net-(D206-A)*%
X36650000Y-29600000D03*
%TD*%
D32*
%TO.P,C201,1*%
%TO.N,Net-(Q201-E)*%
X16564999Y-8430000D03*
%TO.P,C201,2*%
%TO.N,Net-(C201-Pad2)*%
X14665001Y-8430000D03*
%TD*%
D16*
%TO.P,R414,1*%
%TO.N,Net-(U403C--)*%
X107852500Y-37930000D03*
%TO.P,R414,2*%
%TO.N,Net-(Q402-C)*%
X106027500Y-37930000D03*
%TD*%
D14*
%TO.P,R219,1*%
%TO.N,-12V*%
X11635000Y-35720000D03*
%TO.P,R219,2*%
%TO.N,TRI2_FULL*%
X13460000Y-35720000D03*
%TD*%
D35*
%TO.P,D205,1,K*%
%TO.N,Net-(D205-K)*%
X34472500Y-14392501D03*
%TO.P,D205,2,A*%
%TO.N,Net-(D205-A)*%
X37772500Y-14392501D03*
%TD*%
D18*
%TO.P,R317,1*%
%TO.N,+3.3V*%
X115010000Y-10237500D03*
%TO.P,R317,2*%
%TO.N,Net-(U302-~{SHDN})*%
X115010000Y-12062500D03*
%TD*%
D16*
%TO.P,R429,1*%
%TO.N,Net-(R425-Pad2)*%
X73982500Y-25250000D03*
%TO.P,R429,2*%
%TO.N,VCA_OUT*%
X72157500Y-25250000D03*
%TD*%
D18*
%TO.P,R415,1*%
%TO.N,Net-(Q404-B)*%
X109910000Y-37797500D03*
%TO.P,R415,2*%
%TO.N,Net-(U403C--)*%
X109910000Y-39622500D03*
%TD*%
%TO.P,R245,1*%
%TO.N,Net-(U206C--)*%
X42900000Y-23817500D03*
%TO.P,R245,2*%
%TO.N,Net-(R245-Pad2)*%
X42900000Y-25642500D03*
%TD*%
D16*
%TO.P,R229,1*%
%TO.N,Net-(U203D-P3W)*%
X42112500Y-13175000D03*
%TO.P,R229,2*%
%TO.N,Net-(U204D--)*%
X40287500Y-13175000D03*
%TD*%
D11*
%TO.P,C413,1*%
%TO.N,Net-(U404A--)*%
X80995000Y-27125000D03*
%TO.P,C413,2*%
%TO.N,Net-(Q406-B)*%
X82895000Y-27125000D03*
%TD*%
D16*
%TO.P,R425,1*%
%TO.N,Net-(U404B--)*%
X78002500Y-29275000D03*
%TO.P,R425,2*%
%TO.N,Net-(R425-Pad2)*%
X76177500Y-29275000D03*
%TD*%
D11*
%TO.P,C205,1*%
%TO.N,GND*%
X30862500Y-21752501D03*
%TO.P,C205,2*%
%TO.N,+12V*%
X32762500Y-21752501D03*
%TD*%
D10*
%TO.P,R410,1*%
%TO.N,Net-(R409-Pad1)*%
X120270001Y-28092500D03*
%TO.P,R410,2*%
%TO.N,Net-(U403B-+)*%
X120270001Y-26267500D03*
%TD*%
%TO.P,R306,1*%
%TO.N,Net-(Q302-C)*%
X99105000Y-20947500D03*
%TO.P,R306,2*%
%TO.N,Net-(R306-Pad2)*%
X99105000Y-19122500D03*
%TD*%
D28*
%TO.P,TRI2,1,1*%
%TO.N,TRI2_FULL*%
X33850000Y-39550000D03*
%TD*%
D10*
%TO.P,R412,1*%
%TO.N,Net-(Q402-E)*%
X105415000Y-27137500D03*
%TO.P,R412,2*%
%TO.N,+12V*%
X105415000Y-25312500D03*
%TD*%
D13*
%TO.P,C312,1*%
%TO.N,+5V*%
X122430000Y-7310001D03*
%TO.P,C312,2*%
%TO.N,GND*%
X122430000Y-9209999D03*
%TD*%
D21*
%TO.P,U301,1*%
%TO.N,Net-(U301A--)*%
X95735000Y-10185000D03*
%TO.P,U301,2,-*%
X94465000Y-10185000D03*
%TO.P,U301,3,+*%
%TO.N,Net-(U301A-+)*%
X93195000Y-10185000D03*
%TO.P,U301,4,V+*%
%TO.N,+12V*%
X91925000Y-10185000D03*
%TO.P,U301,5,+*%
%TO.N,GND*%
X90655000Y-10185000D03*
%TO.P,U301,6,-*%
%TO.N,Net-(Q301-C)*%
X89385000Y-10185000D03*
%TO.P,U301,7*%
%TO.N,Net-(C301-Pad1)*%
X88115000Y-10185000D03*
%TO.P,U301,8*%
%TO.N,Net-(D301-K)*%
X88115000Y-15135000D03*
%TO.P,U301,9,-*%
%TO.N,Net-(D301-A)*%
X89385000Y-15135000D03*
%TO.P,U301,10,+*%
%TO.N,Net-(U301C-+)*%
X90655000Y-15135000D03*
%TO.P,U301,11,V-*%
%TO.N,-12V*%
X91925000Y-15135000D03*
%TO.P,U301,12,+*%
%TO.N,Net-(U301D-+)*%
X93195000Y-15135000D03*
%TO.P,U301,13,-*%
%TO.N,Net-(U301D--)*%
X94465000Y-15135000D03*
%TO.P,U301,14*%
X95735000Y-15135000D03*
%TD*%
D13*
%TO.P,C410,1*%
%TO.N,-12V*%
X100225000Y-37795001D03*
%TO.P,C410,2*%
%TO.N,GND*%
X100225000Y-39694999D03*
%TD*%
D10*
%TO.P,R243,1*%
%TO.N,GND*%
X26497500Y-34567500D03*
%TO.P,R243,2*%
%TO.N,Net-(U202C-+)*%
X26497500Y-32742500D03*
%TD*%
D22*
%TO.P,Q402,1,B*%
%TO.N,Net-(Q402-B)*%
X106360000Y-28810000D03*
%TO.P,Q402,2,E*%
%TO.N,Net-(Q402-E)*%
X104460000Y-28810000D03*
%TO.P,Q402,3,C*%
%TO.N,Net-(Q402-C)*%
X105410000Y-30810000D03*
%TD*%
D36*
%TO.N,GND*%
X126731667Y-43105000D03*
X126731667Y-40565000D03*
X126731667Y-38025000D03*
X126731667Y-35485000D03*
X126731667Y-32945000D03*
X126731667Y-30405000D03*
X126731667Y-25325000D03*
X124191667Y-45645000D03*
X124191667Y-43105000D03*
X121651667Y-45645000D03*
X121651667Y-25325000D03*
X119111667Y-45645000D03*
X116571667Y-45645000D03*
X116571667Y-15165000D03*
X116571667Y-10085000D03*
X116571667Y-7545000D03*
X114031667Y-45645000D03*
X111491667Y-45645000D03*
X111491667Y-32945000D03*
X108951667Y-45645000D03*
X108951667Y-32945000D03*
X108951667Y-27865000D03*
X108951667Y-25325000D03*
X108951667Y-22785000D03*
X106411667Y-45645000D03*
X106411667Y-40565000D03*
X103871667Y-45645000D03*
X103871667Y-43105000D03*
X103871667Y-30405000D03*
X101331667Y-45645000D03*
X101331667Y-43105000D03*
X101331667Y-32945000D03*
X101331667Y-25325000D03*
X101331667Y-17705000D03*
X101331667Y-7545000D03*
X98791667Y-45645000D03*
X98791667Y-17705000D03*
X98791667Y-7545000D03*
X96251667Y-43105000D03*
X96251667Y-32945000D03*
X96251667Y-12625000D03*
X96251667Y-5005000D03*
X93711667Y-43105000D03*
X91171667Y-43105000D03*
X88631667Y-20245000D03*
X86091667Y-43105000D03*
X86091667Y-40565000D03*
X81011667Y-25325000D03*
X81011667Y-5005000D03*
X78471667Y-45645000D03*
X78471667Y-25325000D03*
X75931667Y-45645000D03*
X75931667Y-22785000D03*
X73391667Y-45645000D03*
X73391667Y-40565000D03*
X73391667Y-22785000D03*
X70851667Y-45645000D03*
X70851667Y-40565000D03*
X68311667Y-45645000D03*
X68311667Y-40565000D03*
X68311667Y-38025000D03*
X65771667Y-48185000D03*
X63231667Y-7545000D03*
X60691667Y-10085000D03*
X58151667Y-12625000D03*
X58151667Y-7545000D03*
X58151667Y-2465000D03*
X55611667Y-7545000D03*
X55611667Y-2465000D03*
X53071667Y-2465000D03*
X45451667Y-40565000D03*
X45451667Y-32945000D03*
X45451667Y-30405000D03*
X42911667Y-40565000D03*
X42911667Y-17705000D03*
X42911667Y-2465000D03*
X40371667Y-40565000D03*
X40371667Y-5005000D03*
X40371667Y-2465000D03*
X37831667Y-40565000D03*
X37831667Y-38025000D03*
X37831667Y-35485000D03*
X37831667Y-17705000D03*
X37831667Y-10085000D03*
X37831667Y-5005000D03*
X37831667Y-2465000D03*
X35291667Y-40565000D03*
X35291667Y-38025000D03*
X35291667Y-35485000D03*
X35291667Y-30405000D03*
X35291667Y-27865000D03*
X35291667Y-12625000D03*
X35291667Y-10085000D03*
X35291667Y-7545000D03*
X35291667Y-5005000D03*
X35291667Y-2465000D03*
X32751667Y-38025000D03*
X32751667Y-35485000D03*
X32751667Y-27865000D03*
X32751667Y-17705000D03*
X32751667Y-5005000D03*
X32751667Y-2465000D03*
X30211667Y-38025000D03*
X30211667Y-35485000D03*
X30211667Y-20245000D03*
X30211667Y-12625000D03*
X30211667Y-7545000D03*
X30211667Y-2465000D03*
X27671667Y-38025000D03*
X27671667Y-22785000D03*
X27671667Y-20245000D03*
X27671667Y-15165000D03*
X27671667Y-12625000D03*
X27671667Y-7545000D03*
X27671667Y-5005000D03*
X27671667Y-2465000D03*
X25131667Y-25325000D03*
X25131667Y-7545000D03*
X25131667Y-5005000D03*
X25131667Y-2465000D03*
X22591667Y-32945000D03*
X22591667Y-5005000D03*
X22591667Y-2465000D03*
X20051667Y-2465000D03*
X17511667Y-32945000D03*
X17511667Y-5005000D03*
X17511667Y-2465000D03*
X14971667Y-5005000D03*
X14971667Y-2465000D03*
X12431667Y-5005000D03*
X12431667Y-2465000D03*
X9891667Y-35485000D03*
X9891667Y-5005000D03*
X9891667Y-2465000D03*
X7351667Y-43105000D03*
X7351667Y-40565000D03*
X7351667Y-32945000D03*
X7351667Y-30405000D03*
X7351667Y-22785000D03*
X7351667Y-15165000D03*
X7351667Y-12625000D03*
X7351667Y-10085000D03*
X7351667Y-5005000D03*
X7351667Y-2465000D03*
X4811667Y-40565000D03*
X4811667Y-38025000D03*
X4811667Y-22785000D03*
X4811667Y-20245000D03*
X4811667Y-17705000D03*
X4811667Y-5005000D03*
X2271667Y-38025000D03*
X2271667Y-35485000D03*
X2271667Y-32945000D03*
X2271667Y-27865000D03*
X2271667Y-25325000D03*
X2271667Y-22785000D03*
X2271667Y-20245000D03*
X2271667Y-17705000D03*
X2271667Y-15165000D03*
X2271667Y-10085000D03*
X2271667Y-7545000D03*
%TO.N,/DCO/O1_MIXF*%
X58710000Y-17210000D03*
X58050000Y-31025000D03*
%TO.N,CLK_1*%
X2475000Y-11975000D03*
X12800000Y-42925000D03*
%TO.N,/DCO/O2_MIXF*%
X61075000Y-24150000D03*
X63275000Y-18200000D03*
%TO.N,Net-(U202C-+)*%
X21075000Y-37900000D03*
X24875000Y-32750000D03*
%TO.N,Net-(U206C--)*%
X61775000Y-18250000D03*
X48875000Y-28250000D03*
X60075000Y-21975000D03*
X46200000Y-23825000D03*
%TO.N,GND*%
X53550000Y-31825000D03*
X70425000Y-33500000D03*
X68675000Y-4575000D03*
X77325000Y-20925000D03*
X115075000Y-37275000D03*
X124525000Y-5400000D03*
X82600000Y-32700000D03*
X88150000Y-40025000D03*
X25200000Y-34575000D03*
X114750000Y-29100000D03*
X122450000Y-18927400D03*
X20962941Y-16852498D03*
X51925000Y-13100000D03*
X121900000Y-23850000D03*
X26050000Y-16700000D03*
X80475000Y-3650000D03*
X70176075Y-6676880D03*
X91925000Y-4975000D03*
X119175000Y-19450000D03*
X50475000Y-39225000D03*
X54625000Y-21725000D03*
X55450000Y-41125000D03*
X53825000Y-12875000D03*
X83000000Y-40675000D03*
X45975000Y-2650000D03*
X122925000Y-15925000D03*
X17700000Y-9225000D03*
X94925000Y-27300000D03*
X96775000Y-40750000D03*
X38550000Y-23250000D03*
X20475000Y-19875000D03*
X119375000Y-22900000D03*
X100225000Y-40750000D03*
X81350000Y-28825000D03*
X15850000Y-42150000D03*
X120900000Y-10200000D03*
X125075000Y-26250000D03*
X99475000Y-25375000D03*
X106925000Y-20400000D03*
X57700000Y-37550000D03*
X20775000Y-33400000D03*
X112075000Y-39675000D03*
X83050000Y-43175000D03*
X47800000Y-7775000D03*
X52650000Y-38950000D03*
X111625000Y-37325000D03*
X20850000Y-12325000D03*
X91650000Y-23900000D03*
X47650000Y-13950000D03*
X28900000Y-32925000D03*
X68600000Y-13850000D03*
X44600000Y-12275000D03*
X59425000Y-37775000D03*
X61875000Y-43575000D03*
X48375000Y-10200000D03*
X59400000Y-31800000D03*
X18225000Y-28550000D03*
X79400000Y-40475000D03*
X65000000Y-3825000D03*
X104800000Y-20425000D03*
X110400000Y-4775000D03*
X30825000Y-9750000D03*
X44600000Y-6550000D03*
X96100000Y-25375000D03*
X90250000Y-8675000D03*
X125775000Y-22000000D03*
X69625000Y-16075000D03*
X52200000Y-16725000D03*
X51050000Y-7850000D03*
X4375000Y-32875000D03*
X106950000Y-4700000D03*
X114675000Y-26225000D03*
X45425000Y-21750000D03*
X104800000Y-4700000D03*
X3675000Y-16600000D03*
X19125000Y-5525000D03*
X16675000Y-20075000D03*
X30825000Y-23125000D03*
X52550000Y-24625000D03*
X18225000Y-25900000D03*
X64825000Y-16575000D03*
X92375000Y-38800000D03*
X54925000Y-16825000D03*
X19475000Y-40450000D03*
X20775000Y-28550000D03*
X63650000Y-6025000D03*
X110375000Y-20125000D03*
X69975000Y-18925000D03*
X57225000Y-28975000D03*
X62800000Y-3050000D03*
X79625000Y-32250000D03*
X52475000Y-41300000D03*
X91825000Y-20300000D03*
X80950000Y-11675000D03*
X77400000Y-11625000D03*
D37*
%TO.N,+12V*%
X99425000Y-32150000D03*
X81325000Y-35725000D03*
X42500000Y-28925000D03*
X19100000Y-12150000D03*
X19475000Y-31650000D03*
X119250000Y-30475000D03*
X128625000Y-8175000D03*
X62525000Y-21000000D03*
X69100000Y-24375000D03*
X125850000Y-5425000D03*
X110375000Y-11775000D03*
X91925000Y-11775000D03*
X113475000Y-32150000D03*
X33750000Y-21750000D03*
%TO.N,-12V*%
X45625000Y-19800000D03*
X113475000Y-34025000D03*
X11050000Y-15100000D03*
X81325000Y-37475000D03*
X19125000Y-13950000D03*
X66725000Y-16950000D03*
X19475000Y-33575000D03*
X72975000Y-4225000D03*
X91409374Y-13864577D03*
X83050000Y-17200000D03*
X99475000Y-34025000D03*
X122350000Y-43500000D03*
X111575000Y-13350000D03*
X64825000Y-28450000D03*
X38400000Y-21750000D03*
X78862500Y-14162500D03*
D36*
%TO.N,CLK_2*%
X10575000Y-42075000D03*
X3275000Y-30925000D03*
%TO.N,SAW2_FULL*%
X33550000Y-24282501D03*
X54200000Y-35000000D03*
D38*
%TO.N,+3.3V*%
X43800000Y-4550000D03*
X52775000Y-29625000D03*
D36*
%TO.N,Net-(U301A-+)*%
X94150000Y-4225000D03*
X108675000Y-8150000D03*
%TO.N,FILTER_OUT*%
X95750000Y-20350000D03*
X79687500Y-18862500D03*
X72575000Y-17450000D03*
X120825000Y-23100000D03*
X124950000Y-12525000D03*
%TO.N,Net-(U301C-+)*%
X124325000Y-15900000D03*
X90100000Y-16975000D03*
%TO.N,HP_IN*%
X73100000Y-18675000D03*
%TO.N,FOLDER_IN*%
X87400000Y-27175000D03*
%TO.N,VCA_IN*%
X76750000Y-7325000D03*
X78275000Y-17375000D03*
X79500000Y-22650000D03*
%TO.N,SDA*%
X121075000Y-15750000D03*
X59275000Y-3700000D03*
X48450000Y-13925000D03*
X56800000Y-37300000D03*
X61875000Y-2675000D03*
%TO.N,SCL*%
X47800000Y-11000000D03*
X63600000Y-3750000D03*
X121700000Y-12900000D03*
X56150000Y-40525000D03*
X60700000Y-4875000D03*
%TO.N,FOLD_FIRST*%
X75725000Y-6025000D03*
X73175000Y-16075000D03*
X65225000Y-22100000D03*
%TO.N,HP_MODE*%
X74375000Y-13900000D03*
X67675000Y-22875000D03*
%TO.N,PWM_1_CV*%
X46550000Y-37475000D03*
X51450000Y-41300000D03*
X49350000Y-39225000D03*
%TO.N,PWM_2_CV*%
X45300000Y-39200000D03*
X45300000Y-37025000D03*
%TO.N,CUTOFF_CV*%
X66250000Y-3846000D03*
X65975000Y-23550000D03*
X80600000Y-6975000D03*
%TO.N,FOLD_CV*%
X75775000Y-44150000D03*
X62750000Y-42775000D03*
%TO.N,VCA_CV*%
X67625000Y-33100000D03*
%TO.N,VCA_OUT*%
X68900000Y-31950000D03*
%TO.N,Net-(Q302-C)*%
X81950000Y-11750000D03*
X97550000Y-20950000D03*
%TO.N,Net-(Q405-E)*%
X122800000Y-41700000D03*
X120800000Y-36975000D03*
%TO.N,TRI1_FULL*%
X8300000Y-18050000D03*
X41800000Y-15300000D03*
%TO.N,TRI2_FULL*%
X50500000Y-35200000D03*
X13275000Y-39575000D03*
%TO.N,PULSE1_FULL*%
X41250000Y-11450000D03*
X32650000Y-9250000D03*
%TO.N,OSC_MIX*%
X41800000Y-29975000D03*
X69650000Y-10800000D03*
X69725000Y-3825000D03*
X69650000Y-7325000D03*
%TO.N,LP_IN*%
X70175000Y-17375000D03*
%TO.N,Net-(U303C--)*%
X108225000Y-17375000D03*
X99350000Y-14100000D03*
%TO.N,Net-(R408-Pad1)*%
X74325000Y-28750000D03*
X91675000Y-30600000D03*
%TO.N,Net-(U403A--)*%
X98175000Y-28175000D03*
X111625000Y-27150000D03*
%TO.N,FOLDER_OUT*%
X86650000Y-33825000D03*
X77675000Y-8600000D03*
X107125000Y-43400000D03*
X86725000Y-38625000D03*
X82550000Y-22725000D03*
%TO.N,Net-(U301D-+)*%
X91850000Y-21375000D03*
X108600000Y-21325000D03*
%TO.N,Net-(U202A--)*%
X11325000Y-30150000D03*
X20975000Y-26775000D03*
%TO.N,Net-(R233-Pad2)*%
X47150000Y-15650000D03*
X51575000Y-15900000D03*
%TO.N,Net-(R420-Pad2)*%
X119000000Y-42125000D03*
X118725000Y-35525000D03*
%TO.N,Net-(U201A--)*%
X22275000Y-9500000D03*
X11200000Y-10725000D03*
%TO.N,Net-(R220-Pad1)*%
X52300000Y-27775000D03*
X48375000Y-26175000D03*
%TD*%
D39*
%TO.N,Net-(Q201-E)*%
X16572500Y-8437501D02*
X16564999Y-8430000D01*
X12922500Y-7727500D02*
X14150000Y-6500000D01*
X12922500Y-8535000D02*
X12922500Y-7727500D01*
X15675000Y-6500000D02*
X16564999Y-7389999D01*
X16572500Y-10755000D02*
X16572500Y-8437501D01*
X14150000Y-6500000D02*
X15675000Y-6500000D01*
X16564999Y-7389999D02*
X16564999Y-8430000D01*
X12872500Y-13280000D02*
X12872500Y-8585000D01*
X12872500Y-8585000D02*
X12922500Y-8535000D01*
%TO.N,/DCO/O1_MIXF*%
X59200000Y-12050000D02*
X60625000Y-13475000D01*
X58050000Y-33162500D02*
X58100000Y-33212500D01*
X58050000Y-31025000D02*
X58050000Y-33162500D01*
X58710000Y-17210000D02*
X59195000Y-16725000D01*
X60625000Y-15675000D02*
X60237500Y-16062500D01*
X59195000Y-16725000D02*
X59195000Y-16062500D01*
X60237500Y-16062500D02*
X59195000Y-16062500D01*
X60625000Y-13475000D02*
X60625000Y-15675000D01*
X57645000Y-18275000D02*
X58710000Y-17210000D01*
%TO.N,CLK_1*%
X38516974Y-44300000D02*
X14175000Y-44300000D01*
X47250000Y-44750000D02*
X45000000Y-42500000D01*
X48517500Y-47887500D02*
X47250000Y-46620000D01*
X45000000Y-42500000D02*
X40316974Y-42500000D01*
X47250000Y-46620000D02*
X47250000Y-44750000D01*
X2475000Y-11975000D02*
X3620000Y-11975000D01*
X3620000Y-11975000D02*
X3630000Y-11965000D01*
X40316974Y-42500000D02*
X38516974Y-44300000D01*
X14175000Y-44300000D02*
X12800000Y-42925000D01*
%TO.N,SAW1_FULL*%
X23795000Y-10755000D02*
X24594999Y-9955001D01*
X41575000Y-3975000D02*
X32475000Y-3975000D01*
X46000000Y-5325000D02*
X44650000Y-5325000D01*
X46500000Y-5825000D02*
X46000000Y-5325000D01*
X24594999Y-9955001D02*
X26090000Y-9955001D01*
X35127500Y-19202501D02*
X32327501Y-19202501D01*
X28825000Y-15700000D02*
X28825000Y-11425000D01*
X27355001Y-9955001D02*
X26090000Y-9955001D01*
X22540000Y-6717500D02*
X26100000Y-6717500D01*
X46500000Y-6550000D02*
X46500000Y-5825000D01*
X29017500Y-6717500D02*
X29025000Y-6725000D01*
X29025000Y-6725000D02*
X31775000Y-3975000D01*
X44650000Y-5325000D02*
X44200000Y-5775000D01*
X26090000Y-9955001D02*
X26090000Y-6727500D01*
X32327501Y-19202501D02*
X28825000Y-15700000D01*
X28825000Y-11425000D02*
X27355001Y-9955001D01*
X44200000Y-5775000D02*
X43375000Y-5775000D01*
X22922500Y-10755000D02*
X23795000Y-10755000D01*
X26090000Y-6727500D02*
X26100000Y-6717500D01*
X43375000Y-5775000D02*
X41575000Y-3975000D01*
X31775000Y-3975000D02*
X32475000Y-3975000D01*
X26100000Y-6717500D02*
X29017500Y-6717500D01*
%TO.N,/DCO/O2_MIXF*%
X61075000Y-24150000D02*
X61075000Y-25687500D01*
X49750000Y-5225000D02*
X51025000Y-3950000D01*
X57500000Y-3950000D02*
X63275000Y-9725000D01*
X51025000Y-3950000D02*
X57500000Y-3950000D01*
X49750000Y-6550000D02*
X49750000Y-5225000D01*
X58075000Y-23225000D02*
X60537500Y-25687500D01*
X57645000Y-23225000D02*
X58075000Y-23225000D01*
X63275000Y-9725000D02*
X63275000Y-18200000D01*
X60537500Y-25687500D02*
X61075000Y-25687500D01*
%TO.N,Net-(U202C-+)*%
X18220000Y-35090000D02*
X18220000Y-41590000D01*
X20900000Y-40475000D02*
X20900000Y-38075000D01*
X24875000Y-32750000D02*
X24882500Y-32742500D01*
X26497500Y-32742500D02*
X26497500Y-30854999D01*
X18220000Y-41590000D02*
X19055000Y-42425000D01*
X20900000Y-38075000D02*
X21075000Y-37900000D01*
X19055000Y-42320000D02*
X20900000Y-40475000D01*
X24882500Y-32742500D02*
X26497500Y-32742500D01*
X19055000Y-42425000D02*
X19055000Y-42320000D01*
%TO.N,Net-(U206C--)*%
X52647500Y-8630000D02*
X54117500Y-10100000D01*
X62450000Y-24350000D02*
X62450000Y-28475000D01*
X42434999Y-24282501D02*
X42900000Y-23817500D01*
X40077500Y-24282501D02*
X42434999Y-24282501D01*
X60075000Y-21975000D02*
X62450000Y-24350000D01*
X53125000Y-28575000D02*
X49200000Y-28575000D01*
X54117500Y-10100000D02*
X59350000Y-10100000D01*
X61775000Y-12525000D02*
X61775000Y-18250000D01*
X49200000Y-28575000D02*
X48875000Y-28250000D01*
X62450000Y-28475000D02*
X60675000Y-30250000D01*
X54800000Y-30250000D02*
X53125000Y-28575000D01*
X45792500Y-23817500D02*
X42900000Y-23817500D01*
X62000000Y-31575000D02*
X60675000Y-30250000D01*
X60675000Y-30250000D02*
X54800000Y-30250000D01*
X46200000Y-23825000D02*
X45800000Y-23825000D01*
X59350000Y-10100000D02*
X61775000Y-12525000D01*
X45800000Y-23825000D02*
X45792500Y-23817500D01*
X61082500Y-35345000D02*
X62000000Y-34427500D01*
X62000000Y-34427500D02*
X62000000Y-31575000D01*
%TO.N,GND*%
X79940000Y-11725000D02*
X80900000Y-11725000D01*
X126940000Y-21999999D02*
X125775001Y-21999999D01*
X80485000Y-3640000D02*
X80475000Y-3650000D01*
X114740000Y-35535000D02*
X114740000Y-36940000D01*
D40*
X122430000Y-9209999D02*
X121890001Y-9209999D01*
D39*
X119164999Y-19439999D02*
X119175000Y-19450000D01*
X18220000Y-30140000D02*
X18220000Y-28555000D01*
X90655000Y-9080000D02*
X90250000Y-8675000D01*
X20382500Y-10755000D02*
X20382500Y-11857500D01*
D40*
X119055001Y-23219999D02*
X119375000Y-22900000D01*
D39*
X91935000Y-6040001D02*
X91935000Y-4985000D01*
X4375000Y-34290000D02*
X4375000Y-32875000D01*
X106950000Y-5997500D02*
X106950000Y-4700000D01*
D40*
X119690000Y-10200001D02*
X120899999Y-10200001D01*
D39*
X110390000Y-19239999D02*
X110390000Y-20110000D01*
X61217500Y-45347500D02*
X61217500Y-44232500D01*
X125072500Y-26247500D02*
X125075000Y-26250000D01*
X19115000Y-5535000D02*
X19125000Y-5525000D01*
X88177500Y-39997500D02*
X88150000Y-40025000D01*
X29867500Y-32900000D02*
X28925000Y-32900000D01*
X96760000Y-40735000D02*
X96775000Y-40750000D01*
X114740000Y-30585000D02*
X114740000Y-29110000D01*
X55105000Y-18275000D02*
X55105000Y-17005000D01*
X114740000Y-29110000D02*
X114750000Y-29100000D01*
X79400000Y-39770000D02*
X79400000Y-40475000D01*
X106940000Y-20385000D02*
X106925000Y-20400000D01*
X53550000Y-38937500D02*
X52662500Y-38937500D01*
X104820000Y-19212500D02*
X104820000Y-20405000D01*
X113530001Y-26230001D02*
X114669999Y-26230001D01*
X112200000Y-36750000D02*
X111625000Y-37325000D01*
X90562500Y-23880000D02*
X91630000Y-23880000D01*
X30862500Y-21752501D02*
X30862500Y-23087500D01*
D40*
X121890001Y-9209999D02*
X120900000Y-10200000D01*
D39*
X38787499Y-23012501D02*
X38550000Y-23250000D01*
X82610000Y-39100000D02*
X82610000Y-40285000D01*
X15175000Y-41475000D02*
X15850000Y-42150000D01*
X96090000Y-26387500D02*
X96090000Y-25385000D01*
X113450000Y-39659999D02*
X112090001Y-39659999D01*
X104810000Y-4710000D02*
X104800000Y-4700000D01*
X55105000Y-22205000D02*
X54625000Y-21725000D01*
X96090000Y-25385000D02*
X96100000Y-25375000D01*
X44362499Y-21742501D02*
X45417501Y-21742501D01*
X30862500Y-23087500D02*
X30825000Y-23125000D01*
X110390000Y-4785000D02*
X110400000Y-4775000D01*
X51050000Y-6550000D02*
X51050000Y-7850000D01*
X17032500Y-21550000D02*
X17032500Y-20432500D01*
X124524999Y-5399999D02*
X124525000Y-5400000D01*
X82610000Y-40285000D02*
X83000000Y-40675000D01*
X112090001Y-39659999D02*
X112075000Y-39675000D01*
X94012500Y-28212500D02*
X94925000Y-27300000D01*
X99455000Y-25395000D02*
X99475000Y-25375000D01*
X45985001Y-2660001D02*
X45975000Y-2650000D01*
X83040001Y-43184999D02*
X83050000Y-43175000D01*
X61217500Y-44232500D02*
X61875000Y-43575000D01*
X80070000Y-39100000D02*
X79400000Y-39770000D01*
X52565000Y-18275000D02*
X52565000Y-17090000D01*
X19490000Y-39264999D02*
X19490000Y-40435000D01*
X70432500Y-33507500D02*
X70425000Y-33500000D01*
X55475000Y-27524999D02*
X55475000Y-29305001D01*
X104820000Y-20405000D02*
X104800000Y-20425000D01*
X99455000Y-26355001D02*
X99455000Y-25395000D01*
X49100000Y-10925000D02*
X48375000Y-10200000D01*
X80900000Y-11725000D02*
X80950000Y-11675000D01*
X26497500Y-34567500D02*
X25207500Y-34567500D01*
X47165000Y-2660001D02*
X45985001Y-2660001D01*
X55105000Y-23225000D02*
X55105000Y-22205000D01*
X123670000Y-15180000D02*
X122925000Y-15925000D01*
X49100000Y-12275000D02*
X49100000Y-10925000D01*
X18220000Y-28555000D02*
X18225000Y-28550000D01*
X40077500Y-23012501D02*
X38787499Y-23012501D01*
X52662500Y-38937500D02*
X52650000Y-38950000D01*
X122370000Y-20082500D02*
X122370000Y-19007400D01*
X26065000Y-16685000D02*
X26050000Y-16700000D01*
X47800000Y-6550000D02*
X47800000Y-7775000D01*
X81330000Y-43184999D02*
X83040001Y-43184999D01*
X51100000Y-12275000D02*
X51925000Y-13100000D01*
X82610000Y-32710000D02*
X82600000Y-32700000D01*
X91630000Y-23880000D02*
X91650000Y-23900000D01*
X57450000Y-37800000D02*
X57700000Y-37550000D01*
X56854999Y-29345001D02*
X57225000Y-28975000D01*
X81587500Y-3640000D02*
X80485000Y-3640000D01*
X55105000Y-17005000D02*
X54925000Y-16825000D01*
X123870000Y-26247500D02*
X125072500Y-26247500D01*
X55515000Y-29345001D02*
X56854999Y-29345001D01*
X30827500Y-10922501D02*
X30827500Y-9752500D01*
D40*
X117860000Y-23219999D02*
X119055001Y-23219999D01*
D39*
X19490000Y-40435000D02*
X19475000Y-40450000D01*
X91925000Y-20200000D02*
X91825000Y-20300000D01*
X20760000Y-35090000D02*
X20760000Y-33415000D01*
X45200000Y-12275000D02*
X44600000Y-12275000D01*
X53817500Y-14200001D02*
X53817500Y-12882500D01*
X123020000Y-23859999D02*
X121909999Y-23859999D01*
X80070000Y-34150000D02*
X80070000Y-32695000D01*
X59400000Y-38937500D02*
X59400000Y-37800000D01*
X122370000Y-19007400D02*
X122450000Y-18927400D01*
X20760000Y-33415000D02*
X20775000Y-33400000D01*
X82610000Y-34150000D02*
X82610000Y-32710000D01*
X51050000Y-12275000D02*
X51100000Y-12275000D01*
X81340000Y-29945001D02*
X81340000Y-28835000D01*
X26065000Y-15642500D02*
X26065000Y-16685000D01*
X19115000Y-6680001D02*
X19115000Y-5535000D01*
X93865000Y-28212500D02*
X94012500Y-28212500D01*
X52565000Y-23225000D02*
X52565000Y-24610000D01*
X17842500Y-10755000D02*
X17842500Y-9367500D01*
X19115000Y-19829999D02*
X20429999Y-19829999D01*
X80070000Y-32695000D02*
X79625000Y-32250000D01*
X20382500Y-16272057D02*
X20962941Y-16852498D01*
X3667500Y-16592500D02*
X3675000Y-16600000D01*
X20382500Y-15705000D02*
X20382500Y-16272057D01*
X125775001Y-21999999D02*
X125775000Y-22000000D01*
X53817500Y-12882500D02*
X53825000Y-12875000D01*
X25207500Y-34567500D02*
X25200000Y-34575000D01*
X121720000Y-20082500D02*
X122370000Y-20082500D01*
X17032500Y-20432500D02*
X16675000Y-20075000D01*
X104810000Y-5997500D02*
X104810000Y-4710000D01*
X93247500Y-39672500D02*
X92375000Y-38800000D01*
X117860000Y-19439999D02*
X119164999Y-19439999D01*
X18229999Y-25895001D02*
X18225000Y-25900000D01*
X20382500Y-11857500D02*
X20850000Y-12325000D01*
X121909999Y-23859999D02*
X121900000Y-23850000D01*
X100225000Y-39694999D02*
X100225000Y-40750000D01*
X90655000Y-10185000D02*
X90655000Y-9080000D01*
X28925000Y-32900000D02*
X28900000Y-32925000D01*
X45200000Y-6550000D02*
X44600000Y-6550000D01*
X30827500Y-9752500D02*
X30825000Y-9750000D01*
X96760000Y-39662500D02*
X96760000Y-40735000D01*
X20760000Y-30140000D02*
X20760000Y-28565000D01*
X106940000Y-19192500D02*
X106940000Y-20385000D01*
X71722500Y-33507500D02*
X70432500Y-33507500D01*
D40*
X120899999Y-10200001D02*
X120900000Y-10200000D01*
D39*
X112200000Y-35535000D02*
X112200000Y-36750000D01*
X110390000Y-20110000D02*
X110375000Y-20125000D01*
X110390000Y-5960001D02*
X110390000Y-4785000D01*
X81340000Y-28835000D02*
X81350000Y-28825000D01*
X57450000Y-38937500D02*
X57450000Y-37800000D01*
X52565000Y-24610000D02*
X52550000Y-24625000D01*
X17842500Y-9367500D02*
X17700000Y-9225000D01*
X88177500Y-38825000D02*
X88177500Y-39997500D01*
X114669999Y-26230001D02*
X114675000Y-26225000D01*
X91925000Y-19279999D02*
X91925000Y-20200000D01*
X53550000Y-33212500D02*
X53550000Y-31825000D01*
X3667500Y-15365000D02*
X3667500Y-16592500D01*
X123670000Y-14357500D02*
X123670000Y-15180000D01*
X45417501Y-21742501D02*
X45425000Y-21750000D01*
X20429999Y-19829999D02*
X20475000Y-19875000D01*
X52565000Y-17090000D02*
X52200000Y-16725000D01*
X19490000Y-25895001D02*
X18229999Y-25895001D01*
X91935000Y-4985000D02*
X91925000Y-4975000D01*
X114740000Y-36940000D02*
X115075000Y-37275000D01*
X15175000Y-40955000D02*
X15175000Y-41475000D01*
X59400000Y-37800000D02*
X59425000Y-37775000D01*
X93360000Y-39672500D02*
X93247500Y-39672500D01*
X59400000Y-33212500D02*
X59400000Y-31800000D01*
X20760000Y-28565000D02*
X20775000Y-28550000D01*
X122430000Y-5399999D02*
X124524999Y-5399999D01*
D40*
%TO.N,+12V*%
X128625000Y-27025000D02*
X128625000Y-8175000D01*
X69500000Y-35225000D02*
X67575000Y-35225000D01*
X49850000Y-21000000D02*
X53825000Y-21000000D01*
X110390000Y-10160000D02*
X110395000Y-10165000D01*
X53825000Y-23215000D02*
X53825000Y-21000000D01*
X19112500Y-12137500D02*
X19100000Y-12150000D01*
X100495001Y-28254999D02*
X103437500Y-25312500D01*
X53835000Y-23225000D02*
X53835000Y-24635000D01*
X120850000Y-30467500D02*
X125182500Y-30467500D01*
X91925000Y-10185000D02*
X91925000Y-11775000D01*
X110395000Y-11755000D02*
X110375000Y-11775000D01*
X53835000Y-23225000D02*
X53825000Y-23215000D01*
X19115000Y-10752500D02*
X19112500Y-10755000D01*
X42500000Y-28925000D02*
X44175000Y-28925000D01*
X123925001Y-3500001D02*
X122430000Y-3500001D01*
X66610000Y-34260000D02*
X66600000Y-34250000D01*
X103437500Y-25312500D02*
X105415000Y-25312500D01*
X19112500Y-10755000D02*
X19112500Y-12137500D01*
X66600000Y-26900000D02*
X69100000Y-24400000D01*
X19490000Y-30140000D02*
X19475000Y-30155000D01*
X113470000Y-28190000D02*
X113530001Y-28129999D01*
X67575000Y-44075000D02*
X67575000Y-35225000D01*
X81340000Y-31844999D02*
X81340000Y-34150000D01*
X99450000Y-32125000D02*
X99425000Y-32150000D01*
X91935000Y-10175000D02*
X91925000Y-10185000D01*
X110390000Y-7859999D02*
X110390000Y-10160000D01*
X81340000Y-35710000D02*
X81325000Y-35725000D01*
X63757500Y-47887500D02*
X63762500Y-47887500D01*
X113470000Y-32145000D02*
X113475000Y-32150000D01*
X47200000Y-25900000D02*
X47200000Y-23650000D01*
X125182500Y-30467500D02*
X128625000Y-27025000D01*
X81340000Y-34150000D02*
X81340000Y-35710000D01*
X53825000Y-21000000D02*
X62525000Y-21000000D01*
X71607500Y-37332500D02*
X69500000Y-35225000D01*
X35120001Y-21750000D02*
X35127500Y-21742501D01*
X32762500Y-21752501D02*
X33747499Y-21752501D01*
X53835000Y-24635000D02*
X54825001Y-25625001D01*
X91935000Y-7939999D02*
X91935000Y-10175000D01*
X33750000Y-21750000D02*
X35120001Y-21750000D01*
X99450000Y-28259999D02*
X99455000Y-28254999D01*
X44175000Y-28925000D02*
X47200000Y-25900000D01*
X113470000Y-30585000D02*
X113470000Y-32145000D01*
X99450000Y-30600000D02*
X99450000Y-32125000D01*
X119250000Y-30475000D02*
X120842500Y-30475000D01*
X47200000Y-23650000D02*
X49850000Y-21000000D01*
X99455000Y-28254999D02*
X100495001Y-28254999D01*
X33747499Y-21752501D02*
X33750000Y-21750000D01*
X71722500Y-37332500D02*
X71607500Y-37332500D01*
X19475000Y-30155000D02*
X19475000Y-31650000D01*
X113470000Y-30585000D02*
X113470000Y-28190000D01*
X54825001Y-25625001D02*
X55475000Y-25625001D01*
X19115000Y-8579999D02*
X19115000Y-10752500D01*
X63762500Y-47887500D02*
X67575000Y-44075000D01*
X120599999Y-3500001D02*
X122430000Y-3500001D01*
X99450000Y-30600000D02*
X99450000Y-28259999D01*
X66600000Y-34250000D02*
X66600000Y-26900000D01*
X67575000Y-35225000D02*
X66610000Y-34260000D01*
X125850000Y-5425000D02*
X123925001Y-3500001D01*
X19490000Y-30140000D02*
X19490000Y-27794999D01*
X120842500Y-30475000D02*
X120850000Y-30467500D01*
X110395000Y-10165000D02*
X110395000Y-11755000D01*
X119210000Y-4890000D02*
X120599999Y-3500001D01*
%TO.N,-12V*%
X19125000Y-15692500D02*
X19112500Y-15705000D01*
X40070001Y-21750000D02*
X40077500Y-21742501D01*
X117019999Y-20480000D02*
X117860000Y-21320001D01*
X99450000Y-34050000D02*
X99475000Y-34025000D01*
X81330000Y-41285001D02*
X81330000Y-39110000D01*
X19400000Y-33650000D02*
X19475000Y-33575000D01*
X59650000Y-19800000D02*
X63900000Y-19800000D01*
X63900000Y-19800000D02*
X63900000Y-19775000D01*
X72975000Y-4225000D02*
X77150000Y-4225000D01*
X53817500Y-16099999D02*
X53817500Y-18257500D01*
X81340000Y-37490000D02*
X81325000Y-37475000D01*
X120822500Y-43500000D02*
X120820000Y-43502500D01*
X53817500Y-18257500D02*
X53835000Y-18275000D01*
X83232500Y-17382500D02*
X83050000Y-17200000D01*
X78850000Y-14150000D02*
X78862500Y-14162500D01*
X77150000Y-4225000D02*
X78850000Y-5925000D01*
X99450000Y-35550000D02*
X99450000Y-37020001D01*
X19115000Y-17930001D02*
X19115000Y-15707500D01*
X11635000Y-35720000D02*
X11635000Y-34890000D01*
X91925000Y-17380001D02*
X91925000Y-15135000D01*
X65475000Y-29100000D02*
X65475000Y-43630000D01*
X84412500Y-17200000D02*
X84750000Y-17537500D01*
X19125000Y-13950000D02*
X19125000Y-15692500D01*
X91925000Y-15135000D02*
X91925000Y-14380203D01*
X19115000Y-15707500D02*
X19112500Y-15705000D01*
X83050000Y-17200000D02*
X84412500Y-17200000D01*
X101170001Y-37795001D02*
X103087500Y-39712500D01*
X45625000Y-20500000D02*
X45975000Y-20850000D01*
X46950000Y-20850000D02*
X47750000Y-20050000D01*
X45625000Y-19800000D02*
X45625000Y-20500000D01*
X19490000Y-37365001D02*
X19490000Y-35090000D01*
X19490000Y-35090000D02*
X19490000Y-33590000D01*
X78850000Y-5925000D02*
X78850000Y-14150000D01*
X59400000Y-20050000D02*
X59650000Y-19800000D01*
X81340000Y-39100000D02*
X81340000Y-37490000D01*
X11050000Y-16622500D02*
X11047500Y-16625000D01*
X11635000Y-34890000D02*
X12875000Y-33650000D01*
X64825000Y-28450000D02*
X65475000Y-29100000D01*
X110395000Y-14530000D02*
X111575000Y-13350000D01*
X100225000Y-37795001D02*
X101170001Y-37795001D01*
X38400000Y-21750000D02*
X40070001Y-21750000D01*
X103087500Y-39712500D02*
X103915000Y-39712500D01*
X81330000Y-39110000D02*
X81340000Y-39100000D01*
X53835000Y-20050000D02*
X53835000Y-18275000D01*
X64825000Y-28450000D02*
X63900000Y-27525000D01*
X45975000Y-20850000D02*
X46950000Y-20850000D01*
X19490000Y-33590000D02*
X19475000Y-33575000D01*
X63900000Y-19775000D02*
X66725000Y-16950000D01*
X91925000Y-14380203D02*
X91409374Y-13864577D01*
X110390000Y-15120000D02*
X110395000Y-15115000D01*
X113470000Y-35535000D02*
X113470000Y-34030000D01*
X12875000Y-33650000D02*
X19400000Y-33650000D01*
X40077500Y-21742501D02*
X42462501Y-21742501D01*
X110395000Y-15115000D02*
X110395000Y-14530000D01*
X113470000Y-37740001D02*
X113450000Y-37760001D01*
X113390000Y-20480000D02*
X117019999Y-20480000D01*
X113470000Y-34030000D02*
X113475000Y-34025000D01*
X113470000Y-35535000D02*
X113470000Y-37740001D01*
X47750000Y-20050000D02*
X53835000Y-20050000D01*
X65475000Y-43630000D02*
X63757500Y-45347500D01*
X63900000Y-27525000D02*
X63900000Y-19800000D01*
X122350000Y-43500000D02*
X120822500Y-43500000D01*
X110390000Y-17340001D02*
X110390000Y-15120000D01*
X53835000Y-20050000D02*
X59400000Y-20050000D01*
X11050000Y-15100000D02*
X11050000Y-16622500D01*
X99450000Y-37020001D02*
X100225000Y-37795001D01*
X99450000Y-35550000D02*
X99450000Y-34050000D01*
D39*
%TO.N,CLK_2*%
X51057500Y-47887500D02*
X49800000Y-46630000D01*
X49800000Y-44550000D02*
X46825000Y-41575000D01*
X4362500Y-30925000D02*
X4367500Y-30920000D01*
X14925000Y-43500000D02*
X13500000Y-42075000D01*
X3275000Y-30925000D02*
X4362500Y-30925000D01*
X49800000Y-46630000D02*
X49800000Y-44550000D01*
X39825000Y-41575000D02*
X37900000Y-43500000D01*
X46825000Y-41575000D02*
X39825000Y-41575000D01*
X13500000Y-42075000D02*
X10575000Y-42075000D01*
X37900000Y-43500000D02*
X14925000Y-43500000D01*
%TO.N,Net-(Q202-E)*%
X15704999Y-32360000D02*
X16950000Y-31114999D01*
X13477500Y-32342500D02*
X13460000Y-32360000D01*
X13477500Y-27880000D02*
X13477500Y-32342500D01*
X17199999Y-29825001D02*
X17199999Y-27655000D01*
X16950000Y-30140000D02*
X16950000Y-30075000D01*
X13460000Y-32360000D02*
X15704999Y-32360000D01*
X16950000Y-31114999D02*
X16950000Y-30140000D01*
X16950000Y-30075000D02*
X17199999Y-29825001D01*
%TO.N,Net-(C209-Pad2)*%
X4950000Y-26675000D02*
X4450000Y-26175000D01*
X4450000Y-26175000D02*
X4450000Y-25200000D01*
X9527500Y-27812500D02*
X8387500Y-27812500D01*
X9527500Y-27812500D02*
X9537500Y-27802500D01*
X15680000Y-28034999D02*
X15300001Y-27655000D01*
X15680000Y-30140000D02*
X15680000Y-28034999D01*
X15300001Y-26300001D02*
X15300001Y-27655000D01*
X13475000Y-24475000D02*
X15300001Y-26300001D01*
X8387500Y-27812500D02*
X7250000Y-26675000D01*
X9527500Y-29737500D02*
X9527500Y-27812500D01*
X7250000Y-26675000D02*
X4950000Y-26675000D01*
X5175000Y-24475000D02*
X13475000Y-24475000D01*
X4450000Y-25200000D02*
X5175000Y-24475000D01*
%TO.N,SAW2_FULL*%
X32717499Y-24282501D02*
X28044999Y-28955001D01*
X54850000Y-34350000D02*
X54850000Y-33212500D01*
X26497500Y-28247500D02*
X26497500Y-28955001D01*
X28044999Y-28955001D02*
X26497500Y-28955001D01*
X23300000Y-30140000D02*
X24484999Y-28955001D01*
X33550000Y-24282501D02*
X32717499Y-24282501D01*
X54200000Y-35000000D02*
X54850000Y-34350000D01*
X24187500Y-25937500D02*
X26497500Y-28247500D01*
X22897500Y-25937500D02*
X24187500Y-25937500D01*
X33550000Y-24282501D02*
X35127500Y-24282501D01*
X24484999Y-28955001D02*
X26497500Y-28955001D01*
%TO.N,Net-(D205-A)*%
X37772500Y-14477500D02*
X35127500Y-17122500D01*
X37772500Y-14392501D02*
X37772500Y-14477500D01*
X35127500Y-17122500D02*
X35127500Y-17932501D01*
D40*
%TO.N,+3.3V*%
X121070000Y-20082500D02*
X121070000Y-19281728D01*
X124320000Y-20082500D02*
X124320000Y-18245000D01*
X56800000Y-34025000D02*
X56800000Y-33212500D01*
X122126728Y-18225000D02*
X124300000Y-18225000D01*
D41*
X55515000Y-31244999D02*
X55550000Y-31279999D01*
D40*
X126940000Y-4740000D02*
X126940000Y-18225000D01*
X52712500Y-1050000D02*
X114975000Y-1050000D01*
X115010000Y-1085000D02*
X114975000Y-1050000D01*
X62469900Y-46635100D02*
X62469900Y-44505100D01*
X115010000Y-10237500D02*
X115010000Y-1085000D01*
X47165000Y-4559999D02*
X48450000Y-4559999D01*
X64050000Y-41275000D02*
X56800000Y-34025000D01*
X49202501Y-4559999D02*
X52712500Y-1050000D01*
D41*
X54394999Y-31244999D02*
X52775000Y-29625000D01*
X47155001Y-4550000D02*
X47165000Y-4559999D01*
D40*
X124300000Y-18225000D02*
X126940000Y-18225000D01*
D41*
X43800000Y-4550000D02*
X47155001Y-4550000D01*
D40*
X48450000Y-4559999D02*
X49202501Y-4559999D01*
X126940000Y-18225000D02*
X126940000Y-20100001D01*
X47150000Y-4574999D02*
X47165000Y-4559999D01*
X61217500Y-47887500D02*
X62469900Y-46635100D01*
X123250000Y-1050000D02*
X126940000Y-4740000D01*
X64050000Y-42925000D02*
X64050000Y-41275000D01*
D41*
X55550000Y-31279999D02*
X55550000Y-33212500D01*
D40*
X124320000Y-18245000D02*
X124300000Y-18225000D01*
X62469900Y-44505100D02*
X64050000Y-42925000D01*
X114975000Y-1050000D02*
X123250000Y-1050000D01*
X47150000Y-6550000D02*
X47150000Y-4574999D01*
X55500000Y-33212500D02*
X56800000Y-33212500D01*
X48450000Y-6550000D02*
X48450000Y-4559999D01*
X121070000Y-19281728D02*
X122126728Y-18225000D01*
D41*
X55515000Y-31244999D02*
X54394999Y-31244999D01*
D39*
%TO.N,Net-(C301-Pad1)*%
X88332500Y-7440000D02*
X88332500Y-6707500D01*
X88332500Y-7440000D02*
X88332500Y-9967500D01*
X88332500Y-6707500D02*
X86440000Y-4815000D01*
X86440000Y-4815000D02*
X86440000Y-4090000D01*
X88332500Y-9967500D02*
X88115000Y-10185000D01*
%TO.N,Net-(Q301-C)*%
X87894999Y-12650000D02*
X89385000Y-11159999D01*
X85825000Y-14637500D02*
X85825000Y-12665000D01*
X85840000Y-12650000D02*
X87894999Y-12650000D01*
X89385000Y-11159999D02*
X89385000Y-10185000D01*
X84750000Y-15712500D02*
X85825000Y-14637500D01*
X85825000Y-12665000D02*
X85840000Y-12650000D01*
X89385000Y-5135000D02*
X89385000Y-10185000D01*
X88340000Y-4090000D02*
X89385000Y-5135000D01*
%TO.N,Net-(U301A-+)*%
X93195000Y-7995001D02*
X94190001Y-7000000D01*
X94190001Y-7000000D02*
X94190001Y-4265001D01*
X108675000Y-8150000D02*
X109125000Y-8600000D01*
X109125000Y-8600000D02*
X109125000Y-10165000D01*
X93195000Y-10185000D02*
X93195000Y-7995001D01*
X94190001Y-4265001D02*
X94150000Y-4225000D01*
%TO.N,FILTER_OUT*%
X74050000Y-17450000D02*
X74825000Y-18225000D01*
X95750000Y-20350000D02*
X95540001Y-20350000D01*
X108400000Y-24225000D02*
X119700000Y-24225000D01*
X95750000Y-20350000D02*
X97850000Y-22450000D01*
X119700000Y-24225000D02*
X120825000Y-23100000D01*
X72575000Y-17450000D02*
X74050000Y-17450000D01*
X106625000Y-22450000D02*
X108400000Y-24225000D01*
X95540001Y-20350000D02*
X94460000Y-19269999D01*
X79050000Y-18225000D02*
X79687500Y-18862500D01*
X124950000Y-12525000D02*
X124950000Y-12950000D01*
X124970000Y-12970000D02*
X124970000Y-14357500D01*
X97850000Y-22450000D02*
X106625000Y-22450000D01*
X74825000Y-18225000D02*
X79050000Y-18225000D01*
X124950000Y-12950000D02*
X124970000Y-12970000D01*
%TO.N,Net-(U301C-+)*%
X90655000Y-16420000D02*
X90100000Y-16975000D01*
X124320000Y-15895000D02*
X124320000Y-14357500D01*
X124325000Y-15900000D02*
X124320000Y-15895000D01*
X90655000Y-15135000D02*
X90655000Y-16420000D01*
%TO.N,Net-(D301-K)*%
X84812501Y-19445000D02*
X84797501Y-19430000D01*
X88115000Y-15135000D02*
X88115000Y-14235000D01*
X84812501Y-21640000D02*
X84812501Y-23859999D01*
X92450000Y-12825000D02*
X93825000Y-11450000D01*
X84812501Y-23859999D02*
X84802500Y-23870000D01*
X84797501Y-19430000D02*
X84797501Y-19327499D01*
X89525000Y-12825000D02*
X92450000Y-12825000D01*
X93825000Y-11450000D02*
X93825000Y-9264999D01*
X84812501Y-21640000D02*
X84812501Y-19445000D01*
X88115000Y-14235000D02*
X89525000Y-12825000D01*
X93825000Y-9264999D02*
X96089999Y-7000000D01*
X84797501Y-19327499D02*
X88115000Y-16010000D01*
X88115000Y-16010000D02*
X88115000Y-15135000D01*
%TO.N,Net-(U301A--)*%
X98697500Y-13427500D02*
X99625000Y-12500000D01*
X96925000Y-10175000D02*
X96915000Y-10185000D01*
X99625000Y-12500000D02*
X99625000Y-10537500D01*
X96915000Y-10185000D02*
X95735000Y-10185000D01*
X97050000Y-10175000D02*
X96925000Y-10175000D01*
X99625000Y-10537500D02*
X98687500Y-9600000D01*
X97625000Y-9600000D02*
X97050000Y-10175000D01*
X95735000Y-10185000D02*
X94465000Y-10185000D01*
X98697500Y-15540000D02*
X98697500Y-13427500D01*
X98687500Y-9600000D02*
X97625000Y-9600000D01*
%TO.N,HP_IN*%
X92629999Y-23279999D02*
X93230000Y-23279999D01*
X78750000Y-20150000D02*
X74575000Y-20150000D01*
X92700000Y-25075000D02*
X87800000Y-25075000D01*
X87800000Y-25075000D02*
X87000000Y-25875000D01*
X74575000Y-20150000D02*
X73100000Y-18675000D01*
X87000000Y-25875000D02*
X84475000Y-25875000D01*
X93230000Y-24545000D02*
X92700000Y-25075000D01*
X84475000Y-25875000D02*
X78750000Y-20150000D01*
X93230000Y-23279999D02*
X93230000Y-24545000D01*
%TO.N,Net-(Q401-E)*%
X75697500Y-38472500D02*
X75697500Y-39145000D01*
X73260000Y-35332500D02*
X73747500Y-35820000D01*
X71300000Y-42275000D02*
X69950000Y-40925000D01*
X69950000Y-38975000D02*
X70700000Y-38225000D01*
X69950000Y-40925000D02*
X69950000Y-38975000D01*
X74420000Y-37195000D02*
X75697500Y-38472500D01*
X71722500Y-35332500D02*
X73260000Y-35332500D01*
X73747500Y-37195000D02*
X74420000Y-37195000D01*
X77795001Y-43145001D02*
X76925000Y-42275000D01*
X70700000Y-38225000D02*
X72717500Y-38225000D01*
X76925000Y-42275000D02*
X71300000Y-42275000D01*
X77795001Y-43167500D02*
X77795001Y-43145001D01*
X73747500Y-35820000D02*
X73747500Y-37195000D01*
X72717500Y-38225000D02*
X73747500Y-37195000D01*
%TO.N,FOLDER_IN*%
X88405000Y-28255000D02*
X87400000Y-27250000D01*
X88720000Y-28255000D02*
X88405000Y-28255000D01*
X87400000Y-27250000D02*
X87400000Y-27175000D01*
%TO.N,Net-(Q406-B)*%
X87700000Y-31600000D02*
X85150000Y-34150000D01*
X84650000Y-32525000D02*
X85150000Y-33025000D01*
X82895000Y-27125000D02*
X84650000Y-28880000D01*
X88090000Y-31600000D02*
X87700000Y-31600000D01*
X85150000Y-33025000D02*
X85150000Y-34150000D01*
X84650000Y-28880000D02*
X84650000Y-32525000D01*
%TO.N,VCA_IN*%
X89590000Y-40750000D02*
X90300000Y-40750000D01*
X92125000Y-36850000D02*
X93350500Y-36850000D01*
X78275000Y-17375000D02*
X78275000Y-16075000D01*
X93725000Y-36475500D02*
X93725000Y-33875000D01*
X76750000Y-14550000D02*
X76750000Y-7325000D01*
X93725000Y-33850000D02*
X89550000Y-29675000D01*
X78275000Y-16075000D02*
X76750000Y-14550000D01*
X80100000Y-22750000D02*
X80000000Y-22650000D01*
X87025000Y-29675000D02*
X80100000Y-22750000D01*
X89550000Y-29675000D02*
X87025000Y-29675000D01*
X88140000Y-42200000D02*
X89590000Y-40750000D01*
X93350500Y-36850000D02*
X93725000Y-36475500D01*
X90300000Y-40750000D02*
X91350000Y-39700000D01*
X93725000Y-33875000D02*
X93725000Y-33850000D01*
X80000000Y-22650000D02*
X79500000Y-22650000D01*
X91350000Y-37625000D02*
X92125000Y-36850000D01*
X91350000Y-39700000D02*
X91350000Y-37625000D01*
%TO.N,Net-(D201-A)*%
X25390000Y-18172500D02*
X26700000Y-18172500D01*
X22922500Y-15705000D02*
X25390000Y-18172500D01*
%TO.N,Net-(D202-A)*%
X12950000Y-18650000D02*
X12950000Y-18057500D01*
X12950000Y-18057500D02*
X15302500Y-15705000D01*
%TO.N,Net-(D203-A)*%
X12817500Y-37725000D02*
X12693500Y-37601000D01*
X15680000Y-34455000D02*
X15680000Y-35090000D01*
X15575000Y-34350000D02*
X15680000Y-34455000D01*
X12693500Y-37601000D02*
X12693500Y-34806500D01*
X13150000Y-34350000D02*
X15575000Y-34350000D01*
X12693500Y-34806500D02*
X13150000Y-34350000D01*
%TO.N,Net-(D204-A)*%
X25012500Y-36802500D02*
X27077500Y-36802500D01*
X23300000Y-35090000D02*
X25012500Y-36802500D01*
%TO.N,Net-(D301-A)*%
X86687501Y-19495000D02*
X86622501Y-19430000D01*
X86687501Y-21640000D02*
X86687501Y-19495000D01*
X88727500Y-23870000D02*
X88737500Y-23880000D01*
X89385000Y-16667501D02*
X89385000Y-15135000D01*
X86677502Y-23870000D02*
X86677502Y-21649999D01*
X86677502Y-21649999D02*
X86687501Y-21640000D01*
X86622501Y-19430000D02*
X89385000Y-16667501D01*
X86677502Y-23870000D02*
X88727500Y-23870000D01*
%TO.N,SDA*%
X121070000Y-14357500D02*
X121070000Y-15745000D01*
X59275000Y-3700000D02*
X60300000Y-2675000D01*
X56800000Y-37300000D02*
X56800000Y-38937500D01*
X48450000Y-13925000D02*
X48450000Y-12275000D01*
X121070000Y-15745000D02*
X121075000Y-15750000D01*
X60300000Y-2675000D02*
X61875000Y-2675000D01*
%TO.N,SCL*%
X56150000Y-40525000D02*
X56150000Y-38937500D01*
X61825000Y-3750000D02*
X60700000Y-4875000D01*
X121700000Y-14337500D02*
X121720000Y-14357500D01*
X121700000Y-12900000D02*
X121700000Y-14337500D01*
X47800000Y-12275000D02*
X47800000Y-11000000D01*
X63600000Y-3750000D02*
X61825000Y-3750000D01*
%TO.N,FOLD_FIRST*%
X72475000Y-16075000D02*
X73175000Y-16075000D01*
X71850000Y-20125000D02*
X71850000Y-16700000D01*
X65725000Y-24825000D02*
X67150000Y-24825000D01*
X75725000Y-14575000D02*
X75725000Y-6025000D01*
X65225000Y-22800000D02*
X64825000Y-23200000D01*
X74225000Y-16075000D02*
X75725000Y-14575000D01*
X64825000Y-23925000D02*
X65725000Y-24825000D01*
X67150000Y-24825000D02*
X71850000Y-20125000D01*
X65225000Y-22100000D02*
X65225000Y-22800000D01*
X73175000Y-16075000D02*
X74225000Y-16075000D01*
X64825000Y-23200000D02*
X64825000Y-23925000D01*
X71850000Y-16700000D02*
X72475000Y-16075000D01*
%TO.N,HP_MODE*%
X71150000Y-19225000D02*
X67675000Y-22700000D01*
X71150000Y-15825000D02*
X71150000Y-19225000D01*
X67675000Y-22700000D02*
X67675000Y-22875000D01*
X71150000Y-15825000D02*
X73075000Y-13900000D01*
X73075000Y-13900000D02*
X74375000Y-13900000D01*
%TO.N,LEVEL_1_CV*%
X1400000Y-22375000D02*
X10495000Y-13280000D01*
X1400000Y-39000000D02*
X1400000Y-22375000D01*
X10495000Y-13280000D02*
X11047500Y-13280000D01*
X43437500Y-45347500D02*
X42785000Y-46000000D01*
X42785000Y-46000000D02*
X8400000Y-46000000D01*
X8400000Y-46000000D02*
X1400000Y-39000000D01*
%TO.N,LEVEL_2_CV*%
X8775000Y-42075000D02*
X8775000Y-35220000D01*
X45977500Y-45347500D02*
X44330000Y-43700000D01*
X44330000Y-43700000D02*
X42025000Y-43700000D01*
X40625000Y-45100000D02*
X11800000Y-45100000D01*
X42025000Y-43700000D02*
X40625000Y-45100000D01*
X11800000Y-45100000D02*
X8775000Y-42075000D01*
X8775000Y-35220000D02*
X11635000Y-32360000D01*
%TO.N,PWM_1_CV*%
X39350000Y-30600000D02*
X40125000Y-30600000D01*
X35127500Y-20472501D02*
X35872501Y-20472501D01*
X35872501Y-20472501D02*
X36825000Y-21425000D01*
X49350000Y-39225000D02*
X51425000Y-41300000D01*
X36825000Y-21425000D02*
X36825000Y-22700000D01*
X51425000Y-41300000D02*
X51450000Y-41300000D01*
X36825000Y-22700000D02*
X38525000Y-24400000D01*
X38525000Y-29775000D02*
X39350000Y-30600000D01*
X46550000Y-37025000D02*
X46550000Y-37475000D01*
X38525000Y-24400000D02*
X38525000Y-29775000D01*
X40125000Y-30600000D02*
X46550000Y-37025000D01*
%TO.N,PWM_2_CV*%
X51057500Y-42807500D02*
X51057500Y-45347500D01*
X45300000Y-39200000D02*
X47450000Y-39200000D01*
X47450000Y-39200000D02*
X51057500Y-42807500D01*
X37550000Y-30425000D02*
X44150000Y-37025000D01*
X44150000Y-37025000D02*
X45300000Y-37025000D01*
X37550000Y-24700000D02*
X37550000Y-30425000D01*
X35862501Y-23012501D02*
X37550000Y-24700000D01*
X35127500Y-23012501D02*
X35862501Y-23012501D01*
%TO.N,CUTOFF_CV*%
X68300000Y-15950000D02*
X66250000Y-13900000D01*
X65975000Y-23550000D02*
X65975000Y-22800000D01*
X81582500Y-6975000D02*
X81587500Y-6970000D01*
X66250000Y-13900000D02*
X66250000Y-3846000D01*
X65975000Y-22800000D02*
X68300000Y-20475000D01*
X68300000Y-20475000D02*
X68300000Y-15950000D01*
X80600000Y-6975000D02*
X81582500Y-6975000D01*
%TO.N,FOLD_CV*%
X75775000Y-43177500D02*
X75785000Y-43167500D01*
X53597500Y-45347500D02*
X56170000Y-42775000D01*
X56170000Y-42775000D02*
X62750000Y-42775000D01*
X75775000Y-44150000D02*
X75775000Y-43177500D01*
%TO.N,VCA_CV*%
X71500000Y-23700000D02*
X75075000Y-23700000D01*
X76175000Y-24800000D02*
X76175000Y-24925000D01*
X76175000Y-24925000D02*
X76182500Y-24932500D01*
X67625000Y-33100000D02*
X67625000Y-27575000D01*
X75075000Y-23700000D02*
X76175000Y-24800000D01*
X67625000Y-27575000D02*
X71500000Y-23700000D01*
X76182500Y-24932500D02*
X76182500Y-27000000D01*
%TO.N,VCA_OUT*%
X72157500Y-25250000D02*
X72125000Y-25250000D01*
X71400000Y-25250000D02*
X72157500Y-25250000D01*
X68900000Y-27750000D02*
X71400000Y-25250000D01*
X68900000Y-31950000D02*
X68900000Y-27750000D01*
%TO.N,Net-(Q201-B)*%
X6302500Y-7575000D02*
X5430000Y-6702500D01*
X11022500Y-8535000D02*
X10062500Y-7575000D01*
X10062500Y-7575000D02*
X6302500Y-7575000D01*
%TO.N,Net-(Q201-C)*%
X8952500Y-6702500D02*
X11805000Y-6702500D01*
X11805000Y-6702500D02*
X11972500Y-6535000D01*
%TO.N,Net-(Q202-B)*%
X11577500Y-27880000D02*
X10522500Y-26825000D01*
X7292500Y-25767500D02*
X5997500Y-25767500D01*
X10522500Y-26825000D02*
X8350000Y-26825000D01*
X8350000Y-26825000D02*
X7292500Y-25767500D01*
%TO.N,Net-(Q202-C)*%
X9537500Y-25977500D02*
X12430000Y-25977500D01*
X12430000Y-25977500D02*
X12527500Y-25880000D01*
%TO.N,Net-(Q301-B)*%
X83840000Y-7397500D02*
X83412500Y-6970000D01*
X83840000Y-11700000D02*
X83840000Y-7397500D01*
X83412500Y-3640000D02*
X83412500Y-6970000D01*
%TO.N,Net-(Q301-E)*%
X86507500Y-10292500D02*
X83840000Y-12960000D01*
X86507500Y-7440000D02*
X86507500Y-10292500D01*
X83840000Y-12960000D02*
X83840000Y-13600000D01*
X83840000Y-13600000D02*
X79965000Y-13600000D01*
X79965000Y-13600000D02*
X79940000Y-13625000D01*
%TO.N,Net-(Q302-C)*%
X98100000Y-20950000D02*
X98102500Y-20947500D01*
X97550000Y-20950000D02*
X98100000Y-20950000D01*
X81940000Y-11760000D02*
X81950000Y-11750000D01*
X81940000Y-12675000D02*
X81940000Y-11760000D01*
X98102500Y-20947500D02*
X99105000Y-20947500D01*
X102470000Y-20962500D02*
X99120000Y-20962500D01*
X99120000Y-20962500D02*
X99105000Y-20947500D01*
%TO.N,Net-(Q401-B)*%
X73747500Y-33920000D02*
X73747500Y-34472400D01*
X77530000Y-38254900D02*
X77530000Y-39100000D01*
X73747500Y-34472400D02*
X77530000Y-38254900D01*
%TO.N,Net-(Q401-C)*%
X75747500Y-34870000D02*
X75747500Y-33765000D01*
X75747500Y-33765000D02*
X72570000Y-30587500D01*
%TO.N,Net-(Q402-B)*%
X106370000Y-33420000D02*
X106370000Y-30575000D01*
X106370000Y-28820000D02*
X106360000Y-28810000D01*
X106370000Y-30575000D02*
X106370000Y-28820000D01*
X106380000Y-30585000D02*
X106370000Y-30575000D01*
X110930000Y-30585000D02*
X109660000Y-30585000D01*
X109660000Y-30585000D02*
X106380000Y-30585000D01*
%TO.N,Net-(Q402-E)*%
X104460000Y-28810000D02*
X104460000Y-28092500D01*
X104460000Y-28092500D02*
X105415000Y-27137500D01*
%TO.N,Net-(Q402-C)*%
X106027500Y-36027500D02*
X105420000Y-35420000D01*
X106027500Y-37930000D02*
X106027500Y-36027500D01*
X105420000Y-30820000D02*
X105410000Y-30810000D01*
X105420000Y-35420000D02*
X105420000Y-30820000D01*
%TO.N,Net-(Q403-E)*%
X104470000Y-33420000D02*
X103975000Y-33915000D01*
X103975000Y-33915000D02*
X103975000Y-37827500D01*
X103975000Y-37827500D02*
X103915000Y-37887500D01*
%TO.N,Net-(Q404-B)*%
X122700000Y-37910000D02*
X122700000Y-33880000D01*
X109910000Y-37797500D02*
X110862500Y-38750000D01*
X122700000Y-37960000D02*
X122700000Y-37910000D01*
X122700000Y-33880000D02*
X122750000Y-33830000D01*
X109660000Y-35535000D02*
X109660000Y-37547500D01*
X110862500Y-38750000D02*
X121910000Y-38750000D01*
X109660000Y-37547500D02*
X109910000Y-37797500D01*
X121910000Y-38750000D02*
X122700000Y-37960000D01*
%TO.N,Net-(Q404-E)*%
X120850000Y-32292500D02*
X120850000Y-33830000D01*
%TO.N,Net-(Q404-C)*%
X124150000Y-33150000D02*
X124150000Y-38950000D01*
X121800000Y-33275000D02*
X122675000Y-32400000D01*
X123400000Y-32400000D02*
X124150000Y-33150000D01*
X122675000Y-32400000D02*
X123400000Y-32400000D01*
X123175000Y-39925000D02*
X123160000Y-39910000D01*
X116800000Y-39622500D02*
X121462500Y-39622500D01*
X121800000Y-35830000D02*
X121800000Y-33275000D01*
X124150000Y-38950000D02*
X123175000Y-39925000D01*
X123160000Y-39910000D02*
X121750000Y-39910000D01*
X121462500Y-39622500D02*
X121750000Y-39910000D01*
%TO.N,Net-(Q405-E)*%
X122800000Y-41700000D02*
X122777500Y-41677500D01*
X122777500Y-41677500D02*
X120820000Y-41677500D01*
X120800000Y-37910000D02*
X120800000Y-36975000D01*
%TO.N,Net-(Q406-E)*%
X85950000Y-30300000D02*
X85577500Y-30672500D01*
X89075000Y-32515000D02*
X89075000Y-30975000D01*
X88090000Y-33500000D02*
X89075000Y-32515000D01*
X85577500Y-30672500D02*
X85577500Y-31775000D01*
X86725000Y-36425000D02*
X87375000Y-37075000D01*
X86725000Y-34865000D02*
X86725000Y-36425000D01*
X89400000Y-37075000D02*
X90002500Y-37677500D01*
X90002500Y-37677500D02*
X90002500Y-38825000D01*
X87375000Y-37075000D02*
X89400000Y-37075000D01*
X88400000Y-30300000D02*
X85950000Y-30300000D01*
X88090000Y-33500000D02*
X86725000Y-34865000D01*
X89075000Y-30975000D02*
X88400000Y-30300000D01*
%TO.N,Net-(Q406-C)*%
X88177500Y-35500000D02*
X88177500Y-34922500D01*
X88177500Y-34922500D02*
X90090000Y-33010000D01*
X90090000Y-33010000D02*
X90090000Y-32550000D01*
%TO.N,Net-(U201C--)*%
X15207500Y-21550000D02*
X15207500Y-20035000D01*
X16572500Y-17750000D02*
X17032500Y-18210000D01*
X16572500Y-15705000D02*
X16572500Y-17750000D01*
X15207500Y-20035000D02*
X17032500Y-18210000D01*
%TO.N,TRI1_FULL*%
X11450000Y-18047500D02*
X11450000Y-18050000D01*
X24342500Y-23350000D02*
X22577500Y-21585000D01*
X11450000Y-21400000D02*
X12000000Y-21950000D01*
X23492500Y-24200000D02*
X24342500Y-23350000D01*
X25575000Y-23350000D02*
X24342500Y-23350000D01*
X12950000Y-21950000D02*
X12950000Y-22950000D01*
X46500000Y-12275000D02*
X46500000Y-13275000D01*
X12950000Y-22950000D02*
X14200000Y-24200000D01*
X11450000Y-18050000D02*
X11450000Y-21400000D01*
X8300000Y-18050000D02*
X11450000Y-18050000D01*
X15207500Y-18210000D02*
X12950000Y-20467500D01*
X12950000Y-20467500D02*
X12950000Y-21950000D01*
X26700000Y-22225000D02*
X25575000Y-23350000D01*
X46500000Y-13275000D02*
X44475000Y-15300000D01*
X12872500Y-16625000D02*
X11450000Y-18047500D01*
X8300000Y-20750000D02*
X8300000Y-18050000D01*
X26700000Y-21472500D02*
X26700000Y-22225000D01*
X14200000Y-24200000D02*
X23492500Y-24200000D01*
X44475000Y-15300000D02*
X41800000Y-15300000D01*
X12000000Y-21950000D02*
X12950000Y-21950000D01*
%TO.N,Net-(U202D--)*%
X21725000Y-39500000D02*
X22470000Y-38755000D01*
X21725000Y-41580000D02*
X21725000Y-39500000D01*
X20880000Y-42425000D02*
X21725000Y-41580000D01*
X22470000Y-38755000D02*
X22815000Y-38755000D01*
X22030000Y-37180000D02*
X22815000Y-37965000D01*
X22030000Y-35090000D02*
X22030000Y-37180000D01*
X22815000Y-37965000D02*
X22815000Y-38755000D01*
%TO.N,Net-(U202C--)*%
X17000000Y-37675000D02*
X17000000Y-35140000D01*
X17000000Y-35140000D02*
X16950000Y-35090000D01*
X17000000Y-40955000D02*
X17000000Y-37675000D01*
%TO.N,TRI2_FULL*%
X12817500Y-41025000D02*
X12817500Y-40032500D01*
X51775000Y-36475000D02*
X50500000Y-35200000D01*
X13460000Y-35960000D02*
X13460000Y-35720000D01*
X27077500Y-40102500D02*
X33297500Y-40102500D01*
X54850000Y-38937500D02*
X54850000Y-37700000D01*
X13275000Y-39575000D02*
X12817500Y-40032500D01*
X22815000Y-41640000D02*
X22815000Y-40815000D01*
X12817500Y-41025000D02*
X12817500Y-41142500D01*
X53625000Y-36475000D02*
X51775000Y-36475000D01*
X15175000Y-37675000D02*
X13275000Y-39575000D01*
X27077500Y-40102500D02*
X27077500Y-41647500D01*
X54850000Y-37700000D02*
X53625000Y-36475000D01*
X23725000Y-42550000D02*
X23325000Y-42150000D01*
X15175000Y-37675000D02*
X13460000Y-35960000D01*
X26175000Y-42550000D02*
X23725000Y-42550000D01*
X33297500Y-40102500D02*
X33850000Y-39550000D01*
X27077500Y-41647500D02*
X26175000Y-42550000D01*
X23325000Y-42150000D02*
X22815000Y-41640000D01*
%TO.N,PULSE2_FULL*%
X58100000Y-38937500D02*
X58100000Y-40675000D01*
X54025000Y-41700000D02*
X50575000Y-38250000D01*
X37600000Y-32900000D02*
X31692500Y-32900000D01*
X57075000Y-41700000D02*
X54025000Y-41700000D01*
X29877500Y-29600000D02*
X29877500Y-30502500D01*
X31692500Y-32317500D02*
X31692500Y-32900000D01*
X42950000Y-38250000D02*
X37600000Y-32900000D01*
X58100000Y-40675000D02*
X57075000Y-41700000D01*
X29877500Y-30502500D02*
X31692500Y-32317500D01*
X50575000Y-38250000D02*
X42950000Y-38250000D01*
%TO.N,PULSE1_FULL*%
X49750000Y-12275000D02*
X49750000Y-10550000D01*
X42225000Y-11450000D02*
X41250000Y-11450000D01*
X32650000Y-9600000D02*
X32652500Y-9602500D01*
X44175000Y-9500000D02*
X42225000Y-11450000D01*
X48700000Y-9500000D02*
X44175000Y-9500000D01*
X30820000Y-13455000D02*
X32652500Y-11622500D01*
X49750000Y-10550000D02*
X48700000Y-9500000D01*
X32652500Y-9602500D02*
X32652500Y-10922501D01*
X30820000Y-14392501D02*
X30820000Y-13455000D01*
X32652500Y-11622500D02*
X32652500Y-10922501D01*
X32650000Y-9250000D02*
X32650000Y-9600000D01*
%TO.N,Net-(U203C-P2W)*%
X45375000Y-8075000D02*
X43500000Y-8075000D01*
X42102500Y-6345000D02*
X42102500Y-6677500D01*
X45850000Y-6550000D02*
X45850000Y-7600000D01*
X42102500Y-6677500D02*
X43500000Y-8075000D01*
X45850000Y-7600000D02*
X45375000Y-8075000D01*
%TO.N,Net-(U204C--)*%
X55955000Y-16062500D02*
X57370000Y-16062500D01*
X57370000Y-16062500D02*
X59195000Y-14237500D01*
X56375000Y-18275000D02*
X56375000Y-16482500D01*
X56375000Y-16482500D02*
X55955000Y-16062500D01*
%TO.N,Net-(U203A-P0W)*%
X50400000Y-6550000D02*
X50400000Y-5700000D01*
X50900000Y-5200000D02*
X52050000Y-5200000D01*
X50400000Y-5700000D02*
X50900000Y-5200000D01*
X52050000Y-5200000D02*
X52615000Y-5765000D01*
X52615000Y-5765000D02*
X52615000Y-6530000D01*
%TO.N,Net-(U203B-P1W)*%
X50400000Y-10400000D02*
X48750000Y-8750000D01*
X43925000Y-8750000D02*
X42820000Y-9855000D01*
X42820000Y-9855000D02*
X42092500Y-9855000D01*
X48750000Y-8750000D02*
X43925000Y-8750000D01*
X50400000Y-12275000D02*
X50400000Y-10400000D01*
%TO.N,Net-(U203D-P3W)*%
X45050000Y-10650000D02*
X43950000Y-10650000D01*
X43950000Y-10650000D02*
X42112500Y-12487500D01*
X45850000Y-11450000D02*
X45050000Y-10650000D01*
X42112500Y-12487500D02*
X42112500Y-13175000D01*
X45850000Y-12275000D02*
X45850000Y-11450000D01*
%TO.N,Net-(U204A--)*%
X47825000Y-36500000D02*
X47825000Y-29900000D01*
X47825000Y-28125000D02*
X47825000Y-29900000D01*
X51295000Y-23225000D02*
X51295000Y-25492500D01*
X51025000Y-27250000D02*
X48700000Y-27250000D01*
X51972500Y-26302500D02*
X51025000Y-27250000D01*
X48700000Y-27250000D02*
X47825000Y-28125000D01*
X51295000Y-25492500D02*
X51972500Y-26170000D01*
X51972500Y-26170000D02*
X51972500Y-26302500D01*
%TO.N,Net-(U205A-P0W)*%
X58750000Y-33212500D02*
X58750000Y-34200000D01*
X59580001Y-34700000D02*
X61055001Y-33225000D01*
X59250000Y-34700000D02*
X59580001Y-34700000D01*
X58750000Y-34200000D02*
X59250000Y-34700000D01*
%TO.N,Net-(U205B-P1W)*%
X58750000Y-37675000D02*
X57000000Y-35925000D01*
X58750000Y-38937500D02*
X58750000Y-37675000D01*
X53750000Y-35925000D02*
X51025000Y-33200000D01*
X57000000Y-35925000D02*
X53750000Y-35925000D01*
X51025000Y-33200000D02*
X49650000Y-33200000D01*
%TO.N,Net-(U205C-P2W)*%
X50550000Y-29900000D02*
X49650000Y-29900000D01*
X53150000Y-34525000D02*
X52275000Y-33650000D01*
X52275000Y-31625000D02*
X50550000Y-29900000D01*
X54200000Y-33949999D02*
X53624999Y-34525000D01*
X52275000Y-33650000D02*
X52275000Y-31625000D01*
X53624999Y-34525000D02*
X53150000Y-34525000D01*
X54200000Y-33212500D02*
X54200000Y-33949999D01*
%TO.N,Net-(U205D-P3W)*%
X53250000Y-37150000D02*
X50300000Y-37150000D01*
X54200000Y-38100000D02*
X53250000Y-37150000D01*
X50300000Y-37150000D02*
X49650000Y-36500000D01*
X54200000Y-38937500D02*
X54200000Y-38100000D01*
%TO.N,OSC_MIX*%
X69650000Y-10800000D02*
X69650000Y-7325000D01*
X69725000Y-3825000D02*
X69725000Y-4875000D01*
X68925000Y-6600000D02*
X69650000Y-7325000D01*
X69725000Y-4875000D02*
X68925000Y-5675000D01*
X40275000Y-29412500D02*
X41237500Y-29412500D01*
X41237500Y-29412500D02*
X41800000Y-29975000D01*
X68925000Y-5675000D02*
X68925000Y-6600000D01*
%TO.N,Net-(U303C-+)*%
X102700000Y-13375000D02*
X105819999Y-13375000D01*
X105819999Y-13375000D02*
X106585000Y-14140001D01*
X100535000Y-15540000D02*
X102700000Y-13375000D01*
X106585000Y-15115000D02*
X106585000Y-15622500D01*
X106585000Y-14140001D02*
X106585000Y-15115000D01*
X100522500Y-15540000D02*
X100535000Y-15540000D01*
X106585000Y-15622500D02*
X104820000Y-17387500D01*
%TO.N,Net-(U301D--)*%
X95735000Y-15135000D02*
X98697500Y-12172500D01*
X94460000Y-17370001D02*
X94460000Y-15140000D01*
X94465000Y-15135000D02*
X95735000Y-15135000D01*
X98697500Y-12172500D02*
X98697500Y-11790000D01*
X94460000Y-15140000D02*
X94465000Y-15135000D01*
%TO.N,Net-(R306-Pad2)*%
X102350000Y-12100000D02*
X102350000Y-11860000D01*
X99550000Y-18677500D02*
X99550000Y-14900000D01*
X99550000Y-14900000D02*
X102350000Y-12100000D01*
X99105000Y-19122500D02*
X99550000Y-18677500D01*
X102350000Y-11860000D02*
X104045000Y-10165000D01*
%TO.N,Net-(R307-Pad2)*%
X102470000Y-16690000D02*
X102470000Y-19137500D01*
X104045000Y-15115000D02*
X102470000Y-16690000D01*
%TO.N,Net-(U303A--)*%
X100502500Y-6850000D02*
X100502500Y-9590000D01*
X100502500Y-5800000D02*
X100502500Y-6850000D01*
X106950000Y-7822500D02*
X105977500Y-6850000D01*
X105977500Y-6850000D02*
X100502500Y-6850000D01*
X107855000Y-10165000D02*
X107855000Y-8727500D01*
X107855000Y-8727500D02*
X106950000Y-7822500D01*
X100502500Y-9590000D02*
X100512500Y-9600000D01*
%TO.N,Net-(U303A-+)*%
X104810000Y-7822500D02*
X106585000Y-9597500D01*
X106585000Y-9597500D02*
X106585000Y-10165000D01*
%TO.N,LP_IN*%
X98677500Y-4627500D02*
X98677500Y-5800000D01*
X71275000Y-4250000D02*
X73475000Y-2050000D01*
X73475000Y-2050000D02*
X96100000Y-2050000D01*
X70175000Y-17375000D02*
X70175000Y-16308475D01*
X71275000Y-11850000D02*
X71275000Y-4250000D01*
X70179000Y-16304475D02*
X70179000Y-12946000D01*
X96100000Y-2050000D02*
X98677500Y-4627500D01*
X70175000Y-16308475D02*
X70179000Y-16304475D01*
X70179000Y-12946000D02*
X71275000Y-11850000D01*
%TO.N,Net-(U303C--)*%
X100522500Y-12927500D02*
X99350000Y-14100000D01*
X107855000Y-15115000D02*
X107855000Y-17005000D01*
X106947500Y-17375000D02*
X106940000Y-17367500D01*
X100522500Y-11790000D02*
X100522500Y-12927500D01*
X107855000Y-17005000D02*
X108225000Y-17375000D01*
X108225000Y-17375000D02*
X106947500Y-17375000D01*
%TO.N,Net-(U402A--)*%
X96910000Y-30600000D02*
X96910000Y-29625001D01*
X96650000Y-24625000D02*
X94925000Y-24625000D01*
X94925000Y-24625000D02*
X93865000Y-25685000D01*
X90582500Y-26255000D02*
X93732500Y-26255000D01*
X97175000Y-25150000D02*
X96650000Y-24625000D01*
X96910000Y-29625001D02*
X97175000Y-29360001D01*
X93865000Y-25685000D02*
X93865000Y-26387500D01*
X93732500Y-26255000D02*
X93865000Y-26387500D01*
X97175000Y-29360001D02*
X97175000Y-25150000D01*
%TO.N,Net-(U402A-+)*%
X95640000Y-28662500D02*
X96090000Y-28212500D01*
X95640000Y-30600000D02*
X95640000Y-28662500D01*
%TO.N,Net-(R408-Pad1)*%
X74312500Y-28762500D02*
X74325000Y-28750000D01*
X91675000Y-30600000D02*
X93100000Y-30600000D01*
X72570000Y-28762500D02*
X74312500Y-28762500D01*
%TO.N,Net-(U403A--)*%
X115300000Y-27150000D02*
X111625000Y-27150000D01*
X98175000Y-28475000D02*
X98180000Y-28480000D01*
X115300000Y-28725000D02*
X116010000Y-29435000D01*
X116890001Y-26267500D02*
X115857500Y-26267500D01*
X115857500Y-26267500D02*
X115300000Y-26825000D01*
X115300000Y-26825000D02*
X115300000Y-27150000D01*
X98180000Y-28480000D02*
X98180000Y-30600000D01*
X116010000Y-29435000D02*
X116010000Y-30585000D01*
X98175000Y-28175000D02*
X98175000Y-28475000D01*
X115300000Y-27150000D02*
X115300000Y-28725000D01*
%TO.N,Net-(U403B-+)*%
X110800000Y-28050000D02*
X110800000Y-26650000D01*
X122525000Y-28075000D02*
X122527500Y-28072500D01*
X112300000Y-25150000D02*
X119787500Y-25150000D01*
X120717500Y-26267500D02*
X122525000Y-28075000D01*
X120270001Y-26267500D02*
X120717500Y-26267500D01*
X120270001Y-25632501D02*
X120270001Y-26267500D01*
X112200000Y-29450000D02*
X110800000Y-28050000D01*
X119787500Y-25150000D02*
X120270001Y-25632501D01*
X122527500Y-28072500D02*
X123870000Y-28072500D01*
X112200000Y-30585000D02*
X112200000Y-29450000D01*
X110800000Y-26650000D02*
X112300000Y-25150000D01*
%TO.N,Net-(U403C--)*%
X110294999Y-33925000D02*
X110930000Y-34560001D01*
X109910000Y-39622500D02*
X108947500Y-39622500D01*
X108947500Y-39622500D02*
X107852500Y-38527500D01*
X110930000Y-34560001D02*
X110930000Y-35535000D01*
X107852500Y-37930000D02*
X107852500Y-34722500D01*
X107852500Y-38527500D02*
X107852500Y-37930000D01*
X108650000Y-33925000D02*
X110294999Y-33925000D01*
X107852500Y-34722500D02*
X108650000Y-33925000D01*
%TO.N,Net-(U403D--)*%
X118739692Y-32950000D02*
X117150000Y-32950000D01*
X118750000Y-32960308D02*
X118739692Y-32950000D01*
X120335308Y-31375000D02*
X118750000Y-32960308D01*
X117600000Y-40700000D02*
X123550000Y-40700000D01*
X116800000Y-37797500D02*
X116010000Y-37007500D01*
X116010000Y-37007500D02*
X116010000Y-35535000D01*
X116910001Y-41577500D02*
X116910001Y-41389999D01*
X125025000Y-39225000D02*
X125025000Y-33000000D01*
X116010000Y-34090000D02*
X116010000Y-35535000D01*
X123550000Y-40700000D02*
X125025000Y-39225000D01*
X116910001Y-41389999D02*
X117600000Y-40700000D01*
X125025000Y-33000000D02*
X123400000Y-31375000D01*
X117150000Y-32950000D02*
X116010000Y-34090000D01*
X123400000Y-31375000D02*
X120335308Y-31375000D01*
%TO.N,FOLDER_OUT*%
X85975000Y-37875000D02*
X86725000Y-38625000D01*
X86650000Y-33825000D02*
X85975000Y-34500000D01*
X78100000Y-9075000D02*
X78100000Y-13300000D01*
X85975000Y-34500000D02*
X85975000Y-37875000D01*
X80900000Y-17200000D02*
X82550000Y-18850000D01*
X78100000Y-13300000D02*
X77650000Y-13750000D01*
X82550000Y-18850000D02*
X82550000Y-22725000D01*
X77675000Y-8650000D02*
X78100000Y-9075000D01*
X77675000Y-8600000D02*
X77675000Y-8650000D01*
X107125000Y-43400000D02*
X108227500Y-43400000D01*
X80425000Y-17200000D02*
X80900000Y-17200000D01*
X77650000Y-13750000D02*
X77650000Y-14425000D01*
X77650000Y-14425000D02*
X80425000Y-17200000D01*
%TO.N,Net-(R424-Pad1)*%
X93100000Y-35550000D02*
X90052500Y-35550000D01*
X90052500Y-35550000D02*
X90002500Y-35500000D01*
%TO.N,Net-(U404B--)*%
X80700000Y-37925000D02*
X80700000Y-40125000D01*
X79850000Y-40975000D02*
X79850000Y-43775000D01*
X98180000Y-42495000D02*
X98180000Y-36955000D01*
X78800000Y-34150000D02*
X78800000Y-36025000D01*
X95150000Y-45525000D02*
X98180000Y-42495000D01*
X98180000Y-35550000D02*
X98180000Y-36955000D01*
X79850000Y-43775000D02*
X81600000Y-45525000D01*
X78800000Y-30072500D02*
X78800000Y-34150000D01*
X78800000Y-36025000D02*
X80700000Y-37925000D01*
X80700000Y-40125000D02*
X79850000Y-40975000D01*
X78002500Y-29275000D02*
X78800000Y-30072500D01*
X81600000Y-45525000D02*
X95150000Y-45525000D01*
%TO.N,Net-(U402C-+)*%
X95640000Y-36267500D02*
X95640000Y-35550000D01*
X93360000Y-37847500D02*
X94060000Y-37847500D01*
X94060000Y-37847500D02*
X95640000Y-36267500D01*
%TO.N,Net-(U402C--)*%
X94312500Y-41710000D02*
X95050000Y-40972500D01*
X96162500Y-37837500D02*
X96760000Y-37837500D01*
X95050000Y-38950000D02*
X96162500Y-37837500D01*
X96910000Y-37687500D02*
X96760000Y-37837500D01*
X96910000Y-35550000D02*
X96910000Y-37687500D01*
X95050000Y-40972500D02*
X95050000Y-38950000D01*
%TO.N,Net-(U301D-+)*%
X108600000Y-18600000D02*
X108600000Y-21325000D01*
X109125000Y-18075000D02*
X108600000Y-18600000D01*
X109125000Y-15115000D02*
X109125000Y-18075000D01*
X91850000Y-21375000D02*
X93224999Y-21375000D01*
X93224999Y-21375000D02*
X93230000Y-21380001D01*
X93230000Y-15170000D02*
X93195000Y-15135000D01*
X93230000Y-21380001D02*
X93230000Y-15170000D01*
%TO.N,Net-(U202A--)*%
X9912500Y-31562500D02*
X11325000Y-30150000D01*
X9527500Y-31562500D02*
X9912500Y-31562500D01*
X21325000Y-26775000D02*
X22312500Y-27762500D01*
X22030000Y-28630000D02*
X22030000Y-30140000D01*
X22312500Y-27762500D02*
X22897500Y-27762500D01*
X20975000Y-26775000D02*
X21325000Y-26775000D01*
X22897500Y-27762500D02*
X22030000Y-28630000D01*
%TO.N,Net-(D206-A)*%
X35127500Y-25552501D02*
X36650000Y-27075001D01*
X36650000Y-27075001D02*
X36650000Y-29600000D01*
D40*
%TO.N,-5V*%
X121100000Y-21950000D02*
X121110001Y-21960001D01*
X117860000Y-17540001D02*
X119015001Y-17540001D01*
X120875000Y-21950000D02*
X121100000Y-21950000D01*
X120175000Y-18700000D02*
X120175000Y-21250000D01*
X123020000Y-20082500D02*
X123020000Y-21960001D01*
X117860000Y-17540001D02*
X116329999Y-17540001D01*
X119015001Y-17540001D02*
X120175000Y-18700000D01*
X116329999Y-17540001D02*
X114660000Y-19210000D01*
X121110001Y-21960001D02*
X123020000Y-21960001D01*
X120175000Y-21250000D02*
X120875000Y-21950000D01*
D39*
%TO.N,Net-(U204D--)*%
X40267500Y-9855000D02*
X40267500Y-6355000D01*
X49875000Y-14900000D02*
X50387500Y-15412500D01*
X40287500Y-13175000D02*
X40287500Y-13162500D01*
X40267500Y-13142500D02*
X40267500Y-9855000D01*
X45300000Y-16400000D02*
X46800000Y-14900000D01*
X40287500Y-13175000D02*
X40287500Y-15037500D01*
X40287500Y-13162500D02*
X40267500Y-13142500D01*
X51295000Y-16847500D02*
X50387500Y-15940000D01*
X40267500Y-6355000D02*
X40277500Y-6345000D01*
X41650000Y-16400000D02*
X45300000Y-16400000D01*
X46800000Y-14900000D02*
X49875000Y-14900000D01*
X40287500Y-15037500D02*
X41650000Y-16400000D01*
X50387500Y-15412500D02*
X50387500Y-15940000D01*
X51295000Y-18275000D02*
X51295000Y-16847500D01*
%TO.N,Net-(R245-Pad2)*%
X40077500Y-25552501D02*
X42810001Y-25552501D01*
X40077500Y-27390000D02*
X40275000Y-27587500D01*
X40077500Y-25552501D02*
X40077500Y-27390000D01*
X42810001Y-25552501D02*
X42900000Y-25642500D01*
D40*
%TO.N,+5V*%
X119329999Y-7310001D02*
X122430000Y-7310001D01*
X123360001Y-7310001D02*
X122430000Y-7310001D01*
X121525000Y-11325000D02*
X123015000Y-11325000D01*
X123020000Y-14357500D02*
X123020000Y-11330000D01*
X120750001Y-12099999D02*
X121525000Y-11325000D01*
X123020000Y-11330000D02*
X124025000Y-10325000D01*
X124025000Y-7975000D02*
X123360001Y-7310001D01*
X123015000Y-11325000D02*
X123020000Y-11330000D01*
X124025000Y-10325000D02*
X124025000Y-7975000D01*
X119690000Y-12099999D02*
X120750001Y-12099999D01*
X119210000Y-7430000D02*
X119329999Y-7310001D01*
D39*
%TO.N,Net-(U302-~{SHDN})*%
X115012500Y-12062500D02*
X120000000Y-17050000D01*
X120000000Y-17050000D02*
X121125000Y-17050000D01*
X122370000Y-15805000D02*
X122370000Y-14357500D01*
X115010000Y-12062500D02*
X115012500Y-12062500D01*
X121125000Y-17050000D02*
X122370000Y-15805000D01*
%TO.N,Net-(R233-Pad2)*%
X55975000Y-13475000D02*
X54800000Y-12300000D01*
X48562500Y-16812500D02*
X50025000Y-18275000D01*
X55975000Y-14217500D02*
X55975000Y-13475000D01*
X47150000Y-15650000D02*
X47440000Y-15940000D01*
X47440000Y-15940000D02*
X48562500Y-15940000D01*
X48562500Y-15940000D02*
X48562500Y-16812500D01*
X54800000Y-12300000D02*
X53500000Y-12300000D01*
X53500000Y-12300000D02*
X52675000Y-13125000D01*
X52675000Y-14800000D02*
X51575000Y-15900000D01*
X55955000Y-14237500D02*
X55975000Y-14217500D01*
X52675000Y-13125000D02*
X52675000Y-14800000D01*
%TO.N,Net-(D206-K)*%
X31702500Y-29600000D02*
X33350000Y-29600000D01*
%TO.N,Net-(R420-Pad2)*%
X118100000Y-44675000D02*
X118750000Y-44025000D01*
X113440000Y-43402500D02*
X114052500Y-43402500D01*
X114052500Y-43402500D02*
X115325000Y-44675000D01*
X110052500Y-43400000D02*
X113437500Y-43400000D01*
X115325000Y-44675000D02*
X118100000Y-44675000D01*
X117290000Y-35525000D02*
X117280000Y-35535000D01*
X118725000Y-35525000D02*
X117290000Y-35525000D01*
X113437500Y-43400000D02*
X113440000Y-43402500D01*
X119000000Y-43775000D02*
X118750000Y-44025000D01*
X119000000Y-42125000D02*
X119000000Y-43775000D01*
%TO.N,Net-(R218-Pad2)*%
X24640000Y-40815000D02*
X24640000Y-38755000D01*
%TO.N,Net-(R202-Pad2)*%
X24402500Y-19485000D02*
X24402500Y-21585000D01*
%TO.N,Net-(U201A--)*%
X22540000Y-9235000D02*
X22275000Y-9500000D01*
X8952500Y-12427500D02*
X10655000Y-10725000D01*
X21652500Y-10755000D02*
X21652500Y-10122500D01*
X21652500Y-10122500D02*
X22275000Y-9500000D01*
X10655000Y-10725000D02*
X11200000Y-10725000D01*
X22540000Y-8542500D02*
X22540000Y-9235000D01*
%TO.N,Net-(R220-Pad1)*%
X54050000Y-26550000D02*
X52825000Y-27775000D01*
X57675000Y-27507500D02*
X56717500Y-26550000D01*
X50142500Y-26175000D02*
X50147500Y-26170000D01*
X52825000Y-27775000D02*
X52300000Y-27775000D01*
X48375000Y-26175000D02*
X50142500Y-26175000D01*
X50147500Y-23347500D02*
X50147500Y-26170000D01*
X56717500Y-26550000D02*
X54050000Y-26550000D01*
X50025000Y-23225000D02*
X50147500Y-23347500D01*
%TO.N,Net-(C214-Pad2)*%
X54515000Y-6530000D02*
X54515000Y-8587500D01*
X54515000Y-8587500D02*
X54472500Y-8630000D01*
%TO.N,Net-(C211-Pad2)*%
X62907500Y-35345000D02*
X62907500Y-33272499D01*
X62907500Y-33272499D02*
X62954999Y-33225000D01*
%TO.N,Net-(R425-Pad2)*%
X76177500Y-29275000D02*
X73982500Y-27080000D01*
X73982500Y-27080000D02*
X73982500Y-25250000D01*
X77530000Y-34150000D02*
X77530000Y-30627500D01*
X77530000Y-30627500D02*
X76177500Y-29275000D01*
%TO.N,Net-(R418-Pad1)*%
X113440000Y-41577500D02*
X115085001Y-41577500D01*
X115085001Y-41577500D02*
X116910001Y-43402500D01*
%TO.N,Net-(R409-Pad1)*%
X117280000Y-28482499D02*
X116890001Y-28092500D01*
X116890001Y-28092500D02*
X120270001Y-28092500D01*
X117280000Y-30585000D02*
X117280000Y-28482499D01*
%TO.N,Net-(U204B--)*%
X58457500Y-25682500D02*
X60287500Y-27512500D01*
X57675000Y-25682500D02*
X56375000Y-24382500D01*
X57675000Y-25682500D02*
X58457500Y-25682500D01*
X56375000Y-24382500D02*
X56375000Y-23225000D01*
X60287500Y-27512500D02*
X61075000Y-27512500D01*
%TO.N,Net-(U201D--)*%
X20812500Y-21250000D02*
X22577500Y-19485000D01*
X20812500Y-23000000D02*
X20812500Y-21250000D01*
X22577500Y-18352500D02*
X22577500Y-19485000D01*
X21652500Y-15705000D02*
X21652500Y-17302500D01*
X22550000Y-18200000D02*
X22550000Y-18325000D01*
X22550000Y-18325000D02*
X22577500Y-18352500D01*
X21652500Y-17302500D02*
X22550000Y-18200000D01*
%TO.N,Net-(C414-Pad2)*%
X90040000Y-42200000D02*
X91997500Y-42200000D01*
X91997500Y-42200000D02*
X92487500Y-41710000D01*
%TO.N,Net-(U404A--)*%
X83880000Y-31902500D02*
X83752500Y-31775000D01*
X80870000Y-27000000D02*
X80995000Y-27125000D01*
X83880000Y-34150000D02*
X83880000Y-31902500D01*
X83752500Y-29882500D02*
X83752500Y-31775000D01*
X80995000Y-27125000D02*
X83752500Y-29882500D01*
X78007500Y-27000000D02*
X80870000Y-27000000D01*
%TO.N,Net-(C406-Pad2)*%
X88757500Y-26392500D02*
X90620000Y-28255000D01*
X88757500Y-26255000D02*
X88757500Y-26392500D01*
%TO.N,Net-(U404C--)*%
X78800000Y-40337501D02*
X78800000Y-39100000D01*
X73797500Y-39145000D02*
X75785000Y-41132500D01*
X71735000Y-39145000D02*
X71722500Y-39157500D01*
X77795001Y-41342500D02*
X78800000Y-40337501D01*
X75785000Y-41132500D02*
X75785000Y-41342500D01*
X75785000Y-41342500D02*
X77795001Y-41342500D01*
X73797500Y-39145000D02*
X71735000Y-39145000D01*
%TO.N,Net-(D205-K)*%
X32645000Y-14392501D02*
X34472500Y-14392501D01*
%TO.N,Net-(C208-Pad2)*%
X6200000Y-30987500D02*
X6267500Y-30920000D01*
X5997500Y-27592500D02*
X5997500Y-30650000D01*
X6200000Y-34290000D02*
X6200000Y-30987500D01*
X5997500Y-30650000D02*
X6267500Y-30920000D01*
%TO.N,Net-(U201C-+)*%
X18300000Y-13000000D02*
X26090000Y-13000000D01*
X17842500Y-15705000D02*
X17575000Y-15437500D01*
X18987500Y-23000000D02*
X18987500Y-21712500D01*
X17575000Y-15437500D02*
X17575000Y-13725000D01*
X26090000Y-11854999D02*
X26090000Y-13000000D01*
X26090000Y-13000000D02*
X26090000Y-13792500D01*
X26090000Y-13792500D02*
X26065000Y-13817500D01*
X17842500Y-20567500D02*
X17842500Y-15705000D01*
X17575000Y-13725000D02*
X18300000Y-13000000D01*
X18987500Y-21712500D02*
X17842500Y-20567500D01*
%TO.N,Net-(C202-Pad2)*%
X5530000Y-15327500D02*
X5492500Y-15365000D01*
X5530000Y-11965000D02*
X5530000Y-15327500D01*
X5430000Y-11865000D02*
X5530000Y-11965000D01*
X5430000Y-8527500D02*
X5430000Y-11865000D01*
%TO.N,Net-(C201-Pad2)*%
X8952500Y-9500000D02*
X8952500Y-8527500D01*
X11950000Y-10225000D02*
X11225000Y-9500000D01*
X11950000Y-14450000D02*
X11950000Y-10225000D01*
X15302500Y-13147500D02*
X13650000Y-14800000D01*
X14665001Y-8430000D02*
X14665001Y-10117501D01*
X12300000Y-14800000D02*
X11950000Y-14450000D01*
X13650000Y-14800000D02*
X12300000Y-14800000D01*
X14665001Y-10117501D02*
X15302500Y-10755000D01*
X15302500Y-10755000D02*
X15302500Y-13147500D01*
X11225000Y-9500000D02*
X8952500Y-9500000D01*
X8952500Y-10602500D02*
X8952500Y-9500000D01*
%TD*%
M02*
