%TF.GenerationSoftware,KiCad,Pcbnew,8.0.3*%
%TF.CreationDate,2024-07-17T18:03:28-06:00*%
%TF.ProjectId,VoiceBoardR4,566f6963-6542-46f6-9172-6452342e6b69,rev?*%
%TF.SameCoordinates,Original*%
%TF.FileFunction,Legend,Bot*%
%TF.FilePolarity,Positive*%
%FSLAX46Y46*%
G04 Gerber Fmt 4.6, Leading zero omitted, Abs format (unit mm)*
G04 Created by KiCad (PCBNEW 8.0.3) date 2024-07-17 18:03:28*
%MOMM*%
%LPD*%
G01*
G04 APERTURE LIST*
%ADD10C,0.150000*%
%ADD11C,0.120000*%
G04 APERTURE END LIST*
D10*
G36*
X35658478Y-3650000D02*
G01*
X35301273Y-3650000D01*
X35231053Y-3162124D01*
X34793859Y-3162124D01*
X34793859Y-3155408D01*
X34723639Y-3650000D01*
X34338956Y-3650000D01*
X34471865Y-2829344D01*
X34839043Y-2829344D01*
X35185868Y-2829344D01*
X35017951Y-1615457D01*
X35010624Y-1615457D01*
X34839043Y-2829344D01*
X34471865Y-2829344D01*
X34737683Y-1188032D01*
X35259141Y-1188032D01*
X35658478Y-3650000D01*
G37*
G36*
X34154553Y-3650000D02*
G01*
X33812002Y-3650000D01*
X33812002Y-1852983D01*
X33804675Y-1852983D01*
X33343056Y-3650000D01*
X32947383Y-3650000D01*
X32947383Y-1188032D01*
X33290544Y-1188032D01*
X33290544Y-2662037D01*
X33297260Y-2662037D01*
X33671563Y-1188032D01*
X34154553Y-1188032D01*
X34154553Y-3650000D01*
G37*
G36*
X32761758Y-3650000D02*
G01*
X32404553Y-3650000D01*
X32334333Y-3162124D01*
X31897138Y-3162124D01*
X31897138Y-3155408D01*
X31826919Y-3650000D01*
X31442236Y-3650000D01*
X31575145Y-2829344D01*
X31942323Y-2829344D01*
X32289148Y-2829344D01*
X32121231Y-1615457D01*
X32113904Y-1615457D01*
X31942323Y-2829344D01*
X31575145Y-2829344D01*
X31840963Y-1188032D01*
X32362421Y-1188032D01*
X32761758Y-3650000D01*
G37*
G36*
X31257833Y-3650000D02*
G01*
X30239340Y-3650000D01*
X30239340Y-3300122D01*
X30873150Y-3300122D01*
X30873150Y-1188032D01*
X31257833Y-1188032D01*
X31257833Y-3650000D01*
G37*
G36*
X29645733Y-1159353D02*
G01*
X29789524Y-1200949D01*
X29906748Y-1273183D01*
X29996607Y-1374837D01*
X30058305Y-1504698D01*
X30086852Y-1628078D01*
X30096458Y-1768108D01*
X30096458Y-3070533D01*
X30086852Y-3210538D01*
X30058305Y-3333848D01*
X29996607Y-3463584D01*
X29906748Y-3565097D01*
X29789524Y-3637200D01*
X29645733Y-3678704D01*
X29512107Y-3689078D01*
X29378481Y-3678704D01*
X29234690Y-3637200D01*
X29117466Y-3565097D01*
X29027607Y-3463584D01*
X28965909Y-3333848D01*
X28937362Y-3210538D01*
X28927756Y-3070533D01*
X28927756Y-1768108D01*
X28929431Y-1743684D01*
X29312438Y-1743684D01*
X29312438Y-3094958D01*
X29330003Y-3219234D01*
X29411413Y-3318218D01*
X29512107Y-3339200D01*
X29636925Y-3303079D01*
X29701057Y-3195833D01*
X29711775Y-3094958D01*
X29711775Y-1743684D01*
X29694211Y-1619407D01*
X29612801Y-1520423D01*
X29512107Y-1499441D01*
X29387289Y-1535562D01*
X29323157Y-1642808D01*
X29312438Y-1743684D01*
X28929431Y-1743684D01*
X28937362Y-1628078D01*
X28965909Y-1504698D01*
X29027607Y-1374837D01*
X29117466Y-1273183D01*
X29234690Y-1200949D01*
X29378481Y-1159353D01*
X29512107Y-1148953D01*
X29645733Y-1159353D01*
G37*
G36*
X28122976Y-3689078D02*
G01*
X27989795Y-3678690D01*
X27847560Y-3637037D01*
X27732557Y-3564483D01*
X27645109Y-3462050D01*
X27585537Y-3330757D01*
X27558165Y-3205629D01*
X27549005Y-3063206D01*
X27549005Y-2244993D01*
X28105879Y-2244993D01*
X28105879Y-2594870D01*
X27912927Y-2594870D01*
X27912927Y-3092515D01*
X27930492Y-3219126D01*
X28011901Y-3318513D01*
X28112595Y-3339200D01*
X28237413Y-3303454D01*
X28301545Y-3195402D01*
X28312264Y-3092515D01*
X28312264Y-1738799D01*
X28294699Y-1617061D01*
X28213290Y-1520028D01*
X28112595Y-1499441D01*
X27987778Y-1534876D01*
X27923646Y-1639990D01*
X27912927Y-1738799D01*
X27912927Y-1970830D01*
X27549005Y-1970830D01*
X27549005Y-1763224D01*
X27558165Y-1624805D01*
X27585537Y-1502637D01*
X27645109Y-1373815D01*
X27732557Y-1272773D01*
X27847560Y-1200841D01*
X27989795Y-1159344D01*
X28122976Y-1148953D01*
X28256156Y-1159344D01*
X28398392Y-1200841D01*
X28513394Y-1272773D01*
X28600843Y-1373815D01*
X28660415Y-1502637D01*
X28687786Y-1624805D01*
X28696946Y-1763224D01*
X28696946Y-3063206D01*
X28687786Y-3205629D01*
X28660415Y-3330757D01*
X28600843Y-3462050D01*
X28513394Y-3564483D01*
X28398392Y-3637037D01*
X28256156Y-3678690D01*
X28122976Y-3689078D01*
G37*
G36*
X26472505Y-3650000D02*
G01*
X25961427Y-3650000D01*
X25590788Y-1188032D01*
X25943719Y-1188032D01*
X26195900Y-3098011D01*
X26203227Y-3098011D01*
X26454797Y-1188032D01*
X26843754Y-1188032D01*
X26472505Y-3650000D01*
G37*
G36*
X24990465Y-1159353D02*
G01*
X25134256Y-1200949D01*
X25251479Y-1273183D01*
X25341338Y-1374837D01*
X25403036Y-1504698D01*
X25431583Y-1628078D01*
X25441189Y-1768108D01*
X25441189Y-3070533D01*
X25431583Y-3210538D01*
X25403036Y-3333848D01*
X25341338Y-3463584D01*
X25251479Y-3565097D01*
X25134256Y-3637200D01*
X24990465Y-3678704D01*
X24856838Y-3689078D01*
X24723212Y-3678704D01*
X24579421Y-3637200D01*
X24462198Y-3565097D01*
X24372339Y-3463584D01*
X24310641Y-3333848D01*
X24282094Y-3210538D01*
X24272487Y-3070533D01*
X24272487Y-1768108D01*
X24274163Y-1743684D01*
X24657170Y-1743684D01*
X24657170Y-3094958D01*
X24674734Y-3219234D01*
X24756144Y-3318218D01*
X24856838Y-3339200D01*
X24981656Y-3303079D01*
X25045788Y-3195833D01*
X25056507Y-3094958D01*
X25056507Y-1743684D01*
X25038942Y-1619407D01*
X24957533Y-1520423D01*
X24856838Y-1499441D01*
X24732021Y-1535562D01*
X24667888Y-1642808D01*
X24657170Y-1743684D01*
X24274163Y-1743684D01*
X24282094Y-1628078D01*
X24310641Y-1504698D01*
X24372339Y-1374837D01*
X24462198Y-1273183D01*
X24579421Y-1200949D01*
X24723212Y-1159353D01*
X24856838Y-1148953D01*
X24990465Y-1159353D01*
G37*
G36*
X24013590Y-3650000D02*
G01*
X23628907Y-3650000D01*
X23628907Y-1188032D01*
X24013590Y-1188032D01*
X24013590Y-3650000D01*
G37*
G36*
X22799703Y-3689078D02*
G01*
X22668740Y-3678731D01*
X22528510Y-3637512D01*
X22414805Y-3566273D01*
X22328102Y-3466523D01*
X22268875Y-3339773D01*
X22241596Y-3219946D01*
X22232449Y-3084577D01*
X22232449Y-2734089D01*
X22596371Y-2734089D01*
X22596371Y-3112665D01*
X22617878Y-3237448D01*
X22710487Y-3326731D01*
X22789323Y-3339200D01*
X22908347Y-3305344D01*
X22973803Y-3194111D01*
X22981664Y-3112665D01*
X22981664Y-1729640D01*
X22960298Y-1604007D01*
X22868062Y-1512483D01*
X22789323Y-1499441D01*
X22670078Y-1534621D01*
X22604288Y-1647856D01*
X22596371Y-1729640D01*
X22596371Y-2016015D01*
X22232449Y-2016015D01*
X22232449Y-1754064D01*
X22241596Y-1618669D01*
X22268875Y-1498773D01*
X22328102Y-1371898D01*
X22414805Y-1272006D01*
X22528510Y-1200637D01*
X22668740Y-1159326D01*
X22799703Y-1148953D01*
X22930666Y-1159326D01*
X23070896Y-1200637D01*
X23184600Y-1272006D01*
X23271303Y-1371898D01*
X23330530Y-1498773D01*
X23357810Y-1618669D01*
X23366957Y-1754064D01*
X23366957Y-3084577D01*
X23357810Y-3219946D01*
X23330530Y-3339773D01*
X23271303Y-3466523D01*
X23184600Y-3566273D01*
X23070896Y-3637512D01*
X22930666Y-3678731D01*
X22799703Y-3689078D01*
G37*
G36*
X22003471Y-3650000D02*
G01*
X20953838Y-3650000D01*
X20953838Y-3300122D01*
X21618789Y-3300122D01*
X21618789Y-2554570D01*
X21090003Y-2554570D01*
X21090003Y-2204082D01*
X21618789Y-2204082D01*
X21618789Y-1538520D01*
X20953838Y-1538520D01*
X20953838Y-1188032D01*
X22003471Y-1188032D01*
X22003471Y-3650000D01*
G37*
G36*
X20174092Y-3650000D02*
G01*
X19568981Y-3650000D01*
X19433224Y-3640554D01*
X19288252Y-3602545D01*
X19171049Y-3536047D01*
X19081937Y-3441733D01*
X19021237Y-3320272D01*
X18989272Y-3172335D01*
X18984019Y-3071144D01*
X18984019Y-2862927D01*
X18984888Y-2849494D01*
X19369312Y-2849494D01*
X19369312Y-3060764D01*
X19385731Y-3185696D01*
X19465310Y-3281010D01*
X19568981Y-3300122D01*
X19789410Y-3300122D01*
X19789410Y-2554570D01*
X19617829Y-2554570D01*
X19493527Y-2572900D01*
X19401738Y-2656895D01*
X19371268Y-2790018D01*
X19369312Y-2849494D01*
X18984888Y-2849494D01*
X18992822Y-2726830D01*
X19026996Y-2589973D01*
X19089653Y-2478882D01*
X19183669Y-2395819D01*
X19271615Y-2354902D01*
X19271615Y-2348185D01*
X19160399Y-2278547D01*
X19083014Y-2174391D01*
X19041749Y-2054263D01*
X19025141Y-1929303D01*
X19023098Y-1859089D01*
X19023098Y-1797418D01*
X19407780Y-1797418D01*
X19407780Y-1937857D01*
X19423666Y-2064463D01*
X19493610Y-2167205D01*
X19612351Y-2203306D01*
X19638590Y-2204082D01*
X19789410Y-2204082D01*
X19789410Y-1538520D01*
X19603785Y-1538520D01*
X19481930Y-1573103D01*
X19419258Y-1681230D01*
X19407780Y-1797418D01*
X19023098Y-1797418D01*
X19023098Y-1757728D01*
X19031224Y-1622978D01*
X19064947Y-1480475D01*
X19126079Y-1366512D01*
X19215933Y-1280797D01*
X19335824Y-1223037D01*
X19487065Y-1192937D01*
X19593405Y-1188032D01*
X20174092Y-1188032D01*
X20174092Y-3650000D01*
G37*
G36*
X18337290Y-1159353D02*
G01*
X18481081Y-1200949D01*
X18598304Y-1273183D01*
X18688163Y-1374837D01*
X18749861Y-1504698D01*
X18778408Y-1628078D01*
X18788014Y-1768108D01*
X18788014Y-3070533D01*
X18778408Y-3210538D01*
X18749861Y-3333848D01*
X18688163Y-3463584D01*
X18598304Y-3565097D01*
X18481081Y-3637200D01*
X18337290Y-3678704D01*
X18203663Y-3689078D01*
X18070037Y-3678704D01*
X17926246Y-3637200D01*
X17809022Y-3565097D01*
X17719163Y-3463584D01*
X17657466Y-3333848D01*
X17628918Y-3210538D01*
X17619312Y-3070533D01*
X17619312Y-1768108D01*
X17620987Y-1743684D01*
X18003995Y-1743684D01*
X18003995Y-3094958D01*
X18021559Y-3219234D01*
X18102969Y-3318218D01*
X18203663Y-3339200D01*
X18328481Y-3303079D01*
X18392613Y-3195833D01*
X18403332Y-3094958D01*
X18403332Y-1743684D01*
X18385767Y-1619407D01*
X18304357Y-1520423D01*
X18203663Y-1499441D01*
X18078846Y-1535562D01*
X18014713Y-1642808D01*
X18003995Y-1743684D01*
X17620987Y-1743684D01*
X17628918Y-1628078D01*
X17657466Y-1504698D01*
X17719163Y-1374837D01*
X17809022Y-1273183D01*
X17926246Y-1200949D01*
X18070037Y-1159353D01*
X18203663Y-1148953D01*
X18337290Y-1159353D01*
G37*
G36*
X17469713Y-3650000D02*
G01*
X17112508Y-3650000D01*
X17042288Y-3162124D01*
X16605094Y-3162124D01*
X16605094Y-3155408D01*
X16534874Y-3650000D01*
X16150191Y-3650000D01*
X16283100Y-2829344D01*
X16650279Y-2829344D01*
X16997103Y-2829344D01*
X16829187Y-1615457D01*
X16821859Y-1615457D01*
X16650279Y-2829344D01*
X16283100Y-2829344D01*
X16548918Y-1188032D01*
X17070376Y-1188032D01*
X17469713Y-3650000D01*
G37*
G36*
X15965788Y-3650000D02*
G01*
X15581106Y-3650000D01*
X15581106Y-2593649D01*
X15447993Y-2593649D01*
X15325103Y-2612989D01*
X15236910Y-2700058D01*
X15208578Y-2836133D01*
X15206803Y-2896510D01*
X15206803Y-3347138D01*
X15204275Y-3470367D01*
X15189072Y-3592350D01*
X15171388Y-3650000D01*
X14779378Y-3650000D01*
X14812490Y-3528924D01*
X14821123Y-3404711D01*
X14821510Y-3350802D01*
X14821510Y-2917271D01*
X14826371Y-2794124D01*
X14846509Y-2665671D01*
X14893055Y-2543856D01*
X14981766Y-2443784D01*
X15076744Y-2397644D01*
X15076744Y-2390317D01*
X14965308Y-2320822D01*
X14886845Y-2216752D01*
X14844518Y-2097328D01*
X14827307Y-1973894D01*
X14825174Y-1904884D01*
X14825174Y-1791922D01*
X15209856Y-1791922D01*
X15209856Y-1982431D01*
X15225837Y-2106633D01*
X15296076Y-2207191D01*
X15415031Y-2242406D01*
X15441277Y-2243161D01*
X15581106Y-2243161D01*
X15581106Y-1538520D01*
X15405861Y-1538520D01*
X15284006Y-1572330D01*
X15221334Y-1678139D01*
X15209856Y-1791922D01*
X14825174Y-1791922D01*
X14825174Y-1753454D01*
X14833325Y-1620115D01*
X14867127Y-1478888D01*
X14928352Y-1365751D01*
X15018271Y-1280511D01*
X15138158Y-1222970D01*
X15289283Y-1192933D01*
X15395481Y-1188032D01*
X15965788Y-1188032D01*
X15965788Y-3650000D01*
G37*
G36*
X14556507Y-3650000D02*
G01*
X13968492Y-3650000D01*
X13833383Y-3640074D01*
X13690148Y-3600149D01*
X13575284Y-3530342D01*
X13488651Y-3431393D01*
X13430108Y-3304043D01*
X13403406Y-3182211D01*
X13394521Y-3043056D01*
X13394521Y-1795586D01*
X13395651Y-1777878D01*
X13779815Y-1777878D01*
X13779815Y-3060764D01*
X13796673Y-3183566D01*
X13875975Y-3280026D01*
X13975819Y-3300122D01*
X14171824Y-3300122D01*
X14171824Y-1538520D01*
X13975819Y-1538520D01*
X13852325Y-1573057D01*
X13787386Y-1690261D01*
X13779815Y-1777878D01*
X13395651Y-1777878D01*
X13403406Y-1656404D01*
X13430108Y-1534503D01*
X13488651Y-1407028D01*
X13575284Y-1307937D01*
X13690148Y-1237999D01*
X13833383Y-1197984D01*
X13968492Y-1188032D01*
X14556507Y-1188032D01*
X14556507Y-3650000D01*
G37*
X26816792Y-5284875D02*
X27150125Y-4808684D01*
X27388220Y-5284875D02*
X27388220Y-4284875D01*
X27388220Y-4284875D02*
X27007268Y-4284875D01*
X27007268Y-4284875D02*
X26912030Y-4332494D01*
X26912030Y-4332494D02*
X26864411Y-4380113D01*
X26864411Y-4380113D02*
X26816792Y-4475351D01*
X26816792Y-4475351D02*
X26816792Y-4618208D01*
X26816792Y-4618208D02*
X26864411Y-4713446D01*
X26864411Y-4713446D02*
X26912030Y-4761065D01*
X26912030Y-4761065D02*
X27007268Y-4808684D01*
X27007268Y-4808684D02*
X27388220Y-4808684D01*
X26007268Y-5237256D02*
X26102506Y-5284875D01*
X26102506Y-5284875D02*
X26292982Y-5284875D01*
X26292982Y-5284875D02*
X26388220Y-5237256D01*
X26388220Y-5237256D02*
X26435839Y-5142017D01*
X26435839Y-5142017D02*
X26435839Y-4761065D01*
X26435839Y-4761065D02*
X26388220Y-4665827D01*
X26388220Y-4665827D02*
X26292982Y-4618208D01*
X26292982Y-4618208D02*
X26102506Y-4618208D01*
X26102506Y-4618208D02*
X26007268Y-4665827D01*
X26007268Y-4665827D02*
X25959649Y-4761065D01*
X25959649Y-4761065D02*
X25959649Y-4856303D01*
X25959649Y-4856303D02*
X26435839Y-4951541D01*
X25626315Y-4618208D02*
X25388220Y-5284875D01*
X25388220Y-5284875D02*
X25150125Y-4618208D01*
X24769172Y-5189636D02*
X24721553Y-5237256D01*
X24721553Y-5237256D02*
X24769172Y-5284875D01*
X24769172Y-5284875D02*
X24816791Y-5237256D01*
X24816791Y-5237256D02*
X24769172Y-5189636D01*
X24769172Y-5189636D02*
X24769172Y-5284875D01*
X23102506Y-4618208D02*
X23102506Y-5284875D01*
X23340601Y-4237256D02*
X23578696Y-4951541D01*
X23578696Y-4951541D02*
X22959649Y-4951541D01*
X22578696Y-4903922D02*
X21816792Y-4903922D01*
X20292982Y-4284875D02*
X20292982Y-4999160D01*
X20292982Y-4999160D02*
X20340601Y-5142017D01*
X20340601Y-5142017D02*
X20435839Y-5237256D01*
X20435839Y-5237256D02*
X20578696Y-5284875D01*
X20578696Y-5284875D02*
X20673934Y-5284875D01*
X19388220Y-4618208D02*
X19388220Y-5284875D01*
X19816791Y-4618208D02*
X19816791Y-5142017D01*
X19816791Y-5142017D02*
X19769172Y-5237256D01*
X19769172Y-5237256D02*
X19673934Y-5284875D01*
X19673934Y-5284875D02*
X19531077Y-5284875D01*
X19531077Y-5284875D02*
X19435839Y-5237256D01*
X19435839Y-5237256D02*
X19388220Y-5189636D01*
X18769172Y-5284875D02*
X18864410Y-5237256D01*
X18864410Y-5237256D02*
X18912029Y-5142017D01*
X18912029Y-5142017D02*
X18912029Y-4284875D01*
X18483457Y-4618208D02*
X18245362Y-5284875D01*
X18007267Y-4618208D02*
X18245362Y-5284875D01*
X18245362Y-5284875D02*
X18340600Y-5522970D01*
X18340600Y-5522970D02*
X18388219Y-5570589D01*
X18388219Y-5570589D02*
X18483457Y-5618208D01*
X16912028Y-4380113D02*
X16864409Y-4332494D01*
X16864409Y-4332494D02*
X16769171Y-4284875D01*
X16769171Y-4284875D02*
X16531076Y-4284875D01*
X16531076Y-4284875D02*
X16435838Y-4332494D01*
X16435838Y-4332494D02*
X16388219Y-4380113D01*
X16388219Y-4380113D02*
X16340600Y-4475351D01*
X16340600Y-4475351D02*
X16340600Y-4570589D01*
X16340600Y-4570589D02*
X16388219Y-4713446D01*
X16388219Y-4713446D02*
X16959647Y-5284875D01*
X16959647Y-5284875D02*
X16340600Y-5284875D01*
X15721552Y-4284875D02*
X15626314Y-4284875D01*
X15626314Y-4284875D02*
X15531076Y-4332494D01*
X15531076Y-4332494D02*
X15483457Y-4380113D01*
X15483457Y-4380113D02*
X15435838Y-4475351D01*
X15435838Y-4475351D02*
X15388219Y-4665827D01*
X15388219Y-4665827D02*
X15388219Y-4903922D01*
X15388219Y-4903922D02*
X15435838Y-5094398D01*
X15435838Y-5094398D02*
X15483457Y-5189636D01*
X15483457Y-5189636D02*
X15531076Y-5237256D01*
X15531076Y-5237256D02*
X15626314Y-5284875D01*
X15626314Y-5284875D02*
X15721552Y-5284875D01*
X15721552Y-5284875D02*
X15816790Y-5237256D01*
X15816790Y-5237256D02*
X15864409Y-5189636D01*
X15864409Y-5189636D02*
X15912028Y-5094398D01*
X15912028Y-5094398D02*
X15959647Y-4903922D01*
X15959647Y-4903922D02*
X15959647Y-4665827D01*
X15959647Y-4665827D02*
X15912028Y-4475351D01*
X15912028Y-4475351D02*
X15864409Y-4380113D01*
X15864409Y-4380113D02*
X15816790Y-4332494D01*
X15816790Y-4332494D02*
X15721552Y-4284875D01*
X15007266Y-4380113D02*
X14959647Y-4332494D01*
X14959647Y-4332494D02*
X14864409Y-4284875D01*
X14864409Y-4284875D02*
X14626314Y-4284875D01*
X14626314Y-4284875D02*
X14531076Y-4332494D01*
X14531076Y-4332494D02*
X14483457Y-4380113D01*
X14483457Y-4380113D02*
X14435838Y-4475351D01*
X14435838Y-4475351D02*
X14435838Y-4570589D01*
X14435838Y-4570589D02*
X14483457Y-4713446D01*
X14483457Y-4713446D02*
X15054885Y-5284875D01*
X15054885Y-5284875D02*
X14435838Y-5284875D01*
X13578695Y-4618208D02*
X13578695Y-5284875D01*
X13816790Y-4237256D02*
X14054885Y-4951541D01*
X14054885Y-4951541D02*
X13435838Y-4951541D01*
X27388220Y-6894819D02*
X27388220Y-5894819D01*
X27388220Y-6371009D02*
X26816792Y-6371009D01*
X26816792Y-6894819D02*
X26816792Y-5894819D01*
X25912030Y-6894819D02*
X25912030Y-6371009D01*
X25912030Y-6371009D02*
X25959649Y-6275771D01*
X25959649Y-6275771D02*
X26054887Y-6228152D01*
X26054887Y-6228152D02*
X26245363Y-6228152D01*
X26245363Y-6228152D02*
X26340601Y-6275771D01*
X25912030Y-6847200D02*
X26007268Y-6894819D01*
X26007268Y-6894819D02*
X26245363Y-6894819D01*
X26245363Y-6894819D02*
X26340601Y-6847200D01*
X26340601Y-6847200D02*
X26388220Y-6751961D01*
X26388220Y-6751961D02*
X26388220Y-6656723D01*
X26388220Y-6656723D02*
X26340601Y-6561485D01*
X26340601Y-6561485D02*
X26245363Y-6513866D01*
X26245363Y-6513866D02*
X26007268Y-6513866D01*
X26007268Y-6513866D02*
X25912030Y-6466247D01*
X25531077Y-6228152D02*
X25292982Y-6894819D01*
X25054887Y-6228152D02*
X25292982Y-6894819D01*
X25292982Y-6894819D02*
X25388220Y-7132914D01*
X25388220Y-7132914D02*
X25435839Y-7180533D01*
X25435839Y-7180533D02*
X25531077Y-7228152D01*
X24245363Y-6894819D02*
X24245363Y-5894819D01*
X24245363Y-6847200D02*
X24340601Y-6894819D01*
X24340601Y-6894819D02*
X24531077Y-6894819D01*
X24531077Y-6894819D02*
X24626315Y-6847200D01*
X24626315Y-6847200D02*
X24673934Y-6799580D01*
X24673934Y-6799580D02*
X24721553Y-6704342D01*
X24721553Y-6704342D02*
X24721553Y-6418628D01*
X24721553Y-6418628D02*
X24673934Y-6323390D01*
X24673934Y-6323390D02*
X24626315Y-6275771D01*
X24626315Y-6275771D02*
X24531077Y-6228152D01*
X24531077Y-6228152D02*
X24340601Y-6228152D01*
X24340601Y-6228152D02*
X24245363Y-6275771D01*
X23388220Y-6847200D02*
X23483458Y-6894819D01*
X23483458Y-6894819D02*
X23673934Y-6894819D01*
X23673934Y-6894819D02*
X23769172Y-6847200D01*
X23769172Y-6847200D02*
X23816791Y-6751961D01*
X23816791Y-6751961D02*
X23816791Y-6371009D01*
X23816791Y-6371009D02*
X23769172Y-6275771D01*
X23769172Y-6275771D02*
X23673934Y-6228152D01*
X23673934Y-6228152D02*
X23483458Y-6228152D01*
X23483458Y-6228152D02*
X23388220Y-6275771D01*
X23388220Y-6275771D02*
X23340601Y-6371009D01*
X23340601Y-6371009D02*
X23340601Y-6466247D01*
X23340601Y-6466247D02*
X23816791Y-6561485D01*
X22912029Y-6228152D02*
X22912029Y-6894819D01*
X22912029Y-6323390D02*
X22864410Y-6275771D01*
X22864410Y-6275771D02*
X22769172Y-6228152D01*
X22769172Y-6228152D02*
X22626315Y-6228152D01*
X22626315Y-6228152D02*
X22531077Y-6275771D01*
X22531077Y-6275771D02*
X22483458Y-6371009D01*
X22483458Y-6371009D02*
X22483458Y-6894819D01*
X21292981Y-6847200D02*
X21150124Y-6894819D01*
X21150124Y-6894819D02*
X20912029Y-6894819D01*
X20912029Y-6894819D02*
X20816791Y-6847200D01*
X20816791Y-6847200D02*
X20769172Y-6799580D01*
X20769172Y-6799580D02*
X20721553Y-6704342D01*
X20721553Y-6704342D02*
X20721553Y-6609104D01*
X20721553Y-6609104D02*
X20769172Y-6513866D01*
X20769172Y-6513866D02*
X20816791Y-6466247D01*
X20816791Y-6466247D02*
X20912029Y-6418628D01*
X20912029Y-6418628D02*
X21102505Y-6371009D01*
X21102505Y-6371009D02*
X21197743Y-6323390D01*
X21197743Y-6323390D02*
X21245362Y-6275771D01*
X21245362Y-6275771D02*
X21292981Y-6180533D01*
X21292981Y-6180533D02*
X21292981Y-6085295D01*
X21292981Y-6085295D02*
X21245362Y-5990057D01*
X21245362Y-5990057D02*
X21197743Y-5942438D01*
X21197743Y-5942438D02*
X21102505Y-5894819D01*
X21102505Y-5894819D02*
X20864410Y-5894819D01*
X20864410Y-5894819D02*
X20721553Y-5942438D01*
X19912029Y-6847200D02*
X20007267Y-6894819D01*
X20007267Y-6894819D02*
X20197743Y-6894819D01*
X20197743Y-6894819D02*
X20292981Y-6847200D01*
X20292981Y-6847200D02*
X20340600Y-6751961D01*
X20340600Y-6751961D02*
X20340600Y-6371009D01*
X20340600Y-6371009D02*
X20292981Y-6275771D01*
X20292981Y-6275771D02*
X20197743Y-6228152D01*
X20197743Y-6228152D02*
X20007267Y-6228152D01*
X20007267Y-6228152D02*
X19912029Y-6275771D01*
X19912029Y-6275771D02*
X19864410Y-6371009D01*
X19864410Y-6371009D02*
X19864410Y-6466247D01*
X19864410Y-6466247D02*
X20340600Y-6561485D01*
X19578695Y-6228152D02*
X19197743Y-6228152D01*
X19435838Y-5894819D02*
X19435838Y-6751961D01*
X19435838Y-6751961D02*
X19388219Y-6847200D01*
X19388219Y-6847200D02*
X19292981Y-6894819D01*
X19292981Y-6894819D02*
X19197743Y-6894819D01*
X18721552Y-6894819D02*
X18816790Y-6847200D01*
X18816790Y-6847200D02*
X18864409Y-6751961D01*
X18864409Y-6751961D02*
X18864409Y-5894819D01*
X18340599Y-6894819D02*
X18340599Y-6228152D01*
X18340599Y-5894819D02*
X18388218Y-5942438D01*
X18388218Y-5942438D02*
X18340599Y-5990057D01*
X18340599Y-5990057D02*
X18292980Y-5942438D01*
X18292980Y-5942438D02*
X18340599Y-5894819D01*
X18340599Y-5894819D02*
X18340599Y-5990057D01*
X17864409Y-6894819D02*
X17864409Y-5894819D01*
X17769171Y-6513866D02*
X17483457Y-6894819D01*
X17483457Y-6228152D02*
X17864409Y-6609104D01*
X73239285Y-10554818D02*
X73239285Y-11364341D01*
X73239285Y-11364341D02*
X73191666Y-11459579D01*
X73191666Y-11459579D02*
X73144047Y-11507199D01*
X73144047Y-11507199D02*
X73048809Y-11554818D01*
X73048809Y-11554818D02*
X72858333Y-11554818D01*
X72858333Y-11554818D02*
X72763095Y-11507199D01*
X72763095Y-11507199D02*
X72715476Y-11459579D01*
X72715476Y-11459579D02*
X72667857Y-11364341D01*
X72667857Y-11364341D02*
X72667857Y-10554818D01*
X71667857Y-11554818D02*
X72239285Y-11554818D01*
X71953571Y-11554818D02*
X71953571Y-10554818D01*
X71953571Y-10554818D02*
X72048809Y-10697675D01*
X72048809Y-10697675D02*
X72144047Y-10792913D01*
X72144047Y-10792913D02*
X72239285Y-10840532D01*
X71048809Y-10554818D02*
X70953571Y-10554818D01*
X70953571Y-10554818D02*
X70858333Y-10602437D01*
X70858333Y-10602437D02*
X70810714Y-10650056D01*
X70810714Y-10650056D02*
X70763095Y-10745294D01*
X70763095Y-10745294D02*
X70715476Y-10935770D01*
X70715476Y-10935770D02*
X70715476Y-11173865D01*
X70715476Y-11173865D02*
X70763095Y-11364341D01*
X70763095Y-11364341D02*
X70810714Y-11459579D01*
X70810714Y-11459579D02*
X70858333Y-11507199D01*
X70858333Y-11507199D02*
X70953571Y-11554818D01*
X70953571Y-11554818D02*
X71048809Y-11554818D01*
X71048809Y-11554818D02*
X71144047Y-11507199D01*
X71144047Y-11507199D02*
X71191666Y-11459579D01*
X71191666Y-11459579D02*
X71239285Y-11364341D01*
X71239285Y-11364341D02*
X71286904Y-11173865D01*
X71286904Y-11173865D02*
X71286904Y-10935770D01*
X71286904Y-10935770D02*
X71239285Y-10745294D01*
X71239285Y-10745294D02*
X71191666Y-10650056D01*
X71191666Y-10650056D02*
X71144047Y-10602437D01*
X71144047Y-10602437D02*
X71048809Y-10554818D01*
X69763095Y-11554818D02*
X70334523Y-11554818D01*
X70048809Y-11554818D02*
X70048809Y-10554818D01*
X70048809Y-10554818D02*
X70144047Y-10697675D01*
X70144047Y-10697675D02*
X70239285Y-10792913D01*
X70239285Y-10792913D02*
X70334523Y-10840532D01*
X66894047Y-14104580D02*
X66941666Y-14152200D01*
X66941666Y-14152200D02*
X67084523Y-14199819D01*
X67084523Y-14199819D02*
X67179761Y-14199819D01*
X67179761Y-14199819D02*
X67322618Y-14152200D01*
X67322618Y-14152200D02*
X67417856Y-14056961D01*
X67417856Y-14056961D02*
X67465475Y-13961723D01*
X67465475Y-13961723D02*
X67513094Y-13771247D01*
X67513094Y-13771247D02*
X67513094Y-13628390D01*
X67513094Y-13628390D02*
X67465475Y-13437914D01*
X67465475Y-13437914D02*
X67417856Y-13342676D01*
X67417856Y-13342676D02*
X67322618Y-13247438D01*
X67322618Y-13247438D02*
X67179761Y-13199819D01*
X67179761Y-13199819D02*
X67084523Y-13199819D01*
X67084523Y-13199819D02*
X66941666Y-13247438D01*
X66941666Y-13247438D02*
X66894047Y-13295057D01*
X65941666Y-14199819D02*
X66513094Y-14199819D01*
X66227380Y-14199819D02*
X66227380Y-13199819D01*
X66227380Y-13199819D02*
X66322618Y-13342676D01*
X66322618Y-13342676D02*
X66417856Y-13437914D01*
X66417856Y-13437914D02*
X66513094Y-13485533D01*
X65322618Y-13199819D02*
X65227380Y-13199819D01*
X65227380Y-13199819D02*
X65132142Y-13247438D01*
X65132142Y-13247438D02*
X65084523Y-13295057D01*
X65084523Y-13295057D02*
X65036904Y-13390295D01*
X65036904Y-13390295D02*
X64989285Y-13580771D01*
X64989285Y-13580771D02*
X64989285Y-13818866D01*
X64989285Y-13818866D02*
X65036904Y-14009342D01*
X65036904Y-14009342D02*
X65084523Y-14104580D01*
X65084523Y-14104580D02*
X65132142Y-14152200D01*
X65132142Y-14152200D02*
X65227380Y-14199819D01*
X65227380Y-14199819D02*
X65322618Y-14199819D01*
X65322618Y-14199819D02*
X65417856Y-14152200D01*
X65417856Y-14152200D02*
X65465475Y-14104580D01*
X65465475Y-14104580D02*
X65513094Y-14009342D01*
X65513094Y-14009342D02*
X65560713Y-13818866D01*
X65560713Y-13818866D02*
X65560713Y-13580771D01*
X65560713Y-13580771D02*
X65513094Y-13390295D01*
X65513094Y-13390295D02*
X65465475Y-13295057D01*
X65465475Y-13295057D02*
X65417856Y-13247438D01*
X65417856Y-13247438D02*
X65322618Y-13199819D01*
X64655951Y-13199819D02*
X64036904Y-13199819D01*
X64036904Y-13199819D02*
X64370237Y-13580771D01*
X64370237Y-13580771D02*
X64227380Y-13580771D01*
X64227380Y-13580771D02*
X64132142Y-13628390D01*
X64132142Y-13628390D02*
X64084523Y-13676009D01*
X64084523Y-13676009D02*
X64036904Y-13771247D01*
X64036904Y-13771247D02*
X64036904Y-14009342D01*
X64036904Y-14009342D02*
X64084523Y-14104580D01*
X64084523Y-14104580D02*
X64132142Y-14152200D01*
X64132142Y-14152200D02*
X64227380Y-14199819D01*
X64227380Y-14199819D02*
X64513094Y-14199819D01*
X64513094Y-14199819D02*
X64608332Y-14152200D01*
X64608332Y-14152200D02*
X64655951Y-14104580D01*
X66881546Y-4704580D02*
X66929165Y-4752200D01*
X66929165Y-4752200D02*
X67072022Y-4799819D01*
X67072022Y-4799819D02*
X67167260Y-4799819D01*
X67167260Y-4799819D02*
X67310117Y-4752200D01*
X67310117Y-4752200D02*
X67405355Y-4656961D01*
X67405355Y-4656961D02*
X67452974Y-4561723D01*
X67452974Y-4561723D02*
X67500593Y-4371247D01*
X67500593Y-4371247D02*
X67500593Y-4228390D01*
X67500593Y-4228390D02*
X67452974Y-4037914D01*
X67452974Y-4037914D02*
X67405355Y-3942676D01*
X67405355Y-3942676D02*
X67310117Y-3847438D01*
X67310117Y-3847438D02*
X67167260Y-3799819D01*
X67167260Y-3799819D02*
X67072022Y-3799819D01*
X67072022Y-3799819D02*
X66929165Y-3847438D01*
X66929165Y-3847438D02*
X66881546Y-3895057D01*
X65929165Y-4799819D02*
X66500593Y-4799819D01*
X66214879Y-4799819D02*
X66214879Y-3799819D01*
X66214879Y-3799819D02*
X66310117Y-3942676D01*
X66310117Y-3942676D02*
X66405355Y-4037914D01*
X66405355Y-4037914D02*
X66500593Y-4085533D01*
X65310117Y-3799819D02*
X65214879Y-3799819D01*
X65214879Y-3799819D02*
X65119641Y-3847438D01*
X65119641Y-3847438D02*
X65072022Y-3895057D01*
X65072022Y-3895057D02*
X65024403Y-3990295D01*
X65024403Y-3990295D02*
X64976784Y-4180771D01*
X64976784Y-4180771D02*
X64976784Y-4418866D01*
X64976784Y-4418866D02*
X65024403Y-4609342D01*
X65024403Y-4609342D02*
X65072022Y-4704580D01*
X65072022Y-4704580D02*
X65119641Y-4752200D01*
X65119641Y-4752200D02*
X65214879Y-4799819D01*
X65214879Y-4799819D02*
X65310117Y-4799819D01*
X65310117Y-4799819D02*
X65405355Y-4752200D01*
X65405355Y-4752200D02*
X65452974Y-4704580D01*
X65452974Y-4704580D02*
X65500593Y-4609342D01*
X65500593Y-4609342D02*
X65548212Y-4418866D01*
X65548212Y-4418866D02*
X65548212Y-4180771D01*
X65548212Y-4180771D02*
X65500593Y-3990295D01*
X65500593Y-3990295D02*
X65452974Y-3895057D01*
X65452974Y-3895057D02*
X65405355Y-3847438D01*
X65405355Y-3847438D02*
X65310117Y-3799819D01*
X64024403Y-4799819D02*
X64595831Y-4799819D01*
X64310117Y-4799819D02*
X64310117Y-3799819D01*
X64310117Y-3799819D02*
X64405355Y-3942676D01*
X64405355Y-3942676D02*
X64500593Y-4037914D01*
X64500593Y-4037914D02*
X64595831Y-4085533D01*
X76481546Y-13664579D02*
X76529165Y-13712199D01*
X76529165Y-13712199D02*
X76672022Y-13759818D01*
X76672022Y-13759818D02*
X76767260Y-13759818D01*
X76767260Y-13759818D02*
X76910117Y-13712199D01*
X76910117Y-13712199D02*
X77005355Y-13616960D01*
X77005355Y-13616960D02*
X77052974Y-13521722D01*
X77052974Y-13521722D02*
X77100593Y-13331246D01*
X77100593Y-13331246D02*
X77100593Y-13188389D01*
X77100593Y-13188389D02*
X77052974Y-12997913D01*
X77052974Y-12997913D02*
X77005355Y-12902675D01*
X77005355Y-12902675D02*
X76910117Y-12807437D01*
X76910117Y-12807437D02*
X76767260Y-12759818D01*
X76767260Y-12759818D02*
X76672022Y-12759818D01*
X76672022Y-12759818D02*
X76529165Y-12807437D01*
X76529165Y-12807437D02*
X76481546Y-12855056D01*
X75529165Y-13759818D02*
X76100593Y-13759818D01*
X75814879Y-13759818D02*
X75814879Y-12759818D01*
X75814879Y-12759818D02*
X75910117Y-12902675D01*
X75910117Y-12902675D02*
X76005355Y-12997913D01*
X76005355Y-12997913D02*
X76100593Y-13045532D01*
X74910117Y-12759818D02*
X74814879Y-12759818D01*
X74814879Y-12759818D02*
X74719641Y-12807437D01*
X74719641Y-12807437D02*
X74672022Y-12855056D01*
X74672022Y-12855056D02*
X74624403Y-12950294D01*
X74624403Y-12950294D02*
X74576784Y-13140770D01*
X74576784Y-13140770D02*
X74576784Y-13378865D01*
X74576784Y-13378865D02*
X74624403Y-13569341D01*
X74624403Y-13569341D02*
X74672022Y-13664579D01*
X74672022Y-13664579D02*
X74719641Y-13712199D01*
X74719641Y-13712199D02*
X74814879Y-13759818D01*
X74814879Y-13759818D02*
X74910117Y-13759818D01*
X74910117Y-13759818D02*
X75005355Y-13712199D01*
X75005355Y-13712199D02*
X75052974Y-13664579D01*
X75052974Y-13664579D02*
X75100593Y-13569341D01*
X75100593Y-13569341D02*
X75148212Y-13378865D01*
X75148212Y-13378865D02*
X75148212Y-13140770D01*
X75148212Y-13140770D02*
X75100593Y-12950294D01*
X75100593Y-12950294D02*
X75052974Y-12855056D01*
X75052974Y-12855056D02*
X75005355Y-12807437D01*
X75005355Y-12807437D02*
X74910117Y-12759818D01*
X74195831Y-12855056D02*
X74148212Y-12807437D01*
X74148212Y-12807437D02*
X74052974Y-12759818D01*
X74052974Y-12759818D02*
X73814879Y-12759818D01*
X73814879Y-12759818D02*
X73719641Y-12807437D01*
X73719641Y-12807437D02*
X73672022Y-12855056D01*
X73672022Y-12855056D02*
X73624403Y-12950294D01*
X73624403Y-12950294D02*
X73624403Y-13045532D01*
X73624403Y-13045532D02*
X73672022Y-13188389D01*
X73672022Y-13188389D02*
X74243450Y-13759818D01*
X74243450Y-13759818D02*
X73624403Y-13759818D01*
X73214285Y-19954818D02*
X73214285Y-20764341D01*
X73214285Y-20764341D02*
X73166666Y-20859579D01*
X73166666Y-20859579D02*
X73119047Y-20907199D01*
X73119047Y-20907199D02*
X73023809Y-20954818D01*
X73023809Y-20954818D02*
X72833333Y-20954818D01*
X72833333Y-20954818D02*
X72738095Y-20907199D01*
X72738095Y-20907199D02*
X72690476Y-20859579D01*
X72690476Y-20859579D02*
X72642857Y-20764341D01*
X72642857Y-20764341D02*
X72642857Y-19954818D01*
X71642857Y-20954818D02*
X72214285Y-20954818D01*
X71928571Y-20954818D02*
X71928571Y-19954818D01*
X71928571Y-19954818D02*
X72023809Y-20097675D01*
X72023809Y-20097675D02*
X72119047Y-20192913D01*
X72119047Y-20192913D02*
X72214285Y-20240532D01*
X71023809Y-19954818D02*
X70928571Y-19954818D01*
X70928571Y-19954818D02*
X70833333Y-20002437D01*
X70833333Y-20002437D02*
X70785714Y-20050056D01*
X70785714Y-20050056D02*
X70738095Y-20145294D01*
X70738095Y-20145294D02*
X70690476Y-20335770D01*
X70690476Y-20335770D02*
X70690476Y-20573865D01*
X70690476Y-20573865D02*
X70738095Y-20764341D01*
X70738095Y-20764341D02*
X70785714Y-20859579D01*
X70785714Y-20859579D02*
X70833333Y-20907199D01*
X70833333Y-20907199D02*
X70928571Y-20954818D01*
X70928571Y-20954818D02*
X71023809Y-20954818D01*
X71023809Y-20954818D02*
X71119047Y-20907199D01*
X71119047Y-20907199D02*
X71166666Y-20859579D01*
X71166666Y-20859579D02*
X71214285Y-20764341D01*
X71214285Y-20764341D02*
X71261904Y-20573865D01*
X71261904Y-20573865D02*
X71261904Y-20335770D01*
X71261904Y-20335770D02*
X71214285Y-20145294D01*
X71214285Y-20145294D02*
X71166666Y-20050056D01*
X71166666Y-20050056D02*
X71119047Y-20002437D01*
X71119047Y-20002437D02*
X71023809Y-19954818D01*
X70309523Y-20050056D02*
X70261904Y-20002437D01*
X70261904Y-20002437D02*
X70166666Y-19954818D01*
X70166666Y-19954818D02*
X69928571Y-19954818D01*
X69928571Y-19954818D02*
X69833333Y-20002437D01*
X69833333Y-20002437D02*
X69785714Y-20050056D01*
X69785714Y-20050056D02*
X69738095Y-20145294D01*
X69738095Y-20145294D02*
X69738095Y-20240532D01*
X69738095Y-20240532D02*
X69785714Y-20383389D01*
X69785714Y-20383389D02*
X70357142Y-20954818D01*
X70357142Y-20954818D02*
X69738095Y-20954818D01*
X76444047Y-22964579D02*
X76491666Y-23012199D01*
X76491666Y-23012199D02*
X76634523Y-23059818D01*
X76634523Y-23059818D02*
X76729761Y-23059818D01*
X76729761Y-23059818D02*
X76872618Y-23012199D01*
X76872618Y-23012199D02*
X76967856Y-22916960D01*
X76967856Y-22916960D02*
X77015475Y-22821722D01*
X77015475Y-22821722D02*
X77063094Y-22631246D01*
X77063094Y-22631246D02*
X77063094Y-22488389D01*
X77063094Y-22488389D02*
X77015475Y-22297913D01*
X77015475Y-22297913D02*
X76967856Y-22202675D01*
X76967856Y-22202675D02*
X76872618Y-22107437D01*
X76872618Y-22107437D02*
X76729761Y-22059818D01*
X76729761Y-22059818D02*
X76634523Y-22059818D01*
X76634523Y-22059818D02*
X76491666Y-22107437D01*
X76491666Y-22107437D02*
X76444047Y-22155056D01*
X75491666Y-23059818D02*
X76063094Y-23059818D01*
X75777380Y-23059818D02*
X75777380Y-22059818D01*
X75777380Y-22059818D02*
X75872618Y-22202675D01*
X75872618Y-22202675D02*
X75967856Y-22297913D01*
X75967856Y-22297913D02*
X76063094Y-22345532D01*
X74872618Y-22059818D02*
X74777380Y-22059818D01*
X74777380Y-22059818D02*
X74682142Y-22107437D01*
X74682142Y-22107437D02*
X74634523Y-22155056D01*
X74634523Y-22155056D02*
X74586904Y-22250294D01*
X74586904Y-22250294D02*
X74539285Y-22440770D01*
X74539285Y-22440770D02*
X74539285Y-22678865D01*
X74539285Y-22678865D02*
X74586904Y-22869341D01*
X74586904Y-22869341D02*
X74634523Y-22964579D01*
X74634523Y-22964579D02*
X74682142Y-23012199D01*
X74682142Y-23012199D02*
X74777380Y-23059818D01*
X74777380Y-23059818D02*
X74872618Y-23059818D01*
X74872618Y-23059818D02*
X74967856Y-23012199D01*
X74967856Y-23012199D02*
X75015475Y-22964579D01*
X75015475Y-22964579D02*
X75063094Y-22869341D01*
X75063094Y-22869341D02*
X75110713Y-22678865D01*
X75110713Y-22678865D02*
X75110713Y-22440770D01*
X75110713Y-22440770D02*
X75063094Y-22250294D01*
X75063094Y-22250294D02*
X75015475Y-22155056D01*
X75015475Y-22155056D02*
X74967856Y-22107437D01*
X74967856Y-22107437D02*
X74872618Y-22059818D01*
X73682142Y-22393151D02*
X73682142Y-23059818D01*
X73920237Y-22012199D02*
X74158332Y-22726484D01*
X74158332Y-22726484D02*
X73539285Y-22726484D01*
D11*
%TO.C,U101*%
X69325000Y-4915000D02*
X71525000Y-4915000D01*
X69325000Y-10385000D02*
X71525000Y-10385000D01*
X73725000Y-4915000D02*
X71525000Y-4915000D01*
X73725000Y-10385000D02*
X71525000Y-10385000D01*
X67665000Y-9925000D02*
X67335000Y-10165000D01*
X67335000Y-9685000D01*
X67665000Y-9925000D01*
G36*
X67665000Y-9925000D02*
G01*
X67335000Y-10165000D01*
X67335000Y-9685000D01*
X67665000Y-9925000D01*
G37*
%TO.C,C103*%
X65513748Y-14690000D02*
X66036252Y-14690000D01*
X65513748Y-16160000D02*
X66036252Y-16160000D01*
%TO.C,C101*%
X65501247Y-5290000D02*
X66023751Y-5290000D01*
X65501247Y-6760000D02*
X66023751Y-6760000D01*
%TO.C,C102*%
X75623752Y-10890000D02*
X75101246Y-10890000D01*
X75623752Y-12360000D02*
X75101246Y-12360000D01*
%TO.C,U102*%
X69300000Y-14315000D02*
X71500000Y-14315000D01*
X69300000Y-19785000D02*
X71500000Y-19785000D01*
X73700000Y-14315000D02*
X71500000Y-14315000D01*
X73700000Y-19785000D02*
X71500000Y-19785000D01*
X67640000Y-19325000D02*
X67310000Y-19565000D01*
X67310000Y-19085000D01*
X67640000Y-19325000D01*
G36*
X67640000Y-19325000D02*
G01*
X67310000Y-19565000D01*
X67310000Y-19085000D01*
X67640000Y-19325000D01*
G37*
%TO.C,C104*%
X75586253Y-20190000D02*
X75063747Y-20190000D01*
X75586253Y-21660000D02*
X75063747Y-21660000D01*
%TD*%
M02*
