%TF.GenerationSoftware,KiCad,Pcbnew,8.0.3*%
%TF.CreationDate,2024-07-01T12:15:54-06:00*%
%TF.ProjectId,VoiceBoardR3,566f6963-6542-46f6-9172-6452332e6b69,rev?*%
%TF.SameCoordinates,Original*%
%TF.FileFunction,Soldermask,Bot*%
%TF.FilePolarity,Negative*%
%FSLAX46Y46*%
G04 Gerber Fmt 4.6, Leading zero omitted, Abs format (unit mm)*
G04 Created by KiCad (PCBNEW 8.0.3) date 2024-07-01 12:15:54*
%MOMM*%
%LPD*%
G01*
G04 APERTURE LIST*
G04 Aperture macros list*
%AMRoundRect*
0 Rectangle with rounded corners*
0 $1 Rounding radius*
0 $2 $3 $4 $5 $6 $7 $8 $9 X,Y pos of 4 corners*
0 Add a 4 corners polygon primitive as box body*
4,1,4,$2,$3,$4,$5,$6,$7,$8,$9,$2,$3,0*
0 Add four circle primitives for the rounded corners*
1,1,$1+$1,$2,$3*
1,1,$1+$1,$4,$5*
1,1,$1+$1,$6,$7*
1,1,$1+$1,$8,$9*
0 Add four rect primitives between the rounded corners*
20,1,$1+$1,$2,$3,$4,$5,0*
20,1,$1+$1,$4,$5,$6,$7,0*
20,1,$1+$1,$6,$7,$8,$9,0*
20,1,$1+$1,$8,$9,$2,$3,0*%
G04 Aperture macros list end*
%ADD10C,1.000000*%
%ADD11R,1.700000X1.700000*%
%ADD12O,1.700000X1.700000*%
%ADD13RoundRect,0.100000X0.637500X0.100000X-0.637500X0.100000X-0.637500X-0.100000X0.637500X-0.100000X0*%
%ADD14RoundRect,0.250000X-0.250000X-0.475000X0.250000X-0.475000X0.250000X0.475000X-0.250000X0.475000X0*%
%ADD15RoundRect,0.250000X0.250000X0.475000X-0.250000X0.475000X-0.250000X-0.475000X0.250000X-0.475000X0*%
G04 APERTURE END LIST*
D10*
%TO.C,SAW1*%
X37185600Y-9194800D03*
%TD*%
%TO.C,TRI1*%
X11353800Y-20497800D03*
%TD*%
%TO.C,TRI2*%
X35331400Y-37896800D03*
%TD*%
D11*
%TO.C,U103*%
X43437500Y-47887500D03*
D12*
X43437500Y-45347500D03*
X45977500Y-47887500D03*
X45977500Y-45347500D03*
X48517500Y-47887500D03*
X48517500Y-45347500D03*
X51057500Y-47887500D03*
X51057500Y-45347500D03*
X53597500Y-47887500D03*
X53597500Y-45347500D03*
X56137500Y-47887500D03*
X56137500Y-45347500D03*
X58677500Y-47887500D03*
X58677500Y-45347500D03*
X61217500Y-47887500D03*
X61217500Y-45347500D03*
X63757500Y-47887500D03*
X63757500Y-45347500D03*
%TD*%
D10*
%TO.C,SAW2*%
X32359600Y-30276800D03*
%TD*%
D13*
%TO.C,U102*%
X77935200Y-10704400D03*
X77935200Y-11354400D03*
X77935200Y-12004400D03*
X77935200Y-12654400D03*
X77935200Y-13304400D03*
X77935200Y-13954400D03*
X77935200Y-14604400D03*
X77935200Y-15254400D03*
X72210200Y-15254400D03*
X72210200Y-14604400D03*
X72210200Y-13954400D03*
X72210200Y-13304400D03*
X72210200Y-12654400D03*
X72210200Y-12004400D03*
X72210200Y-11354400D03*
X72210200Y-10704400D03*
%TD*%
D14*
%TO.C,C101*%
X79974401Y-14605000D03*
X81874399Y-14605000D03*
%TD*%
D15*
%TO.C,C102*%
X70723800Y-20396200D03*
X68823800Y-20396200D03*
%TD*%
%TO.C,C104*%
X70215800Y-10718800D03*
X68315800Y-10718800D03*
%TD*%
D14*
%TO.C,C103*%
X80406201Y-24257000D03*
X82306199Y-24257000D03*
%TD*%
D13*
%TO.C,U101*%
X78362862Y-20381800D03*
X78362862Y-21031800D03*
X78362862Y-21681800D03*
X78362862Y-22331800D03*
X78362862Y-22981800D03*
X78362862Y-23631800D03*
X78362862Y-24281800D03*
X78362862Y-24931800D03*
X72637862Y-24931800D03*
X72637862Y-24281800D03*
X72637862Y-23631800D03*
X72637862Y-22981800D03*
X72637862Y-22331800D03*
X72637862Y-21681800D03*
X72637862Y-21031800D03*
X72637862Y-20381800D03*
%TD*%
M02*
