%TF.GenerationSoftware,KiCad,Pcbnew,8.0.3*%
%TF.CreationDate,2024-07-01T12:15:54-06:00*%
%TF.ProjectId,VoiceBoardR3,566f6963-6542-46f6-9172-6452332e6b69,rev?*%
%TF.SameCoordinates,Original*%
%TF.FileFunction,Copper,L1,Top*%
%TF.FilePolarity,Positive*%
%FSLAX46Y46*%
G04 Gerber Fmt 4.6, Leading zero omitted, Abs format (unit mm)*
G04 Created by KiCad (PCBNEW 8.0.3) date 2024-07-01 12:15:54*
%MOMM*%
%LPD*%
G01*
G04 APERTURE LIST*
G04 Aperture macros list*
%AMRoundRect*
0 Rectangle with rounded corners*
0 $1 Rounding radius*
0 $2 $3 $4 $5 $6 $7 $8 $9 X,Y pos of 4 corners*
0 Add a 4 corners polygon primitive as box body*
4,1,4,$2,$3,$4,$5,$6,$7,$8,$9,$2,$3,0*
0 Add four circle primitives for the rounded corners*
1,1,$1+$1,$2,$3*
1,1,$1+$1,$4,$5*
1,1,$1+$1,$6,$7*
1,1,$1+$1,$8,$9*
0 Add four rect primitives between the rounded corners*
20,1,$1+$1,$2,$3,$4,$5,0*
20,1,$1+$1,$4,$5,$6,$7,0*
20,1,$1+$1,$6,$7,$8,$9,0*
20,1,$1+$1,$8,$9,$2,$3,0*%
G04 Aperture macros list end*
%TA.AperFunction,SMDPad,CuDef*%
%ADD10RoundRect,0.250000X0.250000X0.475000X-0.250000X0.475000X-0.250000X-0.475000X0.250000X-0.475000X0*%
%TD*%
%TA.AperFunction,SMDPad,CuDef*%
%ADD11RoundRect,0.250000X0.262500X0.450000X-0.262500X0.450000X-0.262500X-0.450000X0.262500X-0.450000X0*%
%TD*%
%TA.AperFunction,SMDPad,CuDef*%
%ADD12RoundRect,0.250000X-0.450000X0.262500X-0.450000X-0.262500X0.450000X-0.262500X0.450000X0.262500X0*%
%TD*%
%TA.AperFunction,SMDPad,CuDef*%
%ADD13RoundRect,0.250000X0.475000X-0.250000X0.475000X0.250000X-0.475000X0.250000X-0.475000X-0.250000X0*%
%TD*%
%TA.AperFunction,SMDPad,CuDef*%
%ADD14RoundRect,0.250000X-0.475000X0.250000X-0.475000X-0.250000X0.475000X-0.250000X0.475000X0.250000X0*%
%TD*%
%TA.AperFunction,SMDPad,CuDef*%
%ADD15RoundRect,0.225000X0.375000X-0.225000X0.375000X0.225000X-0.375000X0.225000X-0.375000X-0.225000X0*%
%TD*%
%TA.AperFunction,SMDPad,CuDef*%
%ADD16RoundRect,0.150000X0.150000X-0.825000X0.150000X0.825000X-0.150000X0.825000X-0.150000X-0.825000X0*%
%TD*%
%TA.AperFunction,SMDPad,CuDef*%
%ADD17RoundRect,0.100000X-0.100000X0.637500X-0.100000X-0.637500X0.100000X-0.637500X0.100000X0.637500X0*%
%TD*%
%TA.AperFunction,SMDPad,CuDef*%
%ADD18RoundRect,0.250000X0.450000X-0.262500X0.450000X0.262500X-0.450000X0.262500X-0.450000X-0.262500X0*%
%TD*%
%TA.AperFunction,ComponentPad*%
%ADD19C,1.000000*%
%TD*%
%TA.AperFunction,SMDPad,CuDef*%
%ADD20RoundRect,0.250000X-0.262500X-0.450000X0.262500X-0.450000X0.262500X0.450000X-0.262500X0.450000X0*%
%TD*%
%TA.AperFunction,SMDPad,CuDef*%
%ADD21R,0.800000X0.900000*%
%TD*%
%TA.AperFunction,SMDPad,CuDef*%
%ADD22RoundRect,0.250000X-0.250000X-0.475000X0.250000X-0.475000X0.250000X0.475000X-0.250000X0.475000X0*%
%TD*%
%TA.AperFunction,ComponentPad*%
%ADD23R,1.700000X1.700000*%
%TD*%
%TA.AperFunction,ComponentPad*%
%ADD24O,1.700000X1.700000*%
%TD*%
%TA.AperFunction,SMDPad,CuDef*%
%ADD25RoundRect,0.150000X-0.150000X0.825000X-0.150000X-0.825000X0.150000X-0.825000X0.150000X0.825000X0*%
%TD*%
%TA.AperFunction,SMDPad,CuDef*%
%ADD26RoundRect,0.243750X-0.243750X-0.456250X0.243750X-0.456250X0.243750X0.456250X-0.243750X0.456250X0*%
%TD*%
%TA.AperFunction,SMDPad,CuDef*%
%ADD27RoundRect,0.225000X-0.375000X0.225000X-0.375000X-0.225000X0.375000X-0.225000X0.375000X0.225000X0*%
%TD*%
%TA.AperFunction,SMDPad,CuDef*%
%ADD28RoundRect,0.243750X0.243750X0.456250X-0.243750X0.456250X-0.243750X-0.456250X0.243750X-0.456250X0*%
%TD*%
%TA.AperFunction,SMDPad,CuDef*%
%ADD29R,1.000000X1.500000*%
%TD*%
%TA.AperFunction,SMDPad,CuDef*%
%ADD30RoundRect,0.150000X-0.825000X-0.150000X0.825000X-0.150000X0.825000X0.150000X-0.825000X0.150000X0*%
%TD*%
%TA.AperFunction,ViaPad*%
%ADD31C,0.800000*%
%TD*%
%TA.AperFunction,ViaPad*%
%ADD32C,0.650000*%
%TD*%
%TA.AperFunction,Conductor*%
%ADD33C,0.220000*%
%TD*%
%TA.AperFunction,Conductor*%
%ADD34C,0.300000*%
%TD*%
%TA.AperFunction,Conductor*%
%ADD35C,0.180000*%
%TD*%
%TA.AperFunction,Conductor*%
%ADD36C,0.200000*%
%TD*%
G04 APERTURE END LIST*
D10*
%TO.P,C218,1*%
%TO.N,GND*%
X59496999Y-35468100D03*
%TO.P,C218,2*%
%TO.N,+3.3V*%
X57597001Y-35468100D03*
%TD*%
D11*
%TO.P,R205,1*%
%TO.N,GND*%
X11959600Y-12547600D03*
%TO.P,R205,2*%
%TO.N,Net-(C202-Pad2)*%
X10134600Y-12547600D03*
%TD*%
D12*
%TO.P,R310,1*%
%TO.N,GND*%
X106553000Y-9741300D03*
%TO.P,R310,2*%
%TO.N,Net-(U303A-+)*%
X106553000Y-11566300D03*
%TD*%
D13*
%TO.P,C210,1*%
%TO.N,GND*%
X41173400Y-30744199D03*
%TO.P,C210,2*%
%TO.N,-12V*%
X41173400Y-28844201D03*
%TD*%
D14*
%TO.P,C212,1*%
%TO.N,GND*%
X21717000Y-28031401D03*
%TO.P,C212,2*%
%TO.N,+12V*%
X21717000Y-29931399D03*
%TD*%
D15*
%TO.P,D202,1,K*%
%TO.N,TRI1_FULL*%
X15163800Y-18515600D03*
%TO.P,D202,2,A*%
%TO.N,Net-(D202-A)*%
X15163800Y-15215600D03*
%TD*%
D14*
%TO.P,C410,1*%
%TO.N,-12V*%
X97214600Y-39639201D03*
%TO.P,C410,2*%
%TO.N,GND*%
X97214600Y-41539199D03*
%TD*%
D16*
%TO.P,U303,1*%
%TO.N,Net-(R307-Pad2)*%
X105283000Y-18832600D03*
%TO.P,U303,2,DIODE_BIAS*%
%TO.N,unconnected-(U303C-DIODE_BIAS-Pad2)*%
X106553000Y-18832600D03*
%TO.P,U303,3,+*%
%TO.N,Net-(U303C-+)*%
X107823000Y-18832600D03*
%TO.P,U303,4,-*%
%TO.N,Net-(U303C--)*%
X109093000Y-18832600D03*
%TO.P,U303,5*%
%TO.N,Net-(U301C-+)*%
X110363000Y-18832600D03*
%TO.P,U303,6,V-*%
%TO.N,-12V*%
X111633000Y-18832600D03*
%TO.P,U303,7*%
%TO.N,unconnected-(U303-Pad7)*%
X112903000Y-18832600D03*
%TO.P,U303,8*%
%TO.N,unconnected-(U303-Pad8)*%
X114173000Y-18832600D03*
%TO.P,U303,9*%
%TO.N,unconnected-(U303-Pad9)*%
X114173000Y-13882600D03*
%TO.P,U303,10*%
%TO.N,unconnected-(U303-Pad10)*%
X112903000Y-13882600D03*
%TO.P,U303,11,V+*%
%TO.N,+12V*%
X111633000Y-13882600D03*
%TO.P,U303,12*%
%TO.N,Net-(U301B-+)*%
X110363000Y-13882600D03*
%TO.P,U303,13,-*%
%TO.N,Net-(U303A--)*%
X109093000Y-13882600D03*
%TO.P,U303,14,+*%
%TO.N,Net-(U303A-+)*%
X107823000Y-13882600D03*
%TO.P,U303,15,DIODE_BIAS*%
%TO.N,unconnected-(U303A-DIODE_BIAS-Pad15)*%
X106553000Y-13882600D03*
%TO.P,U303,16*%
%TO.N,Net-(R306-Pad2)*%
X105283000Y-13882600D03*
%TD*%
D17*
%TO.P,U205,1,P3A*%
%TO.N,GND*%
X60100400Y-27525600D03*
%TO.P,U205,2,P3W*%
%TO.N,Net-(U205D-P3W)*%
X59450400Y-27525600D03*
%TO.P,U205,3,P3B*%
%TO.N,TRI2_FULL*%
X58800400Y-27525600D03*
%TO.P,U205,4,HVC/A0*%
%TO.N,unconnected-(U205E-HVC{slash}A0-Pad4)*%
X58150400Y-27525600D03*
%TO.P,U205,5,SCL*%
%TO.N,SCL*%
X57500400Y-27525600D03*
%TO.P,U205,6,SDA*%
%TO.N,SDA*%
X56850400Y-27525600D03*
%TO.P,U205,7,VSS*%
%TO.N,GND*%
X56200400Y-27525600D03*
%TO.P,U205,8,P1B*%
%TO.N,PULSE2_FULL*%
X55550400Y-27525600D03*
%TO.P,U205,9,P1W*%
%TO.N,Net-(U205B-P1W)*%
X54900400Y-27525600D03*
%TO.P,U205,10,P1A*%
%TO.N,GND*%
X54250400Y-27525600D03*
%TO.P,U205,11,P0A*%
X54250400Y-33250600D03*
%TO.P,U205,12,P0W*%
%TO.N,Net-(U205A-P0W)*%
X54900400Y-33250600D03*
%TO.P,U205,13,P0B*%
%TO.N,Net-(U205A-P0B)*%
X55550400Y-33250600D03*
%TO.P,U205,14,NC*%
%TO.N,unconnected-(U205E-NC-Pad14)*%
X56200400Y-33250600D03*
%TO.P,U205,15,~{RESET}*%
%TO.N,+3.3V*%
X56850400Y-33250600D03*
%TO.P,U205,16,A1*%
X57500400Y-33250600D03*
%TO.P,U205,17,VDD*%
X58150400Y-33250600D03*
%TO.P,U205,18,P2B*%
%TO.N,SAW2_FULL*%
X58800400Y-33250600D03*
%TO.P,U205,19,P2W*%
%TO.N,Net-(U205C-P2W)*%
X59450400Y-33250600D03*
%TO.P,U205,20,P2A*%
%TO.N,GND*%
X60100400Y-33250600D03*
%TD*%
D10*
%TO.P,C201,1*%
%TO.N,Net-(Q201-E)*%
X19491999Y-5943600D03*
%TO.P,C201,2*%
%TO.N,Net-(C201-Pad2)*%
X17592001Y-5943600D03*
%TD*%
D18*
%TO.P,R204,1*%
%TO.N,Net-(C201-Pad2)*%
X15544800Y-7999100D03*
%TO.P,R204,2*%
%TO.N,Net-(Q201-C)*%
X15544800Y-6174100D03*
%TD*%
D19*
%TO.P,SAW1,1,1*%
%TO.N,SAW1_FULL*%
X37185600Y-9194800D03*
%TD*%
D18*
%TO.P,R314,1*%
%TO.N,GND*%
X103657400Y-23493100D03*
%TO.P,R314,2*%
%TO.N,Net-(U303C-+)*%
X103657400Y-21668100D03*
%TD*%
D12*
%TO.P,R243,1*%
%TO.N,GND*%
X32334200Y-33682300D03*
%TO.P,R243,2*%
%TO.N,Net-(U202C-+)*%
X32334200Y-35507300D03*
%TD*%
%TO.P,R234,1*%
%TO.N,SAW1_FULL*%
X26339800Y-5488300D03*
%TO.P,R234,2*%
%TO.N,Net-(U201A--)*%
X26339800Y-7313300D03*
%TD*%
%TO.P,R417,1*%
%TO.N,-12V*%
X117805200Y-26976700D03*
%TO.P,R417,2*%
%TO.N,Net-(Q405-E)*%
X117805200Y-28801700D03*
%TD*%
D13*
%TO.P,C207,1*%
%TO.N,GND*%
X21742400Y-18755399D03*
%TO.P,C207,2*%
%TO.N,-12V*%
X21742400Y-16855401D03*
%TD*%
D14*
%TO.P,C204,1*%
%TO.N,SAW2_FULL*%
X29032200Y-33594001D03*
%TO.P,C204,2*%
%TO.N,Net-(U202C-+)*%
X29032200Y-35493999D03*
%TD*%
D19*
%TO.P,TRI1,1,1*%
%TO.N,TRI1_FULL*%
X11353800Y-20497800D03*
%TD*%
D18*
%TO.P,R221,1*%
%TO.N,GND*%
X19659600Y-41120700D03*
%TO.P,R221,2*%
%TO.N,Net-(U202C--)*%
X19659600Y-39295700D03*
%TD*%
D20*
%TO.P,R203,1*%
%TO.N,LEVEL_1_CV*%
X14251300Y-11379200D03*
%TO.P,R203,2*%
%TO.N,Net-(Q201-E)*%
X16076300Y-11379200D03*
%TD*%
%TO.P,R418,1*%
%TO.N,Net-(R418-Pad1)*%
X103227500Y-26670000D03*
%TO.P,R418,2*%
%TO.N,Net-(U403D--)*%
X105052500Y-26670000D03*
%TD*%
D21*
%TO.P,Q401,1,B*%
%TO.N,Net-(Q401-B)*%
X84622600Y-30540200D03*
%TO.P,Q401,2,E*%
%TO.N,Net-(Q401-E)*%
X86522600Y-30540200D03*
%TO.P,Q401,3,C*%
%TO.N,Net-(Q401-C)*%
X85572600Y-28540200D03*
%TD*%
%TO.P,Q201,1,B*%
%TO.N,Net-(Q201-B)*%
X17566600Y-4098800D03*
%TO.P,Q201,2,E*%
%TO.N,Net-(Q201-E)*%
X19466600Y-4098800D03*
%TO.P,Q201,3,C*%
%TO.N,Net-(Q201-C)*%
X18516600Y-2098800D03*
%TD*%
D18*
%TO.P,R210,1*%
%TO.N,Net-(U201C--)*%
X17602200Y-18692500D03*
%TO.P,R210,2*%
%TO.N,TRI1_FULL*%
X17602200Y-16867500D03*
%TD*%
D19*
%TO.P,TRI2,1,1*%
%TO.N,TRI2_FULL*%
X35331400Y-37896800D03*
%TD*%
D11*
%TO.P,R241,1*%
%TO.N,Net-(U204C--)*%
X68781300Y-24917400D03*
%TO.P,R241,2*%
%TO.N,Net-(U205A-P0B)*%
X66956300Y-24917400D03*
%TD*%
D13*
%TO.P,C404,1*%
%TO.N,-12V*%
X77063600Y-31699200D03*
%TO.P,C404,2*%
%TO.N,GND*%
X77063600Y-29799202D03*
%TD*%
D22*
%TO.P,C405,1*%
%TO.N,Net-(U404C--)*%
X79136200Y-31308001D03*
%TO.P,C405,2*%
%TO.N,Net-(Q401-E)*%
X81036200Y-31308001D03*
%TD*%
D11*
%TO.P,R239,1*%
%TO.N,Net-(U205C-P2W)*%
X51738500Y-34190400D03*
%TO.P,R239,2*%
%TO.N,Net-(U204A--)*%
X49913500Y-34190400D03*
%TD*%
D20*
%TO.P,R411,1*%
%TO.N,Net-(U403B-+)*%
X102897300Y-40055800D03*
%TO.P,R411,2*%
%TO.N,GND*%
X104722300Y-40055800D03*
%TD*%
D11*
%TO.P,R422,1*%
%TO.N,Net-(Q406-E)*%
X68857500Y-29464000D03*
%TO.P,R422,2*%
%TO.N,GND*%
X67032500Y-29464000D03*
%TD*%
D12*
%TO.P,R429,1*%
%TO.N,Net-(R425-Pad2)*%
X87833200Y-39854500D03*
%TO.P,R429,2*%
%TO.N,VCA_OUT*%
X87833200Y-41679500D03*
%TD*%
D18*
%TO.P,R425,1*%
%TO.N,Net-(U404B--)*%
X81000600Y-43117101D03*
%TO.P,R425,2*%
%TO.N,Net-(R425-Pad2)*%
X81000600Y-41292101D03*
%TD*%
%TO.P,R404,1*%
%TO.N,Net-(Q401-E)*%
X80899000Y-22121500D03*
%TO.P,R404,2*%
%TO.N,GND*%
X80899000Y-20296500D03*
%TD*%
D10*
%TO.P,C209,1*%
%TO.N,Net-(Q202-E)*%
X19593599Y-28524200D03*
%TO.P,C209,2*%
%TO.N,Net-(C209-Pad2)*%
X17693601Y-28524200D03*
%TD*%
D18*
%TO.P,R419,1*%
%TO.N,Net-(U403D--)*%
X116586000Y-34719900D03*
%TO.P,R419,2*%
%TO.N,Net-(Q404-C)*%
X116586000Y-32894900D03*
%TD*%
D12*
%TO.P,R201,1*%
%TO.N,Net-(U201C-+)*%
X23799800Y-16867500D03*
%TO.P,R201,2*%
%TO.N,Net-(U201D--)*%
X23799800Y-18692500D03*
%TD*%
D21*
%TO.P,Q302,1,B*%
%TO.N,GND*%
X85283000Y-15505700D03*
%TO.P,Q302,2,E*%
%TO.N,Net-(Q301-E)*%
X87183000Y-15505700D03*
%TO.P,Q302,3,C*%
%TO.N,Net-(Q302-C)*%
X86233000Y-13505700D03*
%TD*%
D15*
%TO.P,D204,1,K*%
%TO.N,TRI2_FULL*%
X30302200Y-40918400D03*
%TO.P,D204,2,A*%
%TO.N,Net-(D204-A)*%
X30302200Y-37618400D03*
%TD*%
D14*
%TO.P,C303,1*%
%TO.N,+12V*%
X123113800Y-21097201D03*
%TO.P,C303,2*%
%TO.N,GND*%
X123113800Y-22997199D03*
%TD*%
D22*
%TO.P,C406,1*%
%TO.N,FOLDER_IN*%
X88381800Y-26365200D03*
%TO.P,C406,2*%
%TO.N,Net-(C406-Pad2)*%
X90281800Y-26365200D03*
%TD*%
D11*
%TO.P,R235,1*%
%TO.N,Net-(R202-Pad2)*%
X27557100Y-20294600D03*
%TO.P,R235,2*%
%TO.N,TRI1_FULL*%
X25732100Y-20294600D03*
%TD*%
D17*
%TO.P,U203,1,P3A*%
%TO.N,GND*%
X62970600Y-4919600D03*
%TO.P,U203,2,P3W*%
%TO.N,Net-(U203D-P3W)*%
X62320600Y-4919600D03*
%TO.P,U203,3,P3B*%
%TO.N,TRI1_FULL*%
X61670600Y-4919600D03*
%TO.P,U203,4,HVC/A0*%
%TO.N,unconnected-(U203E-HVC{slash}A0-Pad4)*%
X61020600Y-4919600D03*
%TO.P,U203,5,SCL*%
%TO.N,SCL*%
X60370600Y-4919600D03*
%TO.P,U203,6,SDA*%
%TO.N,SDA*%
X59720600Y-4919600D03*
%TO.P,U203,7,VSS*%
%TO.N,GND*%
X59070600Y-4919600D03*
%TO.P,U203,8,P1B*%
%TO.N,PULSE1_FULL*%
X58420600Y-4919600D03*
%TO.P,U203,9,P1W*%
%TO.N,Net-(U203B-P1W)*%
X57770600Y-4919600D03*
%TO.P,U203,10,P1A*%
%TO.N,GND*%
X57120600Y-4919600D03*
%TO.P,U203,11,P0A*%
X57120600Y-10644600D03*
%TO.P,U203,12,P0W*%
%TO.N,Net-(U203A-P0W)*%
X57770600Y-10644600D03*
%TO.P,U203,13,P0B*%
%TO.N,Net-(U203A-P0B)*%
X58420600Y-10644600D03*
%TO.P,U203,14,NC*%
%TO.N,unconnected-(U203E-NC-Pad14)*%
X59070600Y-10644600D03*
%TO.P,U203,15,~{RESET}*%
%TO.N,+3.3V*%
X59720600Y-10644600D03*
%TO.P,U203,16,A1*%
%TO.N,GND*%
X60370600Y-10644600D03*
%TO.P,U203,17,VDD*%
%TO.N,+3.3V*%
X61020600Y-10644600D03*
%TO.P,U203,18,P2B*%
%TO.N,SAW1_FULL*%
X61670600Y-10644600D03*
%TO.P,U203,19,P2W*%
%TO.N,Net-(U203C-P2W)*%
X62320600Y-10644600D03*
%TO.P,U203,20,P2A*%
%TO.N,GND*%
X62970600Y-10644600D03*
%TD*%
D21*
%TO.P,Q403,1,B*%
%TO.N,Net-(Q402-B)*%
X126146600Y-30750000D03*
%TO.P,Q403,2,E*%
%TO.N,Net-(Q403-E)*%
X124246600Y-30750000D03*
%TO.P,Q403,3,C*%
%TO.N,Net-(Q402-C)*%
X125196600Y-32750000D03*
%TD*%
D20*
%TO.P,R218,1*%
%TO.N,Net-(U202D--)*%
X26011500Y-40716200D03*
%TO.P,R218,2*%
%TO.N,Net-(R218-Pad2)*%
X27836500Y-40716200D03*
%TD*%
D11*
%TO.P,R428,1*%
%TO.N,Net-(U402C--)*%
X84021300Y-37632601D03*
%TO.P,R428,2*%
%TO.N,Net-(C414-Pad2)*%
X82196300Y-37632601D03*
%TD*%
D12*
%TO.P,R245,1*%
%TO.N,Net-(U206A--)*%
X44983400Y-17375500D03*
%TO.P,R245,2*%
%TO.N,Net-(R245-Pad2)*%
X44983400Y-19200500D03*
%TD*%
D22*
%TO.P,C202,1*%
%TO.N,CLK_1*%
X6439500Y-9118600D03*
%TO.P,C202,2*%
%TO.N,Net-(C202-Pad2)*%
X8339500Y-9118600D03*
%TD*%
D23*
%TO.P,U103,1,SDA*%
%TO.N,SDA*%
X43437500Y-47887500D03*
D24*
%TO.P,U103,2,LVL1*%
%TO.N,LEVEL_1_CV*%
X43437500Y-45347500D03*
%TO.P,U103,3,SCL*%
%TO.N,SCL*%
X45977500Y-47887500D03*
%TO.P,U103,4,LVL2*%
%TO.N,LEVEL_2_CV*%
X45977500Y-45347500D03*
%TO.P,U103,5,CLK1*%
%TO.N,CLK_1*%
X48517500Y-47887500D03*
%TO.P,U103,6,PWM1*%
%TO.N,PWM_1_CV*%
X48517500Y-45347500D03*
%TO.P,U103,7,CLK2*%
%TO.N,CLK_2*%
X51057500Y-47887500D03*
%TO.P,U103,8,PWM2*%
%TO.N,PWM_2_CV*%
X51057500Y-45347500D03*
%TO.P,U103,9,HP*%
%TO.N,HP_MODE*%
X53597500Y-47887500D03*
%TO.P,U103,10,FOLD*%
%TO.N,FOLD_CV*%
X53597500Y-45347500D03*
%TO.P,U103,11,FF*%
%TO.N,FOLD_FIRST*%
X56137500Y-47887500D03*
%TO.P,U103,12,VCF*%
%TO.N,CUTOFF_CV*%
X56137500Y-45347500D03*
%TO.P,U103,13,OUT*%
%TO.N,VCA_OUT*%
X58677500Y-47887500D03*
%TO.P,U103,14,VCA*%
%TO.N,VCA_CV*%
X58677500Y-45347500D03*
%TO.P,U103,15,+3V3*%
%TO.N,+3.3V*%
X61217500Y-47887500D03*
%TO.P,U103,16,GND*%
%TO.N,GND*%
X61217500Y-45347500D03*
%TO.P,U103,17,+12V*%
%TO.N,+12V*%
X63757500Y-47887500D03*
%TO.P,U103,18,-12V*%
%TO.N,-12V*%
X63757500Y-45347500D03*
%TD*%
D13*
%TO.P,C213,1*%
%TO.N,GND*%
X21717000Y-41183599D03*
%TO.P,C213,2*%
%TO.N,-12V*%
X21717000Y-39283601D03*
%TD*%
D25*
%TO.P,U201,1*%
%TO.N,SAW1_FULL*%
X25551100Y-9615400D03*
%TO.P,U201,2,-*%
%TO.N,Net-(U201A--)*%
X24281100Y-9615400D03*
%TO.P,U201,3,+*%
%TO.N,GND*%
X23011100Y-9615400D03*
%TO.P,U201,4,V+*%
%TO.N,+12V*%
X21741100Y-9615400D03*
%TO.P,U201,5,+*%
%TO.N,GND*%
X20471100Y-9615400D03*
%TO.P,U201,6,-*%
%TO.N,Net-(Q201-E)*%
X19201100Y-9615400D03*
%TO.P,U201,7*%
%TO.N,Net-(C201-Pad2)*%
X17931100Y-9615400D03*
%TO.P,U201,8*%
%TO.N,Net-(D202-A)*%
X17931100Y-14565400D03*
%TO.P,U201,9,-*%
%TO.N,Net-(U201C--)*%
X19201100Y-14565400D03*
%TO.P,U201,10,+*%
%TO.N,Net-(U201C-+)*%
X20471100Y-14565400D03*
%TO.P,U201,11,V-*%
%TO.N,-12V*%
X21741100Y-14565400D03*
%TO.P,U201,12,+*%
%TO.N,GND*%
X23011100Y-14565400D03*
%TO.P,U201,13,-*%
%TO.N,Net-(U201D--)*%
X24281100Y-14565400D03*
%TO.P,U201,14*%
%TO.N,Net-(D201-A)*%
X25551100Y-14565400D03*
%TD*%
D26*
%TO.P,D301,1,K*%
%TO.N,Net-(D301-K)*%
X89384899Y-7239000D03*
%TO.P,D301,2,A*%
%TO.N,Net-(D301-A)*%
X91259901Y-7239000D03*
%TD*%
D27*
%TO.P,D205,1,K*%
%TO.N,Net-(D205-K)*%
X37362100Y-16206200D03*
%TO.P,D205,2,A*%
%TO.N,Net-(D205-A)*%
X37362100Y-19506200D03*
%TD*%
D14*
%TO.P,C407,1*%
%TO.N,+12V*%
X110820200Y-38445401D03*
%TO.P,C407,2*%
%TO.N,GND*%
X110820200Y-40345399D03*
%TD*%
D11*
%TO.P,R233,1*%
%TO.N,Net-(U204D--)*%
X67257300Y-14249400D03*
%TO.P,R233,2*%
%TO.N,Net-(R233-Pad2)*%
X65432300Y-14249400D03*
%TD*%
D14*
%TO.P,C306,1*%
%TO.N,Net-(U301B-+)*%
X96697800Y-20690801D03*
%TO.P,C306,2*%
%TO.N,Net-(D301-K)*%
X96697800Y-22590799D03*
%TD*%
%TO.P,C308,1*%
%TO.N,+12V*%
X94513400Y-20690801D03*
%TO.P,C308,2*%
%TO.N,GND*%
X94513400Y-22590799D03*
%TD*%
D12*
%TO.P,R406,1*%
%TO.N,GND*%
X95885000Y-28297500D03*
%TO.P,R406,2*%
%TO.N,Net-(U402A--)*%
X95885000Y-30122500D03*
%TD*%
D21*
%TO.P,Q406,1,B*%
%TO.N,Net-(Q406-B)*%
X72527200Y-41153801D03*
%TO.P,Q406,2,E*%
%TO.N,Net-(Q406-E)*%
X70627200Y-41153801D03*
%TO.P,Q406,3,C*%
%TO.N,Net-(Q406-C)*%
X71577200Y-43153801D03*
%TD*%
D13*
%TO.P,C307,1*%
%TO.N,Net-(U301C-+)*%
X97891600Y-11109999D03*
%TO.P,C307,2*%
%TO.N,HP_IN*%
X97891600Y-9210001D03*
%TD*%
D20*
%TO.P,R202,1*%
%TO.N,Net-(U201D--)*%
X25732100Y-18262600D03*
%TO.P,R202,2*%
%TO.N,Net-(R202-Pad2)*%
X27557100Y-18262600D03*
%TD*%
D28*
%TO.P,D302,1,K*%
%TO.N,Net-(D301-A)*%
X91259901Y-5080000D03*
%TO.P,D302,2,A*%
%TO.N,Net-(D301-K)*%
X89384899Y-5080000D03*
%TD*%
D18*
%TO.P,R207,1*%
%TO.N,Net-(U201A--)*%
X24282400Y-7313300D03*
%TO.P,R207,2*%
%TO.N,Net-(C201-Pad2)*%
X24282400Y-5488300D03*
%TD*%
D13*
%TO.P,C413,1*%
%TO.N,Net-(U404A--)*%
X69265800Y-37906999D03*
%TO.P,C413,2*%
%TO.N,Net-(Q406-B)*%
X69265800Y-36007001D03*
%TD*%
D12*
%TO.P,R246,1*%
%TO.N,Net-(R245-Pad2)*%
X48082200Y-23090500D03*
%TO.P,R246,2*%
%TO.N,OSC_MIX*%
X48082200Y-24915500D03*
%TD*%
D18*
%TO.P,R313,1*%
%TO.N,GND*%
X107010200Y-23467700D03*
%TO.P,R313,2*%
%TO.N,Net-(U303C--)*%
X107010200Y-21642700D03*
%TD*%
D12*
%TO.P,R316,1*%
%TO.N,GND*%
X93421200Y-9247500D03*
%TO.P,R316,2*%
%TO.N,Net-(D301-A)*%
X93421200Y-11072500D03*
%TD*%
D14*
%TO.P,C206,1*%
%TO.N,GND*%
X21742400Y-5450801D03*
%TO.P,C206,2*%
%TO.N,+12V*%
X21742400Y-7350799D03*
%TD*%
D20*
%TO.P,R301,1*%
%TO.N,Net-(Q301-E)*%
X88292300Y-21640800D03*
%TO.P,R301,2*%
%TO.N,Net-(C301-Pad1)*%
X90117300Y-21640800D03*
%TD*%
%TO.P,R232,1*%
%TO.N,Net-(U204A--)*%
X55526300Y-17449800D03*
%TO.P,R232,2*%
%TO.N,Net-(R220-Pad1)*%
X57351300Y-17449800D03*
%TD*%
D18*
%TO.P,R240,1*%
%TO.N,Net-(R233-Pad2)*%
X72059800Y-22045300D03*
%TO.P,R240,2*%
%TO.N,Net-(U204C--)*%
X72059800Y-20220300D03*
%TD*%
D12*
%TO.P,R220,1*%
%TO.N,Net-(R220-Pad1)*%
X51892200Y-19610700D03*
%TO.P,R220,2*%
%TO.N,Net-(U204B--)*%
X51892200Y-21435700D03*
%TD*%
D20*
%TO.P,R402,1*%
%TO.N,FOLD_CV*%
X71172700Y-31318200D03*
%TO.P,R402,2*%
%TO.N,Net-(U404C--)*%
X72997700Y-31318200D03*
%TD*%
D15*
%TO.P,D201,1,K*%
%TO.N,TRI1_FULL*%
X29768800Y-18236200D03*
%TO.P,D201,2,A*%
%TO.N,Net-(D201-A)*%
X29768800Y-14936200D03*
%TD*%
D11*
%TO.P,R242,1*%
%TO.N,Net-(C214-Pad2)*%
X45845100Y-9296400D03*
%TO.P,R242,2*%
%TO.N,Net-(U206A--)*%
X44020100Y-9296400D03*
%TD*%
%TO.P,R230,1*%
%TO.N,Net-(U203B-P1W)*%
X54987200Y-5664201D03*
%TO.P,R230,2*%
%TO.N,Net-(U204D--)*%
X53162200Y-5664201D03*
%TD*%
%TO.P,R208,1*%
%TO.N,-12V*%
X31417900Y-20243800D03*
%TO.P,R208,2*%
%TO.N,TRI1_FULL*%
X29592900Y-20243800D03*
%TD*%
%TO.P,R236,1*%
%TO.N,Net-(R218-Pad2)*%
X27836500Y-42875200D03*
%TO.P,R236,2*%
%TO.N,TRI2_FULL*%
X26011500Y-42875200D03*
%TD*%
D21*
%TO.P,Q202,1,B*%
%TO.N,Net-(Q202-B)*%
X17693600Y-26603200D03*
%TO.P,Q202,2,E*%
%TO.N,Net-(Q202-E)*%
X19593600Y-26603200D03*
%TO.P,Q202,3,C*%
%TO.N,Net-(Q202-C)*%
X18643600Y-24603200D03*
%TD*%
D12*
%TO.P,R405,1*%
%TO.N,Net-(C406-Pad2)*%
X93776800Y-28297500D03*
%TO.P,R405,2*%
%TO.N,Net-(U402A--)*%
X93776800Y-30122500D03*
%TD*%
D11*
%TO.P,R212,1*%
%TO.N,GND*%
X12078300Y-30073600D03*
%TO.P,R212,2*%
%TO.N,Net-(C208-Pad2)*%
X10253300Y-30073600D03*
%TD*%
D17*
%TO.P,U302,1,VL*%
%TO.N,+3.3V*%
X121152200Y-13495100D03*
%TO.P,U302,2,SCL*%
%TO.N,SCL*%
X120502200Y-13495100D03*
%TO.P,U302,3,A1*%
%TO.N,GND*%
X119852200Y-13495100D03*
%TO.P,U302,4,SDA*%
%TO.N,SDA*%
X119202200Y-13495100D03*
%TO.P,U302,5,A0*%
%TO.N,GND*%
X118552200Y-13495100D03*
%TO.P,U302,6,~{WLAT}*%
%TO.N,Net-(JP301-A)*%
X117902200Y-13495100D03*
%TO.P,U302,7,NC*%
%TO.N,GND*%
X117252200Y-13495100D03*
%TO.P,U302,8,~{SHDN}*%
%TO.N,+3.3V*%
X117252200Y-19220100D03*
%TO.P,U302,9,DGND*%
%TO.N,GND*%
X117902200Y-19220100D03*
%TO.P,U302,10,V-*%
%TO.N,-12V*%
X118552200Y-19220100D03*
%TO.P,U302,11,P0B*%
%TO.N,GND*%
X119202200Y-19220100D03*
%TO.P,U302,12,P0W*%
%TO.N,Net-(U301D-+)*%
X119852200Y-19220100D03*
%TO.P,U302,13,P0A*%
%TO.N,FILTER_OUT*%
X120502200Y-19220100D03*
%TO.P,U302,14,V+*%
%TO.N,+12V*%
X121152200Y-19220100D03*
%TD*%
D29*
%TO.P,JP301,1,A*%
%TO.N,Net-(JP301-A)*%
X118023900Y-9552400D03*
%TO.P,JP301,2,B*%
%TO.N,+3.3V*%
X119323900Y-9552400D03*
%TD*%
D12*
%TO.P,R227,1*%
%TO.N,SAW2_FULL*%
X25958800Y-28068900D03*
%TO.P,R227,2*%
%TO.N,Net-(U202A--)*%
X25958800Y-29893900D03*
%TD*%
D20*
%TO.P,R401,1*%
%TO.N,Net-(U404C--)*%
X79173700Y-27762200D03*
%TO.P,R401,2*%
%TO.N,Net-(Q401-E)*%
X80998700Y-27762200D03*
%TD*%
D16*
%TO.P,U402,1*%
%TO.N,Net-(R424-Pad1)*%
X91338400Y-37222200D03*
%TO.P,U402,2,DIODE_BIAS*%
%TO.N,unconnected-(U402C-DIODE_BIAS-Pad2)*%
X92608400Y-37222200D03*
%TO.P,U402,3,+*%
%TO.N,Net-(U402C-+)*%
X93878400Y-37222200D03*
%TO.P,U402,4,-*%
%TO.N,Net-(U402C--)*%
X95148400Y-37222200D03*
%TO.P,U402,5*%
%TO.N,Net-(U404B--)*%
X96418400Y-37222200D03*
%TO.P,U402,6,V-*%
%TO.N,-12V*%
X97688400Y-37222200D03*
%TO.P,U402,7*%
%TO.N,unconnected-(U402-Pad7)*%
X98958400Y-37222200D03*
%TO.P,U402,8*%
%TO.N,unconnected-(U402-Pad8)*%
X100228400Y-37222200D03*
%TO.P,U402,9*%
%TO.N,unconnected-(U402-Pad9)*%
X100228400Y-32272200D03*
%TO.P,U402,10*%
%TO.N,unconnected-(U402-Pad10)*%
X98958400Y-32272200D03*
%TO.P,U402,11,V+*%
%TO.N,+12V*%
X97688400Y-32272200D03*
%TO.P,U402,12*%
%TO.N,Net-(U403A--)*%
X96418400Y-32272200D03*
%TO.P,U402,13,-*%
%TO.N,Net-(U402A--)*%
X95148400Y-32272200D03*
%TO.P,U402,14,+*%
%TO.N,Net-(U402A-+)*%
X93878400Y-32272200D03*
%TO.P,U402,15,DIODE_BIAS*%
%TO.N,unconnected-(U402A-DIODE_BIAS-Pad15)*%
X92608400Y-32272200D03*
%TO.P,U402,16*%
%TO.N,Net-(R408-Pad1)*%
X91338400Y-32272200D03*
%TD*%
D19*
%TO.P,SAW2,1,1*%
%TO.N,SAW2_FULL*%
X32359600Y-30276800D03*
%TD*%
D13*
%TO.P,C309,1*%
%TO.N,-12V*%
X95681800Y-11109999D03*
%TO.P,C309,2*%
%TO.N,GND*%
X95681800Y-9210001D03*
%TD*%
D21*
%TO.P,Q404,1,B*%
%TO.N,Net-(Q404-B)*%
X120482400Y-34712400D03*
%TO.P,Q404,2,E*%
%TO.N,Net-(Q404-E)*%
X118582400Y-34712400D03*
%TO.P,Q404,3,C*%
%TO.N,Net-(Q404-C)*%
X119532400Y-36712400D03*
%TD*%
D13*
%TO.P,C409,1*%
%TO.N,+12V*%
X99161600Y-30159999D03*
%TO.P,C409,2*%
%TO.N,GND*%
X99161600Y-28260001D03*
%TD*%
D21*
%TO.P,Q402,1,B*%
%TO.N,Net-(Q402-B)*%
X126146600Y-34712400D03*
%TO.P,Q402,2,E*%
%TO.N,Net-(Q402-E)*%
X124246600Y-34712400D03*
%TO.P,Q402,3,C*%
%TO.N,Net-(Q402-C)*%
X125196600Y-36712400D03*
%TD*%
D12*
%TO.P,R409,1*%
%TO.N,Net-(R409-Pad1)*%
X107010200Y-38482900D03*
%TO.P,R409,2*%
%TO.N,Net-(U403A--)*%
X107010200Y-40307900D03*
%TD*%
%TO.P,R412,1*%
%TO.N,Net-(Q402-E)*%
X124231400Y-38508300D03*
%TO.P,R412,2*%
%TO.N,+12V*%
X124231400Y-40333300D03*
%TD*%
D11*
%TO.P,R206,1*%
%TO.N,Net-(Q201-B)*%
X11975300Y-9119201D03*
%TO.P,R206,2*%
%TO.N,Net-(C202-Pad2)*%
X10150300Y-9119201D03*
%TD*%
D18*
%TO.P,R312,1*%
%TO.N,Net-(U303C--)*%
X101676200Y-17524100D03*
%TO.P,R312,2*%
%TO.N,Net-(U301C--)*%
X101676200Y-15699100D03*
%TD*%
D20*
%TO.P,R307,1*%
%TO.N,Net-(Q302-C)*%
X101041200Y-9906000D03*
%TO.P,R307,2*%
%TO.N,Net-(R307-Pad2)*%
X102866200Y-9906000D03*
%TD*%
D12*
%TO.P,R407,1*%
%TO.N,GND*%
X90373200Y-28297500D03*
%TO.P,R407,2*%
%TO.N,Net-(U402A-+)*%
X90373200Y-30122500D03*
%TD*%
D11*
%TO.P,R430,1*%
%TO.N,Net-(R420-Pad2)*%
X105204900Y-30835600D03*
%TO.P,R430,2*%
%TO.N,Net-(R418-Pad1)*%
X103379900Y-30835600D03*
%TD*%
D12*
%TO.P,R224,1*%
%TO.N,Net-(D206-K)*%
X37412900Y-33809300D03*
%TO.P,R224,2*%
%TO.N,PULSE2_FULL*%
X37412900Y-35634300D03*
%TD*%
D18*
%TO.P,R216,1*%
%TO.N,Net-(U202A--)*%
X23850600Y-29893900D03*
%TO.P,R216,2*%
%TO.N,Net-(C209-Pad2)*%
X23850600Y-28068900D03*
%TD*%
%TO.P,R215,1*%
%TO.N,Net-(C209-Pad2)*%
X15798800Y-30376500D03*
%TO.P,R215,2*%
%TO.N,Net-(Q202-C)*%
X15798800Y-28551500D03*
%TD*%
D11*
%TO.P,R304,1*%
%TO.N,Net-(Q301-B)*%
X86307300Y-21869400D03*
%TO.P,R304,2*%
%TO.N,GND*%
X84482300Y-21869400D03*
%TD*%
D14*
%TO.P,C211,1*%
%TO.N,Net-(U205A-P0W)*%
X54229600Y-35196201D03*
%TO.P,C211,2*%
%TO.N,Net-(C211-Pad2)*%
X54229600Y-37096199D03*
%TD*%
D11*
%TO.P,R317,1*%
%TO.N,Net-(JP301-A)*%
X115898300Y-9550400D03*
%TO.P,R317,2*%
%TO.N,GND*%
X114073300Y-9550400D03*
%TD*%
D12*
%TO.P,R420,1*%
%TO.N,FOLDER_OUT*%
X107188000Y-26113100D03*
%TO.P,R420,2*%
%TO.N,Net-(R420-Pad2)*%
X107188000Y-27938100D03*
%TD*%
D11*
%TO.P,R229,1*%
%TO.N,Net-(U203D-P3W)*%
X54987200Y-8991600D03*
%TO.P,R229,2*%
%TO.N,Net-(U204D--)*%
X53162200Y-8991600D03*
%TD*%
D10*
%TO.P,C217,1*%
%TO.N,GND*%
X62951399Y-12760500D03*
%TO.P,C217,2*%
%TO.N,+3.3V*%
X61051401Y-12760500D03*
%TD*%
D22*
%TO.P,C215,1*%
%TO.N,GND*%
X55488801Y-21131500D03*
%TO.P,C215,2*%
%TO.N,+12V*%
X57388799Y-21131500D03*
%TD*%
D13*
%TO.P,C311,1*%
%TO.N,+12V*%
X110794800Y-11629199D03*
%TO.P,C311,2*%
%TO.N,GND*%
X110794800Y-9729201D03*
%TD*%
D22*
%TO.P,C414,1*%
%TO.N,VCA_IN*%
X82164700Y-35544201D03*
%TO.P,C414,2*%
%TO.N,Net-(C414-Pad2)*%
X84064700Y-35544201D03*
%TD*%
D10*
%TO.P,C216,1*%
%TO.N,GND*%
X68767999Y-21131500D03*
%TO.P,C216,2*%
%TO.N,-12V*%
X66868001Y-21131500D03*
%TD*%
D13*
%TO.P,C304,1*%
%TO.N,+3.3V*%
X123063000Y-11490999D03*
%TO.P,C304,2*%
%TO.N,GND*%
X123063000Y-9591001D03*
%TD*%
D11*
%TO.P,R315,1*%
%TO.N,Net-(D301-A)*%
X91234900Y-9652000D03*
%TO.P,R315,2*%
%TO.N,Net-(D301-K)*%
X89409900Y-9652000D03*
%TD*%
D16*
%TO.P,U403,1*%
%TO.N,Net-(R409-Pad1)*%
X107011500Y-36206200D03*
%TO.P,U403,2,-*%
%TO.N,Net-(U403A--)*%
X108281500Y-36206200D03*
%TO.P,U403,3,+*%
%TO.N,GND*%
X109551500Y-36206200D03*
%TO.P,U403,4,V+*%
%TO.N,+12V*%
X110821500Y-36206200D03*
%TO.P,U403,5,+*%
%TO.N,Net-(U403B-+)*%
X112091500Y-36206200D03*
%TO.P,U403,6,-*%
%TO.N,Net-(Q402-B)*%
X113361500Y-36206200D03*
%TO.P,U403,7*%
X114631500Y-36206200D03*
%TO.P,U403,8*%
%TO.N,Net-(Q404-B)*%
X114631500Y-31256200D03*
%TO.P,U403,9,-*%
%TO.N,Net-(U403C--)*%
X113361500Y-31256200D03*
%TO.P,U403,10,+*%
%TO.N,GND*%
X112091500Y-31256200D03*
%TO.P,U403,11,V-*%
%TO.N,-12V*%
X110821500Y-31256200D03*
%TO.P,U403,12,+*%
%TO.N,GND*%
X109551500Y-31256200D03*
%TO.P,U403,13,-*%
%TO.N,Net-(U403D--)*%
X108281500Y-31256200D03*
%TO.P,U403,14*%
%TO.N,Net-(R420-Pad2)*%
X107011500Y-31256200D03*
%TD*%
D11*
%TO.P,R219,1*%
%TO.N,-12V*%
X31570300Y-42875200D03*
%TO.P,R219,2*%
%TO.N,TRI2_FULL*%
X29745300Y-42875200D03*
%TD*%
D10*
%TO.P,C214,1*%
%TO.N,Net-(U203A-P0W)*%
X58480999Y-13563600D03*
%TO.P,C214,2*%
%TO.N,Net-(C214-Pad2)*%
X56581001Y-13563600D03*
%TD*%
D18*
%TO.P,R225,1*%
%TO.N,Net-(D205-K)*%
X37434700Y-14450700D03*
%TO.P,R225,2*%
%TO.N,PULSE1_FULL*%
X37434700Y-12625700D03*
%TD*%
D11*
%TO.P,R303,1*%
%TO.N,Net-(Q301-B)*%
X86307300Y-25374600D03*
%TO.P,R303,2*%
%TO.N,CUTOFF_CV*%
X84482300Y-25374600D03*
%TD*%
D18*
%TO.P,R222,1*%
%TO.N,Net-(U202C--)*%
X17627600Y-41120700D03*
%TO.P,R222,2*%
%TO.N,TRI2_FULL*%
X17627600Y-39295700D03*
%TD*%
D12*
%TO.P,R209,1*%
%TO.N,GND*%
X32334200Y-11050900D03*
%TO.P,R209,2*%
%TO.N,Net-(U201C-+)*%
X32334200Y-12875900D03*
%TD*%
D11*
%TO.P,R410,1*%
%TO.N,Net-(R409-Pad1)*%
X104722300Y-36728400D03*
%TO.P,R410,2*%
%TO.N,Net-(U403B-+)*%
X102897300Y-36728400D03*
%TD*%
D14*
%TO.P,C203,1*%
%TO.N,SAW1_FULL*%
X28930600Y-11089601D03*
%TO.P,C203,2*%
%TO.N,Net-(U201C-+)*%
X28930600Y-12989599D03*
%TD*%
D20*
%TO.P,R231,1*%
%TO.N,Net-(U204B--)*%
X55373900Y-23926800D03*
%TO.P,R231,2*%
%TO.N,Net-(U203A-P0B)*%
X57198900Y-23926800D03*
%TD*%
D11*
%TO.P,R237,1*%
%TO.N,Net-(U205D-P3W)*%
X51738500Y-30837600D03*
%TO.P,R237,2*%
%TO.N,Net-(U204A--)*%
X49913500Y-30837600D03*
%TD*%
D18*
%TO.P,R211,1*%
%TO.N,GND*%
X19634200Y-18692500D03*
%TO.P,R211,2*%
%TO.N,Net-(U201C--)*%
X19634200Y-16867500D03*
%TD*%
D20*
%TO.P,R302,1*%
%TO.N,-12V*%
X80011900Y-17805400D03*
%TO.P,R302,2*%
%TO.N,Net-(Q301-C)*%
X81836900Y-17805400D03*
%TD*%
D18*
%TO.P,R408,1*%
%TO.N,Net-(R408-Pad1)*%
X88265000Y-34237300D03*
%TO.P,R408,2*%
%TO.N,Net-(Q401-C)*%
X88265000Y-32412300D03*
%TD*%
D11*
%TO.P,R305,1*%
%TO.N,Net-(U303C-+)*%
X100709100Y-20828000D03*
%TO.P,R305,2*%
%TO.N,Net-(U301B--)*%
X98884100Y-20828000D03*
%TD*%
%TO.P,R244,1*%
%TO.N,Net-(C211-Pad2)*%
X45819700Y-12623800D03*
%TO.P,R244,2*%
%TO.N,Net-(U206A--)*%
X43994700Y-12623800D03*
%TD*%
D25*
%TO.P,U206,1*%
%TO.N,Net-(R245-Pad2)*%
X44982100Y-21680400D03*
%TO.P,U206,2,-*%
%TO.N,Net-(U206A--)*%
X43712100Y-21680400D03*
%TO.P,U206,3,+*%
%TO.N,GND*%
X42442100Y-21680400D03*
%TO.P,U206,4,V+*%
%TO.N,+12V*%
X41172100Y-21680400D03*
%TO.P,U206,5,+*%
%TO.N,PWM_1_CV*%
X39902100Y-21680400D03*
%TO.P,U206,6,-*%
%TO.N,SAW1_FULL*%
X38632100Y-21680400D03*
%TO.P,U206,7*%
%TO.N,Net-(D205-A)*%
X37362100Y-21680400D03*
%TO.P,U206,8*%
%TO.N,Net-(D206-A)*%
X37362100Y-26630400D03*
%TO.P,U206,9,-*%
%TO.N,SAW2_FULL*%
X38632100Y-26630400D03*
%TO.P,U206,10,+*%
%TO.N,PWM_2_CV*%
X39902100Y-26630400D03*
%TO.P,U206,11,V-*%
%TO.N,-12V*%
X41172100Y-26630400D03*
%TO.P,U206,12,+*%
%TO.N,unconnected-(U206D-+-Pad12)*%
X42442100Y-26630400D03*
%TO.P,U206,13,-*%
%TO.N,unconnected-(U206D---Pad13)*%
X43712100Y-26630400D03*
%TO.P,U206,14*%
%TO.N,unconnected-(U206-Pad14)*%
X44982100Y-26630400D03*
%TD*%
D15*
%TO.P,D206,1,K*%
%TO.N,Net-(D206-K)*%
X37412900Y-32053800D03*
%TO.P,D206,2,A*%
%TO.N,Net-(D206-A)*%
X37412900Y-28753800D03*
%TD*%
D21*
%TO.P,Q301,1,B*%
%TO.N,Net-(Q301-B)*%
X86299000Y-19821400D03*
%TO.P,Q301,2,E*%
%TO.N,Net-(Q301-E)*%
X88199000Y-19821400D03*
%TO.P,Q301,3,C*%
%TO.N,Net-(Q301-C)*%
X87249000Y-17821400D03*
%TD*%
D14*
%TO.P,C310,1*%
%TO.N,-12V*%
X110794800Y-21605201D03*
%TO.P,C310,2*%
%TO.N,GND*%
X110794800Y-23505199D03*
%TD*%
D12*
%TO.P,R414,1*%
%TO.N,Net-(U403C--)*%
X121031000Y-26951300D03*
%TO.P,R414,2*%
%TO.N,Net-(Q402-C)*%
X121031000Y-28776300D03*
%TD*%
%TO.P,R416,1*%
%TO.N,Net-(Q404-E)*%
X118592600Y-38508300D03*
%TO.P,R416,2*%
%TO.N,+12V*%
X118592600Y-40333300D03*
%TD*%
D21*
%TO.P,Q405,1,B*%
%TO.N,Net-(Q404-B)*%
X120482400Y-30699200D03*
%TO.P,Q405,2,E*%
%TO.N,Net-(Q405-E)*%
X118582400Y-30699200D03*
%TO.P,Q405,3,C*%
%TO.N,Net-(Q404-C)*%
X119532400Y-32699200D03*
%TD*%
D13*
%TO.P,C305,1*%
%TO.N,Net-(U301C--)*%
X121005600Y-23022599D03*
%TO.P,C305,2*%
%TO.N,FILTER_OUT*%
X121005600Y-21122601D03*
%TD*%
D20*
%TO.P,R214,1*%
%TO.N,LEVEL_2_CV*%
X14175100Y-33832800D03*
%TO.P,R214,2*%
%TO.N,Net-(Q202-E)*%
X16000100Y-33832800D03*
%TD*%
D11*
%TO.P,R238,1*%
%TO.N,Net-(U205B-P1W)*%
X51738500Y-27459400D03*
%TO.P,R238,2*%
%TO.N,Net-(U204A--)*%
X49913500Y-27459400D03*
%TD*%
D18*
%TO.P,R223,1*%
%TO.N,PULSE2_FULL*%
X39492099Y-35634300D03*
%TO.P,R223,2*%
%TO.N,GND*%
X39492099Y-33809300D03*
%TD*%
D11*
%TO.P,R424,1*%
%TO.N,Net-(R424-Pad1)*%
X84834100Y-41518801D03*
%TO.P,R424,2*%
%TO.N,Net-(Q406-C)*%
X83009100Y-41518801D03*
%TD*%
D18*
%TO.P,R427,1*%
%TO.N,GND*%
X94979400Y-41501700D03*
%TO.P,R427,2*%
%TO.N,Net-(U402C--)*%
X94979400Y-39676700D03*
%TD*%
D20*
%TO.P,R403,1*%
%TO.N,+12V*%
X71172700Y-27990800D03*
%TO.P,R403,2*%
%TO.N,Net-(U404C--)*%
X72997700Y-27990800D03*
%TD*%
D30*
%TO.P,U204,1*%
%TO.N,Net-(R220-Pad1)*%
X59602600Y-17322800D03*
%TO.P,U204,2,-*%
%TO.N,Net-(U204A--)*%
X59602600Y-18592800D03*
%TO.P,U204,3,+*%
%TO.N,GND*%
X59602600Y-19862800D03*
%TO.P,U204,4,V+*%
%TO.N,+12V*%
X59602600Y-21132800D03*
%TO.P,U204,5,+*%
%TO.N,GND*%
X59602600Y-22402800D03*
%TO.P,U204,6,-*%
%TO.N,Net-(U204B--)*%
X59602600Y-23672800D03*
%TO.P,U204,7*%
%TO.N,Net-(U203A-P0B)*%
X59602600Y-24942800D03*
%TO.P,U204,8*%
%TO.N,Net-(U205A-P0B)*%
X64552600Y-24942800D03*
%TO.P,U204,9,-*%
%TO.N,Net-(U204C--)*%
X64552600Y-23672800D03*
%TO.P,U204,10,+*%
%TO.N,GND*%
X64552600Y-22402800D03*
%TO.P,U204,11,V-*%
%TO.N,-12V*%
X64552600Y-21132800D03*
%TO.P,U204,12,+*%
%TO.N,GND*%
X64552600Y-19862800D03*
%TO.P,U204,13,-*%
%TO.N,Net-(U204D--)*%
X64552600Y-18592800D03*
%TO.P,U204,14*%
%TO.N,Net-(R233-Pad2)*%
X64552600Y-17322800D03*
%TD*%
D14*
%TO.P,C205,1*%
%TO.N,GND*%
X41173400Y-17541201D03*
%TO.P,C205,2*%
%TO.N,+12V*%
X41173400Y-19441199D03*
%TD*%
%TO.P,C403,1*%
%TO.N,+12V*%
X76301600Y-41254602D03*
%TO.P,C403,2*%
%TO.N,GND*%
X76301600Y-43154600D03*
%TD*%
D20*
%TO.P,R306,1*%
%TO.N,Net-(Q302-C)*%
X100992300Y-6604000D03*
%TO.P,R306,2*%
%TO.N,Net-(R306-Pad2)*%
X102817300Y-6604000D03*
%TD*%
D14*
%TO.P,C301,1*%
%TO.N,Net-(C301-Pad1)*%
X92176600Y-20690801D03*
%TO.P,C301,2*%
%TO.N,Net-(Q301-C)*%
X92176600Y-22590799D03*
%TD*%
D16*
%TO.P,U301,1*%
%TO.N,Net-(C301-Pad1)*%
X92169100Y-18313400D03*
%TO.P,U301,2,-*%
%TO.N,Net-(Q301-C)*%
X93439100Y-18313400D03*
%TO.P,U301,3,+*%
%TO.N,GND*%
X94709100Y-18313400D03*
%TO.P,U301,4,V+*%
%TO.N,+12V*%
X95979100Y-18313400D03*
%TO.P,U301,5,+*%
%TO.N,Net-(U301B-+)*%
X97249100Y-18313400D03*
%TO.P,U301,6,-*%
%TO.N,Net-(U301B--)*%
X98519100Y-18313400D03*
%TO.P,U301,7*%
X99789100Y-18313400D03*
%TO.P,U301,8*%
%TO.N,Net-(U301C--)*%
X99789100Y-13363400D03*
%TO.P,U301,9,-*%
X98519100Y-13363400D03*
%TO.P,U301,10,+*%
%TO.N,Net-(U301C-+)*%
X97249100Y-13363400D03*
%TO.P,U301,11,V-*%
%TO.N,-12V*%
X95979100Y-13363400D03*
%TO.P,U301,12,+*%
%TO.N,Net-(U301D-+)*%
X94709100Y-13363400D03*
%TO.P,U301,13,-*%
%TO.N,Net-(D301-A)*%
X93439100Y-13363400D03*
%TO.P,U301,14*%
%TO.N,Net-(D301-K)*%
X92169100Y-13363400D03*
%TD*%
D18*
%TO.P,R426,1*%
%TO.N,GND*%
X91448800Y-41425500D03*
%TO.P,R426,2*%
%TO.N,Net-(U402C-+)*%
X91448800Y-39600500D03*
%TD*%
D16*
%TO.P,U404,1*%
%TO.N,Net-(Q406-B)*%
X72772300Y-38837601D03*
%TO.P,U404,2,-*%
%TO.N,Net-(U404A--)*%
X74042300Y-38837601D03*
%TO.P,U404,3,+*%
%TO.N,GND*%
X75312300Y-38837601D03*
%TO.P,U404,4,V+*%
%TO.N,+12V*%
X76582300Y-38837601D03*
%TO.P,U404,5,+*%
%TO.N,GND*%
X77852300Y-38837601D03*
%TO.P,U404,6,-*%
%TO.N,Net-(U404B--)*%
X79122300Y-38837601D03*
%TO.P,U404,7*%
%TO.N,Net-(R425-Pad2)*%
X80392300Y-38837601D03*
%TO.P,U404,8*%
%TO.N,Net-(Q401-B)*%
X80392300Y-33887601D03*
%TO.P,U404,9,-*%
%TO.N,Net-(U404C--)*%
X79122300Y-33887601D03*
%TO.P,U404,10,+*%
%TO.N,GND*%
X77852300Y-33887601D03*
%TO.P,U404,11,V-*%
%TO.N,-12V*%
X76582300Y-33887601D03*
%TO.P,U404,12,+*%
%TO.N,GND*%
X75312300Y-33887601D03*
%TO.P,U404,13,-*%
%TO.N,unconnected-(U404D---Pad13)*%
X74042300Y-33887601D03*
%TO.P,U404,14*%
%TO.N,unconnected-(U404-Pad14)*%
X72772300Y-33887601D03*
%TD*%
D22*
%TO.P,C208,1*%
%TO.N,CLK_2*%
X6405800Y-26593800D03*
%TO.P,C208,2*%
%TO.N,Net-(C208-Pad2)*%
X8305800Y-26593800D03*
%TD*%
D14*
%TO.P,C302,1*%
%TO.N,-12V*%
X117500400Y-21148001D03*
%TO.P,C302,2*%
%TO.N,GND*%
X117500400Y-23047999D03*
%TD*%
D18*
%TO.P,R217,1*%
%TO.N,Net-(U202C-+)*%
X23901400Y-41146100D03*
%TO.P,R217,2*%
%TO.N,Net-(U202D--)*%
X23901400Y-39321100D03*
%TD*%
D13*
%TO.P,C408,1*%
%TO.N,-12V*%
X110515400Y-29093199D03*
%TO.P,C408,2*%
%TO.N,GND*%
X110515400Y-27193201D03*
%TD*%
D25*
%TO.P,U202,1*%
%TO.N,SAW2_FULL*%
X25527000Y-32119800D03*
%TO.P,U202,2,-*%
%TO.N,Net-(U202A--)*%
X24257000Y-32119800D03*
%TO.P,U202,3,+*%
%TO.N,GND*%
X22987000Y-32119800D03*
%TO.P,U202,4,V+*%
%TO.N,+12V*%
X21717000Y-32119800D03*
%TO.P,U202,5,+*%
%TO.N,GND*%
X20447000Y-32119800D03*
%TO.P,U202,6,-*%
%TO.N,Net-(Q202-E)*%
X19177000Y-32119800D03*
%TO.P,U202,7*%
%TO.N,Net-(C209-Pad2)*%
X17907000Y-32119800D03*
%TO.P,U202,8*%
%TO.N,Net-(D203-A)*%
X17907000Y-37069800D03*
%TO.P,U202,9,-*%
%TO.N,Net-(U202C--)*%
X19177000Y-37069800D03*
%TO.P,U202,10,+*%
%TO.N,Net-(U202C-+)*%
X20447000Y-37069800D03*
%TO.P,U202,11,V-*%
%TO.N,-12V*%
X21717000Y-37069800D03*
%TO.P,U202,12,+*%
%TO.N,GND*%
X22987000Y-37069800D03*
%TO.P,U202,13,-*%
%TO.N,Net-(U202D--)*%
X24257000Y-37069800D03*
%TO.P,U202,14*%
%TO.N,Net-(D204-A)*%
X25527000Y-37069800D03*
%TD*%
D11*
%TO.P,R213,1*%
%TO.N,Net-(Q202-B)*%
X12078300Y-26600400D03*
%TO.P,R213,2*%
%TO.N,Net-(C208-Pad2)*%
X10253300Y-26600400D03*
%TD*%
D20*
%TO.P,R423,1*%
%TO.N,VCA_CV*%
X64136900Y-37439600D03*
%TO.P,R423,2*%
%TO.N,Net-(U404A--)*%
X65961900Y-37439600D03*
%TD*%
D11*
%TO.P,R228,1*%
%TO.N,Net-(U203C-P2W)*%
X54987200Y-12395201D03*
%TO.P,R228,2*%
%TO.N,Net-(U204D--)*%
X53162200Y-12395201D03*
%TD*%
%TO.P,R421,1*%
%TO.N,Net-(U404A--)*%
X68832100Y-32689800D03*
%TO.P,R421,2*%
%TO.N,Net-(Q406-E)*%
X67007100Y-32689800D03*
%TD*%
%TO.P,R415,1*%
%TO.N,Net-(Q404-B)*%
X115669700Y-26822400D03*
%TO.P,R415,2*%
%TO.N,Net-(U403C--)*%
X113844700Y-26822400D03*
%TD*%
D12*
%TO.P,R226,1*%
%TO.N,PULSE1_FULL*%
X39546500Y-12625700D03*
%TO.P,R226,2*%
%TO.N,GND*%
X39546500Y-14450700D03*
%TD*%
D18*
%TO.P,R308,1*%
%TO.N,Net-(U303A--)*%
X108661200Y-11591700D03*
%TO.P,R308,2*%
%TO.N,Net-(U301B--)*%
X108661200Y-9766700D03*
%TD*%
D20*
%TO.P,R311,1*%
%TO.N,LP_IN*%
X80291300Y-7924800D03*
%TO.P,R311,2*%
%TO.N,Net-(U303A--)*%
X82116300Y-7924800D03*
%TD*%
D15*
%TO.P,D203,1,K*%
%TO.N,TRI2_FULL*%
X15341600Y-40258000D03*
%TO.P,D203,2,A*%
%TO.N,Net-(D203-A)*%
X15341600Y-36958000D03*
%TD*%
D12*
%TO.P,R413,1*%
%TO.N,-12V*%
X124256800Y-27205300D03*
%TO.P,R413,2*%
%TO.N,Net-(Q403-E)*%
X124256800Y-29030300D03*
%TD*%
D11*
%TO.P,R309,1*%
%TO.N,GND*%
X87094700Y-10134600D03*
%TO.P,R309,2*%
%TO.N,Net-(U303A--)*%
X85269700Y-10134600D03*
%TD*%
D31*
%TO.N,Net-(C201-Pad2)*%
X24307800Y-3759200D03*
X15621000Y-9423400D03*
%TO.N,CLK_1*%
X37388800Y-41402000D03*
X4851400Y-9118600D03*
%TO.N,SAW1_FULL*%
X59563000Y-16129000D03*
X62890400Y-15646400D03*
X45923200Y-15290800D03*
X33909000Y-17653000D03*
%TO.N,GND*%
X56565800Y-25908000D03*
X99161600Y-26771600D03*
X101828600Y-23672800D03*
X81940400Y-12496800D03*
X21717000Y-3302000D03*
X39547800Y-15722600D03*
X39497000Y-32537400D03*
X106553000Y-8458200D03*
X63957200Y-10642600D03*
X66979800Y-10693400D03*
X20574000Y-20091400D03*
X94005400Y-16459200D03*
X123063000Y-8128000D03*
X84607400Y-16433800D03*
X118872000Y-23952200D03*
X83032600Y-14605000D03*
X68757800Y-22529800D03*
X54229000Y-21132800D03*
X12090400Y-31953200D03*
X95681800Y-7366000D03*
X11912600Y-11049000D03*
X104724200Y-41630600D03*
X100101400Y-41452800D03*
X32334200Y-9829800D03*
X94488000Y-24130000D03*
X113309400Y-33426400D03*
X118084600Y-15367000D03*
X60731400Y-43383200D03*
X59080400Y-6400800D03*
X124764800Y-22987000D03*
X60096400Y-31521400D03*
X110794800Y-8458200D03*
X65582800Y-29464000D03*
X76530200Y-24257000D03*
X60096400Y-26212800D03*
X38506400Y-39649400D03*
X114071400Y-8077200D03*
X87096600Y-8585200D03*
X88747600Y-28295600D03*
X79908400Y-11353800D03*
X59867800Y-12319000D03*
X79171800Y-16179800D03*
X109118400Y-38404800D03*
X109651800Y-25044400D03*
X53111400Y-27660600D03*
X62687200Y-18389600D03*
X22961600Y-33680400D03*
X32334200Y-32385000D03*
X110820200Y-41630600D03*
X54940200Y-4064000D03*
X56489600Y-11861800D03*
X82270600Y-20294600D03*
X74422000Y-43180000D03*
X84505800Y-20294600D03*
X75590400Y-29641800D03*
X21742400Y-26847800D03*
X52705000Y-36118800D03*
X19659600Y-42418000D03*
%TO.N,+12V*%
X96621600Y-16586200D03*
X112547400Y-11607800D03*
X56819800Y-19532600D03*
X125577600Y-21082000D03*
X118592600Y-41554400D03*
X20015200Y-34671000D03*
X109042200Y-42875200D03*
X72237600Y-9347200D03*
X69926200Y-27762200D03*
X39700200Y-18796000D03*
X19329400Y-12039600D03*
X70713600Y-18491200D03*
X77876400Y-41249600D03*
X100939600Y-30149800D03*
%TO.N,-12V*%
X95986600Y-14935200D03*
X62611000Y-21158200D03*
X32893000Y-42875200D03*
X97663000Y-35585400D03*
X110820200Y-33375600D03*
X75361800Y-31673800D03*
X21767800Y-12725400D03*
X28092400Y-24104600D03*
X80406201Y-19024600D03*
X79273400Y-4114800D03*
X39674800Y-28829000D03*
X114071400Y-21605201D03*
X51231800Y-2336800D03*
X21717000Y-35483800D03*
%TO.N,CLK_2*%
X39624000Y-37871400D03*
X7366000Y-29565600D03*
%TO.N,Net-(C209-Pad2)*%
X14097000Y-30378400D03*
X23850600Y-25755600D03*
%TO.N,+3.3V*%
X61112400Y-14325600D03*
X57607200Y-37566600D03*
X119323900Y-6304500D03*
%TO.N,FILTER_OUT*%
X77089000Y-17678400D03*
%TO.N,Net-(U301C-+)*%
X99441000Y-11125200D03*
X113588800Y-16535400D03*
%TO.N,Net-(D301-K)*%
X92176600Y-15976600D03*
X96697800Y-24638000D03*
%TO.N,Net-(U301B-+)*%
X110363000Y-16052800D03*
X100025200Y-16027400D03*
%TO.N,HP_IN*%
X84048600Y-6324600D03*
X93954600Y-6324600D03*
X74193400Y-7035800D03*
%TO.N,FOLDER_IN*%
X70535800Y-25095200D03*
X82346800Y-26187400D03*
X72618600Y-26416000D03*
%TO.N,VCA_IN*%
X75285600Y-16256000D03*
X74777600Y-23698200D03*
D32*
%TO.N,SDA*%
X55372000Y-29083000D03*
X118338600Y-11734800D03*
X59715400Y-3200400D03*
%TO.N,SCL*%
X120497600Y-11455400D03*
X57505600Y-28879800D03*
X61442600Y-3200400D03*
%TO.N,FOLD_FIRST*%
X72339200Y-17602200D03*
X74117200Y-26009600D03*
X63982600Y-35661600D03*
%TO.N,HP_MODE*%
X63627000Y-33274000D03*
%TO.N,PWM_1_CV*%
X40817800Y-39751000D03*
X39954200Y-23876000D03*
%TO.N,PWM_2_CV*%
X43408600Y-35560000D03*
X42494200Y-24384000D03*
%TO.N,CUTOFF_CV*%
X66522600Y-42595800D03*
X84480400Y-26568400D03*
X59365800Y-42119200D03*
%TO.N,FOLD_CV*%
X65455800Y-40462200D03*
X60960000Y-40462200D03*
X71170800Y-32893000D03*
D31*
%TO.N,TRI1_FULL*%
X29768800Y-16713200D03*
X41529000Y-9220200D03*
%TO.N,TRI2_FULL*%
X35661600Y-44500800D03*
X45999400Y-32410400D03*
%TO.N,PULSE2_FULL*%
X45643800Y-29464000D03*
X43815000Y-32715200D03*
%TO.N,Net-(U204A--)*%
X49911000Y-20472400D03*
X49913500Y-29083000D03*
%TO.N,OSC_MIX*%
X69138800Y-6604000D03*
X48310800Y-18491200D03*
X54635400Y-1981200D03*
%TO.N,Net-(U303C-+)*%
X106654600Y-16789400D03*
X102184200Y-20828000D03*
%TO.N,Net-(U301C--)*%
X121031000Y-24257000D03*
X101053900Y-14541500D03*
%TO.N,LP_IN*%
X81432400Y-9728200D03*
%TO.N,FOLDER_OUT*%
X76225400Y-21158200D03*
%TO.N,Net-(U404B--)*%
X100965000Y-39725600D03*
X79248000Y-43103800D03*
%TO.N,Net-(R425-Pad2)*%
X86487000Y-39878000D03*
X81000600Y-40284400D03*
%TO.N,Net-(C211-Pad2)*%
X47498000Y-12623800D03*
X47091600Y-34493200D03*
%TO.N,Net-(U301D-+)*%
X119862600Y-17348200D03*
X92228681Y-8128875D03*
%TO.N,FILTER_IN*%
X67030600Y-17602200D03*
X77901800Y-9118600D03*
X71062678Y-22962800D03*
X69672200Y-13792200D03*
%TO.N,Net-(U205A-P0B)*%
X56438800Y-31699200D03*
X59385200Y-29768800D03*
%TO.N,Net-(U204D--)*%
X66707656Y-16009256D03*
X54356000Y-13690600D03*
%TD*%
D33*
%TO.N,Net-(Q201-E)*%
X18412299Y-11379200D02*
X19201100Y-10590399D01*
X16076300Y-11379200D02*
X18412299Y-11379200D01*
X19201100Y-10590399D02*
X19201100Y-9615400D01*
X19201100Y-9615400D02*
X19201100Y-6234499D01*
X19466600Y-5918201D02*
X19491999Y-5943600D01*
X19201100Y-6234499D02*
X19491999Y-5943600D01*
X19466600Y-4098800D02*
X19466600Y-5918201D01*
%TO.N,Net-(C201-Pad2)*%
X24282400Y-5488300D02*
X24282400Y-3784600D01*
X24282400Y-3784600D02*
X24307800Y-3759200D01*
X15621000Y-9423400D02*
X15621000Y-8075300D01*
X16244800Y-7999100D02*
X17592001Y-6651899D01*
X17931100Y-6282699D02*
X17592001Y-5943600D01*
X17931100Y-9615400D02*
X17931100Y-6282699D01*
X15621000Y-8075300D02*
X15544800Y-7999100D01*
X17592001Y-6651899D02*
X17592001Y-5943600D01*
X15544800Y-7999100D02*
X16244800Y-7999100D01*
%TO.N,CLK_1*%
X47218600Y-46588600D02*
X47218600Y-44323000D01*
X47218600Y-44323000D02*
X44297600Y-41402000D01*
X44297600Y-41402000D02*
X37388800Y-41402000D01*
X48517500Y-47887500D02*
X47218600Y-46588600D01*
X4851400Y-9118600D02*
X6439500Y-9118600D01*
%TO.N,Net-(C202-Pad2)*%
X8339500Y-9118600D02*
X10149699Y-9118600D01*
X10149699Y-9118600D02*
X10150300Y-9119201D01*
X10134600Y-12547600D02*
X10134600Y-9134901D01*
X10134600Y-9134901D02*
X10150300Y-9119201D01*
%TO.N,SAW1_FULL*%
X28930600Y-7112000D02*
X27306900Y-5488300D01*
X32842200Y-7645400D02*
X28930600Y-7645400D01*
X62141399Y-12046612D02*
X62141399Y-14567199D01*
X62484000Y-14909800D02*
X62890400Y-15316200D01*
X61670600Y-11575813D02*
X62141399Y-12046612D01*
X28930600Y-11089601D02*
X28930600Y-7645400D01*
X46151800Y-15519400D02*
X45923200Y-15290800D01*
X38632100Y-22759700D02*
X37871400Y-23520400D01*
X59563000Y-16129000D02*
X58953400Y-15519400D01*
X28930600Y-11089601D02*
X27025301Y-11089601D01*
X61670600Y-10644600D02*
X61670600Y-11575813D01*
X37185600Y-9194800D02*
X34391600Y-9194800D01*
X38632100Y-21680400D02*
X38632100Y-22759700D01*
X58953400Y-15519400D02*
X46151800Y-15519400D01*
X35052000Y-23520400D02*
X33299400Y-21767800D01*
X28930600Y-7645400D02*
X28930600Y-7112000D01*
X27025301Y-11089601D02*
X25551100Y-9615400D01*
X37871400Y-23520400D02*
X35052000Y-23520400D01*
X27306900Y-5488300D02*
X26339800Y-5488300D01*
X62890400Y-15316200D02*
X62890400Y-15646400D01*
X34391600Y-9194800D02*
X32842200Y-7645400D01*
X33299400Y-21767800D02*
X33299400Y-18262600D01*
X34391600Y-17170400D02*
X34391600Y-9194800D01*
X33909000Y-17653000D02*
X34391600Y-17170400D01*
X62141399Y-14567199D02*
X62484000Y-14909800D01*
X33299400Y-18262600D02*
X33909000Y-17653000D01*
%TO.N,Net-(U201C-+)*%
X20644200Y-14738500D02*
X20644200Y-17291400D01*
X23671100Y-16738800D02*
X23671100Y-13545706D01*
X23001899Y-17665401D02*
X23799800Y-16867500D01*
X32220501Y-12989599D02*
X32334200Y-12875900D01*
X23671100Y-13545706D02*
X24237406Y-12979400D01*
X20644200Y-17291400D02*
X21018201Y-17665401D01*
X21018201Y-17665401D02*
X23001899Y-17665401D01*
X24237406Y-12979400D02*
X24247605Y-12989599D01*
X20471100Y-14565400D02*
X20644200Y-14738500D01*
X24247605Y-12989599D02*
X28930600Y-12989599D01*
X23799800Y-16867500D02*
X23671100Y-16738800D01*
X28930600Y-12989599D02*
X32220501Y-12989599D01*
%TO.N,Net-(U202C-+)*%
X23065100Y-40309800D02*
X21182312Y-40309800D01*
X27635200Y-38938200D02*
X31038800Y-38938200D01*
X32334200Y-35507300D02*
X29045501Y-35507300D01*
X23901400Y-41146100D02*
X24481500Y-41726200D01*
X20669600Y-37292400D02*
X20447000Y-37069800D01*
X26752200Y-41726200D02*
X26949400Y-41529000D01*
X20669600Y-39797088D02*
X20669600Y-37292400D01*
X21182312Y-40309800D02*
X20669600Y-39797088D01*
X31038800Y-38938200D02*
X32334200Y-37642800D01*
X26949400Y-39624000D02*
X27635200Y-38938200D01*
X24481500Y-41726200D02*
X26752200Y-41726200D01*
X26949400Y-41529000D02*
X26949400Y-39624000D01*
X23901400Y-41146100D02*
X23065100Y-40309800D01*
X32334200Y-37642800D02*
X32334200Y-35507300D01*
X29045501Y-35507300D02*
X29032200Y-35493999D01*
%TO.N,Net-(U206A--)*%
X43712100Y-21680400D02*
X43712100Y-18646800D01*
X43712100Y-18646800D02*
X44983400Y-17375500D01*
X44020100Y-12598400D02*
X43994700Y-12623800D01*
X44983400Y-13766800D02*
X44983400Y-17375500D01*
X44020100Y-9296400D02*
X44020100Y-12598400D01*
X43994700Y-12778100D02*
X44983400Y-13766800D01*
X43994700Y-12623800D02*
X43994700Y-12778100D01*
%TO.N,GND*%
X76301600Y-43154600D02*
X74447400Y-43154600D01*
X77852300Y-33887601D02*
X78152299Y-33587602D01*
X117967799Y-23047999D02*
X118872000Y-23952200D01*
X118552200Y-14165198D02*
X118552200Y-13495100D01*
X75012301Y-41865301D02*
X76301600Y-43154600D01*
X103682800Y-23467700D02*
X103657400Y-23493100D01*
X75840651Y-37334251D02*
X75312300Y-37862602D01*
X56200400Y-27525600D02*
X56200400Y-26273400D01*
X53246400Y-27525600D02*
X53111400Y-27660600D01*
X76294102Y-36880800D02*
X77089000Y-36880800D01*
X114073300Y-9550400D02*
X114073300Y-8079100D01*
X62970600Y-4919600D02*
X62970600Y-10644600D01*
X22987000Y-33705800D02*
X22961600Y-33680400D01*
X62970600Y-12741299D02*
X62951399Y-12760500D01*
X60100400Y-34864699D02*
X59496999Y-35468100D01*
X119202200Y-18288000D02*
X119202200Y-19220100D01*
X39492099Y-32542301D02*
X39497000Y-32537400D01*
X75747802Y-29799202D02*
X75590400Y-29641800D01*
X55488801Y-21131500D02*
X54230300Y-21131500D01*
X59070600Y-6391000D02*
X59080400Y-6400800D01*
X119542199Y-14542600D02*
X118929602Y-14542600D01*
X52705000Y-34796000D02*
X52705000Y-36118800D01*
X23011100Y-6719501D02*
X21742400Y-5450801D01*
X57120600Y-11230800D02*
X56489600Y-11861800D01*
X76294102Y-36880800D02*
X75840651Y-37334251D01*
X32334200Y-33682300D02*
X32334200Y-32385000D01*
X56265000Y-4064000D02*
X54940200Y-4064000D01*
X87094700Y-10134600D02*
X87094700Y-8587100D01*
X77852300Y-35050700D02*
X77852300Y-33887601D01*
X59602600Y-22402800D02*
X56760101Y-22402800D01*
X61217500Y-45347500D02*
X61217500Y-43869300D01*
X77470000Y-37261800D02*
X77089000Y-36880800D01*
X94513400Y-22590799D02*
X94513400Y-24104600D01*
X56200400Y-26273400D02*
X56565800Y-25908000D01*
X67499299Y-19862800D02*
X68767999Y-21131500D01*
X123113800Y-22997199D02*
X124754601Y-22997199D01*
X59070600Y-4919600D02*
X59070600Y-6391000D01*
X117252200Y-13495100D02*
X117252200Y-14534600D01*
X110820200Y-40345399D02*
X110820200Y-41630600D01*
X60577599Y-22402800D02*
X59602600Y-22402800D01*
X42442100Y-21680400D02*
X42442100Y-18809901D01*
X75312300Y-35053300D02*
X75742800Y-35483800D01*
X61217500Y-43869300D02*
X60731400Y-43383200D01*
X64552600Y-22402800D02*
X68630800Y-22402800D01*
X75312300Y-38837601D02*
X75012301Y-39137600D01*
X56760101Y-22402800D02*
X55488801Y-21131500D01*
X104722300Y-40055800D02*
X104722300Y-41628700D01*
X117902200Y-19220100D02*
X117902200Y-18550002D01*
X124754601Y-22997199D02*
X124764800Y-22987000D01*
X84482300Y-21869400D02*
X84482300Y-20318100D01*
X21742400Y-18755399D02*
X21742400Y-18923000D01*
X102008300Y-23493100D02*
X101828600Y-23672800D01*
X19722499Y-41183599D02*
X19659600Y-41120700D01*
X118279602Y-18172600D02*
X119086800Y-18172600D01*
X109551500Y-36206200D02*
X109551500Y-37971700D01*
X54250400Y-33250600D02*
X52705000Y-34796000D01*
X64552600Y-19862800D02*
X67499299Y-19862800D01*
X54230300Y-21131500D02*
X54229000Y-21132800D01*
X20471100Y-9615400D02*
X20471100Y-6722101D01*
X62970600Y-10644600D02*
X62970600Y-12741299D01*
X21742400Y-3327400D02*
X21717000Y-3302000D01*
X94709100Y-18313400D02*
X94709100Y-17162900D01*
X54250400Y-27525600D02*
X53246400Y-27525600D01*
X11959600Y-12547600D02*
X11959600Y-11096000D01*
X11959600Y-11096000D02*
X11912600Y-11049000D01*
X39497000Y-32420599D02*
X39497000Y-32537400D01*
X119852200Y-13495100D02*
X119852200Y-14232599D01*
X77852300Y-37644100D02*
X77470000Y-37261800D01*
X68767999Y-22519601D02*
X68757800Y-22529800D01*
X80899000Y-20296500D02*
X82268700Y-20296500D01*
X109251500Y-30956200D02*
X109251500Y-28457101D01*
X21742400Y-5450801D02*
X21742400Y-3327400D01*
X95885000Y-28297500D02*
X99124101Y-28297500D01*
X41173400Y-30744199D02*
X39497000Y-32420599D01*
X119086800Y-18172600D02*
X119202200Y-18288000D01*
X60100400Y-27525600D02*
X60100400Y-26216800D01*
X39546500Y-14450700D02*
X39546500Y-15721300D01*
X99161600Y-28260001D02*
X99161600Y-26771600D01*
X75012301Y-39137600D02*
X75012301Y-41865301D01*
X77063600Y-29799202D02*
X75747802Y-29799202D01*
X118909000Y-14542600D02*
X118084600Y-15367000D01*
X74447400Y-43154600D02*
X74422000Y-43180000D01*
X117902200Y-18550002D02*
X118279602Y-18172600D01*
X94709100Y-17162900D02*
X94005400Y-16459200D01*
X112091500Y-31256200D02*
X112091500Y-32208500D01*
X57120600Y-4919600D02*
X56265000Y-4064000D01*
X112091500Y-32208500D02*
X113309400Y-33426400D01*
X68767999Y-21131500D02*
X68767999Y-22519601D01*
X77852300Y-38837601D02*
X77852300Y-37644100D01*
X60100400Y-31525400D02*
X60096400Y-31521400D01*
X62970600Y-10644600D02*
X63955200Y-10644600D01*
X99124101Y-28297500D02*
X99161600Y-28260001D01*
X110794800Y-9729201D02*
X110794800Y-8458200D01*
X77419200Y-35483800D02*
X77852300Y-35050700D01*
X78152299Y-33587602D02*
X78152299Y-30887901D01*
X114073300Y-8079100D02*
X114071400Y-8077200D01*
X19634200Y-18692500D02*
X21679501Y-18692500D01*
X20447000Y-29301401D02*
X21717000Y-28031401D01*
X59602600Y-19862800D02*
X60577599Y-19862800D01*
X110794800Y-23505199D02*
X107047699Y-23505199D01*
X109651800Y-24648199D02*
X110794800Y-23505199D01*
X75312300Y-37862602D02*
X75312300Y-38837601D01*
X22961600Y-33680400D02*
X22961600Y-32145200D01*
X84482300Y-20318100D02*
X84505800Y-20294600D01*
X117252200Y-14534600D02*
X118084600Y-15367000D01*
X60100400Y-33250600D02*
X60100400Y-31525400D01*
X60100400Y-33250600D02*
X60100400Y-34864699D01*
X95644301Y-9247500D02*
X95681800Y-9210001D01*
X109551500Y-31256200D02*
X109251500Y-30956200D01*
X109251500Y-28457101D02*
X110515400Y-27193201D01*
X94513400Y-24104600D02*
X94488000Y-24130000D01*
X107047699Y-23505199D02*
X107010200Y-23467700D01*
X68630800Y-22402800D02*
X68757800Y-22529800D01*
X21679501Y-18692500D02*
X21742400Y-18755399D01*
X106553000Y-9741300D02*
X106553000Y-9601200D01*
X109651800Y-25044400D02*
X109651800Y-24648199D01*
X39492099Y-33809300D02*
X39492099Y-32542301D01*
X117500400Y-23047999D02*
X117967799Y-23047999D01*
X118929602Y-14542600D02*
X118909000Y-14542600D01*
X41173400Y-17541201D02*
X39547800Y-15915601D01*
X75742800Y-35483800D02*
X77419200Y-35483800D01*
X42442100Y-18809901D02*
X41173400Y-17541201D01*
X110515400Y-27193201D02*
X109651800Y-26329601D01*
X75312300Y-33887601D02*
X75312300Y-35053300D01*
X60100400Y-26216800D02*
X60096400Y-26212800D01*
X22961600Y-32145200D02*
X22987000Y-32119800D01*
X21717000Y-41183599D02*
X19722499Y-41183599D01*
X123063000Y-9591001D02*
X123063000Y-8128000D01*
X78152299Y-30887901D02*
X77063600Y-29799202D01*
X32334200Y-11050900D02*
X32334200Y-9829800D01*
X21717000Y-26873200D02*
X21742400Y-26847800D01*
X63955200Y-10644600D02*
X63957200Y-10642600D01*
X39546500Y-15721300D02*
X39547800Y-15722600D01*
X118929602Y-14542600D02*
X118552200Y-14165198D01*
X67032500Y-29464000D02*
X65582800Y-29464000D01*
X19659600Y-41120700D02*
X19659600Y-42418000D01*
X39547800Y-15915601D02*
X39547800Y-15722600D01*
X12078300Y-31941100D02*
X12090400Y-31953200D01*
X88749500Y-28297500D02*
X88747600Y-28295600D01*
X103657400Y-23493100D02*
X102008300Y-23493100D01*
X109551500Y-37971700D02*
X109118400Y-38404800D01*
X85283000Y-15758200D02*
X84607400Y-16433800D01*
X82268700Y-20296500D02*
X82270600Y-20294600D01*
X21742400Y-18923000D02*
X20574000Y-20091400D01*
X100074100Y-41425500D02*
X100101400Y-41452800D01*
X20447000Y-32119800D02*
X20447000Y-29301401D01*
X22987000Y-37069800D02*
X22987000Y-33705800D01*
X60909200Y-22071199D02*
X60577599Y-22402800D01*
X95681800Y-9210001D02*
X95681800Y-7366000D01*
X91448800Y-41425500D02*
X100074100Y-41425500D01*
X60577599Y-19862800D02*
X60909200Y-20194401D01*
X93421200Y-9247500D02*
X95644301Y-9247500D01*
X87094700Y-8587100D02*
X87096600Y-8585200D01*
X119852200Y-14232599D02*
X119542199Y-14542600D01*
X90373200Y-28297500D02*
X88749500Y-28297500D01*
X23011100Y-14565400D02*
X23011100Y-9615400D01*
X60370600Y-10644600D02*
X60370600Y-11816200D01*
X12078300Y-30073600D02*
X12078300Y-31941100D01*
X21717000Y-28031401D02*
X21717000Y-26873200D01*
X109651800Y-26329601D02*
X109651800Y-25044400D01*
X85283000Y-15505700D02*
X85283000Y-15758200D01*
X104722300Y-41628700D02*
X104724200Y-41630600D01*
X57120600Y-10644600D02*
X57120600Y-11230800D01*
X106553000Y-9741300D02*
X106553000Y-8458200D01*
X23011100Y-9615400D02*
X23011100Y-6719501D01*
X119202200Y-19220100D02*
X119202200Y-21346199D01*
X60909200Y-20194401D02*
X60909200Y-22071199D01*
X20471100Y-6722101D02*
X21742400Y-5450801D01*
X119202200Y-21346199D02*
X117500400Y-23047999D01*
X60370600Y-11816200D02*
X59867800Y-12319000D01*
D34*
%TO.N,+12V*%
X121236699Y-19220100D02*
X123113800Y-21097201D01*
X97688400Y-31633199D02*
X99161600Y-30159999D01*
X110794800Y-11629199D02*
X112526001Y-11629199D01*
X94513400Y-20690801D02*
X95979100Y-19225101D01*
X123113800Y-21097201D02*
X125562399Y-21097201D01*
X21742400Y-9614100D02*
X21741100Y-9615400D01*
X95979100Y-19225101D02*
X95979100Y-18313400D01*
X95979100Y-18313400D02*
X95979100Y-17228700D01*
X100929401Y-30159999D02*
X100939600Y-30149800D01*
X121152200Y-19220100D02*
X121236699Y-19220100D01*
X110820200Y-36207500D02*
X110821500Y-36206200D01*
X71172700Y-27990800D02*
X70154800Y-27990800D01*
X76582300Y-38837601D02*
X76582300Y-40973902D01*
X21741100Y-10516900D02*
X20167600Y-12090400D01*
X77871398Y-41254602D02*
X77876400Y-41249600D01*
X70154800Y-27990800D02*
X69926200Y-27762200D01*
X41173400Y-21679100D02*
X41172100Y-21680400D01*
X59602600Y-21132800D02*
X57390099Y-21132800D01*
X21717000Y-29931399D02*
X21717000Y-32119800D01*
X41173400Y-19441199D02*
X40345399Y-19441199D01*
X110820200Y-38445401D02*
X110820200Y-36207500D01*
X95979100Y-17228700D02*
X96621600Y-16586200D01*
X57388799Y-20101599D02*
X56819800Y-19532600D01*
X111633000Y-13882600D02*
X111633000Y-12467399D01*
X99161600Y-30159999D02*
X100929401Y-30159999D01*
X40345399Y-19441199D02*
X39700200Y-18796000D01*
X124231400Y-40333300D02*
X118592600Y-40333300D01*
X125562399Y-21097201D02*
X125577600Y-21082000D01*
X76301600Y-41254602D02*
X77871398Y-41254602D01*
X112526001Y-11629199D02*
X112547400Y-11607800D01*
X109042200Y-40223401D02*
X109042200Y-42875200D01*
X20167600Y-12090400D02*
X19380200Y-12090400D01*
X57388799Y-21131500D02*
X57388799Y-20101599D01*
X110820200Y-38445401D02*
X109042200Y-40223401D01*
X21717000Y-32969200D02*
X20015200Y-34671000D01*
X21742400Y-7350799D02*
X21742400Y-9614100D01*
X76582300Y-40973902D02*
X76301600Y-41254602D01*
X21741100Y-9615400D02*
X21741100Y-10516900D01*
X111633000Y-12467399D02*
X110794800Y-11629199D01*
X21717000Y-32119800D02*
X21717000Y-32969200D01*
X41173400Y-19441199D02*
X41173400Y-21679100D01*
X97688400Y-32272200D02*
X97688400Y-31633199D01*
X118592600Y-40333300D02*
X118592600Y-41554400D01*
X19380200Y-12090400D02*
X19329400Y-12039600D01*
X57390099Y-21132800D02*
X57388799Y-21131500D01*
%TO.N,-12V*%
X31570300Y-42875200D02*
X32893000Y-42875200D01*
X21767800Y-14538700D02*
X21741100Y-14565400D01*
X118552200Y-20096201D02*
X117500400Y-21148001D01*
X31417900Y-20779100D02*
X28092400Y-24104600D01*
X41172100Y-26630400D02*
X41172100Y-28842901D01*
X115935799Y-21148001D02*
X115478599Y-21605201D01*
X80011900Y-17805400D02*
X80011900Y-18630299D01*
X117805200Y-25450800D02*
X122502300Y-25450800D01*
X51231800Y-2336800D02*
X52705000Y-863600D01*
X95979100Y-13363400D02*
X95979100Y-11407299D01*
X110821500Y-29399299D02*
X110515400Y-29093199D01*
X21741100Y-16854101D02*
X21742400Y-16855401D01*
X39690001Y-28844201D02*
X39674800Y-28829000D01*
X52705000Y-863600D02*
X76022200Y-863600D01*
X117500400Y-21148001D02*
X115935799Y-21148001D01*
X110820200Y-33375600D02*
X110820200Y-31257500D01*
X62611000Y-21158200D02*
X64527200Y-21158200D01*
X64552600Y-21132800D02*
X66866701Y-21132800D01*
X66866701Y-21132800D02*
X66868001Y-21131500D01*
X118552200Y-19220100D02*
X118552200Y-20096201D01*
X97688400Y-37222200D02*
X97688400Y-35610800D01*
X21717000Y-39283601D02*
X21717000Y-37069800D01*
X122502300Y-25450800D02*
X124256800Y-27205300D01*
X117805200Y-26976700D02*
X117805200Y-25450800D01*
X110820200Y-31257500D02*
X110821500Y-31256200D01*
X116763800Y-25450800D02*
X117805200Y-25450800D01*
X110821500Y-31256200D02*
X110821500Y-29399299D01*
X97688400Y-35610800D02*
X97663000Y-35585400D01*
X41173400Y-28844201D02*
X39690001Y-28844201D01*
X95979100Y-14927700D02*
X95986600Y-14935200D01*
X111633000Y-20767001D02*
X111633000Y-18832600D01*
X95979100Y-13363400D02*
X95979100Y-14927700D01*
X80011900Y-18630299D02*
X80406201Y-19024600D01*
X97688400Y-39165401D02*
X97214600Y-39639201D01*
X97688400Y-37222200D02*
X97688400Y-39165401D01*
X76582300Y-32180500D02*
X77063600Y-31699200D01*
X76022200Y-863600D02*
X79273400Y-4114800D01*
X31417900Y-20243800D02*
X31417900Y-20779100D01*
X114071400Y-21605201D02*
X115478599Y-21605201D01*
X110794800Y-21605201D02*
X114071400Y-21605201D01*
X75387200Y-31699200D02*
X75361800Y-31673800D01*
X76582300Y-33887601D02*
X76582300Y-32180500D01*
X64527200Y-21158200D02*
X64552600Y-21132800D01*
X21717000Y-37069800D02*
X21717000Y-35483800D01*
X41172100Y-28842901D02*
X41173400Y-28844201D01*
X77063600Y-31699200D02*
X75387200Y-31699200D01*
X21767800Y-12725400D02*
X21767800Y-14538700D01*
X115478599Y-24165599D02*
X115478599Y-21605201D01*
X116763800Y-25450800D02*
X115478599Y-24165599D01*
X95979100Y-11407299D02*
X95681800Y-11109999D01*
X21741100Y-14565400D02*
X21741100Y-16854101D01*
X110794800Y-21605201D02*
X111633000Y-20767001D01*
D33*
%TO.N,CLK_2*%
X6405800Y-28605400D02*
X6405800Y-26593800D01*
X49809400Y-43535600D02*
X44145200Y-37871400D01*
X44145200Y-37871400D02*
X39624000Y-37871400D01*
X49809400Y-46639400D02*
X49809400Y-43535600D01*
X51057500Y-47887500D02*
X49809400Y-46639400D01*
X7366000Y-29565600D02*
X6405800Y-28605400D01*
%TO.N,Net-(C208-Pad2)*%
X10253300Y-26600400D02*
X10253300Y-30073600D01*
X10246700Y-26593800D02*
X10253300Y-26600400D01*
X8305800Y-26593800D02*
X10246700Y-26593800D01*
%TO.N,Net-(Q202-E)*%
X19177000Y-33094799D02*
X19177000Y-32119800D01*
X18438999Y-33832800D02*
X19177000Y-33094799D01*
X19593600Y-28524199D02*
X19593599Y-28524200D01*
X16000100Y-33832800D02*
X18438999Y-33832800D01*
X19177000Y-28940799D02*
X19593599Y-28524200D01*
X19177000Y-32119800D02*
X19177000Y-28940799D01*
X19593600Y-26603200D02*
X19593600Y-28524199D01*
%TO.N,Net-(C209-Pad2)*%
X15841301Y-30376500D02*
X15798800Y-30376500D01*
X17907000Y-32119800D02*
X16163700Y-30376500D01*
X16163700Y-30376500D02*
X15798800Y-30376500D01*
X17693601Y-28524200D02*
X15841301Y-30376500D01*
X23850600Y-28068900D02*
X23850600Y-25755600D01*
X14097000Y-30378400D02*
X15796900Y-30378400D01*
X15796900Y-30378400D02*
X15798800Y-30376500D01*
%TO.N,SAW2_FULL*%
X25527000Y-32119800D02*
X27001201Y-33594001D01*
X44856400Y-34264600D02*
X44856400Y-31572200D01*
X37719000Y-24714200D02*
X32410400Y-24714200D01*
X38632100Y-26630400D02*
X38632100Y-25627300D01*
X32359600Y-30276800D02*
X29032200Y-30276800D01*
X38632100Y-25627300D02*
X37719000Y-24714200D01*
X38632100Y-29005500D02*
X38632100Y-26630400D01*
X58800400Y-33991410D02*
X58496200Y-34295610D01*
X39268400Y-29768800D02*
X38633400Y-29133800D01*
X26824300Y-28068900D02*
X27940000Y-29184600D01*
X38633400Y-29006800D02*
X38632100Y-29005500D01*
X27001201Y-33594001D02*
X29032200Y-33594001D01*
X29032200Y-30276800D02*
X29032200Y-33594001D01*
X27940000Y-29184600D02*
X29032200Y-30276800D01*
X44856400Y-31572200D02*
X43053000Y-29768800D01*
X57378600Y-39243000D02*
X49834800Y-39243000D01*
X58496200Y-34295610D02*
X58496200Y-38125400D01*
X58800400Y-33250600D02*
X58800400Y-33991410D01*
X58496200Y-38125400D02*
X57378600Y-39243000D01*
X49834800Y-39243000D02*
X44856400Y-34264600D01*
X43053000Y-29768800D02*
X39268400Y-29768800D01*
X38633400Y-29133800D02*
X38633400Y-29006800D01*
X32410400Y-24714200D02*
X27940000Y-29184600D01*
X25958800Y-28068900D02*
X26824300Y-28068900D01*
%TO.N,Net-(D205-K)*%
X37362100Y-16206200D02*
X37362100Y-14523300D01*
X37362100Y-14523300D02*
X37434700Y-14450700D01*
%TO.N,Net-(D205-A)*%
X37362100Y-21680400D02*
X37362100Y-19506200D01*
D34*
%TO.N,+3.3V*%
X61051401Y-14264601D02*
X61112400Y-14325600D01*
X117252200Y-18422722D02*
X121152200Y-14522722D01*
X61051401Y-12760500D02*
X61051401Y-14264601D01*
X60909200Y-9194800D02*
X61020600Y-9306200D01*
X121152200Y-13401799D02*
X123063000Y-11490999D01*
X56850400Y-33250600D02*
X58150400Y-33250600D01*
X119323900Y-9552400D02*
X121124401Y-9552400D01*
X59720600Y-9316600D02*
X59842400Y-9194800D01*
X61020600Y-10644600D02*
X61020600Y-12729699D01*
X57607200Y-37566600D02*
X57607200Y-35478299D01*
X121124401Y-9552400D02*
X123063000Y-11490999D01*
X57607200Y-35478299D02*
X57597001Y-35468100D01*
X59842400Y-9194800D02*
X60909200Y-9194800D01*
X117252200Y-19220100D02*
X117252200Y-18422722D01*
X57597001Y-35468100D02*
X57597001Y-33347201D01*
X121152200Y-13495100D02*
X121152200Y-13401799D01*
X57597001Y-33347201D02*
X57500400Y-33250600D01*
X121152200Y-14522722D02*
X121152200Y-13495100D01*
X61020600Y-9306200D02*
X61020600Y-10644600D01*
X119323900Y-9552400D02*
X119323900Y-6304500D01*
X59720600Y-10644600D02*
X59720600Y-9316600D01*
X61020600Y-12729699D02*
X61051401Y-12760500D01*
D33*
%TO.N,Net-(C301-Pad1)*%
X91226601Y-21640800D02*
X92176600Y-20690801D01*
X92176600Y-18320900D02*
X92169100Y-18313400D01*
X92176600Y-20690801D02*
X92176600Y-18320900D01*
X90117300Y-21640800D02*
X91226601Y-21640800D01*
%TO.N,Net-(Q301-C)*%
X84886800Y-14427200D02*
X88646000Y-14427200D01*
X93439100Y-21328299D02*
X93439100Y-18313400D01*
X90220800Y-16002000D02*
X90220800Y-16814800D01*
X93439100Y-17338401D02*
X93439100Y-18313400D01*
X87249000Y-17821400D02*
X89214200Y-17821400D01*
X81836900Y-17805400D02*
X81836900Y-17477100D01*
X92176600Y-22590799D02*
X93439100Y-21328299D01*
X88646000Y-14427200D02*
X90220800Y-16002000D01*
X92915499Y-16814800D02*
X93439100Y-17338401D01*
X81836900Y-17477100D02*
X84886800Y-14427200D01*
X89214200Y-17821400D02*
X90220800Y-16814800D01*
X90220800Y-16814800D02*
X92915499Y-16814800D01*
%TO.N,Net-(U301B--)*%
X100948112Y-16560800D02*
X102641400Y-16560800D01*
X98884100Y-20828000D02*
X98884100Y-18678400D01*
X98884100Y-18678400D02*
X98519100Y-18313400D01*
X99789100Y-17719812D02*
X100948112Y-16560800D01*
X103200200Y-14401800D02*
X101930200Y-13131800D01*
X102768400Y-4673600D02*
X104698800Y-4673600D01*
X103200200Y-16002000D02*
X103200200Y-14401800D01*
X104698800Y-4673600D02*
X108661200Y-8636000D01*
X99789100Y-18313400D02*
X99789100Y-17719812D01*
X108661200Y-8636000D02*
X108661200Y-9766700D01*
X101930200Y-5511800D02*
X102768400Y-4673600D01*
X98519100Y-18313400D02*
X99789100Y-18313400D01*
X101930200Y-13131800D02*
X101930200Y-5511800D01*
X102641400Y-16560800D02*
X103200200Y-16002000D01*
%TO.N,FILTER_OUT*%
X77089000Y-17678400D02*
X77724000Y-17043400D01*
X77724000Y-17043400D02*
X77698600Y-17018000D01*
X121005600Y-21122601D02*
X120502200Y-20619201D01*
X81915000Y-5334000D02*
X86309200Y-939800D01*
X79070200Y-10083800D02*
X79070200Y-8382000D01*
X120502200Y-20619201D02*
X120502200Y-19220100D01*
X125399800Y-13258800D02*
X120502200Y-18156400D01*
X77698600Y-17018000D02*
X77698600Y-11455400D01*
X77698600Y-11455400D02*
X79070200Y-10083800D01*
X86309200Y-939800D02*
X118440200Y-939800D01*
X72313800Y-6477000D02*
X73456800Y-5334000D01*
X75971400Y-7543800D02*
X75285600Y-8229600D01*
X73406000Y-8229600D02*
X72313800Y-7137400D01*
X72313800Y-7137400D02*
X72313800Y-6477000D01*
X75285600Y-8229600D02*
X73406000Y-8229600D01*
X78232000Y-7543800D02*
X75971400Y-7543800D01*
X73456800Y-5334000D02*
X81915000Y-5334000D01*
X120502200Y-18156400D02*
X120502200Y-19220100D01*
X118440200Y-939800D02*
X125399800Y-7899400D01*
X125399800Y-7899400D02*
X125399800Y-13258800D01*
X79070200Y-8382000D02*
X78232000Y-7543800D01*
%TO.N,Net-(U301C-+)*%
X97891600Y-11109999D02*
X99425799Y-11109999D01*
X110363000Y-18832600D02*
X110363000Y-17907000D01*
X97249100Y-13363400D02*
X97249100Y-11752499D01*
X97249100Y-11752499D02*
X97891600Y-11109999D01*
X111734600Y-16535400D02*
X113588800Y-16535400D01*
X99425799Y-11109999D02*
X99441000Y-11125200D01*
X110363000Y-17907000D02*
X111734600Y-16535400D01*
%TO.N,Net-(D301-K)*%
X92169100Y-13363400D02*
X92169100Y-15969100D01*
X89409900Y-5105001D02*
X89384899Y-5080000D01*
X92169100Y-15969100D02*
X92176600Y-15976600D01*
X89409900Y-9652000D02*
X89409900Y-5105001D01*
X89409900Y-10604200D02*
X92169100Y-13363400D01*
X96697800Y-24638000D02*
X96697800Y-22590799D01*
X89409900Y-9652000D02*
X89409900Y-10604200D01*
%TO.N,Net-(U301B-+)*%
X97249100Y-17508100D02*
X98729800Y-16027400D01*
X98729800Y-16027400D02*
X100025200Y-16027400D01*
X97249100Y-18389600D02*
X97249100Y-17508100D01*
X97249100Y-18313400D02*
X97249100Y-18389600D01*
X97249100Y-20139501D02*
X96697800Y-20690801D01*
X110363000Y-16052800D02*
X110363000Y-13882600D01*
X97249100Y-18313400D02*
X97249100Y-20139501D01*
%TO.N,HP_IN*%
X93980000Y-6350000D02*
X93954600Y-6324600D01*
X74193400Y-7035800D02*
X74904600Y-6324600D01*
X97891600Y-9210001D02*
X97891600Y-7594600D01*
X97891600Y-7594600D02*
X96647000Y-6350000D01*
X96647000Y-6350000D02*
X93980000Y-6350000D01*
X74904600Y-6324600D02*
X84048600Y-6324600D01*
%TO.N,Net-(U404C--)*%
X79122300Y-27813600D02*
X79173700Y-27762200D01*
X79122300Y-33887601D02*
X79122300Y-27813600D01*
X72997700Y-31318200D02*
X72997700Y-27990800D01*
X72997700Y-27990800D02*
X78945100Y-27990800D01*
X78945100Y-27990800D02*
X79173700Y-27762200D01*
%TO.N,Net-(Q401-E)*%
X80998700Y-27762200D02*
X80998700Y-29489400D01*
X86167400Y-30540200D02*
X85116600Y-29489400D01*
X80899000Y-22121500D02*
X79656300Y-22121500D01*
X80998700Y-29489400D02*
X80998700Y-31270501D01*
X80998700Y-26744300D02*
X80998700Y-27762200D01*
X80998700Y-31270501D02*
X81036200Y-31308001D01*
X79656300Y-22121500D02*
X78841600Y-22936200D01*
X86522600Y-30540200D02*
X86167400Y-30540200D01*
X78841600Y-22936200D02*
X78841600Y-24587200D01*
X85116600Y-29489400D02*
X80998700Y-29489400D01*
X80998700Y-22221200D02*
X80899000Y-22121500D01*
X78841600Y-24587200D02*
X80998700Y-26744300D01*
%TO.N,FOLDER_IN*%
X71856600Y-26416000D02*
X70535800Y-25095200D01*
X72618600Y-26416000D02*
X71856600Y-26416000D01*
X83616800Y-27457400D02*
X82346800Y-26187400D01*
X88381800Y-26365200D02*
X87289600Y-27457400D01*
X87289600Y-27457400D02*
X83616800Y-27457400D01*
%TO.N,Net-(C406-Pad2)*%
X91844500Y-26365200D02*
X93776800Y-28297500D01*
X90281800Y-26365200D02*
X91844500Y-26365200D01*
%TO.N,Net-(U404A--)*%
X68832100Y-33402900D02*
X67614800Y-34620200D01*
X74042300Y-38837601D02*
X74042300Y-37900000D01*
X68832100Y-32689800D02*
X68832100Y-33402900D01*
X66429299Y-37906999D02*
X65961900Y-37439600D01*
X74042300Y-37900000D02*
X68832100Y-32689800D01*
X69265800Y-37906999D02*
X67614800Y-37906999D01*
X67614800Y-34620200D02*
X67614800Y-37906999D01*
X67614800Y-37906999D02*
X66429299Y-37906999D01*
%TO.N,Net-(Q406-B)*%
X72527200Y-41153801D02*
X72527200Y-39082701D01*
X72527200Y-39082701D02*
X72772300Y-38837601D01*
X72096400Y-38837601D02*
X72772300Y-38837601D01*
X69265800Y-36007001D02*
X72096400Y-38837601D01*
%TO.N,VCA_IN*%
X79781400Y-32588200D02*
X80086200Y-32283400D01*
X80419206Y-35544201D02*
X79781400Y-34906395D01*
X80086200Y-32283400D02*
X80086200Y-27025600D01*
X74904600Y-23571200D02*
X74777600Y-23698200D01*
X74777600Y-24333200D02*
X74777600Y-23698200D01*
X74904600Y-16637000D02*
X74904600Y-23571200D01*
X80086200Y-27025600D02*
X78689200Y-25628600D01*
X75285600Y-16256000D02*
X74904600Y-16637000D01*
X82164700Y-35544201D02*
X80419206Y-35544201D01*
X78689200Y-25628600D02*
X76073000Y-25628600D01*
X79781400Y-34906395D02*
X79781400Y-32588200D01*
X76073000Y-25628600D02*
X74777600Y-24333200D01*
%TO.N,Net-(C414-Pad2)*%
X82196300Y-37632601D02*
X82196300Y-37412601D01*
X82196300Y-37412601D02*
X84064700Y-35544201D01*
%TO.N,Net-(D201-A)*%
X25921900Y-14936200D02*
X29768800Y-14936200D01*
X25551100Y-14565400D02*
X25921900Y-14936200D01*
%TO.N,Net-(D202-A)*%
X17931100Y-14565400D02*
X17280900Y-15215600D01*
X17280900Y-15215600D02*
X15163800Y-15215600D01*
%TO.N,Net-(D203-A)*%
X17907000Y-37069800D02*
X15453400Y-37069800D01*
X15453400Y-37069800D02*
X15341600Y-36958000D01*
%TO.N,Net-(D204-A)*%
X26986000Y-37069800D02*
X25527000Y-37069800D01*
X30302200Y-37618400D02*
X27534600Y-37618400D01*
X27534600Y-37618400D02*
X26986000Y-37069800D01*
%TO.N,Net-(D301-A)*%
X91259901Y-9626999D02*
X91234900Y-9652000D01*
X91259901Y-5080000D02*
X91259901Y-9626999D01*
X92655400Y-11072500D02*
X91234900Y-9652000D01*
X93439100Y-13363400D02*
X93439100Y-11090400D01*
X93421200Y-11072500D02*
X92655400Y-11072500D01*
X93439100Y-11090400D02*
X93421200Y-11072500D01*
D35*
%TO.N,SDA*%
X59715400Y-3200400D02*
X59715400Y-4914400D01*
X59715400Y-4914400D02*
X59720600Y-4919600D01*
X55372000Y-29083000D02*
X56030499Y-29083000D01*
X119202200Y-13495100D02*
X119202200Y-12598400D01*
X56850400Y-28263099D02*
X56850400Y-27525600D01*
X119202200Y-12598400D02*
X118338600Y-11734800D01*
X56030499Y-29083000D02*
X56850400Y-28263099D01*
%TO.N,SCL*%
X60370600Y-4919600D02*
X60370600Y-4272400D01*
X57505600Y-27530800D02*
X57500400Y-27525600D01*
X60370600Y-4272400D02*
X61442600Y-3200400D01*
X120502200Y-11764800D02*
X120502200Y-13495100D01*
X120497600Y-11455400D02*
X120497600Y-11760200D01*
X57505600Y-28879800D02*
X57505600Y-27530800D01*
X120497600Y-11760200D02*
X120502200Y-11764800D01*
%TO.N,FOLD_FIRST*%
X74117200Y-26009600D02*
X73761600Y-25654000D01*
X73761600Y-19024600D02*
X72339200Y-17602200D01*
X63982600Y-35661600D02*
X63220600Y-35661600D01*
X57378600Y-41503600D02*
X57378600Y-46646400D01*
X63220600Y-35661600D02*
X57378600Y-41503600D01*
X57378600Y-46646400D02*
X56137500Y-47887500D01*
X73761600Y-25654000D02*
X73761600Y-19024600D01*
%TO.N,HP_MODE*%
X63627000Y-34061400D02*
X54838600Y-42849800D01*
X63627000Y-33274000D02*
X63627000Y-34061400D01*
X54838600Y-42849800D02*
X54838600Y-46646400D01*
X54838600Y-46646400D02*
X53597500Y-47887500D01*
D36*
%TO.N,LEVEL_1_CV*%
X16433800Y-46329600D02*
X4470400Y-34366200D01*
X43437500Y-45347500D02*
X38091500Y-45347500D01*
X36957000Y-46482000D02*
X16433800Y-46482000D01*
X4470400Y-23114000D02*
X14274800Y-13309600D01*
X16433800Y-46482000D02*
X16433800Y-46329600D01*
X14251300Y-11379200D02*
X14251300Y-13286100D01*
X4470400Y-34366200D02*
X4470400Y-23114000D01*
X14251300Y-13286100D02*
X14274800Y-13309600D01*
X38091500Y-45347500D02*
X36957000Y-46482000D01*
%TO.N,LEVEL_2_CV*%
X43200400Y-42570400D02*
X45977500Y-45347500D01*
X13284200Y-42164000D02*
X16687800Y-45567600D01*
X39344600Y-42570400D02*
X43200400Y-42570400D01*
X36347400Y-45567600D02*
X39344600Y-42570400D01*
X14175100Y-35050100D02*
X13284200Y-35941000D01*
X14175100Y-33832800D02*
X14175100Y-35050100D01*
X13284200Y-35941000D02*
X13284200Y-42164000D01*
X16687800Y-45567600D02*
X36347400Y-45567600D01*
%TO.N,PWM_1_CV*%
X39954200Y-23876000D02*
X39902100Y-23823900D01*
X39902100Y-23823900D02*
X39902100Y-21680400D01*
X48517500Y-45347500D02*
X48517500Y-43945500D01*
X44323000Y-39751000D02*
X40817800Y-39751000D01*
X48517500Y-43945500D02*
X44323000Y-39751000D01*
%TO.N,PWM_2_CV*%
X40767000Y-24384000D02*
X42494200Y-24384000D01*
X39902100Y-26630400D02*
X39902100Y-25248900D01*
X39902100Y-25248900D02*
X40767000Y-24384000D01*
X51057500Y-42167500D02*
X44589700Y-35699700D01*
X43408600Y-35560000D02*
X44450000Y-35560000D01*
X44450000Y-35560000D02*
X44589700Y-35699700D01*
X51057500Y-45347500D02*
X51057500Y-42167500D01*
%TO.N,CUTOFF_CV*%
X59651200Y-41833800D02*
X59365800Y-42119200D01*
X65760600Y-41833800D02*
X66522600Y-42595800D01*
X84480400Y-25376500D02*
X84482300Y-25374600D01*
X59651200Y-41833800D02*
X65760600Y-41833800D01*
X84480400Y-26568400D02*
X84480400Y-25376500D01*
%TO.N,FOLD_CV*%
X71170800Y-32893000D02*
X71170800Y-31320100D01*
X60960000Y-40462200D02*
X65455800Y-40462200D01*
X71170800Y-31320100D02*
X71172700Y-31318200D01*
%TO.N,VCA_CV*%
X64136900Y-37439600D02*
X62738000Y-37439600D01*
X58140600Y-42037000D02*
X58140600Y-44810600D01*
X58140600Y-44810600D02*
X58677500Y-45347500D01*
X62738000Y-37439600D02*
X58140600Y-42037000D01*
D33*
%TO.N,VCA_OUT*%
X68478400Y-45643800D02*
X84480400Y-45643800D01*
X87833200Y-42291000D02*
X87833200Y-41679500D01*
X58677500Y-47887500D02*
X60057500Y-46507500D01*
X67614700Y-46507500D02*
X68478400Y-45643800D01*
X60057500Y-46507500D02*
X67614700Y-46507500D01*
X84480400Y-45643800D02*
X87833200Y-42291000D01*
%TO.N,Net-(Q201-B)*%
X14007901Y-7086600D02*
X11975300Y-9119201D01*
X17566600Y-4098800D02*
X16637000Y-5028400D01*
X16637000Y-5028400D02*
X16637000Y-6773288D01*
X16637000Y-6773288D02*
X16323688Y-7086600D01*
X16323688Y-7086600D02*
X14007901Y-7086600D01*
%TO.N,Net-(Q201-C)*%
X16881600Y-2098800D02*
X16865600Y-2082800D01*
X18516600Y-2098800D02*
X16881600Y-2098800D01*
X15544800Y-6174100D02*
X15544800Y-3403600D01*
X15544800Y-3403600D02*
X16865600Y-2082800D01*
%TO.N,Net-(Q202-B)*%
X18872200Y-23037800D02*
X13944600Y-23037800D01*
X19608800Y-25069800D02*
X19608800Y-23774400D01*
X12065000Y-24917400D02*
X12065000Y-25247600D01*
X12078300Y-25260900D02*
X12078300Y-26600400D01*
X13944600Y-23037800D02*
X12065000Y-24917400D01*
X12065000Y-25247600D02*
X12078300Y-25260900D01*
X18075400Y-26603200D02*
X19608800Y-25069800D01*
X19608800Y-23774400D02*
X18872200Y-23037800D01*
X17693600Y-26603200D02*
X18075400Y-26603200D01*
%TO.N,Net-(Q202-C)*%
X18023600Y-24603200D02*
X15798800Y-26828000D01*
X15798800Y-26828000D02*
X15798800Y-28551500D01*
X18643600Y-24603200D02*
X18023600Y-24603200D01*
%TO.N,Net-(Q301-B)*%
X86299000Y-25366300D02*
X86307300Y-25374600D01*
X86299000Y-19821400D02*
X86299000Y-25366300D01*
%TO.N,Net-(Q301-E)*%
X88292300Y-21640800D02*
X88292300Y-19914700D01*
X87779000Y-19821400D02*
X86360000Y-18402400D01*
X86360000Y-16328700D02*
X87183000Y-15505700D01*
X88292300Y-19914700D02*
X88199000Y-19821400D01*
X86360000Y-18402400D02*
X86360000Y-16328700D01*
X88199000Y-19821400D02*
X87779000Y-19821400D01*
%TO.N,Net-(Q302-C)*%
X86233000Y-6426200D02*
X88950800Y-3708400D01*
X101041200Y-6652900D02*
X100992300Y-6604000D01*
X88950800Y-3708400D02*
X98096700Y-3708400D01*
X98096700Y-3708400D02*
X100992300Y-6604000D01*
X101041200Y-9906000D02*
X101041200Y-6652900D01*
X86233000Y-13505700D02*
X86233000Y-6426200D01*
%TO.N,Net-(Q401-B)*%
X81132901Y-33147000D02*
X83464400Y-33147000D01*
X83464400Y-33147000D02*
X84622600Y-31988800D01*
X80392300Y-33887601D02*
X81132901Y-33147000D01*
X84622600Y-31988800D02*
X84622600Y-30540200D01*
%TO.N,Net-(Q401-C)*%
X88265000Y-30612600D02*
X86192600Y-28540200D01*
X88265000Y-32412300D02*
X88265000Y-30612600D01*
X86192600Y-28540200D02*
X85572600Y-28540200D01*
%TO.N,Net-(Q402-B)*%
X113361500Y-36206200D02*
X114631500Y-36206200D01*
X126161800Y-40843200D02*
X126146600Y-40828000D01*
X123748800Y-43256200D02*
X126161800Y-40843200D01*
X126146600Y-30750000D02*
X126146600Y-34712400D01*
X126146600Y-40828000D02*
X126146600Y-34712400D01*
X114631500Y-36206200D02*
X114631500Y-40412700D01*
X117475000Y-43256200D02*
X123748800Y-43256200D01*
X114631500Y-40412700D02*
X117475000Y-43256200D01*
%TO.N,Net-(Q402-E)*%
X124246600Y-34712400D02*
X124246600Y-38493100D01*
X124246600Y-38493100D02*
X124231400Y-38508300D01*
%TO.N,Net-(Q402-C)*%
X121031000Y-28776300D02*
X121031000Y-29288800D01*
X125196600Y-36712400D02*
X125196600Y-32750000D01*
X121031000Y-29288800D02*
X124492200Y-32750000D01*
X124492200Y-32750000D02*
X125196600Y-32750000D01*
%TO.N,Net-(Q403-E)*%
X124256800Y-30739800D02*
X124246600Y-30750000D01*
X124256800Y-29030300D02*
X124256800Y-30739800D01*
%TO.N,Net-(Q404-B)*%
X115125300Y-31750000D02*
X119431600Y-31750000D01*
X119431600Y-31750000D02*
X120482400Y-30699200D01*
X114631500Y-27860600D02*
X115669700Y-26822400D01*
X114631500Y-31256200D02*
X114631500Y-27860600D01*
X120482400Y-30699200D02*
X120482400Y-34712400D01*
X114631500Y-31256200D02*
X115125300Y-31750000D01*
%TO.N,Net-(Q404-E)*%
X118592600Y-38508300D02*
X118592600Y-34722600D01*
X118592600Y-34722600D02*
X118582400Y-34712400D01*
%TO.N,Net-(Q404-C)*%
X119532400Y-36712400D02*
X119532400Y-32699200D01*
X116781700Y-32699200D02*
X116586000Y-32894900D01*
X119532400Y-32699200D02*
X116781700Y-32699200D01*
%TO.N,Net-(Q405-E)*%
X118582400Y-30699200D02*
X118582400Y-29578900D01*
X118582400Y-29578900D02*
X117805200Y-28801700D01*
%TO.N,Net-(Q406-E)*%
X68164713Y-41153801D02*
X70627200Y-41153801D01*
X68857500Y-29464000D02*
X68857500Y-30839400D01*
X64998600Y-34698300D02*
X64998600Y-37987688D01*
X67007100Y-32689800D02*
X64998600Y-34698300D01*
X68857500Y-30839400D02*
X67007100Y-32689800D01*
X64998600Y-37987688D02*
X68164713Y-41153801D01*
%TO.N,Net-(Q406-C)*%
X81838800Y-44348400D02*
X83009100Y-43178100D01*
X71577200Y-43153801D02*
X72771799Y-44348400D01*
X72771799Y-44348400D02*
X81838800Y-44348400D01*
X83009100Y-43178100D02*
X83009100Y-41518801D01*
%TO.N,Net-(U201D--)*%
X25732100Y-16991399D02*
X25732100Y-18262600D01*
X23799800Y-18692500D02*
X25302200Y-18692500D01*
X24281100Y-15540399D02*
X25732100Y-16991399D01*
X25302200Y-18692500D02*
X25732100Y-18262600D01*
X24281100Y-14565400D02*
X24281100Y-15540399D01*
%TO.N,Net-(U201C--)*%
X19201100Y-16434400D02*
X19634200Y-16867500D01*
X19201100Y-14565400D02*
X19201100Y-16434400D01*
X17602200Y-18692500D02*
X17809200Y-18692500D01*
X17809200Y-18692500D02*
X19634200Y-16867500D01*
%TO.N,TRI1_FULL*%
X15954100Y-18515600D02*
X17602200Y-16867500D01*
X27076400Y-22123400D02*
X28422600Y-22123400D01*
X54076600Y-6604000D02*
X54076600Y-4876800D01*
X25732100Y-20294600D02*
X25732100Y-20779100D01*
X28422600Y-22123400D02*
X29592900Y-20953100D01*
X29592900Y-20243800D02*
X29592900Y-18412100D01*
X25732100Y-20294600D02*
X24766900Y-21259800D01*
X46634400Y-4114800D02*
X41529000Y-9220200D01*
X15163800Y-18515600D02*
X15954100Y-18515600D01*
X29592900Y-20953100D02*
X29592900Y-20243800D01*
X54838600Y-7366000D02*
X54076600Y-6604000D01*
X25732100Y-20779100D02*
X27076400Y-22123400D01*
X24766900Y-21259800D02*
X17908000Y-21259800D01*
X61670600Y-5657099D02*
X59961699Y-7366000D01*
X29592900Y-18412100D02*
X29768800Y-18236200D01*
X15163800Y-18515600D02*
X12370800Y-18515600D01*
X54076600Y-4876800D02*
X53314600Y-4114800D01*
X29768800Y-16713200D02*
X29768800Y-18236200D01*
X59961699Y-7366000D02*
X54838600Y-7366000D01*
X11353800Y-19532600D02*
X11353800Y-20497800D01*
X53314600Y-4114800D02*
X46634400Y-4114800D01*
X61670600Y-4919600D02*
X61670600Y-5657099D01*
X12370800Y-18515600D02*
X11353800Y-19532600D01*
X17908000Y-21259800D02*
X15163800Y-18515600D01*
%TO.N,Net-(U202D--)*%
X24616400Y-39321100D02*
X26011500Y-40716200D01*
X24257000Y-37069800D02*
X24257000Y-38965500D01*
X24257000Y-38965500D02*
X23901400Y-39321100D01*
X23901400Y-39321100D02*
X24616400Y-39321100D01*
%TO.N,Net-(U202C--)*%
X19177000Y-37069800D02*
X19177000Y-38813100D01*
X17834600Y-41120700D02*
X19659600Y-39295700D01*
X17627600Y-41120700D02*
X17834600Y-41120700D01*
X19177000Y-38813100D02*
X19659600Y-39295700D01*
%TO.N,TRI2_FULL*%
X26695400Y-44526200D02*
X28094300Y-44526200D01*
X51403600Y-24936800D02*
X49866200Y-24936800D01*
X35661600Y-44500800D02*
X31370900Y-44500800D01*
X16840200Y-43561000D02*
X15341600Y-42062400D01*
X45999400Y-31572200D02*
X45999400Y-32410400D01*
X44881800Y-28194000D02*
X44069000Y-29006800D01*
X58800400Y-26788101D02*
X56949099Y-24936800D01*
X15341600Y-42062400D02*
X15341600Y-40258000D01*
X25325700Y-43561000D02*
X16840200Y-43561000D01*
X31370900Y-44500800D02*
X29745300Y-42875200D01*
X26011500Y-42875200D02*
X26011500Y-43842300D01*
X56949099Y-24936800D02*
X51403600Y-24936800D01*
X49866200Y-24936800D02*
X48412400Y-26390600D01*
X46609000Y-28194000D02*
X44881800Y-28194000D01*
X16665300Y-40258000D02*
X17627600Y-39295700D01*
X26011500Y-42875200D02*
X25325700Y-43561000D01*
X26011500Y-43842300D02*
X26695400Y-44526200D01*
X15341600Y-40258000D02*
X16665300Y-40258000D01*
X44069000Y-29006800D02*
X44069000Y-29641800D01*
X44069000Y-29641800D02*
X45999400Y-31572200D01*
X29745300Y-42875200D02*
X29745300Y-41475300D01*
X29745300Y-41475300D02*
X30302200Y-40918400D01*
X28094300Y-44526200D02*
X29745300Y-42875200D01*
X35661600Y-44500800D02*
X35661600Y-38227000D01*
X35661600Y-38227000D02*
X35331400Y-37896800D01*
X48412400Y-26390600D02*
X46609000Y-28194000D01*
X58800400Y-27525600D02*
X58800400Y-26788101D01*
%TO.N,PULSE2_FULL*%
X55550400Y-26788101D02*
X54467099Y-25704800D01*
X43815000Y-32715200D02*
X40895900Y-35634300D01*
X40895900Y-35634300D02*
X39492099Y-35634300D01*
X46329600Y-29464000D02*
X45643800Y-29464000D01*
X54467099Y-25704800D02*
X50088800Y-25704800D01*
X55550400Y-27525600D02*
X55550400Y-26788101D01*
X50088800Y-25704800D02*
X46329600Y-29464000D01*
X37412900Y-35634300D02*
X39492099Y-35634300D01*
%TO.N,PULSE1_FULL*%
X37434700Y-12625700D02*
X39546500Y-12625700D01*
X39546500Y-7976900D02*
X44119800Y-3403600D01*
X53086000Y-3403600D02*
X53492400Y-2997200D01*
X58420600Y-4182101D02*
X58420600Y-4919600D01*
X57235699Y-2997200D02*
X58420600Y-4182101D01*
X39546500Y-12625700D02*
X39546500Y-7976900D01*
X53492400Y-2997200D02*
X57235699Y-2997200D01*
X44119800Y-3403600D02*
X53086000Y-3403600D01*
%TO.N,Net-(U203C-P2W)*%
X54987200Y-12395201D02*
X54987200Y-11103600D01*
X62320600Y-8853600D02*
X62320600Y-10644600D01*
X54987200Y-11103600D02*
X57480200Y-8610600D01*
X62077600Y-8610600D02*
X62320600Y-8853600D01*
X57480200Y-8610600D02*
X62077600Y-8610600D01*
%TO.N,Net-(U204C--)*%
X71562688Y-24053800D02*
X69644900Y-24053800D01*
X73304400Y-22312088D02*
X71562688Y-24053800D01*
X67536700Y-23672800D02*
X68781300Y-24917400D01*
X73304400Y-20904200D02*
X73304400Y-22312088D01*
X69644900Y-24053800D02*
X68781300Y-24917400D01*
X64552600Y-23672800D02*
X67536700Y-23672800D01*
X72059800Y-20220300D02*
X72620500Y-20220300D01*
X72620500Y-20220300D02*
X73304400Y-20904200D01*
%TO.N,Net-(U203A-P0W)*%
X57770600Y-12853201D02*
X57770600Y-10644600D01*
X58480999Y-13563600D02*
X57770600Y-12853201D01*
%TO.N,Net-(U203B-P1W)*%
X57770600Y-4919600D02*
X57770600Y-5589698D01*
X57770600Y-5589698D02*
X57238898Y-6121400D01*
X55444399Y-6121400D02*
X54987200Y-5664201D01*
X57238898Y-6121400D02*
X55444399Y-6121400D01*
%TO.N,Net-(U203D-P3W)*%
X54987200Y-8991600D02*
X56028600Y-7950200D01*
X60731400Y-7950200D02*
X62320600Y-6361000D01*
X62320600Y-6361000D02*
X62320600Y-4919600D01*
X56028600Y-7950200D02*
X60731400Y-7950200D01*
%TO.N,Net-(U204B--)*%
X55373900Y-23926800D02*
X54383300Y-23926800D01*
X56389900Y-22910800D02*
X55373900Y-23926800D01*
X54383300Y-23926800D02*
X51892200Y-21435700D01*
X57708800Y-22910800D02*
X56389900Y-22910800D01*
X59602600Y-23672800D02*
X58470800Y-23672800D01*
X58470800Y-23672800D02*
X57708800Y-22910800D01*
%TO.N,Net-(U204A--)*%
X55526300Y-17449800D02*
X55526300Y-18149800D01*
X49913500Y-29083000D02*
X49913500Y-34190400D01*
X49913500Y-27459400D02*
X49913500Y-29083000D01*
X55526300Y-18149800D02*
X53203700Y-20472400D01*
X56669300Y-18592800D02*
X59602600Y-18592800D01*
X55526300Y-17449800D02*
X56669300Y-18592800D01*
X53203700Y-20472400D02*
X49911000Y-20472400D01*
%TO.N,Net-(U205A-P0W)*%
X54229600Y-35196201D02*
X54900400Y-34525401D01*
X54900400Y-34525401D02*
X54900400Y-33250600D01*
%TO.N,Net-(U205B-P1W)*%
X51738500Y-27459400D02*
X51738500Y-27684700D01*
X54521098Y-28575000D02*
X54900400Y-28195698D01*
X54900400Y-28195698D02*
X54900400Y-27525600D01*
X51738500Y-27684700D02*
X52628800Y-28575000D01*
X52628800Y-28575000D02*
X54521098Y-28575000D01*
%TO.N,Net-(U205C-P2W)*%
X51738500Y-33503900D02*
X54533800Y-30708600D01*
X57578498Y-30708600D02*
X59450400Y-32580502D01*
X54533800Y-30708600D02*
X57578498Y-30708600D01*
X51738500Y-34190400D02*
X51738500Y-33503900D01*
X59450400Y-32580502D02*
X59450400Y-33250600D01*
%TO.N,Net-(U205D-P3W)*%
X59450400Y-28195698D02*
X59450400Y-27525600D01*
X57648698Y-29997400D02*
X59450400Y-28195698D01*
X51738500Y-30837600D02*
X52578700Y-29997400D01*
X52578700Y-29997400D02*
X57648698Y-29997400D01*
%TO.N,OSC_MIX*%
X48310800Y-21056600D02*
X48310800Y-18491200D01*
X64516000Y-1981200D02*
X69138800Y-6604000D01*
X49403000Y-23594700D02*
X49403000Y-22148800D01*
X48082200Y-24915500D02*
X49403000Y-23594700D01*
X49403000Y-22148800D02*
X48310800Y-21056600D01*
X54635400Y-1981200D02*
X64516000Y-1981200D01*
%TO.N,Net-(U303C-+)*%
X107823000Y-17957800D02*
X106654600Y-16789400D01*
X102817300Y-20828000D02*
X103657400Y-21668100D01*
X107823000Y-18832600D02*
X107823000Y-17957800D01*
X100709100Y-20828000D02*
X102184200Y-20828000D01*
X102184200Y-20828000D02*
X102817300Y-20828000D01*
%TO.N,Net-(U301C--)*%
X99875800Y-13363400D02*
X101053900Y-14541500D01*
X98519100Y-13363400D02*
X99789100Y-13363400D01*
X99789100Y-13363400D02*
X99875800Y-13363400D01*
X101053900Y-14541500D02*
X101676200Y-15163800D01*
X121005600Y-24231600D02*
X121031000Y-24257000D01*
X101676200Y-15163800D02*
X101676200Y-15699100D01*
X121005600Y-23022599D02*
X121005600Y-24231600D01*
%TO.N,Net-(R306-Pad2)*%
X105283000Y-13882600D02*
X105283000Y-9069700D01*
X105283000Y-9069700D02*
X102817300Y-6604000D01*
%TO.N,Net-(R307-Pad2)*%
X104089200Y-13589000D02*
X104089200Y-17638800D01*
X104089200Y-17638800D02*
X105283000Y-18832600D01*
X102866200Y-9906000D02*
X102866200Y-12366000D01*
X102866200Y-12366000D02*
X104089200Y-13589000D01*
%TO.N,Net-(U303A--)*%
X109702600Y-8432800D02*
X102870000Y-1600200D01*
X88569800Y-1600200D02*
X85242400Y-4927600D01*
X85269700Y-4954900D02*
X85269700Y-10134600D01*
X109093000Y-13882600D02*
X109093000Y-12023500D01*
X109093000Y-12023500D02*
X108661200Y-11591700D01*
X83059900Y-7924800D02*
X85269700Y-10134600D01*
X108661200Y-11591700D02*
X109702600Y-10550300D01*
X85242400Y-4927600D02*
X85269700Y-4954900D01*
X102870000Y-1600200D02*
X88569800Y-1600200D01*
X82116300Y-7924800D02*
X83059900Y-7924800D01*
X109702600Y-10550300D02*
X109702600Y-8432800D01*
%TO.N,Net-(U303A-+)*%
X107823000Y-12836300D02*
X107823000Y-13882600D01*
X106553000Y-11566300D02*
X107823000Y-12836300D01*
%TO.N,LP_IN*%
X81432400Y-9728200D02*
X81432400Y-9065900D01*
X81432400Y-9065900D02*
X80291300Y-7924800D01*
%TO.N,Net-(U303C--)*%
X105794800Y-21642700D02*
X107010200Y-21642700D01*
X109093000Y-19559900D02*
X109093000Y-18832600D01*
X107010200Y-21642700D02*
X109093000Y-19559900D01*
X101676200Y-17524100D02*
X105794800Y-21642700D01*
%TO.N,Net-(U402A--)*%
X95148400Y-32272200D02*
X95148400Y-30859100D01*
X95885000Y-30122500D02*
X93776800Y-30122500D01*
X95148400Y-30859100D02*
X95885000Y-30122500D01*
%TO.N,Net-(U402A-+)*%
X93878400Y-31912506D02*
X92088394Y-30122500D01*
X93878400Y-32272200D02*
X93878400Y-31912506D01*
X92088394Y-30122500D02*
X90373200Y-30122500D01*
%TO.N,Net-(R408-Pad1)*%
X91338400Y-32272200D02*
X89373300Y-34237300D01*
X89373300Y-34237300D02*
X88265000Y-34237300D01*
%TO.N,Net-(R409-Pad1)*%
X106489300Y-36728400D02*
X107011500Y-36206200D01*
X107010200Y-38482900D02*
X107010200Y-36207500D01*
X107010200Y-36207500D02*
X107011500Y-36206200D01*
X104722300Y-36728400D02*
X106489300Y-36728400D01*
%TO.N,Net-(U403A--)*%
X107010200Y-40307900D02*
X108281500Y-39036600D01*
X107137099Y-34086800D02*
X108281500Y-35231201D01*
X108281500Y-39036600D02*
X108281500Y-36206200D01*
X108281500Y-35231201D02*
X108281500Y-36206200D01*
X96418400Y-32272200D02*
X96418400Y-33247199D01*
X97258001Y-34086800D02*
X107137099Y-34086800D01*
X96418400Y-33247199D02*
X97258001Y-34086800D01*
%TO.N,Net-(U403B-+)*%
X112091500Y-38047900D02*
X112091500Y-36206200D01*
X102897300Y-40055800D02*
X102897300Y-42216700D01*
X112928400Y-38887400D02*
X112090200Y-38049200D01*
X112928400Y-41579800D02*
X112928400Y-38887400D01*
X102897300Y-36728400D02*
X102897300Y-40055800D01*
X110312200Y-44196000D02*
X112928400Y-41579800D01*
X104876600Y-44196000D02*
X110312200Y-44196000D01*
X112090200Y-38049200D02*
X112091500Y-38047900D01*
X102897300Y-42216700D02*
X104876600Y-44196000D01*
%TO.N,Net-(U403C--)*%
X113844700Y-27226900D02*
X113334800Y-27736800D01*
X114249200Y-25374600D02*
X113842800Y-25781000D01*
X120067700Y-27914600D02*
X117231712Y-27914600D01*
X113842800Y-25933400D02*
X113844700Y-25935300D01*
X113844700Y-25935300D02*
X113844700Y-26822400D01*
X121031000Y-26951300D02*
X120067700Y-27914600D01*
X113334800Y-27863800D02*
X113361500Y-27890500D01*
X117231712Y-27914600D02*
X116662200Y-27345088D01*
X113334800Y-27736800D02*
X113334800Y-27863800D01*
X113361500Y-28930600D02*
X113361500Y-31256200D01*
X116662200Y-26111200D02*
X115925600Y-25374600D01*
X113842800Y-25781000D02*
X113842800Y-25933400D01*
X116662200Y-27345088D02*
X116662200Y-26111200D01*
X113844700Y-26822400D02*
X113844700Y-27226900D01*
X113361500Y-27890500D02*
X113361500Y-28930600D01*
X115925600Y-25374600D02*
X114249200Y-25374600D01*
%TO.N,Net-(R418-Pad1)*%
X103227500Y-30683200D02*
X103379900Y-30835600D01*
X103227500Y-26670000D02*
X103227500Y-30683200D01*
%TO.N,Net-(U403D--)*%
X108737400Y-29159200D02*
X108281500Y-29615100D01*
X116586000Y-34719900D02*
X110770201Y-34719900D01*
X110770201Y-34719900D02*
X108281500Y-32231199D01*
X105052500Y-26670000D02*
X105408100Y-27025600D01*
X108281500Y-32231199D02*
X108281500Y-31256200D01*
X108077000Y-27025600D02*
X108737400Y-27686000D01*
X105408100Y-27025600D02*
X108077000Y-27025600D01*
X108281500Y-29615100D02*
X108281500Y-31256200D01*
X108737400Y-27686000D02*
X108737400Y-29159200D01*
%TO.N,FOLDER_OUT*%
X85420200Y-26212800D02*
X85420200Y-24801112D01*
X87350600Y-25374600D02*
X87350600Y-26365200D01*
X85953600Y-26746200D02*
X85420200Y-26212800D01*
X81777288Y-21158200D02*
X76225400Y-21158200D01*
X105966900Y-24892000D02*
X98399600Y-24892000D01*
X98399600Y-24892000D02*
X97180400Y-26111200D01*
X85420200Y-24801112D02*
X81777288Y-21158200D01*
X88239600Y-24485600D02*
X87350600Y-25374600D01*
X86969600Y-26746200D02*
X85953600Y-26746200D01*
X97180400Y-26111200D02*
X93929200Y-26111200D01*
X92303600Y-24485600D02*
X88239600Y-24485600D01*
X87350600Y-26365200D02*
X86969600Y-26746200D01*
X93929200Y-26111200D02*
X92303600Y-24485600D01*
X107188000Y-26113100D02*
X105966900Y-24892000D01*
%TO.N,Net-(R424-Pad1)*%
X86512400Y-37236400D02*
X87350600Y-37236400D01*
X84834100Y-41518801D02*
X84834100Y-38914700D01*
X87350600Y-37236400D02*
X87364800Y-37222200D01*
X87364800Y-37222200D02*
X91338400Y-37222200D01*
X84834100Y-38914700D02*
X86512400Y-37236400D01*
%TO.N,Net-(U404B--)*%
X96118401Y-40066890D02*
X96564511Y-40513000D01*
X81000600Y-43117101D02*
X79261301Y-43117101D01*
X96418400Y-37222200D02*
X96118401Y-37522199D01*
X79261301Y-43117101D02*
X79248000Y-43103800D01*
X79122300Y-38837601D02*
X79122300Y-41238801D01*
X100177600Y-40513000D02*
X100965000Y-39725600D01*
X96118401Y-37522199D02*
X96118401Y-40066890D01*
X96564511Y-40513000D02*
X100177600Y-40513000D01*
X79122300Y-41238801D02*
X81000600Y-43117101D01*
%TO.N,Net-(R425-Pad2)*%
X86510500Y-39854500D02*
X86487000Y-39878000D01*
X81000600Y-39445901D02*
X80392300Y-38837601D01*
X81000600Y-41292101D02*
X81000600Y-40284400D01*
X87833200Y-39854500D02*
X86510500Y-39854500D01*
X81000600Y-40284400D02*
X81000600Y-39445901D01*
%TO.N,Net-(U402C-+)*%
X93878400Y-37222200D02*
X93878400Y-38197199D01*
X93878400Y-38197199D02*
X92475099Y-39600500D01*
X92475099Y-39600500D02*
X91448800Y-39600500D01*
%TO.N,Net-(U402C--)*%
X95148400Y-36247201D02*
X95148400Y-37222200D01*
X94979400Y-37557800D02*
X94979400Y-39676700D01*
X84021300Y-37632601D02*
X84795399Y-37632601D01*
X86490800Y-35911800D02*
X86944200Y-35458400D01*
X95148400Y-37222200D02*
X95148400Y-37388800D01*
X95148400Y-37388800D02*
X94979400Y-37557800D01*
X86944200Y-35458400D02*
X94359599Y-35458400D01*
X84795399Y-37632601D02*
X86490800Y-35937200D01*
X86490800Y-35937200D02*
X86490800Y-35911800D01*
X94359599Y-35458400D02*
X95148400Y-36247201D01*
%TO.N,Net-(C211-Pad2)*%
X49694599Y-37096199D02*
X47091600Y-34493200D01*
X47498000Y-12623800D02*
X45819700Y-12623800D01*
X54229600Y-37096199D02*
X49694599Y-37096199D01*
%TO.N,Net-(C214-Pad2)*%
X55565001Y-14579600D02*
X52146200Y-14579600D01*
X45845100Y-9296400D02*
X46863000Y-9296400D01*
X46863000Y-9296400D02*
X52146200Y-14579600D01*
X56581001Y-13563600D02*
X55565001Y-14579600D01*
%TO.N,Net-(R220-Pad1)*%
X53086000Y-16332200D02*
X56233700Y-16332200D01*
X51892200Y-19610700D02*
X51892200Y-17526000D01*
X59475600Y-17449800D02*
X59602600Y-17322800D01*
X56233700Y-16332200D02*
X57351300Y-17449800D01*
X57351300Y-17449800D02*
X59475600Y-17449800D01*
X51892200Y-17526000D02*
X53086000Y-16332200D01*
%TO.N,Net-(U301D-+)*%
X94646800Y-13301100D02*
X94646800Y-10786712D01*
X119862600Y-17348200D02*
X119862600Y-19209700D01*
X93930088Y-10070000D02*
X92732312Y-10070000D01*
X119862600Y-19209700D02*
X119852200Y-19220100D01*
X92228681Y-9566369D02*
X92228681Y-8128875D01*
X94646800Y-10786712D02*
X93930088Y-10070000D01*
X94709100Y-13363400D02*
X94646800Y-13301100D01*
X92732312Y-10070000D02*
X92228681Y-9566369D01*
%TO.N,FILTER_IN*%
X70256400Y-22156522D02*
X70256400Y-20828000D01*
X70256400Y-20828000D02*
X68707000Y-19278600D01*
X71062678Y-22962800D02*
X70256400Y-22156522D01*
X72364600Y-11099800D02*
X75920600Y-11099800D01*
X69672200Y-13792200D02*
X72364600Y-11099800D01*
X75920600Y-11099800D02*
X77901800Y-9118600D01*
X68707000Y-19278600D02*
X67030600Y-17602200D01*
%TO.N,Net-(U205A-P0B)*%
X55550400Y-32513101D02*
X56364301Y-31699200D01*
X59385200Y-29768800D02*
X61976000Y-29768800D01*
X61976000Y-29768800D02*
X64552600Y-27192200D01*
X64552600Y-27192200D02*
X64552600Y-24942800D01*
X64578000Y-24917400D02*
X64552600Y-24942800D01*
X55550400Y-33250600D02*
X55550400Y-32513101D01*
X56364301Y-31699200D02*
X56438800Y-31699200D01*
X66956300Y-24917400D02*
X64578000Y-24917400D01*
%TO.N,Net-(U203A-P0B)*%
X57478300Y-23926800D02*
X58494300Y-24942800D01*
X59969400Y-13512800D02*
X59969400Y-15113000D01*
X61569600Y-16713200D02*
X61569600Y-23950799D01*
X58832800Y-12528600D02*
X58985200Y-12528600D01*
X61569600Y-23950799D02*
X60577599Y-24942800D01*
X58420600Y-10644600D02*
X58420600Y-12116400D01*
X58420600Y-12116400D02*
X58832800Y-12528600D01*
X58985200Y-12528600D02*
X59969400Y-13512800D01*
X59969400Y-15113000D02*
X61569600Y-16713200D01*
X60577599Y-24942800D02*
X59602600Y-24942800D01*
X57198900Y-23926800D02*
X57478300Y-23926800D01*
X58494300Y-24942800D02*
X59602600Y-24942800D01*
%TO.N,Net-(U201A--)*%
X26339800Y-7313300D02*
X24282400Y-7313300D01*
X24281100Y-7314600D02*
X24282400Y-7313300D01*
X24281100Y-9615400D02*
X24281100Y-7314600D01*
%TO.N,Net-(R202-Pad2)*%
X27557100Y-18262600D02*
X27557100Y-20294600D01*
%TO.N,Net-(U202A--)*%
X24257000Y-32119800D02*
X24257000Y-30300300D01*
X24257000Y-30300300D02*
X23850600Y-29893900D01*
X25958800Y-29893900D02*
X23850600Y-29893900D01*
%TO.N,Net-(R218-Pad2)*%
X27836500Y-42875200D02*
X27836500Y-40716200D01*
%TO.N,Net-(R420-Pad2)*%
X105204900Y-30835600D02*
X106590900Y-30835600D01*
X107011500Y-28114600D02*
X107188000Y-27938100D01*
X107011500Y-31256200D02*
X107011500Y-28114600D01*
X106590900Y-30835600D02*
X107011500Y-31256200D01*
%TO.N,Net-(D206-K)*%
X37412900Y-32053800D02*
X37412900Y-33809300D01*
%TO.N,Net-(D206-A)*%
X37362100Y-26630400D02*
X37362100Y-28703000D01*
X37362100Y-28703000D02*
X37412900Y-28753800D01*
%TO.N,Net-(JP301-A)*%
X118023900Y-9552400D02*
X115900300Y-9552400D01*
X115898300Y-10753701D02*
X115898300Y-9550400D01*
X117902200Y-12757601D02*
X115898300Y-10753701D01*
X115900300Y-9552400D02*
X115898300Y-9550400D01*
X117902200Y-13495100D02*
X117902200Y-12757601D01*
%TO.N,Net-(R233-Pad2)*%
X68402200Y-17653000D02*
X68402200Y-13462000D01*
X65430400Y-13157200D02*
X65432300Y-13159100D01*
X71049800Y-21035300D02*
X71049800Y-20300600D01*
X71049800Y-20300600D02*
X68402200Y-17653000D01*
X68402200Y-13462000D02*
X67487800Y-12547600D01*
X65432300Y-13159100D02*
X65432300Y-14249400D01*
X67487800Y-12547600D02*
X66040000Y-12547600D01*
X64552600Y-17322800D02*
X65432300Y-16443100D01*
X65432300Y-16443100D02*
X65432300Y-14249400D01*
X66040000Y-12547600D02*
X65430400Y-13157200D01*
X72059800Y-22045300D02*
X71049800Y-21035300D01*
%TO.N,Net-(U204D--)*%
X64552600Y-18592800D02*
X65527599Y-18592800D01*
X66014600Y-16702312D02*
X66707656Y-16009256D01*
X67257300Y-15459612D02*
X67257300Y-14249400D01*
X53162200Y-12496800D02*
X54356000Y-13690600D01*
X65527599Y-18592800D02*
X66014600Y-18105799D01*
X66014600Y-18105799D02*
X66014600Y-16702312D01*
X66707656Y-16009256D02*
X67257300Y-15459612D01*
X53162200Y-12395201D02*
X53162200Y-12496800D01*
X53162200Y-5664201D02*
X53162200Y-12395201D01*
%TO.N,Net-(R245-Pad2)*%
X48082200Y-23090500D02*
X46392200Y-23090500D01*
X46392200Y-23090500D02*
X44982100Y-21680400D01*
X44983400Y-19200500D02*
X44983400Y-21679100D01*
X44983400Y-21679100D02*
X44982100Y-21680400D01*
%TD*%
M02*
