%TF.GenerationSoftware,KiCad,Pcbnew,8.0.3*%
%TF.CreationDate,2024-07-17T18:03:28-06:00*%
%TF.ProjectId,VoiceBoardR4,566f6963-6542-46f6-9172-6452342e6b69,rev?*%
%TF.SameCoordinates,Original*%
%TF.FileFunction,Copper,L4,Bot*%
%TF.FilePolarity,Positive*%
%FSLAX46Y46*%
G04 Gerber Fmt 4.6, Leading zero omitted, Abs format (unit mm)*
G04 Created by KiCad (PCBNEW 8.0.3) date 2024-07-17 18:03:28*
%MOMM*%
%LPD*%
G01*
G04 APERTURE LIST*
G04 Aperture macros list*
%AMRoundRect*
0 Rectangle with rounded corners*
0 $1 Rounding radius*
0 $2 $3 $4 $5 $6 $7 $8 $9 X,Y pos of 4 corners*
0 Add a 4 corners polygon primitive as box body*
4,1,4,$2,$3,$4,$5,$6,$7,$8,$9,$2,$3,0*
0 Add four circle primitives for the rounded corners*
1,1,$1+$1,$2,$3*
1,1,$1+$1,$4,$5*
1,1,$1+$1,$6,$7*
1,1,$1+$1,$8,$9*
0 Add four rect primitives between the rounded corners*
20,1,$1+$1,$2,$3,$4,$5,0*
20,1,$1+$1,$4,$5,$6,$7,0*
20,1,$1+$1,$6,$7,$8,$9,0*
20,1,$1+$1,$8,$9,$2,$3,0*%
G04 Aperture macros list end*
%TA.AperFunction,ComponentPad*%
%ADD10R,1.800000X1.100000*%
%TD*%
%TA.AperFunction,ComponentPad*%
%ADD11RoundRect,0.275000X0.625000X-0.275000X0.625000X0.275000X-0.625000X0.275000X-0.625000X-0.275000X0*%
%TD*%
%TA.AperFunction,ComponentPad*%
%ADD12R,1.700000X1.700000*%
%TD*%
%TA.AperFunction,ComponentPad*%
%ADD13O,1.700000X1.700000*%
%TD*%
%TA.AperFunction,ComponentPad*%
%ADD14C,1.000000*%
%TD*%
%TA.AperFunction,ComponentPad*%
%ADD15C,1.400000*%
%TD*%
%TA.AperFunction,ComponentPad*%
%ADD16O,1.400000X1.400000*%
%TD*%
%TA.AperFunction,SMDPad,CuDef*%
%ADD17RoundRect,0.100000X-0.637500X-0.100000X0.637500X-0.100000X0.637500X0.100000X-0.637500X0.100000X0*%
%TD*%
%TA.AperFunction,SMDPad,CuDef*%
%ADD18RoundRect,0.250000X0.250000X0.475000X-0.250000X0.475000X-0.250000X-0.475000X0.250000X-0.475000X0*%
%TD*%
%TA.AperFunction,SMDPad,CuDef*%
%ADD19RoundRect,0.250000X-0.250000X-0.475000X0.250000X-0.475000X0.250000X0.475000X-0.250000X0.475000X0*%
%TD*%
%TA.AperFunction,ViaPad*%
%ADD20C,0.600000*%
%TD*%
%TA.AperFunction,ViaPad*%
%ADD21C,0.800000*%
%TD*%
%TA.AperFunction,ViaPad*%
%ADD22C,1.000000*%
%TD*%
%TA.AperFunction,Conductor*%
%ADD23C,0.152400*%
%TD*%
%TA.AperFunction,Conductor*%
%ADD24C,0.304800*%
%TD*%
%TA.AperFunction,Conductor*%
%ADD25C,0.500000*%
%TD*%
G04 APERTURE END LIST*
D10*
%TO.P,U304,1,GND*%
%TO.N,GND*%
X115060000Y-21750000D03*
D11*
%TO.P,U304,2,Vin*%
%TO.N,-12V*%
X112990000Y-20480000D03*
%TO.P,U304,3,Vout*%
%TO.N,-5V*%
X115060000Y-19210000D03*
%TD*%
D12*
%TO.P,U103,1,SDA*%
%TO.N,SDA*%
X43437500Y-47887500D03*
D13*
%TO.P,U103,2,LVL1*%
%TO.N,LEVEL_1_CV*%
X43437500Y-45347500D03*
%TO.P,U103,3,SCL*%
%TO.N,SCL*%
X45977500Y-47887500D03*
%TO.P,U103,4,LVL2*%
%TO.N,LEVEL_2_CV*%
X45977500Y-45347500D03*
%TO.P,U103,5,CLK1*%
%TO.N,CLK_1*%
X48517500Y-47887500D03*
%TO.P,U103,6,PWM1*%
%TO.N,PWM_1_CV*%
X48517500Y-45347500D03*
%TO.P,U103,7,CLK2*%
%TO.N,CLK_2*%
X51057500Y-47887500D03*
%TO.P,U103,8,PWM2*%
%TO.N,PWM_2_CV*%
X51057500Y-45347500D03*
%TO.P,U103,9,HP*%
%TO.N,HP_MODE*%
X53597500Y-47887500D03*
%TO.P,U103,10,FOLD*%
%TO.N,FOLD_CV*%
X53597500Y-45347500D03*
%TO.P,U103,11,FF*%
%TO.N,FOLD_FIRST*%
X56137500Y-47887500D03*
%TO.P,U103,12,VCF*%
%TO.N,CUTOFF_CV*%
X56137500Y-45347500D03*
%TO.P,U103,13,OUT*%
%TO.N,VCA_OUT*%
X58677500Y-47887500D03*
%TO.P,U103,14,VCA*%
%TO.N,VCA_CV*%
X58677500Y-45347500D03*
%TO.P,U103,15,+3V3*%
%TO.N,+3.3V*%
X61217500Y-47887500D03*
%TO.P,U103,16,GND*%
%TO.N,GND*%
X61217500Y-45347500D03*
%TO.P,U103,17,+12V*%
%TO.N,+12V*%
X63757500Y-47887500D03*
%TO.P,U103,18,-12V*%
%TO.N,-12V*%
X63757500Y-45347500D03*
%TD*%
D14*
%TO.P,SAW2,1,1*%
%TO.N,SAW2_FULL*%
X44300000Y-31100000D03*
%TD*%
%TO.P,OSC2,1,1*%
%TO.N,/DCO/O2_MIXF*%
X61225000Y-7675000D03*
%TD*%
D15*
%TO.P,R247,1*%
%TO.N,GND*%
X32885000Y-6375000D03*
D16*
%TO.P,R247,2*%
X37965000Y-6375000D03*
%TD*%
D14*
%TO.P,SAW1,1,1*%
%TO.N,SAW1_FULL*%
X29025000Y-6725000D03*
%TD*%
%TO.P,OSC1,1,1*%
%TO.N,/DCO/O1_MIXF*%
X59200000Y-12050000D03*
%TD*%
%TO.P,TRI1,1,1*%
%TO.N,TRI1_FULL*%
X8300000Y-20750000D03*
%TD*%
D10*
%TO.P,U305,1,Vout*%
%TO.N,+5V*%
X119610000Y-7430000D03*
D11*
%TO.P,U305,2,GND*%
%TO.N,GND*%
X117540000Y-6160000D03*
%TO.P,U305,3,Vin*%
%TO.N,+12V*%
X119610000Y-4890000D03*
%TD*%
D14*
%TO.P,OSCMIX1,1,1*%
%TO.N,OSC_MIX*%
X44425000Y-18275000D03*
%TD*%
%TO.P,TRI2,1,1*%
%TO.N,TRI2_FULL*%
X33850000Y-39550000D03*
%TD*%
D17*
%TO.P,U101,1,B1*%
%TO.N,OSC_MIX*%
X68662500Y-9925000D03*
%TO.P,U101,2,B0*%
%TO.N,FILTER_OUT*%
X68662500Y-9275000D03*
%TO.P,U101,3,C1*%
%TO.N,FOLDER_OUT*%
X68662500Y-8625000D03*
%TO.P,U101,4,C*%
%TO.N,FILTER_IN*%
X68662500Y-7975000D03*
%TO.P,U101,5,C0*%
%TO.N,OSC_MIX*%
X68662500Y-7325000D03*
%TO.P,U101,6,INH*%
%TO.N,GND*%
X68662500Y-6675000D03*
%TO.P,U101,7,VSS*%
%TO.N,-12V*%
X68662500Y-6025000D03*
%TO.P,U101,8,GND*%
%TO.N,GND*%
X68662500Y-5375000D03*
%TO.P,U101,9,S3*%
%TO.N,FOLD_FIRST*%
X74387500Y-5375000D03*
%TO.P,U101,10,S2*%
X74387500Y-6025000D03*
%TO.P,U101,11,S1*%
X74387500Y-6675000D03*
%TO.P,U101,12,A0*%
%TO.N,VCA_IN*%
X74387500Y-7325000D03*
%TO.P,U101,13,A1*%
%TO.N,FILTER_IN*%
X74387500Y-7975000D03*
%TO.P,U101,14,A*%
%TO.N,FOLDER_OUT*%
X74387500Y-8625000D03*
%TO.P,U101,15,B*%
%TO.N,FOLDER_IN*%
X74387500Y-9275000D03*
%TO.P,U101,16,VDD*%
%TO.N,+12V*%
X74387500Y-9925000D03*
%TD*%
D18*
%TO.P,C103,1*%
%TO.N,-12V*%
X66725000Y-15425000D03*
%TO.P,C103,2*%
%TO.N,GND*%
X64825000Y-15425000D03*
%TD*%
%TO.P,C101,1*%
%TO.N,-12V*%
X66712499Y-6025000D03*
%TO.P,C101,2*%
%TO.N,GND*%
X64812499Y-6025000D03*
%TD*%
D19*
%TO.P,C102,1*%
%TO.N,+12V*%
X74412500Y-11625000D03*
%TO.P,C102,2*%
%TO.N,GND*%
X76312498Y-11625000D03*
%TD*%
D17*
%TO.P,U102,1,B1*%
%TO.N,FILTER_IN*%
X68637500Y-19325000D03*
%TO.P,U102,2,B0*%
%TO.N,GND*%
X68637500Y-18675000D03*
%TO.P,U102,3,C1*%
%TO.N,unconnected-(U102-C1-Pad3)*%
X68637500Y-18025000D03*
%TO.P,U102,4,C*%
%TO.N,LP_IN*%
X68637500Y-17375000D03*
%TO.P,U102,5,C0*%
%TO.N,FILTER_IN*%
X68637500Y-16725000D03*
%TO.P,U102,6,INH*%
%TO.N,GND*%
X68637500Y-16075000D03*
%TO.P,U102,7,VSS*%
%TO.N,-12V*%
X68637500Y-15425000D03*
%TO.P,U102,8,GND*%
%TO.N,GND*%
X68637500Y-14775000D03*
%TO.P,U102,9,S3*%
%TO.N,HP_MODE*%
X74362500Y-14775000D03*
%TO.P,U102,10,S2*%
X74362500Y-15425000D03*
%TO.P,U102,11,S1*%
%TO.N,FOLD_FIRST*%
X74362500Y-16075000D03*
%TO.P,U102,12,A0*%
%TO.N,FOLDER_IN*%
X74362500Y-16725000D03*
%TO.P,U102,13,A1*%
%TO.N,VCA_IN*%
X74362500Y-17375000D03*
%TO.P,U102,14,A*%
%TO.N,FILTER_OUT*%
X74362500Y-18025000D03*
%TO.P,U102,15,B*%
%TO.N,HP_IN*%
X74362500Y-18675000D03*
%TO.P,U102,16,VDD*%
%TO.N,+12V*%
X74362500Y-19325000D03*
%TD*%
D19*
%TO.P,C104,1*%
%TO.N,+12V*%
X74375001Y-20925000D03*
%TO.P,C104,2*%
%TO.N,GND*%
X76274999Y-20925000D03*
%TD*%
D20*
%TO.N,GND*%
X126731667Y-43105000D03*
X126731667Y-40565000D03*
X126731667Y-38025000D03*
X126731667Y-35485000D03*
X126731667Y-32945000D03*
X126731667Y-30405000D03*
X126731667Y-25325000D03*
X124191667Y-45645000D03*
X124191667Y-43105000D03*
X121651667Y-45645000D03*
X121651667Y-25325000D03*
X119111667Y-45645000D03*
X116571667Y-45645000D03*
X116571667Y-15165000D03*
X116571667Y-10085000D03*
X116571667Y-7545000D03*
X114031667Y-45645000D03*
X111491667Y-45645000D03*
X111491667Y-32945000D03*
X108951667Y-45645000D03*
X108951667Y-32945000D03*
X108951667Y-27865000D03*
X108951667Y-25325000D03*
X108951667Y-22785000D03*
X106411667Y-45645000D03*
X106411667Y-40565000D03*
X103871667Y-45645000D03*
X103871667Y-43105000D03*
X103871667Y-30405000D03*
X101331667Y-45645000D03*
X101331667Y-43105000D03*
X101331667Y-32945000D03*
X101331667Y-25325000D03*
X101331667Y-17705000D03*
X101331667Y-7545000D03*
X98791667Y-45645000D03*
X98791667Y-17705000D03*
X98791667Y-7545000D03*
X96251667Y-43105000D03*
X96251667Y-32945000D03*
X96251667Y-12625000D03*
X96251667Y-5005000D03*
X93711667Y-43105000D03*
X91171667Y-43105000D03*
X88631667Y-20245000D03*
X86091667Y-43105000D03*
X86091667Y-40565000D03*
X81011667Y-25325000D03*
X81011667Y-5005000D03*
X78471667Y-45645000D03*
X78471667Y-25325000D03*
X75931667Y-45645000D03*
X75931667Y-22785000D03*
X73391667Y-45645000D03*
X73391667Y-40565000D03*
X73391667Y-22785000D03*
X70851667Y-45645000D03*
X70851667Y-40565000D03*
X68311667Y-45645000D03*
X68311667Y-40565000D03*
X68311667Y-38025000D03*
X65771667Y-48185000D03*
X63231667Y-7545000D03*
X60691667Y-10085000D03*
X58151667Y-12625000D03*
X58151667Y-7545000D03*
X58151667Y-2465000D03*
X55611667Y-7545000D03*
X55611667Y-2465000D03*
X53071667Y-2465000D03*
X45451667Y-40565000D03*
X45451667Y-32945000D03*
X45451667Y-30405000D03*
X42911667Y-40565000D03*
X42911667Y-17705000D03*
X42911667Y-2465000D03*
X40371667Y-40565000D03*
X40371667Y-5005000D03*
X40371667Y-2465000D03*
X37831667Y-40565000D03*
X37831667Y-38025000D03*
X37831667Y-35485000D03*
X37831667Y-17705000D03*
X37831667Y-10085000D03*
X37831667Y-5005000D03*
X37831667Y-2465000D03*
X35291667Y-40565000D03*
X35291667Y-38025000D03*
X35291667Y-35485000D03*
X35291667Y-30405000D03*
X35291667Y-27865000D03*
X35291667Y-12625000D03*
X35291667Y-10085000D03*
X35291667Y-7545000D03*
X35291667Y-5005000D03*
X35291667Y-2465000D03*
X32751667Y-38025000D03*
X32751667Y-35485000D03*
X32751667Y-27865000D03*
X32751667Y-17705000D03*
X32751667Y-5005000D03*
X32751667Y-2465000D03*
X30211667Y-38025000D03*
X30211667Y-35485000D03*
X30211667Y-20245000D03*
X30211667Y-12625000D03*
X30211667Y-7545000D03*
X30211667Y-2465000D03*
X27671667Y-38025000D03*
X27671667Y-22785000D03*
X27671667Y-20245000D03*
X27671667Y-15165000D03*
X27671667Y-12625000D03*
X27671667Y-7545000D03*
X27671667Y-5005000D03*
X27671667Y-2465000D03*
X25131667Y-25325000D03*
X25131667Y-7545000D03*
X25131667Y-5005000D03*
X25131667Y-2465000D03*
X22591667Y-32945000D03*
X22591667Y-5005000D03*
X22591667Y-2465000D03*
X20051667Y-2465000D03*
X17511667Y-32945000D03*
X17511667Y-5005000D03*
X17511667Y-2465000D03*
X14971667Y-5005000D03*
X14971667Y-2465000D03*
X12431667Y-5005000D03*
X12431667Y-2465000D03*
X9891667Y-35485000D03*
X9891667Y-5005000D03*
X9891667Y-2465000D03*
X7351667Y-43105000D03*
X7351667Y-40565000D03*
X7351667Y-32945000D03*
X7351667Y-30405000D03*
X7351667Y-22785000D03*
X7351667Y-15165000D03*
X7351667Y-12625000D03*
X7351667Y-10085000D03*
X7351667Y-5005000D03*
X7351667Y-2465000D03*
X4811667Y-40565000D03*
X4811667Y-38025000D03*
X4811667Y-22785000D03*
X4811667Y-20245000D03*
X4811667Y-17705000D03*
X4811667Y-5005000D03*
X2271667Y-38025000D03*
X2271667Y-35485000D03*
X2271667Y-32945000D03*
X2271667Y-27865000D03*
X2271667Y-25325000D03*
X2271667Y-22785000D03*
X2271667Y-20245000D03*
X2271667Y-17705000D03*
X2271667Y-15165000D03*
X2271667Y-10085000D03*
X2271667Y-7545000D03*
%TO.N,/DCO/O1_MIXF*%
X58710000Y-17210000D03*
X58050000Y-31025000D03*
%TO.N,CLK_1*%
X2475000Y-11975000D03*
X12800000Y-42925000D03*
%TO.N,/DCO/O2_MIXF*%
X61075000Y-24150000D03*
X63275000Y-18200000D03*
%TO.N,Net-(U202C-+)*%
X21075000Y-37900000D03*
X24875000Y-32750000D03*
%TO.N,Net-(U206C--)*%
X61775000Y-18250000D03*
X48875000Y-28250000D03*
X60075000Y-21975000D03*
X46200000Y-23825000D03*
%TO.N,GND*%
X53550000Y-31825000D03*
X70425000Y-33500000D03*
X68675000Y-4575000D03*
X77325000Y-20925000D03*
X115075000Y-37275000D03*
X124525000Y-5400000D03*
X82600000Y-32700000D03*
X88150000Y-40025000D03*
X25200000Y-34575000D03*
X114750000Y-29100000D03*
X122450000Y-18927400D03*
X20962941Y-16852498D03*
X51925000Y-13100000D03*
X121900000Y-23850000D03*
X26050000Y-16700000D03*
X80475000Y-3650000D03*
X70176075Y-6676880D03*
X91925000Y-4975000D03*
X119175000Y-19450000D03*
X50475000Y-39225000D03*
X54625000Y-21725000D03*
X55450000Y-41125000D03*
X53825000Y-12875000D03*
X83000000Y-40675000D03*
X45975000Y-2650000D03*
X122925000Y-15925000D03*
X17700000Y-9225000D03*
X94925000Y-27300000D03*
X96775000Y-40750000D03*
X38550000Y-23250000D03*
X20475000Y-19875000D03*
X119375000Y-22900000D03*
X100225000Y-40750000D03*
X81350000Y-28825000D03*
X15850000Y-42150000D03*
X120900000Y-10200000D03*
X125075000Y-26250000D03*
X99475000Y-25375000D03*
X106925000Y-20400000D03*
X57700000Y-37550000D03*
X20775000Y-33400000D03*
X112075000Y-39675000D03*
X83050000Y-43175000D03*
X47800000Y-7775000D03*
X52650000Y-38950000D03*
X111625000Y-37325000D03*
X20850000Y-12325000D03*
X91650000Y-23900000D03*
X47650000Y-13950000D03*
X28900000Y-32925000D03*
X68600000Y-13850000D03*
X44600000Y-12275000D03*
X59425000Y-37775000D03*
X61875000Y-43575000D03*
X48375000Y-10200000D03*
X59400000Y-31800000D03*
X18225000Y-28550000D03*
X79400000Y-40475000D03*
X65000000Y-3825000D03*
X104800000Y-20425000D03*
X110400000Y-4775000D03*
X30825000Y-9750000D03*
X44600000Y-6550000D03*
X96100000Y-25375000D03*
X90250000Y-8675000D03*
X125775000Y-22000000D03*
X69625000Y-16075000D03*
X52200000Y-16725000D03*
X51050000Y-7850000D03*
X4375000Y-32875000D03*
X106950000Y-4700000D03*
X114675000Y-26225000D03*
X45425000Y-21750000D03*
X104800000Y-4700000D03*
X3675000Y-16600000D03*
X19125000Y-5525000D03*
X16675000Y-20075000D03*
X30825000Y-23125000D03*
X52550000Y-24625000D03*
X18225000Y-25900000D03*
X64825000Y-16575000D03*
X92375000Y-38800000D03*
X54925000Y-16825000D03*
X19475000Y-40450000D03*
X20775000Y-28550000D03*
X63650000Y-6025000D03*
X110375000Y-20125000D03*
X69975000Y-18925000D03*
X57225000Y-28975000D03*
X62800000Y-3050000D03*
X79625000Y-32250000D03*
X52475000Y-41300000D03*
X91825000Y-20300000D03*
X80950000Y-11675000D03*
X77400000Y-11625000D03*
D21*
%TO.N,+12V*%
X99425000Y-32150000D03*
X81325000Y-35725000D03*
X42500000Y-28925000D03*
X19100000Y-12150000D03*
X19475000Y-31650000D03*
X119250000Y-30475000D03*
X128625000Y-8175000D03*
X62525000Y-21000000D03*
X69100000Y-24375000D03*
X125850000Y-5425000D03*
X110375000Y-11775000D03*
X91925000Y-11775000D03*
X113475000Y-32150000D03*
X33750000Y-21750000D03*
%TO.N,-12V*%
X45625000Y-19800000D03*
X113475000Y-34025000D03*
X11050000Y-15100000D03*
X81325000Y-37475000D03*
X19125000Y-13950000D03*
X66725000Y-16950000D03*
X19475000Y-33575000D03*
X72975000Y-4225000D03*
X91409374Y-13864577D03*
X83050000Y-17200000D03*
X99475000Y-34025000D03*
X122350000Y-43500000D03*
X111575000Y-13350000D03*
X64825000Y-28450000D03*
X38400000Y-21750000D03*
X78862500Y-14162500D03*
D20*
%TO.N,CLK_2*%
X10575000Y-42075000D03*
X3275000Y-30925000D03*
%TO.N,SAW2_FULL*%
X33550000Y-24282501D03*
X54200000Y-35000000D03*
D22*
%TO.N,+3.3V*%
X43800000Y-4550000D03*
X52775000Y-29625000D03*
D20*
%TO.N,Net-(U301A-+)*%
X94150000Y-4225000D03*
X108675000Y-8150000D03*
%TO.N,FILTER_OUT*%
X95750000Y-20350000D03*
X79687500Y-18862500D03*
X72575000Y-17450000D03*
X120825000Y-23100000D03*
X124950000Y-12525000D03*
%TO.N,Net-(U301C-+)*%
X124325000Y-15900000D03*
X90100000Y-16975000D03*
%TO.N,HP_IN*%
X73100000Y-18675000D03*
%TO.N,FOLDER_IN*%
X87400000Y-27175000D03*
%TO.N,VCA_IN*%
X76750000Y-7325000D03*
X78275000Y-17375000D03*
X79500000Y-22650000D03*
%TO.N,SDA*%
X121075000Y-15750000D03*
X59275000Y-3700000D03*
X48450000Y-13925000D03*
X56800000Y-37300000D03*
X61875000Y-2675000D03*
%TO.N,SCL*%
X47800000Y-11000000D03*
X63600000Y-3750000D03*
X121700000Y-12900000D03*
X56150000Y-40525000D03*
X60700000Y-4875000D03*
%TO.N,FOLD_FIRST*%
X75725000Y-6025000D03*
X73175000Y-16075000D03*
X65225000Y-22100000D03*
%TO.N,HP_MODE*%
X74375000Y-13900000D03*
X67675000Y-22875000D03*
%TO.N,PWM_1_CV*%
X46550000Y-37475000D03*
X51450000Y-41300000D03*
X49350000Y-39225000D03*
%TO.N,PWM_2_CV*%
X45300000Y-39200000D03*
X45300000Y-37025000D03*
%TO.N,CUTOFF_CV*%
X66250000Y-3846000D03*
X65975000Y-23550000D03*
X80600000Y-6975000D03*
%TO.N,FOLD_CV*%
X75775000Y-44150000D03*
X62750000Y-42775000D03*
%TO.N,VCA_CV*%
X67625000Y-33100000D03*
%TO.N,VCA_OUT*%
X68900000Y-31950000D03*
%TO.N,Net-(Q302-C)*%
X81950000Y-11750000D03*
X97550000Y-20950000D03*
%TO.N,Net-(Q405-E)*%
X122800000Y-41700000D03*
X120800000Y-36975000D03*
%TO.N,TRI1_FULL*%
X8300000Y-18050000D03*
X41800000Y-15300000D03*
%TO.N,TRI2_FULL*%
X50500000Y-35200000D03*
X13275000Y-39575000D03*
%TO.N,PULSE1_FULL*%
X41250000Y-11450000D03*
X32650000Y-9250000D03*
%TO.N,OSC_MIX*%
X41800000Y-29975000D03*
X69650000Y-10800000D03*
X69725000Y-3825000D03*
X69650000Y-7325000D03*
%TO.N,LP_IN*%
X70175000Y-17375000D03*
%TO.N,Net-(U303C--)*%
X108225000Y-17375000D03*
X99350000Y-14100000D03*
%TO.N,Net-(R408-Pad1)*%
X74325000Y-28750000D03*
X91675000Y-30600000D03*
%TO.N,Net-(U403A--)*%
X98175000Y-28175000D03*
X111625000Y-27150000D03*
%TO.N,FOLDER_OUT*%
X86650000Y-33825000D03*
X77675000Y-8600000D03*
X107125000Y-43400000D03*
X86725000Y-38625000D03*
X82550000Y-22725000D03*
%TO.N,Net-(U301D-+)*%
X91850000Y-21375000D03*
X108600000Y-21325000D03*
%TO.N,Net-(U202A--)*%
X11325000Y-30150000D03*
X20975000Y-26775000D03*
%TO.N,Net-(R233-Pad2)*%
X47150000Y-15650000D03*
X51575000Y-15900000D03*
%TO.N,Net-(R420-Pad2)*%
X119000000Y-42125000D03*
X118725000Y-35525000D03*
%TO.N,Net-(U201A--)*%
X22275000Y-9500000D03*
X11200000Y-10725000D03*
%TO.N,Net-(R220-Pad1)*%
X52300000Y-27775000D03*
X48375000Y-26175000D03*
%TD*%
D23*
%TO.N,/DCO/O1_MIXF*%
X58050000Y-31025000D02*
X59175000Y-29900000D01*
X59175000Y-17675000D02*
X58710000Y-17210000D01*
X59175000Y-29900000D02*
X59175000Y-17675000D01*
%TO.N,CLK_1*%
X12800000Y-42100000D02*
X6550000Y-35850000D01*
X6550000Y-35850000D02*
X6550000Y-16050000D01*
X12800000Y-42925000D02*
X12800000Y-42100000D01*
X6550000Y-16050000D02*
X2475000Y-11975000D01*
%TO.N,/DCO/O2_MIXF*%
X63275000Y-18200000D02*
X61075000Y-20400000D01*
X61075000Y-20400000D02*
X61075000Y-24150000D01*
%TO.N,Net-(U202C-+)*%
X21075000Y-36550000D02*
X24875000Y-32750000D01*
X21075000Y-37900000D02*
X21075000Y-36550000D01*
%TO.N,Net-(U206C--)*%
X46200000Y-25575000D02*
X46200000Y-23825000D01*
X61775000Y-18250000D02*
X60075000Y-19950000D01*
X60075000Y-19950000D02*
X60075000Y-21975000D01*
X48875000Y-28250000D02*
X46200000Y-25575000D01*
%TO.N,GND*%
X70174195Y-6675000D02*
X70176075Y-6676880D01*
X68662500Y-6675000D02*
X70174195Y-6675000D01*
X68637500Y-18675000D02*
X69725000Y-18675000D01*
X68637500Y-16075000D02*
X69625000Y-16075000D01*
X68637500Y-13887500D02*
X68600000Y-13850000D01*
X64812499Y-6025000D02*
X63650000Y-6025000D01*
X64825000Y-15425000D02*
X64825000Y-16575000D01*
X69725000Y-18675000D02*
X69975000Y-18925000D01*
X68637500Y-14775000D02*
X68637500Y-13887500D01*
X76274999Y-20925000D02*
X77325000Y-20925000D01*
X76312498Y-11625000D02*
X77400000Y-11625000D01*
X68662500Y-5375000D02*
X68662500Y-4587500D01*
D24*
%TO.N,+12V*%
X74412500Y-11625000D02*
X74412500Y-9950000D01*
X128625000Y-8175000D02*
X125875000Y-5425000D01*
X99425000Y-32150000D02*
X113475000Y-32150000D01*
X74412500Y-9950000D02*
X74387500Y-9925000D01*
X20325000Y-35500000D02*
X21825000Y-34000000D01*
X9250000Y-31975000D02*
X12775000Y-35500000D01*
X117575000Y-32150000D02*
X119250000Y-30475000D01*
X91925000Y-11775000D02*
X110375000Y-11775000D01*
X35950000Y-21750000D02*
X42500000Y-28300000D01*
X93700000Y-32150000D02*
X99425000Y-32150000D01*
X81325000Y-35725000D02*
X90125000Y-35725000D01*
X125875000Y-5425000D02*
X125850000Y-5425000D01*
X90125000Y-35725000D02*
X93700000Y-32150000D01*
X73225000Y-20925000D02*
X69775000Y-24375000D01*
X88250000Y-9925000D02*
X90100000Y-11775000D01*
X66775000Y-19900000D02*
X69100000Y-22225000D01*
X111575000Y-11775000D02*
X113975000Y-9375000D01*
X12775000Y-35500000D02*
X20325000Y-35500000D01*
X115185000Y-4890000D02*
X119210000Y-4890000D01*
X113975000Y-9375000D02*
X113975000Y-6100000D01*
X42500000Y-28300000D02*
X42500000Y-28925000D01*
X69775000Y-24375000D02*
X69100000Y-24375000D01*
X11525000Y-12150000D02*
X9250000Y-14425000D01*
X69100000Y-24900000D02*
X70575000Y-26375000D01*
X90100000Y-11775000D02*
X91925000Y-11775000D01*
X74362500Y-20912499D02*
X74375001Y-20925000D01*
X33750000Y-21750000D02*
X35950000Y-21750000D01*
X113475000Y-32150000D02*
X117575000Y-32150000D01*
X19100000Y-12150000D02*
X11525000Y-12150000D01*
X70575000Y-26375000D02*
X70575000Y-27450000D01*
X69100000Y-24375000D02*
X69100000Y-24900000D01*
X63625000Y-19900000D02*
X66775000Y-19900000D01*
X70575000Y-27450000D02*
X78850000Y-35725000D01*
X21825000Y-31650000D02*
X23850000Y-31650000D01*
X19475000Y-31650000D02*
X21825000Y-31650000D01*
X113975000Y-6100000D02*
X115185000Y-4890000D01*
X62525000Y-21000000D02*
X63625000Y-19900000D01*
X9250000Y-14425000D02*
X9250000Y-31975000D01*
X74362500Y-19325000D02*
X74362500Y-20912499D01*
X74387500Y-9925000D02*
X88250000Y-9925000D01*
X110375000Y-11775000D02*
X111575000Y-11775000D01*
X21825000Y-34000000D02*
X21825000Y-31650000D01*
X69100000Y-22225000D02*
X69100000Y-24375000D01*
X23850000Y-31650000D02*
X33750000Y-21750000D01*
X74375001Y-20925000D02*
X73225000Y-20925000D01*
X78850000Y-35725000D02*
X81325000Y-35725000D01*
%TO.N,-12V*%
X99475000Y-34025000D02*
X113475000Y-34025000D01*
X68637500Y-15425000D02*
X66725000Y-15425000D01*
X18300000Y-32400000D02*
X18300000Y-31125000D01*
X68662500Y-6025000D02*
X66712499Y-6025000D01*
X70150000Y-6025000D02*
X71950000Y-4225000D01*
X34525000Y-17875000D02*
X30600000Y-13950000D01*
X113390000Y-20480000D02*
X113390000Y-15165000D01*
X65450000Y-13225000D02*
X65450000Y-7925000D01*
X66700000Y-6037499D02*
X66712499Y-6025000D01*
X19475000Y-33575000D02*
X18300000Y-32400000D01*
X97600000Y-13900000D02*
X98500000Y-13000000D01*
X83050000Y-17200000D02*
X81900000Y-17200000D01*
X113475000Y-34025000D02*
X116125000Y-34025000D01*
X66725000Y-16950000D02*
X66725000Y-15425000D01*
X65450000Y-7925000D02*
X66700000Y-6675000D01*
X117125000Y-35025000D02*
X117125000Y-41775000D01*
X84200000Y-17200000D02*
X87500000Y-13900000D01*
X117125000Y-41775000D02*
X118850000Y-43500000D01*
X94125000Y-34025000D02*
X90675000Y-37475000D01*
X66725000Y-15425000D02*
X66725000Y-14500000D01*
X19100000Y-13975000D02*
X14350000Y-13975000D01*
X30600000Y-13950000D02*
X19125000Y-13950000D01*
X14350000Y-13975000D02*
X13225000Y-15100000D01*
X81900000Y-17200000D02*
X78862500Y-14162500D01*
X113390000Y-15165000D02*
X111575000Y-13350000D01*
X22150000Y-30250000D02*
X34525000Y-17875000D01*
X38400000Y-21750000D02*
X34525000Y-17875000D01*
X13225000Y-15100000D02*
X11050000Y-15100000D01*
X99475000Y-34025000D02*
X94125000Y-34025000D01*
X84200000Y-17200000D02*
X83050000Y-17200000D01*
X118850000Y-43500000D02*
X122350000Y-43500000D01*
X70150000Y-6025000D02*
X68662500Y-6025000D01*
X40350000Y-19800000D02*
X45625000Y-19800000D01*
X90675000Y-37475000D02*
X81325000Y-37475000D01*
X98500000Y-13000000D02*
X111225000Y-13000000D01*
X19175000Y-30250000D02*
X22150000Y-30250000D01*
X77000000Y-37475000D02*
X81325000Y-37475000D01*
X64825000Y-28450000D02*
X67975000Y-28450000D01*
X66700000Y-6675000D02*
X66700000Y-6037499D01*
X40350000Y-19800000D02*
X38400000Y-21750000D01*
X18300000Y-31125000D02*
X19175000Y-30250000D01*
X66725000Y-14500000D02*
X65450000Y-13225000D01*
X67975000Y-28450000D02*
X77000000Y-37475000D01*
X116125000Y-34025000D02*
X117125000Y-35025000D01*
X71950000Y-4225000D02*
X72975000Y-4225000D01*
X19125000Y-13950000D02*
X19100000Y-13975000D01*
X87500000Y-13900000D02*
X97600000Y-13900000D01*
X111225000Y-13000000D02*
X111575000Y-13350000D01*
D23*
%TO.N,CLK_2*%
X10575000Y-42075000D02*
X10550000Y-42075000D01*
X10550000Y-42075000D02*
X3275000Y-34800000D01*
X3275000Y-34800000D02*
X3275000Y-30925000D01*
%TO.N,SAW2_FULL*%
X34407501Y-24282501D02*
X38100000Y-27975000D01*
X54200000Y-34775000D02*
X54200000Y-35000000D01*
X50500000Y-31075000D02*
X54200000Y-34775000D01*
X39150000Y-31075000D02*
X50500000Y-31075000D01*
X38100000Y-30025000D02*
X39150000Y-31075000D01*
X33550000Y-24282501D02*
X34407501Y-24282501D01*
X38100000Y-27975000D02*
X38100000Y-30025000D01*
D25*
%TO.N,+3.3V*%
X45175000Y-28275000D02*
X45175000Y-23325000D01*
X43800000Y-13850000D02*
X43800000Y-4550000D01*
X47975000Y-18025000D02*
X43800000Y-13850000D01*
X47975000Y-20525000D02*
X47975000Y-18025000D01*
X45175000Y-23325000D02*
X47975000Y-20525000D01*
X46525000Y-29625000D02*
X45175000Y-28275000D01*
X52775000Y-29625000D02*
X46525000Y-29625000D01*
D23*
%TO.N,Net-(U301A-+)*%
X94850000Y-3700000D02*
X107150000Y-3700000D01*
X94150000Y-4225000D02*
X94325000Y-4225000D01*
X107150000Y-3700000D02*
X108675000Y-5225000D01*
X108675000Y-5225000D02*
X108675000Y-8150000D01*
X94325000Y-4225000D02*
X94850000Y-3700000D01*
%TO.N,FILTER_OUT*%
X74362500Y-18025000D02*
X73150000Y-18025000D01*
X120825000Y-23100000D02*
X120825000Y-21875000D01*
X79687500Y-18862500D02*
X80100000Y-19275000D01*
X80100000Y-19275000D02*
X94675000Y-19275000D01*
X68662500Y-9275000D02*
X70100000Y-9275000D01*
X73150000Y-18025000D02*
X72575000Y-17450000D01*
X70100000Y-9275000D02*
X71100000Y-10275000D01*
X71100000Y-10275000D02*
X71100000Y-15975000D01*
X126000000Y-13575000D02*
X124950000Y-12525000D01*
X71100000Y-15975000D02*
X72575000Y-17450000D01*
X94675000Y-19275000D02*
X95750000Y-20350000D01*
X126000000Y-16700000D02*
X126000000Y-13575000D01*
X120825000Y-21875000D02*
X126000000Y-16700000D01*
%TO.N,Net-(U301C-+)*%
X111700000Y-23275000D02*
X117150000Y-23275000D01*
X90100000Y-16975000D02*
X105400000Y-16975000D01*
X124325000Y-16100000D02*
X124325000Y-15900000D01*
X105400000Y-16975000D02*
X111700000Y-23275000D01*
X117150000Y-23275000D02*
X124325000Y-16100000D01*
%TO.N,HP_IN*%
X74362500Y-18675000D02*
X73100000Y-18675000D01*
%TO.N,FOLDER_IN*%
X75099999Y-16725000D02*
X75574999Y-16250000D01*
X72125000Y-9950000D02*
X72800000Y-9275000D01*
X78700000Y-19525000D02*
X79775000Y-20600000D01*
X84450000Y-20600000D02*
X86550000Y-22700000D01*
X74362500Y-16725000D02*
X72700000Y-16725000D01*
X86550000Y-22700000D02*
X87400000Y-23550000D01*
X72700000Y-16725000D02*
X72125000Y-16150000D01*
X74362500Y-16725000D02*
X75099999Y-16725000D01*
X79050000Y-16875000D02*
X79050000Y-18125000D01*
X79775000Y-20600000D02*
X84450000Y-20600000D01*
X78700000Y-18475000D02*
X78700000Y-19525000D01*
X87400000Y-23550000D02*
X87400000Y-27175000D01*
X78425000Y-16250000D02*
X79050000Y-16875000D01*
X79050000Y-18125000D02*
X78700000Y-18475000D01*
X75574999Y-16250000D02*
X78425000Y-16250000D01*
X72125000Y-16150000D02*
X72125000Y-9950000D01*
X72800000Y-9275000D02*
X74387500Y-9275000D01*
%TO.N,VCA_IN*%
X78275000Y-18050000D02*
X78275000Y-17375000D01*
X77875000Y-20691525D02*
X77875000Y-18450000D01*
X74387500Y-7325000D02*
X76750000Y-7325000D01*
X77875000Y-18450000D02*
X78275000Y-18050000D01*
X77879000Y-20695525D02*
X77875000Y-20691525D01*
X77879000Y-21029000D02*
X77879000Y-20695525D01*
X79500000Y-22650000D02*
X77879000Y-21029000D01*
X74362500Y-17375000D02*
X78275000Y-17375000D01*
%TO.N,SDA*%
X54371000Y-17054475D02*
X54371000Y-17021000D01*
X55225000Y-17875000D02*
X54729000Y-17379000D01*
X59275000Y-3700000D02*
X58725000Y-3150000D01*
X61875000Y-2675000D02*
X63400000Y-1150000D01*
X63400000Y-1150000D02*
X120250000Y-1150000D01*
X55225000Y-34400000D02*
X55225000Y-17875000D01*
X56000000Y-37300000D02*
X56800000Y-37300000D01*
X46525000Y-12000000D02*
X48450000Y-13925000D01*
X54371000Y-17021000D02*
X51275000Y-13925000D01*
X54825000Y-36125000D02*
X56000000Y-37300000D01*
X43437500Y-47887500D02*
X41350000Y-45800000D01*
X58725000Y-3150000D02*
X51275000Y-3150000D01*
X41350000Y-39475000D02*
X44700000Y-36125000D01*
X56800000Y-37300000D02*
X56800000Y-35975000D01*
X54695525Y-17379000D02*
X54371000Y-17054475D01*
X56800000Y-35975000D02*
X55225000Y-34400000D01*
X46525000Y-7900000D02*
X46525000Y-12000000D01*
X123350000Y-13475000D02*
X121075000Y-15750000D01*
X41350000Y-45800000D02*
X41350000Y-39475000D01*
X44700000Y-36125000D02*
X54825000Y-36125000D01*
X51275000Y-3150000D02*
X46525000Y-7900000D01*
X54729000Y-17379000D02*
X54695525Y-17379000D01*
X120250000Y-1150000D02*
X123350000Y-4250000D01*
X51275000Y-13925000D02*
X48450000Y-13925000D01*
X123350000Y-4250000D02*
X123350000Y-13475000D01*
%TO.N,SCL*%
X47800000Y-11000000D02*
X50700000Y-11000000D01*
X53700000Y-40525000D02*
X56150000Y-40525000D01*
X56475000Y-16775000D02*
X56025000Y-16325000D01*
X121700000Y-12900000D02*
X122300000Y-12300000D01*
X56225000Y-40525000D02*
X58375000Y-38375000D01*
X45977500Y-47887500D02*
X44700000Y-46610000D01*
X47350000Y-39975000D02*
X53150000Y-39975000D01*
X44700000Y-42625000D02*
X47350000Y-39975000D01*
X47450000Y-10650000D02*
X47450000Y-9000000D01*
X56150000Y-40525000D02*
X56225000Y-40525000D01*
X119450000Y-2025000D02*
X65325000Y-2025000D01*
X58375000Y-35000000D02*
X56475000Y-33100000D01*
X51575000Y-4875000D02*
X60700000Y-4875000D01*
X56475000Y-33100000D02*
X56475000Y-16775000D01*
X47800000Y-11000000D02*
X47450000Y-10650000D01*
X58375000Y-38375000D02*
X58375000Y-35000000D01*
X53150000Y-39975000D02*
X53700000Y-40525000D01*
X65325000Y-2025000D02*
X63600000Y-3750000D01*
X122300000Y-4875000D02*
X119450000Y-2025000D01*
X50700000Y-11000000D02*
X56025000Y-16325000D01*
X47450000Y-9000000D02*
X51575000Y-4875000D01*
X122300000Y-12300000D02*
X122300000Y-4875000D01*
X44700000Y-46610000D02*
X44700000Y-42625000D01*
%TO.N,FOLD_FIRST*%
X56137500Y-47887500D02*
X54875000Y-46625000D01*
X54875000Y-46625000D02*
X54875000Y-44700000D01*
X62300000Y-37275000D02*
X62300000Y-26000000D01*
X65225000Y-23075000D02*
X65225000Y-22100000D01*
X54875000Y-44700000D02*
X62300000Y-37275000D01*
X62300000Y-26000000D02*
X65225000Y-23075000D01*
X74387500Y-6675000D02*
X74387500Y-5375000D01*
X75725000Y-6025000D02*
X74387500Y-6025000D01*
X73175000Y-16075000D02*
X74362500Y-16075000D01*
%TO.N,HP_MODE*%
X52300000Y-44350000D02*
X54625000Y-42025000D01*
X74362500Y-15425000D02*
X74362500Y-14775000D01*
X54625000Y-42025000D02*
X55900000Y-42025000D01*
X59979000Y-38004475D02*
X59979000Y-36629000D01*
X62800000Y-24025000D02*
X62800000Y-22775000D01*
X55958475Y-42025000D02*
X59979000Y-38004475D01*
X55900000Y-42025000D02*
X55958475Y-42025000D01*
X52300000Y-46590000D02*
X52300000Y-44350000D01*
X59979000Y-26846000D02*
X62800000Y-24025000D01*
X64600000Y-20975000D02*
X62800000Y-22775000D01*
X66025000Y-20975000D02*
X64600000Y-20975000D01*
X74375000Y-14762500D02*
X74362500Y-14775000D01*
X53597500Y-47887500D02*
X52300000Y-46590000D01*
X74375000Y-13900000D02*
X74375000Y-14762500D01*
X59979000Y-36629000D02*
X59979000Y-26846000D01*
X67675000Y-22625000D02*
X66025000Y-20975000D01*
X67675000Y-22875000D02*
X67675000Y-22625000D01*
%TO.N,PWM_1_CV*%
X48300000Y-39225000D02*
X49350000Y-39225000D01*
X51450000Y-42415000D02*
X48517500Y-45347500D01*
X46550000Y-37475000D02*
X48300000Y-39225000D01*
X51450000Y-41300000D02*
X51450000Y-42415000D01*
%TO.N,PWM_2_CV*%
X45300000Y-37025000D02*
X45300000Y-39200000D01*
%TO.N,CUTOFF_CV*%
X56137500Y-45347500D02*
X56137500Y-45012500D01*
X66250000Y-3846000D02*
X67146000Y-2950000D01*
X63550000Y-26825000D02*
X65975000Y-24400000D01*
X76575000Y-2950000D02*
X80600000Y-6975000D01*
X67146000Y-2950000D02*
X76575000Y-2950000D01*
X56137500Y-45012500D02*
X63550000Y-37600000D01*
X65975000Y-24400000D02*
X65975000Y-23550000D01*
X63550000Y-37600000D02*
X63550000Y-26825000D01*
%TO.N,FOLD_CV*%
X62750000Y-42775000D02*
X74400000Y-42775000D01*
X74400000Y-42775000D02*
X75775000Y-44150000D01*
%TO.N,VCA_CV*%
X67625000Y-35075000D02*
X67625000Y-33100000D01*
X58677500Y-45347500D02*
X58677500Y-44022500D01*
X58677500Y-44022500D02*
X67625000Y-35075000D01*
%TO.N,VCA_OUT*%
X59950000Y-44450000D02*
X68900000Y-35500000D01*
X58677500Y-47887500D02*
X59950000Y-46615000D01*
X59950000Y-46615000D02*
X59950000Y-44450000D01*
X68900000Y-35500000D02*
X68900000Y-31950000D01*
%TO.N,Net-(Q302-C)*%
X78500000Y-12900000D02*
X77875000Y-13525000D01*
X81950000Y-11750000D02*
X80800000Y-12900000D01*
X81200000Y-18225000D02*
X95600000Y-18225000D01*
X77875000Y-14900000D02*
X81200000Y-18225000D01*
X97550000Y-20175000D02*
X97550000Y-20950000D01*
X80800000Y-12900000D02*
X78500000Y-12900000D01*
X77875000Y-13525000D02*
X77875000Y-14900000D01*
X97275000Y-19900000D02*
X97550000Y-20175000D01*
X95600000Y-18225000D02*
X97275000Y-19900000D01*
%TO.N,Net-(Q405-E)*%
X120800000Y-36975000D02*
X120800000Y-39700000D01*
X120800000Y-39700000D02*
X122800000Y-41700000D01*
%TO.N,TRI1_FULL*%
X11850000Y-11500000D02*
X9800000Y-11500000D01*
X41275000Y-15300000D02*
X37125000Y-11150000D01*
X12475000Y-10875000D02*
X11850000Y-11500000D01*
X21675000Y-11150000D02*
X21400000Y-10875000D01*
X21400000Y-10875000D02*
X12475000Y-10875000D01*
X41800000Y-15300000D02*
X41275000Y-15300000D01*
X37125000Y-11150000D02*
X21675000Y-11150000D01*
X8300000Y-13000000D02*
X8300000Y-18050000D01*
X9800000Y-11500000D02*
X8300000Y-13000000D01*
%TO.N,TRI2_FULL*%
X43975000Y-34725000D02*
X40075000Y-38625000D01*
X13275000Y-39575000D02*
X13300000Y-39550000D01*
X33850000Y-39550000D02*
X39150000Y-39550000D01*
X39150000Y-39550000D02*
X40075000Y-38625000D01*
X50025000Y-34725000D02*
X43975000Y-34725000D01*
X13300000Y-39550000D02*
X33850000Y-39550000D01*
X50500000Y-35200000D02*
X50025000Y-34725000D01*
%TO.N,PULSE1_FULL*%
X39050000Y-9250000D02*
X32650000Y-9250000D01*
X41250000Y-11450000D02*
X39050000Y-9250000D01*
%TO.N,OSC_MIX*%
X67175000Y-4600000D02*
X67950000Y-3825000D01*
X41800000Y-29975000D02*
X43525000Y-29975000D01*
X68662500Y-9925000D02*
X68775000Y-9925000D01*
X44900000Y-20800000D02*
X46150000Y-20800000D01*
X42200000Y-13975000D02*
X42200000Y-4450000D01*
X69650000Y-7325000D02*
X68662500Y-7325000D01*
X44425000Y-18275000D02*
X44425000Y-16200000D01*
X46850000Y-18950000D02*
X46175000Y-18275000D01*
X44425000Y-16200000D02*
X42200000Y-13975000D01*
X46150000Y-20800000D02*
X46850000Y-20100000D01*
X43900000Y-21800000D02*
X44900000Y-20800000D01*
X43900000Y-29600000D02*
X43900000Y-21800000D01*
X62525000Y-4600000D02*
X67175000Y-4600000D01*
X45575000Y-1075000D02*
X59000000Y-1075000D01*
X46850000Y-20100000D02*
X46850000Y-18950000D01*
X46175000Y-18275000D02*
X44425000Y-18275000D01*
X42200000Y-4450000D02*
X45575000Y-1075000D01*
X43525000Y-29975000D02*
X43900000Y-29600000D01*
X68775000Y-9925000D02*
X69650000Y-10800000D01*
X67950000Y-3825000D02*
X69725000Y-3825000D01*
X59000000Y-1075000D02*
X62525000Y-4600000D01*
%TO.N,LP_IN*%
X68637500Y-17375000D02*
X70175000Y-17375000D01*
%TO.N,Net-(U303C--)*%
X101900000Y-14100000D02*
X104950000Y-14100000D01*
X99350000Y-14100000D02*
X101900000Y-14100000D01*
X104950000Y-14100000D02*
X108225000Y-17375000D01*
%TO.N,Net-(R408-Pad1)*%
X80050000Y-34475000D02*
X84600000Y-34475000D01*
X84600000Y-34475000D02*
X85150000Y-35025000D01*
X89500000Y-35025000D02*
X91675000Y-32850000D01*
X74325000Y-28750000D02*
X80050000Y-34475000D01*
X85150000Y-35025000D02*
X89500000Y-35025000D01*
X91675000Y-32850000D02*
X91675000Y-30600000D01*
%TO.N,Net-(U403A--)*%
X99200000Y-27150000D02*
X98175000Y-28175000D01*
X111625000Y-27150000D02*
X99200000Y-27150000D01*
%TO.N,FOLDER_OUT*%
X82550000Y-29725000D02*
X86650000Y-33825000D01*
X86725000Y-38625000D02*
X89400000Y-38625000D01*
X90050000Y-37975000D02*
X101700000Y-37975000D01*
X74387500Y-8625000D02*
X77650000Y-8625000D01*
X101700000Y-37975000D02*
X107125000Y-43400000D01*
X68662500Y-8625000D02*
X74387500Y-8625000D01*
X77650000Y-8625000D02*
X77675000Y-8600000D01*
X89400000Y-38625000D02*
X90050000Y-37975000D01*
X82550000Y-22725000D02*
X82550000Y-29725000D01*
%TO.N,Net-(U301D-+)*%
X92775000Y-22300000D02*
X91850000Y-21375000D01*
X100450000Y-21325000D02*
X99475000Y-22300000D01*
X99475000Y-22300000D02*
X92775000Y-22300000D01*
X108600000Y-21325000D02*
X100450000Y-21325000D01*
%TO.N,FILTER_IN*%
X67900001Y-16725000D02*
X67275000Y-17350001D01*
X68662500Y-7975000D02*
X74387500Y-7975000D01*
X67925001Y-7975000D02*
X67150000Y-8750001D01*
X68637500Y-16725000D02*
X67900001Y-16725000D01*
X67275000Y-18699999D02*
X67900001Y-19325000D01*
X68637500Y-16725000D02*
X69925000Y-16725000D01*
X67150000Y-10775000D02*
X67150000Y-8750001D01*
X69925000Y-16725000D02*
X70475000Y-16175000D01*
X67275000Y-17350001D02*
X67275000Y-18699999D01*
X70475000Y-16175000D02*
X70475000Y-14100000D01*
X68662500Y-7975000D02*
X67925001Y-7975000D01*
X67900001Y-19325000D02*
X68637500Y-19325000D01*
X70475000Y-14100000D02*
X67150000Y-10775000D01*
%TO.N,Net-(U202A--)*%
X18025000Y-30150000D02*
X19875000Y-28300000D01*
X19875000Y-27875000D02*
X20975000Y-26775000D01*
X11325000Y-30150000D02*
X18025000Y-30150000D01*
X19875000Y-28300000D02*
X19875000Y-27875000D01*
%TO.N,Net-(R233-Pad2)*%
X51575000Y-15900000D02*
X47400000Y-15900000D01*
X47400000Y-15900000D02*
X47150000Y-15650000D01*
%TO.N,Net-(R420-Pad2)*%
X119625000Y-40500000D02*
X119625000Y-41500000D01*
X119625000Y-41500000D02*
X119000000Y-42125000D01*
X119625000Y-40500000D02*
X119625000Y-36425000D01*
X119625000Y-36425000D02*
X118725000Y-35525000D01*
%TO.N,Net-(U201A--)*%
X21925000Y-9850000D02*
X12075000Y-9850000D01*
X12075000Y-9850000D02*
X11200000Y-10725000D01*
X22275000Y-9500000D02*
X21925000Y-9850000D01*
%TO.N,Net-(R220-Pad1)*%
X52300000Y-27775000D02*
X49975000Y-27775000D01*
X49975000Y-27775000D02*
X48375000Y-26175000D01*
%TD*%
M02*
