%TF.GenerationSoftware,KiCad,Pcbnew,8.0.3*%
%TF.CreationDate,2024-07-17T18:03:28-06:00*%
%TF.ProjectId,VoiceBoardR4,566f6963-6542-46f6-9172-6452342e6b69,rev?*%
%TF.SameCoordinates,Original*%
%TF.FileFunction,Soldermask,Top*%
%TF.FilePolarity,Negative*%
%FSLAX46Y46*%
G04 Gerber Fmt 4.6, Leading zero omitted, Abs format (unit mm)*
G04 Created by KiCad (PCBNEW 8.0.3) date 2024-07-17 18:03:28*
%MOMM*%
%LPD*%
G01*
G04 APERTURE LIST*
G04 Aperture macros list*
%AMRoundRect*
0 Rectangle with rounded corners*
0 $1 Rounding radius*
0 $2 $3 $4 $5 $6 $7 $8 $9 X,Y pos of 4 corners*
0 Add a 4 corners polygon primitive as box body*
4,1,4,$2,$3,$4,$5,$6,$7,$8,$9,$2,$3,0*
0 Add four circle primitives for the rounded corners*
1,1,$1+$1,$2,$3*
1,1,$1+$1,$4,$5*
1,1,$1+$1,$6,$7*
1,1,$1+$1,$8,$9*
0 Add four rect primitives between the rounded corners*
20,1,$1+$1,$2,$3,$4,$5,0*
20,1,$1+$1,$4,$5,$6,$7,0*
20,1,$1+$1,$6,$7,$8,$9,0*
20,1,$1+$1,$8,$9,$2,$3,0*%
G04 Aperture macros list end*
%ADD10RoundRect,0.250000X0.450000X-0.262500X0.450000X0.262500X-0.450000X0.262500X-0.450000X-0.262500X0*%
%ADD11RoundRect,0.250000X-0.250000X-0.475000X0.250000X-0.475000X0.250000X0.475000X-0.250000X0.475000X0*%
%ADD12RoundRect,0.250000X0.475000X-0.250000X0.475000X0.250000X-0.475000X0.250000X-0.475000X-0.250000X0*%
%ADD13RoundRect,0.250000X-0.475000X0.250000X-0.475000X-0.250000X0.475000X-0.250000X0.475000X0.250000X0*%
%ADD14RoundRect,0.250000X-0.262500X-0.450000X0.262500X-0.450000X0.262500X0.450000X-0.262500X0.450000X0*%
%ADD15RoundRect,0.100000X0.100000X-0.637500X0.100000X0.637500X-0.100000X0.637500X-0.100000X-0.637500X0*%
%ADD16RoundRect,0.250000X0.262500X0.450000X-0.262500X0.450000X-0.262500X-0.450000X0.262500X-0.450000X0*%
%ADD17RoundRect,0.150000X0.150000X-0.825000X0.150000X0.825000X-0.150000X0.825000X-0.150000X-0.825000X0*%
%ADD18RoundRect,0.250000X-0.450000X0.262500X-0.450000X-0.262500X0.450000X-0.262500X0.450000X0.262500X0*%
%ADD19R,0.900000X0.800000*%
%ADD20RoundRect,0.225000X0.375000X-0.225000X0.375000X0.225000X-0.375000X0.225000X-0.375000X-0.225000X0*%
%ADD21RoundRect,0.150000X-0.150000X0.825000X-0.150000X-0.825000X0.150000X-0.825000X0.150000X0.825000X0*%
%ADD22R,0.800000X0.900000*%
%ADD23R,1.800000X1.100000*%
%ADD24RoundRect,0.275000X0.625000X-0.275000X0.625000X0.275000X-0.625000X0.275000X-0.625000X-0.275000X0*%
%ADD25R,1.700000X1.700000*%
%ADD26O,1.700000X1.700000*%
%ADD27RoundRect,0.100000X-0.100000X0.637500X-0.100000X-0.637500X0.100000X-0.637500X0.100000X0.637500X0*%
%ADD28C,1.000000*%
%ADD29RoundRect,0.150000X-0.825000X-0.150000X0.825000X-0.150000X0.825000X0.150000X-0.825000X0.150000X0*%
%ADD30C,1.400000*%
%ADD31O,1.400000X1.400000*%
%ADD32RoundRect,0.250000X0.250000X0.475000X-0.250000X0.475000X-0.250000X-0.475000X0.250000X-0.475000X0*%
%ADD33RoundRect,0.243750X0.243750X0.456250X-0.243750X0.456250X-0.243750X-0.456250X0.243750X-0.456250X0*%
%ADD34RoundRect,0.243750X-0.243750X-0.456250X0.243750X-0.456250X0.243750X0.456250X-0.243750X0.456250X0*%
%ADD35RoundRect,0.225000X-0.225000X-0.375000X0.225000X-0.375000X0.225000X0.375000X-0.225000X0.375000X0*%
G04 APERTURE END LIST*
D10*
%TO.C,R207*%
X8952500Y-12427500D03*
X8952500Y-10602500D03*
%TD*%
D11*
%TO.C,C406*%
X88720000Y-28255000D03*
X90620000Y-28255000D03*
%TD*%
D12*
%TO.C,C409*%
X99455000Y-28254999D03*
X99455000Y-26355001D03*
%TD*%
D10*
%TO.C,R215*%
X9537500Y-27802500D03*
X9537500Y-25977500D03*
%TD*%
D13*
%TO.C,C216*%
X53817500Y-14200001D03*
X53817500Y-16099999D03*
%TD*%
D14*
%TO.C,R217*%
X19055000Y-42425000D03*
X20880000Y-42425000D03*
%TD*%
D15*
%TO.C,U205*%
X53550000Y-38937500D03*
X54200000Y-38937500D03*
X54850000Y-38937500D03*
X55500000Y-38937500D03*
X56150000Y-38937500D03*
X56800000Y-38937500D03*
X57450000Y-38937500D03*
X58100000Y-38937500D03*
X58750000Y-38937500D03*
X59400000Y-38937500D03*
X59400000Y-33212500D03*
X58750000Y-33212500D03*
X58100000Y-33212500D03*
X57450000Y-33212500D03*
X56800000Y-33212500D03*
X56150000Y-33212500D03*
X55500000Y-33212500D03*
X54850000Y-33212500D03*
X54200000Y-33212500D03*
X53550000Y-33212500D03*
%TD*%
D16*
%TO.C,R304*%
X83412500Y-3640000D03*
X81587500Y-3640000D03*
%TD*%
D17*
%TO.C,U303*%
X104045000Y-15115000D03*
X105315000Y-15115000D03*
X106585000Y-15115000D03*
X107855000Y-15115000D03*
X109125000Y-15115000D03*
X110395000Y-15115000D03*
X111665000Y-15115000D03*
X112935000Y-15115000D03*
X112935000Y-10165000D03*
X111665000Y-10165000D03*
X110395000Y-10165000D03*
X109125000Y-10165000D03*
X107855000Y-10165000D03*
X106585000Y-10165000D03*
X105315000Y-10165000D03*
X104045000Y-10165000D03*
%TD*%
D18*
%TO.C,R241*%
X59195000Y-14237500D03*
X59195000Y-16062500D03*
%TD*%
D13*
%TO.C,C218*%
X55515000Y-29345001D03*
X55515000Y-31244999D03*
%TD*%
D12*
%TO.C,C407*%
X113530001Y-28129999D03*
X113530001Y-26230001D03*
%TD*%
D18*
%TO.C,R213*%
X5997500Y-25767500D03*
X5997500Y-27592500D03*
%TD*%
%TO.C,R408*%
X72570000Y-28762500D03*
X72570000Y-30587500D03*
%TD*%
D11*
%TO.C,C405*%
X73797500Y-39145000D03*
X75697500Y-39145000D03*
%TD*%
D16*
%TO.C,R226*%
X32652500Y-10922501D03*
X30827500Y-10922501D03*
%TD*%
D11*
%TO.C,C306*%
X94190001Y-7000000D03*
X96089999Y-7000000D03*
%TD*%
D19*
%TO.C,Q406*%
X88090000Y-31600000D03*
X88090000Y-33500000D03*
X90090000Y-32550000D03*
%TD*%
D13*
%TO.C,C309*%
X91925000Y-17380001D03*
X91925000Y-19279999D03*
%TD*%
D16*
%TO.C,R210*%
X17032500Y-18210000D03*
X15207500Y-18210000D03*
%TD*%
D13*
%TO.C,C212*%
X19490000Y-25895001D03*
X19490000Y-27794999D03*
%TD*%
D18*
%TO.C,R401*%
X77795001Y-41342500D03*
X77795001Y-43167500D03*
%TD*%
D19*
%TO.C,Q301*%
X83840000Y-11700000D03*
X83840000Y-13600000D03*
X85840000Y-12650000D03*
%TD*%
D10*
%TO.C,R406*%
X93865000Y-28212500D03*
X93865000Y-26387500D03*
%TD*%
D12*
%TO.C,C311*%
X110390000Y-7859999D03*
X110390000Y-5960001D03*
%TD*%
D13*
%TO.C,C217*%
X47165000Y-2660001D03*
X47165000Y-4559999D03*
%TD*%
D14*
%TO.C,R301*%
X86507500Y-7440000D03*
X88332500Y-7440000D03*
%TD*%
D10*
%TO.C,R209*%
X26065000Y-15642500D03*
X26065000Y-13817500D03*
%TD*%
D20*
%TO.C,D202*%
X12950000Y-21950000D03*
X12950000Y-18650000D03*
%TD*%
D16*
%TO.C,R230*%
X42092500Y-9855000D03*
X40267500Y-9855000D03*
%TD*%
D14*
%TO.C,R212*%
X4375000Y-34290000D03*
X6200000Y-34290000D03*
%TD*%
D16*
%TO.C,R238*%
X49650000Y-33200000D03*
X47825000Y-33200000D03*
%TD*%
D14*
%TO.C,R202*%
X22577500Y-19485000D03*
X24402500Y-19485000D03*
%TD*%
D12*
%TO.C,C308*%
X91935000Y-7939999D03*
X91935000Y-6040001D03*
%TD*%
D16*
%TO.C,R308*%
X100512500Y-9600000D03*
X98687500Y-9600000D03*
%TD*%
D11*
%TO.C,C211*%
X61055001Y-33225000D03*
X62954999Y-33225000D03*
%TD*%
D10*
%TO.C,R220*%
X57675000Y-27507500D03*
X57675000Y-25682500D03*
%TD*%
D11*
%TO.C,C214*%
X52615000Y-6530000D03*
X54515000Y-6530000D03*
%TD*%
D14*
%TO.C,R201*%
X18987500Y-23000000D03*
X20812500Y-23000000D03*
%TD*%
D12*
%TO.C,C213*%
X19490000Y-39264999D03*
X19490000Y-37365001D03*
%TD*%
D21*
%TO.C,U202*%
X23300000Y-30140000D03*
X22030000Y-30140000D03*
X20760000Y-30140000D03*
X19490000Y-30140000D03*
X18220000Y-30140000D03*
X16950000Y-30140000D03*
X15680000Y-30140000D03*
X15680000Y-35090000D03*
X16950000Y-35090000D03*
X18220000Y-35090000D03*
X19490000Y-35090000D03*
X20760000Y-35090000D03*
X22030000Y-35090000D03*
X23300000Y-35090000D03*
%TD*%
D10*
%TO.C,R204*%
X8952500Y-8527500D03*
X8952500Y-6702500D03*
%TD*%
D14*
%TO.C,R218*%
X22815000Y-38755000D03*
X24640000Y-38755000D03*
%TD*%
D10*
%TO.C,R411*%
X123870000Y-28072500D03*
X123870000Y-26247500D03*
%TD*%
D13*
%TO.C,C404*%
X81330000Y-41285001D03*
X81330000Y-43184999D03*
%TD*%
D11*
%TO.C,C301*%
X86440000Y-4090000D03*
X88340000Y-4090000D03*
%TD*%
D22*
%TO.C,Q403*%
X106370000Y-33420000D03*
X104470000Y-33420000D03*
X105420000Y-35420000D03*
%TD*%
D12*
%TO.C,C207*%
X19115000Y-19829999D03*
X19115000Y-17930001D03*
%TD*%
D16*
%TO.C,R424*%
X90002500Y-35500000D03*
X88177500Y-35500000D03*
%TD*%
D14*
%TO.C,R214*%
X11635000Y-32360000D03*
X13460000Y-32360000D03*
%TD*%
D17*
%TO.C,U204*%
X50025000Y-23225000D03*
X51295000Y-23225000D03*
X52565000Y-23225000D03*
X53835000Y-23225000D03*
X55105000Y-23225000D03*
X56375000Y-23225000D03*
X57645000Y-23225000D03*
X57645000Y-18275000D03*
X56375000Y-18275000D03*
X55105000Y-18275000D03*
X53835000Y-18275000D03*
X52565000Y-18275000D03*
X51295000Y-18275000D03*
X50025000Y-18275000D03*
%TD*%
D10*
%TO.C,R409*%
X116890001Y-28092500D03*
X116890001Y-26267500D03*
%TD*%
D13*
%TO.C,C310*%
X110390000Y-17340001D03*
X110390000Y-19239999D03*
%TD*%
D14*
%TO.C,R311*%
X98677500Y-5800000D03*
X100502500Y-5800000D03*
%TD*%
D13*
%TO.C,C408*%
X113450000Y-37760001D03*
X113450000Y-39659999D03*
%TD*%
D11*
%TO.C,C202*%
X3630000Y-11965000D03*
X5530000Y-11965000D03*
%TD*%
D20*
%TO.C,D204*%
X27077500Y-40102500D03*
X27077500Y-36802500D03*
%TD*%
D13*
%TO.C,C305*%
X94460000Y-17370001D03*
X94460000Y-19269999D03*
%TD*%
D14*
%TO.C,R221*%
X15175000Y-40955000D03*
X17000000Y-40955000D03*
%TD*%
D18*
%TO.C,R403*%
X71722500Y-37332500D03*
X71722500Y-39157500D03*
%TD*%
D23*
%TO.C,U304*%
X115060000Y-21750000D03*
D24*
X112990000Y-20480000D03*
X115060000Y-19210000D03*
%TD*%
D16*
%TO.C,R235*%
X24402500Y-21585000D03*
X22577500Y-21585000D03*
%TD*%
%TO.C,R232*%
X51972500Y-26170000D03*
X50147500Y-26170000D03*
%TD*%
D18*
%TO.C,R246*%
X40275000Y-27587500D03*
X40275000Y-29412500D03*
%TD*%
D14*
%TO.C,R205*%
X3667500Y-15365000D03*
X5492500Y-15365000D03*
%TD*%
D25*
%TO.C,U103*%
X43437500Y-47887500D03*
D26*
X43437500Y-45347500D03*
X45977500Y-47887500D03*
X45977500Y-45347500D03*
X48517500Y-47887500D03*
X48517500Y-45347500D03*
X51057500Y-47887500D03*
X51057500Y-45347500D03*
X53597500Y-47887500D03*
X53597500Y-45347500D03*
X56137500Y-47887500D03*
X56137500Y-45347500D03*
X58677500Y-47887500D03*
X58677500Y-45347500D03*
X61217500Y-47887500D03*
X61217500Y-45347500D03*
X63757500Y-47887500D03*
X63757500Y-45347500D03*
%TD*%
D27*
%TO.C,U302*%
X124970000Y-14357500D03*
X124320000Y-14357500D03*
X123670000Y-14357500D03*
X123020000Y-14357500D03*
X122370000Y-14357500D03*
X121720000Y-14357500D03*
X121070000Y-14357500D03*
X121070000Y-20082500D03*
X121720000Y-20082500D03*
X122370000Y-20082500D03*
X123020000Y-20082500D03*
X123670000Y-20082500D03*
X124320000Y-20082500D03*
X124970000Y-20082500D03*
%TD*%
D16*
%TO.C,R244*%
X62907500Y-35345000D03*
X61082500Y-35345000D03*
%TD*%
D20*
%TO.C,D201*%
X26700000Y-21472500D03*
X26700000Y-18172500D03*
%TD*%
D28*
%TO.C,SAW2*%
X44300000Y-31100000D03*
%TD*%
D10*
%TO.C,R314*%
X104820000Y-19212500D03*
X104820000Y-17387500D03*
%TD*%
D29*
%TO.C,U206*%
X35127500Y-17932501D03*
X35127500Y-19202501D03*
X35127500Y-20472501D03*
X35127500Y-21742501D03*
X35127500Y-23012501D03*
X35127500Y-24282501D03*
X35127500Y-25552501D03*
X40077500Y-25552501D03*
X40077500Y-24282501D03*
X40077500Y-23012501D03*
X40077500Y-21742501D03*
X40077500Y-20472501D03*
X40077500Y-19202501D03*
X40077500Y-17932501D03*
%TD*%
D28*
%TO.C,OSC2*%
X61225000Y-7675000D03*
%TD*%
D12*
%TO.C,C215*%
X55475000Y-27524999D03*
X55475000Y-25625001D03*
%TD*%
D13*
%TO.C,C302*%
X117860000Y-21320001D03*
X117860000Y-23219999D03*
%TD*%
D30*
%TO.C,R247*%
X32885000Y-6375000D03*
D31*
X37965000Y-6375000D03*
%TD*%
D28*
%TO.C,SAW1*%
X29025000Y-6725000D03*
%TD*%
D14*
%TO.C,R420*%
X108227500Y-43400000D03*
X110052500Y-43400000D03*
%TD*%
D12*
%TO.C,C403*%
X81340000Y-31844999D03*
X81340000Y-29945001D03*
%TD*%
D16*
%TO.C,R312*%
X100522500Y-11790000D03*
X98697500Y-11790000D03*
%TD*%
D18*
%TO.C,R227*%
X22897500Y-25937500D03*
X22897500Y-27762500D03*
%TD*%
D16*
%TO.C,R237*%
X49650000Y-36500000D03*
X47825000Y-36500000D03*
%TD*%
%TO.C,R422*%
X90002500Y-38825000D03*
X88177500Y-38825000D03*
%TD*%
%TO.C,R303*%
X83412500Y-6970000D03*
X81587500Y-6970000D03*
%TD*%
D17*
%TO.C,U402*%
X93100000Y-35550000D03*
X94370000Y-35550000D03*
X95640000Y-35550000D03*
X96910000Y-35550000D03*
X98180000Y-35550000D03*
X99450000Y-35550000D03*
X100720000Y-35550000D03*
X101990000Y-35550000D03*
X101990000Y-30600000D03*
X100720000Y-30600000D03*
X99450000Y-30600000D03*
X98180000Y-30600000D03*
X96910000Y-30600000D03*
X95640000Y-30600000D03*
X94370000Y-30600000D03*
X93100000Y-30600000D03*
%TD*%
D28*
%TO.C,OSC1*%
X59200000Y-12050000D03*
%TD*%
D32*
%TO.C,C210*%
X44362499Y-21742501D03*
X42462501Y-21742501D03*
%TD*%
D28*
%TO.C,TRI1*%
X8300000Y-20750000D03*
%TD*%
D13*
%TO.C,C303*%
X117860000Y-17540001D03*
X117860000Y-19439999D03*
%TD*%
D14*
%TO.C,R421*%
X83752500Y-31775000D03*
X85577500Y-31775000D03*
%TD*%
D10*
%TO.C,R307*%
X102470000Y-20962500D03*
X102470000Y-19137500D03*
%TD*%
D13*
%TO.C,C203*%
X26090000Y-9955001D03*
X26090000Y-11854999D03*
%TD*%
D16*
%TO.C,R211*%
X17032500Y-21550000D03*
X15207500Y-21550000D03*
%TD*%
D18*
%TO.C,R234*%
X22540000Y-6717500D03*
X22540000Y-8542500D03*
%TD*%
D16*
%TO.C,R233*%
X50387500Y-15940000D03*
X48562500Y-15940000D03*
%TD*%
D13*
%TO.C,C307*%
X93230000Y-21380001D03*
X93230000Y-23279999D03*
%TD*%
D32*
%TO.C,C209*%
X17199999Y-27655000D03*
X15300001Y-27655000D03*
%TD*%
D16*
%TO.C,R222*%
X17000000Y-37675000D03*
X15175000Y-37675000D03*
%TD*%
D10*
%TO.C,R426*%
X93360000Y-39672500D03*
X93360000Y-37847500D03*
%TD*%
D14*
%TO.C,R203*%
X11047500Y-13280000D03*
X12872500Y-13280000D03*
%TD*%
%TO.C,R423*%
X76182500Y-27000000D03*
X78007500Y-27000000D03*
%TD*%
D10*
%TO.C,R231*%
X61075000Y-27512500D03*
X61075000Y-25687500D03*
%TD*%
D22*
%TO.C,Q201*%
X11022500Y-8535000D03*
X12922500Y-8535000D03*
X11972500Y-6535000D03*
%TD*%
D10*
%TO.C,R216*%
X9527500Y-31562500D03*
X9527500Y-29737500D03*
%TD*%
D16*
%TO.C,R428*%
X94312500Y-41710000D03*
X92487500Y-41710000D03*
%TD*%
D10*
%TO.C,R402*%
X75785000Y-43167500D03*
X75785000Y-41342500D03*
%TD*%
D13*
%TO.C,C206*%
X19115000Y-6680001D03*
X19115000Y-8579999D03*
%TD*%
D22*
%TO.C,Q404*%
X122750000Y-33830000D03*
X120850000Y-33830000D03*
X121800000Y-35830000D03*
%TD*%
D16*
%TO.C,R316*%
X90562500Y-23880000D03*
X88737500Y-23880000D03*
%TD*%
D10*
%TO.C,R418*%
X116910001Y-43402500D03*
X116910001Y-41577500D03*
%TD*%
D16*
%TO.C,R305*%
X100522500Y-15540000D03*
X98697500Y-15540000D03*
%TD*%
D18*
%TO.C,R206*%
X5430000Y-6702500D03*
X5430000Y-8527500D03*
%TD*%
D10*
%TO.C,R430*%
X113440000Y-43402500D03*
X113440000Y-41577500D03*
%TD*%
D19*
%TO.C,Q302*%
X79940000Y-11725000D03*
X79940000Y-13625000D03*
X81940000Y-12675000D03*
%TD*%
D16*
%TO.C,R225*%
X32645000Y-14392501D03*
X30820000Y-14392501D03*
%TD*%
D14*
%TO.C,R405*%
X88757500Y-26255000D03*
X90582500Y-26255000D03*
%TD*%
D16*
%TO.C,R242*%
X54472500Y-8630000D03*
X52647500Y-8630000D03*
%TD*%
D21*
%TO.C,U403*%
X117280000Y-30585000D03*
X116010000Y-30585000D03*
X114740000Y-30585000D03*
X113470000Y-30585000D03*
X112200000Y-30585000D03*
X110930000Y-30585000D03*
X109660000Y-30585000D03*
X109660000Y-35535000D03*
X110930000Y-35535000D03*
X112200000Y-35535000D03*
X113470000Y-35535000D03*
X114740000Y-35535000D03*
X116010000Y-35535000D03*
X117280000Y-35535000D03*
%TD*%
%TO.C,U201*%
X22922500Y-10755000D03*
X21652500Y-10755000D03*
X20382500Y-10755000D03*
X19112500Y-10755000D03*
X17842500Y-10755000D03*
X16572500Y-10755000D03*
X15302500Y-10755000D03*
X15302500Y-15705000D03*
X16572500Y-15705000D03*
X17842500Y-15705000D03*
X19112500Y-15705000D03*
X20382500Y-15705000D03*
X21652500Y-15705000D03*
X22922500Y-15705000D03*
%TD*%
D20*
%TO.C,D203*%
X12817500Y-41025000D03*
X12817500Y-37725000D03*
%TD*%
D22*
%TO.C,Q405*%
X122700000Y-37910000D03*
X120800000Y-37910000D03*
X121750000Y-39910000D03*
%TD*%
D16*
%TO.C,R236*%
X24640000Y-40815000D03*
X22815000Y-40815000D03*
%TD*%
%TO.C,R315*%
X86622501Y-19430000D03*
X84797501Y-19430000D03*
%TD*%
%TO.C,R223*%
X31692500Y-32900000D03*
X29867500Y-32900000D03*
%TD*%
D33*
%TO.C,D302*%
X86677502Y-23870000D03*
X84802500Y-23870000D03*
%TD*%
D16*
%TO.C,R224*%
X31702500Y-29600000D03*
X29877500Y-29600000D03*
%TD*%
D10*
%TO.C,R413*%
X103915000Y-39712500D03*
X103915000Y-37887500D03*
%TD*%
%TO.C,R416*%
X120850000Y-32292500D03*
X120850000Y-30467500D03*
%TD*%
D34*
%TO.C,D301*%
X84812501Y-21640000D03*
X86687501Y-21640000D03*
%TD*%
D18*
%TO.C,R419*%
X116800000Y-37797500D03*
X116800000Y-39622500D03*
%TD*%
D23*
%TO.C,U305*%
X119610000Y-7430000D03*
D24*
X117540000Y-6160000D03*
X119610000Y-4890000D03*
%TD*%
D10*
%TO.C,R427*%
X96760000Y-39662500D03*
X96760000Y-37837500D03*
%TD*%
D19*
%TO.C,Q401*%
X73747500Y-33920000D03*
X73747500Y-35820000D03*
X75747500Y-34870000D03*
%TD*%
D16*
%TO.C,R228*%
X42102500Y-6345000D03*
X40277500Y-6345000D03*
%TD*%
D10*
%TO.C,R417*%
X120820000Y-43502500D03*
X120820000Y-41677500D03*
%TD*%
D15*
%TO.C,U203*%
X45200000Y-12275000D03*
X45850000Y-12275000D03*
X46500000Y-12275000D03*
X47150000Y-12275000D03*
X47800000Y-12275000D03*
X48450000Y-12275000D03*
X49100000Y-12275000D03*
X49750000Y-12275000D03*
X50400000Y-12275000D03*
X51050000Y-12275000D03*
X51050000Y-6550000D03*
X50400000Y-6550000D03*
X49750000Y-6550000D03*
X49100000Y-6550000D03*
X48450000Y-6550000D03*
X47800000Y-6550000D03*
X47150000Y-6550000D03*
X46500000Y-6550000D03*
X45850000Y-6550000D03*
X45200000Y-6550000D03*
%TD*%
D13*
%TO.C,C204*%
X26497500Y-28955001D03*
X26497500Y-30854999D03*
%TD*%
D18*
%TO.C,R240*%
X55955000Y-14237500D03*
X55955000Y-16062500D03*
%TD*%
%TO.C,R309*%
X106950000Y-5997500D03*
X106950000Y-7822500D03*
%TD*%
D10*
%TO.C,R302*%
X84750000Y-17537500D03*
X84750000Y-15712500D03*
%TD*%
D13*
%TO.C,C304*%
X122430000Y-3500001D03*
X122430000Y-5399999D03*
%TD*%
D11*
%TO.C,C208*%
X4367500Y-30920000D03*
X6267500Y-30920000D03*
%TD*%
D18*
%TO.C,R407*%
X96090000Y-26387500D03*
X96090000Y-28212500D03*
%TD*%
D10*
%TO.C,R404*%
X71722500Y-35332500D03*
X71722500Y-33507500D03*
%TD*%
D21*
%TO.C,U404*%
X85150000Y-34150000D03*
X83880000Y-34150000D03*
X82610000Y-34150000D03*
X81340000Y-34150000D03*
X80070000Y-34150000D03*
X78800000Y-34150000D03*
X77530000Y-34150000D03*
X77530000Y-39100000D03*
X78800000Y-39100000D03*
X80070000Y-39100000D03*
X81340000Y-39100000D03*
X82610000Y-39100000D03*
X83880000Y-39100000D03*
X85150000Y-39100000D03*
%TD*%
D13*
%TO.C,C314*%
X123020000Y-21960001D03*
X123020000Y-23859999D03*
%TD*%
D16*
%TO.C,R239*%
X49650000Y-29900000D03*
X47825000Y-29900000D03*
%TD*%
D10*
%TO.C,R313*%
X106940000Y-19192500D03*
X106940000Y-17367500D03*
%TD*%
D12*
%TO.C,C313*%
X119690000Y-12099999D03*
X119690000Y-10200001D03*
%TD*%
D28*
%TO.C,OSCMIX1*%
X44425000Y-18275000D03*
%TD*%
D13*
%TO.C,C315*%
X126940000Y-20100001D03*
X126940000Y-21999999D03*
%TD*%
D14*
%TO.C,R208*%
X11047500Y-16625000D03*
X12872500Y-16625000D03*
%TD*%
D18*
%TO.C,R310*%
X104810000Y-5997500D03*
X104810000Y-7822500D03*
%TD*%
D22*
%TO.C,Q202*%
X11577500Y-27880000D03*
X13477500Y-27880000D03*
X12527500Y-25880000D03*
%TD*%
D11*
%TO.C,C414*%
X88140000Y-42200000D03*
X90040000Y-42200000D03*
%TD*%
D35*
%TO.C,D206*%
X33350000Y-29600000D03*
X36650000Y-29600000D03*
%TD*%
D32*
%TO.C,C201*%
X16564999Y-8430000D03*
X14665001Y-8430000D03*
%TD*%
D16*
%TO.C,R414*%
X107852500Y-37930000D03*
X106027500Y-37930000D03*
%TD*%
D14*
%TO.C,R219*%
X11635000Y-35720000D03*
X13460000Y-35720000D03*
%TD*%
D35*
%TO.C,D205*%
X34472500Y-14392501D03*
X37772500Y-14392501D03*
%TD*%
D18*
%TO.C,R317*%
X115010000Y-10237500D03*
X115010000Y-12062500D03*
%TD*%
D16*
%TO.C,R429*%
X73982500Y-25250000D03*
X72157500Y-25250000D03*
%TD*%
D18*
%TO.C,R415*%
X109910000Y-37797500D03*
X109910000Y-39622500D03*
%TD*%
%TO.C,R245*%
X42900000Y-23817500D03*
X42900000Y-25642500D03*
%TD*%
D16*
%TO.C,R229*%
X42112500Y-13175000D03*
X40287500Y-13175000D03*
%TD*%
D11*
%TO.C,C413*%
X80995000Y-27125000D03*
X82895000Y-27125000D03*
%TD*%
D16*
%TO.C,R425*%
X78002500Y-29275000D03*
X76177500Y-29275000D03*
%TD*%
D11*
%TO.C,C205*%
X30862500Y-21752501D03*
X32762500Y-21752501D03*
%TD*%
D10*
%TO.C,R410*%
X120270001Y-28092500D03*
X120270001Y-26267500D03*
%TD*%
%TO.C,R306*%
X99105000Y-20947500D03*
X99105000Y-19122500D03*
%TD*%
D28*
%TO.C,TRI2*%
X33850000Y-39550000D03*
%TD*%
D10*
%TO.C,R412*%
X105415000Y-27137500D03*
X105415000Y-25312500D03*
%TD*%
D13*
%TO.C,C312*%
X122430000Y-7310001D03*
X122430000Y-9209999D03*
%TD*%
D21*
%TO.C,U301*%
X95735000Y-10185000D03*
X94465000Y-10185000D03*
X93195000Y-10185000D03*
X91925000Y-10185000D03*
X90655000Y-10185000D03*
X89385000Y-10185000D03*
X88115000Y-10185000D03*
X88115000Y-15135000D03*
X89385000Y-15135000D03*
X90655000Y-15135000D03*
X91925000Y-15135000D03*
X93195000Y-15135000D03*
X94465000Y-15135000D03*
X95735000Y-15135000D03*
%TD*%
D13*
%TO.C,C410*%
X100225000Y-37795001D03*
X100225000Y-39694999D03*
%TD*%
D10*
%TO.C,R243*%
X26497500Y-34567500D03*
X26497500Y-32742500D03*
%TD*%
D22*
%TO.C,Q402*%
X106360000Y-28810000D03*
X104460000Y-28810000D03*
X105410000Y-30810000D03*
%TD*%
M02*
