%TF.GenerationSoftware,KiCad,Pcbnew,7.0.7*%
%TF.CreationDate,2024-06-06T22:47:17-06:00*%
%TF.ProjectId,VoiceBoardR2,566f6963-6542-46f6-9172-6452322e6b69,rev?*%
%TF.SameCoordinates,Original*%
%TF.FileFunction,Legend,Bot*%
%TF.FilePolarity,Positive*%
%FSLAX46Y46*%
G04 Gerber Fmt 4.6, Leading zero omitted, Abs format (unit mm)*
G04 Created by KiCad (PCBNEW 7.0.7) date 2024-06-06 22:47:17*
%MOMM*%
%LPD*%
G01*
G04 APERTURE LIST*
%ADD10C,0.150000*%
%ADD11C,0.120000*%
G04 APERTURE END LIST*
D10*
G36*
X27858478Y-34275000D02*
G01*
X27501273Y-34275000D01*
X27431053Y-33787124D01*
X26993859Y-33787124D01*
X26993859Y-33780408D01*
X26923639Y-34275000D01*
X26538956Y-34275000D01*
X26671865Y-33454344D01*
X27039043Y-33454344D01*
X27385868Y-33454344D01*
X27217951Y-32240457D01*
X27210624Y-32240457D01*
X27039043Y-33454344D01*
X26671865Y-33454344D01*
X26937683Y-31813032D01*
X27459141Y-31813032D01*
X27858478Y-34275000D01*
G37*
G36*
X26354553Y-34275000D02*
G01*
X26012002Y-34275000D01*
X26012002Y-32477983D01*
X26004675Y-32477983D01*
X25543056Y-34275000D01*
X25147383Y-34275000D01*
X25147383Y-31813032D01*
X25490544Y-31813032D01*
X25490544Y-33287037D01*
X25497260Y-33287037D01*
X25871563Y-31813032D01*
X26354553Y-31813032D01*
X26354553Y-34275000D01*
G37*
G36*
X24961758Y-34275000D02*
G01*
X24604553Y-34275000D01*
X24534333Y-33787124D01*
X24097138Y-33787124D01*
X24097138Y-33780408D01*
X24026919Y-34275000D01*
X23642236Y-34275000D01*
X23775145Y-33454344D01*
X24142323Y-33454344D01*
X24489148Y-33454344D01*
X24321231Y-32240457D01*
X24313904Y-32240457D01*
X24142323Y-33454344D01*
X23775145Y-33454344D01*
X24040963Y-31813032D01*
X24562421Y-31813032D01*
X24961758Y-34275000D01*
G37*
G36*
X23457833Y-34275000D02*
G01*
X22439340Y-34275000D01*
X22439340Y-33925122D01*
X23073150Y-33925122D01*
X23073150Y-31813032D01*
X23457833Y-31813032D01*
X23457833Y-34275000D01*
G37*
G36*
X21747038Y-31774608D02*
G01*
X21780956Y-31776566D01*
X21813857Y-31779818D01*
X21845733Y-31784353D01*
X21876579Y-31790163D01*
X21906387Y-31797237D01*
X21935152Y-31805566D01*
X21962866Y-31815140D01*
X21989524Y-31825949D01*
X22015120Y-31837984D01*
X22039646Y-31851234D01*
X22063098Y-31865691D01*
X22085467Y-31881343D01*
X22106748Y-31898183D01*
X22126934Y-31916199D01*
X22146020Y-31935382D01*
X22163998Y-31955723D01*
X22180862Y-31977211D01*
X22196607Y-31999837D01*
X22211225Y-32023592D01*
X22224710Y-32048465D01*
X22237056Y-32074447D01*
X22248256Y-32101528D01*
X22258305Y-32129698D01*
X22267195Y-32158948D01*
X22274920Y-32189268D01*
X22281475Y-32220648D01*
X22286852Y-32253078D01*
X22291045Y-32286549D01*
X22294048Y-32321051D01*
X22295854Y-32356574D01*
X22296458Y-32393108D01*
X22296458Y-33695533D01*
X22295854Y-33732066D01*
X22294048Y-33767584D01*
X22291045Y-33802078D01*
X22286852Y-33835538D01*
X22281475Y-33867954D01*
X22274920Y-33899318D01*
X22267195Y-33929619D01*
X22258305Y-33958848D01*
X22248256Y-33986996D01*
X22237056Y-34014053D01*
X22224710Y-34040010D01*
X22211225Y-34064856D01*
X22196607Y-34088584D01*
X22180862Y-34111182D01*
X22163998Y-34132642D01*
X22146020Y-34152954D01*
X22126934Y-34172109D01*
X22106748Y-34190097D01*
X22085467Y-34206908D01*
X22063098Y-34222534D01*
X22039646Y-34236964D01*
X22015120Y-34250189D01*
X21989524Y-34262200D01*
X21962866Y-34272986D01*
X21935152Y-34282540D01*
X21906387Y-34290850D01*
X21876579Y-34297908D01*
X21845733Y-34303704D01*
X21813857Y-34308229D01*
X21780956Y-34311472D01*
X21747038Y-34313425D01*
X21712107Y-34314078D01*
X21677176Y-34313425D01*
X21643258Y-34311472D01*
X21610357Y-34308229D01*
X21578481Y-34303704D01*
X21547635Y-34297908D01*
X21517827Y-34290850D01*
X21489062Y-34282540D01*
X21461348Y-34272986D01*
X21434690Y-34262200D01*
X21409094Y-34250189D01*
X21384567Y-34236964D01*
X21361116Y-34222534D01*
X21338747Y-34206908D01*
X21317466Y-34190097D01*
X21297280Y-34172109D01*
X21278194Y-34152954D01*
X21260216Y-34132642D01*
X21243352Y-34111182D01*
X21227607Y-34088584D01*
X21212989Y-34064856D01*
X21199504Y-34040010D01*
X21187158Y-34014053D01*
X21175958Y-33986996D01*
X21165909Y-33958848D01*
X21157019Y-33929619D01*
X21149294Y-33899318D01*
X21142739Y-33867954D01*
X21137362Y-33835538D01*
X21133169Y-33802078D01*
X21130166Y-33767584D01*
X21128360Y-33732066D01*
X21128160Y-33719958D01*
X21512438Y-33719958D01*
X21513332Y-33751882D01*
X21515984Y-33781293D01*
X21520348Y-33808253D01*
X21526377Y-33832825D01*
X21538447Y-33865341D01*
X21554009Y-33892837D01*
X21572910Y-33915523D01*
X21594996Y-33933610D01*
X21620112Y-33947311D01*
X21648105Y-33956835D01*
X21678822Y-33962394D01*
X21712107Y-33964200D01*
X21745392Y-33962394D01*
X21776108Y-33956835D01*
X21804102Y-33947311D01*
X21829218Y-33933610D01*
X21851304Y-33915523D01*
X21870205Y-33892837D01*
X21885767Y-33865341D01*
X21897836Y-33832825D01*
X21903866Y-33808253D01*
X21908230Y-33781293D01*
X21910881Y-33751882D01*
X21911775Y-33719958D01*
X21911775Y-32368684D01*
X21910881Y-32336760D01*
X21908230Y-32307349D01*
X21903866Y-32280389D01*
X21897836Y-32255817D01*
X21885767Y-32223300D01*
X21870205Y-32195804D01*
X21851304Y-32173119D01*
X21829218Y-32155031D01*
X21804102Y-32141331D01*
X21776108Y-32131807D01*
X21745392Y-32126247D01*
X21712107Y-32124441D01*
X21678822Y-32126247D01*
X21648105Y-32131807D01*
X21620112Y-32141331D01*
X21594996Y-32155031D01*
X21572910Y-32173119D01*
X21554009Y-32195804D01*
X21538447Y-32223300D01*
X21526377Y-32255817D01*
X21520348Y-32280389D01*
X21515984Y-32307349D01*
X21513332Y-32336760D01*
X21512438Y-32368684D01*
X21512438Y-33719958D01*
X21128160Y-33719958D01*
X21127756Y-33695533D01*
X21127756Y-32393108D01*
X21128360Y-32356574D01*
X21130166Y-32321051D01*
X21133169Y-32286549D01*
X21137362Y-32253078D01*
X21142739Y-32220648D01*
X21149294Y-32189268D01*
X21157019Y-32158948D01*
X21165909Y-32129698D01*
X21175958Y-32101528D01*
X21187158Y-32074447D01*
X21199504Y-32048465D01*
X21212989Y-32023592D01*
X21227607Y-31999837D01*
X21243352Y-31977211D01*
X21260216Y-31955723D01*
X21278194Y-31935382D01*
X21297280Y-31916199D01*
X21317466Y-31898183D01*
X21338747Y-31881343D01*
X21361116Y-31865691D01*
X21384567Y-31851234D01*
X21409094Y-31837984D01*
X21434690Y-31825949D01*
X21461348Y-31815140D01*
X21489062Y-31805566D01*
X21517827Y-31797237D01*
X21547635Y-31790163D01*
X21578481Y-31784353D01*
X21610357Y-31779818D01*
X21643258Y-31776566D01*
X21677176Y-31774608D01*
X21712107Y-31773953D01*
X21747038Y-31774608D01*
G37*
G36*
X20322976Y-34314078D02*
G01*
X20288075Y-34313425D01*
X20254243Y-34311470D01*
X20221482Y-34308222D01*
X20189795Y-34303690D01*
X20159185Y-34297880D01*
X20129654Y-34290802D01*
X20101204Y-34282463D01*
X20073839Y-34272872D01*
X20047560Y-34262037D01*
X20022370Y-34249965D01*
X19998273Y-34236666D01*
X19975270Y-34222147D01*
X19953364Y-34206417D01*
X19932557Y-34189483D01*
X19912853Y-34171354D01*
X19894253Y-34152038D01*
X19876761Y-34131544D01*
X19860379Y-34109878D01*
X19845109Y-34087050D01*
X19830954Y-34063068D01*
X19817917Y-34037939D01*
X19806000Y-34011672D01*
X19795206Y-33984275D01*
X19785537Y-33955757D01*
X19776995Y-33926125D01*
X19769585Y-33895387D01*
X19763307Y-33863553D01*
X19758165Y-33830629D01*
X19754162Y-33796624D01*
X19751299Y-33761547D01*
X19749579Y-33725405D01*
X19749005Y-33688206D01*
X19749005Y-32869993D01*
X20305879Y-32869993D01*
X20305879Y-33219870D01*
X20112927Y-33219870D01*
X20112927Y-33717515D01*
X20113821Y-33750171D01*
X20116473Y-33780182D01*
X20120836Y-33807623D01*
X20126866Y-33832567D01*
X20138935Y-33865465D01*
X20154498Y-33893163D01*
X20173398Y-33915913D01*
X20195484Y-33933965D01*
X20220601Y-33947569D01*
X20248594Y-33956976D01*
X20279310Y-33962436D01*
X20312595Y-33964200D01*
X20345881Y-33962436D01*
X20376597Y-33956976D01*
X20404590Y-33947569D01*
X20429707Y-33933965D01*
X20451792Y-33915913D01*
X20470693Y-33893163D01*
X20486256Y-33865465D01*
X20498325Y-33832567D01*
X20504355Y-33807623D01*
X20508718Y-33780182D01*
X20511370Y-33750171D01*
X20512264Y-33717515D01*
X20512264Y-32363799D01*
X20511370Y-32332534D01*
X20508718Y-32303726D01*
X20504355Y-32277315D01*
X20498325Y-32253241D01*
X20486256Y-32221377D01*
X20470693Y-32194428D01*
X20451792Y-32172188D01*
X20429707Y-32154452D01*
X20404590Y-32141014D01*
X20376597Y-32131670D01*
X20345881Y-32126214D01*
X20312595Y-32124441D01*
X20279310Y-32126214D01*
X20248594Y-32131670D01*
X20220601Y-32141014D01*
X20195484Y-32154452D01*
X20173398Y-32172188D01*
X20154498Y-32194428D01*
X20138935Y-32221377D01*
X20126866Y-32253241D01*
X20120836Y-32277315D01*
X20116473Y-32303726D01*
X20113821Y-32332534D01*
X20112927Y-32363799D01*
X20112927Y-32595830D01*
X19749005Y-32595830D01*
X19749005Y-32388224D01*
X19749579Y-32352133D01*
X19751299Y-32317026D01*
X19754162Y-32282913D01*
X19758165Y-32249805D01*
X19763307Y-32217713D01*
X19769585Y-32186648D01*
X19776995Y-32156619D01*
X19785537Y-32127637D01*
X19795206Y-32099714D01*
X19806000Y-32072860D01*
X19817917Y-32047085D01*
X19830954Y-32022399D01*
X19845109Y-31998815D01*
X19860379Y-31976342D01*
X19876761Y-31954990D01*
X19894253Y-31934771D01*
X19912853Y-31915696D01*
X19932557Y-31897773D01*
X19953364Y-31881016D01*
X19975270Y-31865433D01*
X19998273Y-31851036D01*
X20022370Y-31837835D01*
X20047560Y-31825841D01*
X20073839Y-31815064D01*
X20101204Y-31805515D01*
X20129654Y-31797205D01*
X20159185Y-31790145D01*
X20189795Y-31784344D01*
X20221482Y-31779814D01*
X20254243Y-31776565D01*
X20288075Y-31774607D01*
X20322976Y-31773953D01*
X20357877Y-31774607D01*
X20391709Y-31776565D01*
X20424469Y-31779814D01*
X20456156Y-31784344D01*
X20486766Y-31790145D01*
X20516298Y-31797205D01*
X20544747Y-31805515D01*
X20572113Y-31815064D01*
X20598392Y-31825841D01*
X20623581Y-31837835D01*
X20647679Y-31851036D01*
X20670682Y-31865433D01*
X20692588Y-31881016D01*
X20713394Y-31897773D01*
X20733099Y-31915696D01*
X20751698Y-31934771D01*
X20769191Y-31954990D01*
X20785573Y-31976342D01*
X20800843Y-31998815D01*
X20814998Y-32022399D01*
X20828035Y-32047085D01*
X20839952Y-32072860D01*
X20850746Y-32099714D01*
X20860415Y-32127637D01*
X20868956Y-32156619D01*
X20876367Y-32186648D01*
X20882644Y-32217713D01*
X20887786Y-32249805D01*
X20891790Y-32282913D01*
X20894653Y-32317026D01*
X20896373Y-32352133D01*
X20896946Y-32388224D01*
X20896946Y-33688206D01*
X20896373Y-33725405D01*
X20894653Y-33761547D01*
X20891790Y-33796624D01*
X20887786Y-33830629D01*
X20882644Y-33863553D01*
X20876367Y-33895387D01*
X20868956Y-33926125D01*
X20860415Y-33955757D01*
X20850746Y-33984275D01*
X20839952Y-34011672D01*
X20828035Y-34037939D01*
X20814998Y-34063068D01*
X20800843Y-34087050D01*
X20785573Y-34109878D01*
X20769191Y-34131544D01*
X20751698Y-34152038D01*
X20733099Y-34171354D01*
X20713394Y-34189483D01*
X20692588Y-34206417D01*
X20670682Y-34222147D01*
X20647679Y-34236666D01*
X20623581Y-34249965D01*
X20598392Y-34262037D01*
X20572113Y-34272872D01*
X20544747Y-34282463D01*
X20516298Y-34290802D01*
X20486766Y-34297880D01*
X20456156Y-34303690D01*
X20424469Y-34308222D01*
X20391709Y-34311470D01*
X20357877Y-34313425D01*
X20322976Y-34314078D01*
G37*
G36*
X18672505Y-34275000D02*
G01*
X18161427Y-34275000D01*
X17790788Y-31813032D01*
X18143719Y-31813032D01*
X18395900Y-33723011D01*
X18403227Y-33723011D01*
X18654797Y-31813032D01*
X19043754Y-31813032D01*
X18672505Y-34275000D01*
G37*
G36*
X17091769Y-31774608D02*
G01*
X17125688Y-31776566D01*
X17158588Y-31779818D01*
X17190465Y-31784353D01*
X17221310Y-31790163D01*
X17251118Y-31797237D01*
X17279883Y-31805566D01*
X17307597Y-31815140D01*
X17334256Y-31825949D01*
X17359851Y-31837984D01*
X17384378Y-31851234D01*
X17407829Y-31865691D01*
X17430198Y-31881343D01*
X17451479Y-31898183D01*
X17471666Y-31916199D01*
X17490751Y-31935382D01*
X17508729Y-31955723D01*
X17525594Y-31977211D01*
X17541338Y-31999837D01*
X17555956Y-32023592D01*
X17569441Y-32048465D01*
X17581787Y-32074447D01*
X17592987Y-32101528D01*
X17603036Y-32129698D01*
X17611926Y-32158948D01*
X17619652Y-32189268D01*
X17626206Y-32220648D01*
X17631583Y-32253078D01*
X17635776Y-32286549D01*
X17638779Y-32321051D01*
X17640586Y-32356574D01*
X17641189Y-32393108D01*
X17641189Y-33695533D01*
X17640586Y-33732066D01*
X17638779Y-33767584D01*
X17635776Y-33802078D01*
X17631583Y-33835538D01*
X17626206Y-33867954D01*
X17619652Y-33899318D01*
X17611926Y-33929619D01*
X17603036Y-33958848D01*
X17592987Y-33986996D01*
X17581787Y-34014053D01*
X17569441Y-34040010D01*
X17555956Y-34064856D01*
X17541338Y-34088584D01*
X17525594Y-34111182D01*
X17508729Y-34132642D01*
X17490751Y-34152954D01*
X17471666Y-34172109D01*
X17451479Y-34190097D01*
X17430198Y-34206908D01*
X17407829Y-34222534D01*
X17384378Y-34236964D01*
X17359851Y-34250189D01*
X17334256Y-34262200D01*
X17307597Y-34272986D01*
X17279883Y-34282540D01*
X17251118Y-34290850D01*
X17221310Y-34297908D01*
X17190465Y-34303704D01*
X17158588Y-34308229D01*
X17125688Y-34311472D01*
X17091769Y-34313425D01*
X17056838Y-34314078D01*
X17021908Y-34313425D01*
X16987989Y-34311472D01*
X16955088Y-34308229D01*
X16923212Y-34303704D01*
X16892367Y-34297908D01*
X16862558Y-34290850D01*
X16833794Y-34282540D01*
X16806079Y-34272986D01*
X16779421Y-34262200D01*
X16753825Y-34250189D01*
X16729299Y-34236964D01*
X16705848Y-34222534D01*
X16683479Y-34206908D01*
X16662198Y-34190097D01*
X16642011Y-34172109D01*
X16622926Y-34152954D01*
X16604947Y-34132642D01*
X16588083Y-34111182D01*
X16572339Y-34088584D01*
X16557721Y-34064856D01*
X16544236Y-34040010D01*
X16531890Y-34014053D01*
X16520689Y-33986996D01*
X16510641Y-33958848D01*
X16501751Y-33929619D01*
X16494025Y-33899318D01*
X16487471Y-33867954D01*
X16482094Y-33835538D01*
X16477900Y-33802078D01*
X16474897Y-33767584D01*
X16473091Y-33732066D01*
X16472891Y-33719958D01*
X16857170Y-33719958D01*
X16858064Y-33751882D01*
X16860715Y-33781293D01*
X16865079Y-33808253D01*
X16871109Y-33832825D01*
X16883178Y-33865341D01*
X16898740Y-33892837D01*
X16917641Y-33915523D01*
X16939727Y-33933610D01*
X16964843Y-33947311D01*
X16992837Y-33956835D01*
X17023553Y-33962394D01*
X17056838Y-33964200D01*
X17090124Y-33962394D01*
X17120840Y-33956835D01*
X17148833Y-33947311D01*
X17173950Y-33933610D01*
X17196035Y-33915523D01*
X17214936Y-33892837D01*
X17230498Y-33865341D01*
X17242568Y-33832825D01*
X17248598Y-33808253D01*
X17252961Y-33781293D01*
X17255613Y-33751882D01*
X17256507Y-33719958D01*
X17256507Y-32368684D01*
X17255613Y-32336760D01*
X17252961Y-32307349D01*
X17248598Y-32280389D01*
X17242568Y-32255817D01*
X17230498Y-32223300D01*
X17214936Y-32195804D01*
X17196035Y-32173119D01*
X17173950Y-32155031D01*
X17148833Y-32141331D01*
X17120840Y-32131807D01*
X17090124Y-32126247D01*
X17056838Y-32124441D01*
X17023553Y-32126247D01*
X16992837Y-32131807D01*
X16964843Y-32141331D01*
X16939727Y-32155031D01*
X16917641Y-32173119D01*
X16898740Y-32195804D01*
X16883178Y-32223300D01*
X16871109Y-32255817D01*
X16865079Y-32280389D01*
X16860715Y-32307349D01*
X16858064Y-32336760D01*
X16857170Y-32368684D01*
X16857170Y-33719958D01*
X16472891Y-33719958D01*
X16472487Y-33695533D01*
X16472487Y-32393108D01*
X16473091Y-32356574D01*
X16474897Y-32321051D01*
X16477900Y-32286549D01*
X16482094Y-32253078D01*
X16487471Y-32220648D01*
X16494025Y-32189268D01*
X16501751Y-32158948D01*
X16510641Y-32129698D01*
X16520689Y-32101528D01*
X16531890Y-32074447D01*
X16544236Y-32048465D01*
X16557721Y-32023592D01*
X16572339Y-31999837D01*
X16588083Y-31977211D01*
X16604947Y-31955723D01*
X16622926Y-31935382D01*
X16642011Y-31916199D01*
X16662198Y-31898183D01*
X16683479Y-31881343D01*
X16705848Y-31865691D01*
X16729299Y-31851234D01*
X16753825Y-31837984D01*
X16779421Y-31825949D01*
X16806079Y-31815140D01*
X16833794Y-31805566D01*
X16862558Y-31797237D01*
X16892367Y-31790163D01*
X16923212Y-31784353D01*
X16955088Y-31779818D01*
X16987989Y-31776566D01*
X17021908Y-31774608D01*
X17056838Y-31773953D01*
X17091769Y-31774608D01*
G37*
G36*
X16213590Y-34275000D02*
G01*
X15828907Y-34275000D01*
X15828907Y-31813032D01*
X16213590Y-31813032D01*
X16213590Y-34275000D01*
G37*
G36*
X14999703Y-34314078D02*
G01*
X14965412Y-34313426D01*
X14932152Y-34311476D01*
X14899927Y-34308240D01*
X14868740Y-34303731D01*
X14838594Y-34297962D01*
X14809495Y-34290943D01*
X14781445Y-34282687D01*
X14754449Y-34273206D01*
X14728510Y-34262512D01*
X14703632Y-34250618D01*
X14679818Y-34237534D01*
X14657074Y-34223274D01*
X14635401Y-34207850D01*
X14614805Y-34191273D01*
X14595290Y-34173556D01*
X14576857Y-34154710D01*
X14559513Y-34134748D01*
X14543260Y-34113682D01*
X14528102Y-34091523D01*
X14514044Y-34068285D01*
X14501088Y-34043979D01*
X14489239Y-34018617D01*
X14478500Y-33992211D01*
X14468875Y-33964773D01*
X14460369Y-33936316D01*
X14452984Y-33906851D01*
X14446726Y-33876390D01*
X14441596Y-33844946D01*
X14437600Y-33812531D01*
X14434741Y-33779156D01*
X14433023Y-33744834D01*
X14432449Y-33709577D01*
X14432449Y-33359089D01*
X14796371Y-33359089D01*
X14796371Y-33737665D01*
X14797270Y-33767076D01*
X14799928Y-33794207D01*
X14804288Y-33819111D01*
X14813890Y-33852406D01*
X14826993Y-33880987D01*
X14843400Y-33905032D01*
X14862916Y-33924719D01*
X14885344Y-33940226D01*
X14910487Y-33951731D01*
X14938151Y-33959412D01*
X14968138Y-33963448D01*
X14989323Y-33964200D01*
X15020734Y-33962496D01*
X15049927Y-33957265D01*
X15076711Y-33948329D01*
X15100896Y-33935510D01*
X15122291Y-33918630D01*
X15140707Y-33897510D01*
X15155953Y-33871973D01*
X15167839Y-33841841D01*
X15176176Y-33806934D01*
X15179667Y-33780923D01*
X15181440Y-33752659D01*
X15181664Y-33737665D01*
X15181664Y-32354640D01*
X15180772Y-32325188D01*
X15178133Y-32297941D01*
X15173803Y-32272856D01*
X15164262Y-32239193D01*
X15151235Y-32210159D01*
X15134911Y-32185613D01*
X15115481Y-32165413D01*
X15093135Y-32149417D01*
X15068062Y-32137483D01*
X15040454Y-32129470D01*
X15010501Y-32125235D01*
X14989323Y-32124441D01*
X14957896Y-32126236D01*
X14928662Y-32131714D01*
X14901817Y-32141019D01*
X14877556Y-32154291D01*
X14856078Y-32171672D01*
X14837576Y-32193305D01*
X14822248Y-32219331D01*
X14810291Y-32249892D01*
X14801899Y-32285131D01*
X14798383Y-32311291D01*
X14796597Y-32339636D01*
X14796371Y-32354640D01*
X14796371Y-32641015D01*
X14432449Y-32641015D01*
X14432449Y-32379064D01*
X14433023Y-32343806D01*
X14434741Y-32309479D01*
X14437600Y-32276096D01*
X14441596Y-32243669D01*
X14446726Y-32212212D01*
X14452984Y-32181735D01*
X14460369Y-32152251D01*
X14468875Y-32123773D01*
X14478500Y-32096313D01*
X14489239Y-32069883D01*
X14501088Y-32044496D01*
X14514044Y-32020163D01*
X14528102Y-31996898D01*
X14543260Y-31974712D01*
X14559513Y-31953617D01*
X14576857Y-31933627D01*
X14595290Y-31914752D01*
X14614805Y-31897006D01*
X14635401Y-31880402D01*
X14657074Y-31864950D01*
X14679818Y-31850664D01*
X14703632Y-31837555D01*
X14728510Y-31825637D01*
X14754449Y-31814921D01*
X14781445Y-31805419D01*
X14809495Y-31797145D01*
X14838594Y-31790110D01*
X14868740Y-31784326D01*
X14899927Y-31779806D01*
X14932152Y-31776562D01*
X14965412Y-31774607D01*
X14999703Y-31773953D01*
X15033993Y-31774607D01*
X15067253Y-31776562D01*
X15099479Y-31779806D01*
X15130666Y-31784326D01*
X15160811Y-31790110D01*
X15189911Y-31797145D01*
X15217961Y-31805419D01*
X15244957Y-31814921D01*
X15270896Y-31825637D01*
X15295774Y-31837555D01*
X15319588Y-31850664D01*
X15342332Y-31864950D01*
X15364004Y-31880402D01*
X15384600Y-31897006D01*
X15404116Y-31914752D01*
X15422548Y-31933627D01*
X15439893Y-31953617D01*
X15456146Y-31974712D01*
X15471303Y-31996898D01*
X15485362Y-32020163D01*
X15498318Y-32044496D01*
X15510167Y-32069883D01*
X15520906Y-32096313D01*
X15530530Y-32123773D01*
X15539037Y-32152251D01*
X15546421Y-32181735D01*
X15552680Y-32212212D01*
X15557810Y-32243669D01*
X15561806Y-32276096D01*
X15564665Y-32309479D01*
X15566383Y-32343806D01*
X15566957Y-32379064D01*
X15566957Y-33709577D01*
X15566383Y-33744834D01*
X15564665Y-33779156D01*
X15561806Y-33812531D01*
X15557810Y-33844946D01*
X15552680Y-33876390D01*
X15546421Y-33906851D01*
X15539037Y-33936316D01*
X15530530Y-33964773D01*
X15520906Y-33992211D01*
X15510167Y-34018617D01*
X15498318Y-34043979D01*
X15485362Y-34068285D01*
X15471303Y-34091523D01*
X15456146Y-34113682D01*
X15439893Y-34134748D01*
X15422548Y-34154710D01*
X15404116Y-34173556D01*
X15384600Y-34191273D01*
X15364004Y-34207850D01*
X15342332Y-34223274D01*
X15319588Y-34237534D01*
X15295774Y-34250618D01*
X15270896Y-34262512D01*
X15244957Y-34273206D01*
X15217961Y-34282687D01*
X15189911Y-34290943D01*
X15160811Y-34297962D01*
X15130666Y-34303731D01*
X15099479Y-34308240D01*
X15067253Y-34311476D01*
X15033993Y-34313426D01*
X14999703Y-34314078D01*
G37*
G36*
X14203471Y-34275000D02*
G01*
X13153838Y-34275000D01*
X13153838Y-33925122D01*
X13818789Y-33925122D01*
X13818789Y-33179570D01*
X13290003Y-33179570D01*
X13290003Y-32829082D01*
X13818789Y-32829082D01*
X13818789Y-32163520D01*
X13153838Y-32163520D01*
X13153838Y-31813032D01*
X14203471Y-31813032D01*
X14203471Y-34275000D01*
G37*
G36*
X12374092Y-34275000D02*
G01*
X11768981Y-34275000D01*
X11733404Y-34274406D01*
X11698917Y-34272631D01*
X11665523Y-34269678D01*
X11633224Y-34265554D01*
X11602024Y-34260264D01*
X11571923Y-34253812D01*
X11542926Y-34246205D01*
X11515035Y-34237447D01*
X11488252Y-34227545D01*
X11462579Y-34216503D01*
X11438020Y-34204327D01*
X11414577Y-34191022D01*
X11392252Y-34176594D01*
X11371049Y-34161047D01*
X11350969Y-34144388D01*
X11332015Y-34126622D01*
X11314190Y-34107754D01*
X11297496Y-34087789D01*
X11281937Y-34066733D01*
X11267514Y-34044591D01*
X11254230Y-34021368D01*
X11242087Y-33997071D01*
X11231089Y-33971703D01*
X11221237Y-33945272D01*
X11212535Y-33917781D01*
X11204985Y-33889237D01*
X11198590Y-33859644D01*
X11193351Y-33829008D01*
X11189272Y-33797335D01*
X11186355Y-33764630D01*
X11184604Y-33730898D01*
X11184019Y-33696144D01*
X11184019Y-33685764D01*
X11569312Y-33685764D01*
X11570132Y-33718237D01*
X11572582Y-33747941D01*
X11576646Y-33774968D01*
X11582307Y-33799413D01*
X11593758Y-33831440D01*
X11608713Y-33858178D01*
X11627118Y-33879941D01*
X11648918Y-33897043D01*
X11674058Y-33909798D01*
X11702485Y-33918521D01*
X11734144Y-33923524D01*
X11768981Y-33925122D01*
X11989410Y-33925122D01*
X11989410Y-33179570D01*
X11817829Y-33179570D01*
X11786159Y-33180400D01*
X11756836Y-33182976D01*
X11729820Y-33187427D01*
X11705067Y-33193881D01*
X11672091Y-33207601D01*
X11643972Y-33226554D01*
X11620568Y-33251173D01*
X11601738Y-33281895D01*
X11591655Y-33305980D01*
X11583499Y-33333100D01*
X11577229Y-33363382D01*
X11572803Y-33396956D01*
X11570178Y-33433950D01*
X11569312Y-33474494D01*
X11569312Y-33685764D01*
X11184019Y-33685764D01*
X11184019Y-33487927D01*
X11184975Y-33440731D01*
X11187887Y-33395347D01*
X11192822Y-33351830D01*
X11199847Y-33310231D01*
X11209030Y-33270603D01*
X11220437Y-33233000D01*
X11234136Y-33197473D01*
X11250194Y-33164076D01*
X11268677Y-33132862D01*
X11289653Y-33103882D01*
X11313189Y-33077191D01*
X11339352Y-33052841D01*
X11368209Y-33030884D01*
X11399827Y-33011373D01*
X11434273Y-32994362D01*
X11471615Y-32979902D01*
X11471615Y-32973185D01*
X11440548Y-32958965D01*
X11411674Y-32942627D01*
X11384966Y-32924159D01*
X11360399Y-32903547D01*
X11337946Y-32880778D01*
X11317581Y-32855838D01*
X11299279Y-32828713D01*
X11283014Y-32799391D01*
X11268759Y-32767858D01*
X11256489Y-32734100D01*
X11246178Y-32698105D01*
X11237800Y-32659858D01*
X11231329Y-32619346D01*
X11226739Y-32576556D01*
X11225908Y-32562857D01*
X11607780Y-32562857D01*
X11608796Y-32599053D01*
X11611813Y-32632149D01*
X11616784Y-32662250D01*
X11623666Y-32689463D01*
X11632411Y-32713891D01*
X11648925Y-32745546D01*
X11669375Y-32771532D01*
X11693610Y-32792205D01*
X11721474Y-32807921D01*
X11752813Y-32819036D01*
X11787474Y-32825907D01*
X11812351Y-32828306D01*
X11838590Y-32829082D01*
X11989410Y-32829082D01*
X11989410Y-32163520D01*
X11803785Y-32163520D01*
X11779145Y-32164455D01*
X11745485Y-32169413D01*
X11715715Y-32178728D01*
X11689752Y-32192503D01*
X11667515Y-32210839D01*
X11648923Y-32233841D01*
X11633895Y-32261611D01*
X11622347Y-32294250D01*
X11616543Y-32318767D01*
X11612226Y-32345523D01*
X11609372Y-32374551D01*
X11607956Y-32405880D01*
X11607780Y-32422418D01*
X11607780Y-32562857D01*
X11225908Y-32562857D01*
X11224004Y-32531475D01*
X11223098Y-32484089D01*
X11223098Y-32382728D01*
X11223601Y-32347302D01*
X11225115Y-32313037D01*
X11227653Y-32279930D01*
X11231224Y-32247978D01*
X11235839Y-32217180D01*
X11241508Y-32187533D01*
X11248242Y-32159035D01*
X11256052Y-32131683D01*
X11264947Y-32105475D01*
X11274938Y-32080408D01*
X11286037Y-32056481D01*
X11298253Y-32033691D01*
X11311596Y-32012035D01*
X11326079Y-31991512D01*
X11341710Y-31972119D01*
X11358500Y-31953853D01*
X11376460Y-31936712D01*
X11395601Y-31920694D01*
X11415933Y-31905797D01*
X11437466Y-31892018D01*
X11460212Y-31879355D01*
X11484179Y-31867805D01*
X11509380Y-31857366D01*
X11535824Y-31848037D01*
X11563522Y-31839813D01*
X11592485Y-31832694D01*
X11622723Y-31826676D01*
X11654246Y-31821758D01*
X11687065Y-31817937D01*
X11721191Y-31815210D01*
X11756634Y-31813576D01*
X11793405Y-31813032D01*
X12374092Y-31813032D01*
X12374092Y-34275000D01*
G37*
G36*
X10438594Y-31774608D02*
G01*
X10472513Y-31776566D01*
X10505413Y-31779818D01*
X10537290Y-31784353D01*
X10568135Y-31790163D01*
X10597943Y-31797237D01*
X10626708Y-31805566D01*
X10654422Y-31815140D01*
X10681081Y-31825949D01*
X10706676Y-31837984D01*
X10731203Y-31851234D01*
X10754654Y-31865691D01*
X10777023Y-31881343D01*
X10798304Y-31898183D01*
X10818490Y-31916199D01*
X10837576Y-31935382D01*
X10855554Y-31955723D01*
X10872418Y-31977211D01*
X10888163Y-31999837D01*
X10902781Y-32023592D01*
X10916266Y-32048465D01*
X10928612Y-32074447D01*
X10939812Y-32101528D01*
X10949861Y-32129698D01*
X10958751Y-32158948D01*
X10966476Y-32189268D01*
X10973031Y-32220648D01*
X10978408Y-32253078D01*
X10982601Y-32286549D01*
X10985604Y-32321051D01*
X10987411Y-32356574D01*
X10988014Y-32393108D01*
X10988014Y-33695533D01*
X10987411Y-33732066D01*
X10985604Y-33767584D01*
X10982601Y-33802078D01*
X10978408Y-33835538D01*
X10973031Y-33867954D01*
X10966476Y-33899318D01*
X10958751Y-33929619D01*
X10949861Y-33958848D01*
X10939812Y-33986996D01*
X10928612Y-34014053D01*
X10916266Y-34040010D01*
X10902781Y-34064856D01*
X10888163Y-34088584D01*
X10872418Y-34111182D01*
X10855554Y-34132642D01*
X10837576Y-34152954D01*
X10818490Y-34172109D01*
X10798304Y-34190097D01*
X10777023Y-34206908D01*
X10754654Y-34222534D01*
X10731203Y-34236964D01*
X10706676Y-34250189D01*
X10681081Y-34262200D01*
X10654422Y-34272986D01*
X10626708Y-34282540D01*
X10597943Y-34290850D01*
X10568135Y-34297908D01*
X10537290Y-34303704D01*
X10505413Y-34308229D01*
X10472513Y-34311472D01*
X10438594Y-34313425D01*
X10403663Y-34314078D01*
X10368733Y-34313425D01*
X10334814Y-34311472D01*
X10301913Y-34308229D01*
X10270037Y-34303704D01*
X10239191Y-34297908D01*
X10209383Y-34290850D01*
X10180619Y-34282540D01*
X10152904Y-34272986D01*
X10126246Y-34262200D01*
X10100650Y-34250189D01*
X10076124Y-34236964D01*
X10052673Y-34222534D01*
X10030303Y-34206908D01*
X10009022Y-34190097D01*
X9988836Y-34172109D01*
X9969750Y-34152954D01*
X9951772Y-34132642D01*
X9934908Y-34111182D01*
X9919163Y-34088584D01*
X9904545Y-34064856D01*
X9891060Y-34040010D01*
X9878714Y-34014053D01*
X9867514Y-33986996D01*
X9857466Y-33958848D01*
X9848575Y-33929619D01*
X9840850Y-33899318D01*
X9834295Y-33867954D01*
X9828918Y-33835538D01*
X9824725Y-33802078D01*
X9821722Y-33767584D01*
X9819916Y-33732066D01*
X9819716Y-33719958D01*
X10203995Y-33719958D01*
X10204889Y-33751882D01*
X10207540Y-33781293D01*
X10211904Y-33808253D01*
X10217934Y-33832825D01*
X10230003Y-33865341D01*
X10245565Y-33892837D01*
X10264466Y-33915523D01*
X10286552Y-33933610D01*
X10311668Y-33947311D01*
X10339662Y-33956835D01*
X10370378Y-33962394D01*
X10403663Y-33964200D01*
X10436948Y-33962394D01*
X10467665Y-33956835D01*
X10495658Y-33947311D01*
X10520774Y-33933610D01*
X10542860Y-33915523D01*
X10561761Y-33892837D01*
X10577323Y-33865341D01*
X10589393Y-33832825D01*
X10595423Y-33808253D01*
X10599786Y-33781293D01*
X10602438Y-33751882D01*
X10603332Y-33719958D01*
X10603332Y-32368684D01*
X10602438Y-32336760D01*
X10599786Y-32307349D01*
X10595423Y-32280389D01*
X10589393Y-32255817D01*
X10577323Y-32223300D01*
X10561761Y-32195804D01*
X10542860Y-32173119D01*
X10520774Y-32155031D01*
X10495658Y-32141331D01*
X10467665Y-32131807D01*
X10436948Y-32126247D01*
X10403663Y-32124441D01*
X10370378Y-32126247D01*
X10339662Y-32131807D01*
X10311668Y-32141331D01*
X10286552Y-32155031D01*
X10264466Y-32173119D01*
X10245565Y-32195804D01*
X10230003Y-32223300D01*
X10217934Y-32255817D01*
X10211904Y-32280389D01*
X10207540Y-32307349D01*
X10204889Y-32336760D01*
X10203995Y-32368684D01*
X10203995Y-33719958D01*
X9819716Y-33719958D01*
X9819312Y-33695533D01*
X9819312Y-32393108D01*
X9819916Y-32356574D01*
X9821722Y-32321051D01*
X9824725Y-32286549D01*
X9828918Y-32253078D01*
X9834295Y-32220648D01*
X9840850Y-32189268D01*
X9848575Y-32158948D01*
X9857466Y-32129698D01*
X9867514Y-32101528D01*
X9878714Y-32074447D01*
X9891060Y-32048465D01*
X9904545Y-32023592D01*
X9919163Y-31999837D01*
X9934908Y-31977211D01*
X9951772Y-31955723D01*
X9969750Y-31935382D01*
X9988836Y-31916199D01*
X10009022Y-31898183D01*
X10030303Y-31881343D01*
X10052673Y-31865691D01*
X10076124Y-31851234D01*
X10100650Y-31837984D01*
X10126246Y-31825949D01*
X10152904Y-31815140D01*
X10180619Y-31805566D01*
X10209383Y-31797237D01*
X10239191Y-31790163D01*
X10270037Y-31784353D01*
X10301913Y-31779818D01*
X10334814Y-31776566D01*
X10368733Y-31774608D01*
X10403663Y-31773953D01*
X10438594Y-31774608D01*
G37*
G36*
X9669713Y-34275000D02*
G01*
X9312508Y-34275000D01*
X9242288Y-33787124D01*
X8805094Y-33787124D01*
X8805094Y-33780408D01*
X8734874Y-34275000D01*
X8350191Y-34275000D01*
X8483100Y-33454344D01*
X8850279Y-33454344D01*
X9197103Y-33454344D01*
X9029187Y-32240457D01*
X9021859Y-32240457D01*
X8850279Y-33454344D01*
X8483100Y-33454344D01*
X8748918Y-31813032D01*
X9270376Y-31813032D01*
X9669713Y-34275000D01*
G37*
G36*
X8165788Y-34275000D02*
G01*
X7781106Y-34275000D01*
X7781106Y-33218649D01*
X7647993Y-33218649D01*
X7616405Y-33219535D01*
X7587315Y-33222271D01*
X7560660Y-33226977D01*
X7536376Y-33233771D01*
X7504257Y-33248139D01*
X7477116Y-33267875D01*
X7454739Y-33293381D01*
X7436910Y-33325058D01*
X7427446Y-33349803D01*
X7419846Y-33377588D01*
X7414044Y-33408533D01*
X7409979Y-33442755D01*
X7407587Y-33480375D01*
X7406803Y-33521510D01*
X7406803Y-33972138D01*
X7406640Y-34007954D01*
X7406158Y-34040250D01*
X7405366Y-34069296D01*
X7404275Y-34095367D01*
X7402098Y-34129485D01*
X7399302Y-34158436D01*
X7395920Y-34183136D01*
X7390557Y-34211043D01*
X7384291Y-34235202D01*
X7375308Y-34263441D01*
X7371388Y-34275000D01*
X6979378Y-34275000D01*
X6989306Y-34249307D01*
X6997551Y-34223632D01*
X7004270Y-34197801D01*
X7009614Y-34171638D01*
X7013739Y-34144967D01*
X7016799Y-34117614D01*
X7018947Y-34089404D01*
X7020337Y-34060161D01*
X7021123Y-34029711D01*
X7021460Y-33997878D01*
X7021510Y-33975802D01*
X7021510Y-33542271D01*
X7021697Y-33516505D01*
X7022264Y-33491302D01*
X7023223Y-33466667D01*
X7026371Y-33419124D01*
X7031236Y-33373916D01*
X7037916Y-33331084D01*
X7046509Y-33290671D01*
X7057112Y-33252716D01*
X7069823Y-33217261D01*
X7084739Y-33184347D01*
X7101958Y-33154015D01*
X7121577Y-33126307D01*
X7143694Y-33101264D01*
X7168406Y-33078926D01*
X7195811Y-33059335D01*
X7226006Y-33042531D01*
X7259089Y-33028558D01*
X7276744Y-33022644D01*
X7276744Y-33015317D01*
X7245744Y-33001185D01*
X7216847Y-32984892D01*
X7190040Y-32966437D01*
X7165308Y-32945822D01*
X7142637Y-32923046D01*
X7122012Y-32898109D01*
X7103420Y-32871011D01*
X7086845Y-32841752D01*
X7072274Y-32810332D01*
X7059692Y-32776751D01*
X7049085Y-32741009D01*
X7040439Y-32703106D01*
X7033739Y-32663042D01*
X7028971Y-32620817D01*
X7028111Y-32607431D01*
X7409856Y-32607431D01*
X7410879Y-32642962D01*
X7413915Y-32675435D01*
X7418917Y-32704957D01*
X7425837Y-32731633D01*
X7434629Y-32755568D01*
X7451221Y-32786563D01*
X7471757Y-32811985D01*
X7496076Y-32832191D01*
X7524019Y-32847536D01*
X7555425Y-32858378D01*
X7590135Y-32865072D01*
X7615031Y-32867406D01*
X7641277Y-32868161D01*
X7781106Y-32868161D01*
X7781106Y-32163520D01*
X7605861Y-32163520D01*
X7581221Y-32164434D01*
X7547561Y-32169279D01*
X7517791Y-32178385D01*
X7491828Y-32191853D01*
X7469591Y-32209788D01*
X7450999Y-32232290D01*
X7435971Y-32259464D01*
X7424423Y-32291412D01*
X7418619Y-32315413D01*
X7414302Y-32341611D01*
X7411448Y-32370038D01*
X7410032Y-32400723D01*
X7409856Y-32416922D01*
X7409856Y-32607431D01*
X7028111Y-32607431D01*
X7026121Y-32576431D01*
X7025174Y-32529884D01*
X7025174Y-32378454D01*
X7025678Y-32343416D01*
X7027198Y-32309515D01*
X7029744Y-32276748D01*
X7033325Y-32245115D01*
X7037953Y-32214613D01*
X7043637Y-32185240D01*
X7050387Y-32156997D01*
X7058214Y-32129879D01*
X7067127Y-32103888D01*
X7077137Y-32079019D01*
X7088255Y-32055273D01*
X7100490Y-32032647D01*
X7113852Y-32011141D01*
X7128352Y-31990751D01*
X7143999Y-31971478D01*
X7160805Y-31953319D01*
X7178779Y-31936272D01*
X7197931Y-31920337D01*
X7218271Y-31905511D01*
X7239811Y-31891793D01*
X7262559Y-31879181D01*
X7286526Y-31867675D01*
X7311722Y-31857271D01*
X7338158Y-31847970D01*
X7365843Y-31839768D01*
X7394788Y-31832666D01*
X7425003Y-31826660D01*
X7456498Y-31821749D01*
X7489283Y-31817933D01*
X7523368Y-31815209D01*
X7558764Y-31813576D01*
X7595481Y-31813032D01*
X8165788Y-31813032D01*
X8165788Y-34275000D01*
G37*
G36*
X6756507Y-34275000D02*
G01*
X6168492Y-34275000D01*
X6133000Y-34274376D01*
X6098652Y-34272510D01*
X6065447Y-34269407D01*
X6033383Y-34265074D01*
X6002460Y-34259515D01*
X5972676Y-34252737D01*
X5944030Y-34244746D01*
X5916521Y-34235549D01*
X5890148Y-34225149D01*
X5864910Y-34213555D01*
X5840806Y-34200771D01*
X5817834Y-34186804D01*
X5795994Y-34171659D01*
X5775284Y-34155342D01*
X5755703Y-34137860D01*
X5737251Y-34119218D01*
X5719925Y-34099423D01*
X5703726Y-34078479D01*
X5688651Y-34056393D01*
X5674699Y-34033172D01*
X5661871Y-34008820D01*
X5650163Y-33983344D01*
X5639576Y-33956750D01*
X5630108Y-33929043D01*
X5621759Y-33900230D01*
X5614526Y-33870316D01*
X5608409Y-33839308D01*
X5603406Y-33807211D01*
X5599518Y-33774032D01*
X5596741Y-33739775D01*
X5595076Y-33704448D01*
X5594791Y-33685764D01*
X5979815Y-33685764D01*
X5980667Y-33717432D01*
X5983203Y-33746538D01*
X5987386Y-33773154D01*
X5993181Y-33797352D01*
X6004822Y-33829270D01*
X6019895Y-33856149D01*
X6038283Y-33878230D01*
X6059867Y-33895755D01*
X6084531Y-33908965D01*
X6112156Y-33918102D01*
X6142625Y-33923407D01*
X6175819Y-33925122D01*
X6371824Y-33925122D01*
X6371824Y-32163520D01*
X6175819Y-32163520D01*
X6142625Y-32165220D01*
X6112156Y-32170487D01*
X6084531Y-32179572D01*
X6059867Y-32192725D01*
X6038283Y-32210197D01*
X6019895Y-32232239D01*
X6004822Y-32259100D01*
X5993181Y-32291032D01*
X5987386Y-32315261D01*
X5983203Y-32341928D01*
X5980667Y-32371109D01*
X5979815Y-32402878D01*
X5979815Y-33685764D01*
X5594791Y-33685764D01*
X5594521Y-33668056D01*
X5594521Y-32420586D01*
X5595076Y-32384192D01*
X5596741Y-32348859D01*
X5599518Y-32314595D01*
X5603406Y-32281404D01*
X5608409Y-32249294D01*
X5614526Y-32218269D01*
X5621759Y-32188337D01*
X5630108Y-32159503D01*
X5639576Y-32131774D01*
X5650163Y-32105156D01*
X5661871Y-32079655D01*
X5674699Y-32055277D01*
X5688651Y-32032028D01*
X5703726Y-32009914D01*
X5719925Y-31988942D01*
X5737251Y-31969118D01*
X5755703Y-31950448D01*
X5775284Y-31932937D01*
X5795994Y-31916593D01*
X5817834Y-31901421D01*
X5840806Y-31887427D01*
X5864910Y-31874618D01*
X5890148Y-31862999D01*
X5916521Y-31852578D01*
X5944030Y-31843359D01*
X5972676Y-31835350D01*
X6002460Y-31828556D01*
X6033383Y-31822984D01*
X6065447Y-31818639D01*
X6098652Y-31815528D01*
X6133000Y-31813657D01*
X6168492Y-31813032D01*
X6756507Y-31813032D01*
X6756507Y-34275000D01*
G37*
X26891792Y-36559819D02*
X27225125Y-36083628D01*
X27463220Y-36559819D02*
X27463220Y-35559819D01*
X27463220Y-35559819D02*
X27082268Y-35559819D01*
X27082268Y-35559819D02*
X26987030Y-35607438D01*
X26987030Y-35607438D02*
X26939411Y-35655057D01*
X26939411Y-35655057D02*
X26891792Y-35750295D01*
X26891792Y-35750295D02*
X26891792Y-35893152D01*
X26891792Y-35893152D02*
X26939411Y-35988390D01*
X26939411Y-35988390D02*
X26987030Y-36036009D01*
X26987030Y-36036009D02*
X27082268Y-36083628D01*
X27082268Y-36083628D02*
X27463220Y-36083628D01*
X26082268Y-36512200D02*
X26177506Y-36559819D01*
X26177506Y-36559819D02*
X26367982Y-36559819D01*
X26367982Y-36559819D02*
X26463220Y-36512200D01*
X26463220Y-36512200D02*
X26510839Y-36416961D01*
X26510839Y-36416961D02*
X26510839Y-36036009D01*
X26510839Y-36036009D02*
X26463220Y-35940771D01*
X26463220Y-35940771D02*
X26367982Y-35893152D01*
X26367982Y-35893152D02*
X26177506Y-35893152D01*
X26177506Y-35893152D02*
X26082268Y-35940771D01*
X26082268Y-35940771D02*
X26034649Y-36036009D01*
X26034649Y-36036009D02*
X26034649Y-36131247D01*
X26034649Y-36131247D02*
X26510839Y-36226485D01*
X25701315Y-35893152D02*
X25463220Y-36559819D01*
X25463220Y-36559819D02*
X25225125Y-35893152D01*
X24844172Y-36464580D02*
X24796553Y-36512200D01*
X24796553Y-36512200D02*
X24844172Y-36559819D01*
X24844172Y-36559819D02*
X24891791Y-36512200D01*
X24891791Y-36512200D02*
X24844172Y-36464580D01*
X24844172Y-36464580D02*
X24844172Y-36559819D01*
X23082268Y-36559819D02*
X23653696Y-36559819D01*
X23367982Y-36559819D02*
X23367982Y-35559819D01*
X23367982Y-35559819D02*
X23463220Y-35702676D01*
X23463220Y-35702676D02*
X23558458Y-35797914D01*
X23558458Y-35797914D02*
X23653696Y-35845533D01*
X22653696Y-36178866D02*
X21891792Y-36178866D01*
X20367982Y-35559819D02*
X20367982Y-36274104D01*
X20367982Y-36274104D02*
X20415601Y-36416961D01*
X20415601Y-36416961D02*
X20510839Y-36512200D01*
X20510839Y-36512200D02*
X20653696Y-36559819D01*
X20653696Y-36559819D02*
X20748934Y-36559819D01*
X19463220Y-35893152D02*
X19463220Y-36559819D01*
X19891791Y-35893152D02*
X19891791Y-36416961D01*
X19891791Y-36416961D02*
X19844172Y-36512200D01*
X19844172Y-36512200D02*
X19748934Y-36559819D01*
X19748934Y-36559819D02*
X19606077Y-36559819D01*
X19606077Y-36559819D02*
X19510839Y-36512200D01*
X19510839Y-36512200D02*
X19463220Y-36464580D01*
X18987029Y-35893152D02*
X18987029Y-36559819D01*
X18987029Y-35988390D02*
X18939410Y-35940771D01*
X18939410Y-35940771D02*
X18844172Y-35893152D01*
X18844172Y-35893152D02*
X18701315Y-35893152D01*
X18701315Y-35893152D02*
X18606077Y-35940771D01*
X18606077Y-35940771D02*
X18558458Y-36036009D01*
X18558458Y-36036009D02*
X18558458Y-36559819D01*
X17701315Y-36512200D02*
X17796553Y-36559819D01*
X17796553Y-36559819D02*
X17987029Y-36559819D01*
X17987029Y-36559819D02*
X18082267Y-36512200D01*
X18082267Y-36512200D02*
X18129886Y-36416961D01*
X18129886Y-36416961D02*
X18129886Y-36036009D01*
X18129886Y-36036009D02*
X18082267Y-35940771D01*
X18082267Y-35940771D02*
X17987029Y-35893152D01*
X17987029Y-35893152D02*
X17796553Y-35893152D01*
X17796553Y-35893152D02*
X17701315Y-35940771D01*
X17701315Y-35940771D02*
X17653696Y-36036009D01*
X17653696Y-36036009D02*
X17653696Y-36131247D01*
X17653696Y-36131247D02*
X18129886Y-36226485D01*
X17225124Y-36464580D02*
X17177505Y-36512200D01*
X17177505Y-36512200D02*
X17225124Y-36559819D01*
X17225124Y-36559819D02*
X17272743Y-36512200D01*
X17272743Y-36512200D02*
X17225124Y-36464580D01*
X17225124Y-36464580D02*
X17225124Y-36559819D01*
X16034648Y-35655057D02*
X15987029Y-35607438D01*
X15987029Y-35607438D02*
X15891791Y-35559819D01*
X15891791Y-35559819D02*
X15653696Y-35559819D01*
X15653696Y-35559819D02*
X15558458Y-35607438D01*
X15558458Y-35607438D02*
X15510839Y-35655057D01*
X15510839Y-35655057D02*
X15463220Y-35750295D01*
X15463220Y-35750295D02*
X15463220Y-35845533D01*
X15463220Y-35845533D02*
X15510839Y-35988390D01*
X15510839Y-35988390D02*
X16082267Y-36559819D01*
X16082267Y-36559819D02*
X15463220Y-36559819D01*
X14844172Y-35559819D02*
X14748934Y-35559819D01*
X14748934Y-35559819D02*
X14653696Y-35607438D01*
X14653696Y-35607438D02*
X14606077Y-35655057D01*
X14606077Y-35655057D02*
X14558458Y-35750295D01*
X14558458Y-35750295D02*
X14510839Y-35940771D01*
X14510839Y-35940771D02*
X14510839Y-36178866D01*
X14510839Y-36178866D02*
X14558458Y-36369342D01*
X14558458Y-36369342D02*
X14606077Y-36464580D01*
X14606077Y-36464580D02*
X14653696Y-36512200D01*
X14653696Y-36512200D02*
X14748934Y-36559819D01*
X14748934Y-36559819D02*
X14844172Y-36559819D01*
X14844172Y-36559819D02*
X14939410Y-36512200D01*
X14939410Y-36512200D02*
X14987029Y-36464580D01*
X14987029Y-36464580D02*
X15034648Y-36369342D01*
X15034648Y-36369342D02*
X15082267Y-36178866D01*
X15082267Y-36178866D02*
X15082267Y-35940771D01*
X15082267Y-35940771D02*
X15034648Y-35750295D01*
X15034648Y-35750295D02*
X14987029Y-35655057D01*
X14987029Y-35655057D02*
X14939410Y-35607438D01*
X14939410Y-35607438D02*
X14844172Y-35559819D01*
X14129886Y-35655057D02*
X14082267Y-35607438D01*
X14082267Y-35607438D02*
X13987029Y-35559819D01*
X13987029Y-35559819D02*
X13748934Y-35559819D01*
X13748934Y-35559819D02*
X13653696Y-35607438D01*
X13653696Y-35607438D02*
X13606077Y-35655057D01*
X13606077Y-35655057D02*
X13558458Y-35750295D01*
X13558458Y-35750295D02*
X13558458Y-35845533D01*
X13558458Y-35845533D02*
X13606077Y-35988390D01*
X13606077Y-35988390D02*
X14177505Y-36559819D01*
X14177505Y-36559819D02*
X13558458Y-36559819D01*
X12701315Y-35893152D02*
X12701315Y-36559819D01*
X12939410Y-35512200D02*
X13177505Y-36226485D01*
X13177505Y-36226485D02*
X12558458Y-36226485D01*
X27463220Y-38169819D02*
X27463220Y-37169819D01*
X27463220Y-37646009D02*
X26891792Y-37646009D01*
X26891792Y-38169819D02*
X26891792Y-37169819D01*
X25987030Y-38169819D02*
X25987030Y-37646009D01*
X25987030Y-37646009D02*
X26034649Y-37550771D01*
X26034649Y-37550771D02*
X26129887Y-37503152D01*
X26129887Y-37503152D02*
X26320363Y-37503152D01*
X26320363Y-37503152D02*
X26415601Y-37550771D01*
X25987030Y-38122200D02*
X26082268Y-38169819D01*
X26082268Y-38169819D02*
X26320363Y-38169819D01*
X26320363Y-38169819D02*
X26415601Y-38122200D01*
X26415601Y-38122200D02*
X26463220Y-38026961D01*
X26463220Y-38026961D02*
X26463220Y-37931723D01*
X26463220Y-37931723D02*
X26415601Y-37836485D01*
X26415601Y-37836485D02*
X26320363Y-37788866D01*
X26320363Y-37788866D02*
X26082268Y-37788866D01*
X26082268Y-37788866D02*
X25987030Y-37741247D01*
X25606077Y-37503152D02*
X25367982Y-38169819D01*
X25129887Y-37503152D02*
X25367982Y-38169819D01*
X25367982Y-38169819D02*
X25463220Y-38407914D01*
X25463220Y-38407914D02*
X25510839Y-38455533D01*
X25510839Y-38455533D02*
X25606077Y-38503152D01*
X24320363Y-38169819D02*
X24320363Y-37169819D01*
X24320363Y-38122200D02*
X24415601Y-38169819D01*
X24415601Y-38169819D02*
X24606077Y-38169819D01*
X24606077Y-38169819D02*
X24701315Y-38122200D01*
X24701315Y-38122200D02*
X24748934Y-38074580D01*
X24748934Y-38074580D02*
X24796553Y-37979342D01*
X24796553Y-37979342D02*
X24796553Y-37693628D01*
X24796553Y-37693628D02*
X24748934Y-37598390D01*
X24748934Y-37598390D02*
X24701315Y-37550771D01*
X24701315Y-37550771D02*
X24606077Y-37503152D01*
X24606077Y-37503152D02*
X24415601Y-37503152D01*
X24415601Y-37503152D02*
X24320363Y-37550771D01*
X23463220Y-38122200D02*
X23558458Y-38169819D01*
X23558458Y-38169819D02*
X23748934Y-38169819D01*
X23748934Y-38169819D02*
X23844172Y-38122200D01*
X23844172Y-38122200D02*
X23891791Y-38026961D01*
X23891791Y-38026961D02*
X23891791Y-37646009D01*
X23891791Y-37646009D02*
X23844172Y-37550771D01*
X23844172Y-37550771D02*
X23748934Y-37503152D01*
X23748934Y-37503152D02*
X23558458Y-37503152D01*
X23558458Y-37503152D02*
X23463220Y-37550771D01*
X23463220Y-37550771D02*
X23415601Y-37646009D01*
X23415601Y-37646009D02*
X23415601Y-37741247D01*
X23415601Y-37741247D02*
X23891791Y-37836485D01*
X22987029Y-37503152D02*
X22987029Y-38169819D01*
X22987029Y-37598390D02*
X22939410Y-37550771D01*
X22939410Y-37550771D02*
X22844172Y-37503152D01*
X22844172Y-37503152D02*
X22701315Y-37503152D01*
X22701315Y-37503152D02*
X22606077Y-37550771D01*
X22606077Y-37550771D02*
X22558458Y-37646009D01*
X22558458Y-37646009D02*
X22558458Y-38169819D01*
X21367981Y-38122200D02*
X21225124Y-38169819D01*
X21225124Y-38169819D02*
X20987029Y-38169819D01*
X20987029Y-38169819D02*
X20891791Y-38122200D01*
X20891791Y-38122200D02*
X20844172Y-38074580D01*
X20844172Y-38074580D02*
X20796553Y-37979342D01*
X20796553Y-37979342D02*
X20796553Y-37884104D01*
X20796553Y-37884104D02*
X20844172Y-37788866D01*
X20844172Y-37788866D02*
X20891791Y-37741247D01*
X20891791Y-37741247D02*
X20987029Y-37693628D01*
X20987029Y-37693628D02*
X21177505Y-37646009D01*
X21177505Y-37646009D02*
X21272743Y-37598390D01*
X21272743Y-37598390D02*
X21320362Y-37550771D01*
X21320362Y-37550771D02*
X21367981Y-37455533D01*
X21367981Y-37455533D02*
X21367981Y-37360295D01*
X21367981Y-37360295D02*
X21320362Y-37265057D01*
X21320362Y-37265057D02*
X21272743Y-37217438D01*
X21272743Y-37217438D02*
X21177505Y-37169819D01*
X21177505Y-37169819D02*
X20939410Y-37169819D01*
X20939410Y-37169819D02*
X20796553Y-37217438D01*
X19987029Y-38122200D02*
X20082267Y-38169819D01*
X20082267Y-38169819D02*
X20272743Y-38169819D01*
X20272743Y-38169819D02*
X20367981Y-38122200D01*
X20367981Y-38122200D02*
X20415600Y-38026961D01*
X20415600Y-38026961D02*
X20415600Y-37646009D01*
X20415600Y-37646009D02*
X20367981Y-37550771D01*
X20367981Y-37550771D02*
X20272743Y-37503152D01*
X20272743Y-37503152D02*
X20082267Y-37503152D01*
X20082267Y-37503152D02*
X19987029Y-37550771D01*
X19987029Y-37550771D02*
X19939410Y-37646009D01*
X19939410Y-37646009D02*
X19939410Y-37741247D01*
X19939410Y-37741247D02*
X20415600Y-37836485D01*
X19653695Y-37503152D02*
X19272743Y-37503152D01*
X19510838Y-37169819D02*
X19510838Y-38026961D01*
X19510838Y-38026961D02*
X19463219Y-38122200D01*
X19463219Y-38122200D02*
X19367981Y-38169819D01*
X19367981Y-38169819D02*
X19272743Y-38169819D01*
X18796552Y-38169819D02*
X18891790Y-38122200D01*
X18891790Y-38122200D02*
X18939409Y-38026961D01*
X18939409Y-38026961D02*
X18939409Y-37169819D01*
X18415599Y-38169819D02*
X18415599Y-37503152D01*
X18415599Y-37169819D02*
X18463218Y-37217438D01*
X18463218Y-37217438D02*
X18415599Y-37265057D01*
X18415599Y-37265057D02*
X18367980Y-37217438D01*
X18367980Y-37217438D02*
X18415599Y-37169819D01*
X18415599Y-37169819D02*
X18415599Y-37265057D01*
X17939409Y-38169819D02*
X17939409Y-37169819D01*
X17844171Y-37788866D02*
X17558457Y-38169819D01*
X17558457Y-37503152D02*
X17939409Y-37884104D01*
X44502381Y-36209580D02*
X44550000Y-36257200D01*
X44550000Y-36257200D02*
X44692857Y-36304819D01*
X44692857Y-36304819D02*
X44788095Y-36304819D01*
X44788095Y-36304819D02*
X44930952Y-36257200D01*
X44930952Y-36257200D02*
X45026190Y-36161961D01*
X45026190Y-36161961D02*
X45073809Y-36066723D01*
X45073809Y-36066723D02*
X45121428Y-35876247D01*
X45121428Y-35876247D02*
X45121428Y-35733390D01*
X45121428Y-35733390D02*
X45073809Y-35542914D01*
X45073809Y-35542914D02*
X45026190Y-35447676D01*
X45026190Y-35447676D02*
X44930952Y-35352438D01*
X44930952Y-35352438D02*
X44788095Y-35304819D01*
X44788095Y-35304819D02*
X44692857Y-35304819D01*
X44692857Y-35304819D02*
X44550000Y-35352438D01*
X44550000Y-35352438D02*
X44502381Y-35400057D01*
X43597619Y-36304819D02*
X44073809Y-36304819D01*
X44073809Y-36304819D02*
X44073809Y-35304819D01*
X43264285Y-36304819D02*
X43264285Y-35304819D01*
X42692857Y-36304819D02*
X43121428Y-35733390D01*
X42692857Y-35304819D02*
X43264285Y-35876247D01*
X42502381Y-36400057D02*
X41740476Y-36400057D01*
X40978571Y-36304819D02*
X41549999Y-36304819D01*
X41264285Y-36304819D02*
X41264285Y-35304819D01*
X41264285Y-35304819D02*
X41359523Y-35447676D01*
X41359523Y-35447676D02*
X41454761Y-35542914D01*
X41454761Y-35542914D02*
X41549999Y-35590533D01*
X31127381Y-41209580D02*
X31175000Y-41257200D01*
X31175000Y-41257200D02*
X31317857Y-41304819D01*
X31317857Y-41304819D02*
X31413095Y-41304819D01*
X31413095Y-41304819D02*
X31555952Y-41257200D01*
X31555952Y-41257200D02*
X31651190Y-41161961D01*
X31651190Y-41161961D02*
X31698809Y-41066723D01*
X31698809Y-41066723D02*
X31746428Y-40876247D01*
X31746428Y-40876247D02*
X31746428Y-40733390D01*
X31746428Y-40733390D02*
X31698809Y-40542914D01*
X31698809Y-40542914D02*
X31651190Y-40447676D01*
X31651190Y-40447676D02*
X31555952Y-40352438D01*
X31555952Y-40352438D02*
X31413095Y-40304819D01*
X31413095Y-40304819D02*
X31317857Y-40304819D01*
X31317857Y-40304819D02*
X31175000Y-40352438D01*
X31175000Y-40352438D02*
X31127381Y-40400057D01*
X30222619Y-41304819D02*
X30698809Y-41304819D01*
X30698809Y-41304819D02*
X30698809Y-40304819D01*
X29889285Y-41304819D02*
X29889285Y-40304819D01*
X29317857Y-41304819D02*
X29746428Y-40733390D01*
X29317857Y-40304819D02*
X29889285Y-40876247D01*
X29127381Y-41400057D02*
X28365476Y-41400057D01*
X28174999Y-40400057D02*
X28127380Y-40352438D01*
X28127380Y-40352438D02*
X28032142Y-40304819D01*
X28032142Y-40304819D02*
X27794047Y-40304819D01*
X27794047Y-40304819D02*
X27698809Y-40352438D01*
X27698809Y-40352438D02*
X27651190Y-40400057D01*
X27651190Y-40400057D02*
X27603571Y-40495295D01*
X27603571Y-40495295D02*
X27603571Y-40590533D01*
X27603571Y-40590533D02*
X27651190Y-40733390D01*
X27651190Y-40733390D02*
X28222618Y-41304819D01*
X28222618Y-41304819D02*
X27603571Y-41304819D01*
X76729761Y-40854819D02*
X76396428Y-41854819D01*
X76396428Y-41854819D02*
X76063095Y-40854819D01*
X75158333Y-41759580D02*
X75205952Y-41807200D01*
X75205952Y-41807200D02*
X75348809Y-41854819D01*
X75348809Y-41854819D02*
X75444047Y-41854819D01*
X75444047Y-41854819D02*
X75586904Y-41807200D01*
X75586904Y-41807200D02*
X75682142Y-41711961D01*
X75682142Y-41711961D02*
X75729761Y-41616723D01*
X75729761Y-41616723D02*
X75777380Y-41426247D01*
X75777380Y-41426247D02*
X75777380Y-41283390D01*
X75777380Y-41283390D02*
X75729761Y-41092914D01*
X75729761Y-41092914D02*
X75682142Y-40997676D01*
X75682142Y-40997676D02*
X75586904Y-40902438D01*
X75586904Y-40902438D02*
X75444047Y-40854819D01*
X75444047Y-40854819D02*
X75348809Y-40854819D01*
X75348809Y-40854819D02*
X75205952Y-40902438D01*
X75205952Y-40902438D02*
X75158333Y-40950057D01*
X74777380Y-41569104D02*
X74301190Y-41569104D01*
X74872618Y-41854819D02*
X74539285Y-40854819D01*
X74539285Y-40854819D02*
X74205952Y-41854819D01*
X74110714Y-41950057D02*
X73348809Y-41950057D01*
X73110713Y-41854819D02*
X73110713Y-40854819D01*
X72634523Y-41854819D02*
X72634523Y-40854819D01*
X72634523Y-40854819D02*
X72063095Y-41854819D01*
X72063095Y-41854819D02*
X72063095Y-40854819D01*
X72827381Y-3831009D02*
X73160714Y-3831009D01*
X73160714Y-4354819D02*
X73160714Y-3354819D01*
X73160714Y-3354819D02*
X72684524Y-3354819D01*
X71827381Y-4354819D02*
X72303571Y-4354819D01*
X72303571Y-4354819D02*
X72303571Y-3354819D01*
X71636904Y-3354819D02*
X71065476Y-3354819D01*
X71351190Y-4354819D02*
X71351190Y-3354819D01*
X70160714Y-4354819D02*
X70494047Y-3878628D01*
X70732142Y-4354819D02*
X70732142Y-3354819D01*
X70732142Y-3354819D02*
X70351190Y-3354819D01*
X70351190Y-3354819D02*
X70255952Y-3402438D01*
X70255952Y-3402438D02*
X70208333Y-3450057D01*
X70208333Y-3450057D02*
X70160714Y-3545295D01*
X70160714Y-3545295D02*
X70160714Y-3688152D01*
X70160714Y-3688152D02*
X70208333Y-3783390D01*
X70208333Y-3783390D02*
X70255952Y-3831009D01*
X70255952Y-3831009D02*
X70351190Y-3878628D01*
X70351190Y-3878628D02*
X70732142Y-3878628D01*
X69970238Y-4450057D02*
X69208333Y-4450057D01*
X68779761Y-3354819D02*
X68589285Y-3354819D01*
X68589285Y-3354819D02*
X68494047Y-3402438D01*
X68494047Y-3402438D02*
X68398809Y-3497676D01*
X68398809Y-3497676D02*
X68351190Y-3688152D01*
X68351190Y-3688152D02*
X68351190Y-4021485D01*
X68351190Y-4021485D02*
X68398809Y-4211961D01*
X68398809Y-4211961D02*
X68494047Y-4307200D01*
X68494047Y-4307200D02*
X68589285Y-4354819D01*
X68589285Y-4354819D02*
X68779761Y-4354819D01*
X68779761Y-4354819D02*
X68874999Y-4307200D01*
X68874999Y-4307200D02*
X68970237Y-4211961D01*
X68970237Y-4211961D02*
X69017856Y-4021485D01*
X69017856Y-4021485D02*
X69017856Y-3688152D01*
X69017856Y-3688152D02*
X68970237Y-3497676D01*
X68970237Y-3497676D02*
X68874999Y-3402438D01*
X68874999Y-3402438D02*
X68779761Y-3354819D01*
X67922618Y-3354819D02*
X67922618Y-4164342D01*
X67922618Y-4164342D02*
X67874999Y-4259580D01*
X67874999Y-4259580D02*
X67827380Y-4307200D01*
X67827380Y-4307200D02*
X67732142Y-4354819D01*
X67732142Y-4354819D02*
X67541666Y-4354819D01*
X67541666Y-4354819D02*
X67446428Y-4307200D01*
X67446428Y-4307200D02*
X67398809Y-4259580D01*
X67398809Y-4259580D02*
X67351190Y-4164342D01*
X67351190Y-4164342D02*
X67351190Y-3354819D01*
X67017856Y-3354819D02*
X66446428Y-3354819D01*
X66732142Y-4354819D02*
X66732142Y-3354819D01*
X61411547Y-13947319D02*
X61744880Y-13471128D01*
X61982975Y-13947319D02*
X61982975Y-12947319D01*
X61982975Y-12947319D02*
X61602023Y-12947319D01*
X61602023Y-12947319D02*
X61506785Y-12994938D01*
X61506785Y-12994938D02*
X61459166Y-13042557D01*
X61459166Y-13042557D02*
X61411547Y-13137795D01*
X61411547Y-13137795D02*
X61411547Y-13280652D01*
X61411547Y-13280652D02*
X61459166Y-13375890D01*
X61459166Y-13375890D02*
X61506785Y-13423509D01*
X61506785Y-13423509D02*
X61602023Y-13471128D01*
X61602023Y-13471128D02*
X61982975Y-13471128D01*
X61030594Y-13042557D02*
X60982975Y-12994938D01*
X60982975Y-12994938D02*
X60887737Y-12947319D01*
X60887737Y-12947319D02*
X60649642Y-12947319D01*
X60649642Y-12947319D02*
X60554404Y-12994938D01*
X60554404Y-12994938D02*
X60506785Y-13042557D01*
X60506785Y-13042557D02*
X60459166Y-13137795D01*
X60459166Y-13137795D02*
X60459166Y-13233033D01*
X60459166Y-13233033D02*
X60506785Y-13375890D01*
X60506785Y-13375890D02*
X61078213Y-13947319D01*
X61078213Y-13947319D02*
X60459166Y-13947319D01*
X60125832Y-12947319D02*
X59506785Y-12947319D01*
X59506785Y-12947319D02*
X59840118Y-13328271D01*
X59840118Y-13328271D02*
X59697261Y-13328271D01*
X59697261Y-13328271D02*
X59602023Y-13375890D01*
X59602023Y-13375890D02*
X59554404Y-13423509D01*
X59554404Y-13423509D02*
X59506785Y-13518747D01*
X59506785Y-13518747D02*
X59506785Y-13756842D01*
X59506785Y-13756842D02*
X59554404Y-13852080D01*
X59554404Y-13852080D02*
X59602023Y-13899700D01*
X59602023Y-13899700D02*
X59697261Y-13947319D01*
X59697261Y-13947319D02*
X59982975Y-13947319D01*
X59982975Y-13947319D02*
X60078213Y-13899700D01*
X60078213Y-13899700D02*
X60125832Y-13852080D01*
X58887737Y-12947319D02*
X58792499Y-12947319D01*
X58792499Y-12947319D02*
X58697261Y-12994938D01*
X58697261Y-12994938D02*
X58649642Y-13042557D01*
X58649642Y-13042557D02*
X58602023Y-13137795D01*
X58602023Y-13137795D02*
X58554404Y-13328271D01*
X58554404Y-13328271D02*
X58554404Y-13566366D01*
X58554404Y-13566366D02*
X58602023Y-13756842D01*
X58602023Y-13756842D02*
X58649642Y-13852080D01*
X58649642Y-13852080D02*
X58697261Y-13899700D01*
X58697261Y-13899700D02*
X58792499Y-13947319D01*
X58792499Y-13947319D02*
X58887737Y-13947319D01*
X58887737Y-13947319D02*
X58982975Y-13899700D01*
X58982975Y-13899700D02*
X59030594Y-13852080D01*
X59030594Y-13852080D02*
X59078213Y-13756842D01*
X59078213Y-13756842D02*
X59125832Y-13566366D01*
X59125832Y-13566366D02*
X59125832Y-13328271D01*
X59125832Y-13328271D02*
X59078213Y-13137795D01*
X59078213Y-13137795D02*
X59030594Y-13042557D01*
X59030594Y-13042557D02*
X58982975Y-12994938D01*
X58982975Y-12994938D02*
X58887737Y-12947319D01*
X65009580Y-7178452D02*
X65057200Y-7130833D01*
X65057200Y-7130833D02*
X65104819Y-6987976D01*
X65104819Y-6987976D02*
X65104819Y-6892738D01*
X65104819Y-6892738D02*
X65057200Y-6749881D01*
X65057200Y-6749881D02*
X64961961Y-6654643D01*
X64961961Y-6654643D02*
X64866723Y-6607024D01*
X64866723Y-6607024D02*
X64676247Y-6559405D01*
X64676247Y-6559405D02*
X64533390Y-6559405D01*
X64533390Y-6559405D02*
X64342914Y-6607024D01*
X64342914Y-6607024D02*
X64247676Y-6654643D01*
X64247676Y-6654643D02*
X64152438Y-6749881D01*
X64152438Y-6749881D02*
X64104819Y-6892738D01*
X64104819Y-6892738D02*
X64104819Y-6987976D01*
X64104819Y-6987976D02*
X64152438Y-7130833D01*
X64152438Y-7130833D02*
X64200057Y-7178452D01*
X65104819Y-8130833D02*
X65104819Y-7559405D01*
X65104819Y-7845119D02*
X64104819Y-7845119D01*
X64104819Y-7845119D02*
X64247676Y-7749881D01*
X64247676Y-7749881D02*
X64342914Y-7654643D01*
X64342914Y-7654643D02*
X64390533Y-7559405D01*
X64104819Y-8749881D02*
X64104819Y-8845119D01*
X64104819Y-8845119D02*
X64152438Y-8940357D01*
X64152438Y-8940357D02*
X64200057Y-8987976D01*
X64200057Y-8987976D02*
X64295295Y-9035595D01*
X64295295Y-9035595D02*
X64485771Y-9083214D01*
X64485771Y-9083214D02*
X64723866Y-9083214D01*
X64723866Y-9083214D02*
X64914342Y-9035595D01*
X64914342Y-9035595D02*
X65009580Y-8987976D01*
X65009580Y-8987976D02*
X65057200Y-8940357D01*
X65057200Y-8940357D02*
X65104819Y-8845119D01*
X65104819Y-8845119D02*
X65104819Y-8749881D01*
X65104819Y-8749881D02*
X65057200Y-8654643D01*
X65057200Y-8654643D02*
X65009580Y-8607024D01*
X65009580Y-8607024D02*
X64914342Y-8559405D01*
X64914342Y-8559405D02*
X64723866Y-8511786D01*
X64723866Y-8511786D02*
X64485771Y-8511786D01*
X64485771Y-8511786D02*
X64295295Y-8559405D01*
X64295295Y-8559405D02*
X64200057Y-8607024D01*
X64200057Y-8607024D02*
X64152438Y-8654643D01*
X64152438Y-8654643D02*
X64104819Y-8749881D01*
X64200057Y-9464167D02*
X64152438Y-9511786D01*
X64152438Y-9511786D02*
X64104819Y-9607024D01*
X64104819Y-9607024D02*
X64104819Y-9845119D01*
X64104819Y-9845119D02*
X64152438Y-9940357D01*
X64152438Y-9940357D02*
X64200057Y-9987976D01*
X64200057Y-9987976D02*
X64295295Y-10035595D01*
X64295295Y-10035595D02*
X64390533Y-10035595D01*
X64390533Y-10035595D02*
X64533390Y-9987976D01*
X64533390Y-9987976D02*
X65104819Y-9416548D01*
X65104819Y-9416548D02*
X65104819Y-10035595D01*
X68206547Y-40467319D02*
X68539880Y-39991128D01*
X68777975Y-40467319D02*
X68777975Y-39467319D01*
X68777975Y-39467319D02*
X68397023Y-39467319D01*
X68397023Y-39467319D02*
X68301785Y-39514938D01*
X68301785Y-39514938D02*
X68254166Y-39562557D01*
X68254166Y-39562557D02*
X68206547Y-39657795D01*
X68206547Y-39657795D02*
X68206547Y-39800652D01*
X68206547Y-39800652D02*
X68254166Y-39895890D01*
X68254166Y-39895890D02*
X68301785Y-39943509D01*
X68301785Y-39943509D02*
X68397023Y-39991128D01*
X68397023Y-39991128D02*
X68777975Y-39991128D01*
X67825594Y-39562557D02*
X67777975Y-39514938D01*
X67777975Y-39514938D02*
X67682737Y-39467319D01*
X67682737Y-39467319D02*
X67444642Y-39467319D01*
X67444642Y-39467319D02*
X67349404Y-39514938D01*
X67349404Y-39514938D02*
X67301785Y-39562557D01*
X67301785Y-39562557D02*
X67254166Y-39657795D01*
X67254166Y-39657795D02*
X67254166Y-39753033D01*
X67254166Y-39753033D02*
X67301785Y-39895890D01*
X67301785Y-39895890D02*
X67873213Y-40467319D01*
X67873213Y-40467319D02*
X67254166Y-40467319D01*
X66397023Y-39800652D02*
X66397023Y-40467319D01*
X66635118Y-39419700D02*
X66873213Y-40133985D01*
X66873213Y-40133985D02*
X66254166Y-40133985D01*
X65920832Y-39562557D02*
X65873213Y-39514938D01*
X65873213Y-39514938D02*
X65777975Y-39467319D01*
X65777975Y-39467319D02*
X65539880Y-39467319D01*
X65539880Y-39467319D02*
X65444642Y-39514938D01*
X65444642Y-39514938D02*
X65397023Y-39562557D01*
X65397023Y-39562557D02*
X65349404Y-39657795D01*
X65349404Y-39657795D02*
X65349404Y-39753033D01*
X65349404Y-39753033D02*
X65397023Y-39895890D01*
X65397023Y-39895890D02*
X65968451Y-40467319D01*
X65968451Y-40467319D02*
X65349404Y-40467319D01*
X61391547Y-17607319D02*
X61724880Y-17131128D01*
X61962975Y-17607319D02*
X61962975Y-16607319D01*
X61962975Y-16607319D02*
X61582023Y-16607319D01*
X61582023Y-16607319D02*
X61486785Y-16654938D01*
X61486785Y-16654938D02*
X61439166Y-16702557D01*
X61439166Y-16702557D02*
X61391547Y-16797795D01*
X61391547Y-16797795D02*
X61391547Y-16940652D01*
X61391547Y-16940652D02*
X61439166Y-17035890D01*
X61439166Y-17035890D02*
X61486785Y-17083509D01*
X61486785Y-17083509D02*
X61582023Y-17131128D01*
X61582023Y-17131128D02*
X61962975Y-17131128D01*
X61010594Y-16702557D02*
X60962975Y-16654938D01*
X60962975Y-16654938D02*
X60867737Y-16607319D01*
X60867737Y-16607319D02*
X60629642Y-16607319D01*
X60629642Y-16607319D02*
X60534404Y-16654938D01*
X60534404Y-16654938D02*
X60486785Y-16702557D01*
X60486785Y-16702557D02*
X60439166Y-16797795D01*
X60439166Y-16797795D02*
X60439166Y-16893033D01*
X60439166Y-16893033D02*
X60486785Y-17035890D01*
X60486785Y-17035890D02*
X61058213Y-17607319D01*
X61058213Y-17607319D02*
X60439166Y-17607319D01*
X60058213Y-16702557D02*
X60010594Y-16654938D01*
X60010594Y-16654938D02*
X59915356Y-16607319D01*
X59915356Y-16607319D02*
X59677261Y-16607319D01*
X59677261Y-16607319D02*
X59582023Y-16654938D01*
X59582023Y-16654938D02*
X59534404Y-16702557D01*
X59534404Y-16702557D02*
X59486785Y-16797795D01*
X59486785Y-16797795D02*
X59486785Y-16893033D01*
X59486785Y-16893033D02*
X59534404Y-17035890D01*
X59534404Y-17035890D02*
X60105832Y-17607319D01*
X60105832Y-17607319D02*
X59486785Y-17607319D01*
X58915356Y-17035890D02*
X59010594Y-16988271D01*
X59010594Y-16988271D02*
X59058213Y-16940652D01*
X59058213Y-16940652D02*
X59105832Y-16845414D01*
X59105832Y-16845414D02*
X59105832Y-16797795D01*
X59105832Y-16797795D02*
X59058213Y-16702557D01*
X59058213Y-16702557D02*
X59010594Y-16654938D01*
X59010594Y-16654938D02*
X58915356Y-16607319D01*
X58915356Y-16607319D02*
X58724880Y-16607319D01*
X58724880Y-16607319D02*
X58629642Y-16654938D01*
X58629642Y-16654938D02*
X58582023Y-16702557D01*
X58582023Y-16702557D02*
X58534404Y-16797795D01*
X58534404Y-16797795D02*
X58534404Y-16845414D01*
X58534404Y-16845414D02*
X58582023Y-16940652D01*
X58582023Y-16940652D02*
X58629642Y-16988271D01*
X58629642Y-16988271D02*
X58724880Y-17035890D01*
X58724880Y-17035890D02*
X58915356Y-17035890D01*
X58915356Y-17035890D02*
X59010594Y-17083509D01*
X59010594Y-17083509D02*
X59058213Y-17131128D01*
X59058213Y-17131128D02*
X59105832Y-17226366D01*
X59105832Y-17226366D02*
X59105832Y-17416842D01*
X59105832Y-17416842D02*
X59058213Y-17512080D01*
X59058213Y-17512080D02*
X59010594Y-17559700D01*
X59010594Y-17559700D02*
X58915356Y-17607319D01*
X58915356Y-17607319D02*
X58724880Y-17607319D01*
X58724880Y-17607319D02*
X58629642Y-17559700D01*
X58629642Y-17559700D02*
X58582023Y-17512080D01*
X58582023Y-17512080D02*
X58534404Y-17416842D01*
X58534404Y-17416842D02*
X58534404Y-17226366D01*
X58534404Y-17226366D02*
X58582023Y-17131128D01*
X58582023Y-17131128D02*
X58629642Y-17083509D01*
X58629642Y-17083509D02*
X58724880Y-17035890D01*
X61747319Y-20273452D02*
X61271128Y-19940119D01*
X61747319Y-19702024D02*
X60747319Y-19702024D01*
X60747319Y-19702024D02*
X60747319Y-20082976D01*
X60747319Y-20082976D02*
X60794938Y-20178214D01*
X60794938Y-20178214D02*
X60842557Y-20225833D01*
X60842557Y-20225833D02*
X60937795Y-20273452D01*
X60937795Y-20273452D02*
X61080652Y-20273452D01*
X61080652Y-20273452D02*
X61175890Y-20225833D01*
X61175890Y-20225833D02*
X61223509Y-20178214D01*
X61223509Y-20178214D02*
X61271128Y-20082976D01*
X61271128Y-20082976D02*
X61271128Y-19702024D01*
X60842557Y-20654405D02*
X60794938Y-20702024D01*
X60794938Y-20702024D02*
X60747319Y-20797262D01*
X60747319Y-20797262D02*
X60747319Y-21035357D01*
X60747319Y-21035357D02*
X60794938Y-21130595D01*
X60794938Y-21130595D02*
X60842557Y-21178214D01*
X60842557Y-21178214D02*
X60937795Y-21225833D01*
X60937795Y-21225833D02*
X61033033Y-21225833D01*
X61033033Y-21225833D02*
X61175890Y-21178214D01*
X61175890Y-21178214D02*
X61747319Y-20606786D01*
X61747319Y-20606786D02*
X61747319Y-21225833D01*
X60747319Y-21559167D02*
X60747319Y-22178214D01*
X60747319Y-22178214D02*
X61128271Y-21844881D01*
X61128271Y-21844881D02*
X61128271Y-21987738D01*
X61128271Y-21987738D02*
X61175890Y-22082976D01*
X61175890Y-22082976D02*
X61223509Y-22130595D01*
X61223509Y-22130595D02*
X61318747Y-22178214D01*
X61318747Y-22178214D02*
X61556842Y-22178214D01*
X61556842Y-22178214D02*
X61652080Y-22130595D01*
X61652080Y-22130595D02*
X61699700Y-22082976D01*
X61699700Y-22082976D02*
X61747319Y-21987738D01*
X61747319Y-21987738D02*
X61747319Y-21702024D01*
X61747319Y-21702024D02*
X61699700Y-21606786D01*
X61699700Y-21606786D02*
X61652080Y-21559167D01*
X60747319Y-22511548D02*
X60747319Y-23130595D01*
X60747319Y-23130595D02*
X61128271Y-22797262D01*
X61128271Y-22797262D02*
X61128271Y-22940119D01*
X61128271Y-22940119D02*
X61175890Y-23035357D01*
X61175890Y-23035357D02*
X61223509Y-23082976D01*
X61223509Y-23082976D02*
X61318747Y-23130595D01*
X61318747Y-23130595D02*
X61556842Y-23130595D01*
X61556842Y-23130595D02*
X61652080Y-23082976D01*
X61652080Y-23082976D02*
X61699700Y-23035357D01*
X61699700Y-23035357D02*
X61747319Y-22940119D01*
X61747319Y-22940119D02*
X61747319Y-22654405D01*
X61747319Y-22654405D02*
X61699700Y-22559167D01*
X61699700Y-22559167D02*
X61652080Y-22511548D01*
X55932080Y-16833452D02*
X55979700Y-16785833D01*
X55979700Y-16785833D02*
X56027319Y-16642976D01*
X56027319Y-16642976D02*
X56027319Y-16547738D01*
X56027319Y-16547738D02*
X55979700Y-16404881D01*
X55979700Y-16404881D02*
X55884461Y-16309643D01*
X55884461Y-16309643D02*
X55789223Y-16262024D01*
X55789223Y-16262024D02*
X55598747Y-16214405D01*
X55598747Y-16214405D02*
X55455890Y-16214405D01*
X55455890Y-16214405D02*
X55265414Y-16262024D01*
X55265414Y-16262024D02*
X55170176Y-16309643D01*
X55170176Y-16309643D02*
X55074938Y-16404881D01*
X55074938Y-16404881D02*
X55027319Y-16547738D01*
X55027319Y-16547738D02*
X55027319Y-16642976D01*
X55027319Y-16642976D02*
X55074938Y-16785833D01*
X55074938Y-16785833D02*
X55122557Y-16833452D01*
X55122557Y-17214405D02*
X55074938Y-17262024D01*
X55074938Y-17262024D02*
X55027319Y-17357262D01*
X55027319Y-17357262D02*
X55027319Y-17595357D01*
X55027319Y-17595357D02*
X55074938Y-17690595D01*
X55074938Y-17690595D02*
X55122557Y-17738214D01*
X55122557Y-17738214D02*
X55217795Y-17785833D01*
X55217795Y-17785833D02*
X55313033Y-17785833D01*
X55313033Y-17785833D02*
X55455890Y-17738214D01*
X55455890Y-17738214D02*
X56027319Y-17166786D01*
X56027319Y-17166786D02*
X56027319Y-17785833D01*
X56027319Y-18738214D02*
X56027319Y-18166786D01*
X56027319Y-18452500D02*
X55027319Y-18452500D01*
X55027319Y-18452500D02*
X55170176Y-18357262D01*
X55170176Y-18357262D02*
X55265414Y-18262024D01*
X55265414Y-18262024D02*
X55313033Y-18166786D01*
X55455890Y-19309643D02*
X55408271Y-19214405D01*
X55408271Y-19214405D02*
X55360652Y-19166786D01*
X55360652Y-19166786D02*
X55265414Y-19119167D01*
X55265414Y-19119167D02*
X55217795Y-19119167D01*
X55217795Y-19119167D02*
X55122557Y-19166786D01*
X55122557Y-19166786D02*
X55074938Y-19214405D01*
X55074938Y-19214405D02*
X55027319Y-19309643D01*
X55027319Y-19309643D02*
X55027319Y-19500119D01*
X55027319Y-19500119D02*
X55074938Y-19595357D01*
X55074938Y-19595357D02*
X55122557Y-19642976D01*
X55122557Y-19642976D02*
X55217795Y-19690595D01*
X55217795Y-19690595D02*
X55265414Y-19690595D01*
X55265414Y-19690595D02*
X55360652Y-19642976D01*
X55360652Y-19642976D02*
X55408271Y-19595357D01*
X55408271Y-19595357D02*
X55455890Y-19500119D01*
X55455890Y-19500119D02*
X55455890Y-19309643D01*
X55455890Y-19309643D02*
X55503509Y-19214405D01*
X55503509Y-19214405D02*
X55551128Y-19166786D01*
X55551128Y-19166786D02*
X55646366Y-19119167D01*
X55646366Y-19119167D02*
X55836842Y-19119167D01*
X55836842Y-19119167D02*
X55932080Y-19166786D01*
X55932080Y-19166786D02*
X55979700Y-19214405D01*
X55979700Y-19214405D02*
X56027319Y-19309643D01*
X56027319Y-19309643D02*
X56027319Y-19500119D01*
X56027319Y-19500119D02*
X55979700Y-19595357D01*
X55979700Y-19595357D02*
X55932080Y-19642976D01*
X55932080Y-19642976D02*
X55836842Y-19690595D01*
X55836842Y-19690595D02*
X55646366Y-19690595D01*
X55646366Y-19690595D02*
X55551128Y-19642976D01*
X55551128Y-19642976D02*
X55503509Y-19595357D01*
X55503509Y-19595357D02*
X55455890Y-19500119D01*
X70579580Y-33878451D02*
X70627200Y-33830832D01*
X70627200Y-33830832D02*
X70674819Y-33687975D01*
X70674819Y-33687975D02*
X70674819Y-33592737D01*
X70674819Y-33592737D02*
X70627200Y-33449880D01*
X70627200Y-33449880D02*
X70531961Y-33354642D01*
X70531961Y-33354642D02*
X70436723Y-33307023D01*
X70436723Y-33307023D02*
X70246247Y-33259404D01*
X70246247Y-33259404D02*
X70103390Y-33259404D01*
X70103390Y-33259404D02*
X69912914Y-33307023D01*
X69912914Y-33307023D02*
X69817676Y-33354642D01*
X69817676Y-33354642D02*
X69722438Y-33449880D01*
X69722438Y-33449880D02*
X69674819Y-33592737D01*
X69674819Y-33592737D02*
X69674819Y-33687975D01*
X69674819Y-33687975D02*
X69722438Y-33830832D01*
X69722438Y-33830832D02*
X69770057Y-33878451D01*
X70674819Y-34830832D02*
X70674819Y-34259404D01*
X70674819Y-34545118D02*
X69674819Y-34545118D01*
X69674819Y-34545118D02*
X69817676Y-34449880D01*
X69817676Y-34449880D02*
X69912914Y-34354642D01*
X69912914Y-34354642D02*
X69960533Y-34259404D01*
X69674819Y-35449880D02*
X69674819Y-35545118D01*
X69674819Y-35545118D02*
X69722438Y-35640356D01*
X69722438Y-35640356D02*
X69770057Y-35687975D01*
X69770057Y-35687975D02*
X69865295Y-35735594D01*
X69865295Y-35735594D02*
X70055771Y-35783213D01*
X70055771Y-35783213D02*
X70293866Y-35783213D01*
X70293866Y-35783213D02*
X70484342Y-35735594D01*
X70484342Y-35735594D02*
X70579580Y-35687975D01*
X70579580Y-35687975D02*
X70627200Y-35640356D01*
X70627200Y-35640356D02*
X70674819Y-35545118D01*
X70674819Y-35545118D02*
X70674819Y-35449880D01*
X70674819Y-35449880D02*
X70627200Y-35354642D01*
X70627200Y-35354642D02*
X70579580Y-35307023D01*
X70579580Y-35307023D02*
X70484342Y-35259404D01*
X70484342Y-35259404D02*
X70293866Y-35211785D01*
X70293866Y-35211785D02*
X70055771Y-35211785D01*
X70055771Y-35211785D02*
X69865295Y-35259404D01*
X69865295Y-35259404D02*
X69770057Y-35307023D01*
X69770057Y-35307023D02*
X69722438Y-35354642D01*
X69722438Y-35354642D02*
X69674819Y-35449880D01*
X69674819Y-36116547D02*
X69674819Y-36735594D01*
X69674819Y-36735594D02*
X70055771Y-36402261D01*
X70055771Y-36402261D02*
X70055771Y-36545118D01*
X70055771Y-36545118D02*
X70103390Y-36640356D01*
X70103390Y-36640356D02*
X70151009Y-36687975D01*
X70151009Y-36687975D02*
X70246247Y-36735594D01*
X70246247Y-36735594D02*
X70484342Y-36735594D01*
X70484342Y-36735594D02*
X70579580Y-36687975D01*
X70579580Y-36687975D02*
X70627200Y-36640356D01*
X70627200Y-36640356D02*
X70674819Y-36545118D01*
X70674819Y-36545118D02*
X70674819Y-36259404D01*
X70674819Y-36259404D02*
X70627200Y-36164166D01*
X70627200Y-36164166D02*
X70579580Y-36116547D01*
X45971547Y-24912080D02*
X46019166Y-24959700D01*
X46019166Y-24959700D02*
X46162023Y-25007319D01*
X46162023Y-25007319D02*
X46257261Y-25007319D01*
X46257261Y-25007319D02*
X46400118Y-24959700D01*
X46400118Y-24959700D02*
X46495356Y-24864461D01*
X46495356Y-24864461D02*
X46542975Y-24769223D01*
X46542975Y-24769223D02*
X46590594Y-24578747D01*
X46590594Y-24578747D02*
X46590594Y-24435890D01*
X46590594Y-24435890D02*
X46542975Y-24245414D01*
X46542975Y-24245414D02*
X46495356Y-24150176D01*
X46495356Y-24150176D02*
X46400118Y-24054938D01*
X46400118Y-24054938D02*
X46257261Y-24007319D01*
X46257261Y-24007319D02*
X46162023Y-24007319D01*
X46162023Y-24007319D02*
X46019166Y-24054938D01*
X46019166Y-24054938D02*
X45971547Y-24102557D01*
X45590594Y-24102557D02*
X45542975Y-24054938D01*
X45542975Y-24054938D02*
X45447737Y-24007319D01*
X45447737Y-24007319D02*
X45209642Y-24007319D01*
X45209642Y-24007319D02*
X45114404Y-24054938D01*
X45114404Y-24054938D02*
X45066785Y-24102557D01*
X45066785Y-24102557D02*
X45019166Y-24197795D01*
X45019166Y-24197795D02*
X45019166Y-24293033D01*
X45019166Y-24293033D02*
X45066785Y-24435890D01*
X45066785Y-24435890D02*
X45638213Y-25007319D01*
X45638213Y-25007319D02*
X45019166Y-25007319D01*
X44066785Y-25007319D02*
X44638213Y-25007319D01*
X44352499Y-25007319D02*
X44352499Y-24007319D01*
X44352499Y-24007319D02*
X44447737Y-24150176D01*
X44447737Y-24150176D02*
X44542975Y-24245414D01*
X44542975Y-24245414D02*
X44638213Y-24293033D01*
X43162023Y-24007319D02*
X43638213Y-24007319D01*
X43638213Y-24007319D02*
X43685832Y-24483509D01*
X43685832Y-24483509D02*
X43638213Y-24435890D01*
X43638213Y-24435890D02*
X43542975Y-24388271D01*
X43542975Y-24388271D02*
X43304880Y-24388271D01*
X43304880Y-24388271D02*
X43209642Y-24435890D01*
X43209642Y-24435890D02*
X43162023Y-24483509D01*
X43162023Y-24483509D02*
X43114404Y-24578747D01*
X43114404Y-24578747D02*
X43114404Y-24816842D01*
X43114404Y-24816842D02*
X43162023Y-24912080D01*
X43162023Y-24912080D02*
X43209642Y-24959700D01*
X43209642Y-24959700D02*
X43304880Y-25007319D01*
X43304880Y-25007319D02*
X43542975Y-25007319D01*
X43542975Y-25007319D02*
X43638213Y-24959700D01*
X43638213Y-24959700D02*
X43685832Y-24912080D01*
X64909580Y-24078452D02*
X64957200Y-24030833D01*
X64957200Y-24030833D02*
X65004819Y-23887976D01*
X65004819Y-23887976D02*
X65004819Y-23792738D01*
X65004819Y-23792738D02*
X64957200Y-23649881D01*
X64957200Y-23649881D02*
X64861961Y-23554643D01*
X64861961Y-23554643D02*
X64766723Y-23507024D01*
X64766723Y-23507024D02*
X64576247Y-23459405D01*
X64576247Y-23459405D02*
X64433390Y-23459405D01*
X64433390Y-23459405D02*
X64242914Y-23507024D01*
X64242914Y-23507024D02*
X64147676Y-23554643D01*
X64147676Y-23554643D02*
X64052438Y-23649881D01*
X64052438Y-23649881D02*
X64004819Y-23792738D01*
X64004819Y-23792738D02*
X64004819Y-23887976D01*
X64004819Y-23887976D02*
X64052438Y-24030833D01*
X64052438Y-24030833D02*
X64100057Y-24078452D01*
X65004819Y-25030833D02*
X65004819Y-24459405D01*
X65004819Y-24745119D02*
X64004819Y-24745119D01*
X64004819Y-24745119D02*
X64147676Y-24649881D01*
X64147676Y-24649881D02*
X64242914Y-24554643D01*
X64242914Y-24554643D02*
X64290533Y-24459405D01*
X64004819Y-25649881D02*
X64004819Y-25745119D01*
X64004819Y-25745119D02*
X64052438Y-25840357D01*
X64052438Y-25840357D02*
X64100057Y-25887976D01*
X64100057Y-25887976D02*
X64195295Y-25935595D01*
X64195295Y-25935595D02*
X64385771Y-25983214D01*
X64385771Y-25983214D02*
X64623866Y-25983214D01*
X64623866Y-25983214D02*
X64814342Y-25935595D01*
X64814342Y-25935595D02*
X64909580Y-25887976D01*
X64909580Y-25887976D02*
X64957200Y-25840357D01*
X64957200Y-25840357D02*
X65004819Y-25745119D01*
X65004819Y-25745119D02*
X65004819Y-25649881D01*
X65004819Y-25649881D02*
X64957200Y-25554643D01*
X64957200Y-25554643D02*
X64909580Y-25507024D01*
X64909580Y-25507024D02*
X64814342Y-25459405D01*
X64814342Y-25459405D02*
X64623866Y-25411786D01*
X64623866Y-25411786D02*
X64385771Y-25411786D01*
X64385771Y-25411786D02*
X64195295Y-25459405D01*
X64195295Y-25459405D02*
X64100057Y-25507024D01*
X64100057Y-25507024D02*
X64052438Y-25554643D01*
X64052438Y-25554643D02*
X64004819Y-25649881D01*
X64338152Y-26840357D02*
X65004819Y-26840357D01*
X63957200Y-26602262D02*
X64671485Y-26364167D01*
X64671485Y-26364167D02*
X64671485Y-26983214D01*
X62447080Y-28768452D02*
X62494700Y-28720833D01*
X62494700Y-28720833D02*
X62542319Y-28577976D01*
X62542319Y-28577976D02*
X62542319Y-28482738D01*
X62542319Y-28482738D02*
X62494700Y-28339881D01*
X62494700Y-28339881D02*
X62399461Y-28244643D01*
X62399461Y-28244643D02*
X62304223Y-28197024D01*
X62304223Y-28197024D02*
X62113747Y-28149405D01*
X62113747Y-28149405D02*
X61970890Y-28149405D01*
X61970890Y-28149405D02*
X61780414Y-28197024D01*
X61780414Y-28197024D02*
X61685176Y-28244643D01*
X61685176Y-28244643D02*
X61589938Y-28339881D01*
X61589938Y-28339881D02*
X61542319Y-28482738D01*
X61542319Y-28482738D02*
X61542319Y-28577976D01*
X61542319Y-28577976D02*
X61589938Y-28720833D01*
X61589938Y-28720833D02*
X61637557Y-28768452D01*
X61637557Y-29149405D02*
X61589938Y-29197024D01*
X61589938Y-29197024D02*
X61542319Y-29292262D01*
X61542319Y-29292262D02*
X61542319Y-29530357D01*
X61542319Y-29530357D02*
X61589938Y-29625595D01*
X61589938Y-29625595D02*
X61637557Y-29673214D01*
X61637557Y-29673214D02*
X61732795Y-29720833D01*
X61732795Y-29720833D02*
X61828033Y-29720833D01*
X61828033Y-29720833D02*
X61970890Y-29673214D01*
X61970890Y-29673214D02*
X62542319Y-29101786D01*
X62542319Y-29101786D02*
X62542319Y-29720833D01*
X62542319Y-30673214D02*
X62542319Y-30101786D01*
X62542319Y-30387500D02*
X61542319Y-30387500D01*
X61542319Y-30387500D02*
X61685176Y-30292262D01*
X61685176Y-30292262D02*
X61780414Y-30197024D01*
X61780414Y-30197024D02*
X61828033Y-30101786D01*
X61542319Y-31006548D02*
X61542319Y-31673214D01*
X61542319Y-31673214D02*
X62542319Y-31244643D01*
X49581547Y-34542319D02*
X49914880Y-34066128D01*
X50152975Y-34542319D02*
X50152975Y-33542319D01*
X50152975Y-33542319D02*
X49772023Y-33542319D01*
X49772023Y-33542319D02*
X49676785Y-33589938D01*
X49676785Y-33589938D02*
X49629166Y-33637557D01*
X49629166Y-33637557D02*
X49581547Y-33732795D01*
X49581547Y-33732795D02*
X49581547Y-33875652D01*
X49581547Y-33875652D02*
X49629166Y-33970890D01*
X49629166Y-33970890D02*
X49676785Y-34018509D01*
X49676785Y-34018509D02*
X49772023Y-34066128D01*
X49772023Y-34066128D02*
X50152975Y-34066128D01*
X49200594Y-33637557D02*
X49152975Y-33589938D01*
X49152975Y-33589938D02*
X49057737Y-33542319D01*
X49057737Y-33542319D02*
X48819642Y-33542319D01*
X48819642Y-33542319D02*
X48724404Y-33589938D01*
X48724404Y-33589938D02*
X48676785Y-33637557D01*
X48676785Y-33637557D02*
X48629166Y-33732795D01*
X48629166Y-33732795D02*
X48629166Y-33828033D01*
X48629166Y-33828033D02*
X48676785Y-33970890D01*
X48676785Y-33970890D02*
X49248213Y-34542319D01*
X49248213Y-34542319D02*
X48629166Y-34542319D01*
X48295832Y-33542319D02*
X47676785Y-33542319D01*
X47676785Y-33542319D02*
X48010118Y-33923271D01*
X48010118Y-33923271D02*
X47867261Y-33923271D01*
X47867261Y-33923271D02*
X47772023Y-33970890D01*
X47772023Y-33970890D02*
X47724404Y-34018509D01*
X47724404Y-34018509D02*
X47676785Y-34113747D01*
X47676785Y-34113747D02*
X47676785Y-34351842D01*
X47676785Y-34351842D02*
X47724404Y-34447080D01*
X47724404Y-34447080D02*
X47772023Y-34494700D01*
X47772023Y-34494700D02*
X47867261Y-34542319D01*
X47867261Y-34542319D02*
X48152975Y-34542319D01*
X48152975Y-34542319D02*
X48248213Y-34494700D01*
X48248213Y-34494700D02*
X48295832Y-34447080D01*
X47105356Y-33970890D02*
X47200594Y-33923271D01*
X47200594Y-33923271D02*
X47248213Y-33875652D01*
X47248213Y-33875652D02*
X47295832Y-33780414D01*
X47295832Y-33780414D02*
X47295832Y-33732795D01*
X47295832Y-33732795D02*
X47248213Y-33637557D01*
X47248213Y-33637557D02*
X47200594Y-33589938D01*
X47200594Y-33589938D02*
X47105356Y-33542319D01*
X47105356Y-33542319D02*
X46914880Y-33542319D01*
X46914880Y-33542319D02*
X46819642Y-33589938D01*
X46819642Y-33589938D02*
X46772023Y-33637557D01*
X46772023Y-33637557D02*
X46724404Y-33732795D01*
X46724404Y-33732795D02*
X46724404Y-33780414D01*
X46724404Y-33780414D02*
X46772023Y-33875652D01*
X46772023Y-33875652D02*
X46819642Y-33923271D01*
X46819642Y-33923271D02*
X46914880Y-33970890D01*
X46914880Y-33970890D02*
X47105356Y-33970890D01*
X47105356Y-33970890D02*
X47200594Y-34018509D01*
X47200594Y-34018509D02*
X47248213Y-34066128D01*
X47248213Y-34066128D02*
X47295832Y-34161366D01*
X47295832Y-34161366D02*
X47295832Y-34351842D01*
X47295832Y-34351842D02*
X47248213Y-34447080D01*
X47248213Y-34447080D02*
X47200594Y-34494700D01*
X47200594Y-34494700D02*
X47105356Y-34542319D01*
X47105356Y-34542319D02*
X46914880Y-34542319D01*
X46914880Y-34542319D02*
X46819642Y-34494700D01*
X46819642Y-34494700D02*
X46772023Y-34447080D01*
X46772023Y-34447080D02*
X46724404Y-34351842D01*
X46724404Y-34351842D02*
X46724404Y-34161366D01*
X46724404Y-34161366D02*
X46772023Y-34066128D01*
X46772023Y-34066128D02*
X46819642Y-34018509D01*
X46819642Y-34018509D02*
X46914880Y-33970890D01*
X49611547Y-31077319D02*
X49944880Y-30601128D01*
X50182975Y-31077319D02*
X50182975Y-30077319D01*
X50182975Y-30077319D02*
X49802023Y-30077319D01*
X49802023Y-30077319D02*
X49706785Y-30124938D01*
X49706785Y-30124938D02*
X49659166Y-30172557D01*
X49659166Y-30172557D02*
X49611547Y-30267795D01*
X49611547Y-30267795D02*
X49611547Y-30410652D01*
X49611547Y-30410652D02*
X49659166Y-30505890D01*
X49659166Y-30505890D02*
X49706785Y-30553509D01*
X49706785Y-30553509D02*
X49802023Y-30601128D01*
X49802023Y-30601128D02*
X50182975Y-30601128D01*
X49230594Y-30172557D02*
X49182975Y-30124938D01*
X49182975Y-30124938D02*
X49087737Y-30077319D01*
X49087737Y-30077319D02*
X48849642Y-30077319D01*
X48849642Y-30077319D02*
X48754404Y-30124938D01*
X48754404Y-30124938D02*
X48706785Y-30172557D01*
X48706785Y-30172557D02*
X48659166Y-30267795D01*
X48659166Y-30267795D02*
X48659166Y-30363033D01*
X48659166Y-30363033D02*
X48706785Y-30505890D01*
X48706785Y-30505890D02*
X49278213Y-31077319D01*
X49278213Y-31077319D02*
X48659166Y-31077319D01*
X48325832Y-30077319D02*
X47706785Y-30077319D01*
X47706785Y-30077319D02*
X48040118Y-30458271D01*
X48040118Y-30458271D02*
X47897261Y-30458271D01*
X47897261Y-30458271D02*
X47802023Y-30505890D01*
X47802023Y-30505890D02*
X47754404Y-30553509D01*
X47754404Y-30553509D02*
X47706785Y-30648747D01*
X47706785Y-30648747D02*
X47706785Y-30886842D01*
X47706785Y-30886842D02*
X47754404Y-30982080D01*
X47754404Y-30982080D02*
X47802023Y-31029700D01*
X47802023Y-31029700D02*
X47897261Y-31077319D01*
X47897261Y-31077319D02*
X48182975Y-31077319D01*
X48182975Y-31077319D02*
X48278213Y-31029700D01*
X48278213Y-31029700D02*
X48325832Y-30982080D01*
X47230594Y-31077319D02*
X47040118Y-31077319D01*
X47040118Y-31077319D02*
X46944880Y-31029700D01*
X46944880Y-31029700D02*
X46897261Y-30982080D01*
X46897261Y-30982080D02*
X46802023Y-30839223D01*
X46802023Y-30839223D02*
X46754404Y-30648747D01*
X46754404Y-30648747D02*
X46754404Y-30267795D01*
X46754404Y-30267795D02*
X46802023Y-30172557D01*
X46802023Y-30172557D02*
X46849642Y-30124938D01*
X46849642Y-30124938D02*
X46944880Y-30077319D01*
X46944880Y-30077319D02*
X47135356Y-30077319D01*
X47135356Y-30077319D02*
X47230594Y-30124938D01*
X47230594Y-30124938D02*
X47278213Y-30172557D01*
X47278213Y-30172557D02*
X47325832Y-30267795D01*
X47325832Y-30267795D02*
X47325832Y-30505890D01*
X47325832Y-30505890D02*
X47278213Y-30601128D01*
X47278213Y-30601128D02*
X47230594Y-30648747D01*
X47230594Y-30648747D02*
X47135356Y-30696366D01*
X47135356Y-30696366D02*
X46944880Y-30696366D01*
X46944880Y-30696366D02*
X46849642Y-30648747D01*
X46849642Y-30648747D02*
X46802023Y-30601128D01*
X46802023Y-30601128D02*
X46754404Y-30505890D01*
X47967319Y-20418452D02*
X47491128Y-20085119D01*
X47967319Y-19847024D02*
X46967319Y-19847024D01*
X46967319Y-19847024D02*
X46967319Y-20227976D01*
X46967319Y-20227976D02*
X47014938Y-20323214D01*
X47014938Y-20323214D02*
X47062557Y-20370833D01*
X47062557Y-20370833D02*
X47157795Y-20418452D01*
X47157795Y-20418452D02*
X47300652Y-20418452D01*
X47300652Y-20418452D02*
X47395890Y-20370833D01*
X47395890Y-20370833D02*
X47443509Y-20323214D01*
X47443509Y-20323214D02*
X47491128Y-20227976D01*
X47491128Y-20227976D02*
X47491128Y-19847024D01*
X47062557Y-20799405D02*
X47014938Y-20847024D01*
X47014938Y-20847024D02*
X46967319Y-20942262D01*
X46967319Y-20942262D02*
X46967319Y-21180357D01*
X46967319Y-21180357D02*
X47014938Y-21275595D01*
X47014938Y-21275595D02*
X47062557Y-21323214D01*
X47062557Y-21323214D02*
X47157795Y-21370833D01*
X47157795Y-21370833D02*
X47253033Y-21370833D01*
X47253033Y-21370833D02*
X47395890Y-21323214D01*
X47395890Y-21323214D02*
X47967319Y-20751786D01*
X47967319Y-20751786D02*
X47967319Y-21370833D01*
X47300652Y-22227976D02*
X47967319Y-22227976D01*
X46919700Y-21989881D02*
X47633985Y-21751786D01*
X47633985Y-21751786D02*
X47633985Y-22370833D01*
X46967319Y-22942262D02*
X46967319Y-23037500D01*
X46967319Y-23037500D02*
X47014938Y-23132738D01*
X47014938Y-23132738D02*
X47062557Y-23180357D01*
X47062557Y-23180357D02*
X47157795Y-23227976D01*
X47157795Y-23227976D02*
X47348271Y-23275595D01*
X47348271Y-23275595D02*
X47586366Y-23275595D01*
X47586366Y-23275595D02*
X47776842Y-23227976D01*
X47776842Y-23227976D02*
X47872080Y-23180357D01*
X47872080Y-23180357D02*
X47919700Y-23132738D01*
X47919700Y-23132738D02*
X47967319Y-23037500D01*
X47967319Y-23037500D02*
X47967319Y-22942262D01*
X47967319Y-22942262D02*
X47919700Y-22847024D01*
X47919700Y-22847024D02*
X47872080Y-22799405D01*
X47872080Y-22799405D02*
X47776842Y-22751786D01*
X47776842Y-22751786D02*
X47586366Y-22704167D01*
X47586366Y-22704167D02*
X47348271Y-22704167D01*
X47348271Y-22704167D02*
X47157795Y-22751786D01*
X47157795Y-22751786D02*
X47062557Y-22799405D01*
X47062557Y-22799405D02*
X47014938Y-22847024D01*
X47014938Y-22847024D02*
X46967319Y-22942262D01*
X70779580Y-17528452D02*
X70827200Y-17480833D01*
X70827200Y-17480833D02*
X70874819Y-17337976D01*
X70874819Y-17337976D02*
X70874819Y-17242738D01*
X70874819Y-17242738D02*
X70827200Y-17099881D01*
X70827200Y-17099881D02*
X70731961Y-17004643D01*
X70731961Y-17004643D02*
X70636723Y-16957024D01*
X70636723Y-16957024D02*
X70446247Y-16909405D01*
X70446247Y-16909405D02*
X70303390Y-16909405D01*
X70303390Y-16909405D02*
X70112914Y-16957024D01*
X70112914Y-16957024D02*
X70017676Y-17004643D01*
X70017676Y-17004643D02*
X69922438Y-17099881D01*
X69922438Y-17099881D02*
X69874819Y-17242738D01*
X69874819Y-17242738D02*
X69874819Y-17337976D01*
X69874819Y-17337976D02*
X69922438Y-17480833D01*
X69922438Y-17480833D02*
X69970057Y-17528452D01*
X70874819Y-18480833D02*
X70874819Y-17909405D01*
X70874819Y-18195119D02*
X69874819Y-18195119D01*
X69874819Y-18195119D02*
X70017676Y-18099881D01*
X70017676Y-18099881D02*
X70112914Y-18004643D01*
X70112914Y-18004643D02*
X70160533Y-17909405D01*
X69874819Y-19099881D02*
X69874819Y-19195119D01*
X69874819Y-19195119D02*
X69922438Y-19290357D01*
X69922438Y-19290357D02*
X69970057Y-19337976D01*
X69970057Y-19337976D02*
X70065295Y-19385595D01*
X70065295Y-19385595D02*
X70255771Y-19433214D01*
X70255771Y-19433214D02*
X70493866Y-19433214D01*
X70493866Y-19433214D02*
X70684342Y-19385595D01*
X70684342Y-19385595D02*
X70779580Y-19337976D01*
X70779580Y-19337976D02*
X70827200Y-19290357D01*
X70827200Y-19290357D02*
X70874819Y-19195119D01*
X70874819Y-19195119D02*
X70874819Y-19099881D01*
X70874819Y-19099881D02*
X70827200Y-19004643D01*
X70827200Y-19004643D02*
X70779580Y-18957024D01*
X70779580Y-18957024D02*
X70684342Y-18909405D01*
X70684342Y-18909405D02*
X70493866Y-18861786D01*
X70493866Y-18861786D02*
X70255771Y-18861786D01*
X70255771Y-18861786D02*
X70065295Y-18909405D01*
X70065295Y-18909405D02*
X69970057Y-18957024D01*
X69970057Y-18957024D02*
X69922438Y-19004643D01*
X69922438Y-19004643D02*
X69874819Y-19099881D01*
X70874819Y-20385595D02*
X70874819Y-19814167D01*
X70874819Y-20099881D02*
X69874819Y-20099881D01*
X69874819Y-20099881D02*
X70017676Y-20004643D01*
X70017676Y-20004643D02*
X70112914Y-19909405D01*
X70112914Y-19909405D02*
X70160533Y-19814167D01*
X57967319Y-33658214D02*
X58776842Y-33658214D01*
X58776842Y-33658214D02*
X58872080Y-33705833D01*
X58872080Y-33705833D02*
X58919700Y-33753452D01*
X58919700Y-33753452D02*
X58967319Y-33848690D01*
X58967319Y-33848690D02*
X58967319Y-34039166D01*
X58967319Y-34039166D02*
X58919700Y-34134404D01*
X58919700Y-34134404D02*
X58872080Y-34182023D01*
X58872080Y-34182023D02*
X58776842Y-34229642D01*
X58776842Y-34229642D02*
X57967319Y-34229642D01*
X58062557Y-34658214D02*
X58014938Y-34705833D01*
X58014938Y-34705833D02*
X57967319Y-34801071D01*
X57967319Y-34801071D02*
X57967319Y-35039166D01*
X57967319Y-35039166D02*
X58014938Y-35134404D01*
X58014938Y-35134404D02*
X58062557Y-35182023D01*
X58062557Y-35182023D02*
X58157795Y-35229642D01*
X58157795Y-35229642D02*
X58253033Y-35229642D01*
X58253033Y-35229642D02*
X58395890Y-35182023D01*
X58395890Y-35182023D02*
X58967319Y-34610595D01*
X58967319Y-34610595D02*
X58967319Y-35229642D01*
X57967319Y-35848690D02*
X57967319Y-35943928D01*
X57967319Y-35943928D02*
X58014938Y-36039166D01*
X58014938Y-36039166D02*
X58062557Y-36086785D01*
X58062557Y-36086785D02*
X58157795Y-36134404D01*
X58157795Y-36134404D02*
X58348271Y-36182023D01*
X58348271Y-36182023D02*
X58586366Y-36182023D01*
X58586366Y-36182023D02*
X58776842Y-36134404D01*
X58776842Y-36134404D02*
X58872080Y-36086785D01*
X58872080Y-36086785D02*
X58919700Y-36039166D01*
X58919700Y-36039166D02*
X58967319Y-35943928D01*
X58967319Y-35943928D02*
X58967319Y-35848690D01*
X58967319Y-35848690D02*
X58919700Y-35753452D01*
X58919700Y-35753452D02*
X58872080Y-35705833D01*
X58872080Y-35705833D02*
X58776842Y-35658214D01*
X58776842Y-35658214D02*
X58586366Y-35610595D01*
X58586366Y-35610595D02*
X58348271Y-35610595D01*
X58348271Y-35610595D02*
X58157795Y-35658214D01*
X58157795Y-35658214D02*
X58062557Y-35705833D01*
X58062557Y-35705833D02*
X58014938Y-35753452D01*
X58014938Y-35753452D02*
X57967319Y-35848690D01*
X57967319Y-37086785D02*
X57967319Y-36610595D01*
X57967319Y-36610595D02*
X58443509Y-36562976D01*
X58443509Y-36562976D02*
X58395890Y-36610595D01*
X58395890Y-36610595D02*
X58348271Y-36705833D01*
X58348271Y-36705833D02*
X58348271Y-36943928D01*
X58348271Y-36943928D02*
X58395890Y-37039166D01*
X58395890Y-37039166D02*
X58443509Y-37086785D01*
X58443509Y-37086785D02*
X58538747Y-37134404D01*
X58538747Y-37134404D02*
X58776842Y-37134404D01*
X58776842Y-37134404D02*
X58872080Y-37086785D01*
X58872080Y-37086785D02*
X58919700Y-37039166D01*
X58919700Y-37039166D02*
X58967319Y-36943928D01*
X58967319Y-36943928D02*
X58967319Y-36705833D01*
X58967319Y-36705833D02*
X58919700Y-36610595D01*
X58919700Y-36610595D02*
X58872080Y-36562976D01*
X48241547Y-19477319D02*
X48574880Y-19001128D01*
X48812975Y-19477319D02*
X48812975Y-18477319D01*
X48812975Y-18477319D02*
X48432023Y-18477319D01*
X48432023Y-18477319D02*
X48336785Y-18524938D01*
X48336785Y-18524938D02*
X48289166Y-18572557D01*
X48289166Y-18572557D02*
X48241547Y-18667795D01*
X48241547Y-18667795D02*
X48241547Y-18810652D01*
X48241547Y-18810652D02*
X48289166Y-18905890D01*
X48289166Y-18905890D02*
X48336785Y-18953509D01*
X48336785Y-18953509D02*
X48432023Y-19001128D01*
X48432023Y-19001128D02*
X48812975Y-19001128D01*
X47860594Y-18572557D02*
X47812975Y-18524938D01*
X47812975Y-18524938D02*
X47717737Y-18477319D01*
X47717737Y-18477319D02*
X47479642Y-18477319D01*
X47479642Y-18477319D02*
X47384404Y-18524938D01*
X47384404Y-18524938D02*
X47336785Y-18572557D01*
X47336785Y-18572557D02*
X47289166Y-18667795D01*
X47289166Y-18667795D02*
X47289166Y-18763033D01*
X47289166Y-18763033D02*
X47336785Y-18905890D01*
X47336785Y-18905890D02*
X47908213Y-19477319D01*
X47908213Y-19477319D02*
X47289166Y-19477319D01*
X46955832Y-18477319D02*
X46336785Y-18477319D01*
X46336785Y-18477319D02*
X46670118Y-18858271D01*
X46670118Y-18858271D02*
X46527261Y-18858271D01*
X46527261Y-18858271D02*
X46432023Y-18905890D01*
X46432023Y-18905890D02*
X46384404Y-18953509D01*
X46384404Y-18953509D02*
X46336785Y-19048747D01*
X46336785Y-19048747D02*
X46336785Y-19286842D01*
X46336785Y-19286842D02*
X46384404Y-19382080D01*
X46384404Y-19382080D02*
X46432023Y-19429700D01*
X46432023Y-19429700D02*
X46527261Y-19477319D01*
X46527261Y-19477319D02*
X46812975Y-19477319D01*
X46812975Y-19477319D02*
X46908213Y-19429700D01*
X46908213Y-19429700D02*
X46955832Y-19382080D01*
X45384404Y-19477319D02*
X45955832Y-19477319D01*
X45670118Y-19477319D02*
X45670118Y-18477319D01*
X45670118Y-18477319D02*
X45765356Y-18620176D01*
X45765356Y-18620176D02*
X45860594Y-18715414D01*
X45860594Y-18715414D02*
X45955832Y-18763033D01*
X61131547Y-26782080D02*
X61179166Y-26829700D01*
X61179166Y-26829700D02*
X61322023Y-26877319D01*
X61322023Y-26877319D02*
X61417261Y-26877319D01*
X61417261Y-26877319D02*
X61560118Y-26829700D01*
X61560118Y-26829700D02*
X61655356Y-26734461D01*
X61655356Y-26734461D02*
X61702975Y-26639223D01*
X61702975Y-26639223D02*
X61750594Y-26448747D01*
X61750594Y-26448747D02*
X61750594Y-26305890D01*
X61750594Y-26305890D02*
X61702975Y-26115414D01*
X61702975Y-26115414D02*
X61655356Y-26020176D01*
X61655356Y-26020176D02*
X61560118Y-25924938D01*
X61560118Y-25924938D02*
X61417261Y-25877319D01*
X61417261Y-25877319D02*
X61322023Y-25877319D01*
X61322023Y-25877319D02*
X61179166Y-25924938D01*
X61179166Y-25924938D02*
X61131547Y-25972557D01*
X60750594Y-25972557D02*
X60702975Y-25924938D01*
X60702975Y-25924938D02*
X60607737Y-25877319D01*
X60607737Y-25877319D02*
X60369642Y-25877319D01*
X60369642Y-25877319D02*
X60274404Y-25924938D01*
X60274404Y-25924938D02*
X60226785Y-25972557D01*
X60226785Y-25972557D02*
X60179166Y-26067795D01*
X60179166Y-26067795D02*
X60179166Y-26163033D01*
X60179166Y-26163033D02*
X60226785Y-26305890D01*
X60226785Y-26305890D02*
X60798213Y-26877319D01*
X60798213Y-26877319D02*
X60179166Y-26877319D01*
X59226785Y-26877319D02*
X59798213Y-26877319D01*
X59512499Y-26877319D02*
X59512499Y-25877319D01*
X59512499Y-25877319D02*
X59607737Y-26020176D01*
X59607737Y-26020176D02*
X59702975Y-26115414D01*
X59702975Y-26115414D02*
X59798213Y-26163033D01*
X58369642Y-25877319D02*
X58560118Y-25877319D01*
X58560118Y-25877319D02*
X58655356Y-25924938D01*
X58655356Y-25924938D02*
X58702975Y-25972557D01*
X58702975Y-25972557D02*
X58798213Y-26115414D01*
X58798213Y-26115414D02*
X58845832Y-26305890D01*
X58845832Y-26305890D02*
X58845832Y-26686842D01*
X58845832Y-26686842D02*
X58798213Y-26782080D01*
X58798213Y-26782080D02*
X58750594Y-26829700D01*
X58750594Y-26829700D02*
X58655356Y-26877319D01*
X58655356Y-26877319D02*
X58464880Y-26877319D01*
X58464880Y-26877319D02*
X58369642Y-26829700D01*
X58369642Y-26829700D02*
X58322023Y-26782080D01*
X58322023Y-26782080D02*
X58274404Y-26686842D01*
X58274404Y-26686842D02*
X58274404Y-26448747D01*
X58274404Y-26448747D02*
X58322023Y-26353509D01*
X58322023Y-26353509D02*
X58369642Y-26305890D01*
X58369642Y-26305890D02*
X58464880Y-26258271D01*
X58464880Y-26258271D02*
X58655356Y-26258271D01*
X58655356Y-26258271D02*
X58750594Y-26305890D01*
X58750594Y-26305890D02*
X58798213Y-26353509D01*
X58798213Y-26353509D02*
X58845832Y-26448747D01*
X49581547Y-38067319D02*
X49914880Y-37591128D01*
X50152975Y-38067319D02*
X50152975Y-37067319D01*
X50152975Y-37067319D02*
X49772023Y-37067319D01*
X49772023Y-37067319D02*
X49676785Y-37114938D01*
X49676785Y-37114938D02*
X49629166Y-37162557D01*
X49629166Y-37162557D02*
X49581547Y-37257795D01*
X49581547Y-37257795D02*
X49581547Y-37400652D01*
X49581547Y-37400652D02*
X49629166Y-37495890D01*
X49629166Y-37495890D02*
X49676785Y-37543509D01*
X49676785Y-37543509D02*
X49772023Y-37591128D01*
X49772023Y-37591128D02*
X50152975Y-37591128D01*
X49200594Y-37162557D02*
X49152975Y-37114938D01*
X49152975Y-37114938D02*
X49057737Y-37067319D01*
X49057737Y-37067319D02*
X48819642Y-37067319D01*
X48819642Y-37067319D02*
X48724404Y-37114938D01*
X48724404Y-37114938D02*
X48676785Y-37162557D01*
X48676785Y-37162557D02*
X48629166Y-37257795D01*
X48629166Y-37257795D02*
X48629166Y-37353033D01*
X48629166Y-37353033D02*
X48676785Y-37495890D01*
X48676785Y-37495890D02*
X49248213Y-38067319D01*
X49248213Y-38067319D02*
X48629166Y-38067319D01*
X48295832Y-37067319D02*
X47676785Y-37067319D01*
X47676785Y-37067319D02*
X48010118Y-37448271D01*
X48010118Y-37448271D02*
X47867261Y-37448271D01*
X47867261Y-37448271D02*
X47772023Y-37495890D01*
X47772023Y-37495890D02*
X47724404Y-37543509D01*
X47724404Y-37543509D02*
X47676785Y-37638747D01*
X47676785Y-37638747D02*
X47676785Y-37876842D01*
X47676785Y-37876842D02*
X47724404Y-37972080D01*
X47724404Y-37972080D02*
X47772023Y-38019700D01*
X47772023Y-38019700D02*
X47867261Y-38067319D01*
X47867261Y-38067319D02*
X48152975Y-38067319D01*
X48152975Y-38067319D02*
X48248213Y-38019700D01*
X48248213Y-38019700D02*
X48295832Y-37972080D01*
X47343451Y-37067319D02*
X46676785Y-37067319D01*
X46676785Y-37067319D02*
X47105356Y-38067319D01*
X49567319Y-10398215D02*
X50376842Y-10398215D01*
X50376842Y-10398215D02*
X50472080Y-10445834D01*
X50472080Y-10445834D02*
X50519700Y-10493453D01*
X50519700Y-10493453D02*
X50567319Y-10588691D01*
X50567319Y-10588691D02*
X50567319Y-10779167D01*
X50567319Y-10779167D02*
X50519700Y-10874405D01*
X50519700Y-10874405D02*
X50472080Y-10922024D01*
X50472080Y-10922024D02*
X50376842Y-10969643D01*
X50376842Y-10969643D02*
X49567319Y-10969643D01*
X49662557Y-11398215D02*
X49614938Y-11445834D01*
X49614938Y-11445834D02*
X49567319Y-11541072D01*
X49567319Y-11541072D02*
X49567319Y-11779167D01*
X49567319Y-11779167D02*
X49614938Y-11874405D01*
X49614938Y-11874405D02*
X49662557Y-11922024D01*
X49662557Y-11922024D02*
X49757795Y-11969643D01*
X49757795Y-11969643D02*
X49853033Y-11969643D01*
X49853033Y-11969643D02*
X49995890Y-11922024D01*
X49995890Y-11922024D02*
X50567319Y-11350596D01*
X50567319Y-11350596D02*
X50567319Y-11969643D01*
X49567319Y-12588691D02*
X49567319Y-12683929D01*
X49567319Y-12683929D02*
X49614938Y-12779167D01*
X49614938Y-12779167D02*
X49662557Y-12826786D01*
X49662557Y-12826786D02*
X49757795Y-12874405D01*
X49757795Y-12874405D02*
X49948271Y-12922024D01*
X49948271Y-12922024D02*
X50186366Y-12922024D01*
X50186366Y-12922024D02*
X50376842Y-12874405D01*
X50376842Y-12874405D02*
X50472080Y-12826786D01*
X50472080Y-12826786D02*
X50519700Y-12779167D01*
X50519700Y-12779167D02*
X50567319Y-12683929D01*
X50567319Y-12683929D02*
X50567319Y-12588691D01*
X50567319Y-12588691D02*
X50519700Y-12493453D01*
X50519700Y-12493453D02*
X50472080Y-12445834D01*
X50472080Y-12445834D02*
X50376842Y-12398215D01*
X50376842Y-12398215D02*
X50186366Y-12350596D01*
X50186366Y-12350596D02*
X49948271Y-12350596D01*
X49948271Y-12350596D02*
X49757795Y-12398215D01*
X49757795Y-12398215D02*
X49662557Y-12445834D01*
X49662557Y-12445834D02*
X49614938Y-12493453D01*
X49614938Y-12493453D02*
X49567319Y-12588691D01*
X49567319Y-13255358D02*
X49567319Y-13874405D01*
X49567319Y-13874405D02*
X49948271Y-13541072D01*
X49948271Y-13541072D02*
X49948271Y-13683929D01*
X49948271Y-13683929D02*
X49995890Y-13779167D01*
X49995890Y-13779167D02*
X50043509Y-13826786D01*
X50043509Y-13826786D02*
X50138747Y-13874405D01*
X50138747Y-13874405D02*
X50376842Y-13874405D01*
X50376842Y-13874405D02*
X50472080Y-13826786D01*
X50472080Y-13826786D02*
X50519700Y-13779167D01*
X50519700Y-13779167D02*
X50567319Y-13683929D01*
X50567319Y-13683929D02*
X50567319Y-13398215D01*
X50567319Y-13398215D02*
X50519700Y-13302977D01*
X50519700Y-13302977D02*
X50472080Y-13255358D01*
X70964285Y-9552319D02*
X70964285Y-10361842D01*
X70964285Y-10361842D02*
X70916666Y-10457080D01*
X70916666Y-10457080D02*
X70869047Y-10504700D01*
X70869047Y-10504700D02*
X70773809Y-10552319D01*
X70773809Y-10552319D02*
X70583333Y-10552319D01*
X70583333Y-10552319D02*
X70488095Y-10504700D01*
X70488095Y-10504700D02*
X70440476Y-10457080D01*
X70440476Y-10457080D02*
X70392857Y-10361842D01*
X70392857Y-10361842D02*
X70392857Y-9552319D01*
X69392857Y-10552319D02*
X69964285Y-10552319D01*
X69678571Y-10552319D02*
X69678571Y-9552319D01*
X69678571Y-9552319D02*
X69773809Y-9695176D01*
X69773809Y-9695176D02*
X69869047Y-9790414D01*
X69869047Y-9790414D02*
X69964285Y-9838033D01*
X68773809Y-9552319D02*
X68678571Y-9552319D01*
X68678571Y-9552319D02*
X68583333Y-9599938D01*
X68583333Y-9599938D02*
X68535714Y-9647557D01*
X68535714Y-9647557D02*
X68488095Y-9742795D01*
X68488095Y-9742795D02*
X68440476Y-9933271D01*
X68440476Y-9933271D02*
X68440476Y-10171366D01*
X68440476Y-10171366D02*
X68488095Y-10361842D01*
X68488095Y-10361842D02*
X68535714Y-10457080D01*
X68535714Y-10457080D02*
X68583333Y-10504700D01*
X68583333Y-10504700D02*
X68678571Y-10552319D01*
X68678571Y-10552319D02*
X68773809Y-10552319D01*
X68773809Y-10552319D02*
X68869047Y-10504700D01*
X68869047Y-10504700D02*
X68916666Y-10457080D01*
X68916666Y-10457080D02*
X68964285Y-10361842D01*
X68964285Y-10361842D02*
X69011904Y-10171366D01*
X69011904Y-10171366D02*
X69011904Y-9933271D01*
X69011904Y-9933271D02*
X68964285Y-9742795D01*
X68964285Y-9742795D02*
X68916666Y-9647557D01*
X68916666Y-9647557D02*
X68869047Y-9599938D01*
X68869047Y-9599938D02*
X68773809Y-9552319D01*
X68059523Y-9647557D02*
X68011904Y-9599938D01*
X68011904Y-9599938D02*
X67916666Y-9552319D01*
X67916666Y-9552319D02*
X67678571Y-9552319D01*
X67678571Y-9552319D02*
X67583333Y-9599938D01*
X67583333Y-9599938D02*
X67535714Y-9647557D01*
X67535714Y-9647557D02*
X67488095Y-9742795D01*
X67488095Y-9742795D02*
X67488095Y-9838033D01*
X67488095Y-9838033D02*
X67535714Y-9980890D01*
X67535714Y-9980890D02*
X68107142Y-10552319D01*
X68107142Y-10552319D02*
X67488095Y-10552319D01*
X61411547Y-10017319D02*
X61744880Y-9541128D01*
X61982975Y-10017319D02*
X61982975Y-9017319D01*
X61982975Y-9017319D02*
X61602023Y-9017319D01*
X61602023Y-9017319D02*
X61506785Y-9064938D01*
X61506785Y-9064938D02*
X61459166Y-9112557D01*
X61459166Y-9112557D02*
X61411547Y-9207795D01*
X61411547Y-9207795D02*
X61411547Y-9350652D01*
X61411547Y-9350652D02*
X61459166Y-9445890D01*
X61459166Y-9445890D02*
X61506785Y-9493509D01*
X61506785Y-9493509D02*
X61602023Y-9541128D01*
X61602023Y-9541128D02*
X61982975Y-9541128D01*
X61030594Y-9112557D02*
X60982975Y-9064938D01*
X60982975Y-9064938D02*
X60887737Y-9017319D01*
X60887737Y-9017319D02*
X60649642Y-9017319D01*
X60649642Y-9017319D02*
X60554404Y-9064938D01*
X60554404Y-9064938D02*
X60506785Y-9112557D01*
X60506785Y-9112557D02*
X60459166Y-9207795D01*
X60459166Y-9207795D02*
X60459166Y-9303033D01*
X60459166Y-9303033D02*
X60506785Y-9445890D01*
X60506785Y-9445890D02*
X61078213Y-10017319D01*
X61078213Y-10017319D02*
X60459166Y-10017319D01*
X60078213Y-9112557D02*
X60030594Y-9064938D01*
X60030594Y-9064938D02*
X59935356Y-9017319D01*
X59935356Y-9017319D02*
X59697261Y-9017319D01*
X59697261Y-9017319D02*
X59602023Y-9064938D01*
X59602023Y-9064938D02*
X59554404Y-9112557D01*
X59554404Y-9112557D02*
X59506785Y-9207795D01*
X59506785Y-9207795D02*
X59506785Y-9303033D01*
X59506785Y-9303033D02*
X59554404Y-9445890D01*
X59554404Y-9445890D02*
X60125832Y-10017319D01*
X60125832Y-10017319D02*
X59506785Y-10017319D01*
X59030594Y-10017319D02*
X58840118Y-10017319D01*
X58840118Y-10017319D02*
X58744880Y-9969700D01*
X58744880Y-9969700D02*
X58697261Y-9922080D01*
X58697261Y-9922080D02*
X58602023Y-9779223D01*
X58602023Y-9779223D02*
X58554404Y-9588747D01*
X58554404Y-9588747D02*
X58554404Y-9207795D01*
X58554404Y-9207795D02*
X58602023Y-9112557D01*
X58602023Y-9112557D02*
X58649642Y-9064938D01*
X58649642Y-9064938D02*
X58744880Y-9017319D01*
X58744880Y-9017319D02*
X58935356Y-9017319D01*
X58935356Y-9017319D02*
X59030594Y-9064938D01*
X59030594Y-9064938D02*
X59078213Y-9112557D01*
X59078213Y-9112557D02*
X59125832Y-9207795D01*
X59125832Y-9207795D02*
X59125832Y-9445890D01*
X59125832Y-9445890D02*
X59078213Y-9541128D01*
X59078213Y-9541128D02*
X59030594Y-9588747D01*
X59030594Y-9588747D02*
X58935356Y-9636366D01*
X58935356Y-9636366D02*
X58744880Y-9636366D01*
X58744880Y-9636366D02*
X58649642Y-9588747D01*
X58649642Y-9588747D02*
X58602023Y-9541128D01*
X58602023Y-9541128D02*
X58554404Y-9445890D01*
X51991547Y-17167319D02*
X52324880Y-16691128D01*
X52562975Y-17167319D02*
X52562975Y-16167319D01*
X52562975Y-16167319D02*
X52182023Y-16167319D01*
X52182023Y-16167319D02*
X52086785Y-16214938D01*
X52086785Y-16214938D02*
X52039166Y-16262557D01*
X52039166Y-16262557D02*
X51991547Y-16357795D01*
X51991547Y-16357795D02*
X51991547Y-16500652D01*
X51991547Y-16500652D02*
X52039166Y-16595890D01*
X52039166Y-16595890D02*
X52086785Y-16643509D01*
X52086785Y-16643509D02*
X52182023Y-16691128D01*
X52182023Y-16691128D02*
X52562975Y-16691128D01*
X51610594Y-16262557D02*
X51562975Y-16214938D01*
X51562975Y-16214938D02*
X51467737Y-16167319D01*
X51467737Y-16167319D02*
X51229642Y-16167319D01*
X51229642Y-16167319D02*
X51134404Y-16214938D01*
X51134404Y-16214938D02*
X51086785Y-16262557D01*
X51086785Y-16262557D02*
X51039166Y-16357795D01*
X51039166Y-16357795D02*
X51039166Y-16453033D01*
X51039166Y-16453033D02*
X51086785Y-16595890D01*
X51086785Y-16595890D02*
X51658213Y-17167319D01*
X51658213Y-17167319D02*
X51039166Y-17167319D01*
X50182023Y-16500652D02*
X50182023Y-17167319D01*
X50420118Y-16119700D02*
X50658213Y-16833985D01*
X50658213Y-16833985D02*
X50039166Y-16833985D01*
X49134404Y-17167319D02*
X49705832Y-17167319D01*
X49420118Y-17167319D02*
X49420118Y-16167319D01*
X49420118Y-16167319D02*
X49515356Y-16310176D01*
X49515356Y-16310176D02*
X49610594Y-16405414D01*
X49610594Y-16405414D02*
X49705832Y-16453033D01*
X56026785Y-29717319D02*
X56026785Y-30526842D01*
X56026785Y-30526842D02*
X55979166Y-30622080D01*
X55979166Y-30622080D02*
X55931547Y-30669700D01*
X55931547Y-30669700D02*
X55836309Y-30717319D01*
X55836309Y-30717319D02*
X55645833Y-30717319D01*
X55645833Y-30717319D02*
X55550595Y-30669700D01*
X55550595Y-30669700D02*
X55502976Y-30622080D01*
X55502976Y-30622080D02*
X55455357Y-30526842D01*
X55455357Y-30526842D02*
X55455357Y-29717319D01*
X55026785Y-29812557D02*
X54979166Y-29764938D01*
X54979166Y-29764938D02*
X54883928Y-29717319D01*
X54883928Y-29717319D02*
X54645833Y-29717319D01*
X54645833Y-29717319D02*
X54550595Y-29764938D01*
X54550595Y-29764938D02*
X54502976Y-29812557D01*
X54502976Y-29812557D02*
X54455357Y-29907795D01*
X54455357Y-29907795D02*
X54455357Y-30003033D01*
X54455357Y-30003033D02*
X54502976Y-30145890D01*
X54502976Y-30145890D02*
X55074404Y-30717319D01*
X55074404Y-30717319D02*
X54455357Y-30717319D01*
X53836309Y-29717319D02*
X53741071Y-29717319D01*
X53741071Y-29717319D02*
X53645833Y-29764938D01*
X53645833Y-29764938D02*
X53598214Y-29812557D01*
X53598214Y-29812557D02*
X53550595Y-29907795D01*
X53550595Y-29907795D02*
X53502976Y-30098271D01*
X53502976Y-30098271D02*
X53502976Y-30336366D01*
X53502976Y-30336366D02*
X53550595Y-30526842D01*
X53550595Y-30526842D02*
X53598214Y-30622080D01*
X53598214Y-30622080D02*
X53645833Y-30669700D01*
X53645833Y-30669700D02*
X53741071Y-30717319D01*
X53741071Y-30717319D02*
X53836309Y-30717319D01*
X53836309Y-30717319D02*
X53931547Y-30669700D01*
X53931547Y-30669700D02*
X53979166Y-30622080D01*
X53979166Y-30622080D02*
X54026785Y-30526842D01*
X54026785Y-30526842D02*
X54074404Y-30336366D01*
X54074404Y-30336366D02*
X54074404Y-30098271D01*
X54074404Y-30098271D02*
X54026785Y-29907795D01*
X54026785Y-29907795D02*
X53979166Y-29812557D01*
X53979166Y-29812557D02*
X53931547Y-29764938D01*
X53931547Y-29764938D02*
X53836309Y-29717319D01*
X52645833Y-30050652D02*
X52645833Y-30717319D01*
X52883928Y-29669700D02*
X53122023Y-30383985D01*
X53122023Y-30383985D02*
X52502976Y-30383985D01*
X48142319Y-26743452D02*
X47666128Y-26410119D01*
X48142319Y-26172024D02*
X47142319Y-26172024D01*
X47142319Y-26172024D02*
X47142319Y-26552976D01*
X47142319Y-26552976D02*
X47189938Y-26648214D01*
X47189938Y-26648214D02*
X47237557Y-26695833D01*
X47237557Y-26695833D02*
X47332795Y-26743452D01*
X47332795Y-26743452D02*
X47475652Y-26743452D01*
X47475652Y-26743452D02*
X47570890Y-26695833D01*
X47570890Y-26695833D02*
X47618509Y-26648214D01*
X47618509Y-26648214D02*
X47666128Y-26552976D01*
X47666128Y-26552976D02*
X47666128Y-26172024D01*
X47237557Y-27124405D02*
X47189938Y-27172024D01*
X47189938Y-27172024D02*
X47142319Y-27267262D01*
X47142319Y-27267262D02*
X47142319Y-27505357D01*
X47142319Y-27505357D02*
X47189938Y-27600595D01*
X47189938Y-27600595D02*
X47237557Y-27648214D01*
X47237557Y-27648214D02*
X47332795Y-27695833D01*
X47332795Y-27695833D02*
X47428033Y-27695833D01*
X47428033Y-27695833D02*
X47570890Y-27648214D01*
X47570890Y-27648214D02*
X48142319Y-27076786D01*
X48142319Y-27076786D02*
X48142319Y-27695833D01*
X47142319Y-28029167D02*
X47142319Y-28648214D01*
X47142319Y-28648214D02*
X47523271Y-28314881D01*
X47523271Y-28314881D02*
X47523271Y-28457738D01*
X47523271Y-28457738D02*
X47570890Y-28552976D01*
X47570890Y-28552976D02*
X47618509Y-28600595D01*
X47618509Y-28600595D02*
X47713747Y-28648214D01*
X47713747Y-28648214D02*
X47951842Y-28648214D01*
X47951842Y-28648214D02*
X48047080Y-28600595D01*
X48047080Y-28600595D02*
X48094700Y-28552976D01*
X48094700Y-28552976D02*
X48142319Y-28457738D01*
X48142319Y-28457738D02*
X48142319Y-28172024D01*
X48142319Y-28172024D02*
X48094700Y-28076786D01*
X48094700Y-28076786D02*
X48047080Y-28029167D01*
X47237557Y-29029167D02*
X47189938Y-29076786D01*
X47189938Y-29076786D02*
X47142319Y-29172024D01*
X47142319Y-29172024D02*
X47142319Y-29410119D01*
X47142319Y-29410119D02*
X47189938Y-29505357D01*
X47189938Y-29505357D02*
X47237557Y-29552976D01*
X47237557Y-29552976D02*
X47332795Y-29600595D01*
X47332795Y-29600595D02*
X47428033Y-29600595D01*
X47428033Y-29600595D02*
X47570890Y-29552976D01*
X47570890Y-29552976D02*
X48142319Y-28981548D01*
X48142319Y-28981548D02*
X48142319Y-29600595D01*
X70751785Y-26077319D02*
X70751785Y-26886842D01*
X70751785Y-26886842D02*
X70704166Y-26982080D01*
X70704166Y-26982080D02*
X70656547Y-27029700D01*
X70656547Y-27029700D02*
X70561309Y-27077319D01*
X70561309Y-27077319D02*
X70370833Y-27077319D01*
X70370833Y-27077319D02*
X70275595Y-27029700D01*
X70275595Y-27029700D02*
X70227976Y-26982080D01*
X70227976Y-26982080D02*
X70180357Y-26886842D01*
X70180357Y-26886842D02*
X70180357Y-26077319D01*
X69180357Y-27077319D02*
X69751785Y-27077319D01*
X69466071Y-27077319D02*
X69466071Y-26077319D01*
X69466071Y-26077319D02*
X69561309Y-26220176D01*
X69561309Y-26220176D02*
X69656547Y-26315414D01*
X69656547Y-26315414D02*
X69751785Y-26363033D01*
X68561309Y-26077319D02*
X68466071Y-26077319D01*
X68466071Y-26077319D02*
X68370833Y-26124938D01*
X68370833Y-26124938D02*
X68323214Y-26172557D01*
X68323214Y-26172557D02*
X68275595Y-26267795D01*
X68275595Y-26267795D02*
X68227976Y-26458271D01*
X68227976Y-26458271D02*
X68227976Y-26696366D01*
X68227976Y-26696366D02*
X68275595Y-26886842D01*
X68275595Y-26886842D02*
X68323214Y-26982080D01*
X68323214Y-26982080D02*
X68370833Y-27029700D01*
X68370833Y-27029700D02*
X68466071Y-27077319D01*
X68466071Y-27077319D02*
X68561309Y-27077319D01*
X68561309Y-27077319D02*
X68656547Y-27029700D01*
X68656547Y-27029700D02*
X68704166Y-26982080D01*
X68704166Y-26982080D02*
X68751785Y-26886842D01*
X68751785Y-26886842D02*
X68799404Y-26696366D01*
X68799404Y-26696366D02*
X68799404Y-26458271D01*
X68799404Y-26458271D02*
X68751785Y-26267795D01*
X68751785Y-26267795D02*
X68704166Y-26172557D01*
X68704166Y-26172557D02*
X68656547Y-26124938D01*
X68656547Y-26124938D02*
X68561309Y-26077319D01*
X67275595Y-27077319D02*
X67847023Y-27077319D01*
X67561309Y-27077319D02*
X67561309Y-26077319D01*
X67561309Y-26077319D02*
X67656547Y-26220176D01*
X67656547Y-26220176D02*
X67751785Y-26315414D01*
X67751785Y-26315414D02*
X67847023Y-26363033D01*
D11*
%TO.C,TP104*%
X43950000Y-37350000D02*
G75*
G03*
X43950000Y-37350000I-700000J0D01*
G01*
%TO.C,TP103*%
X30575000Y-42350000D02*
G75*
G03*
X30575000Y-42350000I-700000J0D01*
G01*
%TO.C,TP102*%
X75225000Y-42900000D02*
G75*
G03*
X75225000Y-42900000I-700000J0D01*
G01*
%TO.C,TP101*%
X70775000Y-5400000D02*
G75*
G03*
X70775000Y-5400000I-700000J0D01*
G01*
%TO.C,R230*%
X58592500Y-10792500D02*
X61992500Y-10792500D01*
X58592500Y-12792500D02*
X58592500Y-10792500D01*
X61992500Y-10792500D02*
X61992500Y-12792500D01*
X61992500Y-12792500D02*
X58592500Y-12792500D01*
%TO.C,C102*%
X65665000Y-8558752D02*
X65665000Y-8036248D01*
X67135000Y-8558752D02*
X67135000Y-8036248D01*
%TO.C,R242*%
X65387500Y-37187500D02*
X68787500Y-37187500D01*
X65387500Y-39187500D02*
X65387500Y-37187500D01*
X68787500Y-37187500D02*
X68787500Y-39187500D01*
X68787500Y-39187500D02*
X65387500Y-39187500D01*
%TO.C,R228*%
X58572500Y-14452500D02*
X61972500Y-14452500D01*
X58572500Y-16452500D02*
X58572500Y-14452500D01*
X61972500Y-14452500D02*
X61972500Y-16452500D01*
X61972500Y-16452500D02*
X58572500Y-16452500D01*
%TO.C,R233*%
X58592500Y-23092500D02*
X58592500Y-19692500D01*
X60592500Y-23092500D02*
X58592500Y-23092500D01*
X58592500Y-19692500D02*
X60592500Y-19692500D01*
X60592500Y-19692500D02*
X60592500Y-23092500D01*
%TO.C,C218*%
X53157500Y-18213752D02*
X53157500Y-17691248D01*
X54627500Y-18213752D02*
X54627500Y-17691248D01*
%TO.C,C103*%
X72635000Y-34736247D02*
X72635000Y-35258751D01*
X71165000Y-34736247D02*
X71165000Y-35258751D01*
%TO.C,C215*%
X48291248Y-23817500D02*
X48813752Y-23817500D01*
X48291248Y-25287500D02*
X48813752Y-25287500D01*
%TO.C,C104*%
X65415000Y-25458752D02*
X65415000Y-24936248D01*
X66885000Y-25458752D02*
X66885000Y-24936248D01*
%TO.C,C217*%
X61027500Y-31261248D02*
X61027500Y-31783752D01*
X59557500Y-31261248D02*
X59557500Y-31783752D01*
%TO.C,R238*%
X50162500Y-36787500D02*
X46762500Y-36787500D01*
X50162500Y-34787500D02*
X50162500Y-36787500D01*
X46762500Y-36787500D02*
X46762500Y-34787500D01*
X46762500Y-34787500D02*
X50162500Y-34787500D01*
%TO.C,R239*%
X50192500Y-33322500D02*
X46792500Y-33322500D01*
X50192500Y-31322500D02*
X50192500Y-33322500D01*
X46792500Y-33322500D02*
X46792500Y-31322500D01*
X46792500Y-31322500D02*
X50192500Y-31322500D01*
%TO.C,R240*%
X48287500Y-23262500D02*
X48287500Y-19862500D01*
X50287500Y-23262500D02*
X48287500Y-23262500D01*
X48287500Y-19862500D02*
X50287500Y-19862500D01*
X50287500Y-19862500D02*
X50287500Y-23262500D01*
%TO.C,C101*%
X72835000Y-18386248D02*
X72835000Y-18908752D01*
X71365000Y-18386248D02*
X71365000Y-18908752D01*
%TO.C,U205*%
X50927500Y-35372500D02*
X50927500Y-37572500D01*
X50927500Y-35372500D02*
X50927500Y-33172500D01*
X57697500Y-35372500D02*
X57697500Y-38972500D01*
X57697500Y-35372500D02*
X57697500Y-33172500D01*
%TO.C,R231*%
X45422500Y-16322500D02*
X48822500Y-16322500D01*
X45422500Y-18322500D02*
X45422500Y-16322500D01*
X48822500Y-16322500D02*
X48822500Y-18322500D01*
X48822500Y-18322500D02*
X45422500Y-18322500D01*
%TO.C,C216*%
X60293752Y-25307500D02*
X59771248Y-25307500D01*
X60293752Y-23837500D02*
X59771248Y-23837500D01*
%TO.C,R237*%
X50162500Y-40312500D02*
X46762500Y-40312500D01*
X50162500Y-38312500D02*
X50162500Y-40312500D01*
X46762500Y-40312500D02*
X46762500Y-38312500D01*
X46762500Y-38312500D02*
X50162500Y-38312500D01*
%TO.C,U203*%
X57697500Y-12112501D02*
X57697500Y-9912501D01*
X57697500Y-12112501D02*
X57697500Y-14312501D01*
X50927500Y-12112501D02*
X50927500Y-8512501D01*
X50927500Y-12112501D02*
X50927500Y-14312501D01*
%TO.C,U102*%
X69250000Y-16282500D02*
X71450000Y-16282500D01*
X69250000Y-16282500D02*
X67050000Y-16282500D01*
X69250000Y-10812500D02*
X72850000Y-10812500D01*
X69250000Y-10812500D02*
X67050000Y-10812500D01*
%TO.C,R229*%
X58592500Y-6862500D02*
X61992500Y-6862500D01*
X58592500Y-8862500D02*
X58592500Y-6862500D01*
X61992500Y-6862500D02*
X61992500Y-8862500D01*
X61992500Y-8862500D02*
X58592500Y-8862500D01*
%TO.C,R241*%
X49172500Y-17462500D02*
X52572500Y-17462500D01*
X49172500Y-19462500D02*
X49172500Y-17462500D01*
X52572500Y-17462500D02*
X52572500Y-19462500D01*
X52572500Y-19462500D02*
X49172500Y-19462500D01*
%TO.C,U204*%
X54312500Y-20127500D02*
X52362500Y-20127500D01*
X54312500Y-20127500D02*
X56262500Y-20127500D01*
X54312500Y-28997500D02*
X50862500Y-28997500D01*
X54312500Y-28997500D02*
X56262500Y-28997500D01*
%TO.C,R232*%
X50387500Y-26162500D02*
X50387500Y-29562500D01*
X48387500Y-26162500D02*
X50387500Y-26162500D01*
X50387500Y-29562500D02*
X48387500Y-29562500D01*
X48387500Y-29562500D02*
X48387500Y-26162500D01*
%TO.C,U101*%
X69037500Y-32807500D02*
X71237500Y-32807500D01*
X69037500Y-32807500D02*
X66837500Y-32807500D01*
X69037500Y-27337500D02*
X72637500Y-27337500D01*
X69037500Y-27337500D02*
X66837500Y-27337500D01*
%TD*%
M02*
