%TF.GenerationSoftware,KiCad,Pcbnew,7.0.7*%
%TF.CreationDate,2024-06-06T22:47:17-06:00*%
%TF.ProjectId,VoiceBoardR2,566f6963-6542-46f6-9172-6452322e6b69,rev?*%
%TF.SameCoordinates,Original*%
%TF.FileFunction,Copper,L1,Top*%
%TF.FilePolarity,Positive*%
%FSLAX46Y46*%
G04 Gerber Fmt 4.6, Leading zero omitted, Abs format (unit mm)*
G04 Created by KiCad (PCBNEW 7.0.7) date 2024-06-06 22:47:17*
%MOMM*%
%LPD*%
G01*
G04 APERTURE LIST*
G04 Aperture macros list*
%AMRoundRect*
0 Rectangle with rounded corners*
0 $1 Rounding radius*
0 $2 $3 $4 $5 $6 $7 $8 $9 X,Y pos of 4 corners*
0 Add a 4 corners polygon primitive as box body*
4,1,4,$2,$3,$4,$5,$6,$7,$8,$9,$2,$3,0*
0 Add four circle primitives for the rounded corners*
1,1,$1+$1,$2,$3*
1,1,$1+$1,$4,$5*
1,1,$1+$1,$6,$7*
1,1,$1+$1,$8,$9*
0 Add four rect primitives between the rounded corners*
20,1,$1+$1,$2,$3,$4,$5,0*
20,1,$1+$1,$4,$5,$6,$7,0*
20,1,$1+$1,$6,$7,$8,$9,0*
20,1,$1+$1,$8,$9,$2,$3,0*%
G04 Aperture macros list end*
%TA.AperFunction,SMDPad,CuDef*%
%ADD10RoundRect,0.250000X-0.262500X-0.450000X0.262500X-0.450000X0.262500X0.450000X-0.262500X0.450000X0*%
%TD*%
%TA.AperFunction,SMDPad,CuDef*%
%ADD11RoundRect,0.250000X0.262500X0.450000X-0.262500X0.450000X-0.262500X-0.450000X0.262500X-0.450000X0*%
%TD*%
%TA.AperFunction,SMDPad,CuDef*%
%ADD12RoundRect,0.250000X-0.475000X0.250000X-0.475000X-0.250000X0.475000X-0.250000X0.475000X0.250000X0*%
%TD*%
%TA.AperFunction,SMDPad,CuDef*%
%ADD13RoundRect,0.150000X0.150000X-0.825000X0.150000X0.825000X-0.150000X0.825000X-0.150000X-0.825000X0*%
%TD*%
%TA.AperFunction,SMDPad,CuDef*%
%ADD14RoundRect,0.250000X0.475000X-0.250000X0.475000X0.250000X-0.475000X0.250000X-0.475000X-0.250000X0*%
%TD*%
%TA.AperFunction,SMDPad,CuDef*%
%ADD15RoundRect,0.250000X0.450000X-0.262500X0.450000X0.262500X-0.450000X0.262500X-0.450000X-0.262500X0*%
%TD*%
%TA.AperFunction,SMDPad,CuDef*%
%ADD16RoundRect,0.200000X0.200000X-0.250000X0.200000X0.250000X-0.200000X0.250000X-0.200000X-0.250000X0*%
%TD*%
%TA.AperFunction,SMDPad,CuDef*%
%ADD17RoundRect,0.200000X-0.250000X-0.200000X0.250000X-0.200000X0.250000X0.200000X-0.250000X0.200000X0*%
%TD*%
%TA.AperFunction,SMDPad,CuDef*%
%ADD18RoundRect,0.250000X-0.450000X0.262500X-0.450000X-0.262500X0.450000X-0.262500X0.450000X0.262500X0*%
%TD*%
%TA.AperFunction,SMDPad,CuDef*%
%ADD19RoundRect,0.250000X0.250000X0.475000X-0.250000X0.475000X-0.250000X-0.475000X0.250000X-0.475000X0*%
%TD*%
%TA.AperFunction,SMDPad,CuDef*%
%ADD20RoundRect,0.250000X-0.250000X-0.475000X0.250000X-0.475000X0.250000X0.475000X-0.250000X0.475000X0*%
%TD*%
%TA.AperFunction,SMDPad,CuDef*%
%ADD21RoundRect,0.150000X-0.825000X-0.150000X0.825000X-0.150000X0.825000X0.150000X-0.825000X0.150000X0*%
%TD*%
%TA.AperFunction,ComponentPad*%
%ADD22R,1.700000X1.700000*%
%TD*%
%TA.AperFunction,ComponentPad*%
%ADD23O,1.700000X1.700000*%
%TD*%
%TA.AperFunction,SMDPad,CuDef*%
%ADD24RoundRect,0.243750X0.243750X0.456250X-0.243750X0.456250X-0.243750X-0.456250X0.243750X-0.456250X0*%
%TD*%
%TA.AperFunction,SMDPad,CuDef*%
%ADD25R,0.650000X0.400000*%
%TD*%
%TA.AperFunction,SMDPad,CuDef*%
%ADD26RoundRect,0.243750X0.456250X-0.243750X0.456250X0.243750X-0.456250X0.243750X-0.456250X-0.243750X0*%
%TD*%
%TA.AperFunction,SMDPad,CuDef*%
%ADD27RoundRect,0.200000X-0.200000X0.250000X-0.200000X-0.250000X0.200000X-0.250000X0.200000X0.250000X0*%
%TD*%
%TA.AperFunction,SMDPad,CuDef*%
%ADD28RoundRect,0.243750X-0.456250X0.243750X-0.456250X-0.243750X0.456250X-0.243750X0.456250X0.243750X0*%
%TD*%
%TA.AperFunction,ViaPad*%
%ADD29C,0.800000*%
%TD*%
%TA.AperFunction,ViaPad*%
%ADD30C,1.000000*%
%TD*%
%TA.AperFunction,ViaPad*%
%ADD31C,0.650000*%
%TD*%
%TA.AperFunction,Conductor*%
%ADD32C,0.220000*%
%TD*%
%TA.AperFunction,Conductor*%
%ADD33C,0.180000*%
%TD*%
%TA.AperFunction,Conductor*%
%ADD34C,0.200000*%
%TD*%
%TA.AperFunction,Conductor*%
%ADD35C,0.300000*%
%TD*%
%TA.AperFunction,Conductor*%
%ADD36C,0.250000*%
%TD*%
G04 APERTURE END LIST*
D10*
%TO.P,R402,1*%
%TO.N,FOLD_CV*%
X114850000Y-45212500D03*
%TO.P,R402,2*%
%TO.N,Net-(U404C--)*%
X116675000Y-45212500D03*
%TD*%
D11*
%TO.P,R410,1*%
%TO.N,Net-(R409-Pad1)*%
X102825000Y-6562500D03*
%TO.P,R410,2*%
%TO.N,Net-(U403B-+)*%
X101000000Y-6562500D03*
%TD*%
D12*
%TO.P,C210,1*%
%TO.N,Net-(C209-Pad2)*%
X17737500Y-30237500D03*
%TO.P,C210,2*%
%TO.N,Net-(C210-Pad2)*%
X17737500Y-32137500D03*
%TD*%
D11*
%TO.P,R303,1*%
%TO.N,Net-(Q301-B)*%
X76495000Y-5812500D03*
%TO.P,R303,2*%
%TO.N,CUTOFF_CV*%
X74670000Y-5812500D03*
%TD*%
D13*
%TO.P,U402,1*%
%TO.N,Net-(R424-Pad1)*%
X105567500Y-25192500D03*
%TO.P,U402,2,DIODE_BIAS*%
%TO.N,unconnected-(U402C-DIODE_BIAS-Pad2)*%
X106837500Y-25192500D03*
%TO.P,U402,3,+*%
%TO.N,Net-(U402C-+)*%
X108107500Y-25192500D03*
%TO.P,U402,4,-*%
%TO.N,Net-(U402C--)*%
X109377500Y-25192500D03*
%TO.P,U402,5*%
%TO.N,Net-(U404B--)*%
X110647500Y-25192500D03*
%TO.P,U402,6,V-*%
%TO.N,-12V*%
X111917500Y-25192500D03*
%TO.P,U402,7*%
%TO.N,unconnected-(U402-Pad7)*%
X113187500Y-25192500D03*
%TO.P,U402,8*%
%TO.N,unconnected-(U402-Pad8)*%
X114457500Y-25192500D03*
%TO.P,U402,9*%
%TO.N,unconnected-(U402-Pad9)*%
X114457500Y-20242500D03*
%TO.P,U402,10*%
%TO.N,unconnected-(U402-Pad10)*%
X113187500Y-20242500D03*
%TO.P,U402,11,V+*%
%TO.N,+12V*%
X111917500Y-20242500D03*
%TO.P,U402,12*%
%TO.N,Net-(U403A--)*%
X110647500Y-20242500D03*
%TO.P,U402,13,-*%
%TO.N,Net-(U402A--)*%
X109377500Y-20242500D03*
%TO.P,U402,14,+*%
%TO.N,Net-(U402A-+)*%
X108107500Y-20242500D03*
%TO.P,U402,15,DIODE_BIAS*%
%TO.N,unconnected-(U402A-DIODE_BIAS-Pad15)*%
X106837500Y-20242500D03*
%TO.P,U402,16*%
%TO.N,Net-(R408-Pad1)*%
X105567500Y-20242500D03*
%TD*%
D14*
%TO.P,C212,1*%
%TO.N,GND*%
X10202500Y-32132500D03*
%TO.P,C212,2*%
%TO.N,+12V*%
X10202500Y-30232500D03*
%TD*%
D15*
%TO.P,R314,1*%
%TO.N,GND*%
X82287500Y-37762500D03*
%TO.P,R314,2*%
%TO.N,Net-(U303C-+)*%
X82287500Y-35937500D03*
%TD*%
D14*
%TO.P,C209,1*%
%TO.N,Net-(Q202-E)*%
X14962500Y-32132500D03*
%TO.P,C209,2*%
%TO.N,Net-(C209-Pad2)*%
X14962500Y-30232500D03*
%TD*%
D10*
%TO.P,R222,1*%
%TO.N,Net-(U202C--)*%
X14240000Y-19632500D03*
%TO.P,R222,2*%
%TO.N,Net-(D203-K)*%
X16065000Y-19632500D03*
%TD*%
D11*
%TO.P,R417,1*%
%TO.N,-12V*%
X125660000Y-6217500D03*
%TO.P,R417,2*%
%TO.N,Net-(Q405-E)*%
X123835000Y-6217500D03*
%TD*%
D15*
%TO.P,R426,1*%
%TO.N,GND*%
X104112500Y-29425000D03*
%TO.P,R426,2*%
%TO.N,Net-(U402C-+)*%
X104112500Y-27600000D03*
%TD*%
D10*
%TO.P,R220,1*%
%TO.N,TRI2_FULL*%
X14240000Y-16082500D03*
%TO.P,R220,2*%
%TO.N,GND*%
X16065000Y-16082500D03*
%TD*%
D16*
%TO.P,Q404,1,B*%
%TO.N,Net-(Q404-B)*%
X120012500Y-11362500D03*
%TO.P,Q404,2,E*%
%TO.N,Net-(Q404-E)*%
X121912500Y-11362500D03*
%TO.P,Q404,3,C*%
%TO.N,Net-(Q404-C)*%
X120962500Y-9362500D03*
%TD*%
D11*
%TO.P,R210,1*%
%TO.N,Net-(U201C--)*%
X39175000Y-18812500D03*
%TO.P,R210,2*%
%TO.N,Net-(D201-K)*%
X37350000Y-18812500D03*
%TD*%
D15*
%TO.P,R422,1*%
%TO.N,Net-(Q406-E)*%
X99087500Y-33475000D03*
%TO.P,R422,2*%
%TO.N,GND*%
X99087500Y-31650000D03*
%TD*%
D17*
%TO.P,Q202,1,B*%
%TO.N,Net-(Q202-B)*%
X20052500Y-29732500D03*
%TO.P,Q202,2,E*%
%TO.N,Net-(Q202-E)*%
X20052500Y-31632500D03*
%TO.P,Q202,3,C*%
%TO.N,Net-(Q202-C)*%
X22052500Y-30682500D03*
%TD*%
D18*
%TO.P,R226,1*%
%TO.N,PULSE1_FULL*%
X35292500Y-8175000D03*
%TO.P,R226,2*%
%TO.N,GND*%
X35292500Y-10000000D03*
%TD*%
D15*
%TO.P,R415,1*%
%TO.N,Net-(Q404-B)*%
X116412500Y-14025000D03*
%TO.P,R415,2*%
%TO.N,Net-(U403C--)*%
X116412500Y-12200000D03*
%TD*%
D10*
%TO.P,R213,1*%
%TO.N,Net-(Q202-B)*%
X20135000Y-35787500D03*
%TO.P,R213,2*%
%TO.N,Net-(C208-Pad2)*%
X21960000Y-35787500D03*
%TD*%
D14*
%TO.P,C203,1*%
%TO.N,Net-(C201-Pad2)*%
X31202500Y-32132500D03*
%TO.P,C203,2*%
%TO.N,Net-(C203-Pad2)*%
X31202500Y-30232500D03*
%TD*%
D19*
%TO.P,C307,1*%
%TO.N,Net-(U301B-+)*%
X78227500Y-25347500D03*
%TO.P,C307,2*%
%TO.N,HP_IN*%
X76327500Y-25347500D03*
%TD*%
D10*
%TO.P,R423,1*%
%TO.N,VCA_CV*%
X99925000Y-41337500D03*
%TO.P,R423,2*%
%TO.N,Net-(U404A--)*%
X101750000Y-41337500D03*
%TD*%
D14*
%TO.P,C206,1*%
%TO.N,GND*%
X33402500Y-32132500D03*
%TO.P,C206,2*%
%TO.N,+12V*%
X33402500Y-30232500D03*
%TD*%
D15*
%TO.P,R313,1*%
%TO.N,GND*%
X87837500Y-37775000D03*
%TO.P,R313,2*%
%TO.N,Net-(U303C--)*%
X87837500Y-35950000D03*
%TD*%
D11*
%TO.P,R211,1*%
%TO.N,GND*%
X41215000Y-22882500D03*
%TO.P,R211,2*%
%TO.N,Net-(U201C--)*%
X39390000Y-22882500D03*
%TD*%
D20*
%TO.P,C407,1*%
%TO.N,+12V*%
X114812500Y-9937500D03*
%TO.P,C407,2*%
%TO.N,GND*%
X116712500Y-9937500D03*
%TD*%
D21*
%TO.P,U404,1*%
%TO.N,Net-(Q406-B)*%
X107912500Y-35302500D03*
%TO.P,U404,2,-*%
%TO.N,Net-(U404A--)*%
X107912500Y-36572500D03*
%TO.P,U404,3,+*%
%TO.N,GND*%
X107912500Y-37842500D03*
%TO.P,U404,4,V+*%
%TO.N,+12V*%
X107912500Y-39112500D03*
%TO.P,U404,5,+*%
%TO.N,GND*%
X107912500Y-40382500D03*
%TO.P,U404,6,-*%
%TO.N,Net-(U404B--)*%
X107912500Y-41652500D03*
%TO.P,U404,7*%
%TO.N,Net-(R425-Pad2)*%
X107912500Y-42922500D03*
%TO.P,U404,8*%
%TO.N,Net-(Q401-B)*%
X112862500Y-42922500D03*
%TO.P,U404,9,-*%
%TO.N,Net-(U404C--)*%
X112862500Y-41652500D03*
%TO.P,U404,10,+*%
%TO.N,GND*%
X112862500Y-40382500D03*
%TO.P,U404,11,V-*%
%TO.N,-12V*%
X112862500Y-39112500D03*
%TO.P,U404,12,+*%
%TO.N,GND*%
X112862500Y-37842500D03*
%TO.P,U404,13,-*%
%TO.N,unconnected-(U404D---Pad13)*%
X112862500Y-36572500D03*
%TO.P,U404,14*%
%TO.N,unconnected-(U404-Pad14)*%
X112862500Y-35302500D03*
%TD*%
D20*
%TO.P,C406,1*%
%TO.N,FOLDER_IN*%
X96762500Y-23412500D03*
%TO.P,C406,2*%
%TO.N,Net-(C406-Pad2)*%
X98662500Y-23412500D03*
%TD*%
D15*
%TO.P,R302,1*%
%TO.N,-12V*%
X78762500Y-18865000D03*
%TO.P,R302,2*%
%TO.N,Net-(Q301-C)*%
X78762500Y-17040000D03*
%TD*%
D11*
%TO.P,R218,1*%
%TO.N,Net-(U202D--)*%
X7765000Y-20432500D03*
%TO.P,R218,2*%
%TO.N,Net-(R218-Pad2)*%
X5940000Y-20432500D03*
%TD*%
D20*
%TO.P,C211,1*%
%TO.N,Net-(D203-K)*%
X10052500Y-16082500D03*
%TO.P,C211,2*%
%TO.N,TRI2_FULL*%
X11952500Y-16082500D03*
%TD*%
D10*
%TO.P,R430,1*%
%TO.N,Net-(R420-Pad2)*%
X108550000Y-2612500D03*
%TO.P,R430,2*%
%TO.N,Net-(R418-Pad1)*%
X110375000Y-2612500D03*
%TD*%
D15*
%TO.P,R235,1*%
%TO.N,Net-(R202-Pad2)*%
X27247500Y-13905000D03*
%TO.P,R235,2*%
%TO.N,Net-(D201-K)*%
X27247500Y-12080000D03*
%TD*%
%TO.P,R225,1*%
%TO.N,Net-(C204-Pad2)*%
X32892500Y-10000000D03*
%TO.P,R225,2*%
%TO.N,PULSE1_FULL*%
X32892500Y-8175000D03*
%TD*%
D19*
%TO.P,C403,1*%
%TO.N,+12V*%
X105662500Y-40512500D03*
%TO.P,C403,2*%
%TO.N,GND*%
X103762500Y-40512500D03*
%TD*%
D15*
%TO.P,R203,1*%
%TO.N,LEVEL_1_CV*%
X35662500Y-32075000D03*
%TO.P,R203,2*%
%TO.N,Net-(Q201-E)*%
X35662500Y-30250000D03*
%TD*%
D12*
%TO.P,C219,1*%
%TO.N,GND*%
X24042500Y-6912500D03*
%TO.P,C219,2*%
%TO.N,+12V*%
X24042500Y-8812500D03*
%TD*%
D16*
%TO.P,Q401,1,B*%
%TO.N,Net-(Q401-B)*%
X124050000Y-39987500D03*
%TO.P,Q401,2,E*%
%TO.N,Net-(Q401-E)*%
X125950000Y-39987500D03*
%TO.P,Q401,3,C*%
%TO.N,Net-(Q401-C)*%
X125000000Y-37987500D03*
%TD*%
D17*
%TO.P,Q201,1,B*%
%TO.N,Net-(Q201-B)*%
X43252500Y-29732500D03*
%TO.P,Q201,2,E*%
%TO.N,Net-(Q201-E)*%
X43252500Y-31632500D03*
%TO.P,Q201,3,C*%
%TO.N,Net-(Q201-C)*%
X45252500Y-30682500D03*
%TD*%
D15*
%TO.P,R427,1*%
%TO.N,GND*%
X108462500Y-29425000D03*
%TO.P,R427,2*%
%TO.N,Net-(U402C--)*%
X108462500Y-27600000D03*
%TD*%
D14*
%TO.P,C404,1*%
%TO.N,-12V*%
X115187500Y-38737500D03*
%TO.P,C404,2*%
%TO.N,GND*%
X115187500Y-36837500D03*
%TD*%
D13*
%TO.P,U202,1*%
%TO.N,Net-(U202A--)*%
X6392500Y-27857500D03*
%TO.P,U202,2,-*%
X7662500Y-27857500D03*
%TO.P,U202,3,+*%
%TO.N,SAW2_FULL*%
X8932500Y-27857500D03*
%TO.P,U202,4,V+*%
%TO.N,+12V*%
X10202500Y-27857500D03*
%TO.P,U202,5,+*%
%TO.N,GND*%
X11472500Y-27857500D03*
%TO.P,U202,6,-*%
%TO.N,Net-(Q202-E)*%
X12742500Y-27857500D03*
%TO.P,U202,7*%
%TO.N,Net-(C209-Pad2)*%
X14012500Y-27857500D03*
%TO.P,U202,8*%
%TO.N,Net-(D203-A)*%
X14012500Y-22907500D03*
%TO.P,U202,9,-*%
%TO.N,Net-(U202C--)*%
X12742500Y-22907500D03*
%TO.P,U202,10,+*%
%TO.N,Net-(U202A--)*%
X11472500Y-22907500D03*
%TO.P,U202,11,V-*%
%TO.N,-12V*%
X10202500Y-22907500D03*
%TO.P,U202,12,+*%
%TO.N,GND*%
X8932500Y-22907500D03*
%TO.P,U202,13,-*%
%TO.N,Net-(U202D--)*%
X7662500Y-22907500D03*
%TO.P,U202,14*%
%TO.N,Net-(D204-A)*%
X6392500Y-22907500D03*
%TD*%
D12*
%TO.P,C301,1*%
%TO.N,Net-(C301-Pad1)*%
X82987500Y-11327500D03*
%TO.P,C301,2*%
%TO.N,Net-(Q301-C)*%
X82987500Y-13227500D03*
%TD*%
D20*
%TO.P,C413,1*%
%TO.N,Net-(U404A--)*%
X94537500Y-39662500D03*
%TO.P,C413,2*%
%TO.N,Net-(Q406-B)*%
X96437500Y-39662500D03*
%TD*%
D10*
%TO.P,R209,1*%
%TO.N,TRI1_FULL*%
X37590000Y-15832500D03*
%TO.P,R209,2*%
%TO.N,GND*%
X39415000Y-15832500D03*
%TD*%
%TO.P,R204,1*%
%TO.N,Net-(C201-Pad2)*%
X39390000Y-28382500D03*
%TO.P,R204,2*%
%TO.N,Net-(Q201-C)*%
X41215000Y-28382500D03*
%TD*%
D18*
%TO.P,R424,1*%
%TO.N,Net-(R424-Pad1)*%
X99187500Y-27600000D03*
%TO.P,R424,2*%
%TO.N,Net-(Q406-C)*%
X99187500Y-29425000D03*
%TD*%
D12*
%TO.P,C308,1*%
%TO.N,+12V*%
X83002500Y-14977500D03*
%TO.P,C308,2*%
%TO.N,GND*%
X83002500Y-16877500D03*
%TD*%
D10*
%TO.P,R301,1*%
%TO.N,Net-(Q301-E)*%
X78775000Y-9352500D03*
%TO.P,R301,2*%
%TO.N,Net-(C301-Pad1)*%
X80600000Y-9352500D03*
%TD*%
%TO.P,R219,1*%
%TO.N,-12V*%
X5940000Y-13832500D03*
%TO.P,R219,2*%
%TO.N,Net-(D203-K)*%
X7765000Y-13832500D03*
%TD*%
D22*
%TO.P,U103,1,SDA*%
%TO.N,SDA*%
X43437500Y-47887500D03*
D23*
%TO.P,U103,2,LVL1*%
%TO.N,LEVEL_1_CV*%
X43437500Y-45347500D03*
%TO.P,U103,3,SCL*%
%TO.N,SCL*%
X45977500Y-47887500D03*
%TO.P,U103,4,LVL2*%
%TO.N,LEVEL_2_CV*%
X45977500Y-45347500D03*
%TO.P,U103,5,CLK1*%
%TO.N,CLK_1*%
X48517500Y-47887500D03*
%TO.P,U103,6,PWM1*%
%TO.N,PWM_1_CV*%
X48517500Y-45347500D03*
%TO.P,U103,7,CLK2*%
%TO.N,CLK_2*%
X51057500Y-47887500D03*
%TO.P,U103,8,PWM2*%
%TO.N,PWM_2_CV*%
X51057500Y-45347500D03*
%TO.P,U103,9,HP*%
%TO.N,HP_MODE*%
X53597500Y-47887500D03*
%TO.P,U103,10,FOLD*%
%TO.N,FOLD_CV*%
X53597500Y-45347500D03*
%TO.P,U103,11,FF*%
%TO.N,FOLD_FIRST*%
X56137500Y-47887500D03*
%TO.P,U103,12,VCF*%
%TO.N,CUTOFF_CV*%
X56137500Y-45347500D03*
%TO.P,U103,13,OUT*%
%TO.N,VCA_OUT*%
X58677500Y-47887500D03*
%TO.P,U103,14,VCA*%
%TO.N,VCA_CV*%
X58677500Y-45347500D03*
%TO.P,U103,15,+3V3*%
%TO.N,+3.3V*%
X61217500Y-47887500D03*
%TO.P,U103,16,GND*%
%TO.N,GND*%
X61217500Y-45347500D03*
%TO.P,U103,17,+12V*%
%TO.N,+12V*%
X63757500Y-47887500D03*
%TO.P,U103,18,-12V*%
%TO.N,-12V*%
X63757500Y-45347500D03*
%TD*%
D24*
%TO.P,D203,1,K*%
%TO.N,Net-(D203-K)*%
X7740000Y-16082500D03*
%TO.P,D203,2,A*%
%TO.N,Net-(D203-A)*%
X5865000Y-16082500D03*
%TD*%
D25*
%TO.P,U304,1,VDD*%
%TO.N,+3.3V*%
X88312500Y-6752500D03*
%TO.P,U304,2,VSS*%
%TO.N,GND*%
X88312500Y-7402500D03*
%TO.P,U304,3,SCL*%
%TO.N,SCL*%
X88312500Y-8052500D03*
%TO.P,U304,4,SDA*%
%TO.N,SDA*%
X90212500Y-8052500D03*
%TO.P,U304,5,W*%
%TO.N,Net-(U301D-+)*%
X90212500Y-7402500D03*
%TO.P,U304,6,A*%
%TO.N,FILTER_OUT*%
X90212500Y-6752500D03*
%TD*%
D26*
%TO.P,D302,1,K*%
%TO.N,Net-(D301-A)*%
X96637500Y-12740000D03*
%TO.P,D302,2,A*%
%TO.N,Net-(D301-K)*%
X96637500Y-10865000D03*
%TD*%
D14*
%TO.P,C220,1*%
%TO.N,GND*%
X18467500Y-18037500D03*
%TO.P,C220,2*%
%TO.N,-12V*%
X18467500Y-16137500D03*
%TD*%
D18*
%TO.P,R216,1*%
%TO.N,SAW2_FULL*%
X7912500Y-30275000D03*
%TO.P,R216,2*%
%TO.N,GND*%
X7912500Y-32100000D03*
%TD*%
D12*
%TO.P,C207,1*%
%TO.N,GND*%
X33402500Y-18482500D03*
%TO.P,C207,2*%
%TO.N,-12V*%
X33402500Y-20382500D03*
%TD*%
D18*
%TO.P,R207,1*%
%TO.N,SAW1_FULL*%
X28952500Y-30270000D03*
%TO.P,R207,2*%
%TO.N,GND*%
X28952500Y-32095000D03*
%TD*%
D19*
%TO.P,C208,1*%
%TO.N,CLK_2*%
X26927500Y-34787500D03*
%TO.P,C208,2*%
%TO.N,Net-(C208-Pad2)*%
X25027500Y-34787500D03*
%TD*%
D13*
%TO.P,U201,1*%
%TO.N,Net-(U201A--)*%
X29592500Y-27857500D03*
%TO.P,U201,2,-*%
X30862500Y-27857500D03*
%TO.P,U201,3,+*%
%TO.N,SAW1_FULL*%
X32132500Y-27857500D03*
%TO.P,U201,4,V+*%
%TO.N,+12V*%
X33402500Y-27857500D03*
%TO.P,U201,5,+*%
%TO.N,GND*%
X34672500Y-27857500D03*
%TO.P,U201,6,-*%
%TO.N,Net-(Q201-E)*%
X35942500Y-27857500D03*
%TO.P,U201,7*%
%TO.N,Net-(C201-Pad2)*%
X37212500Y-27857500D03*
%TO.P,U201,8*%
%TO.N,Net-(D202-A)*%
X37212500Y-22907500D03*
%TO.P,U201,9,-*%
%TO.N,Net-(U201C--)*%
X35942500Y-22907500D03*
%TO.P,U201,10,+*%
%TO.N,Net-(U201A--)*%
X34672500Y-22907500D03*
%TO.P,U201,11,V-*%
%TO.N,-12V*%
X33402500Y-22907500D03*
%TO.P,U201,12,+*%
%TO.N,GND*%
X32132500Y-22907500D03*
%TO.P,U201,13,-*%
%TO.N,Net-(U201D--)*%
X30862500Y-22907500D03*
%TO.P,U201,14*%
%TO.N,Net-(D201-A)*%
X29592500Y-22907500D03*
%TD*%
D11*
%TO.P,R304,1*%
%TO.N,Net-(Q301-B)*%
X76512501Y-9352500D03*
%TO.P,R304,2*%
%TO.N,GND*%
X74687501Y-9352500D03*
%TD*%
D15*
%TO.P,R217,1*%
%TO.N,Net-(U202A--)*%
X4472500Y-27075000D03*
%TO.P,R217,2*%
%TO.N,Net-(U202D--)*%
X4472500Y-25250000D03*
%TD*%
D18*
%TO.P,R408,1*%
%TO.N,Net-(R408-Pad1)*%
X120287500Y-34425000D03*
%TO.P,R408,2*%
%TO.N,Net-(Q401-C)*%
X120287500Y-36250000D03*
%TD*%
D10*
%TO.P,R407,1*%
%TO.N,GND*%
X102750000Y-17412500D03*
%TO.P,R407,2*%
%TO.N,Net-(U402A-+)*%
X104575000Y-17412500D03*
%TD*%
D11*
%TO.P,R234,1*%
%TO.N,Net-(C203-Pad2)*%
X26450000Y-27337500D03*
%TO.P,R234,2*%
%TO.N,SAW1_FULL*%
X24625000Y-27337500D03*
%TD*%
D18*
%TO.P,R224,1*%
%TO.N,Net-(C214-Pad2)*%
X10742500Y-8545000D03*
%TO.P,R224,2*%
%TO.N,PULSE2_FULL*%
X10742500Y-10370000D03*
%TD*%
D11*
%TO.P,R202,1*%
%TO.N,Net-(U201D--)*%
X30665000Y-20332500D03*
%TO.P,R202,2*%
%TO.N,Net-(R202-Pad2)*%
X28840000Y-20332500D03*
%TD*%
D19*
%TO.P,C304,1*%
%TO.N,+3.3V*%
X86562500Y-5852500D03*
%TO.P,C304,2*%
%TO.N,GND*%
X84662500Y-5852500D03*
%TD*%
D10*
%TO.P,R311,1*%
%TO.N,LP_IN*%
X80600000Y-25337500D03*
%TO.P,R311,2*%
%TO.N,Net-(U303A--)*%
X82425000Y-25337500D03*
%TD*%
D14*
%TO.P,C306,1*%
%TO.N,Net-(U301C-+)*%
X98827500Y-16402500D03*
%TO.P,C306,2*%
%TO.N,Net-(D301-K)*%
X98827500Y-14502500D03*
%TD*%
D12*
%TO.P,C213,1*%
%TO.N,GND*%
X10202500Y-18732500D03*
%TO.P,C213,2*%
%TO.N,-12V*%
X10202500Y-20632500D03*
%TD*%
D19*
%TO.P,C214,1*%
%TO.N,Net-(C214-Pad1)*%
X15992500Y-8557500D03*
%TO.P,C214,2*%
%TO.N,Net-(C214-Pad2)*%
X14092500Y-8557500D03*
%TD*%
D18*
%TO.P,R309,1*%
%TO.N,GND*%
X88162500Y-24100000D03*
%TO.P,R309,2*%
%TO.N,Net-(U303A--)*%
X88162500Y-25925000D03*
%TD*%
%TO.P,R212,1*%
%TO.N,GND*%
X25037500Y-30800000D03*
%TO.P,R212,2*%
%TO.N,Net-(C208-Pad2)*%
X25037500Y-32625000D03*
%TD*%
D27*
%TO.P,Q406,1,B*%
%TO.N,Net-(Q406-B)*%
X100987500Y-35462500D03*
%TO.P,Q406,2,E*%
%TO.N,Net-(Q406-E)*%
X99087500Y-35462500D03*
%TO.P,Q406,3,C*%
%TO.N,Net-(Q406-C)*%
X100037500Y-37462500D03*
%TD*%
D13*
%TO.P,U303,1*%
%TO.N,Net-(R307-Pad2)*%
X84667500Y-33237500D03*
%TO.P,U303,2,DIODE_BIAS*%
%TO.N,unconnected-(U303C-DIODE_BIAS-Pad2)*%
X85937500Y-33237500D03*
%TO.P,U303,3,+*%
%TO.N,Net-(U303C-+)*%
X87207500Y-33237500D03*
%TO.P,U303,4,-*%
%TO.N,Net-(U303C--)*%
X88477500Y-33237500D03*
%TO.P,U303,5*%
%TO.N,Net-(U301B-+)*%
X89747500Y-33237500D03*
%TO.P,U303,6,V-*%
%TO.N,-12V*%
X91017500Y-33237500D03*
%TO.P,U303,7*%
%TO.N,unconnected-(U303-Pad7)*%
X92287500Y-33237500D03*
%TO.P,U303,8*%
%TO.N,unconnected-(U303-Pad8)*%
X93557500Y-33237500D03*
%TO.P,U303,9*%
%TO.N,unconnected-(U303-Pad9)*%
X93557500Y-28287500D03*
%TO.P,U303,10*%
%TO.N,unconnected-(U303-Pad10)*%
X92287500Y-28287500D03*
%TO.P,U303,11,V+*%
%TO.N,+12V*%
X91017500Y-28287500D03*
%TO.P,U303,12*%
%TO.N,Net-(U301C-+)*%
X89747500Y-28287500D03*
%TO.P,U303,13,-*%
%TO.N,Net-(U303A--)*%
X88477500Y-28287500D03*
%TO.P,U303,14,+*%
%TO.N,Net-(U303A-+)*%
X87207500Y-28287500D03*
%TO.P,U303,15,DIODE_BIAS*%
%TO.N,unconnected-(U303A-DIODE_BIAS-Pad15)*%
X85937500Y-28287500D03*
%TO.P,U303,16*%
%TO.N,Net-(R306-Pad2)*%
X84667500Y-28287500D03*
%TD*%
D17*
%TO.P,Q301,1,B*%
%TO.N,Net-(Q301-B)*%
X78742500Y-12777501D03*
%TO.P,Q301,2,E*%
%TO.N,Net-(Q301-E)*%
X78742500Y-14677501D03*
%TO.P,Q301,3,C*%
%TO.N,Net-(Q301-C)*%
X80742500Y-13727501D03*
%TD*%
D18*
%TO.P,R425,1*%
%TO.N,Net-(U404B--)*%
X104287500Y-43750000D03*
%TO.P,R425,2*%
%TO.N,Net-(R425-Pad2)*%
X104287500Y-45575000D03*
%TD*%
D11*
%TO.P,R403,1*%
%TO.N,+12V*%
X120312500Y-38437500D03*
%TO.P,R403,2*%
%TO.N,Net-(U404C--)*%
X118487500Y-38437500D03*
%TD*%
D24*
%TO.P,D202,1,K*%
%TO.N,Net-(D201-K)*%
X31100000Y-15782500D03*
%TO.P,D202,2,A*%
%TO.N,Net-(D202-A)*%
X29225000Y-15782500D03*
%TD*%
D10*
%TO.P,R215,1*%
%TO.N,Net-(C209-Pad2)*%
X16040000Y-27882500D03*
%TO.P,R215,2*%
%TO.N,Net-(Q202-C)*%
X17865000Y-27882500D03*
%TD*%
%TO.P,R406,1*%
%TO.N,GND*%
X100500000Y-24762500D03*
%TO.P,R406,2*%
%TO.N,Net-(U402A--)*%
X102325000Y-24762500D03*
%TD*%
D12*
%TO.P,C410,1*%
%TO.N,-12V*%
X112187500Y-27562500D03*
%TO.P,C410,2*%
%TO.N,GND*%
X112187500Y-29462500D03*
%TD*%
D20*
%TO.P,C205,1*%
%TO.N,Net-(D201-K)*%
X33052500Y-15832500D03*
%TO.P,C205,2*%
%TO.N,TRI1_FULL*%
X34952500Y-15832500D03*
%TD*%
D10*
%TO.P,R405,1*%
%TO.N,Net-(C406-Pad2)*%
X100475000Y-21302500D03*
%TO.P,R405,2*%
%TO.N,Net-(U402A--)*%
X102300000Y-21302500D03*
%TD*%
%TO.P,R308,1*%
%TO.N,Net-(U303A--)*%
X85925000Y-22102500D03*
%TO.P,R308,2*%
%TO.N,Net-(U301C--)*%
X87750000Y-22102500D03*
%TD*%
D18*
%TO.P,R409,1*%
%TO.N,Net-(R409-Pad1)*%
X104912500Y-5800000D03*
%TO.P,R409,2*%
%TO.N,Net-(U403A--)*%
X104912500Y-7625000D03*
%TD*%
D11*
%TO.P,R413,1*%
%TO.N,-12V*%
X125575000Y-15962500D03*
%TO.P,R413,2*%
%TO.N,Net-(Q403-E)*%
X123750000Y-15962500D03*
%TD*%
D14*
%TO.P,C409,1*%
%TO.N,+12V*%
X111887500Y-17942500D03*
%TO.P,C409,2*%
%TO.N,GND*%
X111887500Y-16042500D03*
%TD*%
D16*
%TO.P,Q403,1,B*%
%TO.N,Net-(Q402-B)*%
X119912500Y-15962500D03*
%TO.P,Q403,2,E*%
%TO.N,Net-(Q403-E)*%
X121812500Y-15962500D03*
%TO.P,Q403,3,C*%
%TO.N,Net-(Q402-C)*%
X120862500Y-13962500D03*
%TD*%
D18*
%TO.P,R306,1*%
%TO.N,Net-(Q302-C)*%
X80162500Y-29850000D03*
%TO.P,R306,2*%
%TO.N,Net-(R306-Pad2)*%
X80162500Y-31675000D03*
%TD*%
D21*
%TO.P,U206,1*%
%TO.N,Net-(C214-Pad1)*%
X18467500Y-10502500D03*
%TO.P,U206,2,-*%
%TO.N,PWM_2_CV*%
X18467500Y-11772500D03*
%TO.P,U206,3,+*%
%TO.N,SAW2_FULL*%
X18467500Y-13042500D03*
%TO.P,U206,4,V-*%
%TO.N,-12V*%
X18467500Y-14312500D03*
%TO.P,U206,5,+*%
%TO.N,SAW1_FULL*%
X23417500Y-14312500D03*
%TO.P,U206,6,-*%
%TO.N,PWM_1_CV*%
X23417500Y-13042500D03*
%TO.P,U206,7*%
%TO.N,Net-(C204-Pad1)*%
X23417500Y-11772500D03*
%TO.P,U206,8,V+*%
%TO.N,+12V*%
X23417500Y-10502500D03*
%TD*%
D19*
%TO.P,C408,1*%
%TO.N,-12V*%
X105137500Y-9937500D03*
%TO.P,C408,2*%
%TO.N,GND*%
X103237500Y-9937500D03*
%TD*%
D15*
%TO.P,R315,1*%
%TO.N,Net-(D301-A)*%
X94462500Y-12715000D03*
%TO.P,R315,2*%
%TO.N,Net-(D301-K)*%
X94462500Y-10890000D03*
%TD*%
D14*
%TO.P,C201,1*%
%TO.N,Net-(Q201-E)*%
X39952500Y-32282500D03*
%TO.P,C201,2*%
%TO.N,Net-(C201-Pad2)*%
X39952500Y-30382500D03*
%TD*%
D24*
%TO.P,D201,1,K*%
%TO.N,Net-(D201-K)*%
X31100000Y-17932500D03*
%TO.P,D201,2,A*%
%TO.N,Net-(D201-A)*%
X29225000Y-17932500D03*
%TD*%
D14*
%TO.P,C311,1*%
%TO.N,+12V*%
X92487500Y-25037500D03*
%TO.P,C311,2*%
%TO.N,GND*%
X92487500Y-23137500D03*
%TD*%
D10*
%TO.P,R418,1*%
%TO.N,Net-(R418-Pad1)*%
X112700000Y-2612500D03*
%TO.P,R418,2*%
%TO.N,Net-(U403D--)*%
X114525000Y-2612500D03*
%TD*%
D16*
%TO.P,Q405,1,B*%
%TO.N,Net-(Q404-B)*%
X119997500Y-7417500D03*
%TO.P,Q405,2,E*%
%TO.N,Net-(Q405-E)*%
X121897500Y-7417500D03*
%TO.P,Q405,3,C*%
%TO.N,Net-(Q404-C)*%
X120947500Y-5417500D03*
%TD*%
%TO.P,Q402,1,B*%
%TO.N,Net-(Q402-B)*%
X119927500Y-20037501D03*
%TO.P,Q402,2,E*%
%TO.N,Net-(Q402-E)*%
X121827500Y-20037501D03*
%TO.P,Q402,3,C*%
%TO.N,Net-(Q402-C)*%
X120877500Y-18037501D03*
%TD*%
D10*
%TO.P,R404,1*%
%TO.N,Net-(Q401-E)*%
X124575000Y-43312500D03*
%TO.P,R404,2*%
%TO.N,GND*%
X126400000Y-43312500D03*
%TD*%
D20*
%TO.P,C405,1*%
%TO.N,Net-(U404C--)*%
X118475000Y-43062500D03*
%TO.P,C405,2*%
%TO.N,Net-(Q401-E)*%
X120375000Y-43062500D03*
%TD*%
D10*
%TO.P,R414,1*%
%TO.N,Net-(U403C--)*%
X114800000Y-17737500D03*
%TO.P,R414,2*%
%TO.N,Net-(Q402-C)*%
X116625000Y-17737500D03*
%TD*%
D28*
%TO.P,D301,1,K*%
%TO.N,Net-(D301-K)*%
X98812500Y-10875000D03*
%TO.P,D301,2,A*%
%TO.N,Net-(D301-A)*%
X98812500Y-12750000D03*
%TD*%
D10*
%TO.P,R411,1*%
%TO.N,Net-(U403B-+)*%
X101000000Y-4342500D03*
%TO.P,R411,2*%
%TO.N,GND*%
X102825000Y-4342500D03*
%TD*%
D15*
%TO.P,R236,1*%
%TO.N,Net-(R218-Pad2)*%
X3887500Y-13550000D03*
%TO.P,R236,2*%
%TO.N,Net-(D203-K)*%
X3887500Y-11725000D03*
%TD*%
D10*
%TO.P,R420,1*%
%TO.N,FOLDER_OUT*%
X74525000Y-22312500D03*
%TO.P,R420,2*%
%TO.N,Net-(R420-Pad2)*%
X76350000Y-22312500D03*
%TD*%
D15*
%TO.P,R305,1*%
%TO.N,Net-(U303C-+)*%
X78787500Y-37750000D03*
%TO.P,R305,2*%
%TO.N,Net-(U301C--)*%
X78787500Y-35925000D03*
%TD*%
%TO.P,R316,1*%
%TO.N,GND*%
X96677500Y-16365000D03*
%TO.P,R316,2*%
%TO.N,Net-(D301-A)*%
X96677500Y-14540000D03*
%TD*%
D21*
%TO.P,U301,1*%
%TO.N,Net-(C301-Pad1)*%
X86662500Y-11202500D03*
%TO.P,U301,2,-*%
%TO.N,Net-(Q301-C)*%
X86662500Y-12472500D03*
%TO.P,U301,3,+*%
%TO.N,GND*%
X86662500Y-13742500D03*
%TO.P,U301,4,V+*%
%TO.N,+12V*%
X86662500Y-15012500D03*
%TO.P,U301,5,+*%
%TO.N,Net-(U301B-+)*%
X86662500Y-16282500D03*
%TO.P,U301,6,-*%
%TO.N,Net-(U301B--)*%
X86662500Y-17552500D03*
%TO.P,U301,7*%
X86662500Y-18822500D03*
%TO.P,U301,8*%
%TO.N,Net-(U301C--)*%
X91612500Y-18822500D03*
%TO.P,U301,9,-*%
X91612500Y-17552500D03*
%TO.P,U301,10,+*%
%TO.N,Net-(U301C-+)*%
X91612500Y-16282500D03*
%TO.P,U301,11,V-*%
%TO.N,-12V*%
X91612500Y-15012500D03*
%TO.P,U301,12,+*%
%TO.N,Net-(U301D-+)*%
X91612500Y-13742500D03*
%TO.P,U301,13,-*%
%TO.N,Net-(D301-A)*%
X91612500Y-12472500D03*
%TO.P,U301,14*%
%TO.N,Net-(D301-K)*%
X91612500Y-11202500D03*
%TD*%
D11*
%TO.P,R227,1*%
%TO.N,Net-(C210-Pad2)*%
X17400000Y-37987500D03*
%TO.P,R227,2*%
%TO.N,SAW2_FULL*%
X15575000Y-37987500D03*
%TD*%
D18*
%TO.P,R310,1*%
%TO.N,GND*%
X84762500Y-24100000D03*
%TO.P,R310,2*%
%TO.N,Net-(U303A-+)*%
X84762500Y-25925000D03*
%TD*%
D15*
%TO.P,R312,1*%
%TO.N,Net-(U303C--)*%
X96962500Y-29425000D03*
%TO.P,R312,2*%
%TO.N,Net-(U301B--)*%
X96962500Y-27600000D03*
%TD*%
D12*
%TO.P,C309,1*%
%TO.N,-12V*%
X94477500Y-14502500D03*
%TO.P,C309,2*%
%TO.N,GND*%
X94477500Y-16402500D03*
%TD*%
D18*
%TO.P,R307,1*%
%TO.N,Net-(Q302-C)*%
X76637500Y-29875000D03*
%TO.P,R307,2*%
%TO.N,Net-(R307-Pad2)*%
X76637500Y-31700000D03*
%TD*%
D11*
%TO.P,R429,1*%
%TO.N,Net-(R425-Pad2)*%
X101755000Y-43972500D03*
%TO.P,R429,2*%
%TO.N,VCA_OUT*%
X99930000Y-43972500D03*
%TD*%
D18*
%TO.P,R205,1*%
%TO.N,GND*%
X37812500Y-30350000D03*
%TO.P,R205,2*%
%TO.N,Net-(C202-Pad2)*%
X37812500Y-32175000D03*
%TD*%
D21*
%TO.P,U403,1*%
%TO.N,Net-(R409-Pad1)*%
X107537500Y-6102500D03*
%TO.P,U403,2,-*%
%TO.N,Net-(U403A--)*%
X107537500Y-7372500D03*
%TO.P,U403,3,+*%
%TO.N,GND*%
X107537500Y-8642500D03*
%TO.P,U403,4,V+*%
%TO.N,-12V*%
X107537500Y-9912500D03*
%TO.P,U403,5,+*%
%TO.N,Net-(U403B-+)*%
X107537500Y-11182500D03*
%TO.P,U403,6,-*%
%TO.N,Net-(Q402-B)*%
X107537500Y-12452500D03*
%TO.P,U403,7*%
X107537500Y-13722500D03*
%TO.P,U403,8*%
%TO.N,Net-(Q404-B)*%
X112487500Y-13722500D03*
%TO.P,U403,9,-*%
%TO.N,Net-(U403C--)*%
X112487500Y-12452500D03*
%TO.P,U403,10,+*%
%TO.N,GND*%
X112487500Y-11182500D03*
%TO.P,U403,11,V-*%
%TO.N,+12V*%
X112487500Y-9912500D03*
%TO.P,U403,12,+*%
%TO.N,GND*%
X112487500Y-8642500D03*
%TO.P,U403,13,-*%
%TO.N,Net-(U403D--)*%
X112487500Y-7372500D03*
%TO.P,U403,14*%
%TO.N,Net-(R420-Pad2)*%
X112487500Y-6102500D03*
%TD*%
D10*
%TO.P,R416,1*%
%TO.N,Net-(Q404-E)*%
X123835000Y-10917500D03*
%TO.P,R416,2*%
%TO.N,+12V*%
X125660000Y-10917500D03*
%TD*%
D15*
%TO.P,R421,1*%
%TO.N,Net-(U404A--)*%
X96837500Y-37375000D03*
%TO.P,R421,2*%
%TO.N,Net-(Q406-E)*%
X96837500Y-35550000D03*
%TD*%
D20*
%TO.P,C414,1*%
%TO.N,VCA_IN*%
X102612500Y-33112500D03*
%TO.P,C414,2*%
%TO.N,Net-(C414-Pad2)*%
X104512500Y-33112500D03*
%TD*%
D15*
%TO.P,R401,1*%
%TO.N,Net-(U404C--)*%
X115212500Y-42800000D03*
%TO.P,R401,2*%
%TO.N,Net-(Q401-E)*%
X115212500Y-40975000D03*
%TD*%
D11*
%TO.P,R206,1*%
%TO.N,Net-(Q201-B)*%
X41675000Y-34262500D03*
%TO.P,R206,2*%
%TO.N,Net-(C202-Pad2)*%
X39850000Y-34262500D03*
%TD*%
D24*
%TO.P,D204,1,K*%
%TO.N,Net-(D203-K)*%
X7790000Y-18232500D03*
%TO.P,D204,2,A*%
%TO.N,Net-(D204-A)*%
X5915000Y-18232500D03*
%TD*%
D12*
%TO.P,C310,1*%
%TO.N,-12V*%
X91737500Y-35887500D03*
%TO.P,C310,2*%
%TO.N,GND*%
X91737500Y-37787500D03*
%TD*%
D15*
%TO.P,R223,1*%
%TO.N,PULSE2_FULL*%
X8457500Y-10354999D03*
%TO.P,R223,2*%
%TO.N,GND*%
X8457500Y-8529999D03*
%TD*%
%TO.P,R201,1*%
%TO.N,Net-(U201A--)*%
X25937500Y-24675000D03*
%TO.P,R201,2*%
%TO.N,Net-(U201D--)*%
X25937500Y-22850000D03*
%TD*%
D11*
%TO.P,R221,1*%
%TO.N,GND*%
X17865000Y-22882500D03*
%TO.P,R221,2*%
%TO.N,Net-(U202C--)*%
X16040000Y-22882500D03*
%TD*%
D10*
%TO.P,R208,1*%
%TO.N,-12V*%
X29250000Y-13537500D03*
%TO.P,R208,2*%
%TO.N,Net-(D201-K)*%
X31075000Y-13537500D03*
%TD*%
D19*
%TO.P,C202,1*%
%TO.N,CLK_1*%
X41712500Y-36587500D03*
%TO.P,C202,2*%
%TO.N,Net-(C202-Pad2)*%
X39812500Y-36587500D03*
%TD*%
D10*
%TO.P,R419,1*%
%TO.N,Net-(U403D--)*%
X114850000Y-6362500D03*
%TO.P,R419,2*%
%TO.N,Net-(Q404-C)*%
X116675000Y-6362500D03*
%TD*%
D20*
%TO.P,C204,1*%
%TO.N,Net-(C204-Pad1)*%
X27767500Y-10017500D03*
%TO.P,C204,2*%
%TO.N,Net-(C204-Pad2)*%
X29667500Y-10017500D03*
%TD*%
D18*
%TO.P,R428,1*%
%TO.N,Net-(U402C--)*%
X106262500Y-27600000D03*
%TO.P,R428,2*%
%TO.N,Net-(C414-Pad2)*%
X106262500Y-29425000D03*
%TD*%
D17*
%TO.P,Q302,1,B*%
%TO.N,GND*%
X74862500Y-12777500D03*
%TO.P,Q302,2,E*%
%TO.N,Net-(Q301-E)*%
X74862500Y-14677500D03*
%TO.P,Q302,3,C*%
%TO.N,Net-(Q302-C)*%
X76862500Y-13727500D03*
%TD*%
D15*
%TO.P,R214,1*%
%TO.N,LEVEL_2_CV*%
X12752500Y-32095000D03*
%TO.P,R214,2*%
%TO.N,Net-(Q202-E)*%
X12752500Y-30270000D03*
%TD*%
D14*
%TO.P,C305,1*%
%TO.N,Net-(U301B--)*%
X92327500Y-8727500D03*
%TO.P,C305,2*%
%TO.N,FILTER_OUT*%
X92327500Y-6827500D03*
%TD*%
D10*
%TO.P,R412,1*%
%TO.N,Net-(Q402-E)*%
X123750000Y-20712500D03*
%TO.P,R412,2*%
%TO.N,+12V*%
X125575000Y-20712500D03*
%TD*%
D29*
%TO.N,CLK_1*%
X44325000Y-38450000D03*
%TO.N,VCA_IN*%
X78000000Y-41062500D03*
%TO.N,SAW1_FULL*%
X32312500Y-11812500D03*
X48112500Y-13387500D03*
X25512500Y-15812500D03*
%TO.N,GND*%
X108437500Y-30987500D03*
X90787500Y-24112500D03*
X29912500Y-34137500D03*
X84287500Y-17962500D03*
X110862500Y-8112500D03*
X10212500Y-17637500D03*
X24062500Y-5612500D03*
X105662500Y-38437500D03*
X61012500Y-27187500D03*
X73143187Y-33434815D03*
X38237500Y-29137500D03*
X6412500Y-32162500D03*
X42587500Y-22887500D03*
X54712500Y-21737500D03*
X19262500Y-19462500D03*
X71962500Y-37162500D03*
X34887500Y-25712500D03*
X83537500Y-24937500D03*
X113387500Y-16837500D03*
X127862500Y-41937500D03*
X112187500Y-30962500D03*
X73337500Y-9337500D03*
X35312500Y-11437500D03*
X56612500Y-19137500D03*
X66412500Y-5937500D03*
X51562500Y-39687500D03*
X54487500Y-13387500D03*
X60287500Y-29387500D03*
X51012500Y-31012500D03*
X49887500Y-8787500D03*
X101312500Y-17412500D03*
X58387500Y-38237500D03*
X87837500Y-38787500D03*
X70662500Y-15237500D03*
X104062500Y-3837500D03*
X96337500Y-31662500D03*
X35237500Y-18512500D03*
X58112500Y-32962500D03*
X34462500Y-33587500D03*
X83662500Y-5862500D03*
X88512500Y-13762500D03*
X8462500Y-7087500D03*
X50062500Y-14987500D03*
X82312500Y-38912500D03*
X46112500Y-25862500D03*
X23487500Y-30787500D03*
X58637500Y-40162500D03*
X99087500Y-25087500D03*
X17837500Y-21337500D03*
X11987500Y-26487500D03*
X101962500Y-9937500D03*
X111087500Y-41337500D03*
X40662500Y-15837500D03*
X93487500Y-17262500D03*
X91712500Y-39087500D03*
X56712500Y-7362500D03*
X115162500Y-35287500D03*
X117637500Y-8812500D03*
X89137500Y-22562500D03*
X15162500Y-14087500D03*
X52239193Y-41439193D03*
X66137500Y-22737500D03*
X31937500Y-21037500D03*
X56312500Y-12337500D03*
%TO.N,+12V*%
X47337500Y-26712500D03*
X104637500Y-41762500D03*
X93512500Y-26062500D03*
X21837500Y-7762500D03*
X68362500Y-8437500D03*
X125612500Y-22387500D03*
X121562500Y-38787500D03*
X111387500Y-21962500D03*
X125662500Y-12612500D03*
X63387500Y-26187500D03*
X33412500Y-26512500D03*
X88787500Y-16037500D03*
X110812500Y-10337500D03*
X11437500Y-31137500D03*
%TO.N,-12V*%
X33387500Y-24612500D03*
X68762500Y-42787500D03*
X127587500Y-18587500D03*
X86800000Y-42750000D03*
X15712500Y-12987500D03*
X80387500Y-18862500D03*
X117012500Y-30437500D03*
X73962500Y-35437500D03*
X30087500Y-14562500D03*
X108987500Y-9912500D03*
X110862500Y-39512500D03*
X75387500Y-18862500D03*
X90062500Y-15012500D03*
X124437500Y-4087500D03*
X4987500Y-12637500D03*
%TO.N,CLK_2*%
X31012500Y-38187500D03*
X35312500Y-42512500D03*
%TO.N,SAW2_FULL*%
X20187500Y-14287500D03*
%TO.N,Net-(D203-K)*%
X7790000Y-17137500D03*
X17237500Y-19612500D03*
D30*
%TO.N,+3.3V*%
X60292500Y-33887500D03*
X57562500Y-17062500D03*
X57562500Y-30987500D03*
D29*
%TO.N,Net-(U301B--)*%
X89462500Y-17562500D03*
X92887500Y-9837500D03*
X94462500Y-20987500D03*
%TO.N,FILTER_OUT*%
X81537500Y-2212500D03*
%TO.N,Net-(U301B-+)*%
X80387500Y-34487500D03*
X78262500Y-27787500D03*
%TO.N,HP_IN*%
X76362500Y-27787500D03*
%TO.N,FOLDER_IN*%
X64037500Y-28437500D03*
X96787500Y-21137500D03*
X63737500Y-13862500D03*
%TO.N,VCA_IN*%
X101187500Y-33112500D03*
X63987500Y-30412500D03*
X68837500Y-41062500D03*
X85812500Y-41037500D03*
X64562500Y-12862500D03*
%TO.N,Net-(D203-A)*%
X4462500Y-14862500D03*
X13062500Y-24637500D03*
D31*
%TO.N,SDA*%
X53587500Y-6187500D03*
X53212500Y-36762500D03*
%TO.N,SCL*%
X89362500Y-2837500D03*
X52737500Y-6737500D03*
X52162500Y-36162500D03*
X87412500Y-8812500D03*
%TO.N,FOLD_FIRST*%
X67887500Y-31687500D03*
X67887500Y-15812500D03*
%TO.N,HP_MODE*%
X64312500Y-15162500D03*
%TO.N,PWM_1_CV*%
X46662500Y-42187500D03*
X22187500Y-24187500D03*
%TO.N,PWM_2_CV*%
X47912500Y-41912500D03*
X23612500Y-25062500D03*
%TO.N,FOLD_CV*%
X112912500Y-45212500D03*
D29*
%TO.N,Net-(Q402-B)*%
X116987500Y-20062500D03*
X108187500Y-15087500D03*
%TO.N,Net-(Q406-C)*%
X101087500Y-30687500D03*
X101237500Y-37462500D03*
%TO.N,TRI1_FULL*%
X48937500Y-9962500D03*
%TO.N,TRI2_FULL*%
X27412500Y-21537500D03*
X24212500Y-22562500D03*
X13037500Y-16082500D03*
%TO.N,PULSE2_FULL*%
X13412500Y-10362500D03*
%TO.N,PULSE1_FULL*%
X37837500Y-8162500D03*
%TO.N,Net-(U203C-P2W)*%
X58712500Y-18562500D03*
X59387500Y-13812500D03*
%TO.N,Net-(U204A--)*%
X46137500Y-32312500D03*
X46137500Y-39012500D03*
X46137500Y-35787500D03*
%TO.N,Net-(U205A-P0W)*%
X47637500Y-22462500D03*
X51962500Y-29937500D03*
%TO.N,Net-(U205C-P2W)*%
X51862500Y-34762500D03*
X49337500Y-30612500D03*
%TO.N,Net-(U205D-P3W)*%
X56587500Y-40487500D03*
X50712500Y-40487500D03*
%TO.N,OSC_MIX*%
X68662500Y-32312500D03*
X68637500Y-27812500D03*
%TO.N,Net-(U301C--)*%
X78112500Y-34437500D03*
X89405000Y-21030000D03*
%TO.N,LP_IN*%
X80912500Y-16487500D03*
%TO.N,FOLDER_OUT*%
X73337500Y-22312500D03*
%TO.N,FILTER_IN*%
X73737500Y-13887500D03*
X70112500Y-29807000D03*
%TO.N,Net-(R420-Pad2)*%
X75562500Y-15662500D03*
X96387500Y-2612500D03*
%TD*%
D32*
%TO.N,FILTER_OUT*%
X90212500Y-6752500D02*
X90212500Y-5550000D01*
X81537500Y-2212500D02*
X86875000Y-2212500D01*
X86875000Y-2212500D02*
X90212500Y-5550000D01*
D33*
%TO.N,SDA*%
X85900000Y-2950000D02*
X56825000Y-2950000D01*
X85900000Y-3000000D02*
X85900000Y-2950000D01*
X90212500Y-8052500D02*
X89707500Y-8052500D01*
X89707500Y-8052500D02*
X89250000Y-7595000D01*
X89250000Y-7595000D02*
X89250000Y-6350000D01*
X89250000Y-6350000D02*
X85900000Y-3000000D01*
D34*
%TO.N,CUTOFF_CV*%
X71925000Y-16700000D02*
X71925000Y-8575000D01*
X74670000Y-5812500D02*
X71925000Y-8557500D01*
X71925000Y-8557500D02*
X71925000Y-8575000D01*
X56137500Y-45347500D02*
X58135000Y-43350000D01*
X58135000Y-43350000D02*
X64750000Y-43350000D01*
X64750000Y-43350000D02*
X70200000Y-37900000D01*
X70200000Y-37900000D02*
X70200000Y-31850000D01*
X70200000Y-31850000D02*
X69250000Y-30900000D01*
X69250000Y-30900000D02*
X69250000Y-29125000D01*
X71225000Y-27150000D02*
X71225000Y-17400000D01*
X69250000Y-29125000D02*
X71225000Y-27150000D01*
X71225000Y-17400000D02*
X71925000Y-16700000D01*
D32*
%TO.N,CLK_1*%
X42462500Y-36587500D02*
X44325000Y-38450000D01*
X41712500Y-36587500D02*
X42462500Y-36587500D01*
%TO.N,VCA_OUT*%
X96925000Y-45200000D02*
X98152500Y-43972500D01*
X67775000Y-45200000D02*
X96925000Y-45200000D01*
X66412500Y-46562500D02*
X67775000Y-45200000D01*
X66125000Y-46562500D02*
X66412500Y-46562500D01*
X60002500Y-46562500D02*
X66125000Y-46562500D01*
%TO.N,VCA_IN*%
X68837500Y-41062500D02*
X78000000Y-41062500D01*
X78000000Y-41062500D02*
X85787500Y-41062500D01*
%TO.N,Net-(Q201-E)*%
X36700000Y-31287500D02*
X38957500Y-31287500D01*
X42602500Y-32282500D02*
X39952500Y-32282500D01*
X35662500Y-30250000D02*
X36700000Y-31287500D01*
X38957500Y-31287500D02*
X39952500Y-32282500D01*
X35942500Y-29970000D02*
X35662500Y-30250000D01*
X35942500Y-27857500D02*
X35942500Y-29970000D01*
X43252500Y-31632500D02*
X42602500Y-32282500D01*
%TO.N,Net-(C201-Pad2)*%
X38865000Y-27857500D02*
X39390000Y-28382500D01*
X37212500Y-27857500D02*
X38865000Y-27857500D01*
X39952500Y-30382500D02*
X39952500Y-28945000D01*
X35337500Y-28987500D02*
X35332500Y-28982500D01*
X32780540Y-31237500D02*
X33914460Y-31237500D01*
X35332500Y-26467500D02*
X35837500Y-25962500D01*
X39952500Y-28945000D02*
X39390000Y-28382500D01*
X33914460Y-31237500D02*
X34537500Y-30614460D01*
X35837500Y-25962500D02*
X36487500Y-25962500D01*
X35332500Y-28982500D02*
X35332500Y-26467500D01*
X34537500Y-29787500D02*
X35337500Y-28987500D01*
X31885540Y-32132500D02*
X32780540Y-31237500D01*
X34537500Y-30614460D02*
X34537500Y-29787500D01*
X36487500Y-25962500D02*
X37212500Y-26687500D01*
X31202500Y-32132500D02*
X31885540Y-32132500D01*
X37212500Y-26687500D02*
X37212500Y-27857500D01*
%TO.N,CLK_1*%
X48517500Y-47887500D02*
X47287500Y-46657500D01*
X41712500Y-38687500D02*
X41712500Y-36587500D01*
X47287500Y-46657500D02*
X47287500Y-44262500D01*
X47287500Y-44262500D02*
X41712500Y-38687500D01*
%TO.N,Net-(C202-Pad2)*%
X39850000Y-36550000D02*
X39812500Y-36587500D01*
X37812500Y-32225000D02*
X39850000Y-34262500D01*
X37812500Y-32175000D02*
X37812500Y-32225000D01*
X39850000Y-34262500D02*
X39850000Y-36550000D01*
%TO.N,SAW1_FULL*%
X23412500Y-23762500D02*
X23412500Y-14317500D01*
X39112500Y-12137500D02*
X39102500Y-12147500D01*
X27557500Y-30270000D02*
X24625000Y-27337500D01*
X39102500Y-12147500D02*
X32647500Y-12147500D01*
X32132500Y-27857500D02*
X32367500Y-28092500D01*
X23412500Y-14317500D02*
X23417500Y-14312500D01*
X40362500Y-13387500D02*
X39112500Y-12137500D01*
X29895000Y-31212500D02*
X28952500Y-30270000D01*
X40512500Y-13387500D02*
X40362500Y-13387500D01*
X48112500Y-13387500D02*
X40512500Y-13387500D01*
X32367500Y-28092500D02*
X32367500Y-30584460D01*
X25512500Y-15812500D02*
X24917500Y-15812500D01*
X24625000Y-24975000D02*
X23412500Y-23762500D01*
X32367500Y-30584460D02*
X31739460Y-31212500D01*
X31739460Y-31212500D02*
X29895000Y-31212500D01*
X24917500Y-15812500D02*
X23417500Y-14312500D01*
X32647500Y-12147500D02*
X32312500Y-11812500D01*
X28952500Y-30270000D02*
X27557500Y-30270000D01*
X24625000Y-27337500D02*
X24625000Y-24975000D01*
%TO.N,Net-(C204-Pad1)*%
X26012500Y-11772500D02*
X23417500Y-11772500D01*
X27767500Y-10017500D02*
X26012500Y-11772500D01*
%TO.N,Net-(C204-Pad2)*%
X29685000Y-10000000D02*
X29667500Y-10017500D01*
X32892500Y-10000000D02*
X29685000Y-10000000D01*
%TO.N,Net-(D201-K)*%
X29617500Y-12080000D02*
X31075000Y-13537500D01*
X31100000Y-13562500D02*
X31075000Y-13537500D01*
X33052500Y-15832500D02*
X34732500Y-17512500D01*
X31100000Y-17932500D02*
X31100000Y-13562500D01*
X31150000Y-15832500D02*
X31100000Y-15782500D01*
X36050000Y-17512500D02*
X37350000Y-18812500D01*
X34732500Y-17512500D02*
X36050000Y-17512500D01*
X33052500Y-15832500D02*
X31150000Y-15832500D01*
X27247500Y-12080000D02*
X29617500Y-12080000D01*
%TO.N,Net-(C203-Pad2)*%
X31202500Y-30232500D02*
X30282500Y-29312500D01*
X30282500Y-29312500D02*
X28087500Y-29312500D01*
X26450000Y-27675000D02*
X26450000Y-27337500D01*
X28087500Y-29312500D02*
X26450000Y-27675000D01*
%TO.N,GND*%
X115187500Y-36837500D02*
X115187500Y-35312500D01*
X96640000Y-16402500D02*
X96677500Y-16365000D01*
X7945000Y-32132500D02*
X7912500Y-32100000D01*
X94347500Y-16402500D02*
X93487500Y-17262500D01*
X37812500Y-29562500D02*
X38237500Y-29137500D01*
X40657500Y-15832500D02*
X40662500Y-15837500D01*
X11472500Y-27002500D02*
X11987500Y-26487500D01*
X84662500Y-5852500D02*
X83672500Y-5852500D01*
X10202500Y-32132500D02*
X7945000Y-32132500D01*
X8932500Y-22907500D02*
X8932500Y-20002500D01*
X18467500Y-18667500D02*
X19262500Y-19462500D01*
X11472500Y-27857500D02*
X11472500Y-27002500D01*
X16065000Y-16082500D02*
X16065000Y-14990000D01*
X34672500Y-25927500D02*
X34887500Y-25712500D01*
X107537500Y-8642500D02*
X104532500Y-8642500D01*
X112042500Y-40382500D02*
X111087500Y-41337500D01*
X23500000Y-30800000D02*
X23487500Y-30787500D01*
X103762500Y-40337500D02*
X105662500Y-38437500D01*
X102825000Y-4342500D02*
X103557500Y-4342500D01*
X94477500Y-16402500D02*
X96640000Y-16402500D01*
X111392500Y-8642500D02*
X110862500Y-8112500D01*
X82287500Y-38887500D02*
X82312500Y-38912500D01*
X108462500Y-30962500D02*
X108437500Y-30987500D01*
X28952500Y-32095000D02*
X28952500Y-33177500D01*
X114182500Y-37842500D02*
X115187500Y-36837500D01*
X112862500Y-37842500D02*
X114182500Y-37842500D01*
X109197500Y-38771962D02*
X108268038Y-37842500D01*
X91737500Y-39062500D02*
X91712500Y-39087500D01*
X7912500Y-32100000D02*
X6475000Y-32100000D01*
X33402500Y-32527500D02*
X34462500Y-33587500D01*
X112487500Y-8642500D02*
X111392500Y-8642500D01*
X106257500Y-37842500D02*
X105662500Y-38437500D01*
X73352500Y-9352500D02*
X73337500Y-9337500D01*
X8932500Y-20002500D02*
X10202500Y-18732500D01*
X100500000Y-24762500D02*
X99412500Y-24762500D01*
X10202500Y-17647500D02*
X10212500Y-17637500D01*
X32132500Y-22907500D02*
X32137500Y-22902500D01*
X112592500Y-16042500D02*
X113387500Y-16837500D01*
X94477500Y-16402500D02*
X94347500Y-16402500D01*
X107912500Y-40382500D02*
X108268038Y-40382500D01*
X103557500Y-4342500D02*
X104062500Y-3837500D01*
X86662500Y-13742500D02*
X88492500Y-13742500D01*
X37812500Y-30350000D02*
X37812500Y-29562500D01*
X116712500Y-9737500D02*
X117637500Y-8812500D01*
X6475000Y-32100000D02*
X6412500Y-32162500D01*
X116712500Y-9937500D02*
X116712500Y-9737500D01*
X99412500Y-24762500D02*
X99087500Y-25087500D01*
X99087500Y-31650000D02*
X96350000Y-31650000D01*
X112487500Y-11182500D02*
X115467500Y-11182500D01*
X8457500Y-8529999D02*
X8457500Y-7092500D01*
X103762500Y-40512500D02*
X103762500Y-40337500D01*
X39415000Y-15832500D02*
X40657500Y-15832500D01*
X102412500Y-31712500D02*
X102350000Y-31650000D01*
X8457500Y-7092500D02*
X8462500Y-7087500D01*
X35292500Y-10000000D02*
X35292500Y-11417500D01*
X35292500Y-11417500D02*
X35312500Y-11437500D01*
X104112500Y-29425000D02*
X104112500Y-30012500D01*
X17865000Y-21365000D02*
X17837500Y-21337500D01*
X109197500Y-39453038D02*
X109197500Y-38771962D01*
X108462500Y-29425000D02*
X108462500Y-30962500D01*
X91512500Y-24112500D02*
X92487500Y-23137500D01*
X104532500Y-8642500D02*
X103237500Y-9937500D01*
X86212500Y-7402500D02*
X84662500Y-5852500D01*
X18467500Y-18037500D02*
X18467500Y-18667500D01*
X35207500Y-18482500D02*
X35237500Y-18512500D01*
X112862500Y-40382500D02*
X112042500Y-40382500D01*
X74687501Y-9352500D02*
X73352500Y-9352500D01*
X83202500Y-16877500D02*
X84287500Y-17962500D01*
X96350000Y-31650000D02*
X96337500Y-31662500D01*
X41215000Y-22882500D02*
X42582500Y-22882500D01*
X24042500Y-5632500D02*
X24062500Y-5612500D01*
X33402500Y-18482500D02*
X35207500Y-18482500D01*
X88162500Y-24100000D02*
X88162500Y-23537500D01*
X24042500Y-6912500D02*
X24042500Y-5632500D01*
X107912500Y-37842500D02*
X106257500Y-37842500D01*
X126487500Y-43312500D02*
X127862500Y-41937500D01*
X108268038Y-37842500D02*
X107912500Y-37842500D01*
X16065000Y-14990000D02*
X15162500Y-14087500D01*
X83002500Y-16877500D02*
X83202500Y-16877500D01*
X103237500Y-9937500D02*
X101962500Y-9937500D01*
X34672500Y-27857500D02*
X34672500Y-25927500D01*
X10202500Y-18732500D02*
X10202500Y-17647500D01*
X88312500Y-7402500D02*
X86212500Y-7402500D01*
X32137500Y-22902500D02*
X32137500Y-21237500D01*
X88492500Y-13742500D02*
X88512500Y-13762500D01*
X88162500Y-23537500D02*
X89137500Y-22562500D01*
X111887500Y-16042500D02*
X112592500Y-16042500D01*
X83672500Y-5852500D02*
X83662500Y-5862500D01*
X84375000Y-24100000D02*
X83537500Y-24937500D01*
X91737500Y-37787500D02*
X91737500Y-39062500D01*
X17865000Y-22882500D02*
X17865000Y-21365000D01*
X84762500Y-24100000D02*
X84375000Y-24100000D01*
X90775000Y-24100000D02*
X90787500Y-24112500D01*
X25037500Y-30800000D02*
X23500000Y-30800000D01*
X87837500Y-37775000D02*
X87837500Y-38787500D01*
X28952500Y-33177500D02*
X29912500Y-34137500D01*
X33402500Y-32132500D02*
X33402500Y-32527500D01*
X126400000Y-43312500D02*
X126487500Y-43312500D01*
X108268038Y-40382500D02*
X109197500Y-39453038D01*
X74862500Y-9527499D02*
X74687501Y-9352500D01*
X104112500Y-30012500D02*
X102412500Y-31712500D01*
X32137500Y-21237500D02*
X31937500Y-21037500D01*
X74862500Y-12777500D02*
X74862500Y-9527499D01*
X42582500Y-22882500D02*
X42587500Y-22887500D01*
X102350000Y-31650000D02*
X99087500Y-31650000D01*
X115187500Y-35312500D02*
X115162500Y-35287500D01*
X90787500Y-24112500D02*
X91512500Y-24112500D01*
X102750000Y-17412500D02*
X101312500Y-17412500D01*
X82287500Y-37762500D02*
X82287500Y-38887500D01*
X115467500Y-11182500D02*
X116712500Y-9937500D01*
X112187500Y-29462500D02*
X112187500Y-30962500D01*
D35*
%TO.N,+12V*%
X86662500Y-15012500D02*
X87762500Y-15012500D01*
D36*
X111917500Y-20242500D02*
X111917500Y-21432500D01*
D35*
X33402500Y-27857500D02*
X33402500Y-26522500D01*
X111237500Y-9912500D02*
X110812500Y-10337500D01*
D36*
X111917500Y-21432500D02*
X111387500Y-21962500D01*
X91017500Y-28287500D02*
X91017500Y-26507500D01*
D35*
X24042500Y-8812500D02*
X22887500Y-8812500D01*
X86627500Y-14977500D02*
X86662500Y-15012500D01*
D36*
X111917500Y-17972500D02*
X111887500Y-17942500D01*
X92487500Y-25037500D02*
X93512500Y-26062500D01*
D35*
X125575000Y-20712500D02*
X125575000Y-22350000D01*
X112487500Y-9912500D02*
X114787500Y-9912500D01*
D36*
X105662500Y-40737500D02*
X104637500Y-41762500D01*
D35*
X22887500Y-8812500D02*
X21837500Y-7762500D01*
X120312500Y-38437500D02*
X121212500Y-38437500D01*
D36*
X105662500Y-40512500D02*
X105662500Y-40737500D01*
X105662500Y-40512500D02*
X107062500Y-39112500D01*
D35*
X87762500Y-15012500D02*
X88787500Y-16037500D01*
X83002500Y-14977500D02*
X86627500Y-14977500D01*
X10202500Y-27857500D02*
X10202500Y-30232500D01*
X33402500Y-26522500D02*
X33412500Y-26512500D01*
X23417500Y-10502500D02*
X23417500Y-9437500D01*
X112487500Y-9912500D02*
X111237500Y-9912500D01*
D36*
X107062500Y-39112500D02*
X107912500Y-39112500D01*
D35*
X33402500Y-27857500D02*
X33402500Y-30232500D01*
X121212500Y-38437500D02*
X121562500Y-38787500D01*
D36*
X91017500Y-26507500D02*
X92487500Y-25037500D01*
D35*
X10202500Y-30232500D02*
X10532500Y-30232500D01*
X10532500Y-30232500D02*
X11437500Y-31137500D01*
D36*
X111917500Y-20242500D02*
X111917500Y-17972500D01*
D35*
X125660000Y-12610000D02*
X125662500Y-12612500D01*
X125575000Y-22350000D02*
X125612500Y-22387500D01*
X114787500Y-9912500D02*
X114812500Y-9937500D01*
X125660000Y-10917500D02*
X125660000Y-12610000D01*
X23417500Y-9437500D02*
X24042500Y-8812500D01*
%TO.N,-12V*%
X89887500Y-37737500D02*
X89887500Y-38137500D01*
X89887500Y-39662500D02*
X89887500Y-38137500D01*
D36*
X91612500Y-15012500D02*
X93967500Y-15012500D01*
X111262500Y-39112500D02*
X110862500Y-39512500D01*
X112187500Y-27562500D02*
X114137500Y-27562500D01*
D35*
X91017500Y-35167500D02*
X91737500Y-35887500D01*
D36*
X73962500Y-24612500D02*
X75437500Y-23137500D01*
X86800000Y-42750000D02*
X68800000Y-42750000D01*
X93967500Y-15012500D02*
X94477500Y-14502500D01*
X125660000Y-6217500D02*
X125742500Y-6217500D01*
X10202500Y-20632500D02*
X10617500Y-20632500D01*
D35*
X91737500Y-35887500D02*
X89887500Y-37737500D01*
D36*
X127337500Y-7812500D02*
X127337500Y-14200000D01*
X125575000Y-15962500D02*
X127587500Y-17975000D01*
X114812500Y-39112500D02*
X115187500Y-38737500D01*
X127337500Y-14200000D02*
X125575000Y-15962500D01*
X80387500Y-18862500D02*
X78765000Y-18862500D01*
X18467500Y-16137500D02*
X18467500Y-14312500D01*
X107537500Y-9912500D02*
X108987500Y-9912500D01*
D35*
X5940000Y-13832500D02*
X5940000Y-13590000D01*
D36*
X125660000Y-5310000D02*
X125660000Y-6217500D01*
D35*
X33402500Y-22907500D02*
X33402500Y-24597500D01*
X91017500Y-33237500D02*
X91017500Y-35167500D01*
D36*
X91612500Y-15012500D02*
X90062500Y-15012500D01*
X111917500Y-27292500D02*
X112187500Y-27562500D01*
X75437500Y-23137500D02*
X75437500Y-18912500D01*
D35*
X29250000Y-13725000D02*
X30087500Y-14562500D01*
D36*
X75437500Y-18912500D02*
X75387500Y-18862500D01*
X105137500Y-9937500D02*
X107512500Y-9937500D01*
X10202500Y-22907500D02*
X10202500Y-20632500D01*
X112862500Y-39112500D02*
X114812500Y-39112500D01*
X17037500Y-14312500D02*
X15712500Y-12987500D01*
D35*
X29250000Y-13537500D02*
X29250000Y-13725000D01*
D36*
X127587500Y-17975000D02*
X127587500Y-18587500D01*
X16742500Y-17862500D02*
X18467500Y-16137500D01*
X73962500Y-35437500D02*
X73962500Y-24612500D01*
D35*
X86800000Y-42750000D02*
X89887500Y-39662500D01*
D36*
X10617500Y-20632500D02*
X13387500Y-17862500D01*
X18467500Y-14312500D02*
X17037500Y-14312500D01*
X111917500Y-25192500D02*
X111917500Y-27292500D01*
X107512500Y-9937500D02*
X107537500Y-9912500D01*
X78765000Y-18862500D02*
X78762500Y-18865000D01*
X112862500Y-39112500D02*
X111262500Y-39112500D01*
X13387500Y-17862500D02*
X16742500Y-17862500D01*
D35*
X33402500Y-24597500D02*
X33387500Y-24612500D01*
D36*
X124437500Y-4087500D02*
X125660000Y-5310000D01*
D35*
X33402500Y-22907500D02*
X33402500Y-20382500D01*
D36*
X115187500Y-38737500D02*
X117012500Y-36912500D01*
X68800000Y-42750000D02*
X68762500Y-42787500D01*
X125742500Y-6217500D02*
X127337500Y-7812500D01*
D35*
X5940000Y-13590000D02*
X4987500Y-12637500D01*
D36*
X114137500Y-27562500D02*
X117012500Y-30437500D01*
X117012500Y-30437500D02*
X117012500Y-36912500D01*
D32*
%TO.N,CLK_2*%
X46462500Y-49162500D02*
X41937500Y-49162500D01*
X30327500Y-38187500D02*
X26927500Y-34787500D01*
X51057500Y-47887500D02*
X49782500Y-49162500D01*
X49782500Y-49162500D02*
X46462500Y-49162500D01*
X41937500Y-49162500D02*
X35312500Y-42537500D01*
X31012500Y-38187500D02*
X30327500Y-38187500D01*
X35312500Y-42537500D02*
X35312500Y-42512500D01*
%TO.N,Net-(C208-Pad2)*%
X25027500Y-32635000D02*
X25037500Y-32625000D01*
X24027500Y-35787500D02*
X25027500Y-34787500D01*
X25027500Y-34787500D02*
X25027500Y-32635000D01*
X21960000Y-35787500D02*
X24027500Y-35787500D01*
%TO.N,Net-(Q202-E)*%
X12742500Y-27857500D02*
X12752500Y-27867500D01*
X12752500Y-30270000D02*
X13100000Y-30270000D01*
X19582500Y-31162500D02*
X20052500Y-31632500D01*
X15932500Y-31162500D02*
X19582500Y-31162500D01*
X14962500Y-32132500D02*
X15932500Y-31162500D01*
X12752500Y-27867500D02*
X12752500Y-30270000D01*
X13100000Y-30270000D02*
X14962500Y-32132500D01*
%TO.N,Net-(C209-Pad2)*%
X16015000Y-27857500D02*
X16040000Y-27882500D01*
X14012500Y-29282500D02*
X14962500Y-30232500D01*
X14012500Y-27857500D02*
X16015000Y-27857500D01*
X16040000Y-28540000D02*
X17737500Y-30237500D01*
X16040000Y-27882500D02*
X16040000Y-28540000D01*
X14012500Y-27857500D02*
X14012500Y-29282500D01*
%TO.N,SAW2_FULL*%
X1587500Y-11837500D02*
X1587500Y-26887500D01*
X5237500Y-33987500D02*
X9262500Y-38012500D01*
X8932500Y-29255000D02*
X8932500Y-27857500D01*
X3012500Y-10412500D02*
X1587500Y-11837500D01*
X15550000Y-38012500D02*
X15575000Y-37987500D01*
X1587500Y-26887500D02*
X5887500Y-31187500D01*
X5887500Y-31187500D02*
X5237500Y-31837500D01*
X16062500Y-11687500D02*
X16012500Y-11737500D01*
X18942500Y-13042500D02*
X18467500Y-13042500D01*
X9262500Y-38012500D02*
X15550000Y-38012500D01*
X17417500Y-13042500D02*
X16062500Y-11687500D01*
X18467500Y-13042500D02*
X17417500Y-13042500D01*
X16012500Y-11737500D02*
X7187500Y-11737500D01*
X7187500Y-11737500D02*
X5862500Y-10412500D01*
X7912500Y-30275000D02*
X6800000Y-30275000D01*
X6800000Y-30275000D02*
X5887500Y-31187500D01*
X7912500Y-30275000D02*
X8932500Y-29255000D01*
X20187500Y-14287500D02*
X18942500Y-13042500D01*
X5862500Y-10412500D02*
X3012500Y-10412500D01*
X5237500Y-31837500D02*
X5237500Y-33987500D01*
%TO.N,Net-(D203-K)*%
X10052500Y-16082500D02*
X7740000Y-16082500D01*
X17217500Y-19632500D02*
X17237500Y-19612500D01*
X7790000Y-18232500D02*
X7790000Y-17137500D01*
X7790000Y-17137500D02*
X7790000Y-13857500D01*
X16065000Y-19632500D02*
X17217500Y-19632500D01*
X5657500Y-11725000D02*
X7765000Y-13832500D01*
X3887500Y-11725000D02*
X5657500Y-11725000D01*
X7790000Y-13857500D02*
X7765000Y-13832500D01*
%TO.N,Net-(C210-Pad2)*%
X17737500Y-32137500D02*
X17400000Y-32475000D01*
X17400000Y-32475000D02*
X17400000Y-37987500D01*
%TO.N,Net-(C214-Pad1)*%
X16522500Y-8557500D02*
X18467500Y-10502500D01*
X15992500Y-8557500D02*
X16522500Y-8557500D01*
%TO.N,Net-(C214-Pad2)*%
X14080000Y-8545000D02*
X14092500Y-8557500D01*
X10742500Y-8545000D02*
X14080000Y-8545000D01*
D36*
%TO.N,+3.3V*%
X57562500Y-8162500D02*
X57562500Y-17062500D01*
X57562500Y-8162500D02*
X61337500Y-4387500D01*
X61337500Y-4387500D02*
X85097500Y-4387500D01*
X57562500Y-30212500D02*
X57562500Y-30987500D01*
X57562500Y-30987500D02*
X57562500Y-31157500D01*
X85097500Y-4387500D02*
X86562500Y-5852500D01*
X57562500Y-31157500D02*
X60292500Y-33887500D01*
X86562500Y-5852500D02*
X87412500Y-5852500D01*
X87412500Y-5852500D02*
X88312500Y-6752500D01*
X57562500Y-17062500D02*
X57562500Y-30212500D01*
D32*
%TO.N,Net-(C301-Pad1)*%
X86662500Y-11202500D02*
X83112500Y-11202500D01*
X80600000Y-9352500D02*
X81012500Y-9352500D01*
X81012500Y-9352500D02*
X82987500Y-11327500D01*
X83112500Y-11202500D02*
X82987500Y-11327500D01*
%TO.N,Net-(Q301-C)*%
X80742500Y-13848750D02*
X78762500Y-15828750D01*
X80742500Y-13727501D02*
X82487499Y-13727501D01*
X83752500Y-12462500D02*
X86652500Y-12462500D01*
X86652500Y-12462500D02*
X86662500Y-12472500D01*
X78762500Y-15828750D02*
X78762500Y-17040000D01*
X80742500Y-13727501D02*
X80742500Y-13848750D01*
X82987500Y-13227500D02*
X83752500Y-12462500D01*
X78935000Y-17040000D02*
X78762500Y-17040000D01*
X82487499Y-13727501D02*
X82987500Y-13227500D01*
%TO.N,Net-(U301B--)*%
X89462500Y-17562500D02*
X86672500Y-17562500D01*
X92327500Y-9277500D02*
X92887500Y-9837500D01*
X92327500Y-8727500D02*
X92327500Y-9277500D01*
X96962500Y-26587500D02*
X95987500Y-25612500D01*
X96962500Y-27600000D02*
X96962500Y-26587500D01*
X94462500Y-24087500D02*
X94462500Y-20987500D01*
X86662500Y-17552500D02*
X86662500Y-18822500D01*
X95987500Y-25612500D02*
X94462500Y-24087500D01*
X86672500Y-17562500D02*
X86662500Y-17552500D01*
%TO.N,FILTER_OUT*%
X92252500Y-6752500D02*
X92327500Y-6827500D01*
X90212500Y-6752500D02*
X92252500Y-6752500D01*
%TO.N,Net-(U301C-+)*%
X92642500Y-16282500D02*
X93462500Y-15462500D01*
X91612500Y-16282500D02*
X92642500Y-16282500D01*
X93487500Y-19687500D02*
X97312500Y-19687500D01*
X98837500Y-16412500D02*
X98827500Y-16402500D01*
X89747500Y-23427500D02*
X93487500Y-19687500D01*
X97887500Y-15462500D02*
X98827500Y-16402500D01*
X89747500Y-28287500D02*
X89747500Y-23427500D01*
X93462500Y-15462500D02*
X97887500Y-15462500D01*
X98837500Y-18162500D02*
X98837500Y-16412500D01*
X97312500Y-19687500D02*
X98837500Y-18162500D01*
%TO.N,Net-(D301-K)*%
X100612500Y-12675000D02*
X98812500Y-10875000D01*
X94150000Y-11202500D02*
X91612500Y-11202500D01*
X98827500Y-14502500D02*
X99697500Y-14502500D01*
X98812500Y-10875000D02*
X98797500Y-10890000D01*
X98797500Y-10890000D02*
X94462500Y-10890000D01*
X99697500Y-14502500D02*
X100612500Y-13587500D01*
X100612500Y-13587500D02*
X100612500Y-12675000D01*
X94462500Y-10890000D02*
X94150000Y-11202500D01*
%TO.N,Net-(U301B-+)*%
X80287500Y-15537500D02*
X79837500Y-15987500D01*
X79837500Y-15987500D02*
X79837500Y-16987500D01*
X86612500Y-36862500D02*
X88787500Y-36862500D01*
X86317500Y-15937500D02*
X81737500Y-15937500D01*
X77862500Y-36862500D02*
X76387500Y-38337500D01*
X79837500Y-16987500D02*
X81312500Y-18462500D01*
X81312500Y-21412500D02*
X78227500Y-24497500D01*
X81337500Y-15537500D02*
X80287500Y-15537500D01*
X89747500Y-35902500D02*
X88787500Y-36862500D01*
X81737500Y-15937500D02*
X81337500Y-15537500D01*
X76387500Y-38337500D02*
X76387500Y-39487500D01*
X89747500Y-33237500D02*
X89747500Y-35902500D01*
X80387500Y-34487500D02*
X80387500Y-36062500D01*
X76387500Y-39487500D02*
X77237500Y-40337500D01*
X80387500Y-36062500D02*
X79587500Y-36862500D01*
X77237500Y-40337500D02*
X83137500Y-40337500D01*
X78262500Y-25382500D02*
X78227500Y-25347500D01*
X81312500Y-18462500D02*
X81312500Y-21412500D01*
X86662500Y-16282500D02*
X86317500Y-15937500D01*
X78227500Y-24497500D02*
X78227500Y-25347500D01*
X83137500Y-40337500D02*
X86612500Y-36862500D01*
X79587500Y-36862500D02*
X77862500Y-36862500D01*
X80362500Y-34512500D02*
X80387500Y-34487500D01*
X78262500Y-27787500D02*
X78262500Y-25382500D01*
%TO.N,HP_IN*%
X76362500Y-27787500D02*
X76362500Y-25382500D01*
X76362500Y-25382500D02*
X76327500Y-25347500D01*
%TO.N,Net-(U404C--)*%
X116675000Y-44262500D02*
X115212500Y-42800000D01*
X116675000Y-45212500D02*
X116675000Y-44262500D01*
X115475000Y-43062500D02*
X115212500Y-42800000D01*
X118487500Y-43050000D02*
X118475000Y-43062500D01*
X118475000Y-43062500D02*
X115475000Y-43062500D01*
X112862500Y-41652500D02*
X114065000Y-41652500D01*
X114065000Y-41652500D02*
X115212500Y-42800000D01*
X118487500Y-38437500D02*
X118487500Y-43050000D01*
%TO.N,Net-(Q401-E)*%
X119537500Y-37337500D02*
X121762500Y-37337500D01*
X125950000Y-39987500D02*
X125837500Y-39987500D01*
X122487500Y-39912500D02*
X122487500Y-43312500D01*
X123412500Y-38987500D02*
X122487500Y-39912500D01*
X121762500Y-37337500D02*
X123412500Y-38987500D01*
X117162500Y-39437500D02*
X117162500Y-37687500D01*
X122487500Y-43312500D02*
X120625000Y-43312500D01*
X117787500Y-37062500D02*
X119262500Y-37062500D01*
X120625000Y-43312500D02*
X120375000Y-43062500D01*
X124837500Y-38987500D02*
X123412500Y-38987500D01*
X119262500Y-37062500D02*
X119537500Y-37337500D01*
X117162500Y-37687500D02*
X117787500Y-37062500D01*
X115625000Y-40975000D02*
X117162500Y-39437500D01*
X115212500Y-40975000D02*
X115625000Y-40975000D01*
X124575000Y-43312500D02*
X122487500Y-43312500D01*
X125837500Y-39987500D02*
X124837500Y-38987500D01*
%TO.N,FOLDER_IN*%
X96787500Y-21137500D02*
X96787500Y-23387500D01*
X64312500Y-28162500D02*
X64312500Y-25812500D01*
X63600000Y-16225000D02*
X62962500Y-15587500D01*
X96787500Y-23387500D02*
X96762500Y-23412500D01*
X62962500Y-15587500D02*
X62962500Y-14637500D01*
X64037500Y-28437500D02*
X64312500Y-28162500D01*
X64312500Y-25812500D02*
X63612500Y-25112500D01*
X63612500Y-16237500D02*
X63600000Y-16225000D01*
X62962500Y-14637500D02*
X63737500Y-13862500D01*
X63612500Y-25112500D02*
X63612500Y-16237500D01*
%TO.N,Net-(C406-Pad2)*%
X98662500Y-23412500D02*
X98662500Y-23115000D01*
X98662500Y-23115000D02*
X100475000Y-21302500D01*
%TO.N,Net-(U404A--)*%
X101750000Y-41175000D02*
X100187500Y-39612500D01*
X95762500Y-40887500D02*
X94537500Y-39662500D01*
X97437500Y-40887500D02*
X95762500Y-40887500D01*
X106185540Y-36572500D02*
X101750000Y-41008040D01*
X107912500Y-36572500D02*
X106185540Y-36572500D01*
X94537500Y-39662500D02*
X94550000Y-39662500D01*
X100187500Y-39612500D02*
X98712500Y-39612500D01*
X94550000Y-39662500D02*
X96837500Y-37375000D01*
X98712500Y-39612500D02*
X97437500Y-40887500D01*
X101750000Y-41008040D02*
X101750000Y-41337500D01*
X101750000Y-41337500D02*
X101750000Y-41175000D01*
%TO.N,Net-(Q406-B)*%
X107752500Y-35462500D02*
X107912500Y-35302500D01*
X96437500Y-39662500D02*
X100637500Y-35462500D01*
X100637500Y-35462500D02*
X100987500Y-35462500D01*
X100987500Y-35462500D02*
X107752500Y-35462500D01*
%TO.N,VCA_IN*%
X62637500Y-16362500D02*
X62212500Y-15937500D01*
X62212500Y-15937500D02*
X62212500Y-13937500D01*
X85787500Y-41062500D02*
X85812500Y-41037500D01*
X63287500Y-12862500D02*
X64562500Y-12862500D01*
X62212500Y-13937500D02*
X63287500Y-12862500D01*
X63987500Y-30412500D02*
X62637500Y-29062500D01*
X101187500Y-33112500D02*
X102612500Y-33112500D01*
X62637500Y-29062500D02*
X62637500Y-16362500D01*
%TO.N,Net-(C414-Pad2)*%
X106262500Y-29425000D02*
X106262500Y-31362500D01*
X106262500Y-31362500D02*
X104512500Y-33112500D01*
%TO.N,Net-(D201-A)*%
X29662500Y-22837500D02*
X29592500Y-22907500D01*
X29225000Y-17932500D02*
X29662500Y-18370000D01*
X29662500Y-18370000D02*
X29662500Y-22837500D01*
%TO.N,Net-(D202-A)*%
X31612500Y-19437500D02*
X31117500Y-18942500D01*
X37212500Y-22907500D02*
X37212500Y-21312500D01*
X30162500Y-16720000D02*
X29225000Y-15782500D01*
X31117500Y-18942500D02*
X30617500Y-18942500D01*
X30617500Y-18942500D02*
X30162500Y-18487500D01*
X30162500Y-18487500D02*
X30162500Y-16720000D01*
X37212500Y-21312500D02*
X35337500Y-19437500D01*
X35337500Y-19437500D02*
X31612500Y-19437500D01*
%TO.N,Net-(D203-A)*%
X14012500Y-22907500D02*
X14012500Y-23687500D01*
X4645000Y-14862500D02*
X5865000Y-16082500D01*
X14012500Y-23687500D02*
X13062500Y-24637500D01*
X4462500Y-14862500D02*
X4645000Y-14862500D01*
%TO.N,Net-(D204-A)*%
X6306879Y-18232500D02*
X6862500Y-18788121D01*
X6862500Y-18788121D02*
X6862500Y-22437500D01*
X5915000Y-18232500D02*
X6306879Y-18232500D01*
X6862500Y-22437500D02*
X6392500Y-22907500D01*
%TO.N,Net-(D301-A)*%
X92797500Y-12472500D02*
X93040000Y-12715000D01*
X91612500Y-12472500D02*
X92797500Y-12472500D01*
X96677500Y-14540000D02*
X96677500Y-12780000D01*
X96677500Y-12780000D02*
X96637500Y-12740000D01*
X98777500Y-12715000D02*
X98812500Y-12750000D01*
X94462500Y-12715000D02*
X98777500Y-12715000D01*
X93040000Y-12715000D02*
X94462500Y-12715000D01*
D33*
%TO.N,SDA*%
X53587500Y-6187500D02*
X56825000Y-2950000D01*
X53587500Y-36387500D02*
X53212500Y-36762500D01*
X53587500Y-6187500D02*
X53587500Y-36387500D01*
%TO.N,SCL*%
X57212500Y-1062500D02*
X87587500Y-1062500D01*
X87552500Y-8812500D02*
X88312500Y-8052500D01*
X52737500Y-35587500D02*
X52162500Y-36162500D01*
X52737500Y-6737500D02*
X52737500Y-35587500D01*
X87412500Y-8812500D02*
X87552500Y-8812500D01*
X87587500Y-1062500D02*
X89362500Y-2837500D01*
X52737500Y-5537500D02*
X57212500Y-1062500D01*
X52737500Y-6737500D02*
X52737500Y-5537500D01*
%TO.N,FOLD_FIRST*%
X66162500Y-33412500D02*
X66162500Y-37112500D01*
X56137500Y-47887500D02*
X54887500Y-46637500D01*
X67887500Y-27387500D02*
X68712500Y-26562500D01*
X67887500Y-31687500D02*
X66162500Y-33412500D01*
X61187500Y-42087500D02*
X63912500Y-39362500D01*
X54887500Y-44762500D02*
X57562500Y-42087500D01*
X68712500Y-26562500D02*
X68712500Y-16637500D01*
X68712500Y-16637500D02*
X67887500Y-15812500D01*
X63912500Y-39362500D02*
X66162500Y-37112500D01*
X57562500Y-42087500D02*
X61187500Y-42087500D01*
X67887500Y-31687500D02*
X67887500Y-27387500D01*
X54887500Y-46637500D02*
X54887500Y-44762500D01*
%TO.N,HP_MODE*%
X52362500Y-44162500D02*
X55237500Y-41287500D01*
X53597500Y-47887500D02*
X52362500Y-46652500D01*
X55237500Y-41287500D02*
X60437500Y-41287500D01*
X64912500Y-15762500D02*
X64312500Y-15162500D01*
X52362500Y-46652500D02*
X52362500Y-44162500D01*
X60437500Y-41287500D02*
X64912500Y-36812500D01*
X64912500Y-36812500D02*
X64912500Y-15762500D01*
D34*
%TO.N,LEVEL_1_CV*%
X35662500Y-32075000D02*
X35662500Y-34462500D01*
X35662500Y-34462500D02*
X43437500Y-42237500D01*
X43437500Y-42237500D02*
X43437500Y-45347500D01*
%TO.N,LEVEL_2_CV*%
X16512500Y-35855000D02*
X12752500Y-32095000D01*
X44662500Y-46662500D02*
X41962500Y-46662500D01*
X41962500Y-46662500D02*
X36337500Y-41037500D01*
X45977500Y-45347500D02*
X44662500Y-46662500D01*
X18537500Y-41037500D02*
X16512500Y-39012500D01*
X36337500Y-41037500D02*
X18537500Y-41037500D01*
X16512500Y-39012500D02*
X16512500Y-35855000D01*
%TO.N,PWM_1_CV*%
X21950000Y-14168604D02*
X21950000Y-15475000D01*
X48517500Y-44042500D02*
X46662500Y-42187500D01*
X23076104Y-13042500D02*
X21950000Y-14168604D01*
X23417500Y-13042500D02*
X23076104Y-13042500D01*
X48517500Y-45347500D02*
X48517500Y-44042500D01*
X22187500Y-15712500D02*
X21950000Y-15475000D01*
X22187500Y-24187500D02*
X22187500Y-15712500D01*
%TO.N,PWM_2_CV*%
X21837500Y-25062500D02*
X23612500Y-25062500D01*
X20962500Y-13537500D02*
X20962500Y-24187500D01*
X47912500Y-41912500D02*
X47912500Y-42202500D01*
X19197500Y-11772500D02*
X20962500Y-13537500D01*
X20962500Y-24187500D02*
X21637500Y-24862500D01*
X18467500Y-11772500D02*
X19197500Y-11772500D01*
X21637500Y-24862500D02*
X21837500Y-25062500D01*
X47912500Y-42202500D02*
X51057500Y-45347500D01*
%TO.N,FOLD_CV*%
X112912500Y-45212500D02*
X114850000Y-45212500D01*
%TO.N,VCA_CV*%
X58677500Y-45347500D02*
X59987500Y-44037500D01*
X98087500Y-41337500D02*
X95387500Y-44037500D01*
X59987500Y-44037500D02*
X95387500Y-44037500D01*
X99925000Y-41337500D02*
X98087500Y-41337500D01*
D32*
%TO.N,VCA_OUT*%
X98152500Y-43972500D02*
X99930000Y-43972500D01*
X58677500Y-47887500D02*
X60002500Y-46562500D01*
%TO.N,Net-(Q201-B)*%
X43287500Y-34262500D02*
X44387500Y-33162500D01*
X41675000Y-34262500D02*
X43287500Y-34262500D01*
X44387500Y-30867500D02*
X43252500Y-29732500D01*
X44387500Y-33162500D02*
X44387500Y-30867500D01*
%TO.N,Net-(Q201-C)*%
X43837500Y-28387500D02*
X41220000Y-28387500D01*
X45252500Y-30682500D02*
X45252500Y-29802500D01*
X41220000Y-28387500D02*
X41215000Y-28382500D01*
X45252500Y-29802500D02*
X43837500Y-28387500D01*
%TO.N,Net-(Q202-B)*%
X21000000Y-34275000D02*
X21062500Y-34212500D01*
X21037500Y-34237500D02*
X21037500Y-30717500D01*
X21000000Y-34275000D02*
X21037500Y-34237500D01*
X21037500Y-30717500D02*
X20052500Y-29732500D01*
X20135000Y-35140000D02*
X21000000Y-34275000D01*
X20135000Y-35787500D02*
X20135000Y-35140000D01*
%TO.N,Net-(Q202-C)*%
X20137500Y-27862500D02*
X20117500Y-27882500D01*
X22052500Y-30682500D02*
X22052500Y-29777500D01*
X22052500Y-29777500D02*
X20137500Y-27862500D01*
X20117500Y-27882500D02*
X17865000Y-27882500D01*
%TO.N,Net-(Q301-B)*%
X76512501Y-9352500D02*
X76512501Y-5830001D01*
X76512501Y-5830001D02*
X76495000Y-5812500D01*
X78742500Y-11582499D02*
X76512501Y-9352500D01*
X78742500Y-12777501D02*
X78742500Y-11582499D01*
%TO.N,Net-(Q301-E)*%
X74862500Y-14262500D02*
X76437500Y-12687500D01*
X77262500Y-12687500D02*
X78742500Y-14167500D01*
X74862500Y-14677500D02*
X74862500Y-14262500D01*
X79787500Y-13632501D02*
X78742500Y-14677501D01*
X78775000Y-9352500D02*
X79787500Y-10365000D01*
X76437500Y-12687500D02*
X77262500Y-12687500D01*
X78742500Y-14167500D02*
X78742500Y-14677501D01*
X79787500Y-10365000D02*
X79787500Y-13632501D01*
%TO.N,Net-(Q302-C)*%
X79212500Y-22537500D02*
X79212500Y-21162500D01*
X76862500Y-18812500D02*
X76862500Y-13727500D01*
X76225000Y-29875000D02*
X74562500Y-28212500D01*
X78212500Y-23537500D02*
X79212500Y-22537500D01*
X76662500Y-29850000D02*
X76637500Y-29875000D01*
X79212500Y-21162500D02*
X76862500Y-18812500D01*
X76637500Y-29875000D02*
X76225000Y-29875000D01*
X75987500Y-23537500D02*
X78212500Y-23537500D01*
X80162500Y-29850000D02*
X76662500Y-29850000D01*
X74562500Y-28212500D02*
X74562500Y-24962500D01*
X74562500Y-24962500D02*
X75987500Y-23537500D01*
%TO.N,Net-(Q401-B)*%
X123437500Y-46237500D02*
X125512500Y-44162500D01*
X115762500Y-45804460D02*
X116195540Y-46237500D01*
X125512500Y-41450000D02*
X124050000Y-39987500D01*
X112862500Y-42922500D02*
X113272500Y-42922500D01*
X115054460Y-43912500D02*
X115762500Y-44620540D01*
X114262500Y-43912500D02*
X115054460Y-43912500D01*
X116195540Y-46237500D02*
X123437500Y-46237500D01*
X113272500Y-42922500D02*
X114262500Y-43912500D01*
X125512500Y-44162500D02*
X125512500Y-41450000D01*
X115762500Y-44620540D02*
X115762500Y-45804460D01*
%TO.N,Net-(Q401-C)*%
X125000000Y-37987500D02*
X124862500Y-37987500D01*
X120300000Y-36262500D02*
X120287500Y-36250000D01*
X124862500Y-37987500D02*
X123137500Y-36262500D01*
X123137500Y-36262500D02*
X120300000Y-36262500D01*
%TO.N,Net-(Q402-B)*%
X107537500Y-14437500D02*
X108187500Y-15087500D01*
X115662500Y-17112500D02*
X115662500Y-18737500D01*
X115662500Y-18737500D02*
X116987500Y-20062500D01*
X107537500Y-13722500D02*
X107537500Y-14437500D01*
X119902501Y-20062500D02*
X119927500Y-20037501D01*
X119912500Y-15962500D02*
X116812500Y-15962500D01*
X116987500Y-20062500D02*
X119902501Y-20062500D01*
X107537500Y-12452500D02*
X107537500Y-13722500D01*
X116812500Y-15962500D02*
X115662500Y-17112500D01*
%TO.N,Net-(Q402-E)*%
X123750000Y-20712500D02*
X122502499Y-20712500D01*
X122502499Y-20712500D02*
X121827500Y-20037501D01*
%TO.N,Net-(Q402-C)*%
X120877500Y-18037501D02*
X116925001Y-18037501D01*
X120877500Y-18037501D02*
X120877500Y-13977500D01*
X116925001Y-18037501D02*
X116625000Y-17737500D01*
X120877500Y-13977500D02*
X120862500Y-13962500D01*
%TO.N,Net-(Q403-E)*%
X121812500Y-15962500D02*
X123750000Y-15962500D01*
%TO.N,Net-(Q404-B)*%
X120012500Y-11362500D02*
X120012500Y-7432500D01*
X112487500Y-13722500D02*
X116110000Y-13722500D01*
X116110000Y-13722500D02*
X116412500Y-14025000D01*
X116412500Y-14025000D02*
X117350000Y-14025000D01*
X117350000Y-14025000D02*
X120012500Y-11362500D01*
X120012500Y-7432500D02*
X119997500Y-7417500D01*
%TO.N,Net-(Q404-E)*%
X121912500Y-11362500D02*
X123390000Y-11362500D01*
X123390000Y-11362500D02*
X123835000Y-10917500D01*
%TO.N,Net-(Q404-C)*%
X120962500Y-5432500D02*
X120947500Y-5417500D01*
X117620000Y-5417500D02*
X120947500Y-5417500D01*
X120962500Y-9362500D02*
X120962500Y-5432500D01*
X116675000Y-6362500D02*
X117620000Y-5417500D01*
%TO.N,Net-(Q405-E)*%
X121897500Y-7417500D02*
X122635000Y-7417500D01*
X122635000Y-7417500D02*
X123835000Y-6217500D01*
%TO.N,Net-(Q406-E)*%
X99087500Y-33475000D02*
X99087500Y-35462500D01*
X96837500Y-35550000D02*
X99000000Y-35550000D01*
X99000000Y-35550000D02*
X99087500Y-35462500D01*
%TO.N,Net-(Q406-C)*%
X101087500Y-30687500D02*
X100450000Y-30687500D01*
X100037500Y-37462500D02*
X101237500Y-37462500D01*
X100450000Y-30687500D02*
X99187500Y-29425000D01*
%TO.N,Net-(U201D--)*%
X30665000Y-22710000D02*
X30862500Y-22907500D01*
X30862500Y-23263038D02*
X30862500Y-22907500D01*
X30665000Y-20332500D02*
X30665000Y-22710000D01*
X25937500Y-22850000D02*
X27000000Y-22850000D01*
X28687500Y-24537500D02*
X29588038Y-24537500D01*
X29588038Y-24537500D02*
X30862500Y-23263038D01*
X27000000Y-22850000D02*
X28687500Y-24537500D01*
%TO.N,Net-(U201C--)*%
X39390000Y-24035000D02*
X39390000Y-22882500D01*
X39390000Y-22882500D02*
X39390000Y-19027500D01*
X35942500Y-24017500D02*
X36837500Y-24912500D01*
X38512500Y-24912500D02*
X39390000Y-24035000D01*
X39390000Y-19027500D02*
X39175000Y-18812500D01*
X35942500Y-22907500D02*
X35942500Y-24017500D01*
X36837500Y-24912500D02*
X38512500Y-24912500D01*
%TO.N,TRI1_FULL*%
X44162500Y-15362500D02*
X42262500Y-17262500D01*
X49712500Y-13887500D02*
X48237500Y-15362500D01*
X48237500Y-15362500D02*
X44162500Y-15362500D01*
X42262500Y-17262500D02*
X39020000Y-17262500D01*
X39020000Y-17262500D02*
X37590000Y-15832500D01*
X48937500Y-9962500D02*
X49712500Y-10737500D01*
X49712500Y-10737500D02*
X49712500Y-13887500D01*
X34952500Y-15832500D02*
X37590000Y-15832500D01*
%TO.N,Net-(U202D--)*%
X7662500Y-22907500D02*
X7662500Y-20535000D01*
X5675538Y-25250000D02*
X7662500Y-23263038D01*
X4472500Y-25250000D02*
X5675538Y-25250000D01*
X7662500Y-23263038D02*
X7662500Y-22907500D01*
X7662500Y-20535000D02*
X7765000Y-20432500D01*
%TO.N,Net-(U202C--)*%
X12742500Y-21130000D02*
X14240000Y-19632500D01*
X16040000Y-21432500D02*
X14240000Y-19632500D01*
X16040000Y-22882500D02*
X16040000Y-21432500D01*
X12742500Y-22907500D02*
X12742500Y-21130000D01*
%TO.N,TRI2_FULL*%
X25237500Y-21537500D02*
X24212500Y-22562500D01*
X13037500Y-16082500D02*
X14240000Y-16082500D01*
X11952500Y-16082500D02*
X13037500Y-16082500D01*
X27412500Y-21537500D02*
X25237500Y-21537500D01*
%TO.N,PULSE2_FULL*%
X8457500Y-10354999D02*
X10727499Y-10354999D01*
X13412500Y-10362500D02*
X10750000Y-10362500D01*
X10750000Y-10362500D02*
X10742500Y-10370000D01*
X10727499Y-10354999D02*
X10742500Y-10370000D01*
%TO.N,PULSE1_FULL*%
X32892500Y-8175000D02*
X35292500Y-8175000D01*
X35305000Y-8162500D02*
X35292500Y-8175000D01*
X37837500Y-8162500D02*
X35305000Y-8162500D01*
%TO.N,Net-(U203C-P2W)*%
X59387500Y-17887500D02*
X59387500Y-13812500D01*
X58712500Y-18562500D02*
X59387500Y-17887500D01*
%TO.N,Net-(U204A--)*%
X46137500Y-39012500D02*
X46137500Y-35787500D01*
X46137500Y-35787500D02*
X46137500Y-32312500D01*
%TO.N,Net-(U205A-P0W)*%
X47637500Y-25612500D02*
X47637500Y-22462500D01*
X51962500Y-29937500D02*
X47637500Y-25612500D01*
%TO.N,Net-(U205C-P2W)*%
X51637500Y-34762500D02*
X49337500Y-32462500D01*
X51862500Y-34762500D02*
X51637500Y-34762500D01*
X49337500Y-32462500D02*
X49337500Y-30612500D01*
%TO.N,Net-(U205D-P3W)*%
X50712500Y-40487500D02*
X56587500Y-40487500D01*
%TO.N,OSC_MIX*%
X68637500Y-32287500D02*
X68662500Y-32312500D01*
X68637500Y-27812500D02*
X68637500Y-32287500D01*
%TO.N,Net-(U303C-+)*%
X82287500Y-35937500D02*
X80475000Y-37750000D01*
X80475000Y-37750000D02*
X78787500Y-37750000D01*
X82287500Y-35937500D02*
X84863038Y-35937500D01*
X87207500Y-33593038D02*
X87207500Y-33237500D01*
X84863038Y-35937500D02*
X87207500Y-33593038D01*
%TO.N,Net-(U301C--)*%
X78787500Y-35112500D02*
X78112500Y-34437500D01*
X89405000Y-21030000D02*
X91612500Y-18822500D01*
X88332500Y-22102500D02*
X89405000Y-21030000D01*
X78787500Y-35925000D02*
X78787500Y-35112500D01*
X91612500Y-18822500D02*
X91612500Y-17552500D01*
X87750000Y-22102500D02*
X88332500Y-22102500D01*
%TO.N,Net-(R306-Pad2)*%
X84667500Y-29767500D02*
X84667500Y-28287500D01*
X80162500Y-31675000D02*
X82800000Y-31675000D01*
X84687500Y-29787500D02*
X84667500Y-29767500D01*
X82800000Y-31675000D02*
X84687500Y-29787500D01*
%TO.N,Net-(R307-Pad2)*%
X76775000Y-31700000D02*
X78337500Y-33262500D01*
X78337500Y-33262500D02*
X78362500Y-33237500D01*
X76637500Y-31700000D02*
X76775000Y-31700000D01*
X78362500Y-33237500D02*
X84667500Y-33237500D01*
%TO.N,Net-(U303A--)*%
X88477500Y-28287500D02*
X88477500Y-26240000D01*
X82425000Y-24933040D02*
X85255540Y-22102500D01*
X82425000Y-25337500D02*
X82425000Y-24933040D01*
X88162500Y-25925000D02*
X85925000Y-23687500D01*
X85925000Y-23687500D02*
X85925000Y-22102500D01*
X88477500Y-26240000D02*
X88162500Y-25925000D01*
X85255540Y-22102500D02*
X85925000Y-22102500D01*
%TO.N,Net-(U303A-+)*%
X87207500Y-28287500D02*
X87207500Y-27931962D01*
X85200538Y-25925000D02*
X84762500Y-25925000D01*
X87207500Y-27931962D02*
X85200538Y-25925000D01*
%TO.N,LP_IN*%
X81887500Y-18162500D02*
X81887500Y-21912500D01*
X80912500Y-17187500D02*
X81887500Y-18162500D01*
X80600000Y-23200000D02*
X80600000Y-25337500D01*
X80912500Y-16487500D02*
X80912500Y-17187500D01*
X81887500Y-21912500D02*
X80600000Y-23200000D01*
%TO.N,Net-(U303C--)*%
X87837500Y-35950000D02*
X88477500Y-35310000D01*
X88477500Y-32222500D02*
X90087500Y-30612500D01*
X88477500Y-33237500D02*
X88477500Y-32222500D01*
X90087500Y-30612500D02*
X95775000Y-30612500D01*
X95775000Y-30612500D02*
X96962500Y-29425000D01*
X88477500Y-35310000D02*
X88477500Y-33237500D01*
%TO.N,Net-(U402A--)*%
X102300000Y-21302500D02*
X102300000Y-24737500D01*
X103662500Y-19940000D02*
X102300000Y-21302500D01*
X102300000Y-24737500D02*
X102325000Y-24762500D01*
X109377500Y-20242500D02*
X109377500Y-17927500D01*
X107162500Y-15712500D02*
X104587500Y-15712500D01*
X104587500Y-15712500D02*
X103662500Y-16637500D01*
X103662500Y-16637500D02*
X103662500Y-19940000D01*
X109377500Y-17927500D02*
X107162500Y-15712500D01*
%TO.N,Net-(U402A-+)*%
X108107500Y-19886962D02*
X108107500Y-20242500D01*
X105633038Y-17412500D02*
X108107500Y-19886962D01*
X104575000Y-17412500D02*
X105633038Y-17412500D01*
%TO.N,Net-(R408-Pad1)*%
X120312500Y-28662500D02*
X120312500Y-34400000D01*
X120312500Y-34400000D02*
X120287500Y-34425000D01*
X114462500Y-22812500D02*
X120312500Y-28662500D01*
X106987500Y-22812500D02*
X114462500Y-22812500D01*
X105567500Y-20242500D02*
X105567500Y-21392500D01*
X105567500Y-21392500D02*
X106987500Y-22812500D01*
%TO.N,Net-(R409-Pad1)*%
X102825000Y-6562500D02*
X104150000Y-6562500D01*
X105215000Y-6102500D02*
X104912500Y-5800000D01*
X104150000Y-6562500D02*
X104912500Y-5800000D01*
X107537500Y-6102500D02*
X105215000Y-6102500D01*
%TO.N,Net-(U403A--)*%
X107537500Y-7372500D02*
X107893038Y-7372500D01*
X104912500Y-7625000D02*
X107285000Y-7625000D01*
X109412500Y-16612500D02*
X110612500Y-17812500D01*
X110008038Y-9487500D02*
X110008038Y-11816962D01*
X110612500Y-20207500D02*
X110647500Y-20242500D01*
X107893038Y-7372500D02*
X110008038Y-9487500D01*
X110008038Y-11816962D02*
X109412500Y-12412500D01*
X107285000Y-7625000D02*
X107537500Y-7372500D01*
X110612500Y-17812500D02*
X110612500Y-20207500D01*
X109412500Y-12412500D02*
X109412500Y-16612500D01*
%TO.N,Net-(U403B-+)*%
X101000000Y-4342500D02*
X101000000Y-6562500D01*
X105967500Y-11182500D02*
X107537500Y-11182500D01*
X101000000Y-6562500D02*
X101000000Y-10975000D01*
X102587500Y-12562500D02*
X104587500Y-12562500D01*
X104587500Y-12562500D02*
X105967500Y-11182500D01*
X101000000Y-10975000D02*
X102587500Y-12562500D01*
%TO.N,Net-(U403C--)*%
X110287500Y-14062500D02*
X110287500Y-13112500D01*
X112487500Y-12452500D02*
X116160000Y-12452500D01*
X114800000Y-16600000D02*
X113037500Y-14837500D01*
X116160000Y-12452500D02*
X116412500Y-12200000D01*
X111062500Y-14837500D02*
X110287500Y-14062500D01*
X110962500Y-12437500D02*
X110977500Y-12452500D01*
X110287500Y-13112500D02*
X110962500Y-12437500D01*
X110977500Y-12452500D02*
X112487500Y-12452500D01*
X113037500Y-14837500D02*
X111062500Y-14837500D01*
X114800000Y-17737500D02*
X114800000Y-16600000D01*
%TO.N,Net-(R418-Pad1)*%
X110375000Y-2612500D02*
X112700000Y-2612500D01*
%TO.N,Net-(U403D--)*%
X114525000Y-6037500D02*
X114850000Y-6362500D01*
X113840000Y-7372500D02*
X112487500Y-7372500D01*
X114850000Y-6362500D02*
X113840000Y-7372500D01*
X114525000Y-2612500D02*
X114525000Y-6037500D01*
%TO.N,FOLDER_OUT*%
X73337500Y-22312500D02*
X74525000Y-22312500D01*
%TO.N,Net-(R424-Pad1)*%
X105567500Y-25192500D02*
X105015540Y-25192500D01*
X100650000Y-26137500D02*
X99187500Y-27600000D01*
X105015540Y-25192500D02*
X104070540Y-26137500D01*
X104070540Y-26137500D02*
X100650000Y-26137500D01*
%TO.N,Net-(U404B--)*%
X106385000Y-41652500D02*
X104287500Y-43750000D01*
X110012500Y-40962500D02*
X110012500Y-28737500D01*
X107912500Y-41652500D02*
X106385000Y-41652500D01*
X110637500Y-28112500D02*
X110637500Y-25202500D01*
X109322500Y-41652500D02*
X110012500Y-40962500D01*
X107912500Y-41652500D02*
X109322500Y-41652500D01*
X110637500Y-25202500D02*
X110647500Y-25192500D01*
X110012500Y-28737500D02*
X110637500Y-28112500D01*
%TO.N,Net-(R425-Pad2)*%
X102685000Y-43972500D02*
X104287500Y-45575000D01*
X105260000Y-45575000D02*
X107912500Y-42922500D01*
X104287500Y-45575000D02*
X105260000Y-45575000D01*
X101755000Y-43972500D02*
X102685000Y-43972500D01*
%TO.N,Net-(U402C-+)*%
X104950000Y-26762500D02*
X104112500Y-27600000D01*
X108107500Y-25548038D02*
X106893038Y-26762500D01*
X106893038Y-26762500D02*
X104950000Y-26762500D01*
X108107500Y-25192500D02*
X108107500Y-25548038D01*
%TO.N,Net-(U402C--)*%
X106262500Y-27600000D02*
X108462500Y-27600000D01*
X109377500Y-26685000D02*
X108462500Y-27600000D01*
X109377500Y-25192500D02*
X109377500Y-26685000D01*
%TO.N,Net-(U301D-+)*%
X91612500Y-13742500D02*
X90092500Y-13742500D01*
X90757500Y-7402500D02*
X90212500Y-7402500D01*
X89112500Y-12762500D02*
X89112500Y-10712500D01*
X91037500Y-7682500D02*
X90757500Y-7402500D01*
X90092500Y-13742500D02*
X89112500Y-12762500D01*
X89112500Y-10712500D02*
X91037500Y-8787500D01*
X91037500Y-8787500D02*
X91037500Y-7682500D01*
%TO.N,FILTER_IN*%
X73737500Y-13887500D02*
X73737500Y-20487500D01*
X73737500Y-20487500D02*
X72437500Y-21787500D01*
X72437500Y-27482000D02*
X70112500Y-29807000D01*
X72437500Y-21787500D02*
X72437500Y-27482000D01*
%TO.N,Net-(U201A--)*%
X30862500Y-26412500D02*
X30862500Y-27857500D01*
X29592500Y-27857500D02*
X30862500Y-27857500D01*
X33912500Y-25512500D02*
X31762500Y-25512500D01*
X34672500Y-22907500D02*
X34672500Y-24752500D01*
X34672500Y-24752500D02*
X33912500Y-25512500D01*
X31762500Y-25512500D02*
X30862500Y-26412500D01*
X25937500Y-24675000D02*
X26410000Y-24675000D01*
X26410000Y-24675000D02*
X29592500Y-27857500D01*
%TO.N,Net-(R202-Pad2)*%
X27262500Y-13920000D02*
X27247500Y-13905000D01*
X27262500Y-18755000D02*
X27262500Y-13920000D01*
X28840000Y-20332500D02*
X27262500Y-18755000D01*
%TO.N,Net-(U202A--)*%
X9576962Y-25587500D02*
X7662500Y-27501962D01*
X11472500Y-22907500D02*
X11472500Y-23727500D01*
X4472500Y-27075000D02*
X5610000Y-27075000D01*
X11472500Y-23727500D02*
X9612500Y-25587500D01*
X5610000Y-27075000D02*
X6392500Y-27857500D01*
X9612500Y-25587500D02*
X9576962Y-25587500D01*
X7662500Y-27501962D02*
X7662500Y-27857500D01*
X6392500Y-27857500D02*
X7662500Y-27857500D01*
%TO.N,Net-(R218-Pad2)*%
X4632500Y-20432500D02*
X3012500Y-18812500D01*
X5940000Y-20432500D02*
X4632500Y-20432500D01*
X3012500Y-18812500D02*
X3012500Y-14425000D01*
X3012500Y-14425000D02*
X3887500Y-13550000D01*
%TO.N,Net-(R420-Pad2)*%
X76350000Y-18375000D02*
X76337500Y-18362500D01*
X96387500Y-2612500D02*
X108550000Y-2612500D01*
X108525000Y-2587500D02*
X108550000Y-2612500D01*
X76337500Y-18362500D02*
X76337500Y-16437500D01*
X76350000Y-22312500D02*
X76350000Y-18375000D01*
X112487500Y-6102500D02*
X112040000Y-6102500D01*
X112040000Y-6102500D02*
X108550000Y-2612500D01*
X76337500Y-16437500D02*
X75562500Y-15662500D01*
%TD*%
M02*
