M48
; DRILL file {KiCad 7.0.7} date 2024 June 06, Thursday 22:47:24
; FORMAT={3:3/ absolute / metric / suppress leading zeros}
; #@! TF.CreationDate,2024-06-06T22:47:24-06:00
; #@! TF.GenerationSoftware,Kicad,Pcbnew,7.0.7
; #@! TF.FileFunction,MixedPlating,1,4
FMAT,2
METRIC,TZ
; #@! TA.AperFunction,Plated,PTH,ViaDrill
T1C0.350
; #@! TA.AperFunction,Plated,PTH,ViaDrill
T2C0.400
; #@! TA.AperFunction,Plated,PTH,ViaDrill
T3C0.500
; #@! TA.AperFunction,Plated,PTH,ComponentDrill
T4C1.000
%
G90
G05
T1
X22188Y-24188
X23612Y-25063
X46663Y-42188
X47912Y-41913
X52163Y-36163
X52738Y-6738
X53213Y-36762
X53588Y-6188
X64313Y-15163
X67888Y-15813
X67888Y-31688
X87413Y-8813
X89363Y-2838
X112913Y-45213
T2
X4462Y-14863
X4988Y-12638
X6413Y-32163
X7790Y-17138
X8463Y-7088
X10213Y-17638
X11438Y-31138
X11987Y-26488
X13038Y-16083
X13063Y-24638
X13413Y-10362
X15163Y-14088
X15713Y-12988
X17238Y-19613
X17838Y-21338
X19263Y-19463
X20188Y-14288
X21838Y-7763
X23488Y-30788
X24063Y-5613
X24213Y-22563
X25513Y-15813
X27413Y-21537
X29913Y-34137
X30088Y-14563
X31013Y-38188
X31938Y-21037
X32313Y-11813
X33387Y-24612
X33413Y-26513
X34463Y-33588
X34887Y-25713
X35238Y-18513
X35313Y-11438
X35313Y-42512
X37838Y-8163
X38238Y-29138
X40663Y-15838
X42588Y-22888
X44325Y-38450
X46113Y-25863
X46137Y-32313
X46137Y-35788
X46137Y-39012
X47338Y-26713
X47637Y-22463
X48113Y-13388
X48938Y-9963
X49338Y-30613
X49887Y-8788
X50063Y-14988
X50713Y-40488
X51012Y-31013
X51563Y-39688
X51863Y-34762
X51963Y-29938
X52239Y-41439
X54488Y-13388
X54713Y-21738
X56313Y-12337
X56588Y-40488
X56613Y-19138
X56713Y-7363
X58113Y-32963
X58388Y-38238
X58638Y-40163
X58713Y-18563
X59388Y-13813
X60288Y-29388
X61013Y-27188
X63388Y-26188
X63738Y-13863
X63988Y-30413
X64038Y-28438
X64563Y-12863
X66138Y-22738
X66413Y-5938
X68363Y-8438
X68638Y-27813
X68663Y-32313
X68763Y-42788
X68837Y-41063
X70113Y-29807
X70663Y-15238
X71962Y-37163
X73143Y-33435
X73337Y-9338
X73337Y-22313
X73738Y-13888
X73962Y-35438
X75388Y-18863
X75563Y-15663
X76363Y-27788
X78000Y-41063
X78113Y-34438
X78263Y-27788
X80388Y-18863
X80388Y-34488
X80913Y-16488
X81538Y-2213
X82313Y-38913
X83538Y-24938
X83663Y-5863
X84288Y-17963
X85813Y-41038
X86800Y-42750
X87837Y-38788
X88513Y-13763
X88788Y-16037
X89138Y-22563
X89405Y-21030
X89462Y-17563
X90063Y-15013
X90788Y-24112
X91712Y-39088
X92888Y-9838
X93488Y-17263
X93513Y-26063
X94462Y-20988
X96337Y-31663
X96387Y-2613
X96788Y-21138
X99087Y-25088
X101087Y-30688
X101188Y-33113
X101238Y-37463
X101313Y-17412
X101962Y-9938
X104063Y-3838
X104638Y-41762
X105663Y-38438
X108188Y-15088
X108438Y-30988
X108988Y-9913
X110813Y-10338
X110863Y-8112
X110863Y-39512
X111088Y-41338
X111388Y-21963
X112188Y-30963
X113388Y-16838
X115163Y-35288
X116988Y-20063
X117013Y-30438
X117638Y-8813
X121563Y-38788
X124438Y-4087
X125613Y-22388
X125663Y-12612
X127588Y-18588
X127863Y-41938
T3
X57563Y-17063
X57563Y-30988
X60293Y-33887
T4
X43438Y-45348
X43438Y-47887
X45978Y-45348
X45978Y-47887
X48518Y-45348
X48518Y-47887
X51058Y-45348
X51058Y-47887
X53597Y-45348
X53597Y-47887
X56138Y-45348
X56138Y-47887
X58678Y-45348
X58678Y-47887
X61218Y-45348
X61218Y-47887
X63758Y-45348
X63758Y-47887
T0
M30
