%TF.GenerationSoftware,KiCad,Pcbnew,7.0.7*%
%TF.CreationDate,2024-06-06T22:47:17-06:00*%
%TF.ProjectId,VoiceBoardR2,566f6963-6542-46f6-9172-6452322e6b69,rev?*%
%TF.SameCoordinates,Original*%
%TF.FileFunction,Copper,L4,Bot*%
%TF.FilePolarity,Positive*%
%FSLAX46Y46*%
G04 Gerber Fmt 4.6, Leading zero omitted, Abs format (unit mm)*
G04 Created by KiCad (PCBNEW 7.0.7) date 2024-06-06 22:47:17*
%MOMM*%
%LPD*%
G01*
G04 APERTURE LIST*
G04 Aperture macros list*
%AMRoundRect*
0 Rectangle with rounded corners*
0 $1 Rounding radius*
0 $2 $3 $4 $5 $6 $7 $8 $9 X,Y pos of 4 corners*
0 Add a 4 corners polygon primitive as box body*
4,1,4,$2,$3,$4,$5,$6,$7,$8,$9,$2,$3,0*
0 Add four circle primitives for the rounded corners*
1,1,$1+$1,$2,$3*
1,1,$1+$1,$4,$5*
1,1,$1+$1,$6,$7*
1,1,$1+$1,$8,$9*
0 Add four rect primitives between the rounded corners*
20,1,$1+$1,$2,$3,$4,$5,0*
20,1,$1+$1,$4,$5,$6,$7,0*
20,1,$1+$1,$6,$7,$8,$9,0*
20,1,$1+$1,$8,$9,$2,$3,0*%
G04 Aperture macros list end*
%TA.AperFunction,SMDPad,CuDef*%
%ADD10C,1.000000*%
%TD*%
%TA.AperFunction,ComponentPad*%
%ADD11R,1.700000X1.700000*%
%TD*%
%TA.AperFunction,ComponentPad*%
%ADD12O,1.700000X1.700000*%
%TD*%
%TA.AperFunction,SMDPad,CuDef*%
%ADD13RoundRect,0.250000X-0.262500X-0.450000X0.262500X-0.450000X0.262500X0.450000X-0.262500X0.450000X0*%
%TD*%
%TA.AperFunction,SMDPad,CuDef*%
%ADD14RoundRect,0.250000X0.475000X-0.250000X0.475000X0.250000X-0.475000X0.250000X-0.475000X-0.250000X0*%
%TD*%
%TA.AperFunction,SMDPad,CuDef*%
%ADD15RoundRect,0.250000X0.450000X-0.262500X0.450000X0.262500X-0.450000X0.262500X-0.450000X-0.262500X0*%
%TD*%
%TA.AperFunction,SMDPad,CuDef*%
%ADD16RoundRect,0.250000X-0.475000X0.250000X-0.475000X-0.250000X0.475000X-0.250000X0.475000X0.250000X0*%
%TD*%
%TA.AperFunction,SMDPad,CuDef*%
%ADD17RoundRect,0.250000X-0.250000X-0.475000X0.250000X-0.475000X0.250000X0.475000X-0.250000X0.475000X0*%
%TD*%
%TA.AperFunction,SMDPad,CuDef*%
%ADD18RoundRect,0.250000X0.262500X0.450000X-0.262500X0.450000X-0.262500X-0.450000X0.262500X-0.450000X0*%
%TD*%
%TA.AperFunction,SMDPad,CuDef*%
%ADD19RoundRect,0.100000X0.100000X-0.637500X0.100000X0.637500X-0.100000X0.637500X-0.100000X-0.637500X0*%
%TD*%
%TA.AperFunction,SMDPad,CuDef*%
%ADD20RoundRect,0.250000X0.250000X0.475000X-0.250000X0.475000X-0.250000X-0.475000X0.250000X-0.475000X0*%
%TD*%
%TA.AperFunction,SMDPad,CuDef*%
%ADD21RoundRect,0.100000X-0.100000X0.637500X-0.100000X-0.637500X0.100000X-0.637500X0.100000X0.637500X0*%
%TD*%
%TA.AperFunction,SMDPad,CuDef*%
%ADD22RoundRect,0.100000X0.637500X0.100000X-0.637500X0.100000X-0.637500X-0.100000X0.637500X-0.100000X0*%
%TD*%
%TA.AperFunction,SMDPad,CuDef*%
%ADD23RoundRect,0.150000X-0.825000X-0.150000X0.825000X-0.150000X0.825000X0.150000X-0.825000X0.150000X0*%
%TD*%
%TA.AperFunction,SMDPad,CuDef*%
%ADD24RoundRect,0.250000X-0.450000X0.262500X-0.450000X-0.262500X0.450000X-0.262500X0.450000X0.262500X0*%
%TD*%
%TA.AperFunction,ViaPad*%
%ADD25C,0.800000*%
%TD*%
%TA.AperFunction,ViaPad*%
%ADD26C,1.000000*%
%TD*%
%TA.AperFunction,ViaPad*%
%ADD27C,0.650000*%
%TD*%
%TA.AperFunction,Conductor*%
%ADD28C,0.250000*%
%TD*%
%TA.AperFunction,Conductor*%
%ADD29C,0.220000*%
%TD*%
%TA.AperFunction,Conductor*%
%ADD30C,0.350000*%
%TD*%
%TA.AperFunction,Conductor*%
%ADD31C,0.300000*%
%TD*%
%TA.AperFunction,Conductor*%
%ADD32C,0.500000*%
%TD*%
%TA.AperFunction,Conductor*%
%ADD33C,0.180000*%
%TD*%
%TA.AperFunction,Conductor*%
%ADD34C,0.200000*%
%TD*%
G04 APERTURE END LIST*
D10*
%TO.P,TP104,1,1*%
%TO.N,CLK_1*%
X43250000Y-37350000D03*
%TD*%
%TO.P,TP103,1,1*%
%TO.N,CLK_2*%
X29875000Y-42350000D03*
%TD*%
%TO.P,TP102,1,1*%
%TO.N,VCA_IN*%
X74525000Y-42900000D03*
%TD*%
%TO.P,TP101,1,1*%
%TO.N,FILTER_OUT*%
X70075000Y-5400000D03*
%TD*%
D11*
%TO.P,U103,1,SDA*%
%TO.N,SDA*%
X43437500Y-47887500D03*
D12*
%TO.P,U103,2,LVL1*%
%TO.N,LEVEL_1_CV*%
X43437500Y-45347500D03*
%TO.P,U103,3,SCL*%
%TO.N,SCL*%
X45977500Y-47887500D03*
%TO.P,U103,4,LVL2*%
%TO.N,LEVEL_2_CV*%
X45977500Y-45347500D03*
%TO.P,U103,5,CLK1*%
%TO.N,CLK_1*%
X48517500Y-47887500D03*
%TO.P,U103,6,PWM1*%
%TO.N,PWM_1_CV*%
X48517500Y-45347500D03*
%TO.P,U103,7,CLK2*%
%TO.N,CLK_2*%
X51057500Y-47887500D03*
%TO.P,U103,8,PWM2*%
%TO.N,PWM_2_CV*%
X51057500Y-45347500D03*
%TO.P,U103,9,HP*%
%TO.N,HP_MODE*%
X53597500Y-47887500D03*
%TO.P,U103,10,FOLD*%
%TO.N,FOLD_CV*%
X53597500Y-45347500D03*
%TO.P,U103,11,FF*%
%TO.N,FOLD_FIRST*%
X56137500Y-47887500D03*
%TO.P,U103,12,VCF*%
%TO.N,CUTOFF_CV*%
X56137500Y-45347500D03*
%TO.P,U103,13,OUT*%
%TO.N,VCA_OUT*%
X58677500Y-47887500D03*
%TO.P,U103,14,VCA*%
%TO.N,VCA_CV*%
X58677500Y-45347500D03*
%TO.P,U103,15,+3V3*%
%TO.N,+3.3V*%
X61217500Y-47887500D03*
%TO.P,U103,16,GND*%
%TO.N,GND*%
X61217500Y-45347500D03*
%TO.P,U103,17,+12V*%
%TO.N,+12V*%
X63757500Y-47887500D03*
%TO.P,U103,18,-12V*%
%TO.N,-12V*%
X63757500Y-45347500D03*
%TD*%
D13*
%TO.P,R230,1*%
%TO.N,Net-(U203B-P1W)*%
X59380000Y-11792500D03*
%TO.P,R230,2*%
%TO.N,Net-(U204C--)*%
X61205000Y-11792500D03*
%TD*%
D14*
%TO.P,C102,1*%
%TO.N,+12V*%
X66400000Y-9247500D03*
%TO.P,C102,2*%
%TO.N,GND*%
X66400000Y-7347500D03*
%TD*%
D13*
%TO.P,R242,1*%
%TO.N,Net-(R241-Pad2)*%
X66175000Y-38187500D03*
%TO.P,R242,2*%
%TO.N,OSC_MIX*%
X68000000Y-38187500D03*
%TD*%
%TO.P,R228,1*%
%TO.N,Net-(U203C-P2W)*%
X59360000Y-15452500D03*
%TO.P,R228,2*%
%TO.N,Net-(U204C--)*%
X61185000Y-15452500D03*
%TD*%
D15*
%TO.P,R233,1*%
%TO.N,Net-(U204C--)*%
X59592500Y-22305000D03*
%TO.P,R233,2*%
%TO.N,Net-(U203A-P0B)*%
X59592500Y-20480000D03*
%TD*%
D14*
%TO.P,C218,1*%
%TO.N,GND*%
X53892500Y-18902500D03*
%TO.P,C218,2*%
%TO.N,+3.3V*%
X53892500Y-17002500D03*
%TD*%
D16*
%TO.P,C103,1*%
%TO.N,-12V*%
X71900000Y-34047499D03*
%TO.P,C103,2*%
%TO.N,GND*%
X71900000Y-35947499D03*
%TD*%
D17*
%TO.P,C215,1*%
%TO.N,GND*%
X47602500Y-24552500D03*
%TO.P,C215,2*%
%TO.N,+12V*%
X49502500Y-24552500D03*
%TD*%
D14*
%TO.P,C104,1*%
%TO.N,+12V*%
X66150000Y-26147500D03*
%TO.P,C104,2*%
%TO.N,GND*%
X66150000Y-24247500D03*
%TD*%
D16*
%TO.P,C217,1*%
%TO.N,GND*%
X60292500Y-30572500D03*
%TO.P,C217,2*%
%TO.N,+3.3V*%
X60292500Y-32472500D03*
%TD*%
D18*
%TO.P,R238,1*%
%TO.N,Net-(U205B-P1W)*%
X49375000Y-35787500D03*
%TO.P,R238,2*%
%TO.N,Net-(U204A--)*%
X47550000Y-35787500D03*
%TD*%
%TO.P,R239,1*%
%TO.N,Net-(U205C-P2W)*%
X49405000Y-32322500D03*
%TO.P,R239,2*%
%TO.N,Net-(U204A--)*%
X47580000Y-32322500D03*
%TD*%
D15*
%TO.P,R240,1*%
%TO.N,Net-(U205A-P0W)*%
X49287500Y-22475000D03*
%TO.P,R240,2*%
%TO.N,Net-(U204B--)*%
X49287500Y-20650000D03*
%TD*%
D16*
%TO.P,C101,1*%
%TO.N,-12V*%
X72100000Y-17697500D03*
%TO.P,C101,2*%
%TO.N,GND*%
X72100000Y-19597500D03*
%TD*%
D19*
%TO.P,U205,1,P3A*%
%TO.N,GND*%
X57237500Y-38235000D03*
%TO.P,U205,2,P3W*%
%TO.N,Net-(U205D-P3W)*%
X56587500Y-38235000D03*
%TO.P,U205,3,P3B*%
%TO.N,TRI2_FULL*%
X55937500Y-38235000D03*
%TO.P,U205,4,HVC/A0*%
%TO.N,unconnected-(U205E-HVC{slash}A0-Pad4)*%
X55287500Y-38235000D03*
%TO.P,U205,5,SCL*%
%TO.N,SCL*%
X54637500Y-38235000D03*
%TO.P,U205,6,SDA*%
%TO.N,SDA*%
X53987500Y-38235000D03*
%TO.P,U205,7,VSS*%
%TO.N,GND*%
X53337500Y-38235000D03*
%TO.P,U205,8,P1B*%
%TO.N,PULSE2_FULL*%
X52687500Y-38235000D03*
%TO.P,U205,9,P1W*%
%TO.N,Net-(U205B-P1W)*%
X52037500Y-38235000D03*
%TO.P,U205,10,P1A*%
%TO.N,GND*%
X51387500Y-38235000D03*
%TO.P,U205,11,P0A*%
X51387500Y-32510000D03*
%TO.P,U205,12,P0W*%
%TO.N,Net-(U205A-P0W)*%
X52037500Y-32510000D03*
%TO.P,U205,13,P0B*%
%TO.N,Net-(U205A-P0B)*%
X52687500Y-32510000D03*
%TO.P,U205,14,NC*%
%TO.N,unconnected-(U205E-NC-Pad14)*%
X53337500Y-32510000D03*
%TO.P,U205,15,~{RESET}*%
%TO.N,+3.3V*%
X53987500Y-32510000D03*
%TO.P,U205,16,A1*%
X54637500Y-32510000D03*
%TO.P,U205,17,VDD*%
X55287500Y-32510000D03*
%TO.P,U205,18,P2B*%
%TO.N,SAW2_FULL*%
X55937500Y-32510000D03*
%TO.P,U205,19,P2W*%
%TO.N,Net-(U205C-P2W)*%
X56587500Y-32510000D03*
%TO.P,U205,20,P2A*%
%TO.N,GND*%
X57237500Y-32510000D03*
%TD*%
D13*
%TO.P,R231,1*%
%TO.N,Net-(U203A-P0W)*%
X46210000Y-17322500D03*
%TO.P,R231,2*%
%TO.N,Net-(U204B--)*%
X48035000Y-17322500D03*
%TD*%
D20*
%TO.P,C216,1*%
%TO.N,GND*%
X60982500Y-24572500D03*
%TO.P,C216,2*%
%TO.N,-12V*%
X59082500Y-24572500D03*
%TD*%
D18*
%TO.P,R237,1*%
%TO.N,Net-(U205D-P3W)*%
X49375000Y-39312500D03*
%TO.P,R237,2*%
%TO.N,Net-(U204A--)*%
X47550000Y-39312500D03*
%TD*%
D21*
%TO.P,U203,1,P3A*%
%TO.N,GND*%
X51387500Y-9250001D03*
%TO.P,U203,2,P3W*%
%TO.N,Net-(U203D-P3W)*%
X52037500Y-9250001D03*
%TO.P,U203,3,P3B*%
%TO.N,TRI1_FULL*%
X52687500Y-9250001D03*
%TO.P,U203,4,HVC/A0*%
%TO.N,unconnected-(U203E-HVC{slash}A0-Pad4)*%
X53337500Y-9250001D03*
%TO.P,U203,5,SCL*%
%TO.N,SCL*%
X53987500Y-9250001D03*
%TO.P,U203,6,SDA*%
%TO.N,SDA*%
X54637500Y-9250001D03*
%TO.P,U203,7,VSS*%
%TO.N,GND*%
X55287500Y-9250001D03*
%TO.P,U203,8,P1B*%
%TO.N,PULSE1_FULL*%
X55937500Y-9250001D03*
%TO.P,U203,9,P1W*%
%TO.N,Net-(U203B-P1W)*%
X56587500Y-9250001D03*
%TO.P,U203,10,P1A*%
%TO.N,GND*%
X57237500Y-9250001D03*
%TO.P,U203,11,P0A*%
X57237500Y-14975001D03*
%TO.P,U203,12,P0W*%
%TO.N,Net-(U203A-P0W)*%
X56587500Y-14975001D03*
%TO.P,U203,13,P0B*%
%TO.N,Net-(U203A-P0B)*%
X55937500Y-14975001D03*
%TO.P,U203,14,NC*%
%TO.N,unconnected-(U203E-NC-Pad14)*%
X55287500Y-14975001D03*
%TO.P,U203,15,~{RESET}*%
%TO.N,+3.3V*%
X54637500Y-14975001D03*
%TO.P,U203,16,A1*%
%TO.N,GND*%
X53987500Y-14975001D03*
%TO.P,U203,17,VDD*%
%TO.N,+3.3V*%
X53337500Y-14975001D03*
%TO.P,U203,18,P2B*%
%TO.N,SAW1_FULL*%
X52687500Y-14975001D03*
%TO.P,U203,19,P2W*%
%TO.N,Net-(U203C-P2W)*%
X52037500Y-14975001D03*
%TO.P,U203,20,P2A*%
%TO.N,GND*%
X51387500Y-14975001D03*
%TD*%
D22*
%TO.P,U102,1,B1*%
%TO.N,FILTER_IN*%
X72112500Y-11272500D03*
%TO.P,U102,2,B0*%
%TO.N,GND*%
X72112500Y-11922500D03*
%TO.P,U102,3,C1*%
%TO.N,unconnected-(U102-C1-Pad3)*%
X72112500Y-12572500D03*
%TO.P,U102,4,C*%
%TO.N,LP_IN*%
X72112500Y-13222500D03*
%TO.P,U102,5,C0*%
%TO.N,FILTER_IN*%
X72112500Y-13872500D03*
%TO.P,U102,6,INH*%
%TO.N,GND*%
X72112500Y-14522500D03*
%TO.P,U102,7,VSS*%
%TO.N,-12V*%
X72112500Y-15172500D03*
%TO.P,U102,8,GND*%
%TO.N,GND*%
X72112500Y-15822500D03*
%TO.P,U102,9,S3*%
%TO.N,HP_MODE*%
X66387500Y-15822500D03*
%TO.P,U102,10,S2*%
X66387500Y-15172500D03*
%TO.P,U102,11,S1*%
%TO.N,FOLD_FIRST*%
X66387500Y-14522500D03*
%TO.P,U102,12,A0*%
%TO.N,FOLDER_IN*%
X66387500Y-13872500D03*
%TO.P,U102,13,A1*%
%TO.N,VCA_IN*%
X66387500Y-13222500D03*
%TO.P,U102,14,A*%
%TO.N,FILTER_OUT*%
X66387500Y-12572500D03*
%TO.P,U102,15,B*%
%TO.N,HP_IN*%
X66387500Y-11922500D03*
%TO.P,U102,16,VDD*%
%TO.N,+12V*%
X66387500Y-11272500D03*
%TD*%
D13*
%TO.P,R229,1*%
%TO.N,Net-(U203D-P3W)*%
X59380000Y-7862500D03*
%TO.P,R229,2*%
%TO.N,Net-(U204C--)*%
X61205000Y-7862500D03*
%TD*%
%TO.P,R241,1*%
%TO.N,Net-(U204B--)*%
X49960000Y-18462500D03*
%TO.P,R241,2*%
%TO.N,Net-(R241-Pad2)*%
X51785000Y-18462500D03*
%TD*%
D23*
%TO.P,U204,1*%
%TO.N,Net-(U205A-P0B)*%
X51837500Y-28372500D03*
%TO.P,U204,2,-*%
%TO.N,Net-(U204A--)*%
X51837500Y-27102500D03*
%TO.P,U204,3,+*%
%TO.N,GND*%
X51837500Y-25832500D03*
%TO.P,U204,4,V+*%
%TO.N,+12V*%
X51837500Y-24562500D03*
%TO.P,U204,5,+*%
%TO.N,GND*%
X51837500Y-23292500D03*
%TO.P,U204,6,-*%
%TO.N,Net-(U204B--)*%
X51837500Y-22022500D03*
%TO.P,U204,7*%
%TO.N,Net-(R241-Pad2)*%
X51837500Y-20752500D03*
%TO.P,U204,8*%
%TO.N,Net-(U203A-P0B)*%
X56787500Y-20752500D03*
%TO.P,U204,9,-*%
%TO.N,Net-(U204C--)*%
X56787500Y-22022500D03*
%TO.P,U204,10,+*%
%TO.N,GND*%
X56787500Y-23292500D03*
%TO.P,U204,11,V-*%
%TO.N,-12V*%
X56787500Y-24562500D03*
%TO.P,U204,12,+*%
%TO.N,unconnected-(U204D-+-Pad12)*%
X56787500Y-25832500D03*
%TO.P,U204,13,-*%
%TO.N,unconnected-(U204D---Pad13)*%
X56787500Y-27102500D03*
%TO.P,U204,14*%
%TO.N,unconnected-(U204-Pad14)*%
X56787500Y-28372500D03*
%TD*%
D24*
%TO.P,R232,1*%
%TO.N,Net-(U204A--)*%
X49387500Y-26950000D03*
%TO.P,R232,2*%
%TO.N,Net-(U205A-P0B)*%
X49387500Y-28775000D03*
%TD*%
D22*
%TO.P,U101,1,B1*%
%TO.N,OSC_MIX*%
X71900000Y-27797500D03*
%TO.P,U101,2,B0*%
%TO.N,FILTER_OUT*%
X71900000Y-28447500D03*
%TO.P,U101,3,C1*%
%TO.N,FOLDER_OUT*%
X71900000Y-29097500D03*
%TO.P,U101,4,C*%
%TO.N,FILTER_IN*%
X71900000Y-29747500D03*
%TO.P,U101,5,C0*%
%TO.N,OSC_MIX*%
X71900000Y-30397500D03*
%TO.P,U101,6,INH*%
%TO.N,GND*%
X71900000Y-31047500D03*
%TO.P,U101,7,VSS*%
%TO.N,-12V*%
X71900000Y-31697500D03*
%TO.P,U101,8,GND*%
%TO.N,GND*%
X71900000Y-32347500D03*
%TO.P,U101,9,S3*%
%TO.N,FOLD_FIRST*%
X66175000Y-32347500D03*
%TO.P,U101,10,S2*%
X66175000Y-31697500D03*
%TO.P,U101,11,S1*%
X66175000Y-31047500D03*
%TO.P,U101,12,A0*%
%TO.N,VCA_IN*%
X66175000Y-30397500D03*
%TO.P,U101,13,A1*%
%TO.N,FILTER_IN*%
X66175000Y-29747500D03*
%TO.P,U101,14,A*%
%TO.N,FOLDER_OUT*%
X66175000Y-29097500D03*
%TO.P,U101,15,B*%
%TO.N,FOLDER_IN*%
X66175000Y-28447500D03*
%TO.P,U101,16,VDD*%
%TO.N,+12V*%
X66175000Y-27797500D03*
%TD*%
D25*
%TO.N,CLK_1*%
X44325000Y-38450000D03*
%TO.N,VCA_IN*%
X78000000Y-41062500D03*
%TO.N,SAW1_FULL*%
X32312500Y-11812500D03*
X48112500Y-13387500D03*
X25512500Y-15812500D03*
%TO.N,GND*%
X108437500Y-30987500D03*
X90787500Y-24112500D03*
X29912500Y-34137500D03*
X84287500Y-17962500D03*
X110862500Y-8112500D03*
X10212500Y-17637500D03*
X24062500Y-5612500D03*
X105662500Y-38437500D03*
X61012500Y-27187500D03*
X73143187Y-33434815D03*
X38237500Y-29137500D03*
X6412500Y-32162500D03*
X42587500Y-22887500D03*
X54712500Y-21737500D03*
X19262500Y-19462500D03*
X71962500Y-37162500D03*
X34887500Y-25712500D03*
X83537500Y-24937500D03*
X113387500Y-16837500D03*
X127862500Y-41937500D03*
X112187500Y-30962500D03*
X73337500Y-9337500D03*
X35312500Y-11437500D03*
X56612500Y-19137500D03*
X66412500Y-5937500D03*
X51562500Y-39687500D03*
X54487500Y-13387500D03*
X60287500Y-29387500D03*
X51012500Y-31012500D03*
X49887500Y-8787500D03*
X101312500Y-17412500D03*
X58387500Y-38237500D03*
X87837500Y-38787500D03*
X70662500Y-15237500D03*
X104062500Y-3837500D03*
X96337500Y-31662500D03*
X35237500Y-18512500D03*
X58112500Y-32962500D03*
X34462500Y-33587500D03*
X83662500Y-5862500D03*
X88512500Y-13762500D03*
X8462500Y-7087500D03*
X50062500Y-14987500D03*
X82312500Y-38912500D03*
X46112500Y-25862500D03*
X23487500Y-30787500D03*
X58637500Y-40162500D03*
X99087500Y-25087500D03*
X17837500Y-21337500D03*
X11987500Y-26487500D03*
X101962500Y-9937500D03*
X111087500Y-41337500D03*
X40662500Y-15837500D03*
X93487500Y-17262500D03*
X91712500Y-39087500D03*
X56712500Y-7362500D03*
X115162500Y-35287500D03*
X117637500Y-8812500D03*
X89137500Y-22562500D03*
X15162500Y-14087500D03*
X52239193Y-41439193D03*
X66137500Y-22737500D03*
X31937500Y-21037500D03*
X56312500Y-12337500D03*
%TO.N,+12V*%
X47337500Y-26712500D03*
X104637500Y-41762500D03*
X93512500Y-26062500D03*
X21837500Y-7762500D03*
X68362500Y-8437500D03*
X125612500Y-22387500D03*
X121562500Y-38787500D03*
X111387500Y-21962500D03*
X125662500Y-12612500D03*
X63387500Y-26187500D03*
X33412500Y-26512500D03*
X88787500Y-16037500D03*
X110812500Y-10337500D03*
X11437500Y-31137500D03*
%TO.N,-12V*%
X33387500Y-24612500D03*
X68762500Y-42787500D03*
X127587500Y-18587500D03*
X86800000Y-42750000D03*
X15712500Y-12987500D03*
X80387500Y-18862500D03*
X117012500Y-30437500D03*
X73962500Y-35437500D03*
X30087500Y-14562500D03*
X108987500Y-9912500D03*
X110862500Y-39512500D03*
X75387500Y-18862500D03*
X90062500Y-15012500D03*
X124437500Y-4087500D03*
X4987500Y-12637500D03*
%TO.N,CLK_2*%
X31012500Y-38187500D03*
X35312500Y-42512500D03*
%TO.N,SAW2_FULL*%
X20187500Y-14287500D03*
%TO.N,Net-(D203-K)*%
X7790000Y-17137500D03*
X17237500Y-19612500D03*
D26*
%TO.N,+3.3V*%
X60292500Y-33887500D03*
X57562500Y-17062500D03*
X57562500Y-30987500D03*
D25*
%TO.N,Net-(U301B--)*%
X89462500Y-17562500D03*
X92887500Y-9837500D03*
X94462500Y-20987500D03*
%TO.N,FILTER_OUT*%
X81537500Y-2212500D03*
%TO.N,Net-(U301B-+)*%
X80387500Y-34487500D03*
X78262500Y-27787500D03*
%TO.N,HP_IN*%
X76362500Y-27787500D03*
%TO.N,FOLDER_IN*%
X64037500Y-28437500D03*
X96787500Y-21137500D03*
X63737500Y-13862500D03*
%TO.N,VCA_IN*%
X101187500Y-33112500D03*
X63987500Y-30412500D03*
X68837500Y-41062500D03*
X85812500Y-41037500D03*
X64562500Y-12862500D03*
%TO.N,Net-(D203-A)*%
X4462500Y-14862500D03*
X13062500Y-24637500D03*
D27*
%TO.N,SDA*%
X53587500Y-6187500D03*
X53212500Y-36762500D03*
%TO.N,SCL*%
X89362500Y-2837500D03*
X52737500Y-6737500D03*
X52162500Y-36162500D03*
X87412500Y-8812500D03*
%TO.N,FOLD_FIRST*%
X67887500Y-31687500D03*
X67887500Y-15812500D03*
%TO.N,HP_MODE*%
X64312500Y-15162500D03*
%TO.N,PWM_1_CV*%
X46662500Y-42187500D03*
X22187500Y-24187500D03*
%TO.N,PWM_2_CV*%
X47912500Y-41912500D03*
X23612500Y-25062500D03*
%TO.N,FOLD_CV*%
X112912500Y-45212500D03*
D25*
%TO.N,Net-(Q402-B)*%
X116987500Y-20062500D03*
X108187500Y-15087500D03*
%TO.N,Net-(Q406-C)*%
X101087500Y-30687500D03*
X101237500Y-37462500D03*
%TO.N,TRI1_FULL*%
X48937500Y-9962500D03*
%TO.N,TRI2_FULL*%
X27412500Y-21537500D03*
X24212500Y-22562500D03*
X13037500Y-16082500D03*
%TO.N,PULSE2_FULL*%
X13412500Y-10362500D03*
%TO.N,PULSE1_FULL*%
X37837500Y-8162500D03*
%TO.N,Net-(U203C-P2W)*%
X58712500Y-18562500D03*
X59387500Y-13812500D03*
%TO.N,Net-(U204A--)*%
X46137500Y-32312500D03*
X46137500Y-39012500D03*
X46137500Y-35787500D03*
%TO.N,Net-(U205A-P0W)*%
X47637500Y-22462500D03*
X51962500Y-29937500D03*
%TO.N,Net-(U205C-P2W)*%
X51862500Y-34762500D03*
X49337500Y-30612500D03*
%TO.N,Net-(U205D-P3W)*%
X56587500Y-40487500D03*
X50712500Y-40487500D03*
%TO.N,OSC_MIX*%
X68662500Y-32312500D03*
X68637500Y-27812500D03*
%TO.N,Net-(U301C--)*%
X78112500Y-34437500D03*
X89405000Y-21030000D03*
%TO.N,LP_IN*%
X80912500Y-16487500D03*
%TO.N,FOLDER_OUT*%
X73337500Y-22312500D03*
%TO.N,FILTER_IN*%
X73737500Y-13887500D03*
X70112500Y-29807000D03*
%TO.N,Net-(R420-Pad2)*%
X75562500Y-15662500D03*
X96387500Y-2612500D03*
%TD*%
D28*
%TO.N,-12V*%
X11700000Y-1387500D02*
X33362500Y-1387500D01*
X4987500Y-12637500D02*
X4987500Y-8100000D01*
X4987500Y-8100000D02*
X11700000Y-1387500D01*
D29*
%TO.N,CLK_1*%
X44325000Y-38425000D02*
X43250000Y-37350000D01*
X44325000Y-38450000D02*
X44325000Y-38425000D01*
%TO.N,CLK_2*%
X29875000Y-42350000D02*
X29875000Y-39325000D01*
X29875000Y-39325000D02*
X31012500Y-38187500D01*
%TO.N,VCA_IN*%
X74525000Y-42900000D02*
X76162500Y-42900000D01*
X76162500Y-42900000D02*
X78000000Y-41062500D01*
%TO.N,FILTER_OUT*%
X80937500Y-2812500D02*
X70075000Y-2812500D01*
X70075000Y-2812500D02*
X66362500Y-2812500D01*
X70075000Y-5400000D02*
X70075000Y-2812500D01*
%TO.N,SAW1_FULL*%
X51987500Y-13387500D02*
X48112500Y-13387500D01*
X32312500Y-11812500D02*
X29512500Y-11812500D01*
X52687500Y-14975001D02*
X52687500Y-14087500D01*
X29512500Y-11812500D02*
X25512500Y-15812500D01*
X52687500Y-14087500D02*
X51987500Y-13387500D01*
%TO.N,GND*%
X66150000Y-24247500D02*
X66150000Y-22750000D01*
X72112500Y-14522500D02*
X71377500Y-14522500D01*
X53987500Y-14975001D02*
X53987500Y-13887500D01*
X71900000Y-31047500D02*
X71192500Y-31047500D01*
X50074999Y-14975001D02*
X50062500Y-14987500D01*
X70852500Y-31387500D02*
X70852500Y-31967328D01*
X54087500Y-23862500D02*
X53512500Y-23287500D01*
X60982500Y-24572500D02*
X60982500Y-27157500D01*
X72112500Y-15822500D02*
X71247500Y-15822500D01*
X57237500Y-13262500D02*
X56312500Y-12337500D01*
X57237500Y-38235000D02*
X58385000Y-38235000D01*
X51387500Y-14975001D02*
X50074999Y-14975001D01*
X51387500Y-39512500D02*
X51562500Y-39687500D01*
X51742500Y-23387500D02*
X48767500Y-23387500D01*
X71192500Y-31047500D02*
X70852500Y-31387500D01*
X54087500Y-25212500D02*
X54087500Y-23862500D01*
X66400000Y-5950000D02*
X66412500Y-5937500D01*
X57660000Y-32510000D02*
X58112500Y-32962500D01*
X57237500Y-9250001D02*
X57237500Y-7887500D01*
X51837500Y-23292500D02*
X53507500Y-23292500D01*
X60292500Y-29392500D02*
X60287500Y-29387500D01*
X53987500Y-13887500D02*
X54487500Y-13387500D01*
X71247500Y-15822500D02*
X70662500Y-15237500D01*
X70852500Y-31967328D02*
X71232672Y-32347500D01*
X51387500Y-38235000D02*
X51387500Y-39512500D01*
X57237500Y-32510000D02*
X57660000Y-32510000D01*
X71232672Y-32347500D02*
X71900000Y-32347500D01*
X53337500Y-38235000D02*
X53337500Y-40340886D01*
X55287500Y-8582673D02*
X56507673Y-7362500D01*
X57237500Y-14975001D02*
X57237500Y-13262500D01*
X72055872Y-32347500D02*
X73143187Y-33434815D01*
X53892500Y-18902500D02*
X56377500Y-18902500D01*
X72100000Y-19597500D02*
X70662500Y-18160000D01*
X55287500Y-9250001D02*
X55287500Y-8582673D01*
X56267500Y-23292500D02*
X54712500Y-21737500D01*
X50350001Y-9250001D02*
X49887500Y-8787500D01*
X71900000Y-32347500D02*
X72055872Y-32347500D01*
X56787500Y-23292500D02*
X56267500Y-23292500D01*
X71900000Y-37100000D02*
X71962500Y-37162500D01*
X48767500Y-23387500D02*
X47602500Y-24552500D01*
X58385000Y-38235000D02*
X58387500Y-38237500D01*
X57237500Y-7887500D02*
X56712500Y-7362500D01*
X71377500Y-14522500D02*
X70662500Y-15237500D01*
X53467500Y-25832500D02*
X54087500Y-25212500D01*
X60292500Y-30572500D02*
X60292500Y-29392500D01*
X51387500Y-9250001D02*
X50350001Y-9250001D01*
X47602500Y-24552500D02*
X47422500Y-24552500D01*
X51387500Y-31387500D02*
X51012500Y-31012500D01*
X56377500Y-18902500D02*
X56612500Y-19137500D01*
X60982500Y-27157500D02*
X61012500Y-27187500D01*
X72779828Y-11922500D02*
X73337500Y-11364828D01*
X73337500Y-11364828D02*
X73337500Y-9337500D01*
X70662500Y-18160000D02*
X70662500Y-15237500D01*
D30*
X61217500Y-43967500D02*
X61217500Y-45347500D01*
D29*
X72112500Y-11922500D02*
X72779828Y-11922500D01*
X53507500Y-23292500D02*
X53512500Y-23287500D01*
X66150000Y-22750000D02*
X66137500Y-22737500D01*
X47422500Y-24552500D02*
X46112500Y-25862500D01*
X66400000Y-7347500D02*
X66400000Y-5950000D01*
X71900000Y-35947499D02*
X71900000Y-37100000D01*
X53337500Y-40340886D02*
X52239193Y-41439193D01*
D30*
X58637500Y-41387500D02*
X61217500Y-43967500D01*
X58637500Y-40162500D02*
X58637500Y-41387500D01*
D29*
X51387500Y-32510000D02*
X51387500Y-31387500D01*
X51837500Y-23292500D02*
X51742500Y-23387500D01*
X56507673Y-7362500D02*
X56712500Y-7362500D01*
X51837500Y-25832500D02*
X53467500Y-25832500D01*
D31*
%TO.N,+12V*%
X66400000Y-9247500D02*
X66400000Y-11260000D01*
X67552500Y-9247500D02*
X68362500Y-8437500D01*
X66400000Y-11260000D02*
X66387500Y-11272500D01*
X66150000Y-26147500D02*
X63427500Y-26147500D01*
X49497500Y-24552500D02*
X47337500Y-26712500D01*
X49502500Y-24552500D02*
X51827500Y-24552500D01*
X66175000Y-27797500D02*
X66175000Y-26172500D01*
X66175000Y-26172500D02*
X66150000Y-26147500D01*
X51827500Y-24552500D02*
X51837500Y-24562500D01*
X63427500Y-26147500D02*
X63387500Y-26187500D01*
X49502500Y-24552500D02*
X49497500Y-24552500D01*
X66400000Y-9247500D02*
X67552500Y-9247500D01*
D28*
%TO.N,-12V*%
X124437500Y-4087500D02*
X121387500Y-1037500D01*
D31*
X107400000Y-1025000D02*
X108162500Y-1787500D01*
X108162500Y-1787500D02*
X108912500Y-1037500D01*
X73962500Y-33036104D02*
X73962500Y-35437500D01*
X71900000Y-31697500D02*
X72623896Y-31697500D01*
X63757500Y-45347500D02*
X66202500Y-45347500D01*
D28*
X108987500Y-9912500D02*
X109887500Y-9012500D01*
X73962500Y-35437500D02*
X73962500Y-37587500D01*
D31*
X33387500Y-14562500D02*
X33387500Y-1412500D01*
X30087500Y-14562500D02*
X33387500Y-14562500D01*
D28*
X117012500Y-30437500D02*
X122837500Y-30437500D01*
D31*
X33387500Y-1412500D02*
X33362500Y-1387500D01*
X72623896Y-31697500D02*
X73962500Y-33036104D01*
D28*
X72112500Y-15172500D02*
X73197500Y-15172500D01*
X73962500Y-15937500D02*
X73962500Y-17687500D01*
X73962500Y-35387500D02*
X73962500Y-35437500D01*
D31*
X62387500Y-21267500D02*
X62387500Y-1412500D01*
X66202500Y-45347500D02*
X68762500Y-42787500D01*
D28*
X107412500Y-1037500D02*
X107400000Y-1025000D01*
X90062500Y-15012500D02*
X84237500Y-15012500D01*
D31*
X108162500Y-1787500D02*
X109887500Y-3512500D01*
X106962500Y-587500D02*
X107400000Y-1025000D01*
D28*
X15712500Y-12987500D02*
X5337500Y-12987500D01*
X75137500Y-18862500D02*
X73962500Y-17687500D01*
X73962500Y-17687500D02*
X73952500Y-17697500D01*
X80387500Y-18862500D02*
X75387500Y-18862500D01*
X5337500Y-12987500D02*
X4987500Y-12637500D01*
X95862500Y-42762500D02*
X86812500Y-42762500D01*
X73197500Y-15172500D02*
X73962500Y-15937500D01*
D31*
X68762500Y-42787500D02*
X73962500Y-37587500D01*
X59082500Y-24572500D02*
X62387500Y-21267500D01*
X56787500Y-24562500D02*
X59072500Y-24562500D01*
X59072500Y-24562500D02*
X59082500Y-24572500D01*
D28*
X71900000Y-34047499D02*
X72622499Y-34047499D01*
X72622499Y-34047499D02*
X73962500Y-35387500D01*
X33362500Y-1387500D02*
X62412500Y-1387500D01*
X110862500Y-39512500D02*
X99112500Y-39512500D01*
D31*
X33387500Y-24612500D02*
X33387500Y-14562500D01*
D28*
X75387500Y-18862500D02*
X75137500Y-18862500D01*
X99112500Y-39512500D02*
X95862500Y-42762500D01*
X73952500Y-17697500D02*
X72100000Y-17697500D01*
X127587500Y-25687500D02*
X127587500Y-18587500D01*
X122837500Y-30437500D02*
X127587500Y-25687500D01*
D31*
X62387500Y-1412500D02*
X63212500Y-587500D01*
D28*
X109887500Y-9012500D02*
X109887500Y-3512500D01*
D31*
X108912500Y-1037500D02*
X121387500Y-1037500D01*
X63212500Y-587500D02*
X106962500Y-587500D01*
D28*
X86812500Y-42762500D02*
X86800000Y-42750000D01*
X84237500Y-15012500D02*
X80387500Y-18862500D01*
D29*
%TO.N,CLK_2*%
X31012500Y-38212500D02*
X31012500Y-38187500D01*
X35312500Y-42512500D02*
X31012500Y-38212500D01*
%TO.N,SAW2_FULL*%
X33408408Y-25637500D02*
X22058408Y-14287500D01*
X34662500Y-26758408D02*
X33541592Y-25637500D01*
X55153038Y-34032500D02*
X38107500Y-34032500D01*
X55937500Y-33248038D02*
X55153038Y-34032500D01*
X22058408Y-14287500D02*
X20187500Y-14287500D01*
X33541592Y-25637500D02*
X33408408Y-25637500D01*
X38107500Y-34032500D02*
X34662500Y-30587500D01*
X55937500Y-32510000D02*
X55937500Y-33248038D01*
X34662500Y-30587500D02*
X34662500Y-26758408D01*
%TO.N,Net-(D203-K)*%
X10265000Y-19612500D02*
X7790000Y-17137500D01*
X17237500Y-19612500D02*
X10265000Y-19612500D01*
D28*
%TO.N,+3.3V*%
X53987500Y-32510000D02*
X55287500Y-32510000D01*
X53337500Y-16447500D02*
X53892500Y-17002500D01*
D32*
X62437500Y-42037500D02*
X62437500Y-44012500D01*
X60292500Y-39892500D02*
X62437500Y-42037500D01*
X62437500Y-44012500D02*
X62442500Y-44017500D01*
D28*
X61217500Y-47887500D02*
X62442500Y-46662500D01*
D32*
X60292500Y-34612500D02*
X60292500Y-39812500D01*
D28*
X54637500Y-14975001D02*
X54637500Y-16257500D01*
X62442500Y-46662500D02*
X62442500Y-44017500D01*
X55287500Y-31750749D02*
X56050749Y-30987500D01*
D32*
X60292500Y-39812500D02*
X60292500Y-39892500D01*
D28*
X55287500Y-32510000D02*
X55287500Y-31750749D01*
X53337500Y-14975001D02*
X53337500Y-16447500D01*
X53892500Y-17002500D02*
X53952500Y-17062500D01*
X56050749Y-30987500D02*
X57562500Y-30987500D01*
X53952500Y-17062500D02*
X57562500Y-17062500D01*
X54637500Y-16257500D02*
X53892500Y-17002500D01*
D32*
X60292500Y-33887500D02*
X60292500Y-34612500D01*
X60292500Y-32472500D02*
X60292500Y-33887500D01*
D29*
%TO.N,Net-(U301B--)*%
X92887500Y-20987500D02*
X89462500Y-17562500D01*
X94462500Y-20987500D02*
X92887500Y-20987500D01*
X92887500Y-9837500D02*
X92887500Y-14137500D01*
X92887500Y-14137500D02*
X89462500Y-17562500D01*
%TO.N,FILTER_OUT*%
X68687500Y-13462500D02*
X67850000Y-12625000D01*
X66387500Y-12572500D02*
X67797500Y-12572500D01*
X67487500Y-19187500D02*
X68687500Y-17987500D01*
X67850000Y-12625000D02*
X67787500Y-12562500D01*
X64912500Y-11962500D02*
X64387500Y-11437500D01*
X68343408Y-28522500D02*
X67487500Y-27666592D01*
X65522500Y-12572500D02*
X64912500Y-11962500D01*
X71900000Y-28447500D02*
X71825000Y-28522500D01*
X71825000Y-28522500D02*
X68343408Y-28522500D01*
X68687500Y-17987500D02*
X68687500Y-13462500D01*
X67487500Y-27666592D02*
X67487500Y-19187500D01*
X81537500Y-2212500D02*
X80937500Y-2812500D01*
X66387500Y-12572500D02*
X65522500Y-12572500D01*
X64387500Y-11437500D02*
X64387500Y-4787500D01*
X64387500Y-4787500D02*
X66362500Y-2812500D01*
X67797500Y-12572500D02*
X67850000Y-12625000D01*
%TO.N,Net-(U301B-+)*%
X80387500Y-29912500D02*
X78262500Y-27787500D01*
X80387500Y-34487500D02*
X80387500Y-29912500D01*
%TO.N,HP_IN*%
X66387500Y-11922500D02*
X68547500Y-11922500D01*
X68547500Y-11922500D02*
X69762500Y-13137500D01*
X76362500Y-23737500D02*
X76362500Y-27787500D01*
X69762500Y-13137500D02*
X69762500Y-20037500D01*
X70962500Y-21237500D02*
X73862500Y-21237500D01*
X69762500Y-20037500D02*
X70962500Y-21237500D01*
X73862500Y-21237500D02*
X76362500Y-23737500D01*
%TO.N,FOLDER_IN*%
X81112500Y-1162500D02*
X96662500Y-1162500D01*
X101562500Y-8862500D02*
X96762500Y-13662500D01*
X101562500Y-6062500D02*
X101562500Y-8862500D01*
X64047500Y-28447500D02*
X64037500Y-28437500D01*
X96762500Y-17712500D02*
X96762500Y-21112500D01*
X80662500Y-1612500D02*
X81112500Y-1162500D01*
X96762500Y-13662500D02*
X96762500Y-17712500D01*
X65912500Y-1612500D02*
X80662500Y-1612500D01*
X63287500Y-4237500D02*
X65912500Y-1612500D01*
X66175000Y-28447500D02*
X64047500Y-28447500D01*
X66377500Y-13862500D02*
X66387500Y-13872500D01*
X63737500Y-13862500D02*
X63287500Y-13412500D01*
X96662500Y-1162500D02*
X101562500Y-6062500D01*
X96762500Y-21112500D02*
X96787500Y-21137500D01*
X63287500Y-13412500D02*
X63287500Y-4237500D01*
X63737500Y-13862500D02*
X66377500Y-13862500D01*
%TO.N,VCA_IN*%
X85812500Y-41037500D02*
X93262500Y-41037500D01*
X67087500Y-39312500D02*
X68837500Y-41062500D01*
X66387500Y-13222500D02*
X64922500Y-13222500D01*
X63987500Y-30412500D02*
X63987500Y-32912500D01*
X63987500Y-32912500D02*
X67087500Y-36012500D01*
X64922500Y-13222500D02*
X64562500Y-12862500D01*
X67087500Y-39087500D02*
X67087500Y-39312500D01*
X63987500Y-30412500D02*
X66160000Y-30412500D01*
X67087500Y-36012500D02*
X67087500Y-39087500D01*
X93262500Y-41037500D02*
X101187500Y-33112500D01*
X66160000Y-30412500D02*
X66175000Y-30397500D01*
%TO.N,Net-(D203-A)*%
X13062500Y-24637500D02*
X4462500Y-16037500D01*
X4462500Y-16037500D02*
X4462500Y-14862500D01*
D33*
%TO.N,SDA*%
X51487500Y-43212500D02*
X53987500Y-40712500D01*
X44687500Y-44687500D02*
X45387500Y-43987500D01*
X43437500Y-47887500D02*
X44687500Y-46637500D01*
X54637500Y-7237500D02*
X53587500Y-6187500D01*
X44687500Y-46637500D02*
X44687500Y-44687500D01*
X45387500Y-43987500D02*
X46962500Y-43987500D01*
X53987500Y-40712500D02*
X53987500Y-38235000D01*
X53987500Y-37537500D02*
X53212500Y-36762500D01*
X47737500Y-43212500D02*
X51487500Y-43212500D01*
X54637500Y-9250001D02*
X54637500Y-7237500D01*
X53987500Y-38235000D02*
X53987500Y-37537500D01*
X46962500Y-43987500D02*
X47737500Y-43212500D01*
%TO.N,SCL*%
X54637500Y-41037500D02*
X54637500Y-38235000D01*
X47237500Y-44737500D02*
X48112500Y-43862500D01*
X51812500Y-43862500D02*
X54637500Y-41037500D01*
X54637500Y-38235000D02*
X54637500Y-37317758D01*
X53467242Y-36147500D02*
X52177500Y-36147500D01*
X89362500Y-6862500D02*
X87412500Y-8812500D01*
X54637500Y-37317758D02*
X53467242Y-36147500D01*
X53987500Y-7987500D02*
X52737500Y-6737500D01*
X53987500Y-9250001D02*
X53987500Y-7987500D01*
X52177500Y-36147500D02*
X52162500Y-36162500D01*
X45977500Y-47887500D02*
X47237500Y-46627500D01*
X89362500Y-2837500D02*
X89362500Y-6862500D01*
X48112500Y-43862500D02*
X51812500Y-43862500D01*
X47237500Y-46627500D02*
X47237500Y-44737500D01*
%TO.N,FOLD_FIRST*%
X67026543Y-14522500D02*
X67887500Y-15383457D01*
X67887500Y-15383457D02*
X67887500Y-15812500D01*
X66387500Y-14522500D02*
X67026543Y-14522500D01*
X66185000Y-31687500D02*
X66175000Y-31697500D01*
X67887500Y-31687500D02*
X66185000Y-31687500D01*
X66175000Y-31047500D02*
X66175000Y-32347500D01*
%TO.N,HP_MODE*%
X66387500Y-15172500D02*
X66377500Y-15162500D01*
X66377500Y-15162500D02*
X64312500Y-15162500D01*
X66387500Y-15822500D02*
X66387500Y-15172500D01*
X66397500Y-15812500D02*
X66387500Y-15822500D01*
D34*
%TO.N,PWM_1_CV*%
X22212500Y-24212500D02*
X22187500Y-24187500D01*
X46662500Y-42187500D02*
X39212500Y-42187500D01*
X39212500Y-42187500D02*
X22212500Y-25187500D01*
X22212500Y-25187500D02*
X22212500Y-24212500D01*
%TO.N,PWM_2_CV*%
X39362500Y-41287500D02*
X47287500Y-41287500D01*
X47287500Y-41287500D02*
X47912500Y-41912500D01*
X23612500Y-25537500D02*
X39362500Y-41287500D01*
X23612500Y-25062500D02*
X23612500Y-25537500D01*
%TO.N,FOLD_CV*%
X56712500Y-49112500D02*
X65337500Y-49112500D01*
X54747500Y-46497500D02*
X54747500Y-48147500D01*
X70712500Y-46087500D02*
X112037500Y-46087500D01*
X65337500Y-49112500D02*
X66812500Y-47637500D01*
X53597500Y-45347500D02*
X54747500Y-46497500D01*
X112037500Y-46087500D02*
X112912500Y-45212500D01*
X54747500Y-48147500D02*
X55712500Y-49112500D01*
X68362500Y-46087500D02*
X70712500Y-46087500D01*
X66812500Y-47637500D02*
X68362500Y-46087500D01*
X55712500Y-49112500D02*
X56712500Y-49112500D01*
D29*
%TO.N,Net-(Q402-B)*%
X113162500Y-20062500D02*
X116987500Y-20062500D01*
X108187500Y-15087500D02*
X113162500Y-20062500D01*
%TO.N,Net-(Q406-C)*%
X102362500Y-31962500D02*
X101087500Y-30687500D01*
X101237500Y-36037500D02*
X102362500Y-34912500D01*
X102362500Y-34912500D02*
X102362500Y-31962500D01*
X101237500Y-37462500D02*
X101237500Y-36037500D01*
%TO.N,TRI1_FULL*%
X52687500Y-9250001D02*
X52687500Y-10112500D01*
X49612500Y-10637500D02*
X48937500Y-9962500D01*
X52687500Y-10112500D02*
X52162500Y-10637500D01*
X52162500Y-10637500D02*
X49612500Y-10637500D01*
%TO.N,TRI2_FULL*%
X55937500Y-38235000D02*
X55937500Y-37237500D01*
X21191592Y-22562500D02*
X14711592Y-16082500D01*
X55937500Y-37237500D02*
X54512500Y-35812500D01*
X37287500Y-34737500D02*
X50387500Y-34737500D01*
X33662500Y-27837500D02*
X33662500Y-31112500D01*
X50387500Y-34737500D02*
X51177500Y-35527500D01*
X51177500Y-35527500D02*
X54227500Y-35527500D01*
X33662500Y-31112500D02*
X37287500Y-34737500D01*
X54227500Y-35527500D02*
X54512500Y-35812500D01*
X27412500Y-21587500D02*
X33662500Y-27837500D01*
X14711592Y-16082500D02*
X13037500Y-16082500D01*
X24212500Y-22562500D02*
X21191592Y-22562500D01*
X27412500Y-21537500D02*
X27412500Y-21587500D01*
%TO.N,PULSE2_FULL*%
X19462500Y-12887500D02*
X16937500Y-10362500D01*
X16937500Y-10362500D02*
X13412500Y-10362500D01*
X49587500Y-41537500D02*
X48937500Y-41537500D01*
X52687500Y-38235000D02*
X52687500Y-39987500D01*
X38837500Y-39712500D02*
X29112500Y-29987500D01*
X51137500Y-41537500D02*
X49587500Y-41537500D01*
X46587500Y-40612500D02*
X45687500Y-39712500D01*
X23562500Y-20287500D02*
X19462500Y-16187500D01*
X19462500Y-16187500D02*
X19462500Y-12887500D01*
X48937500Y-41537500D02*
X48012500Y-40612500D01*
X52687500Y-39987500D02*
X51312500Y-41362500D01*
X29112500Y-25837500D02*
X23562500Y-20287500D01*
X51312500Y-41362500D02*
X51137500Y-41537500D01*
X29112500Y-29987500D02*
X29112500Y-25837500D01*
X45687500Y-39712500D02*
X38837500Y-39712500D01*
X48012500Y-40612500D02*
X46587500Y-40612500D01*
%TO.N,PULSE1_FULL*%
X55087500Y-11287500D02*
X40962500Y-11287500D01*
X55937500Y-9250001D02*
X55937500Y-10437500D01*
X55937500Y-10437500D02*
X55087500Y-11287500D01*
X40962500Y-11287500D02*
X37837500Y-8162500D01*
%TO.N,Net-(U203C-P2W)*%
X59387500Y-13812500D02*
X59387500Y-15425000D01*
X59387500Y-15425000D02*
X59360000Y-15452500D01*
X58112500Y-17962500D02*
X58712500Y-18562500D01*
X52037500Y-16735170D02*
X53264830Y-17962500D01*
X54037500Y-17962500D02*
X58112500Y-17962500D01*
X53264830Y-17962500D02*
X54037500Y-17962500D01*
X52037500Y-14975001D02*
X52037500Y-16735170D01*
%TO.N,Net-(U204C--)*%
X56787500Y-22022500D02*
X59310000Y-22022500D01*
X59592500Y-22305000D02*
X59845000Y-22305000D01*
X61205000Y-7862500D02*
X61205000Y-15432500D01*
X61205000Y-15432500D02*
X61185000Y-15452500D01*
X59845000Y-22305000D02*
X61185000Y-20965000D01*
X59310000Y-22022500D02*
X59592500Y-22305000D01*
X61185000Y-20965000D02*
X61185000Y-15452500D01*
%TO.N,Net-(U203A-P0W)*%
X56587500Y-14975001D02*
X56587500Y-14187500D01*
X46210000Y-14285908D02*
X46210000Y-17322500D01*
X54987500Y-12587500D02*
X47908408Y-12587500D01*
X47908408Y-12587500D02*
X46210000Y-14285908D01*
X56587500Y-14187500D02*
X54987500Y-12587500D01*
%TO.N,Net-(U203B-P1W)*%
X59380000Y-11792500D02*
X58462671Y-11792500D01*
X56587500Y-9917329D02*
X56587500Y-9250001D01*
X58462671Y-11792500D02*
X56587500Y-9917329D01*
%TO.N,Net-(U203D-P3W)*%
X51387500Y-6237500D02*
X52912500Y-4712500D01*
X52037500Y-8582673D02*
X51387500Y-7932673D01*
X56230000Y-4712500D02*
X59380000Y-7862500D01*
X52912500Y-4712500D02*
X56230000Y-4712500D01*
X52037500Y-9250001D02*
X52037500Y-8582673D01*
X51387500Y-7932673D02*
X51387500Y-6237500D01*
%TO.N,Net-(U204B--)*%
X49960000Y-19977500D02*
X49287500Y-20650000D01*
X49287500Y-20650000D02*
X50660000Y-22022500D01*
X50660000Y-22022500D02*
X51837500Y-22022500D01*
X48035000Y-17322500D02*
X48820000Y-17322500D01*
X48820000Y-17322500D02*
X49960000Y-18462500D01*
X49960000Y-18462500D02*
X49960000Y-19977500D01*
%TO.N,Net-(U204A--)*%
X47580000Y-28757500D02*
X49387500Y-26950000D01*
X49540000Y-27102500D02*
X49387500Y-26950000D01*
X47580000Y-32322500D02*
X47580000Y-28757500D01*
X47570000Y-32312500D02*
X47580000Y-32322500D01*
X46137500Y-32312500D02*
X47570000Y-32312500D01*
X47550000Y-39312500D02*
X46437500Y-39312500D01*
X51837500Y-27102500D02*
X49540000Y-27102500D01*
X46137500Y-35787500D02*
X47550000Y-35787500D01*
X46437500Y-39312500D02*
X46137500Y-39012500D01*
%TO.N,Net-(U205A-P0W)*%
X49275000Y-22462500D02*
X49287500Y-22475000D01*
X49450000Y-22637500D02*
X49287500Y-22475000D01*
X52037500Y-32510000D02*
X52037500Y-30012500D01*
X52037500Y-30012500D02*
X51962500Y-29937500D01*
X47637500Y-22462500D02*
X49275000Y-22462500D01*
%TO.N,Net-(U205B-P1W)*%
X50257328Y-35787500D02*
X52037500Y-37567672D01*
X52037500Y-37567672D02*
X52037500Y-38235000D01*
X49375000Y-35787500D02*
X50257328Y-35787500D01*
%TO.N,Net-(U205C-P2W)*%
X51912500Y-34712500D02*
X51862500Y-34762500D01*
X56587500Y-34062500D02*
X55937500Y-34712500D01*
X49337500Y-32255000D02*
X49405000Y-32322500D01*
X55937500Y-34712500D02*
X51912500Y-34712500D01*
X49337500Y-30612500D02*
X49337500Y-32255000D01*
X56587500Y-32510000D02*
X56587500Y-34062500D01*
%TO.N,Net-(U205D-P3W)*%
X50712500Y-40487500D02*
X50550000Y-40487500D01*
X56587500Y-40487500D02*
X56587500Y-38235000D01*
X50550000Y-40487500D02*
X49375000Y-39312500D01*
%TO.N,Net-(R241-Pad2)*%
X54962500Y-28687500D02*
X56137500Y-29862500D01*
X62687500Y-36212500D02*
X64662500Y-38187500D01*
X57712500Y-29862500D02*
X59362500Y-31512500D01*
X60920170Y-31512500D02*
X62687500Y-33279830D01*
X56137500Y-29862500D02*
X57712500Y-29862500D01*
X54962500Y-23312500D02*
X54962500Y-28687500D01*
X64662500Y-38187500D02*
X66175000Y-38187500D01*
X59362500Y-31512500D02*
X60920170Y-31512500D01*
X52402500Y-20752500D02*
X54962500Y-23312500D01*
X51837500Y-20752500D02*
X51837500Y-18515000D01*
X51837500Y-20752500D02*
X52402500Y-20752500D01*
X62687500Y-33279830D02*
X62687500Y-36212500D01*
X51837500Y-18515000D02*
X51785000Y-18462500D01*
%TO.N,OSC_MIX*%
X68652500Y-27797500D02*
X68637500Y-27812500D01*
X70577500Y-30397500D02*
X68662500Y-32312500D01*
X71900000Y-30397500D02*
X70577500Y-30397500D01*
X71900000Y-27797500D02*
X68652500Y-27797500D01*
X68662500Y-32312500D02*
X68000000Y-32975000D01*
X68000000Y-32975000D02*
X68000000Y-38187500D01*
%TO.N,Net-(U301C--)*%
X77212500Y-24737500D02*
X80937500Y-21012500D01*
X77212500Y-28612500D02*
X77212500Y-24737500D01*
X80937500Y-21012500D02*
X89387500Y-21012500D01*
X89387500Y-21012500D02*
X89405000Y-21030000D01*
X78112500Y-29512500D02*
X77212500Y-28612500D01*
X78112500Y-34437500D02*
X78112500Y-29512500D01*
%TO.N,LP_IN*%
X72112500Y-13222500D02*
X72779828Y-13222500D01*
X74162500Y-12762500D02*
X74787500Y-13387500D01*
X72779828Y-13222500D02*
X73239828Y-12762500D01*
X74787500Y-13387500D02*
X74787500Y-16712500D01*
X73239828Y-12762500D02*
X73787500Y-12762500D01*
X73787500Y-12762500D02*
X74162500Y-12762500D01*
X74787500Y-16712500D02*
X75737500Y-17662500D01*
X75737500Y-17662500D02*
X79737500Y-17662500D01*
X79737500Y-17662500D02*
X80912500Y-16487500D01*
%TO.N,FOLDER_OUT*%
X71900000Y-29097500D02*
X72567328Y-29097500D01*
X73187500Y-22462500D02*
X73337500Y-22312500D01*
X72567328Y-29097500D02*
X73187500Y-28477328D01*
X73187500Y-28477328D02*
X73187500Y-22462500D01*
X66175000Y-29097500D02*
X71900000Y-29097500D01*
%TO.N,FILTER_IN*%
X70977500Y-11272500D02*
X70512500Y-11737500D01*
X72112500Y-11272500D02*
X72042500Y-11202500D01*
X73722500Y-13872500D02*
X73737500Y-13887500D01*
X72112500Y-11272500D02*
X70977500Y-11272500D01*
X71900000Y-29747500D02*
X66175000Y-29747500D01*
X70512500Y-12939828D02*
X71445172Y-13872500D01*
X72112500Y-13872500D02*
X73722500Y-13872500D01*
X70512500Y-11737500D02*
X70512500Y-12939828D01*
X71445172Y-13872500D02*
X72112500Y-13872500D01*
%TO.N,Net-(U205A-P0B)*%
X52687500Y-32510000D02*
X52687500Y-33177328D01*
X51435000Y-28775000D02*
X51837500Y-28372500D01*
X51837500Y-28372500D02*
X52737500Y-29272500D01*
X49387500Y-28775000D02*
X51435000Y-28775000D01*
X52737500Y-29272500D02*
X52737500Y-32460000D01*
X52737500Y-32460000D02*
X52687500Y-32510000D01*
%TO.N,Net-(U203A-P0B)*%
X59592500Y-17842500D02*
X59592500Y-20480000D01*
X55937500Y-14975001D02*
X55937500Y-15912500D01*
X56347500Y-16202500D02*
X57952500Y-16202500D01*
X55937500Y-15912500D02*
X56287500Y-16262500D01*
X56287500Y-16262500D02*
X56347500Y-16202500D01*
X57952500Y-16202500D02*
X59592500Y-17842500D01*
X56787500Y-20752500D02*
X59320000Y-20752500D01*
X59320000Y-20752500D02*
X59592500Y-20480000D01*
%TO.N,Net-(R420-Pad2)*%
X75562500Y-15662500D02*
X75562500Y-10687500D01*
X96362500Y-2587500D02*
X96387500Y-2612500D01*
X90737500Y-2587500D02*
X90062500Y-1912500D01*
X75562500Y-10687500D02*
X84337500Y-1912500D01*
X90737500Y-2587500D02*
X96362500Y-2587500D01*
X90062500Y-1912500D02*
X84337500Y-1912500D01*
%TD*%
M02*
