%TF.GenerationSoftware,KiCad,Pcbnew,8.0.3*%
%TF.CreationDate,2024-07-01T12:15:54-06:00*%
%TF.ProjectId,VoiceBoardR3,566f6963-6542-46f6-9172-6452332e6b69,rev?*%
%TF.SameCoordinates,Original*%
%TF.FileFunction,Copper,L2,Inr*%
%TF.FilePolarity,Positive*%
%FSLAX46Y46*%
G04 Gerber Fmt 4.6, Leading zero omitted, Abs format (unit mm)*
G04 Created by KiCad (PCBNEW 8.0.3) date 2024-07-01 12:15:54*
%MOMM*%
%LPD*%
G01*
G04 APERTURE LIST*
%TA.AperFunction,ComponentPad*%
%ADD10C,1.000000*%
%TD*%
%TA.AperFunction,ComponentPad*%
%ADD11R,1.700000X1.700000*%
%TD*%
%TA.AperFunction,ComponentPad*%
%ADD12O,1.700000X1.700000*%
%TD*%
%TA.AperFunction,ViaPad*%
%ADD13C,0.800000*%
%TD*%
%TA.AperFunction,ViaPad*%
%ADD14C,0.650000*%
%TD*%
G04 APERTURE END LIST*
D10*
%TO.N,SAW1_FULL*%
%TO.C,SAW1*%
X37185600Y-9194800D03*
%TD*%
%TO.N,TRI1_FULL*%
%TO.C,TRI1*%
X11353800Y-20497800D03*
%TD*%
%TO.N,TRI2_FULL*%
%TO.C,TRI2*%
X35331400Y-37896800D03*
%TD*%
D11*
%TO.N,SDA*%
%TO.C,U103*%
X43437500Y-47887500D03*
D12*
%TO.N,LEVEL_1_CV*%
X43437500Y-45347500D03*
%TO.N,SCL*%
X45977500Y-47887500D03*
%TO.N,LEVEL_2_CV*%
X45977500Y-45347500D03*
%TO.N,CLK_1*%
X48517500Y-47887500D03*
%TO.N,PWM_1_CV*%
X48517500Y-45347500D03*
%TO.N,CLK_2*%
X51057500Y-47887500D03*
%TO.N,PWM_2_CV*%
X51057500Y-45347500D03*
%TO.N,HP_MODE*%
X53597500Y-47887500D03*
%TO.N,FOLD_CV*%
X53597500Y-45347500D03*
%TO.N,FOLD_FIRST*%
X56137500Y-47887500D03*
%TO.N,CUTOFF_CV*%
X56137500Y-45347500D03*
%TO.N,VCA_OUT*%
X58677500Y-47887500D03*
%TO.N,VCA_CV*%
X58677500Y-45347500D03*
%TO.N,+3.3V*%
X61217500Y-47887500D03*
%TO.N,GND*%
X61217500Y-45347500D03*
%TO.N,+12V*%
X63757500Y-47887500D03*
%TO.N,-12V*%
X63757500Y-45347500D03*
%TD*%
D10*
%TO.N,SAW2_FULL*%
%TO.C,SAW2*%
X32359600Y-30276800D03*
%TD*%
D13*
%TO.N,Net-(C201-Pad2)*%
X24307800Y-3759200D03*
X15621000Y-9423400D03*
%TO.N,CLK_1*%
X37388800Y-41402000D03*
X4851400Y-9118600D03*
%TO.N,SAW1_FULL*%
X59563000Y-16129000D03*
X62890400Y-15646400D03*
X45923200Y-15290800D03*
X33909000Y-17653000D03*
%TO.N,GND*%
X56565800Y-25908000D03*
X99161600Y-26771600D03*
X101828600Y-23672800D03*
X81940400Y-12496800D03*
X21717000Y-3302000D03*
X39547800Y-15722600D03*
X39497000Y-32537400D03*
X106553000Y-8458200D03*
X63957200Y-10642600D03*
X66979800Y-10693400D03*
X20574000Y-20091400D03*
X94005400Y-16459200D03*
X123063000Y-8128000D03*
X84607400Y-16433800D03*
X118872000Y-23952200D03*
X83032600Y-14605000D03*
X68757800Y-22529800D03*
X54229000Y-21132800D03*
X12090400Y-31953200D03*
X95681800Y-7366000D03*
X11912600Y-11049000D03*
X104724200Y-41630600D03*
X100101400Y-41452800D03*
X32334200Y-9829800D03*
X94488000Y-24130000D03*
X113309400Y-33426400D03*
X118084600Y-15367000D03*
X60731400Y-43383200D03*
X59080400Y-6400800D03*
X124764800Y-22987000D03*
X60096400Y-31521400D03*
X110794800Y-8458200D03*
X65582800Y-29464000D03*
X76530200Y-24257000D03*
X60096400Y-26212800D03*
X38506400Y-39649400D03*
X114071400Y-8077200D03*
X87096600Y-8585200D03*
X88747600Y-28295600D03*
X79908400Y-11353800D03*
X59867800Y-12319000D03*
X79171800Y-16179800D03*
X109118400Y-38404800D03*
X109651800Y-25044400D03*
X53111400Y-27660600D03*
X62687200Y-18389600D03*
X22961600Y-33680400D03*
X32334200Y-32385000D03*
X110820200Y-41630600D03*
X54940200Y-4064000D03*
X56489600Y-11861800D03*
X82270600Y-20294600D03*
X74422000Y-43180000D03*
X84505800Y-20294600D03*
X75590400Y-29641800D03*
X21742400Y-26847800D03*
X52705000Y-36118800D03*
X19659600Y-42418000D03*
%TO.N,+12V*%
X96621600Y-16586200D03*
X112547400Y-11607800D03*
X56819800Y-19532600D03*
X125577600Y-21082000D03*
X118592600Y-41554400D03*
X20015200Y-34671000D03*
X109042200Y-42875200D03*
X72237600Y-9347200D03*
X69926200Y-27762200D03*
X39700200Y-18796000D03*
X19329400Y-12039600D03*
X70713600Y-18491200D03*
X77876400Y-41249600D03*
X100939600Y-30149800D03*
%TO.N,-12V*%
X95986600Y-14935200D03*
X62611000Y-21158200D03*
X32893000Y-42875200D03*
X97663000Y-35585400D03*
X110820200Y-33375600D03*
X75361800Y-31673800D03*
X21767800Y-12725400D03*
X28092400Y-24104600D03*
X80406201Y-19024600D03*
X79273400Y-4114800D03*
X39674800Y-28829000D03*
X114071400Y-21605201D03*
X51231800Y-2336800D03*
X21717000Y-35483800D03*
%TO.N,CLK_2*%
X39624000Y-37871400D03*
X7366000Y-29565600D03*
%TO.N,Net-(C209-Pad2)*%
X14097000Y-30378400D03*
X23850600Y-25755600D03*
%TO.N,+3.3V*%
X61112400Y-14325600D03*
X57607200Y-37566600D03*
X119323900Y-6304500D03*
%TO.N,FILTER_OUT*%
X77089000Y-17678400D03*
%TO.N,Net-(U301C-+)*%
X99441000Y-11125200D03*
X113588800Y-16535400D03*
%TO.N,Net-(D301-K)*%
X92176600Y-15976600D03*
X96697800Y-24638000D03*
%TO.N,Net-(U301B-+)*%
X110363000Y-16052800D03*
X100025200Y-16027400D03*
%TO.N,HP_IN*%
X84048600Y-6324600D03*
X93954600Y-6324600D03*
X74193400Y-7035800D03*
%TO.N,FOLDER_IN*%
X70535800Y-25095200D03*
X82346800Y-26187400D03*
X72618600Y-26416000D03*
%TO.N,VCA_IN*%
X75285600Y-16256000D03*
X74777600Y-23698200D03*
D14*
%TO.N,SDA*%
X55372000Y-29083000D03*
X118338600Y-11734800D03*
X59715400Y-3200400D03*
%TO.N,SCL*%
X120497600Y-11455400D03*
X57505600Y-28879800D03*
X61442600Y-3200400D03*
%TO.N,FOLD_FIRST*%
X72339200Y-17602200D03*
X74117200Y-26009600D03*
X63982600Y-35661600D03*
%TO.N,HP_MODE*%
X63627000Y-33274000D03*
%TO.N,PWM_1_CV*%
X40817800Y-39751000D03*
X39954200Y-23876000D03*
%TO.N,PWM_2_CV*%
X43408600Y-35560000D03*
X42494200Y-24384000D03*
%TO.N,CUTOFF_CV*%
X66522600Y-42595800D03*
X84480400Y-26568400D03*
X59365800Y-42119200D03*
%TO.N,FOLD_CV*%
X65455800Y-40462200D03*
X60960000Y-40462200D03*
X71170800Y-32893000D03*
D13*
%TO.N,TRI1_FULL*%
X29768800Y-16713200D03*
X41529000Y-9220200D03*
%TO.N,TRI2_FULL*%
X35661600Y-44500800D03*
X45999400Y-32410400D03*
%TO.N,PULSE2_FULL*%
X45643800Y-29464000D03*
X43815000Y-32715200D03*
%TO.N,Net-(U204A--)*%
X49911000Y-20472400D03*
X49913500Y-29083000D03*
%TO.N,OSC_MIX*%
X69138800Y-6604000D03*
X48310800Y-18491200D03*
X54635400Y-1981200D03*
%TO.N,Net-(U303C-+)*%
X106654600Y-16789400D03*
X102184200Y-20828000D03*
%TO.N,Net-(U301C--)*%
X121031000Y-24257000D03*
X101053900Y-14541500D03*
%TO.N,LP_IN*%
X81432400Y-9728200D03*
%TO.N,FOLDER_OUT*%
X76225400Y-21158200D03*
%TO.N,Net-(U404B--)*%
X100965000Y-39725600D03*
X79248000Y-43103800D03*
%TO.N,Net-(R425-Pad2)*%
X86487000Y-39878000D03*
X81000600Y-40284400D03*
%TO.N,Net-(C211-Pad2)*%
X47498000Y-12623800D03*
X47091600Y-34493200D03*
%TO.N,Net-(U301D-+)*%
X119862600Y-17348200D03*
X92228681Y-8128875D03*
%TO.N,FILTER_IN*%
X67030600Y-17602200D03*
X77901800Y-9118600D03*
X71062678Y-22962800D03*
X69672200Y-13792200D03*
%TO.N,Net-(U205A-P0B)*%
X56438800Y-31699200D03*
X59385200Y-29768800D03*
%TO.N,Net-(U204D--)*%
X66707656Y-16009256D03*
X54356000Y-13690600D03*
%TD*%
%TA.AperFunction,Conductor*%
%TO.N,GND*%
G36*
X122169777Y67815D02*
G01*
X122190419Y51181D01*
X129568581Y-7326981D01*
X129602066Y-7388304D01*
X129604900Y-7414662D01*
X129604900Y-43118738D01*
X129585215Y-43185777D01*
X129568581Y-43206419D01*
X126073819Y-46701181D01*
X126012496Y-46734666D01*
X125986138Y-46737500D01*
X69037499Y-46737500D01*
X66323819Y-49451181D01*
X66262496Y-49484666D01*
X66236138Y-49487500D01*
X41413862Y-49487500D01*
X41346823Y-49467815D01*
X41326181Y-49451181D01*
X39784100Y-47909100D01*
X15935462Y-47909100D01*
X15868423Y-47889415D01*
X15847781Y-47872781D01*
X13322497Y-45347497D01*
X42182223Y-45347497D01*
X42182223Y-45347502D01*
X42201293Y-45565475D01*
X42201293Y-45565479D01*
X42257922Y-45776822D01*
X42257924Y-45776826D01*
X42257925Y-45776830D01*
X42274990Y-45813425D01*
X42350397Y-45975138D01*
X42375498Y-46010986D01*
X42475902Y-46154377D01*
X42630623Y-46309098D01*
X42776763Y-46411426D01*
X42820387Y-46466002D01*
X42827581Y-46535500D01*
X42796058Y-46597855D01*
X42735828Y-46633269D01*
X42705640Y-46637000D01*
X42555982Y-46637000D01*
X42475019Y-46649823D01*
X42462196Y-46651854D01*
X42349158Y-46709450D01*
X42349157Y-46709451D01*
X42349152Y-46709454D01*
X42259454Y-46799152D01*
X42259451Y-46799157D01*
X42259450Y-46799158D01*
X42240251Y-46836837D01*
X42201852Y-46912198D01*
X42187000Y-47005975D01*
X42187000Y-48769017D01*
X42197792Y-48837157D01*
X42201854Y-48862804D01*
X42259450Y-48975842D01*
X42259452Y-48975844D01*
X42259454Y-48975847D01*
X42349152Y-49065545D01*
X42349154Y-49065546D01*
X42349158Y-49065550D01*
X42462194Y-49123145D01*
X42462198Y-49123147D01*
X42555975Y-49137999D01*
X42555981Y-49138000D01*
X44319018Y-49137999D01*
X44412804Y-49123146D01*
X44525842Y-49065550D01*
X44615550Y-48975842D01*
X44673146Y-48862804D01*
X44673146Y-48862802D01*
X44673147Y-48862801D01*
X44687999Y-48769024D01*
X44688000Y-48769019D01*
X44687999Y-48619359D01*
X44707683Y-48552323D01*
X44760487Y-48506568D01*
X44829645Y-48496624D01*
X44893201Y-48525649D01*
X44913573Y-48548238D01*
X45015902Y-48694377D01*
X45170623Y-48849098D01*
X45349861Y-48974602D01*
X45548170Y-49067075D01*
X45759523Y-49123707D01*
X45942426Y-49139708D01*
X45977498Y-49142777D01*
X45977500Y-49142777D01*
X45977502Y-49142777D01*
X46005754Y-49140305D01*
X46195477Y-49123707D01*
X46406830Y-49067075D01*
X46605139Y-48974602D01*
X46784377Y-48849098D01*
X46939098Y-48694377D01*
X47064602Y-48515139D01*
X47135118Y-48363914D01*
X47181290Y-48311477D01*
X47248484Y-48292325D01*
X47315365Y-48312541D01*
X47359881Y-48363914D01*
X47430398Y-48515139D01*
X47555902Y-48694377D01*
X47710623Y-48849098D01*
X47889861Y-48974602D01*
X48088170Y-49067075D01*
X48299523Y-49123707D01*
X48482426Y-49139708D01*
X48517498Y-49142777D01*
X48517500Y-49142777D01*
X48517502Y-49142777D01*
X48545754Y-49140305D01*
X48735477Y-49123707D01*
X48946830Y-49067075D01*
X49145139Y-48974602D01*
X49324377Y-48849098D01*
X49479098Y-48694377D01*
X49604602Y-48515139D01*
X49675118Y-48363914D01*
X49721290Y-48311477D01*
X49788484Y-48292325D01*
X49855365Y-48312541D01*
X49899881Y-48363914D01*
X49970398Y-48515139D01*
X50095902Y-48694377D01*
X50250623Y-48849098D01*
X50429861Y-48974602D01*
X50628170Y-49067075D01*
X50839523Y-49123707D01*
X51022426Y-49139708D01*
X51057498Y-49142777D01*
X51057500Y-49142777D01*
X51057502Y-49142777D01*
X51085754Y-49140305D01*
X51275477Y-49123707D01*
X51486830Y-49067075D01*
X51685139Y-48974602D01*
X51864377Y-48849098D01*
X52019098Y-48694377D01*
X52144602Y-48515139D01*
X52215118Y-48363914D01*
X52261290Y-48311477D01*
X52328484Y-48292325D01*
X52395365Y-48312541D01*
X52439881Y-48363914D01*
X52510398Y-48515139D01*
X52635902Y-48694377D01*
X52790623Y-48849098D01*
X52969861Y-48974602D01*
X53168170Y-49067075D01*
X53379523Y-49123707D01*
X53562426Y-49139708D01*
X53597498Y-49142777D01*
X53597500Y-49142777D01*
X53597502Y-49142777D01*
X53625754Y-49140305D01*
X53815477Y-49123707D01*
X54026830Y-49067075D01*
X54225139Y-48974602D01*
X54404377Y-48849098D01*
X54559098Y-48694377D01*
X54684602Y-48515139D01*
X54755118Y-48363914D01*
X54801290Y-48311477D01*
X54868484Y-48292325D01*
X54935365Y-48312541D01*
X54979881Y-48363914D01*
X55050398Y-48515139D01*
X55175902Y-48694377D01*
X55330623Y-48849098D01*
X55509861Y-48974602D01*
X55708170Y-49067075D01*
X55919523Y-49123707D01*
X56102426Y-49139708D01*
X56137498Y-49142777D01*
X56137500Y-49142777D01*
X56137502Y-49142777D01*
X56165754Y-49140305D01*
X56355477Y-49123707D01*
X56566830Y-49067075D01*
X56765139Y-48974602D01*
X56944377Y-48849098D01*
X57099098Y-48694377D01*
X57224602Y-48515139D01*
X57295118Y-48363914D01*
X57341290Y-48311477D01*
X57408484Y-48292325D01*
X57475365Y-48312541D01*
X57519881Y-48363914D01*
X57590398Y-48515139D01*
X57715902Y-48694377D01*
X57870623Y-48849098D01*
X58049861Y-48974602D01*
X58248170Y-49067075D01*
X58459523Y-49123707D01*
X58642426Y-49139708D01*
X58677498Y-49142777D01*
X58677500Y-49142777D01*
X58677502Y-49142777D01*
X58705754Y-49140305D01*
X58895477Y-49123707D01*
X59106830Y-49067075D01*
X59305139Y-48974602D01*
X59484377Y-48849098D01*
X59639098Y-48694377D01*
X59764602Y-48515139D01*
X59835118Y-48363914D01*
X59881290Y-48311477D01*
X59948484Y-48292325D01*
X60015365Y-48312541D01*
X60059881Y-48363914D01*
X60130398Y-48515139D01*
X60255902Y-48694377D01*
X60410623Y-48849098D01*
X60589861Y-48974602D01*
X60788170Y-49067075D01*
X60999523Y-49123707D01*
X61182426Y-49139708D01*
X61217498Y-49142777D01*
X61217500Y-49142777D01*
X61217502Y-49142777D01*
X61245754Y-49140305D01*
X61435477Y-49123707D01*
X61646830Y-49067075D01*
X61845139Y-48974602D01*
X62024377Y-48849098D01*
X62179098Y-48694377D01*
X62304602Y-48515139D01*
X62375118Y-48363914D01*
X62421290Y-48311477D01*
X62488484Y-48292325D01*
X62555365Y-48312541D01*
X62599881Y-48363914D01*
X62670398Y-48515139D01*
X62795902Y-48694377D01*
X62950623Y-48849098D01*
X63129861Y-48974602D01*
X63328170Y-49067075D01*
X63539523Y-49123707D01*
X63722426Y-49139708D01*
X63757498Y-49142777D01*
X63757500Y-49142777D01*
X63757502Y-49142777D01*
X63785754Y-49140305D01*
X63975477Y-49123707D01*
X64186830Y-49067075D01*
X64385139Y-48974602D01*
X64564377Y-48849098D01*
X64719098Y-48694377D01*
X64844602Y-48515139D01*
X64937075Y-48316830D01*
X64993707Y-48105477D01*
X65010887Y-47909100D01*
X65012777Y-47887502D01*
X65012777Y-47887497D01*
X65009069Y-47845118D01*
X64993707Y-47669523D01*
X64937075Y-47458170D01*
X64844602Y-47259862D01*
X64844600Y-47259859D01*
X64844599Y-47259857D01*
X64719099Y-47080624D01*
X64644450Y-47005975D01*
X64564377Y-46925902D01*
X64385139Y-46800398D01*
X64233914Y-46729881D01*
X64181477Y-46683710D01*
X64162325Y-46616516D01*
X64182541Y-46549635D01*
X64233914Y-46505118D01*
X64385139Y-46434602D01*
X64564377Y-46309098D01*
X64719098Y-46154377D01*
X64844602Y-45975139D01*
X64937075Y-45776830D01*
X64993707Y-45565477D01*
X65012777Y-45347500D01*
X64993707Y-45129523D01*
X64959048Y-45000175D01*
X64937077Y-44918177D01*
X64937076Y-44918176D01*
X64937075Y-44918170D01*
X64844602Y-44719862D01*
X64844600Y-44719859D01*
X64844599Y-44719857D01*
X64719099Y-44540624D01*
X64654895Y-44476420D01*
X64564377Y-44385902D01*
X64385139Y-44260398D01*
X64385140Y-44260398D01*
X64385138Y-44260397D01*
X64285984Y-44214161D01*
X64186830Y-44167925D01*
X64186826Y-44167924D01*
X64186822Y-44167922D01*
X63975477Y-44111293D01*
X63757502Y-44092223D01*
X63757498Y-44092223D01*
X63612182Y-44104936D01*
X63539523Y-44111293D01*
X63539520Y-44111293D01*
X63328177Y-44167922D01*
X63328168Y-44167926D01*
X63129861Y-44260398D01*
X63129857Y-44260400D01*
X62950621Y-44385902D01*
X62795902Y-44540621D01*
X62670400Y-44719857D01*
X62670397Y-44719863D01*
X62654773Y-44753368D01*
X62608599Y-44805807D01*
X62541405Y-44824957D01*
X62474525Y-44804740D01*
X62430009Y-44753365D01*
X62391098Y-44669919D01*
X62255613Y-44476426D01*
X62255608Y-44476420D01*
X62088582Y-44309394D01*
X61895078Y-44173899D01*
X61680992Y-44074070D01*
X61680986Y-44074067D01*
X61467500Y-44016864D01*
X61467500Y-44914488D01*
X61410493Y-44881575D01*
X61283326Y-44847500D01*
X61151674Y-44847500D01*
X61024507Y-44881575D01*
X60967500Y-44914488D01*
X60967500Y-44016864D01*
X60967499Y-44016864D01*
X60754013Y-44074067D01*
X60754007Y-44074070D01*
X60539922Y-44173899D01*
X60539920Y-44173900D01*
X60346426Y-44309386D01*
X60346420Y-44309391D01*
X60179391Y-44476420D01*
X60179386Y-44476426D01*
X60043900Y-44669920D01*
X60043899Y-44669922D01*
X60004989Y-44753366D01*
X59958817Y-44805805D01*
X59891623Y-44824957D01*
X59824742Y-44804741D01*
X59780225Y-44753366D01*
X59764602Y-44719863D01*
X59764602Y-44719862D01*
X59764600Y-44719859D01*
X59764599Y-44719857D01*
X59639099Y-44540624D01*
X59574895Y-44476420D01*
X59484377Y-44385902D01*
X59305139Y-44260398D01*
X59305140Y-44260398D01*
X59305138Y-44260397D01*
X59205984Y-44214161D01*
X59106830Y-44167925D01*
X59106826Y-44167924D01*
X59106822Y-44167922D01*
X58895477Y-44111293D01*
X58677502Y-44092223D01*
X58677498Y-44092223D01*
X58532182Y-44104936D01*
X58459523Y-44111293D01*
X58459520Y-44111293D01*
X58248177Y-44167922D01*
X58248168Y-44167926D01*
X58049861Y-44260398D01*
X58049857Y-44260400D01*
X57870621Y-44385902D01*
X57715902Y-44540621D01*
X57590400Y-44719857D01*
X57590398Y-44719861D01*
X57519882Y-44871083D01*
X57473709Y-44923522D01*
X57406516Y-44942674D01*
X57339635Y-44922458D01*
X57295118Y-44871083D01*
X57240225Y-44753366D01*
X57224602Y-44719862D01*
X57224600Y-44719859D01*
X57224599Y-44719857D01*
X57099099Y-44540624D01*
X57034895Y-44476420D01*
X56944377Y-44385902D01*
X56765139Y-44260398D01*
X56765140Y-44260398D01*
X56765138Y-44260397D01*
X56665984Y-44214161D01*
X56566830Y-44167925D01*
X56566826Y-44167924D01*
X56566822Y-44167922D01*
X56355477Y-44111293D01*
X56137502Y-44092223D01*
X56137498Y-44092223D01*
X55992182Y-44104936D01*
X55919523Y-44111293D01*
X55919520Y-44111293D01*
X55708177Y-44167922D01*
X55708168Y-44167926D01*
X55509861Y-44260398D01*
X55509857Y-44260400D01*
X55330621Y-44385902D01*
X55175902Y-44540621D01*
X55050400Y-44719857D01*
X55050398Y-44719861D01*
X54979882Y-44871083D01*
X54933709Y-44923522D01*
X54866516Y-44942674D01*
X54799635Y-44922458D01*
X54755118Y-44871083D01*
X54700225Y-44753366D01*
X54684602Y-44719862D01*
X54684600Y-44719859D01*
X54684599Y-44719857D01*
X54559099Y-44540624D01*
X54494895Y-44476420D01*
X54404377Y-44385902D01*
X54225139Y-44260398D01*
X54225140Y-44260398D01*
X54225138Y-44260397D01*
X54125984Y-44214161D01*
X54026830Y-44167925D01*
X54026826Y-44167924D01*
X54026822Y-44167922D01*
X53815477Y-44111293D01*
X53597502Y-44092223D01*
X53597498Y-44092223D01*
X53452182Y-44104936D01*
X53379523Y-44111293D01*
X53379520Y-44111293D01*
X53168177Y-44167922D01*
X53168168Y-44167926D01*
X52969861Y-44260398D01*
X52969857Y-44260400D01*
X52790621Y-44385902D01*
X52635902Y-44540621D01*
X52510400Y-44719857D01*
X52510398Y-44719861D01*
X52439882Y-44871083D01*
X52393709Y-44923522D01*
X52326516Y-44942674D01*
X52259635Y-44922458D01*
X52215118Y-44871083D01*
X52160225Y-44753366D01*
X52144602Y-44719862D01*
X52144600Y-44719859D01*
X52144599Y-44719857D01*
X52019099Y-44540624D01*
X51954895Y-44476420D01*
X51864377Y-44385902D01*
X51685139Y-44260398D01*
X51685140Y-44260398D01*
X51685138Y-44260397D01*
X51585984Y-44214161D01*
X51486830Y-44167925D01*
X51486826Y-44167924D01*
X51486822Y-44167922D01*
X51275477Y-44111293D01*
X51057502Y-44092223D01*
X51057498Y-44092223D01*
X50912182Y-44104936D01*
X50839523Y-44111293D01*
X50839520Y-44111293D01*
X50628177Y-44167922D01*
X50628168Y-44167926D01*
X50429861Y-44260398D01*
X50429857Y-44260400D01*
X50250621Y-44385902D01*
X50095902Y-44540621D01*
X49970400Y-44719857D01*
X49970398Y-44719861D01*
X49899882Y-44871083D01*
X49853709Y-44923522D01*
X49786516Y-44942674D01*
X49719635Y-44922458D01*
X49675118Y-44871083D01*
X49620225Y-44753366D01*
X49604602Y-44719862D01*
X49604600Y-44719859D01*
X49604599Y-44719857D01*
X49479099Y-44540624D01*
X49414895Y-44476420D01*
X49324377Y-44385902D01*
X49145139Y-44260398D01*
X49145140Y-44260398D01*
X49145138Y-44260397D01*
X49045984Y-44214161D01*
X48946830Y-44167925D01*
X48946826Y-44167924D01*
X48946822Y-44167922D01*
X48735477Y-44111293D01*
X48517502Y-44092223D01*
X48517498Y-44092223D01*
X48372182Y-44104936D01*
X48299523Y-44111293D01*
X48299520Y-44111293D01*
X48088177Y-44167922D01*
X48088168Y-44167926D01*
X47889861Y-44260398D01*
X47889857Y-44260400D01*
X47710621Y-44385902D01*
X47555902Y-44540621D01*
X47430400Y-44719857D01*
X47430398Y-44719861D01*
X47359882Y-44871083D01*
X47313709Y-44923522D01*
X47246516Y-44942674D01*
X47179635Y-44922458D01*
X47135118Y-44871083D01*
X47080225Y-44753366D01*
X47064602Y-44719862D01*
X47064600Y-44719859D01*
X47064599Y-44719857D01*
X46939099Y-44540624D01*
X46874895Y-44476420D01*
X46784377Y-44385902D01*
X46605139Y-44260398D01*
X46605140Y-44260398D01*
X46605138Y-44260397D01*
X46505984Y-44214161D01*
X46406830Y-44167925D01*
X46406826Y-44167924D01*
X46406822Y-44167922D01*
X46195477Y-44111293D01*
X45977502Y-44092223D01*
X45977498Y-44092223D01*
X45832182Y-44104936D01*
X45759523Y-44111293D01*
X45759520Y-44111293D01*
X45548177Y-44167922D01*
X45548168Y-44167926D01*
X45349861Y-44260398D01*
X45349857Y-44260400D01*
X45170621Y-44385902D01*
X45015902Y-44540621D01*
X44890400Y-44719857D01*
X44890398Y-44719861D01*
X44819882Y-44871083D01*
X44773709Y-44923522D01*
X44706516Y-44942674D01*
X44639635Y-44922458D01*
X44595118Y-44871083D01*
X44540225Y-44753366D01*
X44524602Y-44719862D01*
X44524600Y-44719859D01*
X44524599Y-44719857D01*
X44399099Y-44540624D01*
X44334895Y-44476420D01*
X44244377Y-44385902D01*
X44065139Y-44260398D01*
X44065140Y-44260398D01*
X44065138Y-44260397D01*
X43965984Y-44214161D01*
X43866830Y-44167925D01*
X43866826Y-44167924D01*
X43866822Y-44167922D01*
X43655477Y-44111293D01*
X43437502Y-44092223D01*
X43437498Y-44092223D01*
X43292182Y-44104936D01*
X43219523Y-44111293D01*
X43219520Y-44111293D01*
X43008177Y-44167922D01*
X43008168Y-44167926D01*
X42809861Y-44260398D01*
X42809857Y-44260400D01*
X42630621Y-44385902D01*
X42475902Y-44540621D01*
X42350400Y-44719857D01*
X42350398Y-44719861D01*
X42257926Y-44918168D01*
X42257922Y-44918177D01*
X42201293Y-45129520D01*
X42201293Y-45129523D01*
X42201197Y-45130616D01*
X42182223Y-45347497D01*
X13322497Y-45347497D01*
X12475796Y-44500796D01*
X34856035Y-44500796D01*
X34856035Y-44500803D01*
X34876230Y-44680049D01*
X34876231Y-44680054D01*
X34935811Y-44850323D01*
X34996810Y-44947401D01*
X35031784Y-45003062D01*
X35159338Y-45130616D01*
X35312078Y-45226589D01*
X35469502Y-45281674D01*
X35482345Y-45286168D01*
X35482350Y-45286169D01*
X35661596Y-45306365D01*
X35661600Y-45306365D01*
X35661604Y-45306365D01*
X35840849Y-45286169D01*
X35840852Y-45286168D01*
X35840855Y-45286168D01*
X36011122Y-45226589D01*
X36163862Y-45130616D01*
X36291416Y-45003062D01*
X36387389Y-44850322D01*
X36446968Y-44680055D01*
X36462678Y-44540623D01*
X36467165Y-44500803D01*
X36467165Y-44500796D01*
X36446969Y-44321550D01*
X36446968Y-44321545D01*
X36387388Y-44151276D01*
X36291415Y-43998537D01*
X36163862Y-43870984D01*
X36011123Y-43775011D01*
X35840854Y-43715431D01*
X35840849Y-43715430D01*
X35661604Y-43695235D01*
X35661596Y-43695235D01*
X35482350Y-43715430D01*
X35482345Y-43715431D01*
X35312076Y-43775011D01*
X35159337Y-43870984D01*
X35031784Y-43998537D01*
X34935811Y-44151276D01*
X34876231Y-44321545D01*
X34876230Y-44321550D01*
X34856035Y-44500796D01*
X12475796Y-44500796D01*
X10850196Y-42875196D01*
X32087435Y-42875196D01*
X32087435Y-42875203D01*
X32107630Y-43054449D01*
X32107631Y-43054454D01*
X32167211Y-43224723D01*
X32230780Y-43325891D01*
X32263184Y-43377462D01*
X32390738Y-43505016D01*
X32543478Y-43600989D01*
X32713745Y-43660568D01*
X32713750Y-43660569D01*
X32892996Y-43680765D01*
X32893000Y-43680765D01*
X32893004Y-43680765D01*
X33072249Y-43660569D01*
X33072252Y-43660568D01*
X33072255Y-43660568D01*
X33242522Y-43600989D01*
X33395262Y-43505016D01*
X33522816Y-43377462D01*
X33618789Y-43224722D01*
X33678368Y-43054455D01*
X33693005Y-42924550D01*
X33698565Y-42875203D01*
X33698565Y-42875196D01*
X33678369Y-42695950D01*
X33678368Y-42695945D01*
X33676290Y-42690007D01*
X33618789Y-42525678D01*
X33586307Y-42473984D01*
X33560772Y-42433344D01*
X33522816Y-42372938D01*
X33395262Y-42245384D01*
X33242523Y-42149411D01*
X33072254Y-42089831D01*
X33072249Y-42089830D01*
X32893004Y-42069635D01*
X32892996Y-42069635D01*
X32713750Y-42089830D01*
X32713745Y-42089831D01*
X32543476Y-42149411D01*
X32390737Y-42245384D01*
X32263184Y-42372937D01*
X32167211Y-42525676D01*
X32107631Y-42695945D01*
X32107630Y-42695950D01*
X32087435Y-42875196D01*
X10850196Y-42875196D01*
X9376996Y-41401996D01*
X36583235Y-41401996D01*
X36583235Y-41402003D01*
X36603430Y-41581249D01*
X36603431Y-41581254D01*
X36663011Y-41751523D01*
X36743372Y-41879416D01*
X36758984Y-41904262D01*
X36886538Y-42031816D01*
X36923698Y-42055165D01*
X37025608Y-42119200D01*
X37039278Y-42127789D01*
X37200534Y-42184215D01*
X37209545Y-42187368D01*
X37209550Y-42187369D01*
X37388796Y-42207565D01*
X37388800Y-42207565D01*
X37388804Y-42207565D01*
X37568049Y-42187369D01*
X37568052Y-42187368D01*
X37568055Y-42187368D01*
X37738322Y-42127789D01*
X37751998Y-42119196D01*
X58635709Y-42119196D01*
X58635709Y-42119203D01*
X58654012Y-42281655D01*
X58708010Y-42435974D01*
X58764374Y-42525676D01*
X58794992Y-42574404D01*
X58910596Y-42690008D01*
X59049025Y-42776989D01*
X59203339Y-42830986D01*
X59203342Y-42830986D01*
X59203344Y-42830987D01*
X59365796Y-42849291D01*
X59365800Y-42849291D01*
X59365804Y-42849291D01*
X59528255Y-42830987D01*
X59528256Y-42830986D01*
X59528261Y-42830986D01*
X59682575Y-42776989D01*
X59821004Y-42690008D01*
X59915216Y-42595796D01*
X65792509Y-42595796D01*
X65792509Y-42595803D01*
X65810812Y-42758255D01*
X65864810Y-42912574D01*
X65864811Y-42912575D01*
X65951792Y-43051004D01*
X66067396Y-43166608D01*
X66205825Y-43253589D01*
X66360139Y-43307586D01*
X66360142Y-43307586D01*
X66360144Y-43307587D01*
X66522596Y-43325891D01*
X66522600Y-43325891D01*
X66522604Y-43325891D01*
X66685055Y-43307587D01*
X66685056Y-43307586D01*
X66685061Y-43307586D01*
X66839375Y-43253589D01*
X66977804Y-43166608D01*
X67040616Y-43103796D01*
X78442435Y-43103796D01*
X78442435Y-43103803D01*
X78462630Y-43283049D01*
X78462631Y-43283054D01*
X78522211Y-43453323D01*
X78614996Y-43600988D01*
X78618184Y-43606062D01*
X78745738Y-43733616D01*
X78898478Y-43829589D01*
X79016778Y-43870984D01*
X79068745Y-43889168D01*
X79068750Y-43889169D01*
X79247996Y-43909365D01*
X79248000Y-43909365D01*
X79248004Y-43909365D01*
X79427249Y-43889169D01*
X79427252Y-43889168D01*
X79427255Y-43889168D01*
X79597522Y-43829589D01*
X79750262Y-43733616D01*
X79877816Y-43606062D01*
X79973789Y-43453322D01*
X80033368Y-43283055D01*
X80036688Y-43253589D01*
X80053565Y-43103803D01*
X80053565Y-43103796D01*
X80033369Y-42924550D01*
X80033368Y-42924545D01*
X80016100Y-42875196D01*
X108236635Y-42875196D01*
X108236635Y-42875203D01*
X108256830Y-43054449D01*
X108256831Y-43054454D01*
X108316411Y-43224723D01*
X108379980Y-43325891D01*
X108412384Y-43377462D01*
X108539938Y-43505016D01*
X108692678Y-43600989D01*
X108862945Y-43660568D01*
X108862950Y-43660569D01*
X109042196Y-43680765D01*
X109042200Y-43680765D01*
X109042204Y-43680765D01*
X109221449Y-43660569D01*
X109221452Y-43660568D01*
X109221455Y-43660568D01*
X109391722Y-43600989D01*
X109544462Y-43505016D01*
X109672016Y-43377462D01*
X109767989Y-43224722D01*
X109827568Y-43054455D01*
X109842205Y-42924550D01*
X109847765Y-42875203D01*
X109847765Y-42875196D01*
X109827569Y-42695950D01*
X109827568Y-42695945D01*
X109825490Y-42690007D01*
X109767989Y-42525678D01*
X109735507Y-42473984D01*
X109709972Y-42433344D01*
X109672016Y-42372938D01*
X109544462Y-42245384D01*
X109391723Y-42149411D01*
X109221454Y-42089831D01*
X109221449Y-42089830D01*
X109042204Y-42069635D01*
X109042196Y-42069635D01*
X108862950Y-42089830D01*
X108862945Y-42089831D01*
X108692676Y-42149411D01*
X108539937Y-42245384D01*
X108412384Y-42372937D01*
X108316411Y-42525676D01*
X108256831Y-42695945D01*
X108256830Y-42695950D01*
X108236635Y-42875196D01*
X80016100Y-42875196D01*
X79973789Y-42754278D01*
X79877816Y-42601538D01*
X79750262Y-42473984D01*
X79689771Y-42435975D01*
X79597523Y-42378011D01*
X79427254Y-42318431D01*
X79427249Y-42318430D01*
X79248004Y-42298235D01*
X79247996Y-42298235D01*
X79068750Y-42318430D01*
X79068745Y-42318431D01*
X78898476Y-42378011D01*
X78745737Y-42473984D01*
X78618184Y-42601537D01*
X78522211Y-42754276D01*
X78462631Y-42924545D01*
X78462630Y-42924550D01*
X78442435Y-43103796D01*
X67040616Y-43103796D01*
X67093408Y-43051004D01*
X67180389Y-42912575D01*
X67234386Y-42758261D01*
X67241407Y-42695950D01*
X67252691Y-42595803D01*
X67252691Y-42595796D01*
X67234387Y-42433344D01*
X67234386Y-42433342D01*
X67234386Y-42433339D01*
X67180389Y-42279025D01*
X67093408Y-42140596D01*
X66977804Y-42024992D01*
X66898860Y-41975388D01*
X66839374Y-41938010D01*
X66685055Y-41884012D01*
X66522604Y-41865709D01*
X66522596Y-41865709D01*
X66360144Y-41884012D01*
X66205825Y-41938010D01*
X66067395Y-42024992D01*
X65951792Y-42140595D01*
X65864810Y-42279025D01*
X65810812Y-42433344D01*
X65792509Y-42595796D01*
X59915216Y-42595796D01*
X59936608Y-42574404D01*
X60023589Y-42435975D01*
X60077586Y-42281661D01*
X60077883Y-42279025D01*
X60095891Y-42119203D01*
X60095891Y-42119196D01*
X60077587Y-41956744D01*
X60077586Y-41956742D01*
X60077586Y-41956739D01*
X60023589Y-41802425D01*
X59936608Y-41663996D01*
X59821004Y-41548392D01*
X59682574Y-41461410D01*
X59528255Y-41407412D01*
X59365804Y-41389109D01*
X59365796Y-41389109D01*
X59203344Y-41407412D01*
X59049025Y-41461410D01*
X58910595Y-41548392D01*
X58794992Y-41663995D01*
X58708010Y-41802425D01*
X58654012Y-41956744D01*
X58635709Y-42119196D01*
X37751998Y-42119196D01*
X37891062Y-42031816D01*
X38018616Y-41904262D01*
X38114589Y-41751522D01*
X38174168Y-41581255D01*
X38174169Y-41581249D01*
X38194365Y-41402003D01*
X38194365Y-41401996D01*
X38177194Y-41249596D01*
X77070835Y-41249596D01*
X77070835Y-41249603D01*
X77091030Y-41428849D01*
X77091031Y-41428854D01*
X77150611Y-41599123D01*
X77191373Y-41663995D01*
X77246584Y-41751862D01*
X77374138Y-41879416D01*
X77381456Y-41884014D01*
X77497204Y-41956744D01*
X77526878Y-41975389D01*
X77668635Y-42024992D01*
X77697145Y-42034968D01*
X77697150Y-42034969D01*
X77876396Y-42055165D01*
X77876400Y-42055165D01*
X77876404Y-42055165D01*
X78055649Y-42034969D01*
X78055652Y-42034968D01*
X78055655Y-42034968D01*
X78225922Y-41975389D01*
X78378662Y-41879416D01*
X78506216Y-41751862D01*
X78602189Y-41599122D01*
X78617839Y-41554396D01*
X117787035Y-41554396D01*
X117787035Y-41554403D01*
X117807230Y-41733649D01*
X117807231Y-41733654D01*
X117866811Y-41903923D01*
X117947172Y-42031816D01*
X117962784Y-42056662D01*
X118090338Y-42184216D01*
X118127498Y-42207565D01*
X118241225Y-42279025D01*
X118243078Y-42280189D01*
X118413345Y-42339768D01*
X118413350Y-42339769D01*
X118592596Y-42359965D01*
X118592600Y-42359965D01*
X118592604Y-42359965D01*
X118771849Y-42339769D01*
X118771852Y-42339768D01*
X118771855Y-42339768D01*
X118942122Y-42280189D01*
X119094862Y-42184216D01*
X119222416Y-42056662D01*
X119318389Y-41903922D01*
X119377968Y-41733655D01*
X119393126Y-41599122D01*
X119398165Y-41554403D01*
X119398165Y-41554396D01*
X119377969Y-41375150D01*
X119377968Y-41375145D01*
X119334038Y-41249600D01*
X119318389Y-41204878D01*
X119222416Y-41052138D01*
X119094862Y-40924584D01*
X119083435Y-40917404D01*
X118942123Y-40828611D01*
X118771854Y-40769031D01*
X118771849Y-40769030D01*
X118592604Y-40748835D01*
X118592596Y-40748835D01*
X118413350Y-40769030D01*
X118413345Y-40769031D01*
X118243076Y-40828611D01*
X118090337Y-40924584D01*
X117962784Y-41052137D01*
X117866811Y-41204876D01*
X117807231Y-41375145D01*
X117807230Y-41375150D01*
X117787035Y-41554396D01*
X78617839Y-41554396D01*
X78661768Y-41428855D01*
X78664184Y-41407412D01*
X78681965Y-41249603D01*
X78681965Y-41249596D01*
X78661769Y-41070350D01*
X78661768Y-41070345D01*
X78648703Y-41033007D01*
X78602189Y-40900078D01*
X78601975Y-40899738D01*
X78519847Y-40769032D01*
X78506216Y-40747338D01*
X78378662Y-40619784D01*
X78353205Y-40603788D01*
X78225923Y-40523811D01*
X78055654Y-40464231D01*
X78055649Y-40464230D01*
X77876404Y-40444035D01*
X77876396Y-40444035D01*
X77697150Y-40464230D01*
X77697145Y-40464231D01*
X77526876Y-40523811D01*
X77374137Y-40619784D01*
X77246584Y-40747337D01*
X77150611Y-40900076D01*
X77091031Y-41070345D01*
X77091030Y-41070350D01*
X77070835Y-41249596D01*
X38177194Y-41249596D01*
X38174169Y-41222750D01*
X38174168Y-41222745D01*
X38127706Y-41089965D01*
X38114589Y-41052478D01*
X38114375Y-41052138D01*
X38027713Y-40914216D01*
X38018616Y-40899738D01*
X37891062Y-40772184D01*
X37886042Y-40769030D01*
X37738323Y-40676211D01*
X37568054Y-40616631D01*
X37568049Y-40616630D01*
X37388804Y-40596435D01*
X37388796Y-40596435D01*
X37209550Y-40616630D01*
X37209545Y-40616631D01*
X37039276Y-40676211D01*
X36886537Y-40772184D01*
X36758984Y-40899737D01*
X36663011Y-41052476D01*
X36603431Y-41222745D01*
X36603430Y-41222750D01*
X36583235Y-41401996D01*
X9376996Y-41401996D01*
X7725996Y-39750996D01*
X40087709Y-39750996D01*
X40087709Y-39751003D01*
X40106012Y-39913455D01*
X40160010Y-40067774D01*
X40160011Y-40067775D01*
X40246992Y-40206204D01*
X40362596Y-40321808D01*
X40501025Y-40408789D01*
X40655339Y-40462786D01*
X40655342Y-40462786D01*
X40655344Y-40462787D01*
X40817796Y-40481091D01*
X40817800Y-40481091D01*
X40817804Y-40481091D01*
X40980255Y-40462787D01*
X40980256Y-40462786D01*
X40980261Y-40462786D01*
X40981947Y-40462196D01*
X60229909Y-40462196D01*
X60229909Y-40462203D01*
X60248212Y-40624655D01*
X60302210Y-40778974D01*
X60302211Y-40778975D01*
X60389192Y-40917404D01*
X60504796Y-41033008D01*
X60643225Y-41119989D01*
X60797539Y-41173986D01*
X60797542Y-41173986D01*
X60797544Y-41173987D01*
X60959996Y-41192291D01*
X60960000Y-41192291D01*
X60960004Y-41192291D01*
X61122455Y-41173987D01*
X61122456Y-41173986D01*
X61122461Y-41173986D01*
X61276775Y-41119989D01*
X61415204Y-41033008D01*
X61530808Y-40917404D01*
X61617789Y-40778975D01*
X61671786Y-40624661D01*
X61674138Y-40603788D01*
X61690091Y-40462203D01*
X61690091Y-40462196D01*
X64725709Y-40462196D01*
X64725709Y-40462203D01*
X64744012Y-40624655D01*
X64798010Y-40778974D01*
X64798011Y-40778975D01*
X64884992Y-40917404D01*
X65000596Y-41033008D01*
X65139025Y-41119989D01*
X65293339Y-41173986D01*
X65293342Y-41173986D01*
X65293344Y-41173987D01*
X65455796Y-41192291D01*
X65455800Y-41192291D01*
X65455804Y-41192291D01*
X65618255Y-41173987D01*
X65618256Y-41173986D01*
X65618261Y-41173986D01*
X65772575Y-41119989D01*
X65911004Y-41033008D01*
X66026608Y-40917404D01*
X66113589Y-40778975D01*
X66167586Y-40624661D01*
X66169938Y-40603788D01*
X66185891Y-40462203D01*
X66185891Y-40462196D01*
X66167587Y-40299744D01*
X66167586Y-40299742D01*
X66167586Y-40299739D01*
X66162217Y-40284396D01*
X80195035Y-40284396D01*
X80195035Y-40284403D01*
X80215230Y-40463649D01*
X80215231Y-40463654D01*
X80274811Y-40633923D01*
X80346074Y-40747337D01*
X80370784Y-40786662D01*
X80498338Y-40914216D01*
X80651078Y-41010189D01*
X80771933Y-41052478D01*
X80821345Y-41069768D01*
X80821350Y-41069769D01*
X81000596Y-41089965D01*
X81000600Y-41089965D01*
X81000604Y-41089965D01*
X81179849Y-41069769D01*
X81179852Y-41069768D01*
X81179855Y-41069768D01*
X81350122Y-41010189D01*
X81502862Y-40914216D01*
X81630416Y-40786662D01*
X81726389Y-40633922D01*
X81785968Y-40463655D01*
X81786132Y-40462200D01*
X81806165Y-40284403D01*
X81806165Y-40284396D01*
X81785969Y-40105150D01*
X81785968Y-40105145D01*
X81772891Y-40067774D01*
X81726389Y-39934878D01*
X81690648Y-39877996D01*
X85681435Y-39877996D01*
X85681435Y-39878003D01*
X85701630Y-40057249D01*
X85701631Y-40057254D01*
X85761211Y-40227523D01*
X85841572Y-40355416D01*
X85857184Y-40380262D01*
X85984738Y-40507816D01*
X86137478Y-40603789D01*
X86223596Y-40633923D01*
X86307745Y-40663368D01*
X86307750Y-40663369D01*
X86486996Y-40683565D01*
X86487000Y-40683565D01*
X86487004Y-40683565D01*
X86666249Y-40663369D01*
X86666252Y-40663368D01*
X86666255Y-40663368D01*
X86836522Y-40603789D01*
X86989262Y-40507816D01*
X87116816Y-40380262D01*
X87212789Y-40227522D01*
X87272368Y-40057255D01*
X87278031Y-40006995D01*
X87292565Y-39878003D01*
X87292565Y-39877996D01*
X87275394Y-39725596D01*
X100159435Y-39725596D01*
X100159435Y-39725603D01*
X100179630Y-39904849D01*
X100179631Y-39904854D01*
X100239211Y-40075123D01*
X100283385Y-40145425D01*
X100335184Y-40227862D01*
X100462738Y-40355416D01*
X100615478Y-40451389D01*
X100776734Y-40507815D01*
X100785745Y-40510968D01*
X100785750Y-40510969D01*
X100964996Y-40531165D01*
X100965000Y-40531165D01*
X100965004Y-40531165D01*
X101144249Y-40510969D01*
X101144252Y-40510968D01*
X101144255Y-40510968D01*
X101314522Y-40451389D01*
X101467262Y-40355416D01*
X101594816Y-40227862D01*
X101690789Y-40075122D01*
X101750368Y-39904855D01*
X101751885Y-39891392D01*
X101770565Y-39725603D01*
X101770565Y-39725596D01*
X101750369Y-39546350D01*
X101750368Y-39546345D01*
X101726745Y-39478835D01*
X101690789Y-39376078D01*
X101690575Y-39375738D01*
X101594815Y-39223337D01*
X101467262Y-39095784D01*
X101314523Y-38999811D01*
X101144254Y-38940231D01*
X101144249Y-38940230D01*
X100965004Y-38920035D01*
X100964996Y-38920035D01*
X100785750Y-38940230D01*
X100785745Y-38940231D01*
X100615476Y-38999811D01*
X100462737Y-39095784D01*
X100335184Y-39223337D01*
X100239211Y-39376076D01*
X100179631Y-39546345D01*
X100179630Y-39546350D01*
X100159435Y-39725596D01*
X87275394Y-39725596D01*
X87272369Y-39698750D01*
X87272368Y-39698745D01*
X87223333Y-39558611D01*
X87212789Y-39528478D01*
X87116816Y-39375738D01*
X86989262Y-39248184D01*
X86949720Y-39223338D01*
X86836523Y-39152211D01*
X86666254Y-39092631D01*
X86666249Y-39092630D01*
X86487004Y-39072435D01*
X86486996Y-39072435D01*
X86307750Y-39092630D01*
X86307745Y-39092631D01*
X86137476Y-39152211D01*
X85984737Y-39248184D01*
X85857184Y-39375737D01*
X85761211Y-39528476D01*
X85701631Y-39698745D01*
X85701630Y-39698750D01*
X85681435Y-39877996D01*
X81690648Y-39877996D01*
X81630416Y-39782138D01*
X81502862Y-39654584D01*
X81350123Y-39558611D01*
X81179854Y-39499031D01*
X81179849Y-39499030D01*
X81000604Y-39478835D01*
X81000596Y-39478835D01*
X80821350Y-39499030D01*
X80821345Y-39499031D01*
X80651076Y-39558611D01*
X80498337Y-39654584D01*
X80370784Y-39782137D01*
X80274811Y-39934876D01*
X80215231Y-40105145D01*
X80215230Y-40105150D01*
X80195035Y-40284396D01*
X66162217Y-40284396D01*
X66113589Y-40145425D01*
X66026608Y-40006996D01*
X65911004Y-39891392D01*
X65889691Y-39878000D01*
X65772574Y-39804410D01*
X65619944Y-39751003D01*
X65618261Y-39750414D01*
X65618260Y-39750413D01*
X65618255Y-39750412D01*
X65455804Y-39732109D01*
X65455796Y-39732109D01*
X65293344Y-39750412D01*
X65139025Y-39804410D01*
X65000595Y-39891392D01*
X64884992Y-40006995D01*
X64798010Y-40145425D01*
X64744012Y-40299744D01*
X64725709Y-40462196D01*
X61690091Y-40462196D01*
X61671787Y-40299744D01*
X61671786Y-40299742D01*
X61671786Y-40299739D01*
X61617789Y-40145425D01*
X61530808Y-40006996D01*
X61415204Y-39891392D01*
X61393891Y-39878000D01*
X61276774Y-39804410D01*
X61124144Y-39751003D01*
X61122461Y-39750414D01*
X61122460Y-39750413D01*
X61122455Y-39750412D01*
X60960004Y-39732109D01*
X60959996Y-39732109D01*
X60797544Y-39750412D01*
X60643225Y-39804410D01*
X60504795Y-39891392D01*
X60389192Y-40006995D01*
X60302210Y-40145425D01*
X60248212Y-40299744D01*
X60229909Y-40462196D01*
X40981947Y-40462196D01*
X41134575Y-40408789D01*
X41273004Y-40321808D01*
X41388608Y-40206204D01*
X41475589Y-40067775D01*
X41529586Y-39913461D01*
X41530556Y-39904854D01*
X41547891Y-39751003D01*
X41547891Y-39750996D01*
X41529587Y-39588544D01*
X41529586Y-39588542D01*
X41529586Y-39588539D01*
X41475589Y-39434225D01*
X41388608Y-39295796D01*
X41273004Y-39180192D01*
X41138670Y-39095784D01*
X41134574Y-39093210D01*
X40980255Y-39039212D01*
X40817804Y-39020909D01*
X40817796Y-39020909D01*
X40655344Y-39039212D01*
X40501025Y-39093210D01*
X40362595Y-39180192D01*
X40246992Y-39295795D01*
X40160010Y-39434225D01*
X40106012Y-39588544D01*
X40087709Y-39750996D01*
X7725996Y-39750996D01*
X5871800Y-37896800D01*
X34425940Y-37896800D01*
X34445726Y-38085056D01*
X34445727Y-38085059D01*
X34504218Y-38265077D01*
X34504221Y-38265084D01*
X34598867Y-38429016D01*
X34725529Y-38569688D01*
X34878665Y-38680948D01*
X34878670Y-38680951D01*
X35051592Y-38757942D01*
X35051597Y-38757944D01*
X35236754Y-38797300D01*
X35236755Y-38797300D01*
X35426044Y-38797300D01*
X35426046Y-38797300D01*
X35611203Y-38757944D01*
X35784130Y-38680951D01*
X35937271Y-38569688D01*
X36063933Y-38429016D01*
X36158579Y-38265084D01*
X36217074Y-38085056D01*
X36236860Y-37896800D01*
X36234190Y-37871396D01*
X38818435Y-37871396D01*
X38818435Y-37871403D01*
X38838630Y-38050649D01*
X38838631Y-38050654D01*
X38898211Y-38220923D01*
X38980553Y-38351968D01*
X38994184Y-38373662D01*
X39121738Y-38501216D01*
X39274478Y-38597189D01*
X39444745Y-38656768D01*
X39444750Y-38656769D01*
X39623996Y-38676965D01*
X39624000Y-38676965D01*
X39624004Y-38676965D01*
X39803249Y-38656769D01*
X39803252Y-38656768D01*
X39803255Y-38656768D01*
X39973522Y-38597189D01*
X40126262Y-38501216D01*
X40253816Y-38373662D01*
X40349789Y-38220922D01*
X40409368Y-38050655D01*
X40429565Y-37871400D01*
X40415419Y-37745854D01*
X40409369Y-37692150D01*
X40409368Y-37692145D01*
X40365438Y-37566600D01*
X40365437Y-37566596D01*
X56801635Y-37566596D01*
X56801635Y-37566603D01*
X56821830Y-37745849D01*
X56821831Y-37745854D01*
X56881411Y-37916123D01*
X56965940Y-38050649D01*
X56977384Y-38068862D01*
X57104938Y-38196416D01*
X57257678Y-38292389D01*
X57427945Y-38351968D01*
X57427950Y-38351969D01*
X57607196Y-38372165D01*
X57607200Y-38372165D01*
X57607204Y-38372165D01*
X57786449Y-38351969D01*
X57786452Y-38351968D01*
X57786455Y-38351968D01*
X57956722Y-38292389D01*
X58109462Y-38196416D01*
X58237016Y-38068862D01*
X58332989Y-37916122D01*
X58392568Y-37745855D01*
X58396772Y-37708544D01*
X58412765Y-37566603D01*
X58412765Y-37566596D01*
X58392569Y-37387350D01*
X58392568Y-37387345D01*
X58332988Y-37217076D01*
X58250647Y-37086032D01*
X58237016Y-37064338D01*
X58109462Y-36936784D01*
X57956723Y-36840811D01*
X57786454Y-36781231D01*
X57786449Y-36781230D01*
X57607204Y-36761035D01*
X57607196Y-36761035D01*
X57427950Y-36781230D01*
X57427945Y-36781231D01*
X57257676Y-36840811D01*
X57104937Y-36936784D01*
X56977384Y-37064337D01*
X56881411Y-37217076D01*
X56821831Y-37387345D01*
X56821830Y-37387350D01*
X56801635Y-37566596D01*
X40365437Y-37566596D01*
X40349789Y-37521878D01*
X40253816Y-37369138D01*
X40126262Y-37241584D01*
X40087258Y-37217076D01*
X39973523Y-37145611D01*
X39803254Y-37086031D01*
X39803249Y-37086030D01*
X39624004Y-37065835D01*
X39623996Y-37065835D01*
X39444750Y-37086030D01*
X39444745Y-37086031D01*
X39274476Y-37145611D01*
X39121737Y-37241584D01*
X38994184Y-37369137D01*
X38898211Y-37521876D01*
X38838631Y-37692145D01*
X38838630Y-37692150D01*
X38818435Y-37871396D01*
X36234190Y-37871396D01*
X36217074Y-37708544D01*
X36158579Y-37528516D01*
X36063933Y-37364584D01*
X35937271Y-37223912D01*
X35927862Y-37217076D01*
X35784134Y-37112651D01*
X35784129Y-37112648D01*
X35611207Y-37035657D01*
X35611202Y-37035655D01*
X35465401Y-37004665D01*
X35426046Y-36996300D01*
X35236754Y-36996300D01*
X35204297Y-37003198D01*
X35051597Y-37035655D01*
X35051592Y-37035657D01*
X34878670Y-37112648D01*
X34878665Y-37112651D01*
X34725529Y-37223911D01*
X34598866Y-37364585D01*
X34504221Y-37528515D01*
X34504218Y-37528522D01*
X34445727Y-37708540D01*
X34445726Y-37708544D01*
X34425940Y-37896800D01*
X5871800Y-37896800D01*
X3458796Y-35483796D01*
X20911435Y-35483796D01*
X20911435Y-35483803D01*
X20931630Y-35663049D01*
X20931631Y-35663054D01*
X20991211Y-35833323D01*
X21055051Y-35934923D01*
X21087184Y-35986062D01*
X21214738Y-36113616D01*
X21367478Y-36209589D01*
X21432691Y-36232408D01*
X21537745Y-36269168D01*
X21537750Y-36269169D01*
X21716996Y-36289365D01*
X21717000Y-36289365D01*
X21717004Y-36289365D01*
X21896249Y-36269169D01*
X21896252Y-36269168D01*
X21896255Y-36269168D01*
X22066522Y-36209589D01*
X22219262Y-36113616D01*
X22346816Y-35986062D01*
X22442789Y-35833322D01*
X22502368Y-35663055D01*
X22502532Y-35661600D01*
X22513980Y-35559996D01*
X42678509Y-35559996D01*
X42678509Y-35560003D01*
X42696812Y-35722455D01*
X42750810Y-35876774D01*
X42750811Y-35876775D01*
X42837792Y-36015204D01*
X42953396Y-36130808D01*
X43091825Y-36217789D01*
X43246139Y-36271786D01*
X43246142Y-36271786D01*
X43246144Y-36271787D01*
X43408596Y-36290091D01*
X43408600Y-36290091D01*
X43408604Y-36290091D01*
X43571055Y-36271787D01*
X43571056Y-36271786D01*
X43571061Y-36271786D01*
X43725375Y-36217789D01*
X43863804Y-36130808D01*
X43979408Y-36015204D01*
X44066389Y-35876775D01*
X44120386Y-35722461D01*
X44120387Y-35722455D01*
X44127244Y-35661596D01*
X63252509Y-35661596D01*
X63252509Y-35661603D01*
X63270812Y-35824055D01*
X63324810Y-35978374D01*
X63324811Y-35978375D01*
X63411792Y-36116804D01*
X63527396Y-36232408D01*
X63665825Y-36319389D01*
X63820139Y-36373386D01*
X63820142Y-36373386D01*
X63820144Y-36373387D01*
X63982596Y-36391691D01*
X63982600Y-36391691D01*
X63982604Y-36391691D01*
X64145055Y-36373387D01*
X64145056Y-36373386D01*
X64145061Y-36373386D01*
X64299375Y-36319389D01*
X64437804Y-36232408D01*
X64553408Y-36116804D01*
X64640389Y-35978375D01*
X64694386Y-35824061D01*
X64694387Y-35824055D01*
X64712691Y-35661603D01*
X64712691Y-35661596D01*
X64704105Y-35585396D01*
X96857435Y-35585396D01*
X96857435Y-35585403D01*
X96877630Y-35764649D01*
X96877631Y-35764654D01*
X96937211Y-35934923D01*
X97033184Y-36087662D01*
X97160738Y-36215216D01*
X97313478Y-36311189D01*
X97483745Y-36370768D01*
X97483750Y-36370769D01*
X97662996Y-36390965D01*
X97663000Y-36390965D01*
X97663004Y-36390965D01*
X97842249Y-36370769D01*
X97842252Y-36370768D01*
X97842255Y-36370768D01*
X98012522Y-36311189D01*
X98165262Y-36215216D01*
X98292816Y-36087662D01*
X98388789Y-35934922D01*
X98448368Y-35764655D01*
X98453123Y-35722455D01*
X98468565Y-35585403D01*
X98468565Y-35585396D01*
X98448369Y-35406150D01*
X98448368Y-35406145D01*
X98412818Y-35304550D01*
X98388789Y-35235878D01*
X98292816Y-35083138D01*
X98165262Y-34955584D01*
X98126947Y-34931509D01*
X98012523Y-34859611D01*
X97842254Y-34800031D01*
X97842249Y-34800030D01*
X97663004Y-34779835D01*
X97662996Y-34779835D01*
X97483750Y-34800030D01*
X97483745Y-34800031D01*
X97313476Y-34859611D01*
X97160737Y-34955584D01*
X97033184Y-35083137D01*
X96937211Y-35235876D01*
X96877631Y-35406145D01*
X96877630Y-35406150D01*
X96857435Y-35585396D01*
X64704105Y-35585396D01*
X64694387Y-35499144D01*
X64694386Y-35499142D01*
X64694386Y-35499139D01*
X64640389Y-35344825D01*
X64553408Y-35206396D01*
X64437804Y-35090792D01*
X64325972Y-35020523D01*
X64299374Y-35003810D01*
X64145055Y-34949812D01*
X63982604Y-34931509D01*
X63982596Y-34931509D01*
X63820144Y-34949812D01*
X63665825Y-35003810D01*
X63527395Y-35090792D01*
X63411792Y-35206395D01*
X63324810Y-35344825D01*
X63270812Y-35499144D01*
X63252509Y-35661596D01*
X44127244Y-35661596D01*
X44138691Y-35560003D01*
X44138691Y-35559996D01*
X44120387Y-35397544D01*
X44120386Y-35397542D01*
X44120386Y-35397539D01*
X44066389Y-35243225D01*
X43979408Y-35104796D01*
X43863804Y-34989192D01*
X43851621Y-34981537D01*
X43725374Y-34902210D01*
X43576891Y-34850254D01*
X43571061Y-34848214D01*
X43571060Y-34848213D01*
X43571055Y-34848212D01*
X43408604Y-34829909D01*
X43408596Y-34829909D01*
X43246144Y-34848212D01*
X43091825Y-34902210D01*
X42953395Y-34989192D01*
X42837792Y-35104795D01*
X42750810Y-35243225D01*
X42696812Y-35397544D01*
X42678509Y-35559996D01*
X22513980Y-35559996D01*
X22522565Y-35483803D01*
X22522565Y-35483796D01*
X22502369Y-35304550D01*
X22502368Y-35304545D01*
X22442788Y-35134276D01*
X22346815Y-34981537D01*
X22219262Y-34853984D01*
X22066523Y-34758011D01*
X21896254Y-34698431D01*
X21896249Y-34698430D01*
X21717004Y-34678235D01*
X21716996Y-34678235D01*
X21537750Y-34698430D01*
X21537745Y-34698431D01*
X21367476Y-34758011D01*
X21214737Y-34853984D01*
X21087184Y-34981537D01*
X20991211Y-35134276D01*
X20931631Y-35304545D01*
X20931630Y-35304550D01*
X20911435Y-35483796D01*
X3458796Y-35483796D01*
X2645996Y-34670996D01*
X19209635Y-34670996D01*
X19209635Y-34671003D01*
X19229830Y-34850249D01*
X19229831Y-34850254D01*
X19289411Y-35020523D01*
X19353812Y-35123016D01*
X19385384Y-35173262D01*
X19512938Y-35300816D01*
X19665678Y-35396789D01*
X19835945Y-35456368D01*
X19835950Y-35456369D01*
X20015196Y-35476565D01*
X20015200Y-35476565D01*
X20015204Y-35476565D01*
X20194449Y-35456369D01*
X20194452Y-35456368D01*
X20194455Y-35456368D01*
X20364722Y-35396789D01*
X20517462Y-35300816D01*
X20645016Y-35173262D01*
X20740989Y-35020522D01*
X20800568Y-34850255D01*
X20800798Y-34848214D01*
X20820765Y-34671003D01*
X20820765Y-34670996D01*
X20800732Y-34493196D01*
X46286035Y-34493196D01*
X46286035Y-34493203D01*
X46306230Y-34672449D01*
X46306231Y-34672454D01*
X46365811Y-34842723D01*
X46433100Y-34949812D01*
X46461784Y-34995462D01*
X46589338Y-35123016D01*
X46742078Y-35218989D01*
X46811341Y-35243225D01*
X46912345Y-35278568D01*
X46912350Y-35278569D01*
X47091596Y-35298765D01*
X47091600Y-35298765D01*
X47091604Y-35298765D01*
X47270849Y-35278569D01*
X47270852Y-35278568D01*
X47270855Y-35278568D01*
X47441122Y-35218989D01*
X47593862Y-35123016D01*
X47721416Y-34995462D01*
X47817389Y-34842722D01*
X47876968Y-34672455D01*
X47877132Y-34671000D01*
X47897165Y-34493203D01*
X47897165Y-34493196D01*
X47876969Y-34313950D01*
X47876968Y-34313945D01*
X47826158Y-34168738D01*
X47817389Y-34143678D01*
X47721416Y-33990938D01*
X47593862Y-33863384D01*
X47441123Y-33767411D01*
X47270854Y-33707831D01*
X47270849Y-33707830D01*
X47091604Y-33687635D01*
X47091596Y-33687635D01*
X46912350Y-33707830D01*
X46912345Y-33707831D01*
X46742076Y-33767411D01*
X46589337Y-33863384D01*
X46461784Y-33990937D01*
X46365811Y-34143676D01*
X46306231Y-34313945D01*
X46306230Y-34313950D01*
X46286035Y-34493196D01*
X20800732Y-34493196D01*
X20800569Y-34491750D01*
X20800568Y-34491745D01*
X20740988Y-34321476D01*
X20645015Y-34168737D01*
X20517462Y-34041184D01*
X20364723Y-33945211D01*
X20194454Y-33885631D01*
X20194449Y-33885630D01*
X20015204Y-33865435D01*
X20015196Y-33865435D01*
X19835950Y-33885630D01*
X19835945Y-33885631D01*
X19665676Y-33945211D01*
X19512937Y-34041184D01*
X19385384Y-34168737D01*
X19289411Y-34321476D01*
X19229831Y-34491745D01*
X19229830Y-34491750D01*
X19209635Y-34670996D01*
X2645996Y-34670996D01*
X690196Y-32715196D01*
X43009435Y-32715196D01*
X43009435Y-32715203D01*
X43029630Y-32894449D01*
X43029631Y-32894454D01*
X43089211Y-33064723D01*
X43171553Y-33195768D01*
X43185184Y-33217462D01*
X43312738Y-33345016D01*
X43317812Y-33348204D01*
X43458271Y-33436461D01*
X43465478Y-33440989D01*
X43530691Y-33463808D01*
X43635745Y-33500568D01*
X43635750Y-33500569D01*
X43814996Y-33520765D01*
X43815000Y-33520765D01*
X43815004Y-33520765D01*
X43994249Y-33500569D01*
X43994252Y-33500568D01*
X43994255Y-33500568D01*
X44164522Y-33440989D01*
X44317262Y-33345016D01*
X44388282Y-33273996D01*
X62896909Y-33273996D01*
X62896909Y-33274003D01*
X62915212Y-33436455D01*
X62969210Y-33590774D01*
X63030072Y-33687635D01*
X63056192Y-33729204D01*
X63171796Y-33844808D01*
X63310225Y-33931789D01*
X63464539Y-33985786D01*
X63464542Y-33985786D01*
X63464544Y-33985787D01*
X63626996Y-34004091D01*
X63627000Y-34004091D01*
X63627004Y-34004091D01*
X63789455Y-33985787D01*
X63789456Y-33985786D01*
X63789461Y-33985786D01*
X63943775Y-33931789D01*
X64082204Y-33844808D01*
X64197808Y-33729204D01*
X64284789Y-33590775D01*
X64338786Y-33436461D01*
X64345643Y-33375603D01*
X64357091Y-33274003D01*
X64357091Y-33273996D01*
X64338787Y-33111544D01*
X64338786Y-33111542D01*
X64338786Y-33111539D01*
X64284789Y-32957225D01*
X64244431Y-32892996D01*
X70440709Y-32892996D01*
X70440709Y-32893003D01*
X70459012Y-33055455D01*
X70513010Y-33209774D01*
X70513011Y-33209775D01*
X70599992Y-33348204D01*
X70715596Y-33463808D01*
X70854025Y-33550789D01*
X71008339Y-33604786D01*
X71008342Y-33604786D01*
X71008344Y-33604787D01*
X71170796Y-33623091D01*
X71170800Y-33623091D01*
X71170804Y-33623091D01*
X71333255Y-33604787D01*
X71333256Y-33604786D01*
X71333261Y-33604786D01*
X71487575Y-33550789D01*
X71626004Y-33463808D01*
X71714216Y-33375596D01*
X110014635Y-33375596D01*
X110014635Y-33375603D01*
X110034830Y-33554849D01*
X110034831Y-33554854D01*
X110094411Y-33725123D01*
X110120983Y-33767411D01*
X110190384Y-33877862D01*
X110317938Y-34005416D01*
X110470678Y-34101389D01*
X110591533Y-34143678D01*
X110640945Y-34160968D01*
X110640950Y-34160969D01*
X110820196Y-34181165D01*
X110820200Y-34181165D01*
X110820204Y-34181165D01*
X110999449Y-34160969D01*
X110999452Y-34160968D01*
X110999455Y-34160968D01*
X111169722Y-34101389D01*
X111322462Y-34005416D01*
X111450016Y-33877862D01*
X111545989Y-33725122D01*
X111605568Y-33554855D01*
X111611685Y-33500568D01*
X111625765Y-33375603D01*
X111625765Y-33375596D01*
X111605569Y-33196350D01*
X111605568Y-33196345D01*
X111605366Y-33195768D01*
X111545989Y-33026078D01*
X111450016Y-32873338D01*
X111322462Y-32745784D01*
X111273782Y-32715196D01*
X111169723Y-32649811D01*
X110999454Y-32590231D01*
X110999449Y-32590230D01*
X110820204Y-32570035D01*
X110820196Y-32570035D01*
X110640950Y-32590230D01*
X110640945Y-32590231D01*
X110470676Y-32649811D01*
X110317937Y-32745784D01*
X110190384Y-32873337D01*
X110094411Y-33026076D01*
X110034831Y-33196345D01*
X110034830Y-33196350D01*
X110014635Y-33375596D01*
X71714216Y-33375596D01*
X71741608Y-33348204D01*
X71828589Y-33209775D01*
X71882586Y-33055461D01*
X71900727Y-32894455D01*
X71900891Y-32893003D01*
X71900891Y-32892996D01*
X71882587Y-32730544D01*
X71882586Y-32730542D01*
X71882586Y-32730539D01*
X71828589Y-32576225D01*
X71741608Y-32437796D01*
X71626004Y-32322192D01*
X71596439Y-32303615D01*
X71487574Y-32235210D01*
X71333255Y-32181212D01*
X71170804Y-32162909D01*
X71170796Y-32162909D01*
X71008344Y-32181212D01*
X70854025Y-32235210D01*
X70715595Y-32322192D01*
X70599992Y-32437795D01*
X70513010Y-32576225D01*
X70459012Y-32730544D01*
X70440709Y-32892996D01*
X64244431Y-32892996D01*
X64197808Y-32818796D01*
X64082204Y-32703192D01*
X63997249Y-32649811D01*
X63943774Y-32616210D01*
X63789455Y-32562212D01*
X63627004Y-32543909D01*
X63626996Y-32543909D01*
X63464544Y-32562212D01*
X63310225Y-32616210D01*
X63171795Y-32703192D01*
X63056192Y-32818795D01*
X62969210Y-32957225D01*
X62915212Y-33111544D01*
X62896909Y-33273996D01*
X44388282Y-33273996D01*
X44444816Y-33217462D01*
X44540789Y-33064722D01*
X44600368Y-32894455D01*
X44600532Y-32893000D01*
X44620565Y-32715203D01*
X44620565Y-32715196D01*
X44600369Y-32535950D01*
X44600368Y-32535945D01*
X44573503Y-32459169D01*
X44556437Y-32410396D01*
X45193835Y-32410396D01*
X45193835Y-32410403D01*
X45214030Y-32589649D01*
X45214031Y-32589654D01*
X45273611Y-32759923D01*
X45357231Y-32893003D01*
X45369584Y-32912662D01*
X45497138Y-33040216D01*
X45649878Y-33136189D01*
X45820145Y-33195768D01*
X45820150Y-33195769D01*
X45999396Y-33215965D01*
X45999400Y-33215965D01*
X45999404Y-33215965D01*
X46178649Y-33195769D01*
X46178652Y-33195768D01*
X46178655Y-33195768D01*
X46348922Y-33136189D01*
X46501662Y-33040216D01*
X46629216Y-32912662D01*
X46725189Y-32759922D01*
X46784768Y-32589655D01*
X46784769Y-32589649D01*
X46804965Y-32410403D01*
X46804965Y-32410396D01*
X46784769Y-32231150D01*
X46784768Y-32231145D01*
X46725188Y-32060876D01*
X46642847Y-31929832D01*
X46629216Y-31908138D01*
X46501662Y-31780584D01*
X46372135Y-31699196D01*
X55633235Y-31699196D01*
X55633235Y-31699203D01*
X55653430Y-31878449D01*
X55653431Y-31878454D01*
X55713011Y-32048723D01*
X55793024Y-32176062D01*
X55808984Y-32201462D01*
X55936538Y-32329016D01*
X55994882Y-32365676D01*
X56066064Y-32410403D01*
X56089278Y-32424989D01*
X56186956Y-32459168D01*
X56259545Y-32484568D01*
X56259550Y-32484569D01*
X56438796Y-32504765D01*
X56438800Y-32504765D01*
X56438804Y-32504765D01*
X56618049Y-32484569D01*
X56618052Y-32484568D01*
X56618055Y-32484568D01*
X56788322Y-32424989D01*
X56941062Y-32329016D01*
X57068616Y-32201462D01*
X57164589Y-32048722D01*
X57224168Y-31878455D01*
X57227031Y-31853049D01*
X57244365Y-31699203D01*
X57244365Y-31699196D01*
X57241503Y-31673796D01*
X74556235Y-31673796D01*
X74556235Y-31673803D01*
X74576430Y-31853049D01*
X74576431Y-31853054D01*
X74636011Y-32023323D01*
X74659609Y-32060878D01*
X74731984Y-32176062D01*
X74859538Y-32303616D01*
X75012278Y-32399589D01*
X75182545Y-32459168D01*
X75182550Y-32459169D01*
X75361796Y-32479365D01*
X75361800Y-32479365D01*
X75361804Y-32479365D01*
X75541049Y-32459169D01*
X75541052Y-32459168D01*
X75541055Y-32459168D01*
X75711322Y-32399589D01*
X75864062Y-32303616D01*
X75991616Y-32176062D01*
X76087589Y-32023322D01*
X76147168Y-31853055D01*
X76147169Y-31853049D01*
X76167365Y-31673803D01*
X76167365Y-31673796D01*
X76147169Y-31494550D01*
X76147168Y-31494545D01*
X76087588Y-31324276D01*
X75999424Y-31183965D01*
X75991616Y-31171538D01*
X75864062Y-31043984D01*
X75807136Y-31008215D01*
X75711323Y-30948011D01*
X75541054Y-30888431D01*
X75541049Y-30888430D01*
X75361804Y-30868235D01*
X75361796Y-30868235D01*
X75182550Y-30888430D01*
X75182545Y-30888431D01*
X75012276Y-30948011D01*
X74859537Y-31043984D01*
X74731984Y-31171537D01*
X74636011Y-31324276D01*
X74576431Y-31494545D01*
X74576430Y-31494550D01*
X74556235Y-31673796D01*
X57241503Y-31673796D01*
X57224169Y-31519950D01*
X57224168Y-31519945D01*
X57164588Y-31349676D01*
X57068615Y-31196937D01*
X56941062Y-31069384D01*
X56788323Y-30973411D01*
X56618054Y-30913831D01*
X56618049Y-30913830D01*
X56438804Y-30893635D01*
X56438796Y-30893635D01*
X56259550Y-30913830D01*
X56259545Y-30913831D01*
X56089276Y-30973411D01*
X55936537Y-31069384D01*
X55808984Y-31196937D01*
X55713011Y-31349676D01*
X55653431Y-31519945D01*
X55653430Y-31519950D01*
X55633235Y-31699196D01*
X46372135Y-31699196D01*
X46348923Y-31684611D01*
X46178654Y-31625031D01*
X46178649Y-31625030D01*
X45999404Y-31604835D01*
X45999396Y-31604835D01*
X45820150Y-31625030D01*
X45820145Y-31625031D01*
X45649876Y-31684611D01*
X45497137Y-31780584D01*
X45369584Y-31908137D01*
X45273611Y-32060876D01*
X45214031Y-32231145D01*
X45214030Y-32231150D01*
X45193835Y-32410396D01*
X44556437Y-32410396D01*
X44540789Y-32365678D01*
X44444816Y-32212938D01*
X44317262Y-32085384D01*
X44278258Y-32060876D01*
X44164523Y-31989411D01*
X43994254Y-31929831D01*
X43994249Y-31929830D01*
X43815004Y-31909635D01*
X43814996Y-31909635D01*
X43635750Y-31929830D01*
X43635745Y-31929831D01*
X43465476Y-31989411D01*
X43312737Y-32085384D01*
X43185184Y-32212937D01*
X43089211Y-32365676D01*
X43029631Y-32535945D01*
X43029630Y-32535950D01*
X43009435Y-32715196D01*
X690196Y-32715196D01*
X473819Y-32498819D01*
X440334Y-32437496D01*
X437500Y-32411138D01*
X437500Y-30378396D01*
X13291435Y-30378396D01*
X13291435Y-30378403D01*
X13311630Y-30557649D01*
X13311631Y-30557654D01*
X13371211Y-30727923D01*
X13459376Y-30868235D01*
X13467184Y-30880662D01*
X13594738Y-31008216D01*
X13747478Y-31104189D01*
X13917745Y-31163768D01*
X13917750Y-31163769D01*
X14096996Y-31183965D01*
X14097000Y-31183965D01*
X14097004Y-31183965D01*
X14276249Y-31163769D01*
X14276252Y-31163768D01*
X14276255Y-31163768D01*
X14446522Y-31104189D01*
X14599262Y-31008216D01*
X14726816Y-30880662D01*
X14822789Y-30727922D01*
X14882368Y-30557655D01*
X14882761Y-30554168D01*
X14902565Y-30378403D01*
X14902565Y-30378396D01*
X14891118Y-30276800D01*
X31454140Y-30276800D01*
X31473926Y-30465056D01*
X31473927Y-30465059D01*
X31532418Y-30645077D01*
X31532421Y-30645084D01*
X31627067Y-30809016D01*
X31687009Y-30875588D01*
X31753729Y-30949688D01*
X31906865Y-31060948D01*
X31906870Y-31060951D01*
X32079792Y-31137942D01*
X32079797Y-31137944D01*
X32264954Y-31177300D01*
X32264955Y-31177300D01*
X32454244Y-31177300D01*
X32454246Y-31177300D01*
X32639403Y-31137944D01*
X32812330Y-31060951D01*
X32965471Y-30949688D01*
X33092133Y-30809016D01*
X33186779Y-30645084D01*
X33245274Y-30465056D01*
X33265060Y-30276800D01*
X33245274Y-30088544D01*
X33186779Y-29908516D01*
X33092133Y-29744584D01*
X32965471Y-29603912D01*
X32950495Y-29593031D01*
X32812334Y-29492651D01*
X32812329Y-29492648D01*
X32639407Y-29415657D01*
X32639402Y-29415655D01*
X32493601Y-29384665D01*
X32454246Y-29376300D01*
X32264954Y-29376300D01*
X32232497Y-29383198D01*
X32079797Y-29415655D01*
X32079792Y-29415657D01*
X31906870Y-29492648D01*
X31906865Y-29492651D01*
X31753729Y-29603911D01*
X31627066Y-29744585D01*
X31532421Y-29908515D01*
X31532418Y-29908522D01*
X31480646Y-30067862D01*
X31473926Y-30088544D01*
X31454140Y-30276800D01*
X14891118Y-30276800D01*
X14882369Y-30199150D01*
X14882368Y-30199145D01*
X14843667Y-30088544D01*
X14822789Y-30028878D01*
X14726816Y-29876138D01*
X14599262Y-29748584D01*
X14542336Y-29712815D01*
X14446523Y-29652611D01*
X14276254Y-29593031D01*
X14276249Y-29593030D01*
X14097004Y-29572835D01*
X14096996Y-29572835D01*
X13917750Y-29593030D01*
X13917745Y-29593031D01*
X13747476Y-29652611D01*
X13594737Y-29748584D01*
X13467184Y-29876137D01*
X13371211Y-30028876D01*
X13311631Y-30199145D01*
X13311630Y-30199150D01*
X13291435Y-30378396D01*
X437500Y-30378396D01*
X437500Y-29565596D01*
X6560435Y-29565596D01*
X6560435Y-29565603D01*
X6580630Y-29744849D01*
X6580631Y-29744854D01*
X6640211Y-29915123D01*
X6711687Y-30028876D01*
X6736184Y-30067862D01*
X6863738Y-30195416D01*
X7016478Y-30291389D01*
X7186745Y-30350968D01*
X7186750Y-30350969D01*
X7365996Y-30371165D01*
X7366000Y-30371165D01*
X7366004Y-30371165D01*
X7545249Y-30350969D01*
X7545252Y-30350968D01*
X7545255Y-30350968D01*
X7715522Y-30291389D01*
X7868262Y-30195416D01*
X7995816Y-30067862D01*
X8091789Y-29915122D01*
X8151368Y-29744855D01*
X8151369Y-29744849D01*
X8171565Y-29565603D01*
X8171565Y-29565596D01*
X8151369Y-29386350D01*
X8151368Y-29386345D01*
X8115818Y-29284750D01*
X8091789Y-29216078D01*
X8079534Y-29196575D01*
X7995815Y-29063337D01*
X7868262Y-28935784D01*
X7715523Y-28839811D01*
X7684616Y-28828996D01*
X38869235Y-28828996D01*
X38869235Y-28829003D01*
X38889430Y-29008249D01*
X38889431Y-29008254D01*
X38949011Y-29178523D01*
X39044984Y-29331262D01*
X39172538Y-29458816D01*
X39325278Y-29554789D01*
X39495545Y-29614368D01*
X39495550Y-29614369D01*
X39674796Y-29634565D01*
X39674800Y-29634565D01*
X39674804Y-29634565D01*
X39854049Y-29614369D01*
X39854052Y-29614368D01*
X39854055Y-29614368D01*
X40024322Y-29554789D01*
X40168818Y-29463996D01*
X44838235Y-29463996D01*
X44838235Y-29464003D01*
X44858430Y-29643249D01*
X44858431Y-29643254D01*
X44918011Y-29813523D01*
X44981851Y-29915123D01*
X45013984Y-29966262D01*
X45141538Y-30093816D01*
X45294278Y-30189789D01*
X45464545Y-30249368D01*
X45464550Y-30249369D01*
X45643796Y-30269565D01*
X45643800Y-30269565D01*
X45643804Y-30269565D01*
X45823049Y-30249369D01*
X45823052Y-30249368D01*
X45823055Y-30249368D01*
X45993322Y-30189789D01*
X46146062Y-30093816D01*
X46273616Y-29966262D01*
X46369589Y-29813522D01*
X46429168Y-29643255D01*
X46432423Y-29614368D01*
X46449365Y-29464003D01*
X46449365Y-29463996D01*
X46429169Y-29284750D01*
X46429168Y-29284745D01*
X46398316Y-29196575D01*
X46369589Y-29114478D01*
X46349808Y-29082996D01*
X49107935Y-29082996D01*
X49107935Y-29083003D01*
X49128130Y-29262249D01*
X49128131Y-29262254D01*
X49187711Y-29432523D01*
X49271331Y-29565603D01*
X49283684Y-29585262D01*
X49411238Y-29712816D01*
X49500330Y-29768796D01*
X49550429Y-29800276D01*
X49563978Y-29808789D01*
X49734245Y-29868368D01*
X49734250Y-29868369D01*
X49913496Y-29888565D01*
X49913500Y-29888565D01*
X49913504Y-29888565D01*
X50092749Y-29868369D01*
X50092752Y-29868368D01*
X50092755Y-29868368D01*
X50263022Y-29808789D01*
X50415762Y-29712816D01*
X50543316Y-29585262D01*
X50639289Y-29432522D01*
X50698868Y-29262255D01*
X50698869Y-29262249D01*
X50719065Y-29083003D01*
X50719065Y-29082996D01*
X54641909Y-29082996D01*
X54641909Y-29083003D01*
X54660212Y-29245455D01*
X54660213Y-29245460D01*
X54660214Y-29245461D01*
X54667379Y-29265939D01*
X54714210Y-29399774D01*
X54751308Y-29458815D01*
X54801192Y-29538204D01*
X54916796Y-29653808D01*
X55055225Y-29740789D01*
X55209539Y-29794786D01*
X55209542Y-29794786D01*
X55209544Y-29794787D01*
X55371996Y-29813091D01*
X55372000Y-29813091D01*
X55372004Y-29813091D01*
X55534455Y-29794787D01*
X55534456Y-29794786D01*
X55534461Y-29794786D01*
X55608736Y-29768796D01*
X58579635Y-29768796D01*
X58579635Y-29768803D01*
X58599830Y-29948049D01*
X58599831Y-29948054D01*
X58659411Y-30118323D01*
X58741753Y-30249368D01*
X58755384Y-30271062D01*
X58882938Y-30398616D01*
X58973280Y-30455382D01*
X58988676Y-30465056D01*
X59035678Y-30494589D01*
X59205945Y-30554168D01*
X59205950Y-30554169D01*
X59385196Y-30574365D01*
X59385200Y-30574365D01*
X59385204Y-30574365D01*
X59564449Y-30554169D01*
X59564452Y-30554168D01*
X59564455Y-30554168D01*
X59734722Y-30494589D01*
X59887462Y-30398616D01*
X60015016Y-30271062D01*
X60091213Y-30149796D01*
X100134035Y-30149796D01*
X100134035Y-30149803D01*
X100154230Y-30329049D01*
X100154231Y-30329054D01*
X100213811Y-30499323D01*
X100305395Y-30645077D01*
X100309784Y-30652062D01*
X100437338Y-30779616D01*
X100590078Y-30875589D01*
X100760345Y-30935168D01*
X100760350Y-30935169D01*
X100939596Y-30955365D01*
X100939600Y-30955365D01*
X100939604Y-30955365D01*
X101118849Y-30935169D01*
X101118852Y-30935168D01*
X101118855Y-30935168D01*
X101289122Y-30875589D01*
X101441862Y-30779616D01*
X101569416Y-30652062D01*
X101665389Y-30499322D01*
X101724968Y-30329055D01*
X101730856Y-30276800D01*
X101745165Y-30149803D01*
X101745165Y-30149796D01*
X101724969Y-29970550D01*
X101724968Y-29970545D01*
X101696282Y-29888565D01*
X101665389Y-29800278D01*
X101632907Y-29748584D01*
X101610432Y-29712815D01*
X101569416Y-29647538D01*
X101441862Y-29519984D01*
X101352769Y-29464003D01*
X101289123Y-29424011D01*
X101118854Y-29364431D01*
X101118849Y-29364430D01*
X100939604Y-29344235D01*
X100939596Y-29344235D01*
X100760350Y-29364430D01*
X100760345Y-29364431D01*
X100590076Y-29424011D01*
X100437337Y-29519984D01*
X100309784Y-29647537D01*
X100213811Y-29800276D01*
X100154231Y-29970545D01*
X100154230Y-29970550D01*
X100134035Y-30149796D01*
X60091213Y-30149796D01*
X60110989Y-30118322D01*
X60170568Y-29948055D01*
X60174279Y-29915122D01*
X60190765Y-29768803D01*
X60190765Y-29768796D01*
X60170569Y-29589550D01*
X60170568Y-29589545D01*
X60152388Y-29537589D01*
X60110989Y-29419278D01*
X60098734Y-29399775D01*
X60015015Y-29266537D01*
X59887462Y-29138984D01*
X59734723Y-29043011D01*
X59564454Y-28983431D01*
X59564449Y-28983430D01*
X59385204Y-28963235D01*
X59385196Y-28963235D01*
X59205950Y-28983430D01*
X59205945Y-28983431D01*
X59035676Y-29043011D01*
X58882937Y-29138984D01*
X58755384Y-29266537D01*
X58659411Y-29419276D01*
X58599831Y-29589545D01*
X58599830Y-29589550D01*
X58579635Y-29768796D01*
X55608736Y-29768796D01*
X55688775Y-29740789D01*
X55827204Y-29653808D01*
X55942808Y-29538204D01*
X56029789Y-29399775D01*
X56083786Y-29245461D01*
X56089294Y-29196575D01*
X56102091Y-29083003D01*
X56102091Y-29082996D01*
X56083787Y-28920544D01*
X56083786Y-28920542D01*
X56083786Y-28920539D01*
X56069529Y-28879796D01*
X56775509Y-28879796D01*
X56775509Y-28879803D01*
X56793812Y-29042255D01*
X56793813Y-29042260D01*
X56793814Y-29042261D01*
X56800979Y-29062739D01*
X56847810Y-29196574D01*
X56891771Y-29266537D01*
X56934792Y-29335004D01*
X57050396Y-29450608D01*
X57188825Y-29537589D01*
X57343139Y-29591586D01*
X57343142Y-29591586D01*
X57343144Y-29591587D01*
X57505596Y-29609891D01*
X57505600Y-29609891D01*
X57505604Y-29609891D01*
X57668055Y-29591587D01*
X57668056Y-29591586D01*
X57668061Y-29591586D01*
X57822375Y-29537589D01*
X57960804Y-29450608D01*
X58076408Y-29335004D01*
X58163389Y-29196575D01*
X58217386Y-29042261D01*
X58221218Y-29008254D01*
X58235691Y-28879803D01*
X58235691Y-28879796D01*
X58217387Y-28717344D01*
X58217386Y-28717342D01*
X58217386Y-28717339D01*
X58163389Y-28563025D01*
X58076408Y-28424596D01*
X57960804Y-28308992D01*
X57942722Y-28297630D01*
X57822374Y-28222010D01*
X57668055Y-28168012D01*
X57505604Y-28149709D01*
X57505596Y-28149709D01*
X57343144Y-28168012D01*
X57188825Y-28222010D01*
X57050395Y-28308992D01*
X56934792Y-28424595D01*
X56847810Y-28563025D01*
X56793812Y-28717344D01*
X56775509Y-28879796D01*
X56069529Y-28879796D01*
X56029789Y-28766225D01*
X55942808Y-28627796D01*
X55827204Y-28512192D01*
X55733294Y-28453184D01*
X55688774Y-28425210D01*
X55534455Y-28371212D01*
X55372004Y-28352909D01*
X55371996Y-28352909D01*
X55209544Y-28371212D01*
X55055225Y-28425210D01*
X54916795Y-28512192D01*
X54801192Y-28627795D01*
X54714210Y-28766225D01*
X54660212Y-28920544D01*
X54641909Y-29082996D01*
X50719065Y-29082996D01*
X50698869Y-28903750D01*
X50698868Y-28903745D01*
X50690488Y-28879796D01*
X50639289Y-28733478D01*
X50629151Y-28717344D01*
X50586676Y-28649745D01*
X50543316Y-28580738D01*
X50415762Y-28453184D01*
X50263023Y-28357211D01*
X50092754Y-28297631D01*
X50092749Y-28297630D01*
X49913504Y-28277435D01*
X49913496Y-28277435D01*
X49734250Y-28297630D01*
X49734245Y-28297631D01*
X49563976Y-28357211D01*
X49411237Y-28453184D01*
X49283684Y-28580737D01*
X49187711Y-28733476D01*
X49128131Y-28903745D01*
X49128130Y-28903750D01*
X49107935Y-29082996D01*
X46349808Y-29082996D01*
X46273616Y-28961738D01*
X46146062Y-28834184D01*
X45993323Y-28738211D01*
X45823054Y-28678631D01*
X45823049Y-28678630D01*
X45643804Y-28658435D01*
X45643796Y-28658435D01*
X45464550Y-28678630D01*
X45464545Y-28678631D01*
X45294276Y-28738211D01*
X45141537Y-28834184D01*
X45013984Y-28961737D01*
X44918011Y-29114476D01*
X44858431Y-29284745D01*
X44858430Y-29284750D01*
X44838235Y-29463996D01*
X40168818Y-29463996D01*
X40177062Y-29458816D01*
X40304616Y-29331262D01*
X40400589Y-29178522D01*
X40460168Y-29008255D01*
X40462965Y-28983430D01*
X40480365Y-28829003D01*
X40480365Y-28828996D01*
X40460169Y-28649750D01*
X40460168Y-28649745D01*
X40403567Y-28487989D01*
X40400589Y-28479478D01*
X40384067Y-28453184D01*
X40304615Y-28326737D01*
X40177062Y-28199184D01*
X40024323Y-28103211D01*
X39854054Y-28043631D01*
X39854049Y-28043630D01*
X39674804Y-28023435D01*
X39674796Y-28023435D01*
X39495550Y-28043630D01*
X39495545Y-28043631D01*
X39325276Y-28103211D01*
X39172537Y-28199184D01*
X39044984Y-28326737D01*
X38949011Y-28479476D01*
X38889431Y-28649745D01*
X38889430Y-28649750D01*
X38869235Y-28828996D01*
X7684616Y-28828996D01*
X7545254Y-28780231D01*
X7545249Y-28780230D01*
X7366004Y-28760035D01*
X7365996Y-28760035D01*
X7186750Y-28780230D01*
X7186745Y-28780231D01*
X7016476Y-28839811D01*
X6863737Y-28935784D01*
X6736184Y-29063337D01*
X6640211Y-29216076D01*
X6580631Y-29386345D01*
X6580630Y-29386350D01*
X6560435Y-29565596D01*
X437500Y-29565596D01*
X437500Y-27762196D01*
X69120635Y-27762196D01*
X69120635Y-27762203D01*
X69140830Y-27941449D01*
X69140831Y-27941454D01*
X69200411Y-28111723D01*
X69269710Y-28222011D01*
X69296384Y-28264462D01*
X69423938Y-28392016D01*
X69514280Y-28448782D01*
X69563129Y-28479476D01*
X69576678Y-28487989D01*
X69746945Y-28547568D01*
X69746950Y-28547569D01*
X69926196Y-28567765D01*
X69926200Y-28567765D01*
X69926204Y-28567765D01*
X70105449Y-28547569D01*
X70105452Y-28547568D01*
X70105455Y-28547568D01*
X70275722Y-28487989D01*
X70428462Y-28392016D01*
X70556016Y-28264462D01*
X70651989Y-28111722D01*
X70711568Y-27941455D01*
X70731765Y-27762200D01*
X70711568Y-27582945D01*
X70651989Y-27412678D01*
X70556016Y-27259938D01*
X70428462Y-27132384D01*
X70275723Y-27036411D01*
X70105454Y-26976831D01*
X70105449Y-26976830D01*
X69926204Y-26956635D01*
X69926196Y-26956635D01*
X69746950Y-26976830D01*
X69746945Y-26976831D01*
X69576676Y-27036411D01*
X69423937Y-27132384D01*
X69296384Y-27259937D01*
X69200411Y-27412676D01*
X69140831Y-27582945D01*
X69140830Y-27582950D01*
X69120635Y-27762196D01*
X437500Y-27762196D01*
X437500Y-25755596D01*
X23045035Y-25755596D01*
X23045035Y-25755603D01*
X23065230Y-25934849D01*
X23065231Y-25934854D01*
X23124811Y-26105123D01*
X23207515Y-26236745D01*
X23220784Y-26257862D01*
X23348338Y-26385416D01*
X23501078Y-26481389D01*
X23642435Y-26530852D01*
X23671345Y-26540968D01*
X23671350Y-26540969D01*
X23850596Y-26561165D01*
X23850600Y-26561165D01*
X23850604Y-26561165D01*
X24029849Y-26540969D01*
X24029852Y-26540968D01*
X24029855Y-26540968D01*
X24200122Y-26481389D01*
X24304194Y-26415996D01*
X71813035Y-26415996D01*
X71813035Y-26416003D01*
X71833230Y-26595249D01*
X71833231Y-26595254D01*
X71892811Y-26765523D01*
X71967993Y-26885174D01*
X71988784Y-26918262D01*
X72116338Y-27045816D01*
X72206680Y-27102582D01*
X72264968Y-27139207D01*
X72269078Y-27141789D01*
X72439345Y-27201368D01*
X72439350Y-27201369D01*
X72618596Y-27221565D01*
X72618600Y-27221565D01*
X72618604Y-27221565D01*
X72797849Y-27201369D01*
X72797852Y-27201368D01*
X72797855Y-27201368D01*
X72968122Y-27141789D01*
X73120862Y-27045816D01*
X73248416Y-26918262D01*
X73344389Y-26765522D01*
X73403968Y-26595255D01*
X73403969Y-26595249D01*
X73404749Y-26591833D01*
X73405861Y-26589843D01*
X73406268Y-26588682D01*
X73406471Y-26588753D01*
X73438852Y-26530852D01*
X73500511Y-26497989D01*
X73570149Y-26503679D01*
X73613323Y-26531735D01*
X73661996Y-26580408D01*
X73800425Y-26667389D01*
X73954739Y-26721386D01*
X73954742Y-26721386D01*
X73954744Y-26721387D01*
X74117196Y-26739691D01*
X74117200Y-26739691D01*
X74117204Y-26739691D01*
X74279655Y-26721387D01*
X74279656Y-26721386D01*
X74279661Y-26721386D01*
X74433975Y-26667389D01*
X74572404Y-26580408D01*
X74688008Y-26464804D01*
X74774989Y-26326375D01*
X74823620Y-26187396D01*
X81541235Y-26187396D01*
X81541235Y-26187403D01*
X81561430Y-26366649D01*
X81561431Y-26366654D01*
X81621011Y-26536923D01*
X81657663Y-26595254D01*
X81716984Y-26689662D01*
X81844538Y-26817216D01*
X81997278Y-26913189D01*
X82121440Y-26956635D01*
X82167545Y-26972768D01*
X82167550Y-26972769D01*
X82346796Y-26992965D01*
X82346800Y-26992965D01*
X82346804Y-26992965D01*
X82526049Y-26972769D01*
X82526052Y-26972768D01*
X82526055Y-26972768D01*
X82696322Y-26913189D01*
X82849062Y-26817216D01*
X82976616Y-26689662D01*
X83052813Y-26568396D01*
X83750309Y-26568396D01*
X83750309Y-26568403D01*
X83768612Y-26730855D01*
X83822610Y-26885174D01*
X83877650Y-26972769D01*
X83909592Y-27023604D01*
X84025196Y-27139208D01*
X84163625Y-27226189D01*
X84317939Y-27280186D01*
X84317942Y-27280186D01*
X84317944Y-27280187D01*
X84480396Y-27298491D01*
X84480400Y-27298491D01*
X84480404Y-27298491D01*
X84642855Y-27280187D01*
X84642856Y-27280186D01*
X84642861Y-27280186D01*
X84797175Y-27226189D01*
X84935604Y-27139208D01*
X85051208Y-27023604D01*
X85138189Y-26885175D01*
X85192186Y-26730861D01*
X85192187Y-26730855D01*
X85210491Y-26568403D01*
X85210491Y-26568396D01*
X85192187Y-26405944D01*
X85192186Y-26405942D01*
X85192186Y-26405939D01*
X85138189Y-26251625D01*
X85051208Y-26113196D01*
X84935604Y-25997592D01*
X84835759Y-25934855D01*
X84797174Y-25910610D01*
X84642855Y-25856612D01*
X84480404Y-25838309D01*
X84480396Y-25838309D01*
X84317944Y-25856612D01*
X84163625Y-25910610D01*
X84025195Y-25997592D01*
X83909592Y-26113195D01*
X83822610Y-26251625D01*
X83768612Y-26405944D01*
X83750309Y-26568396D01*
X83052813Y-26568396D01*
X83072589Y-26536922D01*
X83132168Y-26366655D01*
X83132169Y-26366649D01*
X83152365Y-26187403D01*
X83152365Y-26187396D01*
X83132169Y-26008150D01*
X83132168Y-26008145D01*
X83106522Y-25934854D01*
X83072589Y-25837878D01*
X83065443Y-25826506D01*
X82981446Y-25692825D01*
X82976616Y-25685138D01*
X82849062Y-25557584D01*
X82843987Y-25554395D01*
X82696323Y-25461611D01*
X82526054Y-25402031D01*
X82526049Y-25402030D01*
X82346804Y-25381835D01*
X82346796Y-25381835D01*
X82167550Y-25402030D01*
X82167545Y-25402031D01*
X81997276Y-25461611D01*
X81844537Y-25557584D01*
X81716984Y-25685137D01*
X81621011Y-25837876D01*
X81561431Y-26008145D01*
X81561430Y-26008150D01*
X81541235Y-26187396D01*
X74823620Y-26187396D01*
X74828986Y-26172061D01*
X74836528Y-26105123D01*
X74847291Y-26009603D01*
X74847291Y-26009596D01*
X74828987Y-25847144D01*
X74828986Y-25847142D01*
X74828986Y-25847139D01*
X74774989Y-25692825D01*
X74688008Y-25554396D01*
X74572404Y-25438792D01*
X74513901Y-25402032D01*
X74433974Y-25351810D01*
X74279655Y-25297812D01*
X74117204Y-25279509D01*
X74117196Y-25279509D01*
X73954744Y-25297812D01*
X73800425Y-25351810D01*
X73661995Y-25438792D01*
X73546392Y-25554395D01*
X73459410Y-25692825D01*
X73412634Y-25826506D01*
X73371912Y-25883282D01*
X73306959Y-25909030D01*
X73238398Y-25895574D01*
X73207911Y-25873233D01*
X73120862Y-25786184D01*
X72968123Y-25690211D01*
X72797854Y-25630631D01*
X72797849Y-25630630D01*
X72618604Y-25610435D01*
X72618596Y-25610435D01*
X72439350Y-25630630D01*
X72439345Y-25630631D01*
X72269076Y-25690211D01*
X72116337Y-25786184D01*
X71988784Y-25913737D01*
X71892811Y-26066476D01*
X71833231Y-26236745D01*
X71833230Y-26236750D01*
X71813035Y-26415996D01*
X24304194Y-26415996D01*
X24352862Y-26385416D01*
X24480416Y-26257862D01*
X24576389Y-26105122D01*
X24635968Y-25934855D01*
X24635969Y-25934849D01*
X24656165Y-25755603D01*
X24656165Y-25755596D01*
X24635969Y-25576350D01*
X24635968Y-25576345D01*
X24576388Y-25406076D01*
X24496860Y-25279509D01*
X24480416Y-25253338D01*
X24352862Y-25125784D01*
X24252250Y-25062565D01*
X24200123Y-25029811D01*
X24029854Y-24970231D01*
X24029849Y-24970230D01*
X23850604Y-24950035D01*
X23850596Y-24950035D01*
X23671350Y-24970230D01*
X23671345Y-24970231D01*
X23501076Y-25029811D01*
X23348337Y-25125784D01*
X23220784Y-25253337D01*
X23124811Y-25406076D01*
X23065231Y-25576345D01*
X23065230Y-25576350D01*
X23045035Y-25755596D01*
X437500Y-25755596D01*
X437500Y-24104596D01*
X27286835Y-24104596D01*
X27286835Y-24104603D01*
X27307030Y-24283849D01*
X27307031Y-24283854D01*
X27366611Y-24454123D01*
X27424631Y-24546461D01*
X27462584Y-24606862D01*
X27590138Y-24734416D01*
X27742878Y-24830389D01*
X27904134Y-24886815D01*
X27913145Y-24889968D01*
X27913150Y-24889969D01*
X28092396Y-24910165D01*
X28092400Y-24910165D01*
X28092404Y-24910165D01*
X28271649Y-24889969D01*
X28271652Y-24889968D01*
X28271655Y-24889968D01*
X28441922Y-24830389D01*
X28594662Y-24734416D01*
X28722216Y-24606862D01*
X28818189Y-24454122D01*
X28877768Y-24283855D01*
X28877769Y-24283849D01*
X28897965Y-24104603D01*
X28897965Y-24104596D01*
X28877769Y-23925350D01*
X28877768Y-23925345D01*
X28871515Y-23907476D01*
X28860500Y-23875996D01*
X39224109Y-23875996D01*
X39224109Y-23876003D01*
X39242412Y-24038455D01*
X39296410Y-24192774D01*
X39356544Y-24288476D01*
X39383392Y-24331204D01*
X39498996Y-24446808D01*
X39637425Y-24533789D01*
X39791739Y-24587786D01*
X39791742Y-24587786D01*
X39791744Y-24587787D01*
X39954196Y-24606091D01*
X39954200Y-24606091D01*
X39954204Y-24606091D01*
X40116655Y-24587787D01*
X40116656Y-24587786D01*
X40116661Y-24587786D01*
X40270975Y-24533789D01*
X40409404Y-24446808D01*
X40472216Y-24383996D01*
X41764109Y-24383996D01*
X41764109Y-24384003D01*
X41782412Y-24546455D01*
X41836410Y-24700774D01*
X41917853Y-24830389D01*
X41923392Y-24839204D01*
X42038996Y-24954808D01*
X42177425Y-25041789D01*
X42331739Y-25095786D01*
X42331742Y-25095786D01*
X42331744Y-25095787D01*
X42494196Y-25114091D01*
X42494200Y-25114091D01*
X42494204Y-25114091D01*
X42656655Y-25095787D01*
X42656656Y-25095786D01*
X42656661Y-25095786D01*
X42658347Y-25095196D01*
X69730235Y-25095196D01*
X69730235Y-25095203D01*
X69750430Y-25274449D01*
X69750431Y-25274454D01*
X69810011Y-25444723D01*
X69820623Y-25461611D01*
X69905984Y-25597462D01*
X70033538Y-25725016D01*
X70186278Y-25820989D01*
X70335583Y-25873233D01*
X70356545Y-25880568D01*
X70356550Y-25880569D01*
X70535796Y-25900765D01*
X70535800Y-25900765D01*
X70535804Y-25900765D01*
X70715049Y-25880569D01*
X70715052Y-25880568D01*
X70715055Y-25880568D01*
X70885322Y-25820989D01*
X71038062Y-25725016D01*
X71165616Y-25597462D01*
X71261589Y-25444722D01*
X71321168Y-25274455D01*
X71321916Y-25267815D01*
X71341365Y-25095203D01*
X71341365Y-25095196D01*
X71321169Y-24915950D01*
X71321168Y-24915945D01*
X71286635Y-24817255D01*
X71261589Y-24745678D01*
X71193928Y-24637996D01*
X95892235Y-24637996D01*
X95892235Y-24638003D01*
X95912430Y-24817249D01*
X95912431Y-24817254D01*
X95972011Y-24987523D01*
X96040038Y-25095786D01*
X96067984Y-25140262D01*
X96195538Y-25267816D01*
X96285880Y-25324582D01*
X96329213Y-25351810D01*
X96348278Y-25363789D01*
X96469133Y-25406078D01*
X96518545Y-25423368D01*
X96518550Y-25423369D01*
X96697796Y-25443565D01*
X96697800Y-25443565D01*
X96697804Y-25443565D01*
X96877049Y-25423369D01*
X96877052Y-25423368D01*
X96877055Y-25423368D01*
X97047322Y-25363789D01*
X97200062Y-25267816D01*
X97327616Y-25140262D01*
X97423589Y-24987522D01*
X97483168Y-24817255D01*
X97483169Y-24817249D01*
X97503365Y-24638003D01*
X97503365Y-24637996D01*
X97483169Y-24458750D01*
X97483168Y-24458745D01*
X97457015Y-24384003D01*
X97423589Y-24288478D01*
X97420680Y-24283849D01*
X97403807Y-24256996D01*
X120225435Y-24256996D01*
X120225435Y-24257003D01*
X120245630Y-24436249D01*
X120245631Y-24436254D01*
X120305211Y-24606523D01*
X120385572Y-24734416D01*
X120401184Y-24759262D01*
X120528738Y-24886816D01*
X120619080Y-24943582D01*
X120661493Y-24970232D01*
X120681478Y-24982789D01*
X120815859Y-25029811D01*
X120851745Y-25042368D01*
X120851750Y-25042369D01*
X121030996Y-25062565D01*
X121031000Y-25062565D01*
X121031004Y-25062565D01*
X121210249Y-25042369D01*
X121210252Y-25042368D01*
X121210255Y-25042368D01*
X121380522Y-24982789D01*
X121533262Y-24886816D01*
X121660816Y-24759262D01*
X121756789Y-24606522D01*
X121816368Y-24436255D01*
X121817750Y-24423988D01*
X121836565Y-24257003D01*
X121836565Y-24256996D01*
X121816369Y-24077750D01*
X121816368Y-24077745D01*
X121802620Y-24038455D01*
X121756789Y-23907478D01*
X121660816Y-23754738D01*
X121533262Y-23627184D01*
X121493720Y-23602338D01*
X121380523Y-23531211D01*
X121210254Y-23471631D01*
X121210249Y-23471630D01*
X121031004Y-23451435D01*
X121030996Y-23451435D01*
X120851750Y-23471630D01*
X120851745Y-23471631D01*
X120681476Y-23531211D01*
X120528737Y-23627184D01*
X120401184Y-23754737D01*
X120305211Y-23907476D01*
X120245631Y-24077745D01*
X120245630Y-24077750D01*
X120225435Y-24256996D01*
X97403807Y-24256996D01*
X97327615Y-24135737D01*
X97200062Y-24008184D01*
X97047323Y-23912211D01*
X96877054Y-23852631D01*
X96877049Y-23852630D01*
X96697804Y-23832435D01*
X96697796Y-23832435D01*
X96518550Y-23852630D01*
X96518545Y-23852631D01*
X96348276Y-23912211D01*
X96195537Y-24008184D01*
X96067984Y-24135737D01*
X95972011Y-24288476D01*
X95912431Y-24458745D01*
X95912430Y-24458750D01*
X95892235Y-24637996D01*
X71193928Y-24637996D01*
X71165616Y-24592938D01*
X71038062Y-24465384D01*
X71020139Y-24454122D01*
X70885323Y-24369411D01*
X70715054Y-24309831D01*
X70715049Y-24309830D01*
X70535804Y-24289635D01*
X70535796Y-24289635D01*
X70356550Y-24309830D01*
X70356545Y-24309831D01*
X70186276Y-24369411D01*
X70033537Y-24465384D01*
X69905984Y-24592937D01*
X69810011Y-24745676D01*
X69750431Y-24915945D01*
X69750430Y-24915950D01*
X69730235Y-25095196D01*
X42658347Y-25095196D01*
X42810975Y-25041789D01*
X42949404Y-24954808D01*
X43065008Y-24839204D01*
X43151989Y-24700775D01*
X43205986Y-24546461D01*
X43210797Y-24503765D01*
X43224291Y-24384003D01*
X43224291Y-24383996D01*
X43205987Y-24221544D01*
X43205986Y-24221542D01*
X43205986Y-24221539D01*
X43151989Y-24067225D01*
X43065008Y-23928796D01*
X42949404Y-23813192D01*
X42810974Y-23726210D01*
X42656655Y-23672212D01*
X42494204Y-23653909D01*
X42494196Y-23653909D01*
X42331744Y-23672212D01*
X42177425Y-23726210D01*
X42038995Y-23813192D01*
X41923392Y-23928795D01*
X41836410Y-24067225D01*
X41782412Y-24221544D01*
X41764109Y-24383996D01*
X40472216Y-24383996D01*
X40525008Y-24331204D01*
X40611989Y-24192775D01*
X40665986Y-24038461D01*
X40665987Y-24038455D01*
X40684291Y-23876003D01*
X40684291Y-23875996D01*
X40665987Y-23713544D01*
X40665986Y-23713542D01*
X40665986Y-23713539D01*
X40611989Y-23559225D01*
X40525008Y-23420796D01*
X40409404Y-23305192D01*
X40399605Y-23299035D01*
X40270974Y-23218210D01*
X40116655Y-23164212D01*
X39954204Y-23145909D01*
X39954196Y-23145909D01*
X39791744Y-23164212D01*
X39637425Y-23218210D01*
X39498995Y-23305192D01*
X39383392Y-23420795D01*
X39296410Y-23559225D01*
X39242412Y-23713544D01*
X39224109Y-23875996D01*
X28860500Y-23875996D01*
X28818189Y-23755078D01*
X28817975Y-23754738D01*
X28722215Y-23602337D01*
X28594662Y-23474784D01*
X28441923Y-23378811D01*
X28271654Y-23319231D01*
X28271649Y-23319230D01*
X28092404Y-23299035D01*
X28092396Y-23299035D01*
X27913150Y-23319230D01*
X27913145Y-23319231D01*
X27742876Y-23378811D01*
X27590137Y-23474784D01*
X27462584Y-23602337D01*
X27366611Y-23755076D01*
X27307031Y-23925345D01*
X27307030Y-23925350D01*
X27286835Y-24104596D01*
X437500Y-24104596D01*
X437500Y-22962796D01*
X70257113Y-22962796D01*
X70257113Y-22962803D01*
X70277308Y-23142049D01*
X70277309Y-23142054D01*
X70336889Y-23312323D01*
X70405047Y-23420795D01*
X70432862Y-23465062D01*
X70560416Y-23592616D01*
X70713156Y-23688589D01*
X70883423Y-23748168D01*
X70883428Y-23748169D01*
X71062674Y-23768365D01*
X71062678Y-23768365D01*
X71062682Y-23768365D01*
X71241927Y-23748169D01*
X71241930Y-23748168D01*
X71241933Y-23748168D01*
X71384745Y-23698196D01*
X73972035Y-23698196D01*
X73972035Y-23698203D01*
X73992230Y-23877449D01*
X73992231Y-23877454D01*
X74051811Y-24047723D01*
X74107115Y-24135738D01*
X74147784Y-24200462D01*
X74275338Y-24328016D01*
X74428078Y-24423989D01*
X74546378Y-24465384D01*
X74598345Y-24483568D01*
X74598350Y-24483569D01*
X74777596Y-24503765D01*
X74777600Y-24503765D01*
X74777604Y-24503765D01*
X74956849Y-24483569D01*
X74956852Y-24483568D01*
X74956855Y-24483568D01*
X75127122Y-24423989D01*
X75279862Y-24328016D01*
X75407416Y-24200462D01*
X75503389Y-24047722D01*
X75562968Y-23877455D01*
X75563132Y-23876000D01*
X75583165Y-23698203D01*
X75583165Y-23698196D01*
X75562969Y-23518950D01*
X75562968Y-23518945D01*
X75546412Y-23471630D01*
X75503389Y-23348678D01*
X75407416Y-23195938D01*
X75279862Y-23068384D01*
X75127123Y-22972411D01*
X74956854Y-22912831D01*
X74956849Y-22912830D01*
X74777604Y-22892635D01*
X74777596Y-22892635D01*
X74598350Y-22912830D01*
X74598345Y-22912831D01*
X74428076Y-22972411D01*
X74275337Y-23068384D01*
X74147784Y-23195937D01*
X74051811Y-23348676D01*
X73992231Y-23518945D01*
X73992230Y-23518950D01*
X73972035Y-23698196D01*
X71384745Y-23698196D01*
X71412200Y-23688589D01*
X71564940Y-23592616D01*
X71692494Y-23465062D01*
X71788467Y-23312322D01*
X71848046Y-23142055D01*
X71868243Y-22962800D01*
X71860337Y-22892635D01*
X71848047Y-22783550D01*
X71848046Y-22783545D01*
X71788466Y-22613276D01*
X71692493Y-22460537D01*
X71564940Y-22332984D01*
X71412201Y-22237011D01*
X71241932Y-22177431D01*
X71241927Y-22177430D01*
X71062682Y-22157235D01*
X71062674Y-22157235D01*
X70883428Y-22177430D01*
X70883423Y-22177431D01*
X70713154Y-22237011D01*
X70560415Y-22332984D01*
X70432862Y-22460537D01*
X70336889Y-22613276D01*
X70277309Y-22783545D01*
X70277308Y-22783550D01*
X70257113Y-22962796D01*
X437500Y-22962796D01*
X437500Y-20497800D01*
X10448340Y-20497800D01*
X10468126Y-20686056D01*
X10468127Y-20686059D01*
X10526618Y-20866077D01*
X10526621Y-20866084D01*
X10621267Y-21030016D01*
X10736681Y-21158196D01*
X10747929Y-21170688D01*
X10901065Y-21281948D01*
X10901070Y-21281951D01*
X11073992Y-21358942D01*
X11073997Y-21358944D01*
X11259154Y-21398300D01*
X11259155Y-21398300D01*
X11448444Y-21398300D01*
X11448446Y-21398300D01*
X11633603Y-21358944D01*
X11806530Y-21281951D01*
X11959671Y-21170688D01*
X12086333Y-21030016D01*
X12180979Y-20866084D01*
X12239474Y-20686056D01*
X12259260Y-20497800D01*
X12256590Y-20472396D01*
X49105435Y-20472396D01*
X49105435Y-20472403D01*
X49125630Y-20651649D01*
X49125631Y-20651654D01*
X49185211Y-20821923D01*
X49281184Y-20974662D01*
X49408738Y-21102216D01*
X49409889Y-21102939D01*
X49528586Y-21177522D01*
X49561478Y-21198189D01*
X49725769Y-21255677D01*
X49731745Y-21257768D01*
X49731750Y-21257769D01*
X49910996Y-21277965D01*
X49911000Y-21277965D01*
X49911004Y-21277965D01*
X50090249Y-21257769D01*
X50090252Y-21257768D01*
X50090255Y-21257768D01*
X50260522Y-21198189D01*
X50324170Y-21158196D01*
X61805435Y-21158196D01*
X61805435Y-21158203D01*
X61825630Y-21337449D01*
X61825631Y-21337454D01*
X61885211Y-21507723D01*
X61946461Y-21605201D01*
X61981184Y-21660462D01*
X62108738Y-21788016D01*
X62261478Y-21883989D01*
X62271698Y-21887565D01*
X62431745Y-21943568D01*
X62431750Y-21943569D01*
X62610996Y-21963765D01*
X62611000Y-21963765D01*
X62611004Y-21963765D01*
X62790249Y-21943569D01*
X62790252Y-21943568D01*
X62790255Y-21943568D01*
X62960522Y-21883989D01*
X63113262Y-21788016D01*
X63240816Y-21660462D01*
X63336789Y-21507722D01*
X63396368Y-21337455D01*
X63396369Y-21337449D01*
X63416565Y-21158203D01*
X63416565Y-21158196D01*
X75419835Y-21158196D01*
X75419835Y-21158203D01*
X75440030Y-21337449D01*
X75440031Y-21337454D01*
X75499611Y-21507723D01*
X75560861Y-21605201D01*
X75595584Y-21660462D01*
X75723138Y-21788016D01*
X75875878Y-21883989D01*
X75886098Y-21887565D01*
X76046145Y-21943568D01*
X76046150Y-21943569D01*
X76225396Y-21963765D01*
X76225400Y-21963765D01*
X76225404Y-21963765D01*
X76404649Y-21943569D01*
X76404652Y-21943568D01*
X76404655Y-21943568D01*
X76574922Y-21883989D01*
X76727662Y-21788016D01*
X76855216Y-21660462D01*
X76951189Y-21507722D01*
X77010768Y-21337455D01*
X77010769Y-21337449D01*
X77030965Y-21158203D01*
X77030965Y-21158196D01*
X77010769Y-20978950D01*
X77010768Y-20978945D01*
X76957950Y-20828000D01*
X76957949Y-20827996D01*
X101378635Y-20827996D01*
X101378635Y-20828003D01*
X101398830Y-21007249D01*
X101398831Y-21007254D01*
X101458411Y-21177523D01*
X101524026Y-21281948D01*
X101554384Y-21330262D01*
X101681938Y-21457816D01*
X101834678Y-21553789D01*
X101921765Y-21584262D01*
X102004945Y-21613368D01*
X102004950Y-21613369D01*
X102184196Y-21633565D01*
X102184200Y-21633565D01*
X102184204Y-21633565D01*
X102363449Y-21613369D01*
X102363452Y-21613368D01*
X102363455Y-21613368D01*
X102386806Y-21605197D01*
X113265835Y-21605197D01*
X113265835Y-21605204D01*
X113286030Y-21784450D01*
X113286031Y-21784455D01*
X113345611Y-21954724D01*
X113351292Y-21963765D01*
X113441584Y-22107463D01*
X113569138Y-22235017D01*
X113721878Y-22330990D01*
X113727577Y-22332984D01*
X113892145Y-22390569D01*
X113892150Y-22390570D01*
X114071396Y-22410766D01*
X114071400Y-22410766D01*
X114071404Y-22410766D01*
X114250649Y-22390570D01*
X114250652Y-22390569D01*
X114250655Y-22390569D01*
X114420922Y-22330990D01*
X114573662Y-22235017D01*
X114701216Y-22107463D01*
X114797189Y-21954723D01*
X114856768Y-21784456D01*
X114856769Y-21784450D01*
X114876965Y-21605204D01*
X114876965Y-21605197D01*
X114856769Y-21425951D01*
X114856768Y-21425946D01*
X114825803Y-21337454D01*
X114797189Y-21255679D01*
X114701216Y-21102939D01*
X114680273Y-21081996D01*
X124772035Y-21081996D01*
X124772035Y-21082003D01*
X124792230Y-21261249D01*
X124792231Y-21261254D01*
X124851811Y-21431523D01*
X124947784Y-21584262D01*
X125075338Y-21711816D01*
X125228078Y-21807789D01*
X125398345Y-21867368D01*
X125398350Y-21867369D01*
X125577596Y-21887565D01*
X125577600Y-21887565D01*
X125577604Y-21887565D01*
X125756849Y-21867369D01*
X125756852Y-21867368D01*
X125756855Y-21867368D01*
X125927122Y-21807789D01*
X126079862Y-21711816D01*
X126207416Y-21584262D01*
X126303389Y-21431522D01*
X126362968Y-21261255D01*
X126363361Y-21257768D01*
X126383165Y-21082003D01*
X126383165Y-21081996D01*
X126362969Y-20902750D01*
X126362968Y-20902745D01*
X126336815Y-20828003D01*
X126303389Y-20732478D01*
X126207416Y-20579738D01*
X126079862Y-20452184D01*
X125927123Y-20356211D01*
X125756854Y-20296631D01*
X125756849Y-20296630D01*
X125577604Y-20276435D01*
X125577596Y-20276435D01*
X125398350Y-20296630D01*
X125398345Y-20296631D01*
X125228076Y-20356211D01*
X125075337Y-20452184D01*
X124947784Y-20579737D01*
X124851811Y-20732476D01*
X124792231Y-20902745D01*
X124792230Y-20902750D01*
X124772035Y-21081996D01*
X114680273Y-21081996D01*
X114573662Y-20975385D01*
X114572511Y-20974662D01*
X114420923Y-20879412D01*
X114250654Y-20819832D01*
X114250649Y-20819831D01*
X114071404Y-20799636D01*
X114071396Y-20799636D01*
X113892150Y-20819831D01*
X113892145Y-20819832D01*
X113721876Y-20879412D01*
X113569137Y-20975385D01*
X113441584Y-21102938D01*
X113345611Y-21255677D01*
X113286031Y-21425946D01*
X113286030Y-21425951D01*
X113265835Y-21605197D01*
X102386806Y-21605197D01*
X102533722Y-21553789D01*
X102686462Y-21457816D01*
X102814016Y-21330262D01*
X102909989Y-21177522D01*
X102969568Y-21007255D01*
X102969569Y-21007249D01*
X102989765Y-20828003D01*
X102989765Y-20827996D01*
X102969569Y-20648750D01*
X102969568Y-20648745D01*
X102909988Y-20478476D01*
X102843607Y-20372832D01*
X102814016Y-20325738D01*
X102686462Y-20198184D01*
X102629536Y-20162415D01*
X102533723Y-20102211D01*
X102363454Y-20042631D01*
X102363449Y-20042630D01*
X102184204Y-20022435D01*
X102184196Y-20022435D01*
X102004950Y-20042630D01*
X102004945Y-20042631D01*
X101834676Y-20102211D01*
X101681937Y-20198184D01*
X101554384Y-20325737D01*
X101458411Y-20478476D01*
X101398831Y-20648745D01*
X101398830Y-20648750D01*
X101378635Y-20827996D01*
X76957949Y-20827996D01*
X76951189Y-20808678D01*
X76855216Y-20655938D01*
X76727662Y-20528384D01*
X76678988Y-20497800D01*
X76574923Y-20432411D01*
X76404654Y-20372831D01*
X76404649Y-20372830D01*
X76225404Y-20352635D01*
X76225396Y-20352635D01*
X76046150Y-20372830D01*
X76046145Y-20372831D01*
X75875876Y-20432411D01*
X75723137Y-20528384D01*
X75595584Y-20655937D01*
X75499611Y-20808676D01*
X75440031Y-20978945D01*
X75440030Y-20978950D01*
X75419835Y-21158196D01*
X63416565Y-21158196D01*
X63396369Y-20978950D01*
X63396368Y-20978945D01*
X63343550Y-20828000D01*
X63336789Y-20808678D01*
X63240816Y-20655938D01*
X63113262Y-20528384D01*
X63064588Y-20497800D01*
X62960523Y-20432411D01*
X62790254Y-20372831D01*
X62790249Y-20372830D01*
X62611004Y-20352635D01*
X62610996Y-20352635D01*
X62431750Y-20372830D01*
X62431745Y-20372831D01*
X62261476Y-20432411D01*
X62108737Y-20528384D01*
X61981184Y-20655937D01*
X61885211Y-20808676D01*
X61825631Y-20978945D01*
X61825630Y-20978950D01*
X61805435Y-21158196D01*
X50324170Y-21158196D01*
X50413262Y-21102216D01*
X50540816Y-20974662D01*
X50636789Y-20821922D01*
X50696368Y-20651655D01*
X50696369Y-20651649D01*
X50716565Y-20472403D01*
X50716565Y-20472396D01*
X50696369Y-20293150D01*
X50696368Y-20293145D01*
X50650624Y-20162416D01*
X50636789Y-20122878D01*
X50540816Y-19970138D01*
X50413262Y-19842584D01*
X50361354Y-19809968D01*
X50260523Y-19746611D01*
X50090254Y-19687031D01*
X50090249Y-19687030D01*
X49911004Y-19666835D01*
X49910996Y-19666835D01*
X49731750Y-19687030D01*
X49731745Y-19687031D01*
X49561476Y-19746611D01*
X49408737Y-19842584D01*
X49281184Y-19970137D01*
X49185211Y-20122876D01*
X49125631Y-20293145D01*
X49125630Y-20293150D01*
X49105435Y-20472396D01*
X12256590Y-20472396D01*
X12239474Y-20309544D01*
X12180979Y-20129516D01*
X12086333Y-19965584D01*
X11959671Y-19824912D01*
X11939104Y-19809969D01*
X11806534Y-19713651D01*
X11806529Y-19713648D01*
X11633607Y-19636657D01*
X11633602Y-19636655D01*
X11468511Y-19601565D01*
X11448446Y-19597300D01*
X11259154Y-19597300D01*
X11239089Y-19601565D01*
X11073997Y-19636655D01*
X11073992Y-19636657D01*
X10901070Y-19713648D01*
X10901065Y-19713651D01*
X10747929Y-19824911D01*
X10621266Y-19965585D01*
X10526621Y-20129515D01*
X10526618Y-20129522D01*
X10472321Y-20296632D01*
X10468126Y-20309544D01*
X10448340Y-20497800D01*
X437500Y-20497800D01*
X437500Y-18795996D01*
X38894635Y-18795996D01*
X38894635Y-18796003D01*
X38914830Y-18975249D01*
X38914831Y-18975254D01*
X38974411Y-19145523D01*
X39056753Y-19276568D01*
X39070384Y-19298262D01*
X39197938Y-19425816D01*
X39350678Y-19521789D01*
X39381583Y-19532603D01*
X39520945Y-19581368D01*
X39520950Y-19581369D01*
X39700196Y-19601565D01*
X39700200Y-19601565D01*
X39700204Y-19601565D01*
X39879449Y-19581369D01*
X39879452Y-19581368D01*
X39879455Y-19581368D01*
X40018837Y-19532596D01*
X56014235Y-19532596D01*
X56014235Y-19532603D01*
X56034430Y-19711849D01*
X56034431Y-19711854D01*
X56094011Y-19882123D01*
X56149315Y-19970138D01*
X56189984Y-20034862D01*
X56317538Y-20162416D01*
X56470278Y-20258389D01*
X56616459Y-20309540D01*
X56640545Y-20317968D01*
X56640550Y-20317969D01*
X56819796Y-20338165D01*
X56819800Y-20338165D01*
X56819804Y-20338165D01*
X56999049Y-20317969D01*
X56999052Y-20317968D01*
X56999055Y-20317968D01*
X57169322Y-20258389D01*
X57322062Y-20162416D01*
X57449616Y-20034862D01*
X57545589Y-19882122D01*
X57605168Y-19711855D01*
X57607965Y-19687030D01*
X57625365Y-19532603D01*
X57625365Y-19532596D01*
X57605169Y-19353350D01*
X57605168Y-19353345D01*
X57578303Y-19276569D01*
X57545589Y-19183078D01*
X57449616Y-19030338D01*
X57322062Y-18902784D01*
X57169323Y-18806811D01*
X56999054Y-18747231D01*
X56999049Y-18747230D01*
X56819804Y-18727035D01*
X56819796Y-18727035D01*
X56640550Y-18747230D01*
X56640545Y-18747231D01*
X56470276Y-18806811D01*
X56317537Y-18902784D01*
X56189984Y-19030337D01*
X56094011Y-19183076D01*
X56034431Y-19353345D01*
X56034430Y-19353350D01*
X56014235Y-19532596D01*
X40018837Y-19532596D01*
X40049722Y-19521789D01*
X40202462Y-19425816D01*
X40330016Y-19298262D01*
X40425989Y-19145522D01*
X40485568Y-18975255D01*
X40485569Y-18975249D01*
X40505765Y-18796003D01*
X40505765Y-18795996D01*
X40485569Y-18616750D01*
X40485568Y-18616745D01*
X40441637Y-18491196D01*
X47505235Y-18491196D01*
X47505235Y-18491203D01*
X47525430Y-18670449D01*
X47525431Y-18670454D01*
X47585011Y-18840723D01*
X47624007Y-18902784D01*
X47680984Y-18993462D01*
X47808538Y-19121016D01*
X47961278Y-19216989D01*
X48131545Y-19276568D01*
X48131550Y-19276569D01*
X48310796Y-19296765D01*
X48310800Y-19296765D01*
X48310804Y-19296765D01*
X48490049Y-19276569D01*
X48490052Y-19276568D01*
X48490055Y-19276568D01*
X48660322Y-19216989D01*
X48813062Y-19121016D01*
X48940616Y-18993462D01*
X49036589Y-18840722D01*
X49096168Y-18670455D01*
X49116365Y-18491200D01*
X49116365Y-18491196D01*
X69908035Y-18491196D01*
X69908035Y-18491203D01*
X69928230Y-18670449D01*
X69928231Y-18670454D01*
X69987811Y-18840723D01*
X70026807Y-18902784D01*
X70083784Y-18993462D01*
X70211338Y-19121016D01*
X70364078Y-19216989D01*
X70534345Y-19276568D01*
X70534350Y-19276569D01*
X70713596Y-19296765D01*
X70713600Y-19296765D01*
X70713604Y-19296765D01*
X70892849Y-19276569D01*
X70892852Y-19276568D01*
X70892855Y-19276568D01*
X71063122Y-19216989D01*
X71215862Y-19121016D01*
X71312282Y-19024596D01*
X79600636Y-19024596D01*
X79600636Y-19024603D01*
X79620831Y-19203849D01*
X79620832Y-19203854D01*
X79680412Y-19374123D01*
X79773197Y-19521788D01*
X79776385Y-19526862D01*
X79903939Y-19654416D01*
X80056679Y-19750389D01*
X80226946Y-19809968D01*
X80226951Y-19809969D01*
X80406197Y-19830165D01*
X80406201Y-19830165D01*
X80406205Y-19830165D01*
X80585450Y-19809969D01*
X80585453Y-19809968D01*
X80585456Y-19809968D01*
X80755723Y-19750389D01*
X80908463Y-19654416D01*
X81036017Y-19526862D01*
X81131990Y-19374122D01*
X81191569Y-19203855D01*
X81193910Y-19183078D01*
X81211766Y-19024603D01*
X81211766Y-19024596D01*
X81191570Y-18845350D01*
X81191569Y-18845345D01*
X81157237Y-18747230D01*
X81131990Y-18675078D01*
X81129081Y-18670449D01*
X81036016Y-18522337D01*
X80908463Y-18394784D01*
X80755724Y-18298811D01*
X80585455Y-18239231D01*
X80585450Y-18239230D01*
X80406205Y-18219035D01*
X80406197Y-18219035D01*
X80226951Y-18239230D01*
X80226946Y-18239231D01*
X80056677Y-18298811D01*
X79903938Y-18394784D01*
X79776385Y-18522337D01*
X79680412Y-18675076D01*
X79620832Y-18845345D01*
X79620831Y-18845350D01*
X79600636Y-19024596D01*
X71312282Y-19024596D01*
X71343416Y-18993462D01*
X71439389Y-18840722D01*
X71498968Y-18670455D01*
X71519165Y-18491200D01*
X71516074Y-18463769D01*
X71498969Y-18311950D01*
X71498968Y-18311945D01*
X71480788Y-18259989D01*
X71439389Y-18141678D01*
X71343416Y-17988938D01*
X71215862Y-17861384D01*
X71169494Y-17832249D01*
X71063123Y-17765411D01*
X70892854Y-17705831D01*
X70892849Y-17705830D01*
X70713604Y-17685635D01*
X70713596Y-17685635D01*
X70534350Y-17705830D01*
X70534345Y-17705831D01*
X70364076Y-17765411D01*
X70211337Y-17861384D01*
X70083784Y-17988937D01*
X69987811Y-18141676D01*
X69928231Y-18311945D01*
X69928230Y-18311950D01*
X69908035Y-18491196D01*
X49116365Y-18491196D01*
X49113274Y-18463769D01*
X49096169Y-18311950D01*
X49096168Y-18311945D01*
X49077988Y-18259989D01*
X49036589Y-18141678D01*
X48940616Y-17988938D01*
X48813062Y-17861384D01*
X48766694Y-17832249D01*
X48660323Y-17765411D01*
X48490054Y-17705831D01*
X48490049Y-17705830D01*
X48310804Y-17685635D01*
X48310796Y-17685635D01*
X48131550Y-17705830D01*
X48131545Y-17705831D01*
X47961276Y-17765411D01*
X47808537Y-17861384D01*
X47680984Y-17988937D01*
X47585011Y-18141676D01*
X47525431Y-18311945D01*
X47525430Y-18311950D01*
X47505235Y-18491196D01*
X40441637Y-18491196D01*
X40425989Y-18446478D01*
X40393507Y-18394784D01*
X40383457Y-18378789D01*
X40330016Y-18293738D01*
X40202462Y-18166184D01*
X40150554Y-18133568D01*
X40049723Y-18070211D01*
X39879454Y-18010631D01*
X39879449Y-18010630D01*
X39700204Y-17990435D01*
X39700196Y-17990435D01*
X39520950Y-18010630D01*
X39520945Y-18010631D01*
X39350676Y-18070211D01*
X39197937Y-18166184D01*
X39070384Y-18293737D01*
X38974411Y-18446476D01*
X38914831Y-18616745D01*
X38914830Y-18616750D01*
X38894635Y-18795996D01*
X437500Y-18795996D01*
X437500Y-17652996D01*
X33103435Y-17652996D01*
X33103435Y-17653003D01*
X33123630Y-17832249D01*
X33123631Y-17832254D01*
X33183211Y-18002523D01*
X33247264Y-18104462D01*
X33279184Y-18155262D01*
X33406738Y-18282816D01*
X33559478Y-18378789D01*
X33642287Y-18407765D01*
X33729745Y-18438368D01*
X33729750Y-18438369D01*
X33908996Y-18458565D01*
X33909000Y-18458565D01*
X33909004Y-18458565D01*
X34088249Y-18438369D01*
X34088252Y-18438368D01*
X34088255Y-18438368D01*
X34258522Y-18378789D01*
X34411262Y-18282816D01*
X34538816Y-18155262D01*
X34634789Y-18002522D01*
X34694368Y-17832255D01*
X34700092Y-17781454D01*
X34714565Y-17653003D01*
X34714565Y-17652996D01*
X34694369Y-17473750D01*
X34694368Y-17473745D01*
X34634789Y-17303478D01*
X34538816Y-17150738D01*
X34411262Y-17023184D01*
X34372258Y-16998676D01*
X34258523Y-16927211D01*
X34088254Y-16867631D01*
X34088249Y-16867630D01*
X33909004Y-16847435D01*
X33908996Y-16847435D01*
X33729750Y-16867630D01*
X33729745Y-16867631D01*
X33559476Y-16927211D01*
X33406737Y-17023184D01*
X33279184Y-17150737D01*
X33183211Y-17303476D01*
X33123631Y-17473745D01*
X33123630Y-17473750D01*
X33103435Y-17652996D01*
X437500Y-17652996D01*
X437500Y-16713196D01*
X28963235Y-16713196D01*
X28963235Y-16713203D01*
X28983430Y-16892449D01*
X28983431Y-16892454D01*
X29043011Y-17062723D01*
X29114274Y-17176137D01*
X29138984Y-17215462D01*
X29266538Y-17343016D01*
X29419278Y-17438989D01*
X29589545Y-17498568D01*
X29589550Y-17498569D01*
X29768796Y-17518765D01*
X29768800Y-17518765D01*
X29768804Y-17518765D01*
X29948049Y-17498569D01*
X29948052Y-17498568D01*
X29948055Y-17498568D01*
X30118322Y-17438989D01*
X30271062Y-17343016D01*
X30398616Y-17215462D01*
X30494589Y-17062722D01*
X30554168Y-16892455D01*
X30554398Y-16890414D01*
X30574365Y-16713203D01*
X30574365Y-16713196D01*
X30554169Y-16533950D01*
X30554168Y-16533945D01*
X30525482Y-16451965D01*
X30494589Y-16363678D01*
X30398616Y-16210938D01*
X30316674Y-16128996D01*
X58757435Y-16128996D01*
X58757435Y-16129003D01*
X58777630Y-16308249D01*
X58777631Y-16308254D01*
X58837211Y-16478523D01*
X58917572Y-16606416D01*
X58933184Y-16631262D01*
X59060738Y-16758816D01*
X59071304Y-16765455D01*
X59199391Y-16845938D01*
X59213478Y-16854789D01*
X59383745Y-16914368D01*
X59383750Y-16914369D01*
X59562996Y-16934565D01*
X59563000Y-16934565D01*
X59563004Y-16934565D01*
X59742249Y-16914369D01*
X59742252Y-16914368D01*
X59742255Y-16914368D01*
X59912522Y-16854789D01*
X60065262Y-16758816D01*
X60192816Y-16631262D01*
X60288789Y-16478522D01*
X60348368Y-16308255D01*
X60348369Y-16308249D01*
X60368565Y-16129003D01*
X60368565Y-16128996D01*
X60348369Y-15949750D01*
X60348368Y-15949745D01*
X60333228Y-15906478D01*
X60288789Y-15779478D01*
X60272615Y-15753738D01*
X60214337Y-15660989D01*
X60205168Y-15646396D01*
X62084835Y-15646396D01*
X62084835Y-15646403D01*
X62105030Y-15825649D01*
X62105031Y-15825654D01*
X62164611Y-15995923D01*
X62248231Y-16129003D01*
X62260584Y-16148662D01*
X62388138Y-16276216D01*
X62478480Y-16332982D01*
X62527329Y-16363676D01*
X62540878Y-16372189D01*
X62711145Y-16431768D01*
X62711150Y-16431769D01*
X62890396Y-16451965D01*
X62890400Y-16451965D01*
X62890404Y-16451965D01*
X63069649Y-16431769D01*
X63069652Y-16431768D01*
X63069655Y-16431768D01*
X63239922Y-16372189D01*
X63392662Y-16276216D01*
X63520216Y-16148662D01*
X63607813Y-16009252D01*
X65902091Y-16009252D01*
X65902091Y-16009259D01*
X65922286Y-16188505D01*
X65922287Y-16188510D01*
X65981867Y-16358779D01*
X66040420Y-16451965D01*
X66077840Y-16511518D01*
X66205394Y-16639072D01*
X66323362Y-16713196D01*
X66358134Y-16735045D01*
X66473765Y-16775506D01*
X66530541Y-16816228D01*
X66556289Y-16881180D01*
X66542833Y-16949742D01*
X66520493Y-16980229D01*
X66400783Y-17099939D01*
X66304811Y-17252676D01*
X66245231Y-17422945D01*
X66245230Y-17422950D01*
X66225035Y-17602196D01*
X66225035Y-17602203D01*
X66245230Y-17781449D01*
X66245231Y-17781454D01*
X66304811Y-17951723D01*
X66400784Y-18104462D01*
X66528338Y-18232016D01*
X66572857Y-18259989D01*
X66634641Y-18298811D01*
X66681078Y-18327989D01*
X66826253Y-18378788D01*
X66851345Y-18387568D01*
X66851350Y-18387569D01*
X67030596Y-18407765D01*
X67030600Y-18407765D01*
X67030604Y-18407765D01*
X67209849Y-18387569D01*
X67209852Y-18387568D01*
X67209855Y-18387568D01*
X67380122Y-18327989D01*
X67532862Y-18232016D01*
X67660416Y-18104462D01*
X67756389Y-17951722D01*
X67815968Y-17781455D01*
X67817776Y-17765411D01*
X67836165Y-17602203D01*
X67836165Y-17602196D01*
X71609109Y-17602196D01*
X71609109Y-17602203D01*
X71627412Y-17764655D01*
X71627413Y-17764660D01*
X71627414Y-17764661D01*
X71634579Y-17785139D01*
X71681410Y-17918974D01*
X71681411Y-17918975D01*
X71768392Y-18057404D01*
X71883996Y-18173008D01*
X72022425Y-18259989D01*
X72176739Y-18313986D01*
X72176742Y-18313986D01*
X72176744Y-18313987D01*
X72339196Y-18332291D01*
X72339200Y-18332291D01*
X72339204Y-18332291D01*
X72501655Y-18313987D01*
X72501656Y-18313986D01*
X72501661Y-18313986D01*
X72655975Y-18259989D01*
X72794404Y-18173008D01*
X72910008Y-18057404D01*
X72996989Y-17918975D01*
X73050986Y-17764661D01*
X73050987Y-17764655D01*
X73060706Y-17678396D01*
X76283435Y-17678396D01*
X76283435Y-17678403D01*
X76303630Y-17857649D01*
X76303631Y-17857654D01*
X76363211Y-18027923D01*
X76411304Y-18104462D01*
X76459184Y-18180662D01*
X76586738Y-18308216D01*
X76618205Y-18327988D01*
X76699052Y-18378788D01*
X76739478Y-18404189D01*
X76860333Y-18446478D01*
X76909745Y-18463768D01*
X76909750Y-18463769D01*
X77088996Y-18483965D01*
X77089000Y-18483965D01*
X77089004Y-18483965D01*
X77268249Y-18463769D01*
X77268252Y-18463768D01*
X77268255Y-18463768D01*
X77438522Y-18404189D01*
X77591262Y-18308216D01*
X77718816Y-18180662D01*
X77814789Y-18027922D01*
X77874368Y-17857655D01*
X77874369Y-17857649D01*
X77894565Y-17678403D01*
X77894565Y-17678396D01*
X77874369Y-17499150D01*
X77874368Y-17499145D01*
X77853581Y-17439739D01*
X77814789Y-17328878D01*
X77718816Y-17176138D01*
X77591262Y-17048584D01*
X77550838Y-17023184D01*
X77438523Y-16952611D01*
X77268254Y-16893031D01*
X77268249Y-16893030D01*
X77089004Y-16872835D01*
X77088996Y-16872835D01*
X76909750Y-16893030D01*
X76909745Y-16893031D01*
X76739476Y-16952611D01*
X76586737Y-17048584D01*
X76459184Y-17176137D01*
X76363211Y-17328876D01*
X76303631Y-17499145D01*
X76303630Y-17499150D01*
X76283435Y-17678396D01*
X73060706Y-17678396D01*
X73069291Y-17602203D01*
X73069291Y-17602196D01*
X73050987Y-17439744D01*
X73050986Y-17439742D01*
X73050986Y-17439739D01*
X72996989Y-17285425D01*
X72910008Y-17146996D01*
X72794404Y-17031392D01*
X72694559Y-16968655D01*
X72655974Y-16944410D01*
X72507491Y-16892454D01*
X72501661Y-16890414D01*
X72501660Y-16890413D01*
X72501655Y-16890412D01*
X72339204Y-16872109D01*
X72339196Y-16872109D01*
X72176744Y-16890412D01*
X72022425Y-16944410D01*
X71883995Y-17031392D01*
X71768392Y-17146995D01*
X71681410Y-17285425D01*
X71627412Y-17439744D01*
X71609109Y-17602196D01*
X67836165Y-17602196D01*
X67815969Y-17422950D01*
X67815968Y-17422945D01*
X67789815Y-17348203D01*
X67756389Y-17252678D01*
X67660416Y-17099938D01*
X67532862Y-16972384D01*
X67526918Y-16968649D01*
X67380119Y-16876409D01*
X67264489Y-16835948D01*
X67207713Y-16795227D01*
X67181966Y-16730274D01*
X67195422Y-16661712D01*
X67217757Y-16631232D01*
X67337472Y-16511518D01*
X67433445Y-16358778D01*
X67469410Y-16255996D01*
X74480035Y-16255996D01*
X74480035Y-16256003D01*
X74500230Y-16435249D01*
X74500231Y-16435254D01*
X74559811Y-16605523D01*
X74628380Y-16714649D01*
X74655784Y-16758262D01*
X74783338Y-16885816D01*
X74873680Y-16942582D01*
X74889641Y-16952611D01*
X74936078Y-16981789D01*
X75054378Y-17023184D01*
X75106345Y-17041368D01*
X75106350Y-17041369D01*
X75285596Y-17061565D01*
X75285600Y-17061565D01*
X75285604Y-17061565D01*
X75464849Y-17041369D01*
X75464852Y-17041368D01*
X75464855Y-17041368D01*
X75635122Y-16981789D01*
X75787862Y-16885816D01*
X75915416Y-16758262D01*
X76011389Y-16605522D01*
X76070968Y-16435255D01*
X76071361Y-16431768D01*
X76091165Y-16256003D01*
X76091165Y-16255996D01*
X76070969Y-16076750D01*
X76070968Y-16076745D01*
X76053700Y-16027396D01*
X76035924Y-15976596D01*
X91371035Y-15976596D01*
X91371035Y-15976603D01*
X91391230Y-16155849D01*
X91391231Y-16155854D01*
X91450811Y-16326123D01*
X91517193Y-16431768D01*
X91546784Y-16478862D01*
X91674338Y-16606416D01*
X91827078Y-16702389D01*
X91972253Y-16753188D01*
X91997345Y-16761968D01*
X91997350Y-16761969D01*
X92176596Y-16782165D01*
X92176600Y-16782165D01*
X92176604Y-16782165D01*
X92355849Y-16761969D01*
X92355852Y-16761968D01*
X92355855Y-16761968D01*
X92526122Y-16702389D01*
X92678862Y-16606416D01*
X92806416Y-16478862D01*
X92902389Y-16326122D01*
X92961968Y-16155855D01*
X92961969Y-16155849D01*
X92982165Y-15976603D01*
X92982165Y-15976596D01*
X92961969Y-15797350D01*
X92961968Y-15797345D01*
X92942170Y-15740765D01*
X92902389Y-15627078D01*
X92902175Y-15626738D01*
X92826935Y-15506994D01*
X92806416Y-15474338D01*
X92678862Y-15346784D01*
X92673842Y-15343630D01*
X92526123Y-15250811D01*
X92355854Y-15191231D01*
X92355849Y-15191230D01*
X92176604Y-15171035D01*
X92176596Y-15171035D01*
X91997350Y-15191230D01*
X91997345Y-15191231D01*
X91827076Y-15250811D01*
X91674337Y-15346784D01*
X91546784Y-15474337D01*
X91450811Y-15627076D01*
X91391231Y-15797345D01*
X91391230Y-15797350D01*
X91371035Y-15976596D01*
X76035924Y-15976596D01*
X76011389Y-15906478D01*
X76010827Y-15905584D01*
X75945007Y-15800832D01*
X75915416Y-15753738D01*
X75787862Y-15626184D01*
X75733322Y-15591914D01*
X75635123Y-15530211D01*
X75464854Y-15470631D01*
X75464849Y-15470630D01*
X75285604Y-15450435D01*
X75285596Y-15450435D01*
X75106350Y-15470630D01*
X75106345Y-15470631D01*
X74936076Y-15530211D01*
X74783337Y-15626184D01*
X74655784Y-15753737D01*
X74559811Y-15906476D01*
X74500231Y-16076745D01*
X74500230Y-16076750D01*
X74480035Y-16255996D01*
X67469410Y-16255996D01*
X67493024Y-16188511D01*
X67493321Y-16185876D01*
X67513221Y-16009259D01*
X67513221Y-16009252D01*
X67493025Y-15830006D01*
X67493024Y-15830001D01*
X67475345Y-15779478D01*
X67433445Y-15659734D01*
X67337472Y-15506994D01*
X67209918Y-15379440D01*
X67158394Y-15347065D01*
X67057179Y-15283467D01*
X66886910Y-15223887D01*
X66886905Y-15223886D01*
X66707660Y-15203691D01*
X66707652Y-15203691D01*
X66528406Y-15223886D01*
X66528401Y-15223887D01*
X66358132Y-15283467D01*
X66205393Y-15379440D01*
X66077840Y-15506993D01*
X65981867Y-15659732D01*
X65922287Y-15830001D01*
X65922286Y-15830006D01*
X65902091Y-16009252D01*
X63607813Y-16009252D01*
X63616189Y-15995922D01*
X63675768Y-15825655D01*
X63678565Y-15800830D01*
X63695965Y-15646403D01*
X63695965Y-15646396D01*
X63675769Y-15467150D01*
X63675768Y-15467145D01*
X63660315Y-15422984D01*
X63616189Y-15296878D01*
X63614492Y-15294178D01*
X63570326Y-15223888D01*
X63520216Y-15144138D01*
X63392662Y-15016584D01*
X63295314Y-14955416D01*
X63263135Y-14935196D01*
X95181035Y-14935196D01*
X95181035Y-14935203D01*
X95201230Y-15114449D01*
X95201231Y-15114454D01*
X95260811Y-15284723D01*
X95305014Y-15355071D01*
X95356784Y-15437462D01*
X95484338Y-15565016D01*
X95527146Y-15591914D01*
X95635080Y-15659734D01*
X95637078Y-15660989D01*
X95757933Y-15703278D01*
X95807345Y-15720568D01*
X95807350Y-15720569D01*
X95986596Y-15740765D01*
X95986600Y-15740765D01*
X95986603Y-15740765D01*
X96028334Y-15736063D01*
X96097156Y-15748117D01*
X96148536Y-15795466D01*
X96166160Y-15863077D01*
X96144434Y-15929483D01*
X96124112Y-15951310D01*
X96124262Y-15951460D01*
X96120076Y-15955645D01*
X96119537Y-15956225D01*
X96119339Y-15956382D01*
X95991784Y-16083937D01*
X95895811Y-16236676D01*
X95836231Y-16406945D01*
X95836230Y-16406950D01*
X95816035Y-16586196D01*
X95816035Y-16586203D01*
X95836230Y-16765449D01*
X95836231Y-16765454D01*
X95895811Y-16935723D01*
X95959864Y-17037662D01*
X95991784Y-17088462D01*
X96119338Y-17216016D01*
X96177682Y-17252676D01*
X96258529Y-17303476D01*
X96272078Y-17311989D01*
X96360748Y-17343016D01*
X96442345Y-17371568D01*
X96442350Y-17371569D01*
X96621596Y-17391765D01*
X96621600Y-17391765D01*
X96621604Y-17391765D01*
X96800849Y-17371569D01*
X96800852Y-17371568D01*
X96800855Y-17371568D01*
X96971122Y-17311989D01*
X97123862Y-17216016D01*
X97251416Y-17088462D01*
X97347389Y-16935722D01*
X97406968Y-16765455D01*
X97407716Y-16758815D01*
X97427165Y-16586203D01*
X97427165Y-16586196D01*
X97406969Y-16406950D01*
X97406968Y-16406945D01*
X97391828Y-16363678D01*
X97347389Y-16236678D01*
X97344480Y-16232049D01*
X97251415Y-16083937D01*
X97194874Y-16027396D01*
X99219635Y-16027396D01*
X99219635Y-16027403D01*
X99239830Y-16206649D01*
X99239831Y-16206654D01*
X99299411Y-16376923D01*
X99363251Y-16478523D01*
X99395384Y-16529662D01*
X99522938Y-16657216D01*
X99675678Y-16753189D01*
X99795816Y-16795227D01*
X99845945Y-16812768D01*
X99845950Y-16812769D01*
X100025196Y-16832965D01*
X100025200Y-16832965D01*
X100025204Y-16832965D01*
X100204449Y-16812769D01*
X100204452Y-16812768D01*
X100204455Y-16812768D01*
X100271248Y-16789396D01*
X105849035Y-16789396D01*
X105849035Y-16789403D01*
X105869230Y-16968649D01*
X105869231Y-16968654D01*
X105928811Y-17138923D01*
X106020865Y-17285425D01*
X106024784Y-17291662D01*
X106152338Y-17419216D01*
X106305078Y-17515189D01*
X106475345Y-17574768D01*
X106475350Y-17574769D01*
X106654596Y-17594965D01*
X106654600Y-17594965D01*
X106654604Y-17594965D01*
X106833849Y-17574769D01*
X106833852Y-17574768D01*
X106833855Y-17574768D01*
X107004122Y-17515189D01*
X107156862Y-17419216D01*
X107227882Y-17348196D01*
X119057035Y-17348196D01*
X119057035Y-17348203D01*
X119077230Y-17527449D01*
X119077231Y-17527454D01*
X119136811Y-17697723D01*
X119179343Y-17765411D01*
X119232784Y-17850462D01*
X119360338Y-17978016D01*
X119513078Y-18073989D01*
X119600165Y-18104462D01*
X119683345Y-18133568D01*
X119683350Y-18133569D01*
X119862596Y-18153765D01*
X119862600Y-18153765D01*
X119862604Y-18153765D01*
X120041849Y-18133569D01*
X120041852Y-18133568D01*
X120041855Y-18133568D01*
X120212122Y-18073989D01*
X120364862Y-17978016D01*
X120492416Y-17850462D01*
X120588389Y-17697722D01*
X120647968Y-17527455D01*
X120649350Y-17515188D01*
X120668165Y-17348203D01*
X120668165Y-17348196D01*
X120647969Y-17168950D01*
X120647968Y-17168945D01*
X120588388Y-16998676D01*
X120522007Y-16893032D01*
X120492416Y-16845938D01*
X120364862Y-16718384D01*
X120358918Y-16714649D01*
X120212123Y-16622411D01*
X120041854Y-16562831D01*
X120041849Y-16562830D01*
X119862604Y-16542635D01*
X119862596Y-16542635D01*
X119683350Y-16562830D01*
X119683345Y-16562831D01*
X119513076Y-16622411D01*
X119360337Y-16718384D01*
X119232784Y-16845937D01*
X119136811Y-16998676D01*
X119077231Y-17168945D01*
X119077230Y-17168950D01*
X119057035Y-17348196D01*
X107227882Y-17348196D01*
X107284416Y-17291662D01*
X107380389Y-17138922D01*
X107439968Y-16968655D01*
X107448554Y-16892454D01*
X107460165Y-16789403D01*
X107460165Y-16789396D01*
X107439969Y-16610150D01*
X107439968Y-16610145D01*
X107413815Y-16535403D01*
X107380389Y-16439878D01*
X107377480Y-16435249D01*
X107337857Y-16372189D01*
X107284416Y-16287138D01*
X107156862Y-16159584D01*
X107056250Y-16096365D01*
X107004123Y-16063611D01*
X106973216Y-16052796D01*
X109557435Y-16052796D01*
X109557435Y-16052803D01*
X109577630Y-16232049D01*
X109577631Y-16232054D01*
X109637211Y-16402323D01*
X109720831Y-16535403D01*
X109733184Y-16555062D01*
X109860738Y-16682616D01*
X109936585Y-16730274D01*
X109973052Y-16753188D01*
X110013478Y-16778589D01*
X110168876Y-16832965D01*
X110183745Y-16838168D01*
X110183750Y-16838169D01*
X110362996Y-16858365D01*
X110363000Y-16858365D01*
X110363004Y-16858365D01*
X110542249Y-16838169D01*
X110542252Y-16838168D01*
X110542255Y-16838168D01*
X110712522Y-16778589D01*
X110865262Y-16682616D01*
X110992816Y-16555062D01*
X111005173Y-16535396D01*
X112783235Y-16535396D01*
X112783235Y-16535403D01*
X112803430Y-16714649D01*
X112803431Y-16714654D01*
X112863011Y-16884923D01*
X112934487Y-16998676D01*
X112958984Y-17037662D01*
X113086538Y-17165216D01*
X113166504Y-17215462D01*
X113225729Y-17252676D01*
X113239278Y-17261189D01*
X113360133Y-17303478D01*
X113409545Y-17320768D01*
X113409550Y-17320769D01*
X113588796Y-17340965D01*
X113588800Y-17340965D01*
X113588804Y-17340965D01*
X113768049Y-17320769D01*
X113768052Y-17320768D01*
X113768055Y-17320768D01*
X113938322Y-17261189D01*
X114091062Y-17165216D01*
X114218616Y-17037662D01*
X114314589Y-16884922D01*
X114374168Y-16714655D01*
X114374332Y-16713200D01*
X114394365Y-16535403D01*
X114394365Y-16535396D01*
X114374169Y-16356150D01*
X114374168Y-16356145D01*
X114363662Y-16326122D01*
X114314589Y-16185878D01*
X114298067Y-16159584D01*
X114245654Y-16076169D01*
X114218616Y-16033138D01*
X114091062Y-15905584D01*
X113938323Y-15809611D01*
X113768054Y-15750031D01*
X113768049Y-15750030D01*
X113588804Y-15729835D01*
X113588796Y-15729835D01*
X113409550Y-15750030D01*
X113409545Y-15750031D01*
X113239276Y-15809611D01*
X113086537Y-15905584D01*
X112958984Y-16033137D01*
X112863011Y-16185876D01*
X112803431Y-16356145D01*
X112803430Y-16356150D01*
X112783235Y-16535396D01*
X111005173Y-16535396D01*
X111088789Y-16402322D01*
X111148368Y-16232055D01*
X111148369Y-16232049D01*
X111168565Y-16052803D01*
X111168565Y-16052796D01*
X111148369Y-15873550D01*
X111148368Y-15873545D01*
X111133131Y-15830001D01*
X111088789Y-15703278D01*
X111061428Y-15659734D01*
X111005007Y-15569940D01*
X110992816Y-15550538D01*
X110865262Y-15422984D01*
X110712523Y-15327011D01*
X110542254Y-15267431D01*
X110542249Y-15267430D01*
X110363004Y-15247235D01*
X110362996Y-15247235D01*
X110183750Y-15267430D01*
X110183745Y-15267431D01*
X110013476Y-15327011D01*
X109860737Y-15422984D01*
X109733184Y-15550537D01*
X109637211Y-15703276D01*
X109577631Y-15873545D01*
X109577630Y-15873550D01*
X109557435Y-16052796D01*
X106973216Y-16052796D01*
X106833854Y-16004031D01*
X106833849Y-16004030D01*
X106654604Y-15983835D01*
X106654596Y-15983835D01*
X106475350Y-16004030D01*
X106475345Y-16004031D01*
X106305076Y-16063611D01*
X106152337Y-16159584D01*
X106024784Y-16287137D01*
X105928811Y-16439876D01*
X105869231Y-16610145D01*
X105869230Y-16610150D01*
X105849035Y-16789396D01*
X100271248Y-16789396D01*
X100374722Y-16753189D01*
X100527462Y-16657216D01*
X100655016Y-16529662D01*
X100750989Y-16376922D01*
X100810568Y-16206655D01*
X100810569Y-16206649D01*
X100830765Y-16027403D01*
X100830765Y-16027396D01*
X100810569Y-15848150D01*
X100810568Y-15848145D01*
X100791294Y-15793062D01*
X100750989Y-15677878D01*
X100739588Y-15659734D01*
X100683167Y-15569940D01*
X100655016Y-15525138D01*
X100615964Y-15486086D01*
X100582479Y-15424763D01*
X100587463Y-15355071D01*
X100629335Y-15299138D01*
X100694799Y-15274721D01*
X100744600Y-15281364D01*
X100874637Y-15326866D01*
X100874643Y-15326867D01*
X100874645Y-15326868D01*
X100874646Y-15326868D01*
X100874650Y-15326869D01*
X101053896Y-15347065D01*
X101053900Y-15347065D01*
X101053904Y-15347065D01*
X101233149Y-15326869D01*
X101233152Y-15326868D01*
X101233155Y-15326868D01*
X101403422Y-15267289D01*
X101556162Y-15171316D01*
X101683716Y-15043762D01*
X101779689Y-14891022D01*
X101839268Y-14720755D01*
X101839269Y-14720749D01*
X101859465Y-14541503D01*
X101859465Y-14541496D01*
X101839269Y-14362250D01*
X101839268Y-14362245D01*
X101779688Y-14191976D01*
X101683715Y-14039237D01*
X101556162Y-13911684D01*
X101403423Y-13815711D01*
X101233154Y-13756131D01*
X101233149Y-13756130D01*
X101053904Y-13735935D01*
X101053896Y-13735935D01*
X100874650Y-13756130D01*
X100874645Y-13756131D01*
X100704376Y-13815711D01*
X100551637Y-13911684D01*
X100424084Y-14039237D01*
X100328111Y-14191976D01*
X100268531Y-14362245D01*
X100268530Y-14362250D01*
X100248335Y-14541496D01*
X100248335Y-14541503D01*
X100268530Y-14720749D01*
X100268531Y-14720754D01*
X100328111Y-14891023D01*
X100424084Y-15043762D01*
X100463135Y-15082813D01*
X100496620Y-15144136D01*
X100491636Y-15213828D01*
X100449764Y-15269761D01*
X100384300Y-15294178D01*
X100334500Y-15287536D01*
X100204457Y-15242032D01*
X100204449Y-15242030D01*
X100025204Y-15221835D01*
X100025196Y-15221835D01*
X99845950Y-15242030D01*
X99845945Y-15242031D01*
X99675676Y-15301611D01*
X99522937Y-15397584D01*
X99395384Y-15525137D01*
X99299411Y-15677876D01*
X99239831Y-15848145D01*
X99239830Y-15848150D01*
X99219635Y-16027396D01*
X97194874Y-16027396D01*
X97123862Y-15956384D01*
X96971123Y-15860411D01*
X96800854Y-15800831D01*
X96800849Y-15800830D01*
X96621604Y-15780635D01*
X96621602Y-15780635D01*
X96621600Y-15780635D01*
X96611431Y-15781780D01*
X96579862Y-15785337D01*
X96511040Y-15773280D01*
X96459662Y-15725930D01*
X96442039Y-15658319D01*
X96463767Y-15591914D01*
X96484088Y-15570090D01*
X96483938Y-15569940D01*
X96488152Y-15565725D01*
X96488680Y-15565159D01*
X96488844Y-15565026D01*
X96488862Y-15565016D01*
X96616416Y-15437462D01*
X96712389Y-15284722D01*
X96771968Y-15114455D01*
X96771969Y-15114449D01*
X96792165Y-14935203D01*
X96792165Y-14935196D01*
X96771969Y-14755950D01*
X96771968Y-14755945D01*
X96712388Y-14585676D01*
X96669857Y-14517989D01*
X96616416Y-14432938D01*
X96488862Y-14305384D01*
X96471480Y-14294462D01*
X96336123Y-14209411D01*
X96165854Y-14149831D01*
X96165849Y-14149830D01*
X95986604Y-14129635D01*
X95986596Y-14129635D01*
X95807350Y-14149830D01*
X95807345Y-14149831D01*
X95637076Y-14209411D01*
X95484337Y-14305384D01*
X95356784Y-14432937D01*
X95260811Y-14585676D01*
X95201231Y-14755945D01*
X95201230Y-14755950D01*
X95181035Y-14935196D01*
X63263135Y-14935196D01*
X63239923Y-14920611D01*
X63069654Y-14861031D01*
X63069649Y-14861030D01*
X62890404Y-14840835D01*
X62890396Y-14840835D01*
X62711150Y-14861030D01*
X62711145Y-14861031D01*
X62540876Y-14920611D01*
X62388137Y-15016584D01*
X62321909Y-15082813D01*
X62260584Y-15144138D01*
X62230993Y-15191232D01*
X62164611Y-15296876D01*
X62105031Y-15467145D01*
X62105030Y-15467150D01*
X62084835Y-15646396D01*
X60205168Y-15646396D01*
X60192816Y-15626738D01*
X60065262Y-15499184D01*
X60025720Y-15474338D01*
X59912523Y-15403211D01*
X59742254Y-15343631D01*
X59742249Y-15343630D01*
X59563004Y-15323435D01*
X59562996Y-15323435D01*
X59383750Y-15343630D01*
X59383745Y-15343631D01*
X59213476Y-15403211D01*
X59060737Y-15499184D01*
X58933184Y-15626737D01*
X58837211Y-15779476D01*
X58777631Y-15949745D01*
X58777630Y-15949750D01*
X58757435Y-16128996D01*
X30316674Y-16128996D01*
X30271062Y-16083384D01*
X30259578Y-16076168D01*
X30118323Y-15987411D01*
X29948054Y-15927831D01*
X29948049Y-15927830D01*
X29768804Y-15907635D01*
X29768796Y-15907635D01*
X29589550Y-15927830D01*
X29589545Y-15927831D01*
X29419276Y-15987411D01*
X29266537Y-16083384D01*
X29138984Y-16210937D01*
X29043011Y-16363676D01*
X28983431Y-16533945D01*
X28983430Y-16533950D01*
X28963235Y-16713196D01*
X437500Y-16713196D01*
X437500Y-15290796D01*
X45117635Y-15290796D01*
X45117635Y-15290803D01*
X45137830Y-15470049D01*
X45137831Y-15470054D01*
X45197411Y-15640323D01*
X45265143Y-15748117D01*
X45293384Y-15793062D01*
X45420938Y-15920616D01*
X45510030Y-15976596D01*
X45562007Y-16009256D01*
X45573678Y-16016589D01*
X45677152Y-16052796D01*
X45743945Y-16076168D01*
X45743950Y-16076169D01*
X45923196Y-16096365D01*
X45923200Y-16096365D01*
X45923204Y-16096365D01*
X46102449Y-16076169D01*
X46102452Y-16076168D01*
X46102455Y-16076168D01*
X46272722Y-16016589D01*
X46425462Y-15920616D01*
X46553016Y-15793062D01*
X46648989Y-15640322D01*
X46708568Y-15470055D01*
X46708569Y-15470049D01*
X46728765Y-15290803D01*
X46728765Y-15290796D01*
X46708569Y-15111550D01*
X46708568Y-15111545D01*
X46698514Y-15082813D01*
X46648989Y-14941278D01*
X46645167Y-14935196D01*
X46553015Y-14788537D01*
X46425462Y-14660984D01*
X46272723Y-14565011D01*
X46102454Y-14505431D01*
X46102449Y-14505430D01*
X45923204Y-14485235D01*
X45923196Y-14485235D01*
X45743950Y-14505430D01*
X45743945Y-14505431D01*
X45573676Y-14565011D01*
X45420937Y-14660984D01*
X45293384Y-14788537D01*
X45197411Y-14941276D01*
X45137831Y-15111545D01*
X45137830Y-15111550D01*
X45117635Y-15290796D01*
X437500Y-15290796D01*
X437500Y-13690596D01*
X53550435Y-13690596D01*
X53550435Y-13690603D01*
X53570630Y-13869849D01*
X53570631Y-13869854D01*
X53630211Y-14040123D01*
X53699145Y-14149830D01*
X53726184Y-14192862D01*
X53853738Y-14320416D01*
X54006478Y-14416389D01*
X54176745Y-14475968D01*
X54176750Y-14475969D01*
X54355996Y-14496165D01*
X54356000Y-14496165D01*
X54356004Y-14496165D01*
X54535249Y-14475969D01*
X54535252Y-14475968D01*
X54535255Y-14475968D01*
X54705522Y-14416389D01*
X54850018Y-14325596D01*
X60306835Y-14325596D01*
X60306835Y-14325603D01*
X60327030Y-14504849D01*
X60327031Y-14504854D01*
X60386611Y-14675123D01*
X60457874Y-14788537D01*
X60482584Y-14827862D01*
X60610138Y-14955416D01*
X60700480Y-15012182D01*
X60750739Y-15043762D01*
X60762878Y-15051389D01*
X60852683Y-15082813D01*
X60933145Y-15110968D01*
X60933150Y-15110969D01*
X61112396Y-15131165D01*
X61112400Y-15131165D01*
X61112404Y-15131165D01*
X61291649Y-15110969D01*
X61291652Y-15110968D01*
X61291655Y-15110968D01*
X61461922Y-15051389D01*
X61614662Y-14955416D01*
X61742216Y-14827862D01*
X61838189Y-14675122D01*
X61897768Y-14504855D01*
X61917965Y-14325600D01*
X61915687Y-14305384D01*
X61897769Y-14146350D01*
X61897768Y-14146345D01*
X61860599Y-14040122D01*
X61838189Y-13976078D01*
X61835280Y-13971449D01*
X61797728Y-13911684D01*
X61742216Y-13823338D01*
X61711074Y-13792196D01*
X68866635Y-13792196D01*
X68866635Y-13792203D01*
X68886830Y-13971449D01*
X68886831Y-13971454D01*
X68946411Y-14141723D01*
X68977989Y-14191978D01*
X69042384Y-14294462D01*
X69169938Y-14422016D01*
X69255802Y-14475968D01*
X69302693Y-14505432D01*
X69322678Y-14517989D01*
X69457059Y-14565011D01*
X69492945Y-14577568D01*
X69492950Y-14577569D01*
X69672196Y-14597765D01*
X69672200Y-14597765D01*
X69672204Y-14597765D01*
X69851449Y-14577569D01*
X69851452Y-14577568D01*
X69851455Y-14577568D01*
X70021722Y-14517989D01*
X70174462Y-14422016D01*
X70302016Y-14294462D01*
X70397989Y-14141722D01*
X70457568Y-13971455D01*
X70464303Y-13911684D01*
X70477765Y-13792203D01*
X70477765Y-13792196D01*
X70457569Y-13612950D01*
X70457568Y-13612945D01*
X70452972Y-13599811D01*
X70397989Y-13442678D01*
X70302016Y-13289938D01*
X70174462Y-13162384D01*
X70116656Y-13126062D01*
X70021723Y-13066411D01*
X69851454Y-13006831D01*
X69851449Y-13006830D01*
X69672204Y-12986635D01*
X69672196Y-12986635D01*
X69492950Y-13006830D01*
X69492945Y-13006831D01*
X69322676Y-13066411D01*
X69169937Y-13162384D01*
X69042384Y-13289937D01*
X68946411Y-13442676D01*
X68886831Y-13612945D01*
X68886830Y-13612950D01*
X68866635Y-13792196D01*
X61711074Y-13792196D01*
X61614662Y-13695784D01*
X61461923Y-13599811D01*
X61291654Y-13540231D01*
X61291649Y-13540230D01*
X61112404Y-13520035D01*
X61112396Y-13520035D01*
X60933150Y-13540230D01*
X60933145Y-13540231D01*
X60762876Y-13599811D01*
X60610137Y-13695784D01*
X60482584Y-13823337D01*
X60386611Y-13976076D01*
X60327031Y-14146345D01*
X60327030Y-14146350D01*
X60306835Y-14325596D01*
X54850018Y-14325596D01*
X54858262Y-14320416D01*
X54985816Y-14192862D01*
X55081789Y-14040122D01*
X55141368Y-13869855D01*
X55146609Y-13823338D01*
X55161565Y-13690603D01*
X55161565Y-13690596D01*
X55141369Y-13511350D01*
X55141368Y-13511345D01*
X55141166Y-13510768D01*
X55081789Y-13341078D01*
X54985816Y-13188338D01*
X54858262Y-13060784D01*
X54705523Y-12964811D01*
X54535254Y-12905231D01*
X54535249Y-12905230D01*
X54356004Y-12885035D01*
X54355996Y-12885035D01*
X54176750Y-12905230D01*
X54176745Y-12905231D01*
X54006476Y-12964811D01*
X53853737Y-13060784D01*
X53726184Y-13188337D01*
X53630211Y-13341076D01*
X53570631Y-13511345D01*
X53570630Y-13511350D01*
X53550435Y-13690596D01*
X437500Y-13690596D01*
X437500Y-12039596D01*
X18523835Y-12039596D01*
X18523835Y-12039603D01*
X18544030Y-12218849D01*
X18544031Y-12218854D01*
X18603611Y-12389123D01*
X18651220Y-12464891D01*
X18699584Y-12541862D01*
X18827138Y-12669416D01*
X18979878Y-12765389D01*
X19150145Y-12824968D01*
X19150150Y-12824969D01*
X19329396Y-12845165D01*
X19329400Y-12845165D01*
X19329404Y-12845165D01*
X19508649Y-12824969D01*
X19508652Y-12824968D01*
X19508655Y-12824968D01*
X19678922Y-12765389D01*
X19742570Y-12725396D01*
X20962235Y-12725396D01*
X20962235Y-12725403D01*
X20982430Y-12904649D01*
X20982431Y-12904654D01*
X21042011Y-13074923D01*
X21074144Y-13126062D01*
X21137984Y-13227662D01*
X21265538Y-13355216D01*
X21351402Y-13409168D01*
X21404729Y-13442676D01*
X21418278Y-13451189D01*
X21588545Y-13510768D01*
X21588550Y-13510769D01*
X21767796Y-13530965D01*
X21767800Y-13530965D01*
X21767804Y-13530965D01*
X21947049Y-13510769D01*
X21947052Y-13510768D01*
X21947055Y-13510768D01*
X22117322Y-13451189D01*
X22270062Y-13355216D01*
X22397616Y-13227662D01*
X22493589Y-13074922D01*
X22553168Y-12904655D01*
X22559871Y-12845165D01*
X22573365Y-12725403D01*
X22573365Y-12725396D01*
X22561918Y-12623796D01*
X46692435Y-12623796D01*
X46692435Y-12623803D01*
X46712630Y-12803049D01*
X46712631Y-12803054D01*
X46772211Y-12973323D01*
X46836051Y-13074923D01*
X46868184Y-13126062D01*
X46995738Y-13253616D01*
X47053544Y-13289938D01*
X47134929Y-13341076D01*
X47148478Y-13349589D01*
X47318745Y-13409168D01*
X47318750Y-13409169D01*
X47497996Y-13429365D01*
X47498000Y-13429365D01*
X47498004Y-13429365D01*
X47677249Y-13409169D01*
X47677252Y-13409168D01*
X47677255Y-13409168D01*
X47847522Y-13349589D01*
X48000262Y-13253616D01*
X48127816Y-13126062D01*
X48223789Y-12973322D01*
X48283368Y-12803055D01*
X48287612Y-12765388D01*
X48303565Y-12623803D01*
X48303565Y-12623796D01*
X48283369Y-12444550D01*
X48283368Y-12444545D01*
X48223788Y-12274276D01*
X48156499Y-12167187D01*
X48127816Y-12121538D01*
X48000262Y-11993984D01*
X47847523Y-11898011D01*
X47677254Y-11838431D01*
X47677249Y-11838430D01*
X47498004Y-11818235D01*
X47497996Y-11818235D01*
X47318750Y-11838430D01*
X47318745Y-11838431D01*
X47148476Y-11898011D01*
X46995737Y-11993984D01*
X46868184Y-12121537D01*
X46772211Y-12274276D01*
X46712631Y-12444545D01*
X46712630Y-12444550D01*
X46692435Y-12623796D01*
X22561918Y-12623796D01*
X22553169Y-12546150D01*
X22553168Y-12546145D01*
X22517618Y-12444550D01*
X22493589Y-12375878D01*
X22397616Y-12223138D01*
X22270062Y-12095584D01*
X22117323Y-11999611D01*
X21947054Y-11940031D01*
X21947049Y-11940030D01*
X21767804Y-11919835D01*
X21767796Y-11919835D01*
X21588550Y-11940030D01*
X21588545Y-11940031D01*
X21418276Y-11999611D01*
X21265537Y-12095584D01*
X21137984Y-12223137D01*
X21042011Y-12375876D01*
X20982431Y-12546145D01*
X20982430Y-12546150D01*
X20962235Y-12725396D01*
X19742570Y-12725396D01*
X19831662Y-12669416D01*
X19959216Y-12541862D01*
X20055189Y-12389122D01*
X20114768Y-12218855D01*
X20118019Y-12190004D01*
X20134965Y-12039603D01*
X20134965Y-12039596D01*
X20114769Y-11860350D01*
X20114768Y-11860345D01*
X20089122Y-11787054D01*
X20055189Y-11690078D01*
X19959216Y-11537338D01*
X19831662Y-11409784D01*
X19678923Y-11313811D01*
X19508654Y-11254231D01*
X19508649Y-11254230D01*
X19329404Y-11234035D01*
X19329396Y-11234035D01*
X19150150Y-11254230D01*
X19150145Y-11254231D01*
X18979876Y-11313811D01*
X18827137Y-11409784D01*
X18699584Y-11537337D01*
X18603611Y-11690076D01*
X18544031Y-11860345D01*
X18544030Y-11860350D01*
X18523835Y-12039596D01*
X437500Y-12039596D01*
X437500Y-11125196D01*
X98635435Y-11125196D01*
X98635435Y-11125203D01*
X98655630Y-11304449D01*
X98655631Y-11304454D01*
X98715211Y-11474723D01*
X98805151Y-11617861D01*
X98811184Y-11627462D01*
X98938738Y-11755016D01*
X98989718Y-11787049D01*
X99071493Y-11838432D01*
X99091478Y-11850989D01*
X99223699Y-11897255D01*
X99261745Y-11910568D01*
X99261750Y-11910569D01*
X99440996Y-11930765D01*
X99441000Y-11930765D01*
X99441004Y-11930765D01*
X99620249Y-11910569D01*
X99620252Y-11910568D01*
X99620255Y-11910568D01*
X99790522Y-11850989D01*
X99943262Y-11755016D01*
X100070816Y-11627462D01*
X100083173Y-11607796D01*
X111741835Y-11607796D01*
X111741835Y-11607803D01*
X111762030Y-11787049D01*
X111762031Y-11787054D01*
X111821611Y-11957323D01*
X111880834Y-12051575D01*
X111917584Y-12110062D01*
X112045138Y-12237616D01*
X112103482Y-12274276D01*
X112153346Y-12305608D01*
X112197878Y-12333589D01*
X112318733Y-12375878D01*
X112368145Y-12393168D01*
X112368150Y-12393169D01*
X112547396Y-12413365D01*
X112547400Y-12413365D01*
X112547404Y-12413365D01*
X112726649Y-12393169D01*
X112726652Y-12393168D01*
X112726655Y-12393168D01*
X112896922Y-12333589D01*
X113049662Y-12237616D01*
X113177216Y-12110062D01*
X113273189Y-11957322D01*
X113332768Y-11787055D01*
X113336378Y-11755015D01*
X113338656Y-11734796D01*
X117608509Y-11734796D01*
X117608509Y-11734803D01*
X117626812Y-11897255D01*
X117626813Y-11897260D01*
X117626814Y-11897261D01*
X117631470Y-11910568D01*
X117680810Y-12051574D01*
X117680811Y-12051575D01*
X117767792Y-12190004D01*
X117883396Y-12305608D01*
X118021825Y-12392589D01*
X118176139Y-12446586D01*
X118176142Y-12446586D01*
X118176144Y-12446587D01*
X118338596Y-12464891D01*
X118338600Y-12464891D01*
X118338604Y-12464891D01*
X118501055Y-12446587D01*
X118501056Y-12446586D01*
X118501061Y-12446586D01*
X118655375Y-12392589D01*
X118793804Y-12305608D01*
X118909408Y-12190004D01*
X118996389Y-12051575D01*
X119050386Y-11897261D01*
X119054545Y-11860350D01*
X119068691Y-11734803D01*
X119068691Y-11734796D01*
X119050387Y-11572344D01*
X119050386Y-11572342D01*
X119050386Y-11572339D01*
X119009466Y-11455396D01*
X119767509Y-11455396D01*
X119767509Y-11455403D01*
X119785812Y-11617855D01*
X119839810Y-11772174D01*
X119889333Y-11850989D01*
X119926792Y-11910604D01*
X120042396Y-12026208D01*
X120180825Y-12113189D01*
X120335139Y-12167186D01*
X120335142Y-12167186D01*
X120335144Y-12167187D01*
X120497596Y-12185491D01*
X120497600Y-12185491D01*
X120497604Y-12185491D01*
X120660055Y-12167187D01*
X120660056Y-12167186D01*
X120660061Y-12167186D01*
X120814375Y-12113189D01*
X120952804Y-12026208D01*
X121068408Y-11910604D01*
X121155389Y-11772175D01*
X121209386Y-11617861D01*
X121209387Y-11617855D01*
X121227691Y-11455403D01*
X121227691Y-11455396D01*
X121209387Y-11292944D01*
X121209386Y-11292942D01*
X121209386Y-11292939D01*
X121155389Y-11138625D01*
X121068408Y-11000196D01*
X120952804Y-10884592D01*
X120948696Y-10882011D01*
X120814374Y-10797610D01*
X120660055Y-10743612D01*
X120497604Y-10725309D01*
X120497596Y-10725309D01*
X120335144Y-10743612D01*
X120180825Y-10797610D01*
X120042395Y-10884592D01*
X119926792Y-11000195D01*
X119839810Y-11138625D01*
X119785812Y-11292944D01*
X119767509Y-11455396D01*
X119009466Y-11455396D01*
X118996389Y-11418025D01*
X118909408Y-11279596D01*
X118793804Y-11163992D01*
X118732061Y-11125196D01*
X118655374Y-11077010D01*
X118501055Y-11023012D01*
X118338604Y-11004709D01*
X118338596Y-11004709D01*
X118176144Y-11023012D01*
X118021825Y-11077010D01*
X117883395Y-11163992D01*
X117767792Y-11279595D01*
X117680810Y-11418025D01*
X117626812Y-11572344D01*
X117608509Y-11734796D01*
X113338656Y-11734796D01*
X113352965Y-11607803D01*
X113352965Y-11607796D01*
X113332769Y-11428550D01*
X113332768Y-11428545D01*
X113289347Y-11304455D01*
X113273189Y-11258278D01*
X113270645Y-11254230D01*
X113177215Y-11105537D01*
X113049662Y-10977984D01*
X112896923Y-10882011D01*
X112726654Y-10822431D01*
X112726649Y-10822430D01*
X112547404Y-10802235D01*
X112547396Y-10802235D01*
X112368150Y-10822430D01*
X112368145Y-10822431D01*
X112197876Y-10882011D01*
X112045137Y-10977984D01*
X111917584Y-11105537D01*
X111821611Y-11258276D01*
X111762031Y-11428545D01*
X111762030Y-11428550D01*
X111741835Y-11607796D01*
X100083173Y-11607796D01*
X100166789Y-11474722D01*
X100226368Y-11304455D01*
X100232027Y-11254230D01*
X100246565Y-11125203D01*
X100246565Y-11125196D01*
X100226369Y-10945950D01*
X100226368Y-10945945D01*
X100204900Y-10884592D01*
X100166789Y-10775678D01*
X100070816Y-10622938D01*
X99943262Y-10495384D01*
X99790523Y-10399411D01*
X99620254Y-10339831D01*
X99620249Y-10339830D01*
X99441004Y-10319635D01*
X99440996Y-10319635D01*
X99261750Y-10339830D01*
X99261745Y-10339831D01*
X99091476Y-10399411D01*
X98938737Y-10495384D01*
X98811184Y-10622937D01*
X98715211Y-10775676D01*
X98655631Y-10945945D01*
X98655630Y-10945950D01*
X98635435Y-11125196D01*
X437500Y-11125196D01*
X437500Y-9118596D01*
X4045835Y-9118596D01*
X4045835Y-9118603D01*
X4066030Y-9297849D01*
X4066031Y-9297854D01*
X4125611Y-9468123D01*
X4189451Y-9569723D01*
X4221584Y-9620862D01*
X4349138Y-9748416D01*
X4501878Y-9844389D01*
X4568463Y-9867688D01*
X4672145Y-9903968D01*
X4672150Y-9903969D01*
X4851396Y-9924165D01*
X4851400Y-9924165D01*
X4851404Y-9924165D01*
X5030649Y-9903969D01*
X5030652Y-9903968D01*
X5030655Y-9903968D01*
X5200922Y-9844389D01*
X5353662Y-9748416D01*
X5481216Y-9620862D01*
X5577189Y-9468122D01*
X5592839Y-9423396D01*
X14815435Y-9423396D01*
X14815435Y-9423403D01*
X14835630Y-9602649D01*
X14835631Y-9602654D01*
X14895211Y-9772923D01*
X14943652Y-9850016D01*
X14991184Y-9925662D01*
X15118738Y-10053216D01*
X15271478Y-10149189D01*
X15281698Y-10152765D01*
X15441745Y-10208768D01*
X15441750Y-10208769D01*
X15620996Y-10228965D01*
X15621000Y-10228965D01*
X15621004Y-10228965D01*
X15800249Y-10208769D01*
X15800252Y-10208768D01*
X15800255Y-10208768D01*
X15970522Y-10149189D01*
X16123262Y-10053216D01*
X16250816Y-9925662D01*
X16346789Y-9772922D01*
X16406368Y-9602655D01*
X16410827Y-9563084D01*
X16426565Y-9423403D01*
X16426565Y-9423396D01*
X16406369Y-9244150D01*
X16406368Y-9244145D01*
X16389101Y-9194800D01*
X36280140Y-9194800D01*
X36299926Y-9383056D01*
X36299927Y-9383059D01*
X36358418Y-9563077D01*
X36358421Y-9563084D01*
X36453067Y-9727016D01*
X36563318Y-9849462D01*
X36579729Y-9867688D01*
X36732865Y-9978948D01*
X36732870Y-9978951D01*
X36905792Y-10055942D01*
X36905797Y-10055944D01*
X37090954Y-10095300D01*
X37090955Y-10095300D01*
X37280244Y-10095300D01*
X37280246Y-10095300D01*
X37465403Y-10055944D01*
X37638330Y-9978951D01*
X37791471Y-9867688D01*
X37918133Y-9727016D01*
X38012779Y-9563084D01*
X38071274Y-9383056D01*
X38088391Y-9220196D01*
X40723435Y-9220196D01*
X40723435Y-9220203D01*
X40743630Y-9399449D01*
X40743631Y-9399454D01*
X40803211Y-9569723D01*
X40823904Y-9602655D01*
X40899184Y-9722462D01*
X41026738Y-9850016D01*
X41179478Y-9945989D01*
X41273678Y-9978951D01*
X41349745Y-10005568D01*
X41349750Y-10005569D01*
X41528996Y-10025765D01*
X41529000Y-10025765D01*
X41529004Y-10025765D01*
X41708249Y-10005569D01*
X41708252Y-10005568D01*
X41708255Y-10005568D01*
X41878522Y-9945989D01*
X42031262Y-9850016D01*
X42158816Y-9722462D01*
X42254789Y-9569722D01*
X42314368Y-9399455D01*
X42314369Y-9399449D01*
X42320256Y-9347196D01*
X71432035Y-9347196D01*
X71432035Y-9347203D01*
X71452230Y-9526449D01*
X71452231Y-9526454D01*
X71511811Y-9696723D01*
X71559691Y-9772923D01*
X71607784Y-9849462D01*
X71735338Y-9977016D01*
X71888078Y-10072989D01*
X72058345Y-10132568D01*
X72058350Y-10132569D01*
X72237596Y-10152765D01*
X72237600Y-10152765D01*
X72237604Y-10152765D01*
X72416849Y-10132569D01*
X72416852Y-10132568D01*
X72416855Y-10132568D01*
X72587122Y-10072989D01*
X72739862Y-9977016D01*
X72867416Y-9849462D01*
X72963389Y-9696722D01*
X73022968Y-9526455D01*
X73022969Y-9526449D01*
X73043165Y-9347203D01*
X73043165Y-9347196D01*
X73022969Y-9167950D01*
X73022968Y-9167945D01*
X73005700Y-9118596D01*
X77096235Y-9118596D01*
X77096235Y-9118603D01*
X77116430Y-9297849D01*
X77116431Y-9297854D01*
X77176011Y-9468123D01*
X77239851Y-9569723D01*
X77271984Y-9620862D01*
X77399538Y-9748416D01*
X77552278Y-9844389D01*
X77618863Y-9867688D01*
X77722545Y-9903968D01*
X77722550Y-9903969D01*
X77901796Y-9924165D01*
X77901800Y-9924165D01*
X77901804Y-9924165D01*
X78081049Y-9903969D01*
X78081052Y-9903968D01*
X78081055Y-9903968D01*
X78251322Y-9844389D01*
X78404062Y-9748416D01*
X78424282Y-9728196D01*
X80626835Y-9728196D01*
X80626835Y-9728203D01*
X80647030Y-9907449D01*
X80647031Y-9907454D01*
X80706611Y-10077723D01*
X80788953Y-10208768D01*
X80802584Y-10230462D01*
X80930138Y-10358016D01*
X81082878Y-10453989D01*
X81201178Y-10495384D01*
X81253145Y-10513568D01*
X81253150Y-10513569D01*
X81432396Y-10533765D01*
X81432400Y-10533765D01*
X81432404Y-10533765D01*
X81611649Y-10513569D01*
X81611652Y-10513568D01*
X81611655Y-10513568D01*
X81781922Y-10453989D01*
X81934662Y-10358016D01*
X82062216Y-10230462D01*
X82158189Y-10077722D01*
X82217768Y-9907455D01*
X82224240Y-9850015D01*
X82237965Y-9728203D01*
X82237965Y-9728196D01*
X82217769Y-9548950D01*
X82217768Y-9548945D01*
X82173838Y-9423400D01*
X82158189Y-9378678D01*
X82062216Y-9225938D01*
X81934662Y-9098384D01*
X81895658Y-9073876D01*
X81781923Y-9002411D01*
X81611654Y-8942831D01*
X81611649Y-8942830D01*
X81432404Y-8922635D01*
X81432396Y-8922635D01*
X81253150Y-8942830D01*
X81253145Y-8942831D01*
X81082876Y-9002411D01*
X80930137Y-9098384D01*
X80802584Y-9225937D01*
X80706611Y-9378676D01*
X80647031Y-9548945D01*
X80647030Y-9548950D01*
X80626835Y-9728196D01*
X78424282Y-9728196D01*
X78531616Y-9620862D01*
X78627589Y-9468122D01*
X78687168Y-9297855D01*
X78695271Y-9225937D01*
X78707365Y-9118603D01*
X78707365Y-9118596D01*
X78687169Y-8939350D01*
X78687168Y-8939345D01*
X78657536Y-8854663D01*
X78627589Y-8769078D01*
X78621062Y-8758691D01*
X78545247Y-8638032D01*
X78531616Y-8616338D01*
X78404062Y-8488784D01*
X78387531Y-8478397D01*
X78251323Y-8392811D01*
X78081054Y-8333231D01*
X78081049Y-8333230D01*
X77901804Y-8313035D01*
X77901796Y-8313035D01*
X77722550Y-8333230D01*
X77722545Y-8333231D01*
X77552276Y-8392811D01*
X77399537Y-8488784D01*
X77271984Y-8616337D01*
X77176011Y-8769076D01*
X77116431Y-8939345D01*
X77116430Y-8939350D01*
X77096235Y-9118596D01*
X73005700Y-9118596D01*
X72963389Y-8997678D01*
X72867416Y-8844938D01*
X72739862Y-8717384D01*
X72587123Y-8621411D01*
X72416854Y-8561831D01*
X72416849Y-8561830D01*
X72237604Y-8541635D01*
X72237596Y-8541635D01*
X72058350Y-8561830D01*
X72058345Y-8561831D01*
X71888076Y-8621411D01*
X71735337Y-8717384D01*
X71607784Y-8844937D01*
X71511811Y-8997676D01*
X71452231Y-9167945D01*
X71452230Y-9167950D01*
X71432035Y-9347196D01*
X42320256Y-9347196D01*
X42334565Y-9220203D01*
X42334565Y-9220196D01*
X42314369Y-9040950D01*
X42314368Y-9040945D01*
X42299228Y-8997678D01*
X42254789Y-8870678D01*
X42238615Y-8844938D01*
X42158815Y-8717937D01*
X42031262Y-8590384D01*
X41878523Y-8494411D01*
X41708254Y-8434831D01*
X41708249Y-8434830D01*
X41529004Y-8414635D01*
X41528996Y-8414635D01*
X41349750Y-8434830D01*
X41349745Y-8434831D01*
X41179476Y-8494411D01*
X41026737Y-8590384D01*
X40899184Y-8717937D01*
X40803211Y-8870676D01*
X40743631Y-9040945D01*
X40743630Y-9040950D01*
X40723435Y-9220196D01*
X38088391Y-9220196D01*
X38091060Y-9194800D01*
X38071274Y-9006544D01*
X38012779Y-8826516D01*
X37918133Y-8662584D01*
X37791471Y-8521912D01*
X37791470Y-8521911D01*
X37638334Y-8410651D01*
X37638329Y-8410648D01*
X37465407Y-8333657D01*
X37465402Y-8333655D01*
X37319601Y-8302665D01*
X37280246Y-8294300D01*
X37090954Y-8294300D01*
X37058497Y-8301198D01*
X36905797Y-8333655D01*
X36905792Y-8333657D01*
X36732870Y-8410648D01*
X36732865Y-8410651D01*
X36579729Y-8521911D01*
X36453066Y-8662585D01*
X36358421Y-8826515D01*
X36358418Y-8826522D01*
X36301269Y-9002411D01*
X36299926Y-9006544D01*
X36280140Y-9194800D01*
X16389101Y-9194800D01*
X16362438Y-9118600D01*
X16346789Y-9073878D01*
X16250816Y-8921138D01*
X16123262Y-8793584D01*
X16084258Y-8769076D01*
X15970523Y-8697611D01*
X15800254Y-8638031D01*
X15800249Y-8638030D01*
X15621004Y-8617835D01*
X15620996Y-8617835D01*
X15441750Y-8638030D01*
X15441745Y-8638031D01*
X15271476Y-8697611D01*
X15118737Y-8793584D01*
X14991184Y-8921137D01*
X14895211Y-9073876D01*
X14835631Y-9244145D01*
X14835630Y-9244150D01*
X14815435Y-9423396D01*
X5592839Y-9423396D01*
X5636768Y-9297855D01*
X5644871Y-9225937D01*
X5656965Y-9118603D01*
X5656965Y-9118596D01*
X5636769Y-8939350D01*
X5636768Y-8939345D01*
X5607136Y-8854663D01*
X5577189Y-8769078D01*
X5570662Y-8758691D01*
X5494847Y-8638032D01*
X5481216Y-8616338D01*
X5353662Y-8488784D01*
X5337131Y-8478397D01*
X5200923Y-8392811D01*
X5030654Y-8333231D01*
X5030649Y-8333230D01*
X4851404Y-8313035D01*
X4851396Y-8313035D01*
X4672150Y-8333230D01*
X4672145Y-8333231D01*
X4501876Y-8392811D01*
X4349137Y-8488784D01*
X4221584Y-8616337D01*
X4125611Y-8769076D01*
X4066031Y-8939345D01*
X4066030Y-8939350D01*
X4045835Y-9118596D01*
X437500Y-9118596D01*
X437500Y-8969462D01*
X457185Y-8902423D01*
X473819Y-8881781D01*
X1226729Y-8128871D01*
X91423116Y-8128871D01*
X91423116Y-8128878D01*
X91443311Y-8308124D01*
X91443312Y-8308129D01*
X91502892Y-8478398D01*
X91589566Y-8616338D01*
X91598865Y-8631137D01*
X91726419Y-8758691D01*
X91742947Y-8769076D01*
X91863678Y-8844937D01*
X91879159Y-8854664D01*
X92049426Y-8914243D01*
X92049431Y-8914244D01*
X92228677Y-8934440D01*
X92228681Y-8934440D01*
X92228685Y-8934440D01*
X92407930Y-8914244D01*
X92407933Y-8914243D01*
X92407936Y-8914243D01*
X92578203Y-8854664D01*
X92730943Y-8758691D01*
X92858497Y-8631137D01*
X92954470Y-8478397D01*
X93014049Y-8308130D01*
X93014050Y-8308124D01*
X93034246Y-8128878D01*
X93034246Y-8128871D01*
X93014050Y-7949625D01*
X93014049Y-7949620D01*
X92969102Y-7821169D01*
X92954470Y-7779353D01*
X92943307Y-7761588D01*
X92883004Y-7665616D01*
X92858497Y-7626613D01*
X92730943Y-7499059D01*
X92578204Y-7403086D01*
X92407935Y-7343506D01*
X92407930Y-7343505D01*
X92228685Y-7323310D01*
X92228677Y-7323310D01*
X92049431Y-7343505D01*
X92049426Y-7343506D01*
X91879157Y-7403086D01*
X91726418Y-7499059D01*
X91598865Y-7626612D01*
X91502892Y-7779351D01*
X91443312Y-7949620D01*
X91443311Y-7949625D01*
X91423116Y-8128871D01*
X1226729Y-8128871D01*
X2751604Y-6603996D01*
X68333235Y-6603996D01*
X68333235Y-6604003D01*
X68353430Y-6783249D01*
X68353431Y-6783254D01*
X68413011Y-6953523D01*
X68498683Y-7089868D01*
X68508984Y-7106262D01*
X68636538Y-7233816D01*
X68726880Y-7290582D01*
X68778966Y-7323310D01*
X68789278Y-7329789D01*
X68828482Y-7343507D01*
X68959545Y-7389368D01*
X68959550Y-7389369D01*
X69138796Y-7409565D01*
X69138800Y-7409565D01*
X69138804Y-7409565D01*
X69318049Y-7389369D01*
X69318052Y-7389368D01*
X69318055Y-7389368D01*
X69488322Y-7329789D01*
X69641062Y-7233816D01*
X69768616Y-7106262D01*
X69812893Y-7035796D01*
X73387835Y-7035796D01*
X73387835Y-7035803D01*
X73408030Y-7215049D01*
X73408031Y-7215054D01*
X73467611Y-7385323D01*
X73539077Y-7499059D01*
X73563584Y-7538062D01*
X73691138Y-7665616D01*
X73843878Y-7761589D01*
X73894639Y-7779351D01*
X74014145Y-7821168D01*
X74014150Y-7821169D01*
X74193396Y-7841365D01*
X74193400Y-7841365D01*
X74193404Y-7841365D01*
X74372649Y-7821169D01*
X74372652Y-7821168D01*
X74372655Y-7821168D01*
X74542922Y-7761589D01*
X74695662Y-7665616D01*
X74823216Y-7538062D01*
X74919189Y-7385322D01*
X74978768Y-7215055D01*
X74988333Y-7130165D01*
X74998965Y-7035803D01*
X74998965Y-7035796D01*
X74978769Y-6856550D01*
X74978768Y-6856545D01*
X74953122Y-6783254D01*
X74919189Y-6686278D01*
X74911551Y-6674123D01*
X74823215Y-6533537D01*
X74695662Y-6405984D01*
X74566135Y-6324596D01*
X83243035Y-6324596D01*
X83243035Y-6324603D01*
X83263230Y-6503849D01*
X83263231Y-6503854D01*
X83322811Y-6674123D01*
X83330449Y-6686278D01*
X83418784Y-6826862D01*
X83546338Y-6954416D01*
X83636680Y-7011182D01*
X83675864Y-7035803D01*
X83699078Y-7050389D01*
X83858754Y-7106262D01*
X83869345Y-7109968D01*
X83869350Y-7109969D01*
X84048596Y-7130165D01*
X84048600Y-7130165D01*
X84048604Y-7130165D01*
X84227849Y-7109969D01*
X84227852Y-7109968D01*
X84227855Y-7109968D01*
X84398122Y-7050389D01*
X84550862Y-6954416D01*
X84678416Y-6826862D01*
X84774389Y-6674122D01*
X84833968Y-6503855D01*
X84836233Y-6483754D01*
X84854165Y-6324603D01*
X84854165Y-6324596D01*
X93149035Y-6324596D01*
X93149035Y-6324603D01*
X93169230Y-6503849D01*
X93169231Y-6503854D01*
X93228811Y-6674123D01*
X93236449Y-6686278D01*
X93324784Y-6826862D01*
X93452338Y-6954416D01*
X93542680Y-7011182D01*
X93581864Y-7035803D01*
X93605078Y-7050389D01*
X93764754Y-7106262D01*
X93775345Y-7109968D01*
X93775350Y-7109969D01*
X93954596Y-7130165D01*
X93954600Y-7130165D01*
X93954604Y-7130165D01*
X94133849Y-7109969D01*
X94133852Y-7109968D01*
X94133855Y-7109968D01*
X94304122Y-7050389D01*
X94456862Y-6954416D01*
X94584416Y-6826862D01*
X94680389Y-6674122D01*
X94739968Y-6503855D01*
X94742233Y-6483754D01*
X94760165Y-6324603D01*
X94760165Y-6324596D01*
X94757900Y-6304496D01*
X118518335Y-6304496D01*
X118518335Y-6304503D01*
X118538530Y-6483749D01*
X118538531Y-6483754D01*
X118598111Y-6654023D01*
X118694084Y-6806762D01*
X118821638Y-6934316D01*
X118974378Y-7030289D01*
X119144645Y-7089868D01*
X119144650Y-7089869D01*
X119323896Y-7110065D01*
X119323900Y-7110065D01*
X119323904Y-7110065D01*
X119503149Y-7089869D01*
X119503152Y-7089868D01*
X119503155Y-7089868D01*
X119673422Y-7030289D01*
X119826162Y-6934316D01*
X119953716Y-6806762D01*
X120049689Y-6654022D01*
X120109268Y-6483755D01*
X120109269Y-6483749D01*
X120129465Y-6304503D01*
X120129465Y-6304496D01*
X120109269Y-6125250D01*
X120109268Y-6125245D01*
X120056722Y-5975078D01*
X120049689Y-5954978D01*
X119953716Y-5802238D01*
X119826162Y-5674684D01*
X119673423Y-5578711D01*
X119503154Y-5519131D01*
X119503149Y-5519130D01*
X119323904Y-5498935D01*
X119323896Y-5498935D01*
X119144650Y-5519130D01*
X119144645Y-5519131D01*
X118974376Y-5578711D01*
X118821637Y-5674684D01*
X118694084Y-5802237D01*
X118598111Y-5954976D01*
X118538531Y-6125245D01*
X118538530Y-6125250D01*
X118518335Y-6304496D01*
X94757900Y-6304496D01*
X94739969Y-6145350D01*
X94739968Y-6145345D01*
X94680388Y-5975076D01*
X94584415Y-5822337D01*
X94456862Y-5694784D01*
X94304123Y-5598811D01*
X94133854Y-5539231D01*
X94133849Y-5539230D01*
X93954604Y-5519035D01*
X93954596Y-5519035D01*
X93775350Y-5539230D01*
X93775345Y-5539231D01*
X93605076Y-5598811D01*
X93452337Y-5694784D01*
X93324784Y-5822337D01*
X93228811Y-5975076D01*
X93169231Y-6145345D01*
X93169230Y-6145350D01*
X93149035Y-6324596D01*
X84854165Y-6324596D01*
X84833969Y-6145350D01*
X84833968Y-6145345D01*
X84774388Y-5975076D01*
X84678415Y-5822337D01*
X84550862Y-5694784D01*
X84398123Y-5598811D01*
X84227854Y-5539231D01*
X84227849Y-5539230D01*
X84048604Y-5519035D01*
X84048596Y-5519035D01*
X83869350Y-5539230D01*
X83869345Y-5539231D01*
X83699076Y-5598811D01*
X83546337Y-5694784D01*
X83418784Y-5822337D01*
X83322811Y-5975076D01*
X83263231Y-6145345D01*
X83263230Y-6145350D01*
X83243035Y-6324596D01*
X74566135Y-6324596D01*
X74542923Y-6310011D01*
X74372654Y-6250431D01*
X74372649Y-6250430D01*
X74193404Y-6230235D01*
X74193396Y-6230235D01*
X74014150Y-6250430D01*
X74014145Y-6250431D01*
X73843876Y-6310011D01*
X73691137Y-6405984D01*
X73563584Y-6533537D01*
X73467611Y-6686276D01*
X73408031Y-6856545D01*
X73408030Y-6856550D01*
X73387835Y-7035796D01*
X69812893Y-7035796D01*
X69864589Y-6953522D01*
X69924168Y-6783255D01*
X69936464Y-6674123D01*
X69944365Y-6604003D01*
X69944365Y-6603996D01*
X69924169Y-6424750D01*
X69924168Y-6424745D01*
X69884021Y-6310011D01*
X69864589Y-6254478D01*
X69862045Y-6250430D01*
X69796016Y-6145345D01*
X69768616Y-6101738D01*
X69641062Y-5974184D01*
X69610493Y-5954976D01*
X69488323Y-5878211D01*
X69318054Y-5818631D01*
X69318049Y-5818630D01*
X69138804Y-5798435D01*
X69138796Y-5798435D01*
X68959550Y-5818630D01*
X68959545Y-5818631D01*
X68789276Y-5878211D01*
X68636537Y-5974184D01*
X68508984Y-6101737D01*
X68413011Y-6254476D01*
X68353431Y-6424745D01*
X68353430Y-6424750D01*
X68333235Y-6603996D01*
X2751604Y-6603996D01*
X5596404Y-3759196D01*
X23502235Y-3759196D01*
X23502235Y-3759203D01*
X23522430Y-3938449D01*
X23522431Y-3938454D01*
X23582011Y-4108723D01*
X23677984Y-4261462D01*
X23805538Y-4389016D01*
X23895880Y-4445782D01*
X23925386Y-4464322D01*
X23958278Y-4484989D01*
X24128545Y-4544568D01*
X24128550Y-4544569D01*
X24307796Y-4564765D01*
X24307800Y-4564765D01*
X24307804Y-4564765D01*
X24487049Y-4544569D01*
X24487052Y-4544568D01*
X24487055Y-4544568D01*
X24657322Y-4484989D01*
X24810062Y-4389016D01*
X24937616Y-4261462D01*
X25029772Y-4114796D01*
X78467835Y-4114796D01*
X78467835Y-4114803D01*
X78488030Y-4294049D01*
X78488031Y-4294054D01*
X78547611Y-4464323D01*
X78643584Y-4617062D01*
X78771138Y-4744616D01*
X78923878Y-4840589D01*
X79094145Y-4900168D01*
X79094150Y-4900169D01*
X79273396Y-4920365D01*
X79273400Y-4920365D01*
X79273404Y-4920365D01*
X79452649Y-4900169D01*
X79452652Y-4900168D01*
X79452655Y-4900168D01*
X79622922Y-4840589D01*
X79775662Y-4744616D01*
X79903216Y-4617062D01*
X79999189Y-4464322D01*
X80058768Y-4294055D01*
X80058769Y-4294049D01*
X80078965Y-4114803D01*
X80078965Y-4114796D01*
X80058769Y-3935550D01*
X80058768Y-3935545D01*
X80001264Y-3771208D01*
X79999189Y-3765278D01*
X79995367Y-3759196D01*
X79903215Y-3612537D01*
X79775662Y-3484984D01*
X79622923Y-3389011D01*
X79452654Y-3329431D01*
X79452649Y-3329430D01*
X79273404Y-3309235D01*
X79273396Y-3309235D01*
X79094150Y-3329430D01*
X79094145Y-3329431D01*
X78923876Y-3389011D01*
X78771137Y-3484984D01*
X78643584Y-3612537D01*
X78547611Y-3765276D01*
X78488031Y-3935545D01*
X78488030Y-3935550D01*
X78467835Y-4114796D01*
X25029772Y-4114796D01*
X25033589Y-4108722D01*
X25093168Y-3938455D01*
X25093169Y-3938449D01*
X25113365Y-3759203D01*
X25113365Y-3759196D01*
X25093169Y-3579950D01*
X25093168Y-3579945D01*
X25033588Y-3409676D01*
X24937615Y-3256937D01*
X24881074Y-3200396D01*
X58985309Y-3200396D01*
X58985309Y-3200403D01*
X59003612Y-3362855D01*
X59057610Y-3517174D01*
X59057611Y-3517175D01*
X59144592Y-3655604D01*
X59260196Y-3771208D01*
X59398625Y-3858189D01*
X59552939Y-3912186D01*
X59552942Y-3912186D01*
X59552944Y-3912187D01*
X59715396Y-3930491D01*
X59715400Y-3930491D01*
X59715404Y-3930491D01*
X59877855Y-3912187D01*
X59877856Y-3912186D01*
X59877861Y-3912186D01*
X60032175Y-3858189D01*
X60170604Y-3771208D01*
X60286208Y-3655604D01*
X60373189Y-3517175D01*
X60427186Y-3362861D01*
X60430953Y-3329430D01*
X60445491Y-3200403D01*
X60445491Y-3200396D01*
X60712509Y-3200396D01*
X60712509Y-3200403D01*
X60730812Y-3362855D01*
X60784810Y-3517174D01*
X60784811Y-3517175D01*
X60871792Y-3655604D01*
X60987396Y-3771208D01*
X61125825Y-3858189D01*
X61280139Y-3912186D01*
X61280142Y-3912186D01*
X61280144Y-3912187D01*
X61442596Y-3930491D01*
X61442600Y-3930491D01*
X61442604Y-3930491D01*
X61605055Y-3912187D01*
X61605056Y-3912186D01*
X61605061Y-3912186D01*
X61759375Y-3858189D01*
X61897804Y-3771208D01*
X62013408Y-3655604D01*
X62100389Y-3517175D01*
X62154386Y-3362861D01*
X62158153Y-3329430D01*
X62172691Y-3200403D01*
X62172691Y-3200396D01*
X62154387Y-3037944D01*
X62154386Y-3037942D01*
X62154386Y-3037939D01*
X62100389Y-2883625D01*
X62013408Y-2745196D01*
X61897804Y-2629592D01*
X61868239Y-2611015D01*
X61759374Y-2542610D01*
X61605055Y-2488612D01*
X61442604Y-2470309D01*
X61442596Y-2470309D01*
X61280144Y-2488612D01*
X61125825Y-2542610D01*
X60987395Y-2629592D01*
X60871792Y-2745195D01*
X60784810Y-2883625D01*
X60730812Y-3037944D01*
X60712509Y-3200396D01*
X60445491Y-3200396D01*
X60427187Y-3037944D01*
X60427186Y-3037942D01*
X60427186Y-3037939D01*
X60373189Y-2883625D01*
X60286208Y-2745196D01*
X60170604Y-2629592D01*
X60141039Y-2611015D01*
X60032174Y-2542610D01*
X59877855Y-2488612D01*
X59715404Y-2470309D01*
X59715396Y-2470309D01*
X59552944Y-2488612D01*
X59398625Y-2542610D01*
X59260195Y-2629592D01*
X59144592Y-2745195D01*
X59057610Y-2883625D01*
X59003612Y-3037944D01*
X58985309Y-3200396D01*
X24881074Y-3200396D01*
X24810062Y-3129384D01*
X24657323Y-3033411D01*
X24487054Y-2973831D01*
X24487049Y-2973830D01*
X24307804Y-2953635D01*
X24307796Y-2953635D01*
X24128550Y-2973830D01*
X24128545Y-2973831D01*
X23958276Y-3033411D01*
X23805537Y-3129384D01*
X23677984Y-3256937D01*
X23582011Y-3409676D01*
X23522431Y-3579945D01*
X23522430Y-3579950D01*
X23502235Y-3759196D01*
X5596404Y-3759196D01*
X7018804Y-2336796D01*
X50426235Y-2336796D01*
X50426235Y-2336803D01*
X50446430Y-2516049D01*
X50446431Y-2516054D01*
X50506011Y-2686323D01*
X50601984Y-2839062D01*
X50729538Y-2966616D01*
X50819880Y-3023382D01*
X50835841Y-3033411D01*
X50882278Y-3062589D01*
X51052545Y-3122168D01*
X51052550Y-3122169D01*
X51231796Y-3142365D01*
X51231800Y-3142365D01*
X51231804Y-3142365D01*
X51411049Y-3122169D01*
X51411052Y-3122168D01*
X51411055Y-3122168D01*
X51581322Y-3062589D01*
X51734062Y-2966616D01*
X51861616Y-2839062D01*
X51957589Y-2686322D01*
X52017168Y-2516055D01*
X52020260Y-2488612D01*
X52037365Y-2336803D01*
X52037365Y-2336796D01*
X52017169Y-2157550D01*
X52017168Y-2157545D01*
X51957588Y-1987276D01*
X51953768Y-1981196D01*
X53829835Y-1981196D01*
X53829835Y-1981203D01*
X53850030Y-2160449D01*
X53850031Y-2160454D01*
X53909611Y-2330723D01*
X53997319Y-2470309D01*
X54005584Y-2483462D01*
X54133138Y-2611016D01*
X54162702Y-2629592D01*
X54252986Y-2686322D01*
X54285878Y-2706989D01*
X54456145Y-2766568D01*
X54456150Y-2766569D01*
X54635396Y-2786765D01*
X54635400Y-2786765D01*
X54635404Y-2786765D01*
X54814649Y-2766569D01*
X54814652Y-2766568D01*
X54814655Y-2766568D01*
X54984922Y-2706989D01*
X55137662Y-2611016D01*
X55265216Y-2483462D01*
X55361189Y-2330722D01*
X55420768Y-2160455D01*
X55420769Y-2160449D01*
X55440965Y-1981203D01*
X55440965Y-1981196D01*
X55420769Y-1801950D01*
X55420768Y-1801945D01*
X55361188Y-1631676D01*
X55265215Y-1478937D01*
X55137662Y-1351384D01*
X54984923Y-1255411D01*
X54814654Y-1195831D01*
X54814649Y-1195830D01*
X54635404Y-1175635D01*
X54635396Y-1175635D01*
X54456150Y-1195830D01*
X54456145Y-1195831D01*
X54285876Y-1255411D01*
X54133137Y-1351384D01*
X54005584Y-1478937D01*
X53909611Y-1631676D01*
X53850031Y-1801945D01*
X53850030Y-1801950D01*
X53829835Y-1981196D01*
X51953768Y-1981196D01*
X51861615Y-1834537D01*
X51734062Y-1706984D01*
X51581323Y-1611011D01*
X51411054Y-1551431D01*
X51411049Y-1551430D01*
X51231804Y-1531235D01*
X51231796Y-1531235D01*
X51052550Y-1551430D01*
X51052545Y-1551431D01*
X50882276Y-1611011D01*
X50729537Y-1706984D01*
X50601984Y-1834537D01*
X50506011Y-1987276D01*
X50446431Y-2157545D01*
X50446430Y-2157550D01*
X50426235Y-2336796D01*
X7018804Y-2336796D01*
X9406781Y51181D01*
X9468104Y84666D01*
X9494462Y87500D01*
X122102738Y87500D01*
X122169777Y67815D01*
G37*
%TD.AperFunction*%
%TD*%
M02*
