%TF.GenerationSoftware,KiCad,Pcbnew,8.0.3*%
%TF.CreationDate,2024-07-01T12:15:54-06:00*%
%TF.ProjectId,VoiceBoardR3,566f6963-6542-46f6-9172-6452332e6b69,rev?*%
%TF.SameCoordinates,Original*%
%TF.FileFunction,Copper,L4,Bot*%
%TF.FilePolarity,Positive*%
%FSLAX46Y46*%
G04 Gerber Fmt 4.6, Leading zero omitted, Abs format (unit mm)*
G04 Created by KiCad (PCBNEW 8.0.3) date 2024-07-01 12:15:54*
%MOMM*%
%LPD*%
G01*
G04 APERTURE LIST*
G04 Aperture macros list*
%AMRoundRect*
0 Rectangle with rounded corners*
0 $1 Rounding radius*
0 $2 $3 $4 $5 $6 $7 $8 $9 X,Y pos of 4 corners*
0 Add a 4 corners polygon primitive as box body*
4,1,4,$2,$3,$4,$5,$6,$7,$8,$9,$2,$3,0*
0 Add four circle primitives for the rounded corners*
1,1,$1+$1,$2,$3*
1,1,$1+$1,$4,$5*
1,1,$1+$1,$6,$7*
1,1,$1+$1,$8,$9*
0 Add four rect primitives between the rounded corners*
20,1,$1+$1,$2,$3,$4,$5,0*
20,1,$1+$1,$4,$5,$6,$7,0*
20,1,$1+$1,$6,$7,$8,$9,0*
20,1,$1+$1,$8,$9,$2,$3,0*%
G04 Aperture macros list end*
%TA.AperFunction,ComponentPad*%
%ADD10C,1.000000*%
%TD*%
%TA.AperFunction,ComponentPad*%
%ADD11R,1.700000X1.700000*%
%TD*%
%TA.AperFunction,ComponentPad*%
%ADD12O,1.700000X1.700000*%
%TD*%
%TA.AperFunction,SMDPad,CuDef*%
%ADD13RoundRect,0.100000X0.637500X0.100000X-0.637500X0.100000X-0.637500X-0.100000X0.637500X-0.100000X0*%
%TD*%
%TA.AperFunction,SMDPad,CuDef*%
%ADD14RoundRect,0.250000X-0.250000X-0.475000X0.250000X-0.475000X0.250000X0.475000X-0.250000X0.475000X0*%
%TD*%
%TA.AperFunction,SMDPad,CuDef*%
%ADD15RoundRect,0.250000X0.250000X0.475000X-0.250000X0.475000X-0.250000X-0.475000X0.250000X-0.475000X0*%
%TD*%
%TA.AperFunction,ViaPad*%
%ADD16C,0.800000*%
%TD*%
%TA.AperFunction,ViaPad*%
%ADD17C,0.650000*%
%TD*%
%TA.AperFunction,Conductor*%
%ADD18C,0.220000*%
%TD*%
%TA.AperFunction,Conductor*%
%ADD19C,0.300000*%
%TD*%
%TA.AperFunction,Conductor*%
%ADD20C,0.180000*%
%TD*%
%TA.AperFunction,Conductor*%
%ADD21C,0.200000*%
%TD*%
G04 APERTURE END LIST*
D10*
%TO.P,SAW1,1,1*%
%TO.N,SAW1_FULL*%
X37185600Y-9194800D03*
%TD*%
%TO.P,TRI1,1,1*%
%TO.N,TRI1_FULL*%
X11353800Y-20497800D03*
%TD*%
%TO.P,TRI2,1,1*%
%TO.N,TRI2_FULL*%
X35331400Y-37896800D03*
%TD*%
D11*
%TO.P,U103,1,SDA*%
%TO.N,SDA*%
X43437500Y-47887500D03*
D12*
%TO.P,U103,2,LVL1*%
%TO.N,LEVEL_1_CV*%
X43437500Y-45347500D03*
%TO.P,U103,3,SCL*%
%TO.N,SCL*%
X45977500Y-47887500D03*
%TO.P,U103,4,LVL2*%
%TO.N,LEVEL_2_CV*%
X45977500Y-45347500D03*
%TO.P,U103,5,CLK1*%
%TO.N,CLK_1*%
X48517500Y-47887500D03*
%TO.P,U103,6,PWM1*%
%TO.N,PWM_1_CV*%
X48517500Y-45347500D03*
%TO.P,U103,7,CLK2*%
%TO.N,CLK_2*%
X51057500Y-47887500D03*
%TO.P,U103,8,PWM2*%
%TO.N,PWM_2_CV*%
X51057500Y-45347500D03*
%TO.P,U103,9,HP*%
%TO.N,HP_MODE*%
X53597500Y-47887500D03*
%TO.P,U103,10,FOLD*%
%TO.N,FOLD_CV*%
X53597500Y-45347500D03*
%TO.P,U103,11,FF*%
%TO.N,FOLD_FIRST*%
X56137500Y-47887500D03*
%TO.P,U103,12,VCF*%
%TO.N,CUTOFF_CV*%
X56137500Y-45347500D03*
%TO.P,U103,13,OUT*%
%TO.N,VCA_OUT*%
X58677500Y-47887500D03*
%TO.P,U103,14,VCA*%
%TO.N,VCA_CV*%
X58677500Y-45347500D03*
%TO.P,U103,15,+3V3*%
%TO.N,+3.3V*%
X61217500Y-47887500D03*
%TO.P,U103,16,GND*%
%TO.N,GND*%
X61217500Y-45347500D03*
%TO.P,U103,17,+12V*%
%TO.N,+12V*%
X63757500Y-47887500D03*
%TO.P,U103,18,-12V*%
%TO.N,-12V*%
X63757500Y-45347500D03*
%TD*%
D10*
%TO.P,SAW2,1,1*%
%TO.N,SAW2_FULL*%
X32359600Y-30276800D03*
%TD*%
D13*
%TO.P,U102,1,B1*%
%TO.N,FILTER_IN*%
X77935200Y-10704400D03*
%TO.P,U102,2,B0*%
%TO.N,GND*%
X77935200Y-11354400D03*
%TO.P,U102,3,C1*%
%TO.N,unconnected-(U102-C1-Pad3)*%
X77935200Y-12004400D03*
%TO.P,U102,4,C*%
%TO.N,LP_IN*%
X77935200Y-12654400D03*
%TO.P,U102,5,C0*%
%TO.N,FILTER_IN*%
X77935200Y-13304400D03*
%TO.P,U102,6,INH*%
%TO.N,GND*%
X77935200Y-13954400D03*
%TO.P,U102,7,VSS*%
%TO.N,-12V*%
X77935200Y-14604400D03*
%TO.P,U102,8,GND*%
%TO.N,GND*%
X77935200Y-15254400D03*
%TO.P,U102,9,S3*%
%TO.N,HP_MODE*%
X72210200Y-15254400D03*
%TO.P,U102,10,S2*%
X72210200Y-14604400D03*
%TO.P,U102,11,S1*%
%TO.N,FOLD_FIRST*%
X72210200Y-13954400D03*
%TO.P,U102,12,A0*%
%TO.N,FOLDER_IN*%
X72210200Y-13304400D03*
%TO.P,U102,13,A1*%
%TO.N,VCA_IN*%
X72210200Y-12654400D03*
%TO.P,U102,14,A*%
%TO.N,FILTER_OUT*%
X72210200Y-12004400D03*
%TO.P,U102,15,B*%
%TO.N,HP_IN*%
X72210200Y-11354400D03*
%TO.P,U102,16,VDD*%
%TO.N,+12V*%
X72210200Y-10704400D03*
%TD*%
D14*
%TO.P,C101,1*%
%TO.N,-12V*%
X79974401Y-14605000D03*
%TO.P,C101,2*%
%TO.N,GND*%
X81874399Y-14605000D03*
%TD*%
D15*
%TO.P,C102,1*%
%TO.N,+12V*%
X70723800Y-20396200D03*
%TO.P,C102,2*%
%TO.N,GND*%
X68823800Y-20396200D03*
%TD*%
%TO.P,C104,1*%
%TO.N,+12V*%
X70215800Y-10718800D03*
%TO.P,C104,2*%
%TO.N,GND*%
X68315800Y-10718800D03*
%TD*%
D14*
%TO.P,C103,1*%
%TO.N,-12V*%
X80406201Y-24257000D03*
%TO.P,C103,2*%
%TO.N,GND*%
X82306199Y-24257000D03*
%TD*%
D13*
%TO.P,U101,1,B1*%
%TO.N,OSC_MIX*%
X78362862Y-20381800D03*
%TO.P,U101,2,B0*%
%TO.N,FILTER_OUT*%
X78362862Y-21031800D03*
%TO.P,U101,3,C1*%
%TO.N,FOLDER_OUT*%
X78362862Y-21681800D03*
%TO.P,U101,4,C*%
%TO.N,FILTER_IN*%
X78362862Y-22331800D03*
%TO.P,U101,5,C0*%
%TO.N,OSC_MIX*%
X78362862Y-22981800D03*
%TO.P,U101,6,INH*%
%TO.N,GND*%
X78362862Y-23631800D03*
%TO.P,U101,7,VSS*%
%TO.N,-12V*%
X78362862Y-24281800D03*
%TO.P,U101,8,GND*%
%TO.N,GND*%
X78362862Y-24931800D03*
%TO.P,U101,9,S3*%
%TO.N,FOLD_FIRST*%
X72637862Y-24931800D03*
%TO.P,U101,10,S2*%
X72637862Y-24281800D03*
%TO.P,U101,11,S1*%
X72637862Y-23631800D03*
%TO.P,U101,12,A0*%
%TO.N,VCA_IN*%
X72637862Y-22981800D03*
%TO.P,U101,13,A1*%
%TO.N,FILTER_IN*%
X72637862Y-22331800D03*
%TO.P,U101,14,A*%
%TO.N,FOLDER_OUT*%
X72637862Y-21681800D03*
%TO.P,U101,15,B*%
%TO.N,FOLDER_IN*%
X72637862Y-21031800D03*
%TO.P,U101,16,VDD*%
%TO.N,+12V*%
X72637862Y-20381800D03*
%TD*%
D16*
%TO.N,Net-(C201-Pad2)*%
X24307800Y-3759200D03*
X15621000Y-9423400D03*
%TO.N,CLK_1*%
X37388800Y-41402000D03*
X4851400Y-9118600D03*
%TO.N,SAW1_FULL*%
X59563000Y-16129000D03*
X62890400Y-15646400D03*
X45923200Y-15290800D03*
X33909000Y-17653000D03*
%TO.N,GND*%
X56565800Y-25908000D03*
X99161600Y-26771600D03*
X101828600Y-23672800D03*
X81940400Y-12496800D03*
X21717000Y-3302000D03*
X39547800Y-15722600D03*
X39497000Y-32537400D03*
X106553000Y-8458200D03*
X63957200Y-10642600D03*
X66979800Y-10693400D03*
X20574000Y-20091400D03*
X94005400Y-16459200D03*
X123063000Y-8128000D03*
X84607400Y-16433800D03*
X118872000Y-23952200D03*
X83032600Y-14605000D03*
X68757800Y-22529800D03*
X54229000Y-21132800D03*
X12090400Y-31953200D03*
X95681800Y-7366000D03*
X11912600Y-11049000D03*
X104724200Y-41630600D03*
X100101400Y-41452800D03*
X32334200Y-9829800D03*
X94488000Y-24130000D03*
X113309400Y-33426400D03*
X118084600Y-15367000D03*
X60731400Y-43383200D03*
X59080400Y-6400800D03*
X124764800Y-22987000D03*
X60096400Y-31521400D03*
X110794800Y-8458200D03*
X65582800Y-29464000D03*
X76530200Y-24257000D03*
X60096400Y-26212800D03*
X38506400Y-39649400D03*
X114071400Y-8077200D03*
X87096600Y-8585200D03*
X88747600Y-28295600D03*
X79908400Y-11353800D03*
X59867800Y-12319000D03*
X79171800Y-16179800D03*
X109118400Y-38404800D03*
X109651800Y-25044400D03*
X53111400Y-27660600D03*
X62687200Y-18389600D03*
X22961600Y-33680400D03*
X32334200Y-32385000D03*
X110820200Y-41630600D03*
X54940200Y-4064000D03*
X56489600Y-11861800D03*
X82270600Y-20294600D03*
X74422000Y-43180000D03*
X84505800Y-20294600D03*
X75590400Y-29641800D03*
X21742400Y-26847800D03*
X52705000Y-36118800D03*
X19659600Y-42418000D03*
%TO.N,+12V*%
X96621600Y-16586200D03*
X112547400Y-11607800D03*
X56819800Y-19532600D03*
X125577600Y-21082000D03*
X118592600Y-41554400D03*
X20015200Y-34671000D03*
X109042200Y-42875200D03*
X72237600Y-9347200D03*
X69926200Y-27762200D03*
X39700200Y-18796000D03*
X19329400Y-12039600D03*
X70713600Y-18491200D03*
X77876400Y-41249600D03*
X100939600Y-30149800D03*
%TO.N,-12V*%
X95986600Y-14935200D03*
X62611000Y-21158200D03*
X32893000Y-42875200D03*
X97663000Y-35585400D03*
X110820200Y-33375600D03*
X75361800Y-31673800D03*
X21767800Y-12725400D03*
X28092400Y-24104600D03*
X80406201Y-19024600D03*
X79273400Y-4114800D03*
X39674800Y-28829000D03*
X114071400Y-21605201D03*
X51231800Y-2336800D03*
X21717000Y-35483800D03*
%TO.N,CLK_2*%
X39624000Y-37871400D03*
X7366000Y-29565600D03*
%TO.N,Net-(C209-Pad2)*%
X14097000Y-30378400D03*
X23850600Y-25755600D03*
%TO.N,+3.3V*%
X61112400Y-14325600D03*
X57607200Y-37566600D03*
X119323900Y-6304500D03*
%TO.N,FILTER_OUT*%
X77089000Y-17678400D03*
%TO.N,Net-(U301C-+)*%
X99441000Y-11125200D03*
X113588800Y-16535400D03*
%TO.N,Net-(D301-K)*%
X92176600Y-15976600D03*
X96697800Y-24638000D03*
%TO.N,Net-(U301B-+)*%
X110363000Y-16052800D03*
X100025200Y-16027400D03*
%TO.N,HP_IN*%
X84048600Y-6324600D03*
X93954600Y-6324600D03*
X74193400Y-7035800D03*
%TO.N,FOLDER_IN*%
X70535800Y-25095200D03*
X82346800Y-26187400D03*
X72618600Y-26416000D03*
%TO.N,VCA_IN*%
X75285600Y-16256000D03*
X74777600Y-23698200D03*
D17*
%TO.N,SDA*%
X55372000Y-29083000D03*
X118338600Y-11734800D03*
X59715400Y-3200400D03*
%TO.N,SCL*%
X120497600Y-11455400D03*
X57505600Y-28879800D03*
X61442600Y-3200400D03*
%TO.N,FOLD_FIRST*%
X72339200Y-17602200D03*
X74117200Y-26009600D03*
X63982600Y-35661600D03*
%TO.N,HP_MODE*%
X63627000Y-33274000D03*
%TO.N,PWM_1_CV*%
X40817800Y-39751000D03*
X39954200Y-23876000D03*
%TO.N,PWM_2_CV*%
X43408600Y-35560000D03*
X42494200Y-24384000D03*
%TO.N,CUTOFF_CV*%
X66522600Y-42595800D03*
X84480400Y-26568400D03*
X59365800Y-42119200D03*
%TO.N,FOLD_CV*%
X65455800Y-40462200D03*
X60960000Y-40462200D03*
X71170800Y-32893000D03*
D16*
%TO.N,TRI1_FULL*%
X29768800Y-16713200D03*
X41529000Y-9220200D03*
%TO.N,TRI2_FULL*%
X35661600Y-44500800D03*
X45999400Y-32410400D03*
%TO.N,PULSE2_FULL*%
X45643800Y-29464000D03*
X43815000Y-32715200D03*
%TO.N,Net-(U204A--)*%
X49911000Y-20472400D03*
X49913500Y-29083000D03*
%TO.N,OSC_MIX*%
X69138800Y-6604000D03*
X48310800Y-18491200D03*
X54635400Y-1981200D03*
%TO.N,Net-(U303C-+)*%
X106654600Y-16789400D03*
X102184200Y-20828000D03*
%TO.N,Net-(U301C--)*%
X121031000Y-24257000D03*
X101053900Y-14541500D03*
%TO.N,LP_IN*%
X81432400Y-9728200D03*
%TO.N,FOLDER_OUT*%
X76225400Y-21158200D03*
%TO.N,Net-(U404B--)*%
X100965000Y-39725600D03*
X79248000Y-43103800D03*
%TO.N,Net-(R425-Pad2)*%
X86487000Y-39878000D03*
X81000600Y-40284400D03*
%TO.N,Net-(C211-Pad2)*%
X47498000Y-12623800D03*
X47091600Y-34493200D03*
%TO.N,Net-(U301D-+)*%
X119862600Y-17348200D03*
X92228681Y-8128875D03*
%TO.N,FILTER_IN*%
X67030600Y-17602200D03*
X77901800Y-9118600D03*
X71062678Y-22962800D03*
X69672200Y-13792200D03*
%TO.N,Net-(U205A-P0B)*%
X56438800Y-31699200D03*
X59385200Y-29768800D03*
%TO.N,Net-(U204D--)*%
X66707656Y-16009256D03*
X54356000Y-13690600D03*
%TD*%
D18*
%TO.N,Net-(C201-Pad2)*%
X24307800Y-3759200D02*
X23444200Y-4622800D01*
X23444200Y-4622800D02*
X19761200Y-4622800D01*
X15621000Y-8763000D02*
X15621000Y-9423400D01*
X19761200Y-4622800D02*
X15621000Y-8763000D01*
%TO.N,CLK_1*%
X33324800Y-45466000D02*
X17551400Y-45466000D01*
X17551400Y-45466000D02*
X5562600Y-33477200D01*
X37388800Y-41402000D02*
X33324800Y-45466000D01*
X5562600Y-33477200D02*
X5562600Y-9829800D01*
X5562600Y-9829800D02*
X4851400Y-9118600D01*
%TO.N,SAW1_FULL*%
X62814200Y-15722600D02*
X59969400Y-15722600D01*
X62890400Y-15646400D02*
X62814200Y-15722600D01*
X40386000Y-17068800D02*
X34493200Y-17068800D01*
X34493200Y-17068800D02*
X33909000Y-17653000D01*
X42164000Y-15290800D02*
X40386000Y-17068800D01*
X45923200Y-15290800D02*
X42164000Y-15290800D01*
X59969400Y-15722600D02*
X59563000Y-16129000D01*
%TO.N,GND*%
X81874399Y-14605000D02*
X83032600Y-14605000D01*
X67005200Y-10718800D02*
X66979800Y-10693400D01*
X68823800Y-22463800D02*
X68757800Y-22529800D01*
X81432400Y-12496800D02*
X81940400Y-12496800D01*
X82306199Y-24257000D02*
X82306199Y-20330199D01*
X79485298Y-13074400D02*
X80854800Y-13074400D01*
X68823800Y-20396200D02*
X68823800Y-22463800D01*
X78246400Y-15254400D02*
X79171800Y-16179800D01*
X77935200Y-15254400D02*
X78246400Y-15254400D01*
X78362862Y-24931800D02*
X77205000Y-24931800D01*
X77205000Y-24931800D02*
X76530200Y-24257000D01*
X77935200Y-13954400D02*
X78605298Y-13954400D01*
X82306199Y-20330199D02*
X82270600Y-20294600D01*
X79907800Y-11354400D02*
X79908400Y-11353800D01*
X78362862Y-23631800D02*
X77155400Y-23631800D01*
X68315800Y-10718800D02*
X67005200Y-10718800D01*
X80854800Y-13074400D02*
X81432400Y-12496800D01*
X77935200Y-11354400D02*
X79907800Y-11354400D01*
X77155400Y-23631800D02*
X76530200Y-24257000D01*
X78605298Y-13954400D02*
X79485298Y-13074400D01*
D19*
%TO.N,+12V*%
X70738200Y-20381800D02*
X70723800Y-20396200D01*
X72210200Y-9374600D02*
X72237600Y-9347200D01*
X72210200Y-10704400D02*
X72210200Y-9374600D01*
X70723800Y-20396200D02*
X70723800Y-18501400D01*
X70230200Y-10704400D02*
X70215800Y-10718800D01*
X72210200Y-10704400D02*
X70230200Y-10704400D01*
X72637862Y-20381800D02*
X70738200Y-20381800D01*
X70723800Y-18501400D02*
X70713600Y-18491200D01*
%TO.N,-12V*%
X39674800Y-28829000D02*
X32816800Y-28829000D01*
X108077000Y-22504400D02*
X108976199Y-21605201D01*
X29032200Y-2336800D02*
X51231800Y-2336800D01*
X63757500Y-37925700D02*
X62611000Y-36779200D01*
X80381401Y-24281800D02*
X80406201Y-24257000D01*
X28092400Y-24104600D02*
X21767800Y-17780000D01*
X81407000Y-20025399D02*
X80406201Y-19024600D01*
X80406201Y-15036800D02*
X79974401Y-14605000D01*
X63757500Y-45347500D02*
X66717300Y-45347500D01*
X24739600Y-35483800D02*
X26009600Y-34213800D01*
X32893000Y-41097200D02*
X26009600Y-34213800D01*
X81168201Y-13411200D02*
X86207600Y-13411200D01*
X101219000Y-22504400D02*
X98475800Y-19761200D01*
X32816800Y-28829000D02*
X32105600Y-28117800D01*
X21767800Y-9601200D02*
X29032200Y-2336800D01*
X81407000Y-23256201D02*
X81407000Y-20025399D01*
X108077000Y-22504400D02*
X101219000Y-22504400D01*
X32105600Y-28117800D02*
X28092400Y-24104600D01*
X90093800Y-14935200D02*
X95986600Y-14935200D01*
X62611000Y-36779200D02*
X62611000Y-21158200D01*
X75361800Y-35407600D02*
X75361800Y-31673800D01*
X21717000Y-35483800D02*
X24739600Y-35483800D01*
X108610400Y-35585400D02*
X110820200Y-33375600D01*
X80406201Y-24368799D02*
X80406201Y-24257000D01*
X110820200Y-26263600D02*
X110820200Y-33375600D01*
X87388700Y-12230100D02*
X90093800Y-14935200D01*
X21767800Y-17780000D02*
X21767800Y-12725400D01*
X80406201Y-19024600D02*
X80406201Y-15036800D01*
X97663000Y-35585400D02*
X97485200Y-35407600D01*
X79974401Y-14605000D02*
X77935800Y-14605000D01*
X87388700Y-12230100D02*
X79273400Y-4114800D01*
X66717300Y-45347500D02*
X75361800Y-36703000D01*
X63757500Y-45347500D02*
X63757500Y-37925700D01*
X98475800Y-15976600D02*
X97434400Y-14935200D01*
X114071400Y-23012400D02*
X114071400Y-21605201D01*
X79974401Y-14605000D02*
X81168201Y-13411200D01*
X110820200Y-26263600D02*
X114071400Y-23012400D01*
X32893000Y-42875200D02*
X32893000Y-41097200D01*
X108976199Y-21605201D02*
X114071400Y-21605201D01*
X21767800Y-12725400D02*
X21767800Y-9601200D01*
X98475800Y-19761200D02*
X98475800Y-15976600D01*
X97485200Y-35407600D02*
X75361800Y-35407600D01*
X97663000Y-35585400D02*
X108610400Y-35585400D01*
X78362862Y-24281800D02*
X80381401Y-24281800D01*
X80406201Y-24257000D02*
X81407000Y-23256201D01*
X26009600Y-34213800D02*
X32105600Y-28117800D01*
X97434400Y-14935200D02*
X95986600Y-14935200D01*
X86207600Y-13411200D02*
X87388700Y-12230100D01*
X75361800Y-36703000D02*
X75361800Y-35407600D01*
D18*
%TO.N,CLK_2*%
X17983200Y-44348400D02*
X7366000Y-33731200D01*
X33070800Y-44348400D02*
X34645600Y-42773600D01*
X34645600Y-40843200D02*
X37617400Y-37871400D01*
X37617400Y-37871400D02*
X39624000Y-37871400D01*
X33070800Y-44348400D02*
X17983200Y-44348400D01*
X7366000Y-33731200D02*
X7366000Y-29565600D01*
X34645600Y-42773600D02*
X34645600Y-40843200D01*
%TO.N,Net-(C209-Pad2)*%
X17551400Y-25755600D02*
X14097000Y-29210000D01*
X14097000Y-29210000D02*
X14097000Y-30378400D01*
X23850600Y-25755600D02*
X17551400Y-25755600D01*
D19*
%TO.N,+3.3V*%
X127660400Y-10007600D02*
X127660400Y-41021000D01*
X119323900Y-6304500D02*
X123957300Y-6304500D01*
X127660400Y-41021000D02*
X122885200Y-45796200D01*
X58343800Y-22148800D02*
X58343800Y-15722600D01*
X61569600Y-33604200D02*
X61569600Y-25374600D01*
X62467500Y-39810700D02*
X60223400Y-37566600D01*
X61061600Y-14274800D02*
X61112400Y-14325600D01*
X57607200Y-37566600D02*
X61569600Y-33604200D01*
X58343800Y-15722600D02*
X59791600Y-14274800D01*
X62507500Y-46597500D02*
X62467500Y-46637500D01*
X66356300Y-46597500D02*
X62507500Y-46597500D01*
X122885200Y-45796200D02*
X67157600Y-45796200D01*
X67157600Y-45796200D02*
X66356300Y-46597500D01*
X59791600Y-14274800D02*
X61061600Y-14274800D01*
X62467500Y-46637500D02*
X62467500Y-39810700D01*
X61217500Y-47887500D02*
X62467500Y-46637500D01*
X60223400Y-37566600D02*
X57607200Y-37566600D01*
X123957300Y-6304500D02*
X127660400Y-10007600D01*
X61569600Y-25374600D02*
X58343800Y-22148800D01*
D18*
%TO.N,FILTER_OUT*%
X76225400Y-14274800D02*
X73955000Y-12004400D01*
X77089000Y-20495437D02*
X77089000Y-17678400D01*
X76225400Y-14274800D02*
X76225400Y-16814800D01*
X76225400Y-16814800D02*
X77089000Y-17678400D01*
X77625363Y-21031800D02*
X77089000Y-20495437D01*
X73955000Y-12004400D02*
X72210200Y-12004400D01*
X78362862Y-21031800D02*
X77625363Y-21031800D01*
%TO.N,Net-(U301C-+)*%
X114173000Y-12573000D02*
X114173000Y-11277600D01*
X113588800Y-16535400D02*
X113588800Y-13157200D01*
X110363000Y-11125200D02*
X110769400Y-10718800D01*
X99441000Y-11125200D02*
X110363000Y-11125200D01*
X113588800Y-13157200D02*
X114173000Y-12573000D01*
X113614200Y-10718800D02*
X110769400Y-10718800D01*
X114173000Y-11277600D02*
X113614200Y-10718800D01*
%TO.N,Net-(D301-K)*%
X92176600Y-20116800D02*
X96697800Y-24638000D01*
X92176600Y-15976600D02*
X92176600Y-20116800D01*
%TO.N,Net-(U301B-+)*%
X100355400Y-15697200D02*
X110007400Y-15697200D01*
X110007400Y-15697200D02*
X110363000Y-16052800D01*
X100025200Y-16027400D02*
X100355400Y-15697200D01*
%TO.N,HP_IN*%
X72210200Y-11354400D02*
X72999000Y-11354400D01*
X72999000Y-11354400D02*
X74193400Y-10160000D01*
X74193400Y-10160000D02*
X74193400Y-7035800D01*
X84048600Y-6324600D02*
X93954600Y-6324600D01*
%TO.N,FOLDER_IN*%
X73375361Y-21031800D02*
X73812400Y-20594761D01*
X74320400Y-18516600D02*
X74320400Y-14677101D01*
X73228200Y-27025600D02*
X72618600Y-26416000D01*
X73812400Y-19024600D02*
X74320400Y-18516600D01*
X70535800Y-25095200D02*
X69773800Y-24333200D01*
X82346800Y-26187400D02*
X76809600Y-26187400D01*
X72947699Y-13304400D02*
X72210200Y-13304400D01*
X74320400Y-14677101D02*
X72947699Y-13304400D01*
X69773800Y-23158363D02*
X71900363Y-21031800D01*
X69773800Y-24333200D02*
X69773800Y-23158363D01*
X72637862Y-21031800D02*
X73375361Y-21031800D01*
X73812400Y-20594761D02*
X73812400Y-19024600D01*
X76809600Y-26187400D02*
X75971400Y-27025600D01*
X75971400Y-27025600D02*
X73228200Y-27025600D01*
X71900363Y-21031800D02*
X72637862Y-21031800D01*
%TO.N,VCA_IN*%
X73462000Y-12654400D02*
X74777600Y-13970000D01*
X72210200Y-12654400D02*
X73462000Y-12654400D01*
X74777600Y-13970000D02*
X75285600Y-14478000D01*
X75285600Y-14478000D02*
X75285600Y-16256000D01*
X74777600Y-23698200D02*
X74061200Y-22981800D01*
X74061200Y-22981800D02*
X72637862Y-22981800D01*
D20*
%TO.N,SDA*%
X55372000Y-28321000D02*
X55346600Y-28295600D01*
X44704000Y-40055800D02*
X43434000Y-40055800D01*
X119049800Y-11734800D02*
X119862600Y-12547600D01*
X119862600Y-12547600D02*
X120929400Y-12547600D01*
X55372000Y-29387800D02*
X55372000Y-29083000D01*
X57505600Y-3200400D02*
X59715400Y-3200400D01*
X55372000Y-29083000D02*
X55372000Y-28321000D01*
X51104800Y-9601200D02*
X57073800Y-3632200D01*
X51104800Y-24053800D02*
X51104800Y-19558000D01*
X61087000Y-1828800D02*
X59715400Y-3200400D01*
X55346600Y-28295600D02*
X51104800Y-24053800D01*
X43434000Y-40055800D02*
X40843200Y-42646600D01*
X44704000Y-40055800D02*
X55372000Y-29387800D01*
X120929400Y-12547600D02*
X121539000Y-11938000D01*
X40843200Y-45293200D02*
X43437500Y-47887500D01*
X118338600Y-11734800D02*
X119049800Y-11734800D01*
X51104800Y-19558000D02*
X51104800Y-9601200D01*
X40843200Y-42646600D02*
X40843200Y-45293200D01*
X121539000Y-11938000D02*
X121539000Y-10591800D01*
X57073800Y-3632200D02*
X57505600Y-3200400D01*
X112776000Y-1828800D02*
X61087000Y-1828800D01*
X121539000Y-10591800D02*
X112776000Y-1828800D01*
%TO.N,SCL*%
X61442600Y-3200400D02*
X61950600Y-2692400D01*
X57912000Y-4191000D02*
X53187600Y-8915400D01*
X44704000Y-46614000D02*
X44704000Y-41681400D01*
X44704000Y-41681400D02*
X57505600Y-28879800D01*
X57505600Y-28397200D02*
X57505600Y-28879800D01*
X53187600Y-24079200D02*
X57505600Y-28397200D01*
X53187600Y-8915400D02*
X53187600Y-24079200D01*
X61442600Y-3200400D02*
X60452000Y-4191000D01*
X111734600Y-2692400D02*
X120497600Y-11455400D01*
X60452000Y-4191000D02*
X57912000Y-4191000D01*
X45977500Y-47887500D02*
X44704000Y-46614000D01*
X61950600Y-2692400D02*
X111734600Y-2692400D01*
%TO.N,FOLD_FIRST*%
X72210200Y-13954400D02*
X72947699Y-13954400D01*
X64439800Y-35204400D02*
X63982600Y-35661600D01*
X72947699Y-13954400D02*
X73431400Y-14438101D01*
X72637862Y-24931800D02*
X73039400Y-24931800D01*
X64439800Y-28956000D02*
X64439800Y-35204400D01*
X73431400Y-14438101D02*
X73431400Y-16514200D01*
X73431400Y-16514200D02*
X72343400Y-17602200D01*
X72343400Y-17602200D02*
X72339200Y-17602200D01*
X67208400Y-26187400D02*
X64439800Y-28956000D01*
X71382262Y-26187400D02*
X67208400Y-26187400D01*
X72637862Y-23631800D02*
X72637862Y-24931800D01*
X72637862Y-24931800D02*
X71382262Y-26187400D01*
X73039400Y-24931800D02*
X74117200Y-26009600D01*
%TO.N,HP_MODE*%
X63627000Y-22352000D02*
X63627000Y-33274000D01*
X72210200Y-15254400D02*
X70724600Y-15254400D01*
X72210200Y-15254400D02*
X72210200Y-14604400D01*
X70724600Y-15254400D02*
X63627000Y-22352000D01*
D21*
%TO.N,PWM_1_CV*%
X41325800Y-25247600D02*
X39954200Y-23876000D01*
X40817800Y-39751000D02*
X40817800Y-32410400D01*
X41325800Y-31902400D02*
X41325800Y-25247600D01*
X40817800Y-32410400D02*
X41325800Y-31902400D01*
%TO.N,PWM_2_CV*%
X42468800Y-34620200D02*
X43408600Y-35560000D01*
X42468800Y-24358600D02*
X42468800Y-34620200D01*
%TO.N,CUTOFF_CV*%
X75234800Y-28092400D02*
X82956400Y-28092400D01*
X66522600Y-42595800D02*
X72796400Y-36322000D01*
X82956400Y-28092400D02*
X84480400Y-26568400D01*
X72796400Y-30530800D02*
X75234800Y-28092400D01*
X59365800Y-42119200D02*
X56137500Y-45347500D01*
X72796400Y-36322000D02*
X72796400Y-30530800D01*
%TO.N,FOLD_CV*%
X71170800Y-34747200D02*
X71170800Y-32893000D01*
X65455800Y-40462200D02*
X71170800Y-34747200D01*
X53597500Y-45347500D02*
X53597500Y-42312900D01*
X55473600Y-40436800D02*
X60934600Y-40436800D01*
X60934600Y-40436800D02*
X60960000Y-40462200D01*
X53597500Y-42312900D02*
X55473600Y-40436800D01*
D18*
%TO.N,TRI1_FULL*%
X41529000Y-9220200D02*
X40106600Y-9220200D01*
X32613600Y-16713200D02*
X29768800Y-16713200D01*
X40106600Y-9220200D02*
X32613600Y-16713200D01*
%TO.N,TRI2_FULL*%
X37465000Y-44500800D02*
X35661600Y-44500800D01*
X45999400Y-32410400D02*
X45999400Y-35966400D01*
X45999400Y-35966400D02*
X39903400Y-42062400D01*
X39903400Y-42062400D02*
X37465000Y-44500800D01*
%TO.N,PULSE2_FULL*%
X45643800Y-29464000D02*
X43815000Y-31292800D01*
X43815000Y-31292800D02*
X43815000Y-32715200D01*
%TO.N,Net-(U204A--)*%
X49911000Y-20472400D02*
X49911000Y-29080500D01*
X49911000Y-29080500D02*
X49913500Y-29083000D01*
%TO.N,OSC_MIX*%
X48310800Y-18491200D02*
X49326800Y-17475200D01*
X78362862Y-17002160D02*
X78362862Y-20381800D01*
X79705200Y-22376961D02*
X79705200Y-20986639D01*
X49326800Y-6502400D02*
X53213000Y-2616200D01*
X75057000Y-12293600D02*
X76887700Y-14124300D01*
X49326800Y-17475200D02*
X49326800Y-6502400D01*
X78362862Y-22981800D02*
X79100361Y-22981800D01*
X76887700Y-15526998D02*
X78362862Y-17002160D01*
X79100361Y-20381800D02*
X78362862Y-20381800D01*
X71831200Y-5054600D02*
X75158600Y-5054600D01*
X79100361Y-22981800D02*
X79705200Y-22376961D01*
X70281800Y-6604000D02*
X71831200Y-5054600D01*
X79705200Y-20986639D02*
X79100361Y-20381800D01*
X69138800Y-6604000D02*
X70281800Y-6604000D01*
X76225400Y-6121400D02*
X76225400Y-8331200D01*
X75158600Y-5054600D02*
X76225400Y-6121400D01*
X76887700Y-14124300D02*
X76887700Y-15526998D01*
X53797200Y-2032000D02*
X53848000Y-1981200D01*
X76225400Y-8331200D02*
X75057000Y-9499600D01*
X53848000Y-1981200D02*
X54635400Y-1981200D01*
X53213000Y-2616200D02*
X53797200Y-2032000D01*
X75057000Y-9499600D02*
X75057000Y-12293600D01*
%TO.N,Net-(U303C-+)*%
X106222800Y-16789400D02*
X102184200Y-20828000D01*
X106654600Y-16789400D02*
X106222800Y-16789400D01*
%TO.N,Net-(U301C--)*%
X121031000Y-24257000D02*
X121031000Y-22148800D01*
X102082600Y-13512800D02*
X110337600Y-13512800D01*
X101053900Y-14541500D02*
X102082600Y-13512800D01*
X111912400Y-15087600D02*
X110337600Y-13512800D01*
X121031000Y-22148800D02*
X117500400Y-18618200D01*
X111912400Y-17145000D02*
X111912400Y-15087600D01*
X117500400Y-18618200D02*
X113385600Y-18618200D01*
X113385600Y-18618200D02*
X111912400Y-17145000D01*
%TO.N,LP_IN*%
X81432400Y-11658600D02*
X81432400Y-9728200D01*
X80436600Y-12654400D02*
X81432400Y-11658600D01*
X77935200Y-12654400D02*
X80436600Y-12654400D01*
%TO.N,FOLDER_OUT*%
X72637862Y-21681800D02*
X75016000Y-21681800D01*
X76225400Y-21158200D02*
X75539600Y-21158200D01*
X78362862Y-21681800D02*
X76749000Y-21681800D01*
X76749000Y-21681800D02*
X76225400Y-21158200D01*
X75016000Y-21681800D02*
X75539600Y-21158200D01*
%TO.N,Net-(U404B--)*%
X100761800Y-43103800D02*
X101752400Y-42113200D01*
X101752400Y-42113200D02*
X101752400Y-40513000D01*
X101752400Y-40513000D02*
X100965000Y-39725600D01*
X79248000Y-43103800D02*
X100761800Y-43103800D01*
%TO.N,Net-(R425-Pad2)*%
X86487000Y-39878000D02*
X81407000Y-39878000D01*
X81407000Y-39878000D02*
X81000600Y-40284400D01*
%TO.N,Net-(C211-Pad2)*%
X47091600Y-13030200D02*
X47498000Y-12623800D01*
X47091600Y-34493200D02*
X47091600Y-13030200D01*
%TO.N,Net-(U301D-+)*%
X119862600Y-15468600D02*
X119862600Y-17348200D01*
X92228681Y-8128875D02*
X93066006Y-8966200D01*
X113766600Y-9372600D02*
X119862600Y-15468600D01*
X94488000Y-9372600D02*
X113766600Y-9372600D01*
X93066006Y-8966200D02*
X94081600Y-8966200D01*
X94081600Y-8966200D02*
X94488000Y-9372600D01*
%TO.N,FILTER_IN*%
X75666600Y-11353800D02*
X75666600Y-12090400D01*
X75666600Y-12090400D02*
X76880600Y-13304400D01*
X77901800Y-10671000D02*
X77935200Y-10704400D01*
X69672200Y-14960600D02*
X69672200Y-13792200D01*
X67030600Y-17602200D02*
X69672200Y-14960600D01*
X72637862Y-22331800D02*
X71693678Y-22331800D01*
X76880600Y-13304400D02*
X77935200Y-13304400D01*
X75920600Y-22326600D02*
X75915400Y-22331800D01*
X75925800Y-22331800D02*
X75920600Y-22326600D01*
X75915400Y-22331800D02*
X72637862Y-22331800D01*
X76316000Y-10704400D02*
X75666600Y-11353800D01*
X77901800Y-9118600D02*
X77901800Y-10671000D01*
X78362862Y-22331800D02*
X75925800Y-22331800D01*
X71693678Y-22331800D02*
X71062678Y-22962800D01*
X77935200Y-10704400D02*
X76316000Y-10704400D01*
%TO.N,Net-(U205A-P0B)*%
X56438800Y-31699200D02*
X57454800Y-31699200D01*
X57454800Y-31699200D02*
X59385200Y-29768800D01*
%TO.N,Net-(U204D--)*%
X54356000Y-13690600D02*
X55422800Y-13690600D01*
X55905400Y-13208000D02*
X63906400Y-13208000D01*
X63906400Y-13208000D02*
X66707656Y-16009256D01*
X55422800Y-13690600D02*
X55905400Y-13208000D01*
%TD*%
%TA.AperFunction,Conductor*%
%TO.N,GND*%
G36*
X111547105Y-3202585D02*
G01*
X111567747Y-3219219D01*
X119489077Y-11140549D01*
X119522562Y-11201872D01*
X119517578Y-11271564D01*
X119475706Y-11327497D01*
X119410242Y-11351914D01*
X119341969Y-11337062D01*
X119339395Y-11335617D01*
X119239127Y-11277726D01*
X119171082Y-11259494D01*
X119114376Y-11244300D01*
X119114375Y-11244300D01*
X118925474Y-11244300D01*
X118858435Y-11224615D01*
X118837793Y-11207981D01*
X118793804Y-11163992D01*
X118655374Y-11077010D01*
X118501055Y-11023012D01*
X118338604Y-11004709D01*
X118338596Y-11004709D01*
X118176144Y-11023012D01*
X118021825Y-11077010D01*
X117883395Y-11163992D01*
X117767792Y-11279595D01*
X117680810Y-11418025D01*
X117626812Y-11572344D01*
X117608509Y-11734796D01*
X117608509Y-11734803D01*
X117626812Y-11897255D01*
X117626813Y-11897260D01*
X117626814Y-11897261D01*
X117631470Y-11910568D01*
X117680810Y-12051574D01*
X117693275Y-12071411D01*
X117767792Y-12190004D01*
X117883396Y-12305608D01*
X118021825Y-12392589D01*
X118176139Y-12446586D01*
X118176142Y-12446586D01*
X118176144Y-12446587D01*
X118338596Y-12464891D01*
X118338600Y-12464891D01*
X118338604Y-12464891D01*
X118501055Y-12446587D01*
X118501056Y-12446586D01*
X118501061Y-12446586D01*
X118655375Y-12392589D01*
X118791835Y-12306845D01*
X118859068Y-12287845D01*
X118925904Y-12308212D01*
X118945486Y-12324158D01*
X119470102Y-12848774D01*
X119561426Y-12940098D01*
X119673274Y-13004674D01*
X119798024Y-13038100D01*
X119798026Y-13038100D01*
X120993974Y-13038100D01*
X120993976Y-13038100D01*
X121118726Y-13004674D01*
X121230574Y-12940098D01*
X121829967Y-12340702D01*
X121829972Y-12340699D01*
X121840172Y-12330498D01*
X121840174Y-12330498D01*
X121931498Y-12239174D01*
X121996074Y-12127326D01*
X122029500Y-12002576D01*
X122029500Y-10527224D01*
X121996074Y-10402474D01*
X121996074Y-10402473D01*
X121931498Y-10290626D01*
X118892108Y-7251236D01*
X118858623Y-7189913D01*
X118863607Y-7120221D01*
X118905479Y-7064288D01*
X118970943Y-7039871D01*
X119020744Y-7046514D01*
X119144637Y-7089866D01*
X119144643Y-7089867D01*
X119144645Y-7089868D01*
X119144646Y-7089868D01*
X119144650Y-7089869D01*
X119323896Y-7110065D01*
X119323900Y-7110065D01*
X119323904Y-7110065D01*
X119503149Y-7089869D01*
X119503152Y-7089868D01*
X119503155Y-7089868D01*
X119673422Y-7030289D01*
X119826162Y-6934316D01*
X119869159Y-6891319D01*
X119930482Y-6857834D01*
X119956840Y-6855000D01*
X123677913Y-6855000D01*
X123744952Y-6874685D01*
X123765594Y-6891319D01*
X127073581Y-10199306D01*
X127107066Y-10260629D01*
X127109900Y-10286987D01*
X127109900Y-40741613D01*
X127090215Y-40808652D01*
X127073581Y-40829294D01*
X122693494Y-45209381D01*
X122632171Y-45242866D01*
X122605813Y-45245700D01*
X67896987Y-45245700D01*
X67829948Y-45226015D01*
X67784193Y-45173211D01*
X67774249Y-45104053D01*
X67803274Y-45040497D01*
X67809306Y-45034019D01*
X69739529Y-43103796D01*
X78442435Y-43103796D01*
X78442435Y-43103803D01*
X78462630Y-43283049D01*
X78462631Y-43283054D01*
X78522211Y-43453323D01*
X78601499Y-43579508D01*
X78618184Y-43606062D01*
X78745738Y-43733616D01*
X78811618Y-43775011D01*
X78895506Y-43827722D01*
X78898478Y-43829589D01*
X79016778Y-43870984D01*
X79068745Y-43889168D01*
X79068750Y-43889169D01*
X79247996Y-43909365D01*
X79248000Y-43909365D01*
X79248004Y-43909365D01*
X79427249Y-43889169D01*
X79427252Y-43889168D01*
X79427255Y-43889168D01*
X79597522Y-43829589D01*
X79750262Y-43733616D01*
X79833259Y-43650619D01*
X79894582Y-43617134D01*
X79920940Y-43614300D01*
X100829006Y-43614300D01*
X100829009Y-43614300D01*
X100958846Y-43579510D01*
X101075254Y-43512302D01*
X101170302Y-43417254D01*
X101712360Y-42875196D01*
X108236635Y-42875196D01*
X108236635Y-42875203D01*
X108256830Y-43054449D01*
X108256831Y-43054454D01*
X108316411Y-43224723D01*
X108379980Y-43325891D01*
X108412384Y-43377462D01*
X108539938Y-43505016D01*
X108692678Y-43600989D01*
X108862945Y-43660568D01*
X108862950Y-43660569D01*
X109042196Y-43680765D01*
X109042200Y-43680765D01*
X109042204Y-43680765D01*
X109221449Y-43660569D01*
X109221452Y-43660568D01*
X109221455Y-43660568D01*
X109391722Y-43600989D01*
X109544462Y-43505016D01*
X109672016Y-43377462D01*
X109767989Y-43224722D01*
X109827568Y-43054455D01*
X109832086Y-43014358D01*
X109847765Y-42875203D01*
X109847765Y-42875196D01*
X109827569Y-42695950D01*
X109827568Y-42695945D01*
X109798827Y-42613809D01*
X109767989Y-42525678D01*
X109735507Y-42473984D01*
X109709972Y-42433344D01*
X109672016Y-42372938D01*
X109544462Y-42245384D01*
X109484708Y-42207838D01*
X109391723Y-42149411D01*
X109221454Y-42089831D01*
X109221449Y-42089830D01*
X109042204Y-42069635D01*
X109042196Y-42069635D01*
X108862950Y-42089830D01*
X108862945Y-42089831D01*
X108692676Y-42149411D01*
X108539937Y-42245384D01*
X108412384Y-42372937D01*
X108316411Y-42525676D01*
X108256831Y-42695945D01*
X108256830Y-42695950D01*
X108236635Y-42875196D01*
X101712360Y-42875196D01*
X102160902Y-42426654D01*
X102160983Y-42426514D01*
X102228110Y-42310246D01*
X102262900Y-42180409D01*
X102262900Y-41554396D01*
X117787035Y-41554396D01*
X117787035Y-41554403D01*
X117807230Y-41733649D01*
X117807231Y-41733654D01*
X117866811Y-41903923D01*
X117947172Y-42031816D01*
X117962784Y-42056662D01*
X118090338Y-42184216D01*
X118180680Y-42240982D01*
X118241225Y-42279025D01*
X118243078Y-42280189D01*
X118385261Y-42329941D01*
X118413345Y-42339768D01*
X118413350Y-42339769D01*
X118592596Y-42359965D01*
X118592600Y-42359965D01*
X118592604Y-42359965D01*
X118771849Y-42339769D01*
X118771852Y-42339768D01*
X118771855Y-42339768D01*
X118942122Y-42280189D01*
X119094862Y-42184216D01*
X119222416Y-42056662D01*
X119318389Y-41903922D01*
X119377968Y-41733655D01*
X119385817Y-41663995D01*
X119398165Y-41554403D01*
X119398165Y-41554396D01*
X119377969Y-41375150D01*
X119377968Y-41375145D01*
X119372324Y-41359015D01*
X119318389Y-41204878D01*
X119222416Y-41052138D01*
X119094862Y-40924584D01*
X119083435Y-40917404D01*
X118942123Y-40828611D01*
X118771854Y-40769031D01*
X118771849Y-40769030D01*
X118592604Y-40748835D01*
X118592596Y-40748835D01*
X118413350Y-40769030D01*
X118413345Y-40769031D01*
X118243076Y-40828611D01*
X118090337Y-40924584D01*
X117962784Y-41052137D01*
X117866811Y-41204876D01*
X117807231Y-41375145D01*
X117807230Y-41375150D01*
X117787035Y-41554396D01*
X102262900Y-41554396D01*
X102262900Y-40445791D01*
X102247549Y-40388500D01*
X102228111Y-40315955D01*
X102160902Y-40199546D01*
X101804323Y-39842967D01*
X101770838Y-39781644D01*
X101768784Y-39741403D01*
X101770565Y-39725600D01*
X101755122Y-39588539D01*
X101750369Y-39546350D01*
X101750368Y-39546345D01*
X101724596Y-39472692D01*
X101690789Y-39376078D01*
X101690575Y-39375738D01*
X101640344Y-39295795D01*
X101594816Y-39223338D01*
X101467262Y-39095784D01*
X101462242Y-39092630D01*
X101314523Y-38999811D01*
X101144254Y-38940231D01*
X101144249Y-38940230D01*
X100965004Y-38920035D01*
X100964996Y-38920035D01*
X100785750Y-38940230D01*
X100785745Y-38940231D01*
X100615476Y-38999811D01*
X100462737Y-39095784D01*
X100335184Y-39223337D01*
X100239211Y-39376076D01*
X100179631Y-39546345D01*
X100179630Y-39546350D01*
X100159435Y-39725596D01*
X100159435Y-39725603D01*
X100179630Y-39904849D01*
X100179631Y-39904854D01*
X100239211Y-40075123D01*
X100283385Y-40145425D01*
X100335184Y-40227862D01*
X100462738Y-40355416D01*
X100516222Y-40389022D01*
X100610558Y-40448298D01*
X100615478Y-40451389D01*
X100697841Y-40480209D01*
X100785745Y-40510968D01*
X100785750Y-40510969D01*
X100865131Y-40519912D01*
X100965000Y-40531165D01*
X100980801Y-40529384D01*
X101049620Y-40541436D01*
X101082367Y-40564923D01*
X101205581Y-40688137D01*
X101239066Y-40749460D01*
X101241900Y-40775818D01*
X101241900Y-41850382D01*
X101222215Y-41917421D01*
X101205581Y-41938063D01*
X100586663Y-42556981D01*
X100525340Y-42590466D01*
X100498982Y-42593300D01*
X79920940Y-42593300D01*
X79853901Y-42573615D01*
X79833259Y-42556981D01*
X79750262Y-42473984D01*
X79597523Y-42378011D01*
X79427254Y-42318431D01*
X79427249Y-42318430D01*
X79248004Y-42298235D01*
X79247996Y-42298235D01*
X79068750Y-42318430D01*
X79068745Y-42318431D01*
X78898476Y-42378011D01*
X78745737Y-42473984D01*
X78618184Y-42601537D01*
X78522211Y-42754276D01*
X78462631Y-42924545D01*
X78462630Y-42924550D01*
X78442435Y-43103796D01*
X69739529Y-43103796D01*
X71593729Y-41249596D01*
X77070835Y-41249596D01*
X77070835Y-41249603D01*
X77091030Y-41428849D01*
X77091031Y-41428854D01*
X77150611Y-41599123D01*
X77185029Y-41653898D01*
X77246584Y-41751862D01*
X77374138Y-41879416D01*
X77381456Y-41884014D01*
X77497204Y-41956744D01*
X77526878Y-41975389D01*
X77613176Y-42005586D01*
X77697145Y-42034968D01*
X77697150Y-42034969D01*
X77876396Y-42055165D01*
X77876400Y-42055165D01*
X77876404Y-42055165D01*
X78055649Y-42034969D01*
X78055652Y-42034968D01*
X78055655Y-42034968D01*
X78225922Y-41975389D01*
X78378662Y-41879416D01*
X78506216Y-41751862D01*
X78602189Y-41599122D01*
X78661768Y-41428855D01*
X78661769Y-41428849D01*
X78681965Y-41249603D01*
X78681965Y-41249596D01*
X78661769Y-41070350D01*
X78661768Y-41070345D01*
X78648703Y-41033007D01*
X78602189Y-40900078D01*
X78601975Y-40899738D01*
X78544742Y-40808652D01*
X78506216Y-40747338D01*
X78378662Y-40619784D01*
X78353205Y-40603788D01*
X78225923Y-40523811D01*
X78055654Y-40464231D01*
X78055649Y-40464230D01*
X77876404Y-40444035D01*
X77876396Y-40444035D01*
X77697150Y-40464230D01*
X77697145Y-40464231D01*
X77526876Y-40523811D01*
X77374137Y-40619784D01*
X77246584Y-40747337D01*
X77150611Y-40900076D01*
X77091031Y-41070345D01*
X77091030Y-41070350D01*
X77070835Y-41249596D01*
X71593729Y-41249596D01*
X71804346Y-41038979D01*
X72558929Y-40284396D01*
X80195035Y-40284396D01*
X80195035Y-40284403D01*
X80215230Y-40463649D01*
X80215231Y-40463654D01*
X80274811Y-40633923D01*
X80331697Y-40724456D01*
X80370784Y-40786662D01*
X80498338Y-40914216D01*
X80651078Y-41010189D01*
X80821345Y-41069768D01*
X80821350Y-41069769D01*
X81000596Y-41089965D01*
X81000600Y-41089965D01*
X81000604Y-41089965D01*
X81179849Y-41069769D01*
X81179852Y-41069768D01*
X81179855Y-41069768D01*
X81350122Y-41010189D01*
X81502862Y-40914216D01*
X81630416Y-40786662D01*
X81726389Y-40633922D01*
X81783207Y-40471543D01*
X81823928Y-40414770D01*
X81888880Y-40389022D01*
X81900248Y-40388500D01*
X85814060Y-40388500D01*
X85881099Y-40408185D01*
X85901741Y-40424819D01*
X85984738Y-40507816D01*
X86038244Y-40541436D01*
X86095720Y-40577551D01*
X86137478Y-40603789D01*
X86258550Y-40646154D01*
X86307745Y-40663368D01*
X86307750Y-40663369D01*
X86486996Y-40683565D01*
X86487000Y-40683565D01*
X86487004Y-40683565D01*
X86666249Y-40663369D01*
X86666252Y-40663368D01*
X86666255Y-40663368D01*
X86836522Y-40603789D01*
X86989262Y-40507816D01*
X87116816Y-40380262D01*
X87212789Y-40227522D01*
X87272368Y-40057255D01*
X87278548Y-40002405D01*
X87292565Y-39878003D01*
X87292565Y-39877996D01*
X87272369Y-39698750D01*
X87272368Y-39698745D01*
X87237191Y-39598215D01*
X87212789Y-39528478D01*
X87192003Y-39495398D01*
X87146361Y-39422759D01*
X87116816Y-39375738D01*
X86989262Y-39248184D01*
X86949720Y-39223338D01*
X86836523Y-39152211D01*
X86666254Y-39092631D01*
X86666249Y-39092630D01*
X86487004Y-39072435D01*
X86486996Y-39072435D01*
X86307750Y-39092630D01*
X86307745Y-39092631D01*
X86137476Y-39152211D01*
X85984737Y-39248184D01*
X85901741Y-39331181D01*
X85840418Y-39364666D01*
X85814060Y-39367500D01*
X81339791Y-39367500D01*
X81209954Y-39402290D01*
X81209953Y-39402290D01*
X81209951Y-39402291D01*
X81180687Y-39419187D01*
X81174501Y-39422759D01*
X81100173Y-39465672D01*
X81032273Y-39482144D01*
X81024291Y-39481504D01*
X81000603Y-39478835D01*
X81000596Y-39478835D01*
X80821350Y-39499030D01*
X80821345Y-39499031D01*
X80651076Y-39558611D01*
X80498337Y-39654584D01*
X80370784Y-39782137D01*
X80274811Y-39934876D01*
X80215231Y-40105145D01*
X80215230Y-40105150D01*
X80195035Y-40284396D01*
X72558929Y-40284396D01*
X75802310Y-37041015D01*
X75874784Y-36915485D01*
X75894793Y-36840811D01*
X75912300Y-36775475D01*
X75912300Y-36082100D01*
X75931985Y-36015061D01*
X75984789Y-35969306D01*
X76036300Y-35958100D01*
X96883242Y-35958100D01*
X96950281Y-35977785D01*
X96988235Y-36016128D01*
X97033179Y-36087656D01*
X97033184Y-36087662D01*
X97160738Y-36215216D01*
X97313478Y-36311189D01*
X97483745Y-36370768D01*
X97483750Y-36370769D01*
X97662996Y-36390965D01*
X97663000Y-36390965D01*
X97663004Y-36390965D01*
X97842249Y-36370769D01*
X97842252Y-36370768D01*
X97842255Y-36370768D01*
X98012522Y-36311189D01*
X98165262Y-36215216D01*
X98208259Y-36172219D01*
X98269582Y-36138734D01*
X98295940Y-36135900D01*
X108682872Y-36135900D01*
X108682874Y-36135900D01*
X108682875Y-36135900D01*
X108822885Y-36098384D01*
X108841453Y-36087663D01*
X108841455Y-36087663D01*
X108948408Y-36025914D01*
X108948407Y-36025914D01*
X108948415Y-36025910D01*
X110759046Y-34215277D01*
X110820367Y-34181794D01*
X110832830Y-34179741D01*
X110930503Y-34168737D01*
X110999450Y-34160969D01*
X110999453Y-34160968D01*
X110999455Y-34160968D01*
X111169722Y-34101389D01*
X111322462Y-34005416D01*
X111450016Y-33877862D01*
X111545989Y-33725122D01*
X111605568Y-33554855D01*
X111606745Y-33544409D01*
X111625765Y-33375603D01*
X111625765Y-33375596D01*
X111605569Y-33196350D01*
X111605568Y-33196345D01*
X111556803Y-33056982D01*
X111545989Y-33026078D01*
X111526875Y-32995659D01*
X111474725Y-32912662D01*
X111450016Y-32873338D01*
X111407019Y-32830341D01*
X111373534Y-32769018D01*
X111370700Y-32742660D01*
X111370700Y-26542987D01*
X111390385Y-26475948D01*
X111407019Y-26455306D01*
X112954899Y-24907426D01*
X114511910Y-23350415D01*
X114584384Y-23224885D01*
X114596720Y-23178846D01*
X114621900Y-23084875D01*
X114621900Y-22238141D01*
X114641585Y-22171102D01*
X114658219Y-22150460D01*
X114701216Y-22107463D01*
X114797189Y-21954723D01*
X114856768Y-21784456D01*
X114861516Y-21742317D01*
X114876965Y-21605204D01*
X114876965Y-21605197D01*
X114856769Y-21425951D01*
X114856768Y-21425946D01*
X114825803Y-21337454D01*
X114797189Y-21255679D01*
X114788613Y-21242031D01*
X114744170Y-21171300D01*
X114701216Y-21102939D01*
X114573662Y-20975385D01*
X114484612Y-20919431D01*
X114420923Y-20879412D01*
X114250654Y-20819832D01*
X114250649Y-20819831D01*
X114071404Y-20799636D01*
X114071396Y-20799636D01*
X113892150Y-20819831D01*
X113892145Y-20819832D01*
X113721876Y-20879412D01*
X113569137Y-20975385D01*
X113526141Y-21018382D01*
X113464818Y-21051867D01*
X113438460Y-21054701D01*
X108903724Y-21054701D01*
X108801859Y-21081996D01*
X108763713Y-21092217D01*
X108638185Y-21164690D01*
X108638182Y-21164692D01*
X107885294Y-21917581D01*
X107823971Y-21951066D01*
X107797613Y-21953900D01*
X101498386Y-21953900D01*
X101431347Y-21934215D01*
X101410705Y-21917581D01*
X99062619Y-19569494D01*
X99029134Y-19508171D01*
X99026300Y-19481813D01*
X99026300Y-16326229D01*
X99045985Y-16259190D01*
X99098789Y-16213435D01*
X99167947Y-16203491D01*
X99231503Y-16232516D01*
X99267342Y-16285274D01*
X99299411Y-16376923D01*
X99363464Y-16478862D01*
X99395384Y-16529662D01*
X99522938Y-16657216D01*
X99563362Y-16682616D01*
X99658346Y-16742299D01*
X99675678Y-16753189D01*
X99824071Y-16805114D01*
X99845945Y-16812768D01*
X99845950Y-16812769D01*
X100025196Y-16832965D01*
X100025200Y-16832965D01*
X100025204Y-16832965D01*
X100204449Y-16812769D01*
X100204452Y-16812768D01*
X100204455Y-16812768D01*
X100374722Y-16753189D01*
X100527462Y-16657216D01*
X100655016Y-16529662D01*
X100750989Y-16376922D01*
X100781143Y-16290745D01*
X100821865Y-16233970D01*
X100886817Y-16208222D01*
X100898185Y-16207700D01*
X105783181Y-16207700D01*
X105850220Y-16227385D01*
X105895975Y-16280189D01*
X105905919Y-16349347D01*
X105876894Y-16412903D01*
X105870862Y-16419381D01*
X102301566Y-19988676D01*
X102240243Y-20022161D01*
X102200002Y-20024215D01*
X102184203Y-20022435D01*
X102184196Y-20022435D01*
X102004950Y-20042630D01*
X102004945Y-20042631D01*
X101834676Y-20102211D01*
X101681937Y-20198184D01*
X101554384Y-20325737D01*
X101458411Y-20478476D01*
X101398831Y-20648745D01*
X101398830Y-20648750D01*
X101378635Y-20827996D01*
X101378635Y-20828003D01*
X101398830Y-21007249D01*
X101398831Y-21007254D01*
X101458411Y-21177523D01*
X101518448Y-21273070D01*
X101554384Y-21330262D01*
X101681938Y-21457816D01*
X101772280Y-21514582D01*
X101822181Y-21545937D01*
X101834678Y-21553789D01*
X101839734Y-21555558D01*
X102004945Y-21613368D01*
X102004950Y-21613369D01*
X102184196Y-21633565D01*
X102184200Y-21633565D01*
X102184204Y-21633565D01*
X102363449Y-21613369D01*
X102363452Y-21613368D01*
X102363455Y-21613368D01*
X102533722Y-21553789D01*
X102686462Y-21457816D01*
X102814016Y-21330262D01*
X102909989Y-21177522D01*
X102969568Y-21007255D01*
X102973241Y-20974662D01*
X102989765Y-20828002D01*
X102989765Y-20828001D01*
X102989765Y-20828000D01*
X102987984Y-20812197D01*
X103000037Y-20743377D01*
X103023520Y-20710634D01*
X106186194Y-17547960D01*
X106247515Y-17514477D01*
X106314827Y-17518601D01*
X106470987Y-17573243D01*
X106475345Y-17574768D01*
X106475346Y-17574768D01*
X106475350Y-17574769D01*
X106654596Y-17594965D01*
X106654600Y-17594965D01*
X106654604Y-17594965D01*
X106833849Y-17574769D01*
X106833852Y-17574768D01*
X106833855Y-17574768D01*
X107004122Y-17515189D01*
X107156862Y-17419216D01*
X107284416Y-17291662D01*
X107380389Y-17138922D01*
X107439968Y-16968655D01*
X107443679Y-16935722D01*
X107460165Y-16789403D01*
X107460165Y-16789396D01*
X107439969Y-16610150D01*
X107439968Y-16610145D01*
X107380388Y-16439875D01*
X107353870Y-16397673D01*
X107334869Y-16330436D01*
X107355236Y-16263601D01*
X107408504Y-16218386D01*
X107458863Y-16207700D01*
X109481127Y-16207700D01*
X109548166Y-16227385D01*
X109593921Y-16280189D01*
X109598169Y-16290746D01*
X109637210Y-16402321D01*
X109720831Y-16535403D01*
X109733184Y-16555062D01*
X109860738Y-16682616D01*
X109909406Y-16713196D01*
X110005542Y-16773603D01*
X110013478Y-16778589D01*
X110168876Y-16832965D01*
X110183745Y-16838168D01*
X110183750Y-16838169D01*
X110362996Y-16858365D01*
X110363000Y-16858365D01*
X110363004Y-16858365D01*
X110542249Y-16838169D01*
X110542252Y-16838168D01*
X110542255Y-16838168D01*
X110712522Y-16778589D01*
X110865262Y-16682616D01*
X110992816Y-16555062D01*
X111088789Y-16402322D01*
X111148368Y-16232055D01*
X111148369Y-16232049D01*
X111154680Y-16176039D01*
X111181746Y-16111625D01*
X111239341Y-16072070D01*
X111309178Y-16069932D01*
X111369084Y-16105890D01*
X111400040Y-16168528D01*
X111401900Y-16189922D01*
X111401900Y-17212209D01*
X111423190Y-17291662D01*
X111436690Y-17342047D01*
X111436691Y-17342048D01*
X111479046Y-17415409D01*
X111503898Y-17458454D01*
X113072146Y-19026702D01*
X113072147Y-19026703D01*
X113072149Y-19026704D01*
X113130350Y-19060306D01*
X113188554Y-19093910D01*
X113318391Y-19128700D01*
X113452809Y-19128700D01*
X117237582Y-19128700D01*
X117304621Y-19148385D01*
X117325263Y-19165019D01*
X120484181Y-22323937D01*
X120517666Y-22385260D01*
X120520500Y-22411618D01*
X120520500Y-23584060D01*
X120500815Y-23651099D01*
X120484181Y-23671741D01*
X120401184Y-23754737D01*
X120305211Y-23907476D01*
X120245631Y-24077745D01*
X120245630Y-24077750D01*
X120225435Y-24256996D01*
X120225435Y-24257003D01*
X120245630Y-24436249D01*
X120245631Y-24436254D01*
X120305211Y-24606523D01*
X120385572Y-24734416D01*
X120401184Y-24759262D01*
X120528738Y-24886816D01*
X120586686Y-24923227D01*
X120668427Y-24974589D01*
X120681478Y-24982789D01*
X120787984Y-25020057D01*
X120851745Y-25042368D01*
X120851750Y-25042369D01*
X121030996Y-25062565D01*
X121031000Y-25062565D01*
X121031004Y-25062565D01*
X121210249Y-25042369D01*
X121210252Y-25042368D01*
X121210255Y-25042368D01*
X121380522Y-24982789D01*
X121533262Y-24886816D01*
X121660816Y-24759262D01*
X121756789Y-24606522D01*
X121816368Y-24436255D01*
X121816369Y-24436249D01*
X121836565Y-24257003D01*
X121836565Y-24256996D01*
X121816369Y-24077750D01*
X121816368Y-24077745D01*
X121794281Y-24014624D01*
X121756789Y-23907478D01*
X121744818Y-23888427D01*
X121683417Y-23790707D01*
X121660816Y-23754738D01*
X121577819Y-23671741D01*
X121544334Y-23610418D01*
X121541500Y-23584060D01*
X121541500Y-22081593D01*
X121541500Y-22081591D01*
X121506710Y-21951754D01*
X121459171Y-21869413D01*
X121439504Y-21835349D01*
X121439500Y-21835344D01*
X121344454Y-21740298D01*
X120686152Y-21081996D01*
X124772035Y-21081996D01*
X124772035Y-21082003D01*
X124792230Y-21261249D01*
X124792231Y-21261254D01*
X124851811Y-21431523D01*
X124929747Y-21555556D01*
X124947784Y-21584262D01*
X125075338Y-21711816D01*
X125228078Y-21807789D01*
X125306840Y-21835349D01*
X125398345Y-21867368D01*
X125398350Y-21867369D01*
X125577596Y-21887565D01*
X125577600Y-21887565D01*
X125577604Y-21887565D01*
X125756849Y-21867369D01*
X125756852Y-21867368D01*
X125756855Y-21867368D01*
X125927122Y-21807789D01*
X126079862Y-21711816D01*
X126207416Y-21584262D01*
X126303389Y-21431522D01*
X126362968Y-21261255D01*
X126362969Y-21261249D01*
X126383165Y-21082003D01*
X126383165Y-21081996D01*
X126362969Y-20902750D01*
X126362968Y-20902745D01*
X126336814Y-20828001D01*
X126303389Y-20732478D01*
X126207416Y-20579738D01*
X126079862Y-20452184D01*
X126051971Y-20434659D01*
X125927123Y-20356211D01*
X125756854Y-20296631D01*
X125756849Y-20296630D01*
X125577604Y-20276435D01*
X125577596Y-20276435D01*
X125398350Y-20296630D01*
X125398345Y-20296631D01*
X125228076Y-20356211D01*
X125075337Y-20452184D01*
X124947784Y-20579737D01*
X124851811Y-20732476D01*
X124792231Y-20902745D01*
X124792230Y-20902750D01*
X124772035Y-21081996D01*
X120686152Y-21081996D01*
X117813857Y-18209700D01*
X117813850Y-18209694D01*
X117810713Y-18207883D01*
X117810713Y-18207884D01*
X117697446Y-18142490D01*
X117697447Y-18142490D01*
X117664149Y-18133568D01*
X117567609Y-18107700D01*
X117567606Y-18107700D01*
X113648418Y-18107700D01*
X113581379Y-18088015D01*
X113560737Y-18071381D01*
X112459219Y-16969863D01*
X112425734Y-16908540D01*
X112422900Y-16882182D01*
X112422900Y-15020392D01*
X112422900Y-15020391D01*
X112419493Y-15007675D01*
X112388111Y-14890555D01*
X112320902Y-14774146D01*
X110651054Y-13104298D01*
X110626273Y-13089991D01*
X110626273Y-13089990D01*
X110626271Y-13089990D01*
X110534646Y-13037090D01*
X110404809Y-13002300D01*
X102149809Y-13002300D01*
X102015391Y-13002300D01*
X101939142Y-13022731D01*
X101885552Y-13037090D01*
X101885551Y-13037091D01*
X101769149Y-13104295D01*
X101769144Y-13104299D01*
X101171266Y-13702176D01*
X101109943Y-13735661D01*
X101069702Y-13737715D01*
X101053903Y-13735935D01*
X101053896Y-13735935D01*
X100874650Y-13756130D01*
X100874645Y-13756131D01*
X100704376Y-13815711D01*
X100551637Y-13911684D01*
X100424084Y-14039237D01*
X100328111Y-14191976D01*
X100268531Y-14362245D01*
X100268530Y-14362250D01*
X100248335Y-14541496D01*
X100248335Y-14541503D01*
X100268530Y-14720749D01*
X100268531Y-14720754D01*
X100328111Y-14891024D01*
X100394530Y-14996727D01*
X100413531Y-15063964D01*
X100393164Y-15130799D01*
X100339896Y-15176014D01*
X100296204Y-15185285D01*
X100296251Y-15185639D01*
X100291734Y-15186233D01*
X100289537Y-15186700D01*
X100288191Y-15186700D01*
X100158354Y-15221490D01*
X100158351Y-15221491D01*
X100150505Y-15223594D01*
X100150218Y-15222524D01*
X100097441Y-15229974D01*
X100025203Y-15221835D01*
X100025196Y-15221835D01*
X99845950Y-15242030D01*
X99845945Y-15242031D01*
X99675676Y-15301611D01*
X99522937Y-15397584D01*
X99395384Y-15525137D01*
X99299409Y-15677880D01*
X99243178Y-15838579D01*
X99202457Y-15895355D01*
X99137504Y-15921102D01*
X99068942Y-15907646D01*
X99018540Y-15859258D01*
X99006362Y-15829718D01*
X99005273Y-15825655D01*
X98988784Y-15764115D01*
X98969933Y-15731464D01*
X98916310Y-15638585D01*
X97772415Y-14494690D01*
X97772414Y-14494689D01*
X97772411Y-14494687D01*
X97646886Y-14422216D01*
X97646883Y-14422215D01*
X97646148Y-14422018D01*
X97552447Y-14396911D01*
X97506875Y-14384700D01*
X97506874Y-14384700D01*
X96619540Y-14384700D01*
X96552501Y-14365015D01*
X96531859Y-14348381D01*
X96488862Y-14305384D01*
X96336123Y-14209411D01*
X96165854Y-14149831D01*
X96165849Y-14149830D01*
X95986604Y-14129635D01*
X95986596Y-14129635D01*
X95807350Y-14149830D01*
X95807345Y-14149831D01*
X95637076Y-14209411D01*
X95484337Y-14305384D01*
X95441341Y-14348381D01*
X95380018Y-14381866D01*
X95353660Y-14384700D01*
X90373187Y-14384700D01*
X90306148Y-14365015D01*
X90285506Y-14348381D01*
X84065996Y-8128871D01*
X91423116Y-8128871D01*
X91423116Y-8128878D01*
X91443311Y-8308124D01*
X91443312Y-8308129D01*
X91502892Y-8478398D01*
X91589566Y-8616338D01*
X91598865Y-8631137D01*
X91726419Y-8758691D01*
X91742947Y-8769076D01*
X91873047Y-8850824D01*
X91879159Y-8854664D01*
X91974825Y-8888139D01*
X92049426Y-8914243D01*
X92049431Y-8914244D01*
X92123908Y-8922635D01*
X92228681Y-8934440D01*
X92244482Y-8932659D01*
X92313301Y-8944711D01*
X92346048Y-8968198D01*
X92657504Y-9279654D01*
X92752552Y-9374702D01*
X92752553Y-9374703D01*
X92752555Y-9374704D01*
X92810756Y-9408306D01*
X92868960Y-9441910D01*
X92998797Y-9476700D01*
X93818782Y-9476700D01*
X93885821Y-9496385D01*
X93906463Y-9513019D01*
X94079498Y-9686054D01*
X94174546Y-9781102D01*
X94290954Y-9848310D01*
X94420791Y-9883100D01*
X94555209Y-9883100D01*
X113503782Y-9883100D01*
X113570821Y-9902785D01*
X113591463Y-9919419D01*
X113668663Y-9996619D01*
X113702148Y-10057942D01*
X113697164Y-10127634D01*
X113655292Y-10183567D01*
X113589828Y-10207984D01*
X113580982Y-10208300D01*
X110702191Y-10208300D01*
X110600214Y-10235625D01*
X110572350Y-10243091D01*
X110536325Y-10263891D01*
X110455949Y-10310295D01*
X110455944Y-10310299D01*
X110187863Y-10578381D01*
X110126540Y-10611866D01*
X110100182Y-10614700D01*
X100113940Y-10614700D01*
X100046901Y-10595015D01*
X100026259Y-10578381D01*
X99943262Y-10495384D01*
X99790523Y-10399411D01*
X99620254Y-10339831D01*
X99620249Y-10339830D01*
X99441004Y-10319635D01*
X99440996Y-10319635D01*
X99261750Y-10339830D01*
X99261745Y-10339831D01*
X99091476Y-10399411D01*
X98938737Y-10495384D01*
X98811184Y-10622937D01*
X98715211Y-10775676D01*
X98655631Y-10945945D01*
X98655630Y-10945950D01*
X98635435Y-11125196D01*
X98635435Y-11125203D01*
X98655630Y-11304449D01*
X98655631Y-11304454D01*
X98715211Y-11474723D01*
X98798831Y-11607803D01*
X98811184Y-11627462D01*
X98938738Y-11755016D01*
X99005423Y-11796917D01*
X99082829Y-11845555D01*
X99091478Y-11850989D01*
X99157080Y-11873944D01*
X99261745Y-11910568D01*
X99261750Y-11910569D01*
X99440996Y-11930765D01*
X99441000Y-11930765D01*
X99441004Y-11930765D01*
X99620249Y-11910569D01*
X99620252Y-11910568D01*
X99620255Y-11910568D01*
X99790522Y-11850989D01*
X99943262Y-11755016D01*
X100026259Y-11672019D01*
X100087582Y-11638534D01*
X100113940Y-11635700D01*
X110430206Y-11635700D01*
X110430209Y-11635700D01*
X110560046Y-11600910D01*
X110676454Y-11533702D01*
X110771502Y-11438654D01*
X110944537Y-11265619D01*
X111005860Y-11232134D01*
X111032218Y-11229300D01*
X111656989Y-11229300D01*
X111724028Y-11248985D01*
X111769783Y-11301789D01*
X111779727Y-11370947D01*
X111774030Y-11394256D01*
X111762032Y-11428540D01*
X111762030Y-11428550D01*
X111741835Y-11607796D01*
X111741835Y-11607803D01*
X111762030Y-11787049D01*
X111762031Y-11787054D01*
X111821611Y-11957323D01*
X111880834Y-12051575D01*
X111917584Y-12110062D01*
X112045138Y-12237616D01*
X112102142Y-12273434D01*
X112192958Y-12330498D01*
X112197878Y-12333589D01*
X112318733Y-12375878D01*
X112368145Y-12393168D01*
X112368150Y-12393169D01*
X112547396Y-12413365D01*
X112547400Y-12413365D01*
X112547404Y-12413365D01*
X112726649Y-12393169D01*
X112726652Y-12393168D01*
X112726655Y-12393168D01*
X112896922Y-12333589D01*
X113049662Y-12237616D01*
X113177216Y-12110062D01*
X113273189Y-11957322D01*
X113332768Y-11787055D01*
X113335288Y-11764693D01*
X113352965Y-11607803D01*
X113352965Y-11607797D01*
X113338259Y-11477281D01*
X113350313Y-11408459D01*
X113397662Y-11357079D01*
X113465272Y-11339455D01*
X113531678Y-11361181D01*
X113549160Y-11375716D01*
X113626181Y-11452737D01*
X113659666Y-11514060D01*
X113662500Y-11540418D01*
X113662500Y-12310182D01*
X113642815Y-12377221D01*
X113626181Y-12397863D01*
X113180299Y-12843744D01*
X113180295Y-12843749D01*
X113113091Y-12960151D01*
X113113090Y-12960152D01*
X113100102Y-13008624D01*
X113078300Y-13089991D01*
X113078300Y-13089993D01*
X113078300Y-15862460D01*
X113058615Y-15929499D01*
X113041981Y-15950141D01*
X112958984Y-16033137D01*
X112863011Y-16185876D01*
X112803431Y-16356145D01*
X112803430Y-16356150D01*
X112783235Y-16535396D01*
X112783235Y-16535403D01*
X112803430Y-16714649D01*
X112803431Y-16714654D01*
X112863011Y-16884923D01*
X112925178Y-16983860D01*
X112958984Y-17037662D01*
X113086538Y-17165216D01*
X113124244Y-17188908D01*
X113225729Y-17252676D01*
X113239278Y-17261189D01*
X113360133Y-17303478D01*
X113409545Y-17320768D01*
X113409550Y-17320769D01*
X113588796Y-17340965D01*
X113588800Y-17340965D01*
X113588804Y-17340965D01*
X113768049Y-17320769D01*
X113768052Y-17320768D01*
X113768055Y-17320768D01*
X113938322Y-17261189D01*
X114091062Y-17165216D01*
X114218616Y-17037662D01*
X114314589Y-16884922D01*
X114374168Y-16714655D01*
X114374332Y-16713200D01*
X114394365Y-16535403D01*
X114394365Y-16535396D01*
X114374169Y-16356150D01*
X114374168Y-16356145D01*
X114358381Y-16311028D01*
X114314589Y-16185878D01*
X114312772Y-16182987D01*
X114245654Y-16076169D01*
X114218616Y-16033138D01*
X114135619Y-15950141D01*
X114102134Y-15888818D01*
X114099300Y-15862460D01*
X114099300Y-13420018D01*
X114118985Y-13352979D01*
X114135619Y-13332337D01*
X114341894Y-13126062D01*
X114581502Y-12886454D01*
X114648711Y-12770045D01*
X114683500Y-12640209D01*
X114683500Y-12505791D01*
X114683500Y-11310818D01*
X114703185Y-11243779D01*
X114755989Y-11198024D01*
X114825147Y-11188080D01*
X114888703Y-11217105D01*
X114895181Y-11223137D01*
X119315781Y-15643737D01*
X119349266Y-15705060D01*
X119352100Y-15731418D01*
X119352100Y-16675260D01*
X119332415Y-16742299D01*
X119315781Y-16762941D01*
X119232784Y-16845937D01*
X119136811Y-16998676D01*
X119077231Y-17168945D01*
X119077230Y-17168950D01*
X119057035Y-17348196D01*
X119057035Y-17348203D01*
X119077230Y-17527449D01*
X119077231Y-17527454D01*
X119136811Y-17697723D01*
X119179343Y-17765411D01*
X119232784Y-17850462D01*
X119360338Y-17978016D01*
X119513078Y-18073989D01*
X119638897Y-18118015D01*
X119683345Y-18133568D01*
X119683350Y-18133569D01*
X119862596Y-18153765D01*
X119862600Y-18153765D01*
X119862604Y-18153765D01*
X120041849Y-18133569D01*
X120041852Y-18133568D01*
X120041855Y-18133568D01*
X120212122Y-18073989D01*
X120364862Y-17978016D01*
X120492416Y-17850462D01*
X120588389Y-17697722D01*
X120647968Y-17527455D01*
X120649350Y-17515188D01*
X120668165Y-17348203D01*
X120668165Y-17348196D01*
X120647969Y-17168950D01*
X120647968Y-17168945D01*
X120605852Y-17048584D01*
X120588389Y-16998678D01*
X120587340Y-16997009D01*
X120522007Y-16893032D01*
X120492416Y-16845938D01*
X120409419Y-16762941D01*
X120375934Y-16701618D01*
X120373100Y-16675260D01*
X120373100Y-15401393D01*
X120373100Y-15401391D01*
X120338310Y-15271554D01*
X120277955Y-15167015D01*
X120271104Y-15155149D01*
X120271100Y-15155144D01*
X114080055Y-8964099D01*
X114080050Y-8964095D01*
X114046474Y-8944711D01*
X114037180Y-8939345D01*
X114037179Y-8939344D01*
X113963646Y-8896890D01*
X113833809Y-8862100D01*
X113833806Y-8862100D01*
X94750818Y-8862100D01*
X94683779Y-8842415D01*
X94663137Y-8825781D01*
X94395053Y-8557697D01*
X94381143Y-8549666D01*
X94367232Y-8541635D01*
X94333069Y-8521911D01*
X94278648Y-8490491D01*
X94278647Y-8490490D01*
X94233518Y-8478398D01*
X94148809Y-8455700D01*
X94148806Y-8455700D01*
X93328824Y-8455700D01*
X93261785Y-8436015D01*
X93241143Y-8419381D01*
X93068004Y-8246242D01*
X93034519Y-8184919D01*
X93032465Y-8144678D01*
X93034246Y-8128875D01*
X93014049Y-7949620D01*
X92954470Y-7779353D01*
X92858497Y-7626613D01*
X92730943Y-7499059D01*
X92578204Y-7403086D01*
X92407935Y-7343506D01*
X92407930Y-7343505D01*
X92228685Y-7323310D01*
X92228677Y-7323310D01*
X92049431Y-7343505D01*
X92049426Y-7343506D01*
X91879157Y-7403086D01*
X91726418Y-7499059D01*
X91598865Y-7626612D01*
X91502892Y-7779351D01*
X91443312Y-7949620D01*
X91443311Y-7949625D01*
X91423116Y-8128871D01*
X84065996Y-8128871D01*
X82261721Y-6324596D01*
X83243035Y-6324596D01*
X83243035Y-6324603D01*
X83263230Y-6503849D01*
X83263231Y-6503854D01*
X83322811Y-6674123D01*
X83361874Y-6736291D01*
X83418784Y-6826862D01*
X83546338Y-6954416D01*
X83636680Y-7011182D01*
X83682338Y-7039871D01*
X83699078Y-7050389D01*
X83858754Y-7106262D01*
X83869345Y-7109968D01*
X83869350Y-7109969D01*
X84048596Y-7130165D01*
X84048600Y-7130165D01*
X84048604Y-7130165D01*
X84227849Y-7109969D01*
X84227852Y-7109968D01*
X84227855Y-7109968D01*
X84398122Y-7050389D01*
X84550862Y-6954416D01*
X84633859Y-6871419D01*
X84695182Y-6837934D01*
X84721540Y-6835100D01*
X93281660Y-6835100D01*
X93348699Y-6854785D01*
X93369341Y-6871419D01*
X93452338Y-6954416D01*
X93542680Y-7011182D01*
X93588338Y-7039871D01*
X93605078Y-7050389D01*
X93764754Y-7106262D01*
X93775345Y-7109968D01*
X93775350Y-7109969D01*
X93954596Y-7130165D01*
X93954600Y-7130165D01*
X93954604Y-7130165D01*
X94133849Y-7109969D01*
X94133852Y-7109968D01*
X94133855Y-7109968D01*
X94304122Y-7050389D01*
X94456862Y-6954416D01*
X94584416Y-6826862D01*
X94680389Y-6674122D01*
X94739968Y-6503855D01*
X94739969Y-6503849D01*
X94760165Y-6324603D01*
X94760165Y-6324596D01*
X94739969Y-6145350D01*
X94739968Y-6145345D01*
X94720835Y-6090666D01*
X94680389Y-5975078D01*
X94679827Y-5974184D01*
X94584415Y-5822337D01*
X94456862Y-5694784D01*
X94304123Y-5598811D01*
X94133854Y-5539231D01*
X94133849Y-5539230D01*
X93954604Y-5519035D01*
X93954596Y-5519035D01*
X93775350Y-5539230D01*
X93775345Y-5539231D01*
X93605076Y-5598811D01*
X93452337Y-5694784D01*
X93369341Y-5777781D01*
X93308018Y-5811266D01*
X93281660Y-5814100D01*
X84721540Y-5814100D01*
X84654501Y-5794415D01*
X84633859Y-5777781D01*
X84550862Y-5694784D01*
X84398123Y-5598811D01*
X84227854Y-5539231D01*
X84227849Y-5539230D01*
X84048604Y-5519035D01*
X84048596Y-5519035D01*
X83869350Y-5539230D01*
X83869345Y-5539231D01*
X83699076Y-5598811D01*
X83546337Y-5694784D01*
X83418784Y-5822337D01*
X83322811Y-5975076D01*
X83263231Y-6145345D01*
X83263230Y-6145350D01*
X83243035Y-6324596D01*
X82261721Y-6324596D01*
X80113079Y-4175954D01*
X80079594Y-4114631D01*
X80077540Y-4102156D01*
X80058769Y-3935549D01*
X80058768Y-3935545D01*
X80026673Y-3843824D01*
X79999189Y-3765278D01*
X79995367Y-3759196D01*
X79903215Y-3612537D01*
X79775662Y-3484984D01*
X79659340Y-3411894D01*
X79613049Y-3359559D01*
X79602401Y-3290506D01*
X79630776Y-3226657D01*
X79689166Y-3188285D01*
X79725312Y-3182900D01*
X111480066Y-3182900D01*
X111547105Y-3202585D01*
G37*
%TD.AperFunction*%
%TA.AperFunction,Conductor*%
G36*
X59337052Y-13738185D02*
G01*
X59382807Y-13790989D01*
X59392751Y-13860147D01*
X59363726Y-13923703D01*
X59357694Y-13930181D01*
X57903291Y-15384583D01*
X57903289Y-15384586D01*
X57843674Y-15487845D01*
X57843672Y-15487848D01*
X57830817Y-15510112D01*
X57830816Y-15510114D01*
X57830816Y-15510115D01*
X57793300Y-15650125D01*
X57793300Y-15650127D01*
X57793300Y-19161181D01*
X57773615Y-19228220D01*
X57720811Y-19273975D01*
X57651653Y-19283919D01*
X57588097Y-19254894D01*
X57552259Y-19202137D01*
X57545590Y-19183079D01*
X57469874Y-19062578D01*
X57449616Y-19030338D01*
X57322062Y-18902784D01*
X57266573Y-18867918D01*
X57169323Y-18806811D01*
X56999054Y-18747231D01*
X56999049Y-18747230D01*
X56819804Y-18727035D01*
X56819796Y-18727035D01*
X56640550Y-18747230D01*
X56640545Y-18747231D01*
X56470276Y-18806811D01*
X56317537Y-18902784D01*
X56189984Y-19030337D01*
X56094011Y-19183076D01*
X56034431Y-19353345D01*
X56034430Y-19353350D01*
X56014235Y-19532596D01*
X56014235Y-19532603D01*
X56034430Y-19711849D01*
X56034431Y-19711854D01*
X56094011Y-19882123D01*
X56160963Y-19988676D01*
X56189984Y-20034862D01*
X56317538Y-20162416D01*
X56404573Y-20217104D01*
X56462374Y-20253423D01*
X56470278Y-20258389D01*
X56602870Y-20304785D01*
X56640545Y-20317968D01*
X56640550Y-20317969D01*
X56819796Y-20338165D01*
X56819800Y-20338165D01*
X56819804Y-20338165D01*
X56999049Y-20317969D01*
X56999052Y-20317968D01*
X56999055Y-20317968D01*
X57169322Y-20258389D01*
X57322062Y-20162416D01*
X57449616Y-20034862D01*
X57545589Y-19882122D01*
X57552258Y-19863062D01*
X57592980Y-19806287D01*
X57657933Y-19780540D01*
X57726494Y-19793996D01*
X57776897Y-19842383D01*
X57793300Y-19904018D01*
X57793300Y-22221277D01*
X57809651Y-22282296D01*
X57809651Y-22282298D01*
X57809652Y-22282298D01*
X57809652Y-22282299D01*
X57830816Y-22361285D01*
X57859875Y-22411618D01*
X57903289Y-22486813D01*
X57903291Y-22486816D01*
X60982781Y-25566306D01*
X61016266Y-25627629D01*
X61019100Y-25653987D01*
X61019100Y-33324812D01*
X60999415Y-33391851D01*
X60982781Y-33412493D01*
X57668353Y-36726920D01*
X57607030Y-36760405D01*
X57594556Y-36762459D01*
X57427949Y-36781230D01*
X57427945Y-36781231D01*
X57257676Y-36840811D01*
X57104937Y-36936784D01*
X56977384Y-37064337D01*
X56881411Y-37217076D01*
X56821831Y-37387345D01*
X56821830Y-37387350D01*
X56801635Y-37566596D01*
X56801635Y-37566603D01*
X56821830Y-37745849D01*
X56821831Y-37745854D01*
X56881411Y-37916123D01*
X56977384Y-38068862D01*
X57104938Y-38196416D01*
X57257678Y-38292389D01*
X57427945Y-38351968D01*
X57427950Y-38351969D01*
X57607196Y-38372165D01*
X57607200Y-38372165D01*
X57607204Y-38372165D01*
X57786449Y-38351969D01*
X57786452Y-38351968D01*
X57786455Y-38351968D01*
X57956722Y-38292389D01*
X58109462Y-38196416D01*
X58152459Y-38153419D01*
X58213782Y-38119934D01*
X58240140Y-38117100D01*
X59944013Y-38117100D01*
X60011052Y-38136785D01*
X60031694Y-38153419D01*
X61880681Y-40002405D01*
X61914166Y-40063728D01*
X61917000Y-40090086D01*
X61917000Y-40273560D01*
X61897315Y-40340599D01*
X61844511Y-40386354D01*
X61775353Y-40396298D01*
X61711797Y-40367273D01*
X61674023Y-40308495D01*
X61672111Y-40301163D01*
X61671786Y-40299744D01*
X61671786Y-40299739D01*
X61617789Y-40145425D01*
X61530808Y-40006996D01*
X61415204Y-39891392D01*
X61393891Y-39878000D01*
X61276774Y-39804410D01*
X61124144Y-39751003D01*
X61122461Y-39750414D01*
X61122460Y-39750413D01*
X61122455Y-39750412D01*
X60960004Y-39732109D01*
X60959996Y-39732109D01*
X60797544Y-39750412D01*
X60643225Y-39804410D01*
X60504795Y-39891392D01*
X60496207Y-39899981D01*
X60434884Y-39933466D01*
X60408526Y-39936300D01*
X55407708Y-39936300D01*
X55280412Y-39970408D01*
X55166286Y-40036300D01*
X55166283Y-40036302D01*
X53197002Y-42005583D01*
X53197000Y-42005586D01*
X53131108Y-42119712D01*
X53097000Y-42247008D01*
X53097000Y-44122115D01*
X53077315Y-44189154D01*
X53025406Y-44234497D01*
X52969859Y-44260399D01*
X52790621Y-44385902D01*
X52635902Y-44540621D01*
X52510400Y-44719857D01*
X52510398Y-44719861D01*
X52439882Y-44871083D01*
X52393709Y-44923522D01*
X52326516Y-44942674D01*
X52259635Y-44922458D01*
X52215118Y-44871083D01*
X52180572Y-44797000D01*
X52144602Y-44719862D01*
X52144600Y-44719859D01*
X52144599Y-44719857D01*
X52019099Y-44540624D01*
X51954895Y-44476420D01*
X51864377Y-44385902D01*
X51685142Y-44260400D01*
X51685138Y-44260397D01*
X51559857Y-44201978D01*
X51486830Y-44167925D01*
X51486826Y-44167924D01*
X51486822Y-44167922D01*
X51275477Y-44111293D01*
X51057502Y-44092223D01*
X51057498Y-44092223D01*
X50947311Y-44101863D01*
X50839523Y-44111293D01*
X50839520Y-44111293D01*
X50628177Y-44167922D01*
X50628170Y-44167924D01*
X50628170Y-44167925D01*
X50603131Y-44179600D01*
X50429861Y-44260398D01*
X50429857Y-44260400D01*
X50250621Y-44385902D01*
X50095902Y-44540621D01*
X49970400Y-44719857D01*
X49970398Y-44719861D01*
X49899882Y-44871083D01*
X49853709Y-44923522D01*
X49786516Y-44942674D01*
X49719635Y-44922458D01*
X49675118Y-44871083D01*
X49640572Y-44797000D01*
X49604602Y-44719862D01*
X49604600Y-44719859D01*
X49604599Y-44719857D01*
X49479099Y-44540624D01*
X49414895Y-44476420D01*
X49324377Y-44385902D01*
X49145142Y-44260400D01*
X49145138Y-44260397D01*
X49019857Y-44201978D01*
X48946830Y-44167925D01*
X48946826Y-44167924D01*
X48946822Y-44167922D01*
X48735477Y-44111293D01*
X48517502Y-44092223D01*
X48517498Y-44092223D01*
X48407311Y-44101863D01*
X48299523Y-44111293D01*
X48299520Y-44111293D01*
X48088177Y-44167922D01*
X48088170Y-44167924D01*
X48088170Y-44167925D01*
X48063131Y-44179600D01*
X47889861Y-44260398D01*
X47889857Y-44260400D01*
X47710621Y-44385902D01*
X47555902Y-44540621D01*
X47430400Y-44719857D01*
X47430398Y-44719861D01*
X47359882Y-44871083D01*
X47313709Y-44923522D01*
X47246516Y-44942674D01*
X47179635Y-44922458D01*
X47135118Y-44871083D01*
X47100572Y-44797000D01*
X47064602Y-44719862D01*
X47064600Y-44719859D01*
X47064599Y-44719857D01*
X46939099Y-44540624D01*
X46874895Y-44476420D01*
X46784377Y-44385902D01*
X46605142Y-44260400D01*
X46605138Y-44260397D01*
X46479857Y-44201978D01*
X46406830Y-44167925D01*
X46406826Y-44167924D01*
X46406822Y-44167922D01*
X46195477Y-44111293D01*
X45977502Y-44092223D01*
X45977498Y-44092223D01*
X45867311Y-44101863D01*
X45759523Y-44111293D01*
X45759520Y-44111293D01*
X45548177Y-44167922D01*
X45548170Y-44167924D01*
X45548170Y-44167925D01*
X45524582Y-44178923D01*
X45370905Y-44250585D01*
X45301827Y-44261077D01*
X45238043Y-44232557D01*
X45199804Y-44174081D01*
X45194500Y-44138203D01*
X45194500Y-41935933D01*
X45214185Y-41868894D01*
X45230814Y-41848257D01*
X55425508Y-31653562D01*
X55486829Y-31620079D01*
X55556521Y-31625063D01*
X55612454Y-31666935D01*
X55636407Y-31727361D01*
X55653430Y-31878450D01*
X55653431Y-31878454D01*
X55713011Y-32048723D01*
X55792299Y-32174908D01*
X55808984Y-32201462D01*
X55936538Y-32329016D01*
X55994882Y-32365676D01*
X56066064Y-32410403D01*
X56089278Y-32424989D01*
X56223968Y-32472119D01*
X56259545Y-32484568D01*
X56259550Y-32484569D01*
X56438796Y-32504765D01*
X56438800Y-32504765D01*
X56438804Y-32504765D01*
X56618049Y-32484569D01*
X56618052Y-32484568D01*
X56618055Y-32484568D01*
X56788322Y-32424989D01*
X56941062Y-32329016D01*
X57024059Y-32246019D01*
X57085382Y-32212534D01*
X57111740Y-32209700D01*
X57522006Y-32209700D01*
X57522009Y-32209700D01*
X57651846Y-32174910D01*
X57768254Y-32107702D01*
X57863302Y-32012654D01*
X59267833Y-30608121D01*
X59329154Y-30574638D01*
X59369395Y-30572584D01*
X59385200Y-30574365D01*
X59385201Y-30574364D01*
X59385202Y-30574365D01*
X59385203Y-30574365D01*
X59564449Y-30554169D01*
X59564452Y-30554168D01*
X59564455Y-30554168D01*
X59734722Y-30494589D01*
X59887462Y-30398616D01*
X60015016Y-30271062D01*
X60110989Y-30118322D01*
X60170568Y-29948055D01*
X60174279Y-29915122D01*
X60190765Y-29768803D01*
X60190765Y-29768796D01*
X60170569Y-29589550D01*
X60170568Y-29589545D01*
X60152388Y-29537589D01*
X60110989Y-29419278D01*
X60098734Y-29399775D01*
X60033298Y-29295634D01*
X60015016Y-29266538D01*
X59887462Y-29138984D01*
X59734723Y-29043011D01*
X59564454Y-28983431D01*
X59564449Y-28983430D01*
X59385204Y-28963235D01*
X59385196Y-28963235D01*
X59205950Y-28983430D01*
X59205945Y-28983431D01*
X59035676Y-29043011D01*
X58882937Y-29138984D01*
X58755384Y-29266537D01*
X58659411Y-29419276D01*
X58599831Y-29589545D01*
X58599830Y-29589550D01*
X58579635Y-29768796D01*
X58579635Y-29768803D01*
X58581415Y-29784602D01*
X58569360Y-29853424D01*
X58545876Y-29886166D01*
X57279663Y-31152381D01*
X57218340Y-31185866D01*
X57191982Y-31188700D01*
X57111740Y-31188700D01*
X57044701Y-31169015D01*
X57024059Y-31152381D01*
X56941062Y-31069384D01*
X56788323Y-30973411D01*
X56618054Y-30913831D01*
X56618050Y-30913830D01*
X56466961Y-30896807D01*
X56402547Y-30869740D01*
X56362992Y-30812145D01*
X56360855Y-30742308D01*
X56393162Y-30685908D01*
X57433876Y-29645194D01*
X57495197Y-29611711D01*
X57507661Y-29609658D01*
X57607995Y-29598353D01*
X57668055Y-29591587D01*
X57668056Y-29591586D01*
X57668061Y-29591586D01*
X57822375Y-29537589D01*
X57960804Y-29450608D01*
X58076408Y-29335004D01*
X58163389Y-29196575D01*
X58217386Y-29042261D01*
X58217387Y-29042255D01*
X58235691Y-28879803D01*
X58235691Y-28879796D01*
X58217387Y-28717344D01*
X58217386Y-28717342D01*
X58217386Y-28717339D01*
X58163389Y-28563025D01*
X58076408Y-28424596D01*
X58023864Y-28372052D01*
X57991770Y-28316462D01*
X57983805Y-28286736D01*
X57962674Y-28207873D01*
X57898098Y-28096026D01*
X53714419Y-23912347D01*
X53680934Y-23851024D01*
X53678100Y-23824666D01*
X53678100Y-14434416D01*
X53697785Y-14367377D01*
X53750589Y-14321622D01*
X53819747Y-14311678D01*
X53868073Y-14329423D01*
X54006475Y-14416388D01*
X54176745Y-14475968D01*
X54176750Y-14475969D01*
X54355996Y-14496165D01*
X54356000Y-14496165D01*
X54356004Y-14496165D01*
X54535249Y-14475969D01*
X54535252Y-14475968D01*
X54535255Y-14475968D01*
X54705522Y-14416389D01*
X54858262Y-14320416D01*
X54941259Y-14237419D01*
X55002582Y-14203934D01*
X55028940Y-14201100D01*
X55490006Y-14201100D01*
X55490009Y-14201100D01*
X55619846Y-14166310D01*
X55736254Y-14099102D01*
X55831302Y-14004054D01*
X56080537Y-13754819D01*
X56141860Y-13721334D01*
X56168218Y-13718500D01*
X59270013Y-13718500D01*
X59337052Y-13738185D01*
G37*
%TD.AperFunction*%
%TA.AperFunction,Conductor*%
G36*
X61837523Y-40535108D02*
G01*
X61893024Y-40577551D01*
X61916768Y-40643262D01*
X61917000Y-40650839D01*
X61917000Y-43989481D01*
X61897315Y-44056520D01*
X61844511Y-44102275D01*
X61775353Y-44112219D01*
X61740595Y-44101863D01*
X61680992Y-44074070D01*
X61680986Y-44074067D01*
X61467500Y-44016864D01*
X61467500Y-44914488D01*
X61410493Y-44881575D01*
X61283326Y-44847500D01*
X61151674Y-44847500D01*
X61024507Y-44881575D01*
X60967500Y-44914488D01*
X60967500Y-44016864D01*
X60967499Y-44016864D01*
X60754013Y-44074067D01*
X60754007Y-44074070D01*
X60539922Y-44173899D01*
X60539920Y-44173900D01*
X60346426Y-44309386D01*
X60346420Y-44309391D01*
X60179391Y-44476420D01*
X60179386Y-44476426D01*
X60043900Y-44669920D01*
X60043899Y-44669922D01*
X60004989Y-44753366D01*
X59958817Y-44805805D01*
X59891623Y-44824957D01*
X59824742Y-44804741D01*
X59780225Y-44753366D01*
X59764602Y-44719862D01*
X59764600Y-44719859D01*
X59764599Y-44719857D01*
X59639099Y-44540624D01*
X59574895Y-44476420D01*
X59484377Y-44385902D01*
X59305142Y-44260400D01*
X59305138Y-44260397D01*
X59179857Y-44201978D01*
X59106830Y-44167925D01*
X59106826Y-44167924D01*
X59106822Y-44167922D01*
X58895477Y-44111293D01*
X58677502Y-44092223D01*
X58677498Y-44092223D01*
X58567311Y-44101863D01*
X58459523Y-44111293D01*
X58459520Y-44111293D01*
X58390165Y-44129877D01*
X58320315Y-44128214D01*
X58262453Y-44089051D01*
X58234949Y-44024822D01*
X58246536Y-43955920D01*
X58270388Y-43922424D01*
X59310013Y-42882799D01*
X59371334Y-42849316D01*
X59383809Y-42847262D01*
X59528255Y-42830987D01*
X59528256Y-42830986D01*
X59528261Y-42830986D01*
X59682575Y-42776989D01*
X59821004Y-42690008D01*
X59936608Y-42574404D01*
X60023589Y-42435975D01*
X60077586Y-42281661D01*
X60080691Y-42254102D01*
X60095891Y-42119203D01*
X60095891Y-42119196D01*
X60077587Y-41956744D01*
X60077586Y-41956742D01*
X60077586Y-41956739D01*
X60023589Y-41802425D01*
X59936608Y-41663996D01*
X59821004Y-41548392D01*
X59731372Y-41492072D01*
X59682574Y-41461410D01*
X59528255Y-41407412D01*
X59365804Y-41389109D01*
X59365796Y-41389109D01*
X59203344Y-41407412D01*
X59049025Y-41461410D01*
X58910595Y-41548392D01*
X58794992Y-41663995D01*
X58708010Y-41802425D01*
X58654012Y-41956744D01*
X58637737Y-42101189D01*
X58610670Y-42165603D01*
X58602198Y-42174986D01*
X56650916Y-44126268D01*
X56589593Y-44159753D01*
X56531142Y-44158362D01*
X56355477Y-44111293D01*
X56137502Y-44092223D01*
X56137498Y-44092223D01*
X56027311Y-44101863D01*
X55919523Y-44111293D01*
X55919520Y-44111293D01*
X55708177Y-44167922D01*
X55708170Y-44167924D01*
X55708170Y-44167925D01*
X55683131Y-44179600D01*
X55509861Y-44260398D01*
X55509857Y-44260400D01*
X55330621Y-44385902D01*
X55175902Y-44540621D01*
X55050400Y-44719857D01*
X55050398Y-44719861D01*
X54979882Y-44871083D01*
X54933709Y-44923522D01*
X54866516Y-44942674D01*
X54799635Y-44922458D01*
X54755118Y-44871083D01*
X54720572Y-44797000D01*
X54684602Y-44719862D01*
X54684600Y-44719859D01*
X54684599Y-44719857D01*
X54559099Y-44540624D01*
X54494895Y-44476420D01*
X54404377Y-44385902D01*
X54225139Y-44260398D01*
X54169593Y-44234496D01*
X54117155Y-44188324D01*
X54098000Y-44122115D01*
X54098000Y-42571576D01*
X54117685Y-42504537D01*
X54134319Y-42483895D01*
X55644595Y-40973619D01*
X55705918Y-40940134D01*
X55732276Y-40937300D01*
X60357726Y-40937300D01*
X60424765Y-40956985D01*
X60445407Y-40973619D01*
X60504796Y-41033008D01*
X60643225Y-41119989D01*
X60797539Y-41173986D01*
X60797542Y-41173986D01*
X60797544Y-41173987D01*
X60959996Y-41192291D01*
X60960000Y-41192291D01*
X60960004Y-41192291D01*
X61122455Y-41173987D01*
X61122456Y-41173986D01*
X61122461Y-41173986D01*
X61276775Y-41119989D01*
X61415204Y-41033008D01*
X61530808Y-40917404D01*
X61617789Y-40778975D01*
X61671786Y-40624661D01*
X61671786Y-40624654D01*
X61671788Y-40624651D01*
X61672111Y-40623240D01*
X61672569Y-40622420D01*
X61674085Y-40618089D01*
X61674844Y-40618354D01*
X61706223Y-40562263D01*
X61767886Y-40529409D01*
X61837523Y-40535108D01*
G37*
%TD.AperFunction*%
%TA.AperFunction,Conductor*%
G36*
X87432032Y-13067804D02*
G01*
X87476380Y-13096305D01*
X89755785Y-15375710D01*
X89755786Y-15375711D01*
X89755788Y-15375712D01*
X89873589Y-15443724D01*
X89873590Y-15443724D01*
X89873595Y-15443727D01*
X89881315Y-15448184D01*
X90021325Y-15485700D01*
X90021326Y-15485700D01*
X90166274Y-15485700D01*
X91325519Y-15485700D01*
X91392558Y-15505385D01*
X91438313Y-15558189D01*
X91448257Y-15627347D01*
X91442561Y-15650655D01*
X91391231Y-15797345D01*
X91391230Y-15797350D01*
X91371035Y-15976596D01*
X91371035Y-15976603D01*
X91391230Y-16155849D01*
X91391231Y-16155854D01*
X91450811Y-16326123D01*
X91546784Y-16478862D01*
X91629781Y-16561859D01*
X91663266Y-16623182D01*
X91666100Y-16649540D01*
X91666100Y-20184009D01*
X91674968Y-20217104D01*
X91700890Y-20313847D01*
X91700891Y-20313848D01*
X91749312Y-20397716D01*
X91768095Y-20430250D01*
X91768100Y-20430256D01*
X95858476Y-24520632D01*
X95891961Y-24581955D01*
X95894015Y-24622193D01*
X95892236Y-24637996D01*
X95892235Y-24638003D01*
X95912430Y-24817249D01*
X95912431Y-24817254D01*
X95972011Y-24987523D01*
X96055626Y-25120594D01*
X96067984Y-25140262D01*
X96195538Y-25267816D01*
X96285430Y-25324299D01*
X96329213Y-25351810D01*
X96348278Y-25363789D01*
X96469133Y-25406078D01*
X96518545Y-25423368D01*
X96518550Y-25423369D01*
X96697796Y-25443565D01*
X96697800Y-25443565D01*
X96697804Y-25443565D01*
X96877049Y-25423369D01*
X96877052Y-25423368D01*
X96877055Y-25423368D01*
X97047322Y-25363789D01*
X97200062Y-25267816D01*
X97327616Y-25140262D01*
X97423589Y-24987522D01*
X97483168Y-24817255D01*
X97487142Y-24781986D01*
X97503365Y-24638003D01*
X97503365Y-24637996D01*
X97483169Y-24458750D01*
X97483168Y-24458745D01*
X97457015Y-24384003D01*
X97423589Y-24288478D01*
X97420680Y-24283849D01*
X97346476Y-24165754D01*
X97327616Y-24135738D01*
X97200062Y-24008184D01*
X97187246Y-24000131D01*
X97047323Y-23912211D01*
X96877054Y-23852631D01*
X96877049Y-23852630D01*
X96697804Y-23832435D01*
X96697801Y-23832435D01*
X96697800Y-23832435D01*
X96681993Y-23834215D01*
X96613173Y-23822160D01*
X96580432Y-23798676D01*
X92723419Y-19941663D01*
X92689934Y-19880340D01*
X92687100Y-19853982D01*
X92687100Y-16649540D01*
X92706785Y-16582501D01*
X92723419Y-16561859D01*
X92763297Y-16521981D01*
X92806416Y-16478862D01*
X92902389Y-16326122D01*
X92961968Y-16155855D01*
X92961969Y-16155849D01*
X92982165Y-15976603D01*
X92982165Y-15976596D01*
X92961969Y-15797350D01*
X92961968Y-15797345D01*
X92910639Y-15650655D01*
X92907078Y-15580876D01*
X92941807Y-15520248D01*
X93003800Y-15488021D01*
X93027681Y-15485700D01*
X95353660Y-15485700D01*
X95420699Y-15505385D01*
X95441341Y-15522019D01*
X95484338Y-15565016D01*
X95527146Y-15591914D01*
X95635080Y-15659734D01*
X95637078Y-15660989D01*
X95763026Y-15705060D01*
X95807345Y-15720568D01*
X95807350Y-15720569D01*
X95986596Y-15740765D01*
X95986600Y-15740765D01*
X95986603Y-15740765D01*
X96028334Y-15736063D01*
X96097156Y-15748117D01*
X96148536Y-15795466D01*
X96166160Y-15863077D01*
X96144434Y-15929483D01*
X96124112Y-15951310D01*
X96124262Y-15951460D01*
X96120076Y-15955645D01*
X96119537Y-15956225D01*
X96119339Y-15956382D01*
X95991784Y-16083937D01*
X95895811Y-16236676D01*
X95836231Y-16406945D01*
X95836230Y-16406950D01*
X95816035Y-16586196D01*
X95816035Y-16586203D01*
X95836230Y-16765449D01*
X95836231Y-16765454D01*
X95895811Y-16935723D01*
X95962193Y-17041368D01*
X95991784Y-17088462D01*
X96119338Y-17216016D01*
X96177682Y-17252676D01*
X96258529Y-17303476D01*
X96272078Y-17311989D01*
X96360748Y-17343016D01*
X96442345Y-17371568D01*
X96442350Y-17371569D01*
X96621596Y-17391765D01*
X96621600Y-17391765D01*
X96621604Y-17391765D01*
X96800849Y-17371569D01*
X96800852Y-17371568D01*
X96800855Y-17371568D01*
X96971122Y-17311989D01*
X97123862Y-17216016D01*
X97251416Y-17088462D01*
X97347389Y-16935722D01*
X97406968Y-16765455D01*
X97406969Y-16765449D01*
X97427165Y-16586203D01*
X97427165Y-16586196D01*
X97406969Y-16406950D01*
X97406968Y-16406945D01*
X97391828Y-16363678D01*
X97347389Y-16236678D01*
X97345687Y-16233970D01*
X97259224Y-16096365D01*
X97251416Y-16083938D01*
X97123862Y-15956384D01*
X97113926Y-15950141D01*
X96971123Y-15860411D01*
X96800854Y-15800831D01*
X96800849Y-15800830D01*
X96621604Y-15780635D01*
X96621602Y-15780635D01*
X96621600Y-15780635D01*
X96611431Y-15781780D01*
X96579862Y-15785337D01*
X96511040Y-15773280D01*
X96459662Y-15725930D01*
X96442039Y-15658319D01*
X96463767Y-15591914D01*
X96484088Y-15570090D01*
X96483938Y-15569940D01*
X96488152Y-15565725D01*
X96488680Y-15565159D01*
X96488844Y-15565026D01*
X96488862Y-15565016D01*
X96531859Y-15522019D01*
X96593182Y-15488534D01*
X96619540Y-15485700D01*
X97155013Y-15485700D01*
X97222052Y-15505385D01*
X97242694Y-15522019D01*
X97888981Y-16168306D01*
X97922466Y-16229629D01*
X97925300Y-16255987D01*
X97925300Y-19833675D01*
X97926460Y-19838004D01*
X97939683Y-19887355D01*
X97939684Y-19887355D01*
X97939684Y-19887356D01*
X97962816Y-19973685D01*
X98035290Y-20099215D01*
X100880986Y-22944910D01*
X100880987Y-22944911D01*
X100880989Y-22944912D01*
X100943750Y-22981147D01*
X101006515Y-23017384D01*
X101146525Y-23054900D01*
X101146526Y-23054900D01*
X101146528Y-23054900D01*
X108149472Y-23054900D01*
X108149474Y-23054900D01*
X108149475Y-23054900D01*
X108289485Y-23017384D01*
X108415015Y-22944910D01*
X109167905Y-22192020D01*
X109229228Y-22158535D01*
X109255586Y-22155701D01*
X113396900Y-22155701D01*
X113463939Y-22175386D01*
X113509694Y-22228190D01*
X113520900Y-22279701D01*
X113520900Y-22733013D01*
X113501215Y-22800052D01*
X113484581Y-22820694D01*
X110379691Y-25925583D01*
X110379687Y-25925588D01*
X110331184Y-26009600D01*
X110319038Y-26030638D01*
X110307216Y-26051115D01*
X110269700Y-26191125D01*
X110269700Y-26191127D01*
X110269700Y-32742660D01*
X110250015Y-32809699D01*
X110233381Y-32830341D01*
X110190384Y-32873337D01*
X110094411Y-33026076D01*
X110034831Y-33196345D01*
X110034830Y-33196349D01*
X110016059Y-33362956D01*
X109988993Y-33427369D01*
X109980520Y-33436753D01*
X108418694Y-34998581D01*
X108357371Y-35032066D01*
X108331013Y-35034900D01*
X98295940Y-35034900D01*
X98228901Y-35015215D01*
X98208259Y-34998581D01*
X98165262Y-34955584D01*
X98012523Y-34859611D01*
X97842254Y-34800031D01*
X97842249Y-34800030D01*
X97663004Y-34779835D01*
X97662996Y-34779835D01*
X97483750Y-34800030D01*
X97483745Y-34800031D01*
X97361744Y-34842722D01*
X97346055Y-34848212D01*
X97340539Y-34850142D01*
X97299584Y-34857100D01*
X76036300Y-34857100D01*
X75969261Y-34837415D01*
X75923506Y-34784611D01*
X75912300Y-34733100D01*
X75912300Y-32306740D01*
X75931985Y-32239701D01*
X75948619Y-32219059D01*
X75966216Y-32201462D01*
X75991616Y-32176062D01*
X76087589Y-32023322D01*
X76147168Y-31853055D01*
X76147169Y-31853049D01*
X76167365Y-31673803D01*
X76167365Y-31673796D01*
X76147169Y-31494550D01*
X76147168Y-31494545D01*
X76087588Y-31324276D01*
X76025580Y-31225591D01*
X75991616Y-31171538D01*
X75864062Y-31043984D01*
X75807136Y-31008215D01*
X75711323Y-30948011D01*
X75541054Y-30888431D01*
X75541049Y-30888430D01*
X75361804Y-30868235D01*
X75361796Y-30868235D01*
X75182550Y-30888430D01*
X75182545Y-30888431D01*
X75012276Y-30948011D01*
X74859537Y-31043984D01*
X74731984Y-31171537D01*
X74636011Y-31324276D01*
X74576431Y-31494545D01*
X74576430Y-31494550D01*
X74556235Y-31673796D01*
X74556235Y-31673803D01*
X74576430Y-31853049D01*
X74576431Y-31853054D01*
X74636011Y-32023323D01*
X74731984Y-32176062D01*
X74774981Y-32219059D01*
X74808466Y-32280382D01*
X74811300Y-32306740D01*
X74811300Y-36423613D01*
X74791615Y-36490652D01*
X74774981Y-36511294D01*
X66525594Y-44760681D01*
X66464271Y-44794166D01*
X66437913Y-44797000D01*
X64959568Y-44797000D01*
X64892529Y-44777315D01*
X64847185Y-44725403D01*
X64844602Y-44719862D01*
X64719098Y-44540623D01*
X64564377Y-44385902D01*
X64385139Y-44260398D01*
X64385138Y-44260397D01*
X64385136Y-44260396D01*
X64379590Y-44257810D01*
X64327153Y-44211635D01*
X64308000Y-44145430D01*
X64308000Y-40462196D01*
X64725709Y-40462196D01*
X64725709Y-40462203D01*
X64744012Y-40624655D01*
X64798010Y-40778974D01*
X64864451Y-40884713D01*
X64884992Y-40917404D01*
X65000596Y-41033008D01*
X65139025Y-41119989D01*
X65293339Y-41173986D01*
X65293342Y-41173986D01*
X65293344Y-41173987D01*
X65455796Y-41192291D01*
X65455800Y-41192291D01*
X65455804Y-41192291D01*
X65618255Y-41173987D01*
X65618256Y-41173986D01*
X65618261Y-41173986D01*
X65772575Y-41119989D01*
X65911004Y-41033008D01*
X66026608Y-40917404D01*
X66113589Y-40778975D01*
X66167586Y-40624661D01*
X66168327Y-40618089D01*
X66183862Y-40480209D01*
X66210928Y-40415795D01*
X66219391Y-40406421D01*
X71571300Y-35054514D01*
X71582624Y-35034900D01*
X71637192Y-34940386D01*
X71671300Y-34813092D01*
X71671300Y-33469874D01*
X71690985Y-33402835D01*
X71707619Y-33382193D01*
X71714216Y-33375596D01*
X71741608Y-33348204D01*
X71828589Y-33209775D01*
X71882586Y-33055461D01*
X71889324Y-32995659D01*
X71900891Y-32893003D01*
X71900891Y-32892996D01*
X71882587Y-32730544D01*
X71882586Y-32730542D01*
X71882586Y-32730539D01*
X71828589Y-32576225D01*
X71741608Y-32437796D01*
X71626004Y-32322192D01*
X71559464Y-32280382D01*
X71487574Y-32235210D01*
X71333255Y-32181212D01*
X71170804Y-32162909D01*
X71170796Y-32162909D01*
X71008344Y-32181212D01*
X70854025Y-32235210D01*
X70715595Y-32322192D01*
X70599992Y-32437795D01*
X70513010Y-32576225D01*
X70459012Y-32730544D01*
X70440709Y-32892996D01*
X70440709Y-32893003D01*
X70459012Y-33055455D01*
X70513010Y-33209774D01*
X70599992Y-33348204D01*
X70633981Y-33382193D01*
X70667466Y-33443516D01*
X70670300Y-33469874D01*
X70670300Y-34488523D01*
X70650615Y-34555562D01*
X70633981Y-34576204D01*
X65511586Y-39698598D01*
X65450263Y-39732083D01*
X65437789Y-39734137D01*
X65293344Y-39750412D01*
X65139025Y-39804410D01*
X65000595Y-39891392D01*
X64884992Y-40006995D01*
X64798010Y-40145425D01*
X64744012Y-40299744D01*
X64725709Y-40462196D01*
X64308000Y-40462196D01*
X64308000Y-37853227D01*
X64308000Y-37853225D01*
X64270484Y-37713215D01*
X64248048Y-37674354D01*
X64198010Y-37587685D01*
X63197819Y-36587494D01*
X63164334Y-36526171D01*
X63161500Y-36499813D01*
X63161500Y-36148880D01*
X63181185Y-36081841D01*
X63233989Y-36036086D01*
X63303147Y-36026142D01*
X63366703Y-36055167D01*
X63390492Y-36082906D01*
X63411792Y-36116804D01*
X63527396Y-36232408D01*
X63665825Y-36319389D01*
X63820139Y-36373386D01*
X63820142Y-36373386D01*
X63820144Y-36373387D01*
X63982596Y-36391691D01*
X63982600Y-36391691D01*
X63982604Y-36391691D01*
X64145055Y-36373387D01*
X64145056Y-36373386D01*
X64145061Y-36373386D01*
X64299375Y-36319389D01*
X64437804Y-36232408D01*
X64553408Y-36116804D01*
X64640389Y-35978375D01*
X64694386Y-35824061D01*
X64712457Y-35663671D01*
X64739523Y-35599259D01*
X64747997Y-35589874D01*
X64772337Y-35565535D01*
X64832298Y-35505574D01*
X64896874Y-35393727D01*
X64930300Y-35268976D01*
X64930300Y-35139824D01*
X64930300Y-29210534D01*
X64949985Y-29143495D01*
X64966619Y-29122853D01*
X66327276Y-27762196D01*
X69120635Y-27762196D01*
X69120635Y-27762203D01*
X69140830Y-27941449D01*
X69140831Y-27941454D01*
X69200411Y-28111723D01*
X69255367Y-28199184D01*
X69296384Y-28264462D01*
X69423938Y-28392016D01*
X69456634Y-28412560D01*
X69569094Y-28483224D01*
X69576678Y-28487989D01*
X69638073Y-28509472D01*
X69746945Y-28547568D01*
X69746950Y-28547569D01*
X69926196Y-28567765D01*
X69926200Y-28567765D01*
X69926204Y-28567765D01*
X70105449Y-28547569D01*
X70105452Y-28547568D01*
X70105455Y-28547568D01*
X70275722Y-28487989D01*
X70428462Y-28392016D01*
X70556016Y-28264462D01*
X70651989Y-28111722D01*
X70711568Y-27941455D01*
X70711569Y-27941449D01*
X70731765Y-27762203D01*
X70731765Y-27762196D01*
X70711569Y-27582950D01*
X70711568Y-27582945D01*
X70665137Y-27450253D01*
X70651989Y-27412678D01*
X70556016Y-27259938D01*
X70428462Y-27132384D01*
X70275723Y-27036411D01*
X70105454Y-26976831D01*
X70105449Y-26976830D01*
X69926204Y-26956635D01*
X69926196Y-26956635D01*
X69746950Y-26976830D01*
X69746945Y-26976831D01*
X69576676Y-27036411D01*
X69423937Y-27132384D01*
X69296384Y-27259937D01*
X69200411Y-27412676D01*
X69140831Y-27582945D01*
X69140830Y-27582950D01*
X69120635Y-27762196D01*
X66327276Y-27762196D01*
X67375253Y-26714219D01*
X67436576Y-26680734D01*
X67462934Y-26677900D01*
X71446836Y-26677900D01*
X71446838Y-26677900D01*
X71571588Y-26644474D01*
X71673974Y-26585360D01*
X71741872Y-26568887D01*
X71807900Y-26591739D01*
X71851091Y-26646659D01*
X71853008Y-26651773D01*
X71869149Y-26697900D01*
X71892810Y-26765521D01*
X71967993Y-26885174D01*
X71988784Y-26918262D01*
X72116338Y-27045816D01*
X72206680Y-27102582D01*
X72264968Y-27139207D01*
X72269078Y-27141789D01*
X72439345Y-27201368D01*
X72439350Y-27201369D01*
X72518731Y-27210312D01*
X72618600Y-27221565D01*
X72634401Y-27219784D01*
X72703220Y-27231836D01*
X72735967Y-27255323D01*
X72914746Y-27434102D01*
X73031155Y-27501311D01*
X73160991Y-27536100D01*
X73160993Y-27536100D01*
X74783924Y-27536100D01*
X74850963Y-27555785D01*
X74896718Y-27608589D01*
X74906662Y-27677747D01*
X74877637Y-27741303D01*
X74871605Y-27747781D01*
X72395902Y-30223483D01*
X72395900Y-30223486D01*
X72330008Y-30337612D01*
X72295900Y-30464908D01*
X72295900Y-36063323D01*
X72276215Y-36130362D01*
X72259581Y-36151004D01*
X66578386Y-41832198D01*
X66517063Y-41865683D01*
X66504589Y-41867737D01*
X66360144Y-41884012D01*
X66205825Y-41938010D01*
X66067395Y-42024992D01*
X65951792Y-42140595D01*
X65864810Y-42279025D01*
X65810812Y-42433344D01*
X65792509Y-42595796D01*
X65792509Y-42595803D01*
X65810812Y-42758255D01*
X65864810Y-42912574D01*
X65864811Y-42912575D01*
X65951792Y-43051004D01*
X66067396Y-43166608D01*
X66205825Y-43253589D01*
X66360139Y-43307586D01*
X66360142Y-43307586D01*
X66360144Y-43307587D01*
X66522596Y-43325891D01*
X66522600Y-43325891D01*
X66522604Y-43325891D01*
X66685055Y-43307587D01*
X66685056Y-43307586D01*
X66685061Y-43307586D01*
X66839375Y-43253589D01*
X66977804Y-43166608D01*
X67093408Y-43051004D01*
X67180389Y-42912575D01*
X67234386Y-42758261D01*
X67237537Y-42730302D01*
X67250662Y-42613809D01*
X67277728Y-42549395D01*
X67286191Y-42540021D01*
X73196900Y-36629314D01*
X73262792Y-36515186D01*
X73296900Y-36387892D01*
X73296900Y-36256108D01*
X73296900Y-30789476D01*
X73316585Y-30722437D01*
X73333219Y-30701795D01*
X73885218Y-30149796D01*
X100134035Y-30149796D01*
X100134035Y-30149803D01*
X100154230Y-30329049D01*
X100154231Y-30329054D01*
X100213811Y-30499323D01*
X100261135Y-30574638D01*
X100309784Y-30652062D01*
X100437338Y-30779616D01*
X100590078Y-30875589D01*
X100760345Y-30935168D01*
X100760350Y-30935169D01*
X100939596Y-30955365D01*
X100939600Y-30955365D01*
X100939604Y-30955365D01*
X101118849Y-30935169D01*
X101118852Y-30935168D01*
X101118855Y-30935168D01*
X101289122Y-30875589D01*
X101441862Y-30779616D01*
X101569416Y-30652062D01*
X101665389Y-30499322D01*
X101724968Y-30329055D01*
X101724969Y-30329049D01*
X101745165Y-30149803D01*
X101745165Y-30149796D01*
X101724969Y-29970550D01*
X101724968Y-29970545D01*
X101696282Y-29888565D01*
X101665389Y-29800278D01*
X101569416Y-29647538D01*
X101441862Y-29519984D01*
X101377913Y-29479802D01*
X101289123Y-29424011D01*
X101118854Y-29364431D01*
X101118849Y-29364430D01*
X100939604Y-29344235D01*
X100939596Y-29344235D01*
X100760350Y-29364430D01*
X100760345Y-29364431D01*
X100590076Y-29424011D01*
X100437337Y-29519984D01*
X100309784Y-29647537D01*
X100213811Y-29800276D01*
X100154231Y-29970545D01*
X100154230Y-29970550D01*
X100134035Y-30149796D01*
X73885218Y-30149796D01*
X75405795Y-28629219D01*
X75467118Y-28595734D01*
X75493476Y-28592900D01*
X83022290Y-28592900D01*
X83022292Y-28592900D01*
X83149586Y-28558792D01*
X83263714Y-28492900D01*
X84424613Y-27331999D01*
X84485934Y-27298516D01*
X84498409Y-27296462D01*
X84642855Y-27280187D01*
X84642856Y-27280186D01*
X84642861Y-27280186D01*
X84797175Y-27226189D01*
X84935604Y-27139208D01*
X85051208Y-27023604D01*
X85138189Y-26885175D01*
X85192186Y-26730861D01*
X85197834Y-26680734D01*
X85210491Y-26568403D01*
X85210491Y-26568396D01*
X85192187Y-26405944D01*
X85192186Y-26405942D01*
X85192186Y-26405939D01*
X85138189Y-26251625D01*
X85051208Y-26113196D01*
X84935604Y-25997592D01*
X84835759Y-25934855D01*
X84797174Y-25910610D01*
X84642855Y-25856612D01*
X84480404Y-25838309D01*
X84480396Y-25838309D01*
X84317944Y-25856612D01*
X84163625Y-25910610D01*
X84025195Y-25997592D01*
X83909592Y-26113195D01*
X83822610Y-26251625D01*
X83768612Y-26405944D01*
X83752337Y-26550389D01*
X83725270Y-26614803D01*
X83716798Y-26624186D01*
X82785405Y-27555581D01*
X82724082Y-27589066D01*
X82697724Y-27591900D01*
X76426418Y-27591900D01*
X76359379Y-27572215D01*
X76313624Y-27519411D01*
X76303680Y-27450253D01*
X76332705Y-27386697D01*
X76338737Y-27380219D01*
X76984737Y-26734219D01*
X77046060Y-26700734D01*
X77072418Y-26697900D01*
X81673860Y-26697900D01*
X81740899Y-26717585D01*
X81761541Y-26734219D01*
X81844538Y-26817216D01*
X81997278Y-26913189D01*
X82121440Y-26956635D01*
X82167545Y-26972768D01*
X82167550Y-26972769D01*
X82346796Y-26992965D01*
X82346800Y-26992965D01*
X82346804Y-26992965D01*
X82526049Y-26972769D01*
X82526052Y-26972768D01*
X82526055Y-26972768D01*
X82696322Y-26913189D01*
X82849062Y-26817216D01*
X82976616Y-26689662D01*
X83072589Y-26536922D01*
X83132168Y-26366655D01*
X83136706Y-26326380D01*
X83152365Y-26187403D01*
X83152365Y-26187396D01*
X83132169Y-26008150D01*
X83132168Y-26008145D01*
X83106522Y-25934854D01*
X83072589Y-25837878D01*
X83040107Y-25786184D01*
X83020888Y-25755596D01*
X82976616Y-25685138D01*
X82882622Y-25591144D01*
X82849137Y-25529821D01*
X82854121Y-25460129D01*
X82895993Y-25404196D01*
X82905206Y-25397924D01*
X83024544Y-25324315D01*
X83148514Y-25200345D01*
X83240555Y-25051124D01*
X83240557Y-25051119D01*
X83295704Y-24884697D01*
X83295705Y-24884690D01*
X83306198Y-24781986D01*
X83306199Y-24781973D01*
X83306199Y-24507000D01*
X82180199Y-24507000D01*
X82113160Y-24487315D01*
X82067405Y-24434511D01*
X82056199Y-24383000D01*
X82056199Y-24007000D01*
X82556199Y-24007000D01*
X83306198Y-24007000D01*
X83306198Y-23732028D01*
X83306197Y-23732013D01*
X83295704Y-23629302D01*
X83240557Y-23462880D01*
X83240555Y-23462875D01*
X83148514Y-23313654D01*
X83024544Y-23189684D01*
X82875323Y-23097643D01*
X82875318Y-23097641D01*
X82708896Y-23042494D01*
X82708889Y-23042493D01*
X82606185Y-23032000D01*
X82556199Y-23032000D01*
X82556199Y-24007000D01*
X82056199Y-24007000D01*
X82056199Y-23032000D01*
X82045679Y-23021480D01*
X82014461Y-23012314D01*
X81968706Y-22959510D01*
X81957500Y-22907999D01*
X81957500Y-19952926D01*
X81957500Y-19952924D01*
X81919984Y-19812914D01*
X81862673Y-19713649D01*
X81847510Y-19687385D01*
X81847508Y-19687383D01*
X81847507Y-19687381D01*
X81847506Y-19687380D01*
X81245880Y-19085755D01*
X81212395Y-19024432D01*
X81210341Y-19011957D01*
X81208257Y-18993462D01*
X81198041Y-18902784D01*
X81191570Y-18845349D01*
X81191569Y-18845345D01*
X81157237Y-18747230D01*
X81131990Y-18675078D01*
X81129081Y-18670449D01*
X81036016Y-18522337D01*
X80993020Y-18479341D01*
X80959535Y-18418018D01*
X80956701Y-18391660D01*
X80956701Y-15770814D01*
X80976386Y-15703775D01*
X81029190Y-15658020D01*
X81098348Y-15648076D01*
X81149073Y-15669878D01*
X81149908Y-15668525D01*
X81305274Y-15764356D01*
X81305279Y-15764358D01*
X81471701Y-15819505D01*
X81471708Y-15819506D01*
X81574418Y-15829999D01*
X82124399Y-15829999D01*
X82174371Y-15829999D01*
X82174385Y-15829998D01*
X82277096Y-15819505D01*
X82443518Y-15764358D01*
X82443523Y-15764356D01*
X82592744Y-15672315D01*
X82716714Y-15548345D01*
X82808755Y-15399124D01*
X82808757Y-15399119D01*
X82863904Y-15232697D01*
X82863905Y-15232690D01*
X82874398Y-15129986D01*
X82874399Y-15129973D01*
X82874399Y-14855000D01*
X82124399Y-14855000D01*
X82124399Y-15829999D01*
X81574418Y-15829999D01*
X81624398Y-15829998D01*
X81624399Y-15829998D01*
X81624399Y-14479000D01*
X81644084Y-14411961D01*
X81696888Y-14366206D01*
X81748399Y-14355000D01*
X82874398Y-14355000D01*
X82874398Y-14085700D01*
X82894083Y-14018661D01*
X82946887Y-13972906D01*
X82998398Y-13961700D01*
X86280072Y-13961700D01*
X86280074Y-13961700D01*
X86280075Y-13961700D01*
X86420085Y-13924184D01*
X86453486Y-13904900D01*
X86545615Y-13851710D01*
X87301018Y-13096304D01*
X87362341Y-13062820D01*
X87432032Y-13067804D01*
G37*
%TD.AperFunction*%
%TA.AperFunction,Conductor*%
G36*
X39018099Y-38401585D02*
G01*
X39038741Y-38418219D01*
X39121738Y-38501216D01*
X39274478Y-38597189D01*
X39444745Y-38656768D01*
X39444750Y-38656769D01*
X39623996Y-38676965D01*
X39624000Y-38676965D01*
X39624004Y-38676965D01*
X39803249Y-38656769D01*
X39803252Y-38656768D01*
X39803255Y-38656768D01*
X39973522Y-38597189D01*
X40126262Y-38501216D01*
X40126264Y-38501213D01*
X40127327Y-38500546D01*
X40194564Y-38481545D01*
X40261399Y-38501912D01*
X40306614Y-38555180D01*
X40317300Y-38605539D01*
X40317300Y-39174126D01*
X40297615Y-39241165D01*
X40280981Y-39261807D01*
X40246992Y-39295795D01*
X40160010Y-39434225D01*
X40106012Y-39588544D01*
X40087709Y-39750996D01*
X40087709Y-39751003D01*
X40106012Y-39913455D01*
X40160010Y-40067774D01*
X40160011Y-40067775D01*
X40246992Y-40206204D01*
X40362596Y-40321808D01*
X40501025Y-40408789D01*
X40562199Y-40430194D01*
X40618974Y-40470915D01*
X40644722Y-40535868D01*
X40631266Y-40604429D01*
X40608925Y-40634917D01*
X39589946Y-41653898D01*
X37289863Y-43953981D01*
X37228540Y-43987466D01*
X37202182Y-43990300D01*
X36334540Y-43990300D01*
X36267501Y-43970615D01*
X36246859Y-43953981D01*
X36163862Y-43870984D01*
X36011122Y-43775011D01*
X35994874Y-43769325D01*
X35938099Y-43728601D01*
X35912354Y-43663648D01*
X35925812Y-43595087D01*
X35948148Y-43564606D01*
X37271433Y-42241321D01*
X37332754Y-42207838D01*
X37372995Y-42205784D01*
X37388800Y-42207565D01*
X37388801Y-42207564D01*
X37388802Y-42207565D01*
X37388803Y-42207565D01*
X37568049Y-42187369D01*
X37568052Y-42187368D01*
X37568055Y-42187368D01*
X37738322Y-42127789D01*
X37891062Y-42031816D01*
X38018616Y-41904262D01*
X38114589Y-41751522D01*
X38174168Y-41581255D01*
X38174169Y-41581249D01*
X38194365Y-41402003D01*
X38194365Y-41401996D01*
X38174169Y-41222750D01*
X38174168Y-41222745D01*
X38127706Y-41089965D01*
X38114589Y-41052478D01*
X38114375Y-41052138D01*
X38075382Y-40990080D01*
X38018616Y-40899738D01*
X37891062Y-40772184D01*
X37854897Y-40749460D01*
X37738323Y-40676211D01*
X37568054Y-40616631D01*
X37568049Y-40616630D01*
X37388804Y-40596435D01*
X37388796Y-40596435D01*
X37209550Y-40616630D01*
X37209545Y-40616631D01*
X37039276Y-40676211D01*
X36886537Y-40772184D01*
X36758984Y-40899737D01*
X36663011Y-41052476D01*
X36603431Y-41222745D01*
X36603430Y-41222750D01*
X36583235Y-41401996D01*
X36583235Y-41402003D01*
X36585015Y-41417802D01*
X36572960Y-41486624D01*
X36549476Y-41519366D01*
X35367781Y-42701062D01*
X35306458Y-42734547D01*
X35236766Y-42729563D01*
X35180833Y-42687691D01*
X35156416Y-42622227D01*
X35156100Y-42613381D01*
X35156100Y-41106018D01*
X35175785Y-41038979D01*
X35192419Y-41018337D01*
X37792537Y-38418219D01*
X37853860Y-38384734D01*
X37880218Y-38381900D01*
X38951060Y-38381900D01*
X39018099Y-38401585D01*
G37*
%TD.AperFunction*%
%TA.AperFunction,Conductor*%
G36*
X71284942Y-15764585D02*
G01*
X71292214Y-15769633D01*
X71330369Y-15798196D01*
X71330371Y-15798197D01*
X71465217Y-15848491D01*
X71465216Y-15848491D01*
X71472144Y-15849235D01*
X71524827Y-15854900D01*
X72816900Y-15854899D01*
X72883939Y-15874584D01*
X72929694Y-15927387D01*
X72940900Y-15978899D01*
X72940900Y-16259665D01*
X72921215Y-16326704D01*
X72904581Y-16347346D01*
X72415657Y-16836269D01*
X72354334Y-16869754D01*
X72341860Y-16871808D01*
X72176744Y-16890412D01*
X72022425Y-16944410D01*
X71883995Y-17031392D01*
X71768392Y-17146995D01*
X71681410Y-17285425D01*
X71627412Y-17439744D01*
X71609109Y-17602196D01*
X71609109Y-17602203D01*
X71627412Y-17764655D01*
X71627413Y-17764660D01*
X71627414Y-17764661D01*
X71634579Y-17785139D01*
X71681410Y-17918974D01*
X71733907Y-18002522D01*
X71768392Y-18057404D01*
X71883996Y-18173008D01*
X72022425Y-18259989D01*
X72176739Y-18313986D01*
X72176742Y-18313986D01*
X72176744Y-18313987D01*
X72339196Y-18332291D01*
X72339200Y-18332291D01*
X72339204Y-18332291D01*
X72501655Y-18313987D01*
X72501656Y-18313986D01*
X72501661Y-18313986D01*
X72655975Y-18259989D01*
X72794404Y-18173008D01*
X72910008Y-18057404D01*
X72996989Y-17918975D01*
X73050986Y-17764661D01*
X73057615Y-17705832D01*
X73068524Y-17609005D01*
X73095590Y-17544591D01*
X73104053Y-17535217D01*
X73598220Y-17041051D01*
X73659542Y-17007567D01*
X73729234Y-17012551D01*
X73785167Y-17054423D01*
X73809584Y-17119887D01*
X73809900Y-17128733D01*
X73809900Y-18253782D01*
X73790215Y-18320821D01*
X73773581Y-18341463D01*
X73403899Y-18711144D01*
X73403895Y-18711149D01*
X73336691Y-18827551D01*
X73336690Y-18827552D01*
X73325874Y-18867918D01*
X73301900Y-18957391D01*
X73301900Y-18957393D01*
X73301900Y-19657300D01*
X73282215Y-19724339D01*
X73229411Y-19770094D01*
X73177900Y-19781300D01*
X71952491Y-19781300D01*
X71952485Y-19781301D01*
X71892878Y-19787708D01*
X71796966Y-19823482D01*
X71753633Y-19831300D01*
X71718180Y-19831300D01*
X71651141Y-19811615D01*
X71605386Y-19758811D01*
X71599105Y-19741901D01*
X71575544Y-19660802D01*
X71491881Y-19519335D01*
X71491879Y-19519333D01*
X71491876Y-19519329D01*
X71375670Y-19403123D01*
X71375667Y-19403121D01*
X71375665Y-19403119D01*
X71335178Y-19379175D01*
X71287495Y-19328105D01*
X71274300Y-19272443D01*
X71274300Y-19113940D01*
X71293985Y-19046901D01*
X71310619Y-19026259D01*
X71324921Y-19011957D01*
X71343416Y-18993462D01*
X71439389Y-18840722D01*
X71498968Y-18670455D01*
X71508731Y-18583806D01*
X71519165Y-18491203D01*
X71519165Y-18491196D01*
X71498969Y-18311950D01*
X71498968Y-18311945D01*
X71478616Y-18253782D01*
X71439389Y-18141678D01*
X71343416Y-17988938D01*
X71215862Y-17861384D01*
X71209918Y-17857649D01*
X71063123Y-17765411D01*
X70892854Y-17705831D01*
X70892849Y-17705830D01*
X70713604Y-17685635D01*
X70713596Y-17685635D01*
X70534350Y-17705830D01*
X70534345Y-17705831D01*
X70364076Y-17765411D01*
X70211337Y-17861384D01*
X70083784Y-17988937D01*
X69987811Y-18141676D01*
X69928231Y-18311945D01*
X69928230Y-18311950D01*
X69908035Y-18491196D01*
X69908035Y-18491203D01*
X69928230Y-18670449D01*
X69928231Y-18670454D01*
X69987811Y-18840723D01*
X70083784Y-18993462D01*
X70136981Y-19046659D01*
X70170466Y-19107982D01*
X70173300Y-19134340D01*
X70173300Y-19272443D01*
X70153615Y-19339482D01*
X70112422Y-19379175D01*
X70071935Y-19403119D01*
X70071929Y-19403123D01*
X69955723Y-19519329D01*
X69955716Y-19519338D01*
X69938534Y-19548393D01*
X69887465Y-19596076D01*
X69818723Y-19608580D01*
X69754134Y-19581935D01*
X69726263Y-19550369D01*
X69666115Y-19452854D01*
X69542145Y-19328884D01*
X69392924Y-19236843D01*
X69392919Y-19236841D01*
X69226497Y-19181694D01*
X69226490Y-19181693D01*
X69123786Y-19171200D01*
X69073800Y-19171200D01*
X69073800Y-21621199D01*
X69123772Y-21621199D01*
X69123786Y-21621198D01*
X69226497Y-21610705D01*
X69392919Y-21555558D01*
X69392924Y-21555556D01*
X69542145Y-21463515D01*
X69666117Y-21339543D01*
X69726263Y-21242031D01*
X69778211Y-21195306D01*
X69847173Y-21184083D01*
X69911255Y-21211926D01*
X69938532Y-21244003D01*
X69955719Y-21273065D01*
X69955721Y-21273067D01*
X69955723Y-21273070D01*
X70071929Y-21389276D01*
X70071933Y-21389279D01*
X70071935Y-21389281D01*
X70213402Y-21472944D01*
X70255024Y-21485036D01*
X70371226Y-21518797D01*
X70371229Y-21518797D01*
X70371231Y-21518798D01*
X70399899Y-21521054D01*
X70465188Y-21545937D01*
X70506660Y-21602168D01*
X70511147Y-21671893D01*
X70477853Y-21732353D01*
X69460346Y-22749861D01*
X69365299Y-22844907D01*
X69365295Y-22844912D01*
X69298091Y-22961314D01*
X69298090Y-22961315D01*
X69291485Y-22985966D01*
X69263300Y-23091154D01*
X69263300Y-24400409D01*
X69298090Y-24530246D01*
X69349803Y-24619815D01*
X69360302Y-24638000D01*
X69365298Y-24646654D01*
X69696476Y-24977832D01*
X69729961Y-25039155D01*
X69732015Y-25079393D01*
X69731985Y-25079672D01*
X69730235Y-25095203D01*
X69750430Y-25274449D01*
X69750431Y-25274454D01*
X69810011Y-25444724D01*
X69849097Y-25506927D01*
X69868098Y-25574164D01*
X69847731Y-25640999D01*
X69794463Y-25686214D01*
X69744104Y-25696900D01*
X67143824Y-25696900D01*
X67019072Y-25730326D01*
X66907226Y-25794902D01*
X66907223Y-25794904D01*
X64329181Y-28372947D01*
X64267858Y-28406432D01*
X64198166Y-28401448D01*
X64142233Y-28359576D01*
X64117816Y-28294112D01*
X64117500Y-28285266D01*
X64117500Y-22606534D01*
X64137185Y-22539495D01*
X64153819Y-22518853D01*
X65751486Y-20921186D01*
X67823801Y-20921186D01*
X67834294Y-21023897D01*
X67889441Y-21190319D01*
X67889443Y-21190324D01*
X67981484Y-21339545D01*
X68105454Y-21463515D01*
X68254675Y-21555556D01*
X68254680Y-21555558D01*
X68421102Y-21610705D01*
X68421109Y-21610706D01*
X68523819Y-21621199D01*
X68573799Y-21621198D01*
X68573800Y-21621198D01*
X68573800Y-20646200D01*
X67823801Y-20646200D01*
X67823801Y-20921186D01*
X65751486Y-20921186D01*
X66801459Y-19871213D01*
X67823800Y-19871213D01*
X67823800Y-20146200D01*
X68573800Y-20146200D01*
X68573800Y-19171200D01*
X68573799Y-19171199D01*
X68523829Y-19171200D01*
X68523811Y-19171201D01*
X68421102Y-19181694D01*
X68254680Y-19236841D01*
X68254675Y-19236843D01*
X68105454Y-19328884D01*
X67981484Y-19452854D01*
X67889443Y-19602075D01*
X67889441Y-19602080D01*
X67834294Y-19768502D01*
X67834293Y-19768509D01*
X67823800Y-19871213D01*
X66801459Y-19871213D01*
X70891453Y-15781219D01*
X70952776Y-15747734D01*
X70979134Y-15744900D01*
X71217903Y-15744900D01*
X71284942Y-15764585D01*
G37*
%TD.AperFunction*%
%TA.AperFunction,Conductor*%
G36*
X77167901Y-22861985D02*
G01*
X77213656Y-22914789D01*
X77224862Y-22966299D01*
X77224862Y-23129669D01*
X77224863Y-23129686D01*
X77226042Y-23140650D01*
X77213633Y-23209409D01*
X77201550Y-23228712D01*
X77201262Y-23229210D01*
X77140806Y-23375168D01*
X77133349Y-23431800D01*
X77316465Y-23431800D01*
X77383504Y-23451485D01*
X77390765Y-23456526D01*
X77439654Y-23493124D01*
X77490132Y-23530912D01*
X77488432Y-23533181D01*
X77527626Y-23572380D01*
X77542473Y-23640654D01*
X77518052Y-23706117D01*
X77489052Y-23731245D01*
X77490132Y-23732688D01*
X77483031Y-23738004D01*
X77390775Y-23807066D01*
X77325312Y-23831484D01*
X77316465Y-23831800D01*
X77133352Y-23831800D01*
X77133350Y-23831801D01*
X77140804Y-23888427D01*
X77140806Y-23888433D01*
X77201261Y-24034387D01*
X77205327Y-24041428D01*
X77204174Y-24042093D01*
X77226322Y-24099381D01*
X77226042Y-24122948D01*
X77224862Y-24133920D01*
X77224862Y-24429669D01*
X77224863Y-24429686D01*
X77226042Y-24440650D01*
X77213633Y-24509409D01*
X77201550Y-24528712D01*
X77201262Y-24529210D01*
X77140806Y-24675168D01*
X77133349Y-24731800D01*
X77316465Y-24731800D01*
X77383504Y-24751485D01*
X77390765Y-24756526D01*
X77440202Y-24793534D01*
X77483030Y-24825595D01*
X77483033Y-24825597D01*
X77617879Y-24875891D01*
X77617878Y-24875891D01*
X77624806Y-24876635D01*
X77677489Y-24882300D01*
X78438863Y-24882299D01*
X78505901Y-24901983D01*
X78551656Y-24954787D01*
X78562862Y-25006299D01*
X78562862Y-25007800D01*
X78543177Y-25074839D01*
X78490373Y-25120594D01*
X78438862Y-25131800D01*
X77133352Y-25131800D01*
X77133350Y-25131801D01*
X77140804Y-25188427D01*
X77140806Y-25188433D01*
X77201261Y-25334385D01*
X77297441Y-25459729D01*
X77302931Y-25465219D01*
X77336416Y-25526542D01*
X77331432Y-25596234D01*
X77289560Y-25652167D01*
X77224096Y-25676584D01*
X77215250Y-25676900D01*
X76742391Y-25676900D01*
X76682959Y-25692825D01*
X76612552Y-25711690D01*
X76612551Y-25711691D01*
X76530406Y-25759118D01*
X76530405Y-25759117D01*
X76496145Y-25778898D01*
X75796263Y-26478781D01*
X75734940Y-26512266D01*
X75708582Y-26515100D01*
X74880767Y-26515100D01*
X74813728Y-26495415D01*
X74767973Y-26442611D01*
X74758029Y-26373453D01*
X74772855Y-26333074D01*
X74771969Y-26332648D01*
X74774987Y-26326380D01*
X74774989Y-26326375D01*
X74828986Y-26172061D01*
X74836528Y-26105123D01*
X74847291Y-26009603D01*
X74847291Y-26009596D01*
X74828987Y-25847144D01*
X74828986Y-25847142D01*
X74828986Y-25847139D01*
X74774989Y-25692825D01*
X74688008Y-25554396D01*
X74572404Y-25438792D01*
X74540259Y-25418594D01*
X74433974Y-25351810D01*
X74300139Y-25304979D01*
X74279661Y-25297814D01*
X74279660Y-25297813D01*
X74279655Y-25297812D01*
X74119273Y-25279742D01*
X74054859Y-25252676D01*
X74045475Y-25244203D01*
X73812180Y-25010908D01*
X73778695Y-24949585D01*
X73775861Y-24923227D01*
X73775861Y-24783929D01*
X73775860Y-24783923D01*
X73775650Y-24781973D01*
X73769453Y-24724317D01*
X73741783Y-24650132D01*
X73736800Y-24580442D01*
X73741784Y-24563467D01*
X73769453Y-24489283D01*
X73775862Y-24429673D01*
X73775861Y-24133928D01*
X73769453Y-24074317D01*
X73741783Y-24000132D01*
X73736800Y-23930442D01*
X73741784Y-23913468D01*
X73755760Y-23875996D01*
X73757601Y-23871058D01*
X73799471Y-23815125D01*
X73864935Y-23790707D01*
X73933208Y-23805558D01*
X73982614Y-23854962D01*
X73990824Y-23873436D01*
X74051809Y-24047719D01*
X74107115Y-24135738D01*
X74147784Y-24200462D01*
X74275338Y-24328016D01*
X74428078Y-24423989D01*
X74546378Y-24465384D01*
X74598345Y-24483568D01*
X74598350Y-24483569D01*
X74777596Y-24503765D01*
X74777600Y-24503765D01*
X74777604Y-24503765D01*
X74956849Y-24483569D01*
X74956852Y-24483568D01*
X74956855Y-24483568D01*
X75127122Y-24423989D01*
X75279862Y-24328016D01*
X75407416Y-24200462D01*
X75503389Y-24047722D01*
X75562968Y-23877455D01*
X75563132Y-23876000D01*
X75583165Y-23698203D01*
X75583165Y-23698196D01*
X75562969Y-23518950D01*
X75562968Y-23518945D01*
X75553933Y-23493124D01*
X75503389Y-23348678D01*
X75407416Y-23195938D01*
X75279862Y-23068384D01*
X75274416Y-23064041D01*
X75276150Y-23061865D01*
X75238197Y-23018950D01*
X75227555Y-22949895D01*
X75255935Y-22886049D01*
X75314328Y-22847682D01*
X75350465Y-22842300D01*
X75848191Y-22842300D01*
X75858591Y-22842300D01*
X77100862Y-22842300D01*
X77167901Y-22861985D01*
G37*
%TD.AperFunction*%
%TA.AperFunction,Conductor*%
G36*
X63710621Y-13738185D02*
G01*
X63731263Y-13754819D01*
X65868332Y-15891888D01*
X65901817Y-15953211D01*
X65903871Y-15993449D01*
X65902092Y-16009252D01*
X65902091Y-16009259D01*
X65922286Y-16188505D01*
X65922287Y-16188510D01*
X65981867Y-16358779D01*
X66057107Y-16478522D01*
X66077840Y-16511518D01*
X66205394Y-16639072D01*
X66358134Y-16735045D01*
X66468326Y-16773603D01*
X66473765Y-16775506D01*
X66530541Y-16816228D01*
X66556289Y-16881180D01*
X66542833Y-16949742D01*
X66520493Y-16980229D01*
X66400783Y-17099939D01*
X66304811Y-17252676D01*
X66245231Y-17422945D01*
X66245230Y-17422950D01*
X66225035Y-17602196D01*
X66225035Y-17602203D01*
X66245230Y-17781449D01*
X66245231Y-17781454D01*
X66304811Y-17951723D01*
X66390450Y-18088015D01*
X66400784Y-18104462D01*
X66528338Y-18232016D01*
X66655544Y-18311945D01*
X66681078Y-18327989D01*
X66699456Y-18334420D01*
X66756232Y-18375142D01*
X66781980Y-18440094D01*
X66768524Y-18508656D01*
X66746183Y-18539143D01*
X63373181Y-21912146D01*
X63311858Y-21945631D01*
X63242166Y-21940647D01*
X63186233Y-21898775D01*
X63161816Y-21833311D01*
X63161500Y-21824465D01*
X63161500Y-21791140D01*
X63181185Y-21724101D01*
X63197819Y-21703459D01*
X63240816Y-21660462D01*
X63336789Y-21507722D01*
X63396368Y-21337455D01*
X63396369Y-21337449D01*
X63416565Y-21158203D01*
X63416565Y-21158196D01*
X63396369Y-20978950D01*
X63396368Y-20978945D01*
X63371619Y-20908216D01*
X63336789Y-20808678D01*
X63326189Y-20791809D01*
X63257500Y-20682491D01*
X63240816Y-20655938D01*
X63113262Y-20528384D01*
X63064588Y-20497800D01*
X62960523Y-20432411D01*
X62790254Y-20372831D01*
X62790249Y-20372830D01*
X62611004Y-20352635D01*
X62610996Y-20352635D01*
X62431750Y-20372830D01*
X62431745Y-20372831D01*
X62261476Y-20432411D01*
X62108737Y-20528384D01*
X61981184Y-20655937D01*
X61885211Y-20808676D01*
X61825631Y-20978945D01*
X61825630Y-20978950D01*
X61805435Y-21158196D01*
X61805435Y-21158203D01*
X61825630Y-21337449D01*
X61825631Y-21337454D01*
X61885211Y-21507723D01*
X61981184Y-21660462D01*
X62024181Y-21703459D01*
X62057666Y-21764782D01*
X62060500Y-21791140D01*
X62060500Y-24787613D01*
X62040815Y-24854652D01*
X61988011Y-24900407D01*
X61918853Y-24910351D01*
X61855297Y-24881326D01*
X61848819Y-24875294D01*
X58930619Y-21957094D01*
X58897134Y-21895771D01*
X58894300Y-21869413D01*
X58894300Y-16878597D01*
X58913985Y-16811558D01*
X58966789Y-16765803D01*
X59035947Y-16755859D01*
X59084270Y-16773602D01*
X59213478Y-16854789D01*
X59367090Y-16908540D01*
X59383745Y-16914368D01*
X59383750Y-16914369D01*
X59562996Y-16934565D01*
X59563000Y-16934565D01*
X59563004Y-16934565D01*
X59742249Y-16914369D01*
X59742252Y-16914368D01*
X59742255Y-16914368D01*
X59912522Y-16854789D01*
X60065262Y-16758816D01*
X60192816Y-16631262D01*
X60288789Y-16478522D01*
X60345607Y-16316143D01*
X60386328Y-16259370D01*
X60451280Y-16233622D01*
X60462648Y-16233100D01*
X62293660Y-16233100D01*
X62360699Y-16252785D01*
X62381341Y-16269419D01*
X62388138Y-16276216D01*
X62467733Y-16326229D01*
X62527329Y-16363676D01*
X62540878Y-16372189D01*
X62657232Y-16412903D01*
X62711145Y-16431768D01*
X62711150Y-16431769D01*
X62890396Y-16451965D01*
X62890400Y-16451965D01*
X62890404Y-16451965D01*
X63069649Y-16431769D01*
X63069652Y-16431768D01*
X63069655Y-16431768D01*
X63239922Y-16372189D01*
X63392662Y-16276216D01*
X63520216Y-16148662D01*
X63616189Y-15995922D01*
X63675768Y-15825655D01*
X63675769Y-15825649D01*
X63695965Y-15646403D01*
X63695965Y-15646396D01*
X63675769Y-15467150D01*
X63675768Y-15467145D01*
X63651965Y-15399119D01*
X63616189Y-15296878D01*
X63607762Y-15283467D01*
X63568821Y-15221492D01*
X63520216Y-15144138D01*
X63392662Y-15016584D01*
X63378485Y-15007676D01*
X63239923Y-14920611D01*
X63069654Y-14861031D01*
X63069649Y-14861030D01*
X62890404Y-14840835D01*
X62890396Y-14840835D01*
X62711150Y-14861030D01*
X62711145Y-14861031D01*
X62540876Y-14920611D01*
X62388137Y-15016584D01*
X62260585Y-15144136D01*
X62254341Y-15154074D01*
X62202005Y-15200364D01*
X62149348Y-15212100D01*
X61636565Y-15212100D01*
X61569526Y-15192415D01*
X61523771Y-15139611D01*
X61513827Y-15070453D01*
X61542852Y-15006897D01*
X61570591Y-14983107D01*
X61614662Y-14955416D01*
X61742216Y-14827862D01*
X61838189Y-14675122D01*
X61897768Y-14504855D01*
X61898747Y-14496165D01*
X61917965Y-14325603D01*
X61917965Y-14325596D01*
X61897769Y-14146350D01*
X61897768Y-14146345D01*
X61838188Y-13976075D01*
X61795710Y-13908473D01*
X61776709Y-13841236D01*
X61797076Y-13774401D01*
X61850344Y-13729186D01*
X61900703Y-13718500D01*
X63643582Y-13718500D01*
X63710621Y-13738185D01*
G37*
%TD.AperFunction*%
%TA.AperFunction,Conductor*%
G36*
X79286984Y-15567977D02*
G01*
X79311393Y-15586939D01*
X79322530Y-15598076D01*
X79322534Y-15598079D01*
X79322536Y-15598081D01*
X79464003Y-15681744D01*
X79505625Y-15693836D01*
X79621827Y-15727597D01*
X79621830Y-15727597D01*
X79621832Y-15727598D01*
X79658707Y-15730500D01*
X79731701Y-15730500D01*
X79798740Y-15750185D01*
X79844495Y-15802989D01*
X79855701Y-15854500D01*
X79855701Y-18391660D01*
X79836016Y-18458699D01*
X79819382Y-18479341D01*
X79776385Y-18522337D01*
X79680412Y-18675076D01*
X79620832Y-18845345D01*
X79620831Y-18845350D01*
X79600636Y-19024596D01*
X79600636Y-19024603D01*
X79620831Y-19203849D01*
X79620832Y-19203854D01*
X79680412Y-19374123D01*
X79748079Y-19481813D01*
X79776385Y-19526862D01*
X79903939Y-19654416D01*
X79956409Y-19687385D01*
X80048767Y-19745418D01*
X80056679Y-19750389D01*
X80181301Y-19793996D01*
X80226946Y-19809968D01*
X80226950Y-19809969D01*
X80315070Y-19819897D01*
X80393559Y-19828740D01*
X80457972Y-19855806D01*
X80467356Y-19864279D01*
X80820181Y-20217104D01*
X80853666Y-20278427D01*
X80856500Y-20304785D01*
X80856500Y-22976814D01*
X80836815Y-23043853D01*
X80820181Y-23064495D01*
X80789495Y-23095181D01*
X80728172Y-23128666D01*
X80701814Y-23131500D01*
X80090499Y-23131500D01*
X80053633Y-23134401D01*
X79976271Y-23156877D01*
X79906402Y-23156677D01*
X79847732Y-23118734D01*
X79818889Y-23055095D01*
X79829031Y-22985966D01*
X79853989Y-22950127D01*
X80113702Y-22690415D01*
X80180911Y-22574006D01*
X80215700Y-22444170D01*
X80215700Y-22309752D01*
X80215700Y-20919430D01*
X80211229Y-20902745D01*
X80180911Y-20789594D01*
X80113702Y-20673185D01*
X79766254Y-20325737D01*
X79413817Y-19973299D01*
X79402036Y-19966497D01*
X79364771Y-19933421D01*
X79357912Y-19924258D01*
X79357909Y-19924255D01*
X79357908Y-19924254D01*
X79332648Y-19905344D01*
X79242697Y-19838006D01*
X79242690Y-19838002D01*
X79107844Y-19787708D01*
X79107845Y-19787708D01*
X79048245Y-19781301D01*
X79048243Y-19781300D01*
X79048235Y-19781300D01*
X79048227Y-19781300D01*
X78997362Y-19781300D01*
X78930323Y-19761615D01*
X78884568Y-19708811D01*
X78873362Y-19657300D01*
X78873362Y-16934953D01*
X78873362Y-16934951D01*
X78838572Y-16805114D01*
X78771364Y-16688706D01*
X78676316Y-16593658D01*
X78248738Y-16166080D01*
X78215253Y-16104757D01*
X78220237Y-16035065D01*
X78262109Y-15979132D01*
X78327573Y-15954715D01*
X78336419Y-15954399D01*
X78612024Y-15954399D01*
X78729328Y-15938957D01*
X78729333Y-15938955D01*
X78875285Y-15878500D01*
X79000624Y-15782324D01*
X79096799Y-15656987D01*
X79109150Y-15627169D01*
X79152991Y-15572765D01*
X79219284Y-15550699D01*
X79286984Y-15567977D01*
G37*
%TD.AperFunction*%
%TA.AperFunction,Conductor*%
G36*
X78888527Y-3202585D02*
G01*
X78934282Y-3255389D01*
X78944226Y-3324547D01*
X78915201Y-3388103D01*
X78887460Y-3411894D01*
X78771137Y-3484984D01*
X78643584Y-3612537D01*
X78547611Y-3765276D01*
X78488031Y-3935545D01*
X78488030Y-3935550D01*
X78467835Y-4114796D01*
X78467835Y-4114803D01*
X78488030Y-4294049D01*
X78488031Y-4294054D01*
X78547611Y-4464323D01*
X78622492Y-4583495D01*
X78643584Y-4617062D01*
X78771138Y-4744616D01*
X78923878Y-4840589D01*
X79094145Y-4900168D01*
X79094149Y-4900169D01*
X79192991Y-4911305D01*
X79260757Y-4918940D01*
X79325170Y-4946006D01*
X79334554Y-4954479D01*
X86522494Y-12142419D01*
X86555979Y-12203742D01*
X86550995Y-12273434D01*
X86522494Y-12317781D01*
X86015894Y-12824381D01*
X85954571Y-12857866D01*
X85928213Y-12860700D01*
X81251618Y-12860700D01*
X81184579Y-12841015D01*
X81138824Y-12788211D01*
X81128880Y-12719053D01*
X81157905Y-12655497D01*
X81163937Y-12649019D01*
X81840902Y-11972054D01*
X81848959Y-11958098D01*
X81908110Y-11855646D01*
X81942900Y-11725809D01*
X81942900Y-10401140D01*
X81962585Y-10334101D01*
X81979219Y-10313459D01*
X82015333Y-10277345D01*
X82062216Y-10230462D01*
X82158189Y-10077722D01*
X82217768Y-9907455D01*
X82218161Y-9903968D01*
X82237965Y-9728203D01*
X82237965Y-9728196D01*
X82217769Y-9548950D01*
X82217768Y-9548945D01*
X82198472Y-9493800D01*
X82158189Y-9378678D01*
X82155689Y-9374700D01*
X82085620Y-9263185D01*
X82062216Y-9225938D01*
X81934662Y-9098384D01*
X81895658Y-9073876D01*
X81781923Y-9002411D01*
X81611654Y-8942831D01*
X81611649Y-8942830D01*
X81432404Y-8922635D01*
X81432396Y-8922635D01*
X81253150Y-8942830D01*
X81253145Y-8942831D01*
X81082876Y-9002411D01*
X80930137Y-9098384D01*
X80802584Y-9225937D01*
X80706611Y-9378676D01*
X80647031Y-9548945D01*
X80647030Y-9548950D01*
X80626835Y-9728196D01*
X80626835Y-9728203D01*
X80647030Y-9907449D01*
X80647031Y-9907454D01*
X80706611Y-10077723D01*
X80802584Y-10230462D01*
X80885581Y-10313459D01*
X80919066Y-10374782D01*
X80921900Y-10401140D01*
X80921900Y-11395782D01*
X80902215Y-11462821D01*
X80885581Y-11483463D01*
X80261463Y-12107581D01*
X80200140Y-12141066D01*
X80173782Y-12143900D01*
X79197200Y-12143900D01*
X79130161Y-12124215D01*
X79084406Y-12071411D01*
X79073200Y-12019901D01*
X79073199Y-11856530D01*
X79073198Y-11856511D01*
X79072020Y-11845555D01*
X79084425Y-11776795D01*
X79096494Y-11757515D01*
X79096802Y-11756982D01*
X79157255Y-11611031D01*
X79164712Y-11554400D01*
X78981597Y-11554400D01*
X78914558Y-11534715D01*
X78907296Y-11529673D01*
X78815031Y-11460604D01*
X78807930Y-11455288D01*
X78809630Y-11453016D01*
X78770443Y-11413835D01*
X78755586Y-11345563D01*
X78779998Y-11280097D01*
X78809011Y-11254956D01*
X78807930Y-11253512D01*
X78856563Y-11217105D01*
X78907286Y-11179133D01*
X78972750Y-11154716D01*
X78981597Y-11154400D01*
X79164710Y-11154400D01*
X79164711Y-11154398D01*
X79157257Y-11097772D01*
X79157255Y-11097766D01*
X79096800Y-10951812D01*
X79092735Y-10944772D01*
X79093887Y-10944106D01*
X79071739Y-10886821D01*
X79072019Y-10863248D01*
X79073200Y-10852273D01*
X79073199Y-10556528D01*
X79066791Y-10496917D01*
X79066219Y-10495384D01*
X79016497Y-10362071D01*
X79016493Y-10362064D01*
X78930247Y-10246855D01*
X78930244Y-10246852D01*
X78815035Y-10160606D01*
X78815028Y-10160602D01*
X78680182Y-10110308D01*
X78680183Y-10110308D01*
X78620583Y-10103901D01*
X78620581Y-10103900D01*
X78620573Y-10103900D01*
X78620565Y-10103900D01*
X78536300Y-10103900D01*
X78469261Y-10084215D01*
X78423506Y-10031411D01*
X78412300Y-9979900D01*
X78412300Y-9791540D01*
X78431985Y-9724501D01*
X78448619Y-9703859D01*
X78482893Y-9669585D01*
X78531616Y-9620862D01*
X78627589Y-9468122D01*
X78687168Y-9297855D01*
X78689219Y-9279654D01*
X78707365Y-9118603D01*
X78707365Y-9118596D01*
X78687169Y-8939350D01*
X78687168Y-8939345D01*
X78656193Y-8850824D01*
X78627589Y-8769078D01*
X78621062Y-8758691D01*
X78581540Y-8695791D01*
X78531616Y-8616338D01*
X78404062Y-8488784D01*
X78387531Y-8478397D01*
X78251323Y-8392811D01*
X78081054Y-8333231D01*
X78081049Y-8333230D01*
X77901804Y-8313035D01*
X77901796Y-8313035D01*
X77722550Y-8333230D01*
X77722545Y-8333231D01*
X77552276Y-8392811D01*
X77399537Y-8488784D01*
X77271984Y-8616337D01*
X77176011Y-8769076D01*
X77116431Y-8939345D01*
X77116430Y-8939350D01*
X77096235Y-9118596D01*
X77096235Y-9118603D01*
X77116430Y-9297849D01*
X77116431Y-9297854D01*
X77176011Y-9468123D01*
X77271984Y-9620862D01*
X77354981Y-9703859D01*
X77388466Y-9765182D01*
X77391300Y-9791540D01*
X77391300Y-9979900D01*
X77371615Y-10046939D01*
X77318811Y-10092694D01*
X77267306Y-10103900D01*
X77249832Y-10103900D01*
X77249823Y-10103901D01*
X77190216Y-10110308D01*
X77055371Y-10160602D01*
X77055364Y-10160606D01*
X77043929Y-10169167D01*
X76978465Y-10193584D01*
X76969619Y-10193900D01*
X76248791Y-10193900D01*
X76118954Y-10228690D01*
X76118952Y-10228690D01*
X76118952Y-10228691D01*
X76115885Y-10230462D01*
X76060397Y-10262498D01*
X76034681Y-10277345D01*
X76002547Y-10295897D01*
X76002544Y-10295899D01*
X75779181Y-10519263D01*
X75717858Y-10552748D01*
X75648166Y-10547764D01*
X75592233Y-10505892D01*
X75567816Y-10440428D01*
X75567500Y-10431582D01*
X75567500Y-9762418D01*
X75587185Y-9695379D01*
X75603819Y-9674737D01*
X76110611Y-9167945D01*
X76633902Y-8644654D01*
X76647321Y-8621411D01*
X76651302Y-8614517D01*
X76679339Y-8565954D01*
X76701110Y-8528246D01*
X76735900Y-8398409D01*
X76735900Y-6054191D01*
X76701110Y-5924354D01*
X76640071Y-5818631D01*
X76633904Y-5807949D01*
X76633900Y-5807944D01*
X75472055Y-4646099D01*
X75472054Y-4646098D01*
X75421762Y-4617062D01*
X75355648Y-4578891D01*
X75355647Y-4578890D01*
X75323186Y-4570192D01*
X75225809Y-4544100D01*
X71898409Y-4544100D01*
X71763991Y-4544100D01*
X71693516Y-4562984D01*
X71634152Y-4578890D01*
X71634151Y-4578891D01*
X71517749Y-4646095D01*
X71517744Y-4646099D01*
X70106663Y-6057181D01*
X70045340Y-6090666D01*
X70018982Y-6093500D01*
X69811740Y-6093500D01*
X69744701Y-6073815D01*
X69724059Y-6057181D01*
X69641062Y-5974184D01*
X69488323Y-5878211D01*
X69318054Y-5818631D01*
X69318049Y-5818630D01*
X69138804Y-5798435D01*
X69138796Y-5798435D01*
X68959550Y-5818630D01*
X68959545Y-5818631D01*
X68789276Y-5878211D01*
X68636537Y-5974184D01*
X68508984Y-6101737D01*
X68413011Y-6254476D01*
X68353431Y-6424745D01*
X68353430Y-6424750D01*
X68333235Y-6603996D01*
X68333235Y-6604003D01*
X68353430Y-6783249D01*
X68353431Y-6783254D01*
X68413011Y-6953523D01*
X68482610Y-7064288D01*
X68508984Y-7106262D01*
X68636538Y-7233816D01*
X68664262Y-7251236D01*
X68778966Y-7323310D01*
X68789278Y-7329789D01*
X68828482Y-7343507D01*
X68959545Y-7389368D01*
X68959550Y-7389369D01*
X69138796Y-7409565D01*
X69138800Y-7409565D01*
X69138804Y-7409565D01*
X69318049Y-7389369D01*
X69318052Y-7389368D01*
X69318055Y-7389368D01*
X69488322Y-7329789D01*
X69641062Y-7233816D01*
X69724059Y-7150819D01*
X69785382Y-7117334D01*
X69811740Y-7114500D01*
X70349006Y-7114500D01*
X70349009Y-7114500D01*
X70478846Y-7079710D01*
X70595254Y-7012502D01*
X70690302Y-6917454D01*
X72006337Y-5601419D01*
X72067660Y-5567934D01*
X72094018Y-5565100D01*
X74895782Y-5565100D01*
X74962821Y-5584785D01*
X74983463Y-5601419D01*
X75678581Y-6296537D01*
X75712066Y-6357860D01*
X75714900Y-6384218D01*
X75714900Y-8068382D01*
X75695215Y-8135421D01*
X75678581Y-8156063D01*
X74915581Y-8919063D01*
X74854258Y-8952548D01*
X74784566Y-8947564D01*
X74728633Y-8905692D01*
X74704216Y-8840228D01*
X74703900Y-8831382D01*
X74703900Y-7708740D01*
X74723585Y-7641701D01*
X74740219Y-7621059D01*
X74741674Y-7619604D01*
X74823216Y-7538062D01*
X74919189Y-7385322D01*
X74978768Y-7215055D01*
X74989453Y-7120221D01*
X74998965Y-7035803D01*
X74998965Y-7035796D01*
X74978769Y-6856550D01*
X74978768Y-6856545D01*
X74953122Y-6783254D01*
X74919189Y-6686278D01*
X74911551Y-6674123D01*
X74823215Y-6533537D01*
X74695662Y-6405984D01*
X74542923Y-6310011D01*
X74372654Y-6250431D01*
X74372649Y-6250430D01*
X74193404Y-6230235D01*
X74193396Y-6230235D01*
X74014150Y-6250430D01*
X74014145Y-6250431D01*
X73843876Y-6310011D01*
X73691137Y-6405984D01*
X73563584Y-6533537D01*
X73467611Y-6686276D01*
X73408031Y-6856545D01*
X73408030Y-6856550D01*
X73387835Y-7035796D01*
X73387835Y-7035803D01*
X73408030Y-7215049D01*
X73408031Y-7215054D01*
X73467611Y-7385323D01*
X73563584Y-7538062D01*
X73646581Y-7621059D01*
X73680066Y-7682382D01*
X73682900Y-7708740D01*
X73682900Y-9897181D01*
X73663215Y-9964220D01*
X73646581Y-9984862D01*
X73382598Y-10248844D01*
X73321275Y-10282329D01*
X73251583Y-10277345D01*
X73212367Y-10252140D01*
X73212346Y-10252169D01*
X73211950Y-10251872D01*
X73207230Y-10248839D01*
X73205248Y-10246857D01*
X73205246Y-10246854D01*
X73090031Y-10160604D01*
X73090029Y-10160603D01*
X73090028Y-10160602D01*
X72955183Y-10110308D01*
X72898100Y-10104171D01*
X72833549Y-10077432D01*
X72793702Y-10020039D01*
X72791209Y-9950214D01*
X72823675Y-9893202D01*
X72867416Y-9849462D01*
X72963389Y-9696722D01*
X73022968Y-9526455D01*
X73024107Y-9516346D01*
X73043165Y-9347203D01*
X73043165Y-9347196D01*
X73022969Y-9167950D01*
X73022968Y-9167945D01*
X73000206Y-9102894D01*
X72963389Y-8997678D01*
X72944865Y-8968198D01*
X72913992Y-8919063D01*
X72867416Y-8844938D01*
X72739862Y-8717384D01*
X72669832Y-8673381D01*
X72587123Y-8621411D01*
X72416854Y-8561831D01*
X72416849Y-8561830D01*
X72237604Y-8541635D01*
X72237596Y-8541635D01*
X72058350Y-8561830D01*
X72058345Y-8561831D01*
X71888076Y-8621411D01*
X71735337Y-8717384D01*
X71607784Y-8844937D01*
X71511811Y-8997676D01*
X71452231Y-9167945D01*
X71452230Y-9167950D01*
X71432035Y-9347196D01*
X71432035Y-9347203D01*
X71452230Y-9526449D01*
X71452231Y-9526454D01*
X71511811Y-9696723D01*
X71607784Y-9849462D01*
X71623381Y-9865059D01*
X71656866Y-9926382D01*
X71659700Y-9952740D01*
X71659700Y-9979900D01*
X71640015Y-10046939D01*
X71587211Y-10092694D01*
X71535709Y-10103900D01*
X71524834Y-10103900D01*
X71524823Y-10103901D01*
X71465216Y-10110308D01*
X71369304Y-10146082D01*
X71325971Y-10153900D01*
X71210180Y-10153900D01*
X71143141Y-10134215D01*
X71097386Y-10081411D01*
X71091105Y-10064501D01*
X71067544Y-9983402D01*
X70983881Y-9841935D01*
X70983879Y-9841933D01*
X70983876Y-9841929D01*
X70867670Y-9725723D01*
X70867662Y-9725717D01*
X70726196Y-9642055D01*
X70726193Y-9642054D01*
X70568373Y-9596202D01*
X70568367Y-9596201D01*
X70531501Y-9593300D01*
X70531494Y-9593300D01*
X69900106Y-9593300D01*
X69900098Y-9593300D01*
X69863232Y-9596201D01*
X69863226Y-9596202D01*
X69705406Y-9642054D01*
X69705403Y-9642055D01*
X69563937Y-9725717D01*
X69563929Y-9725723D01*
X69447723Y-9841929D01*
X69447716Y-9841938D01*
X69430534Y-9870993D01*
X69379465Y-9918676D01*
X69310723Y-9931180D01*
X69246134Y-9904535D01*
X69218263Y-9872969D01*
X69158115Y-9775454D01*
X69034145Y-9651484D01*
X68884924Y-9559443D01*
X68884919Y-9559441D01*
X68718497Y-9504294D01*
X68718490Y-9504293D01*
X68615786Y-9493800D01*
X68565800Y-9493800D01*
X68565800Y-11943799D01*
X68615772Y-11943799D01*
X68615786Y-11943798D01*
X68718497Y-11933305D01*
X68884919Y-11878158D01*
X68884924Y-11878156D01*
X69034145Y-11786115D01*
X69158117Y-11662143D01*
X69218263Y-11564631D01*
X69270211Y-11517906D01*
X69339173Y-11506683D01*
X69403255Y-11534526D01*
X69430532Y-11566603D01*
X69447719Y-11595665D01*
X69447721Y-11595667D01*
X69447723Y-11595670D01*
X69563929Y-11711876D01*
X69563933Y-11711879D01*
X69563935Y-11711881D01*
X69705402Y-11795544D01*
X69710128Y-11796917D01*
X69863226Y-11841397D01*
X69863229Y-11841397D01*
X69863231Y-11841398D01*
X69900106Y-11844300D01*
X69900114Y-11844300D01*
X70531486Y-11844300D01*
X70531494Y-11844300D01*
X70568369Y-11841398D01*
X70568371Y-11841397D01*
X70568373Y-11841397D01*
X70609991Y-11829305D01*
X70726198Y-11795544D01*
X70867665Y-11711881D01*
X70867670Y-11711875D01*
X70873831Y-11707098D01*
X70875085Y-11708715D01*
X70927026Y-11680344D01*
X70996718Y-11685319D01*
X71052658Y-11727183D01*
X71077084Y-11792644D01*
X71076691Y-11814755D01*
X71072200Y-11856527D01*
X71072200Y-11856530D01*
X71072200Y-11856533D01*
X71072200Y-12152269D01*
X71072201Y-12152276D01*
X71078608Y-12211883D01*
X71106277Y-12286067D01*
X71111261Y-12355758D01*
X71106277Y-12372731D01*
X71078610Y-12446911D01*
X71078609Y-12446915D01*
X71078609Y-12446917D01*
X71072200Y-12506527D01*
X71072200Y-12506534D01*
X71072200Y-12506535D01*
X71072200Y-12802269D01*
X71072201Y-12802276D01*
X71078608Y-12861883D01*
X71106277Y-12936067D01*
X71111261Y-13005758D01*
X71106277Y-13022731D01*
X71078610Y-13096911D01*
X71078609Y-13096915D01*
X71078609Y-13096917D01*
X71072200Y-13156527D01*
X71072200Y-13156534D01*
X71072200Y-13156535D01*
X71072200Y-13452269D01*
X71072201Y-13452276D01*
X71078608Y-13511883D01*
X71106277Y-13586067D01*
X71111261Y-13655758D01*
X71106277Y-13672731D01*
X71078610Y-13746911D01*
X71078609Y-13746915D01*
X71078609Y-13746917D01*
X71072200Y-13806527D01*
X71072200Y-13806534D01*
X71072200Y-13806535D01*
X71072200Y-14102269D01*
X71072201Y-14102276D01*
X71078608Y-14161883D01*
X71106277Y-14236067D01*
X71111261Y-14305758D01*
X71106277Y-14322731D01*
X71078610Y-14396911D01*
X71078609Y-14396915D01*
X71078609Y-14396917D01*
X71072200Y-14456527D01*
X71072200Y-14601455D01*
X71072201Y-14639899D01*
X71052517Y-14706939D01*
X70999713Y-14752694D01*
X70948201Y-14763900D01*
X70789176Y-14763900D01*
X70660024Y-14763900D01*
X70621796Y-14774143D01*
X70535271Y-14797326D01*
X70423426Y-14861902D01*
X70394380Y-14890948D01*
X70333056Y-14924432D01*
X70263365Y-14919446D01*
X70207432Y-14877574D01*
X70183016Y-14812109D01*
X70182700Y-14803265D01*
X70182700Y-14465140D01*
X70202385Y-14398101D01*
X70219019Y-14377459D01*
X70248097Y-14348381D01*
X70302016Y-14294462D01*
X70397989Y-14141722D01*
X70457568Y-13971455D01*
X70458667Y-13961700D01*
X70477765Y-13792203D01*
X70477765Y-13792196D01*
X70457569Y-13612950D01*
X70457568Y-13612945D01*
X70427933Y-13528254D01*
X70397989Y-13442678D01*
X70382253Y-13417635D01*
X70302015Y-13289937D01*
X70174462Y-13162384D01*
X70021723Y-13066411D01*
X69851454Y-13006831D01*
X69851449Y-13006830D01*
X69672204Y-12986635D01*
X69672196Y-12986635D01*
X69492950Y-13006830D01*
X69492945Y-13006831D01*
X69322676Y-13066411D01*
X69169937Y-13162384D01*
X69042384Y-13289937D01*
X68946411Y-13442676D01*
X68886831Y-13612945D01*
X68886830Y-13612950D01*
X68866635Y-13792196D01*
X68866635Y-13792203D01*
X68886830Y-13971449D01*
X68886831Y-13971454D01*
X68946411Y-14141723D01*
X69042384Y-14294462D01*
X69125381Y-14377459D01*
X69158866Y-14438782D01*
X69161700Y-14465140D01*
X69161700Y-14697781D01*
X69142015Y-14764820D01*
X69125381Y-14785462D01*
X67714484Y-16196358D01*
X67653161Y-16229843D01*
X67583469Y-16224859D01*
X67527536Y-16182987D01*
X67503119Y-16117523D01*
X67503583Y-16094793D01*
X67504807Y-16083937D01*
X67513221Y-16009256D01*
X67511820Y-15996824D01*
X67493025Y-15830006D01*
X67493024Y-15830000D01*
X67449305Y-15705060D01*
X67433445Y-15659734D01*
X67423393Y-15643737D01*
X67374375Y-15565725D01*
X67337472Y-15506994D01*
X67209918Y-15379440D01*
X67147783Y-15340398D01*
X67057179Y-15283467D01*
X66886910Y-15223887D01*
X66886905Y-15223886D01*
X66707660Y-15203691D01*
X66707657Y-15203691D01*
X66707656Y-15203691D01*
X66691849Y-15205471D01*
X66623029Y-15193416D01*
X66590288Y-15169932D01*
X64219855Y-12799499D01*
X64219850Y-12799495D01*
X64188207Y-12781226D01*
X64168841Y-12770046D01*
X64168840Y-12770045D01*
X64103446Y-12732290D01*
X63973609Y-12697500D01*
X55972609Y-12697500D01*
X55838191Y-12697500D01*
X55766365Y-12716746D01*
X55708352Y-12732290D01*
X55708351Y-12732291D01*
X55591949Y-12799495D01*
X55591944Y-12799499D01*
X55247663Y-13143781D01*
X55186340Y-13177266D01*
X55159982Y-13180100D01*
X55028940Y-13180100D01*
X54961901Y-13160415D01*
X54941259Y-13143781D01*
X54858262Y-13060784D01*
X54705523Y-12964811D01*
X54535254Y-12905231D01*
X54535249Y-12905230D01*
X54356004Y-12885035D01*
X54355996Y-12885035D01*
X54176750Y-12905230D01*
X54176745Y-12905231D01*
X54006476Y-12964811D01*
X53868072Y-13051777D01*
X53800835Y-13070777D01*
X53734000Y-13050409D01*
X53688786Y-12997141D01*
X53678100Y-12946783D01*
X53678100Y-11243779D01*
X67315801Y-11243779D01*
X67326294Y-11346497D01*
X67381441Y-11512919D01*
X67381443Y-11512924D01*
X67473484Y-11662145D01*
X67597454Y-11786115D01*
X67746675Y-11878156D01*
X67746680Y-11878158D01*
X67913102Y-11933305D01*
X67913109Y-11933306D01*
X68015819Y-11943799D01*
X68065799Y-11943798D01*
X68065800Y-11943798D01*
X68065800Y-10968800D01*
X67315801Y-10968800D01*
X67315801Y-11243779D01*
X53678100Y-11243779D01*
X53678100Y-10193813D01*
X67315800Y-10193813D01*
X67315800Y-10468800D01*
X68065800Y-10468800D01*
X68065800Y-9493800D01*
X68065799Y-9493799D01*
X68015829Y-9493800D01*
X68015811Y-9493801D01*
X67913102Y-9504294D01*
X67746680Y-9559441D01*
X67746675Y-9559443D01*
X67597454Y-9651484D01*
X67473484Y-9775454D01*
X67381443Y-9924675D01*
X67381441Y-9924680D01*
X67326294Y-10091102D01*
X67326293Y-10091109D01*
X67315800Y-10193813D01*
X53678100Y-10193813D01*
X53678100Y-9169933D01*
X53697785Y-9102894D01*
X53714419Y-9082252D01*
X58078852Y-4717819D01*
X58140175Y-4684334D01*
X58166533Y-4681500D01*
X60516574Y-4681500D01*
X60516576Y-4681500D01*
X60641326Y-4648074D01*
X60753174Y-4583498D01*
X61370876Y-3965794D01*
X61432197Y-3932311D01*
X61444661Y-3930258D01*
X61544995Y-3918953D01*
X61605055Y-3912187D01*
X61605056Y-3912186D01*
X61605061Y-3912186D01*
X61759375Y-3858189D01*
X61897804Y-3771208D01*
X62013408Y-3655604D01*
X62100389Y-3517175D01*
X62154386Y-3362861D01*
X62158703Y-3324547D01*
X62162256Y-3293017D01*
X62189322Y-3228603D01*
X62246917Y-3189048D01*
X62285476Y-3182900D01*
X78821488Y-3182900D01*
X78888527Y-3202585D01*
G37*
%TD.AperFunction*%
%TA.AperFunction,Conductor*%
G36*
X80403652Y-13184585D02*
G01*
X80449407Y-13237389D01*
X80459351Y-13306547D01*
X80430326Y-13370103D01*
X80424294Y-13376581D01*
X80357694Y-13443181D01*
X80296371Y-13476666D01*
X80270013Y-13479500D01*
X79658699Y-13479500D01*
X79621833Y-13482401D01*
X79621827Y-13482402D01*
X79464007Y-13528254D01*
X79464004Y-13528255D01*
X79322538Y-13611917D01*
X79322532Y-13611921D01*
X79311742Y-13622712D01*
X79250417Y-13656195D01*
X79180726Y-13651208D01*
X79124794Y-13609335D01*
X79109501Y-13582479D01*
X79096797Y-13551808D01*
X79092735Y-13544772D01*
X79093887Y-13544106D01*
X79071739Y-13486821D01*
X79072019Y-13463248D01*
X79073200Y-13452273D01*
X79073199Y-13288899D01*
X79092883Y-13221861D01*
X79145687Y-13176106D01*
X79197199Y-13164900D01*
X80336613Y-13164900D01*
X80403652Y-13184585D01*
G37*
%TD.AperFunction*%
%TA.AperFunction,Conductor*%
G36*
X122469077Y-248285D02*
G01*
X122489719Y-264919D01*
X129783081Y-7558281D01*
X129816566Y-7619604D01*
X129819400Y-7645962D01*
X129819400Y-42900038D01*
X129799715Y-42967077D01*
X129783081Y-42987719D01*
X126071119Y-46699681D01*
X126009796Y-46733166D01*
X125983438Y-46736000D01*
X68986399Y-46736000D01*
X66254119Y-49468281D01*
X66192796Y-49501766D01*
X66166438Y-49504600D01*
X41377162Y-49504600D01*
X41310123Y-49484915D01*
X41289481Y-49468281D01*
X39725600Y-47904400D01*
X15951762Y-47904400D01*
X15884723Y-47884715D01*
X15864081Y-47868081D01*
X468119Y-32472119D01*
X434634Y-32410796D01*
X431800Y-32384438D01*
X431800Y-9118596D01*
X4045835Y-9118596D01*
X4045835Y-9118603D01*
X4066030Y-9297849D01*
X4066031Y-9297854D01*
X4125611Y-9468123D01*
X4189451Y-9569723D01*
X4221584Y-9620862D01*
X4349138Y-9748416D01*
X4419943Y-9792906D01*
X4497975Y-9841937D01*
X4501878Y-9844389D01*
X4568463Y-9867688D01*
X4672145Y-9903968D01*
X4672150Y-9903969D01*
X4751531Y-9912912D01*
X4851400Y-9924165D01*
X4867201Y-9922384D01*
X4936020Y-9934436D01*
X4968767Y-9957923D01*
X5015781Y-10004937D01*
X5049266Y-10066260D01*
X5052100Y-10092618D01*
X5052100Y-33544409D01*
X5086890Y-33674246D01*
X5118620Y-33729204D01*
X5154098Y-33790654D01*
X17237946Y-45874502D01*
X17338757Y-45932705D01*
X17354351Y-45941709D01*
X17354355Y-45941711D01*
X17484191Y-45976500D01*
X17484193Y-45976500D01*
X33392006Y-45976500D01*
X33392009Y-45976500D01*
X33521846Y-45941710D01*
X33638254Y-45874502D01*
X33733302Y-45779454D01*
X34725405Y-44787349D01*
X34786726Y-44753866D01*
X34856417Y-44758850D01*
X34912351Y-44800721D01*
X34930125Y-44834074D01*
X34935811Y-44850322D01*
X35031784Y-45003062D01*
X35159338Y-45130616D01*
X35249680Y-45187382D01*
X35284691Y-45209381D01*
X35312078Y-45226589D01*
X35469502Y-45281674D01*
X35482345Y-45286168D01*
X35482350Y-45286169D01*
X35661596Y-45306365D01*
X35661600Y-45306365D01*
X35661604Y-45306365D01*
X35840849Y-45286169D01*
X35840852Y-45286168D01*
X35840855Y-45286168D01*
X36011122Y-45226589D01*
X36163862Y-45130616D01*
X36246859Y-45047619D01*
X36308182Y-45014134D01*
X36334540Y-45011300D01*
X37532206Y-45011300D01*
X37532209Y-45011300D01*
X37662046Y-44976510D01*
X37778454Y-44909302D01*
X37873502Y-44814254D01*
X40141019Y-42546737D01*
X40202342Y-42513252D01*
X40272034Y-42518236D01*
X40327967Y-42560108D01*
X40352384Y-42625572D01*
X40352700Y-42634418D01*
X40352700Y-45357775D01*
X40386126Y-45482527D01*
X40410655Y-45525011D01*
X40450702Y-45594374D01*
X40450704Y-45594376D01*
X42150681Y-47294353D01*
X42184166Y-47355676D01*
X42187000Y-47382034D01*
X42187000Y-48769017D01*
X42197792Y-48837157D01*
X42201854Y-48862804D01*
X42259450Y-48975842D01*
X42259452Y-48975844D01*
X42259454Y-48975847D01*
X42349152Y-49065545D01*
X42349154Y-49065546D01*
X42349158Y-49065550D01*
X42462194Y-49123145D01*
X42462198Y-49123147D01*
X42555975Y-49137999D01*
X42555981Y-49138000D01*
X44319018Y-49137999D01*
X44412804Y-49123146D01*
X44525842Y-49065550D01*
X44615550Y-48975842D01*
X44673146Y-48862804D01*
X44673146Y-48862802D01*
X44673147Y-48862801D01*
X44687999Y-48769024D01*
X44688000Y-48769019D01*
X44687999Y-48619359D01*
X44707683Y-48552323D01*
X44760487Y-48506568D01*
X44829645Y-48496624D01*
X44893201Y-48525649D01*
X44913573Y-48548238D01*
X45015902Y-48694377D01*
X45170623Y-48849098D01*
X45349861Y-48974602D01*
X45548170Y-49067075D01*
X45759523Y-49123707D01*
X45942426Y-49139708D01*
X45977498Y-49142777D01*
X45977500Y-49142777D01*
X45977502Y-49142777D01*
X46005754Y-49140305D01*
X46195477Y-49123707D01*
X46406830Y-49067075D01*
X46605139Y-48974602D01*
X46784377Y-48849098D01*
X46939098Y-48694377D01*
X47064602Y-48515139D01*
X47135118Y-48363914D01*
X47181290Y-48311477D01*
X47248484Y-48292325D01*
X47315365Y-48312541D01*
X47359881Y-48363914D01*
X47430398Y-48515139D01*
X47555902Y-48694377D01*
X47710623Y-48849098D01*
X47889861Y-48974602D01*
X48088170Y-49067075D01*
X48299523Y-49123707D01*
X48482426Y-49139708D01*
X48517498Y-49142777D01*
X48517500Y-49142777D01*
X48517502Y-49142777D01*
X48545754Y-49140305D01*
X48735477Y-49123707D01*
X48946830Y-49067075D01*
X49145139Y-48974602D01*
X49324377Y-48849098D01*
X49479098Y-48694377D01*
X49604602Y-48515139D01*
X49675118Y-48363914D01*
X49721290Y-48311477D01*
X49788484Y-48292325D01*
X49855365Y-48312541D01*
X49899881Y-48363914D01*
X49970398Y-48515139D01*
X50095902Y-48694377D01*
X50250623Y-48849098D01*
X50429861Y-48974602D01*
X50628170Y-49067075D01*
X50839523Y-49123707D01*
X51022426Y-49139708D01*
X51057498Y-49142777D01*
X51057500Y-49142777D01*
X51057502Y-49142777D01*
X51085754Y-49140305D01*
X51275477Y-49123707D01*
X51486830Y-49067075D01*
X51685139Y-48974602D01*
X51864377Y-48849098D01*
X52019098Y-48694377D01*
X52144602Y-48515139D01*
X52215118Y-48363914D01*
X52261290Y-48311477D01*
X52328484Y-48292325D01*
X52395365Y-48312541D01*
X52439881Y-48363914D01*
X52510398Y-48515139D01*
X52635902Y-48694377D01*
X52790623Y-48849098D01*
X52969861Y-48974602D01*
X53168170Y-49067075D01*
X53379523Y-49123707D01*
X53562426Y-49139708D01*
X53597498Y-49142777D01*
X53597500Y-49142777D01*
X53597502Y-49142777D01*
X53625754Y-49140305D01*
X53815477Y-49123707D01*
X54026830Y-49067075D01*
X54225139Y-48974602D01*
X54404377Y-48849098D01*
X54559098Y-48694377D01*
X54684602Y-48515139D01*
X54755118Y-48363914D01*
X54801290Y-48311477D01*
X54868484Y-48292325D01*
X54935365Y-48312541D01*
X54979881Y-48363914D01*
X55050398Y-48515139D01*
X55175902Y-48694377D01*
X55330623Y-48849098D01*
X55509861Y-48974602D01*
X55708170Y-49067075D01*
X55919523Y-49123707D01*
X56102426Y-49139708D01*
X56137498Y-49142777D01*
X56137500Y-49142777D01*
X56137502Y-49142777D01*
X56165754Y-49140305D01*
X56355477Y-49123707D01*
X56566830Y-49067075D01*
X56765139Y-48974602D01*
X56944377Y-48849098D01*
X57099098Y-48694377D01*
X57224602Y-48515139D01*
X57295118Y-48363914D01*
X57341290Y-48311477D01*
X57408484Y-48292325D01*
X57475365Y-48312541D01*
X57519881Y-48363914D01*
X57590398Y-48515139D01*
X57715902Y-48694377D01*
X57870623Y-48849098D01*
X58049861Y-48974602D01*
X58248170Y-49067075D01*
X58459523Y-49123707D01*
X58642426Y-49139708D01*
X58677498Y-49142777D01*
X58677500Y-49142777D01*
X58677502Y-49142777D01*
X58705754Y-49140305D01*
X58895477Y-49123707D01*
X59106830Y-49067075D01*
X59305139Y-48974602D01*
X59484377Y-48849098D01*
X59639098Y-48694377D01*
X59764602Y-48515139D01*
X59835118Y-48363914D01*
X59881290Y-48311477D01*
X59948484Y-48292325D01*
X60015365Y-48312541D01*
X60059881Y-48363914D01*
X60130398Y-48515139D01*
X60255902Y-48694377D01*
X60410623Y-48849098D01*
X60589861Y-48974602D01*
X60788170Y-49067075D01*
X60999523Y-49123707D01*
X61182426Y-49139708D01*
X61217498Y-49142777D01*
X61217500Y-49142777D01*
X61217502Y-49142777D01*
X61245754Y-49140305D01*
X61435477Y-49123707D01*
X61646830Y-49067075D01*
X61845139Y-48974602D01*
X62024377Y-48849098D01*
X62179098Y-48694377D01*
X62304602Y-48515139D01*
X62375118Y-48363914D01*
X62421290Y-48311477D01*
X62488484Y-48292325D01*
X62555365Y-48312541D01*
X62599881Y-48363914D01*
X62670398Y-48515139D01*
X62795902Y-48694377D01*
X62950623Y-48849098D01*
X63129861Y-48974602D01*
X63328170Y-49067075D01*
X63539523Y-49123707D01*
X63722426Y-49139708D01*
X63757498Y-49142777D01*
X63757500Y-49142777D01*
X63757502Y-49142777D01*
X63785754Y-49140305D01*
X63975477Y-49123707D01*
X64186830Y-49067075D01*
X64385139Y-48974602D01*
X64564377Y-48849098D01*
X64719098Y-48694377D01*
X64844602Y-48515139D01*
X64937075Y-48316830D01*
X64993707Y-48105477D01*
X65010305Y-47915754D01*
X65012777Y-47887502D01*
X65012777Y-47887497D01*
X65009069Y-47845118D01*
X64993707Y-47669523D01*
X64937075Y-47458170D01*
X64874698Y-47324404D01*
X64864207Y-47255327D01*
X64892727Y-47191543D01*
X64951203Y-47153304D01*
X64987081Y-47148000D01*
X66428772Y-47148000D01*
X66428774Y-47148000D01*
X66428775Y-47148000D01*
X66568785Y-47110484D01*
X66620506Y-47080623D01*
X66694315Y-47038010D01*
X67349306Y-46383019D01*
X67410629Y-46349534D01*
X67436987Y-46346700D01*
X122957672Y-46346700D01*
X122957674Y-46346700D01*
X122957675Y-46346700D01*
X123097685Y-46309184D01*
X123114481Y-46299486D01*
X123114483Y-46299486D01*
X123223208Y-46236714D01*
X123223207Y-46236714D01*
X123223215Y-46236710D01*
X128100910Y-41359014D01*
X128173384Y-41233485D01*
X128202153Y-41126118D01*
X128210900Y-41093475D01*
X128210900Y-9935125D01*
X128173384Y-9795115D01*
X128148202Y-9751498D01*
X128100910Y-9669585D01*
X124295315Y-5863990D01*
X124169785Y-5791516D01*
X124169780Y-5791514D01*
X124126674Y-5779963D01*
X124126674Y-5779964D01*
X124078224Y-5766982D01*
X124029775Y-5754000D01*
X124029774Y-5754000D01*
X119956840Y-5754000D01*
X119889801Y-5734315D01*
X119869159Y-5717681D01*
X119826162Y-5674684D01*
X119673423Y-5578711D01*
X119503154Y-5519131D01*
X119503149Y-5519130D01*
X119323904Y-5498935D01*
X119323896Y-5498935D01*
X119144650Y-5519130D01*
X119144645Y-5519131D01*
X118974376Y-5578711D01*
X118821637Y-5674684D01*
X118694084Y-5802237D01*
X118598111Y-5954976D01*
X118538531Y-6125245D01*
X118538530Y-6125250D01*
X118518335Y-6304496D01*
X118518335Y-6304503D01*
X118538530Y-6483749D01*
X118538532Y-6483757D01*
X118581886Y-6607656D01*
X118585447Y-6677435D01*
X118550718Y-6738062D01*
X118488725Y-6770289D01*
X118419149Y-6763884D01*
X118377163Y-6736291D01*
X113077176Y-1436304D01*
X113077174Y-1436302D01*
X113021250Y-1404014D01*
X112965327Y-1371726D01*
X112889407Y-1351384D01*
X112840576Y-1338300D01*
X61151576Y-1338300D01*
X61022424Y-1338300D01*
X60980840Y-1349442D01*
X60897671Y-1371726D01*
X60785826Y-1436302D01*
X60785823Y-1436304D01*
X59787123Y-2435003D01*
X59725800Y-2468488D01*
X59713326Y-2470542D01*
X59552944Y-2488612D01*
X59398625Y-2542610D01*
X59260195Y-2629592D01*
X59216207Y-2673581D01*
X59154884Y-2707066D01*
X59128526Y-2709900D01*
X57570176Y-2709900D01*
X57441024Y-2709900D01*
X57399440Y-2721042D01*
X57316271Y-2743326D01*
X57204426Y-2807902D01*
X57204423Y-2807904D01*
X50712304Y-9300023D01*
X50712302Y-9300026D01*
X50647726Y-9411872D01*
X50614300Y-9536624D01*
X50614300Y-19745418D01*
X50594615Y-19812457D01*
X50541811Y-19858212D01*
X50472653Y-19868156D01*
X50419778Y-19845300D01*
X50419158Y-19846289D01*
X50405969Y-19838002D01*
X50325929Y-19787709D01*
X50260523Y-19746611D01*
X50090254Y-19687031D01*
X50090249Y-19687030D01*
X49911004Y-19666835D01*
X49910996Y-19666835D01*
X49731750Y-19687030D01*
X49731745Y-19687031D01*
X49561476Y-19746611D01*
X49408737Y-19842584D01*
X49281184Y-19970137D01*
X49185211Y-20122876D01*
X49125631Y-20293145D01*
X49125630Y-20293150D01*
X49105435Y-20472396D01*
X49105435Y-20472403D01*
X49125630Y-20651649D01*
X49125631Y-20651654D01*
X49185211Y-20821923D01*
X49281184Y-20974662D01*
X49364181Y-21057659D01*
X49397666Y-21118982D01*
X49400500Y-21145340D01*
X49400500Y-28412560D01*
X49380815Y-28479599D01*
X49364181Y-28500241D01*
X49283684Y-28580737D01*
X49187711Y-28733476D01*
X49128131Y-28903745D01*
X49128130Y-28903750D01*
X49107935Y-29082996D01*
X49107935Y-29083003D01*
X49128130Y-29262249D01*
X49128131Y-29262254D01*
X49187711Y-29432523D01*
X49271331Y-29565603D01*
X49283684Y-29585262D01*
X49411238Y-29712816D01*
X49461798Y-29744585D01*
X49550429Y-29800276D01*
X49563978Y-29808789D01*
X49657021Y-29841346D01*
X49734245Y-29868368D01*
X49734250Y-29868369D01*
X49913496Y-29888565D01*
X49913500Y-29888565D01*
X49913504Y-29888565D01*
X50092749Y-29868369D01*
X50092752Y-29868368D01*
X50092755Y-29868368D01*
X50263022Y-29808789D01*
X50415762Y-29712816D01*
X50543316Y-29585262D01*
X50639289Y-29432522D01*
X50698868Y-29262255D01*
X50700760Y-29245467D01*
X50719065Y-29083003D01*
X50719065Y-29082996D01*
X50698869Y-28903750D01*
X50698868Y-28903745D01*
X50689764Y-28877726D01*
X50639289Y-28733478D01*
X50629151Y-28717344D01*
X50586676Y-28649745D01*
X50543316Y-28580738D01*
X50457819Y-28495241D01*
X50424334Y-28433918D01*
X50421500Y-28407560D01*
X50421500Y-24314065D01*
X50441185Y-24247026D01*
X50493989Y-24201271D01*
X50563147Y-24191327D01*
X50626703Y-24220352D01*
X50652886Y-24252064D01*
X50712302Y-24354974D01*
X50712304Y-24354976D01*
X54805477Y-28448149D01*
X54838962Y-28509472D01*
X54833978Y-28579164D01*
X54805477Y-28623511D01*
X54801192Y-28627795D01*
X54714210Y-28766225D01*
X54660212Y-28920544D01*
X54641909Y-29082996D01*
X54641909Y-29083003D01*
X54660212Y-29245455D01*
X54660215Y-29245467D01*
X54676071Y-29290782D01*
X54679632Y-29360561D01*
X54646710Y-29419416D01*
X44537147Y-39528981D01*
X44475824Y-39562466D01*
X44449466Y-39565300D01*
X43421818Y-39565300D01*
X43354779Y-39545615D01*
X43309024Y-39492811D01*
X43299080Y-39423653D01*
X43328105Y-39360097D01*
X43334137Y-39353619D01*
X44834531Y-37853225D01*
X46407902Y-36279854D01*
X46412560Y-36271786D01*
X46475110Y-36163446D01*
X46509900Y-36033609D01*
X46509900Y-35297463D01*
X46529585Y-35230424D01*
X46582389Y-35184669D01*
X46651547Y-35174725D01*
X46699873Y-35192470D01*
X46742075Y-35218988D01*
X46912345Y-35278568D01*
X46912350Y-35278569D01*
X47091596Y-35298765D01*
X47091600Y-35298765D01*
X47091604Y-35298765D01*
X47270849Y-35278569D01*
X47270852Y-35278568D01*
X47270855Y-35278568D01*
X47441122Y-35218989D01*
X47593862Y-35123016D01*
X47721416Y-34995462D01*
X47817389Y-34842722D01*
X47876968Y-34672455D01*
X47877132Y-34671000D01*
X47897165Y-34493203D01*
X47897165Y-34493196D01*
X47876969Y-34313950D01*
X47876968Y-34313945D01*
X47830506Y-34181165D01*
X47817389Y-34143678D01*
X47721416Y-33990938D01*
X47638419Y-33907941D01*
X47604934Y-33846618D01*
X47602100Y-33820260D01*
X47602100Y-19213875D01*
X47621785Y-19146836D01*
X47674589Y-19101081D01*
X47743747Y-19091137D01*
X47803417Y-19116931D01*
X47808531Y-19121009D01*
X47808538Y-19121016D01*
X47961278Y-19216989D01*
X48119756Y-19272443D01*
X48131545Y-19276568D01*
X48131550Y-19276569D01*
X48310796Y-19296765D01*
X48310800Y-19296765D01*
X48310804Y-19296765D01*
X48490049Y-19276569D01*
X48490052Y-19276568D01*
X48490055Y-19276568D01*
X48660322Y-19216989D01*
X48813062Y-19121016D01*
X48940616Y-18993462D01*
X49036589Y-18840722D01*
X49096168Y-18670455D01*
X49116365Y-18491200D01*
X49114584Y-18475397D01*
X49126637Y-18406577D01*
X49150120Y-18373834D01*
X49735302Y-17788654D01*
X49749154Y-17764661D01*
X49802510Y-17672246D01*
X49837300Y-17542409D01*
X49837300Y-6765218D01*
X49856985Y-6698179D01*
X49873619Y-6677537D01*
X53948958Y-2602198D01*
X54010281Y-2568713D01*
X54079973Y-2573697D01*
X54124320Y-2602198D01*
X54133138Y-2611016D01*
X54162702Y-2629592D01*
X54252986Y-2686322D01*
X54285878Y-2706989D01*
X54456145Y-2766568D01*
X54456150Y-2766569D01*
X54635396Y-2786765D01*
X54635400Y-2786765D01*
X54635404Y-2786765D01*
X54814649Y-2766569D01*
X54814652Y-2766568D01*
X54814655Y-2766568D01*
X54984922Y-2706989D01*
X55137662Y-2611016D01*
X55265216Y-2483462D01*
X55361189Y-2330722D01*
X55420768Y-2160455D01*
X55420769Y-2160449D01*
X55440965Y-1981203D01*
X55440965Y-1981196D01*
X55420769Y-1801950D01*
X55420768Y-1801945D01*
X55361188Y-1631676D01*
X55281900Y-1505491D01*
X55265216Y-1478938D01*
X55137662Y-1351384D01*
X55116839Y-1338300D01*
X54984923Y-1255411D01*
X54814654Y-1195831D01*
X54814649Y-1195830D01*
X54635404Y-1175635D01*
X54635396Y-1175635D01*
X54456150Y-1195830D01*
X54456145Y-1195831D01*
X54285876Y-1255411D01*
X54133137Y-1351384D01*
X54050141Y-1434381D01*
X53988818Y-1467866D01*
X53962460Y-1470700D01*
X53780791Y-1470700D01*
X53702888Y-1491574D01*
X53650952Y-1505490D01*
X53650951Y-1505491D01*
X53534549Y-1572695D01*
X53534544Y-1572699D01*
X48918299Y-6188944D01*
X48918295Y-6188949D01*
X48851091Y-6305351D01*
X48851090Y-6305352D01*
X48837021Y-6357860D01*
X48816300Y-6435191D01*
X48816300Y-6435193D01*
X48816300Y-17212381D01*
X48796615Y-17279420D01*
X48779981Y-17300062D01*
X48428166Y-17651876D01*
X48366843Y-17685361D01*
X48326602Y-17687415D01*
X48310803Y-17685635D01*
X48310796Y-17685635D01*
X48131550Y-17705830D01*
X48131545Y-17705831D01*
X47961276Y-17765411D01*
X47808533Y-17861387D01*
X47803411Y-17865472D01*
X47738724Y-17891880D01*
X47670029Y-17879122D01*
X47619136Y-17831251D01*
X47602100Y-17768524D01*
X47602100Y-13523448D01*
X47621785Y-13456409D01*
X47674589Y-13410654D01*
X47685130Y-13406412D01*
X47847522Y-13349589D01*
X48000262Y-13253616D01*
X48127816Y-13126062D01*
X48223789Y-12973322D01*
X48283368Y-12803055D01*
X48283456Y-12802276D01*
X48303565Y-12623803D01*
X48303565Y-12623796D01*
X48283369Y-12444550D01*
X48283368Y-12444545D01*
X48252300Y-12355758D01*
X48223789Y-12274278D01*
X48127816Y-12121538D01*
X48000262Y-11993984D01*
X47965361Y-11972054D01*
X47847523Y-11898011D01*
X47677254Y-11838431D01*
X47677249Y-11838430D01*
X47498004Y-11818235D01*
X47497996Y-11818235D01*
X47318750Y-11838430D01*
X47318745Y-11838431D01*
X47148476Y-11898011D01*
X46995737Y-11993984D01*
X46868184Y-12121537D01*
X46772211Y-12274276D01*
X46712631Y-12444545D01*
X46712630Y-12444550D01*
X46692435Y-12623796D01*
X46692435Y-12623799D01*
X46695104Y-12647495D01*
X46683047Y-12716316D01*
X46679271Y-12723373D01*
X46615890Y-12833153D01*
X46609268Y-12857866D01*
X46581100Y-12962991D01*
X46581100Y-12962993D01*
X46581100Y-14534416D01*
X46561415Y-14601455D01*
X46508611Y-14647210D01*
X46439453Y-14657154D01*
X46391128Y-14639410D01*
X46272723Y-14565011D01*
X46102454Y-14505431D01*
X46102449Y-14505430D01*
X45923204Y-14485235D01*
X45923196Y-14485235D01*
X45743950Y-14505430D01*
X45743945Y-14505431D01*
X45573676Y-14565011D01*
X45420937Y-14660984D01*
X45337941Y-14743981D01*
X45276618Y-14777466D01*
X45250260Y-14780300D01*
X42096791Y-14780300D01*
X41966953Y-14815089D01*
X41850546Y-14882298D01*
X41850543Y-14882300D01*
X40210863Y-16521981D01*
X40149540Y-16555466D01*
X40123182Y-16558300D01*
X34425991Y-16558300D01*
X34296153Y-16593089D01*
X34179746Y-16660298D01*
X34026366Y-16813677D01*
X33965042Y-16847161D01*
X33924802Y-16849215D01*
X33909003Y-16847435D01*
X33908996Y-16847435D01*
X33729750Y-16867630D01*
X33729745Y-16867631D01*
X33559476Y-16927211D01*
X33406737Y-17023184D01*
X33279184Y-17150737D01*
X33183211Y-17303476D01*
X33123631Y-17473745D01*
X33123630Y-17473750D01*
X33103435Y-17652996D01*
X33103435Y-17653003D01*
X33123630Y-17832249D01*
X33123631Y-17832254D01*
X33183211Y-18002523D01*
X33255779Y-18118013D01*
X33279184Y-18155262D01*
X33406738Y-18282816D01*
X33467223Y-18320821D01*
X33553673Y-18375142D01*
X33559478Y-18378789D01*
X33597999Y-18392268D01*
X33729745Y-18438368D01*
X33729750Y-18438369D01*
X33908996Y-18458565D01*
X33909000Y-18458565D01*
X33909004Y-18458565D01*
X34088249Y-18438369D01*
X34088252Y-18438368D01*
X34088255Y-18438368D01*
X34258522Y-18378789D01*
X34411262Y-18282816D01*
X34538816Y-18155262D01*
X34634789Y-18002522D01*
X34694368Y-17832255D01*
X34699281Y-17788655D01*
X34710462Y-17689417D01*
X34737528Y-17625003D01*
X34795123Y-17585448D01*
X34833682Y-17579300D01*
X40453206Y-17579300D01*
X40453209Y-17579300D01*
X40583046Y-17544510D01*
X40699454Y-17477302D01*
X40794502Y-17382254D01*
X42339137Y-15837619D01*
X42400460Y-15804134D01*
X42426818Y-15801300D01*
X45250260Y-15801300D01*
X45317299Y-15820985D01*
X45337941Y-15837619D01*
X45420938Y-15920616D01*
X45510030Y-15976596D01*
X45562010Y-16009258D01*
X45573678Y-16016589D01*
X45661111Y-16047183D01*
X45743945Y-16076168D01*
X45743950Y-16076169D01*
X45923196Y-16096365D01*
X45923200Y-16096365D01*
X45923204Y-16096365D01*
X46102449Y-16076169D01*
X46102452Y-16076168D01*
X46102455Y-16076168D01*
X46272722Y-16016589D01*
X46284390Y-16009258D01*
X46391127Y-15942190D01*
X46458364Y-15923189D01*
X46525199Y-15943556D01*
X46570414Y-15996824D01*
X46581100Y-16047183D01*
X46581100Y-29020681D01*
X46561415Y-29087720D01*
X46508611Y-29133475D01*
X46439453Y-29143419D01*
X46375897Y-29114394D01*
X46352107Y-29086654D01*
X46273617Y-28961739D01*
X46146062Y-28834184D01*
X45993323Y-28738211D01*
X45823054Y-28678631D01*
X45823049Y-28678630D01*
X45643804Y-28658435D01*
X45643796Y-28658435D01*
X45464550Y-28678630D01*
X45464545Y-28678631D01*
X45294276Y-28738211D01*
X45141537Y-28834184D01*
X45013984Y-28961737D01*
X44918011Y-29114476D01*
X44858431Y-29284745D01*
X44858430Y-29284750D01*
X44838235Y-29463996D01*
X44838235Y-29464003D01*
X44840015Y-29479802D01*
X44827960Y-29548624D01*
X44804476Y-29581366D01*
X43501546Y-30884298D01*
X43406499Y-30979344D01*
X43406495Y-30979349D01*
X43339291Y-31095751D01*
X43339290Y-31095752D01*
X43327985Y-31137944D01*
X43304500Y-31225591D01*
X43304500Y-31225593D01*
X43304500Y-32042260D01*
X43284815Y-32109299D01*
X43268181Y-32129941D01*
X43180981Y-32217141D01*
X43119658Y-32250626D01*
X43049966Y-32245642D01*
X42994033Y-32203770D01*
X42969616Y-32138306D01*
X42969300Y-32129460D01*
X42969300Y-24986274D01*
X42988985Y-24919235D01*
X43005619Y-24898593D01*
X43028918Y-24875294D01*
X43065008Y-24839204D01*
X43151989Y-24700775D01*
X43205986Y-24546461D01*
X43207986Y-24528712D01*
X43224291Y-24384003D01*
X43224291Y-24383996D01*
X43205987Y-24221544D01*
X43205986Y-24221542D01*
X43205986Y-24221539D01*
X43151989Y-24067225D01*
X43065008Y-23928796D01*
X42949404Y-23813192D01*
X42926302Y-23798676D01*
X42810974Y-23726210D01*
X42656655Y-23672212D01*
X42494204Y-23653909D01*
X42494196Y-23653909D01*
X42331744Y-23672212D01*
X42177425Y-23726210D01*
X42038995Y-23813192D01*
X41923392Y-23928795D01*
X41836410Y-24067225D01*
X41782412Y-24221544D01*
X41764109Y-24383996D01*
X41764109Y-24384003D01*
X41782412Y-24546455D01*
X41836411Y-24700776D01*
X41841977Y-24709634D01*
X41860978Y-24776871D01*
X41840611Y-24843706D01*
X41787343Y-24888920D01*
X41718087Y-24898159D01*
X41654831Y-24868488D01*
X41649303Y-24863288D01*
X41628795Y-24842780D01*
X41628772Y-24842759D01*
X40717801Y-23931787D01*
X40684316Y-23870464D01*
X40682262Y-23857989D01*
X40665987Y-23713544D01*
X40665986Y-23713542D01*
X40665986Y-23713539D01*
X40611989Y-23559225D01*
X40525008Y-23420796D01*
X40409404Y-23305192D01*
X40403963Y-23301773D01*
X40270974Y-23218210D01*
X40116655Y-23164212D01*
X39954204Y-23145909D01*
X39954196Y-23145909D01*
X39791744Y-23164212D01*
X39637425Y-23218210D01*
X39498995Y-23305192D01*
X39383392Y-23420795D01*
X39296410Y-23559225D01*
X39242412Y-23713544D01*
X39224109Y-23875996D01*
X39224109Y-23876003D01*
X39242412Y-24038455D01*
X39296410Y-24192774D01*
X39356544Y-24288476D01*
X39383392Y-24331204D01*
X39498996Y-24446808D01*
X39637425Y-24533789D01*
X39791739Y-24587786D01*
X39791742Y-24587786D01*
X39791744Y-24587787D01*
X39936189Y-24604062D01*
X40000603Y-24631128D01*
X40009987Y-24639601D01*
X40788981Y-25418594D01*
X40822466Y-25479917D01*
X40825300Y-25506275D01*
X40825300Y-31643724D01*
X40805615Y-31710763D01*
X40788981Y-31731405D01*
X40417302Y-32103083D01*
X40417300Y-32103086D01*
X40351408Y-32217212D01*
X40317300Y-32344508D01*
X40317300Y-37137260D01*
X40297615Y-37204299D01*
X40244811Y-37250054D01*
X40175653Y-37259998D01*
X40127328Y-37242254D01*
X39973523Y-37145611D01*
X39803254Y-37086031D01*
X39803249Y-37086030D01*
X39624004Y-37065835D01*
X39623996Y-37065835D01*
X39444750Y-37086030D01*
X39444745Y-37086031D01*
X39274476Y-37145611D01*
X39121737Y-37241584D01*
X39038741Y-37324581D01*
X38977418Y-37358066D01*
X38951060Y-37360900D01*
X37550191Y-37360900D01*
X37472288Y-37381774D01*
X37420352Y-37395690D01*
X37420351Y-37395691D01*
X37338206Y-37443118D01*
X37338205Y-37443117D01*
X37303945Y-37462898D01*
X36355788Y-38411055D01*
X36294465Y-38444540D01*
X36224773Y-38439556D01*
X36168840Y-38397684D01*
X36144423Y-38332220D01*
X36157578Y-38271744D01*
X36155938Y-38271014D01*
X36158574Y-38265092D01*
X36158579Y-38265084D01*
X36217074Y-38085056D01*
X36236860Y-37896800D01*
X36217074Y-37708544D01*
X36158579Y-37528516D01*
X36063933Y-37364584D01*
X35937271Y-37223912D01*
X35910276Y-37204299D01*
X35784134Y-37112651D01*
X35784129Y-37112648D01*
X35611207Y-37035657D01*
X35611202Y-37035655D01*
X35465401Y-37004665D01*
X35426046Y-36996300D01*
X35236754Y-36996300D01*
X35204297Y-37003198D01*
X35051597Y-37035655D01*
X35051592Y-37035657D01*
X34878670Y-37112648D01*
X34878665Y-37112651D01*
X34725529Y-37223911D01*
X34598866Y-37364585D01*
X34504221Y-37528515D01*
X34504218Y-37528522D01*
X34445727Y-37708540D01*
X34445726Y-37708544D01*
X34425940Y-37896800D01*
X34445726Y-38085056D01*
X34445727Y-38085059D01*
X34504218Y-38265077D01*
X34504221Y-38265084D01*
X34598867Y-38429016D01*
X34664503Y-38501912D01*
X34725529Y-38569688D01*
X34878665Y-38680948D01*
X34878670Y-38680951D01*
X35051592Y-38757942D01*
X35051597Y-38757944D01*
X35236754Y-38797300D01*
X35236755Y-38797300D01*
X35426044Y-38797300D01*
X35426046Y-38797300D01*
X35611203Y-38757944D01*
X35716869Y-38710897D01*
X35786117Y-38701612D01*
X35849394Y-38731240D01*
X35886608Y-38790375D01*
X35885944Y-38860241D01*
X35854985Y-38911858D01*
X34332146Y-40434698D01*
X34237099Y-40529744D01*
X34237095Y-40529749D01*
X34169891Y-40646151D01*
X34169890Y-40646152D01*
X34154901Y-40702093D01*
X34135100Y-40775991D01*
X34135100Y-40775993D01*
X34135100Y-42510781D01*
X34115415Y-42577820D01*
X34098781Y-42598462D01*
X33893140Y-42804102D01*
X33831817Y-42837587D01*
X33762125Y-42832603D01*
X33706192Y-42790731D01*
X33682239Y-42730305D01*
X33678368Y-42695945D01*
X33618789Y-42525678D01*
X33586307Y-42473984D01*
X33560772Y-42433344D01*
X33522816Y-42372938D01*
X33479819Y-42329941D01*
X33446334Y-42268618D01*
X33443500Y-42242260D01*
X33443500Y-41024727D01*
X33443500Y-41024725D01*
X33405984Y-40884715D01*
X33341014Y-40772184D01*
X33339194Y-40769032D01*
X33333509Y-40759185D01*
X33333508Y-40759183D01*
X26875805Y-34301480D01*
X26842320Y-34240157D01*
X26847304Y-34170465D01*
X26875803Y-34126120D01*
X32017919Y-28984005D01*
X32079242Y-28950520D01*
X32148934Y-28955504D01*
X32193281Y-28984005D01*
X32373895Y-29164619D01*
X32407380Y-29225942D01*
X32402396Y-29295634D01*
X32360524Y-29351567D01*
X32295060Y-29375984D01*
X32286214Y-29376300D01*
X32264954Y-29376300D01*
X32234741Y-29382722D01*
X32079797Y-29415655D01*
X32079792Y-29415657D01*
X31906870Y-29492648D01*
X31906865Y-29492651D01*
X31753729Y-29603911D01*
X31627066Y-29744585D01*
X31532421Y-29908515D01*
X31532418Y-29908522D01*
X31480646Y-30067862D01*
X31473926Y-30088544D01*
X31454140Y-30276800D01*
X31473926Y-30465056D01*
X31473927Y-30465059D01*
X31532418Y-30645077D01*
X31532421Y-30645084D01*
X31627067Y-30809016D01*
X31698572Y-30888430D01*
X31753729Y-30949688D01*
X31906865Y-31060948D01*
X31906870Y-31060951D01*
X32079792Y-31137942D01*
X32079797Y-31137944D01*
X32264954Y-31177300D01*
X32264955Y-31177300D01*
X32454244Y-31177300D01*
X32454246Y-31177300D01*
X32639403Y-31137944D01*
X32812330Y-31060951D01*
X32965471Y-30949688D01*
X33092133Y-30809016D01*
X33186779Y-30645084D01*
X33245274Y-30465056D01*
X33265060Y-30276800D01*
X33245274Y-30088544D01*
X33186779Y-29908516D01*
X33092133Y-29744584D01*
X32965471Y-29603912D01*
X32965339Y-29603816D01*
X32965282Y-29603741D01*
X32960642Y-29599564D01*
X32961406Y-29598715D01*
X32922675Y-29548487D01*
X32916697Y-29478873D01*
X32949304Y-29417078D01*
X33010143Y-29382722D01*
X33038227Y-29379500D01*
X39041860Y-29379500D01*
X39108899Y-29399185D01*
X39129541Y-29415819D01*
X39172538Y-29458816D01*
X39325278Y-29554789D01*
X39487952Y-29611711D01*
X39495545Y-29614368D01*
X39495550Y-29614369D01*
X39674796Y-29634565D01*
X39674800Y-29634565D01*
X39674804Y-29634565D01*
X39854049Y-29614369D01*
X39854052Y-29614368D01*
X39854055Y-29614368D01*
X40024322Y-29554789D01*
X40177062Y-29458816D01*
X40304616Y-29331262D01*
X40400589Y-29178522D01*
X40460168Y-29008255D01*
X40460169Y-29008249D01*
X40480365Y-28829003D01*
X40480365Y-28828996D01*
X40460169Y-28649750D01*
X40460168Y-28649745D01*
X40440277Y-28592899D01*
X40400589Y-28479478D01*
X40304616Y-28326738D01*
X40177062Y-28199184D01*
X40069621Y-28131674D01*
X40024323Y-28103211D01*
X39854054Y-28043631D01*
X39854049Y-28043630D01*
X39674804Y-28023435D01*
X39674796Y-28023435D01*
X39495550Y-28043630D01*
X39495545Y-28043631D01*
X39325276Y-28103211D01*
X39172537Y-28199184D01*
X39129541Y-28242181D01*
X39068218Y-28275666D01*
X39041860Y-28278500D01*
X33096186Y-28278500D01*
X33029147Y-28258815D01*
X33008505Y-28242181D01*
X32443615Y-27677290D01*
X28932079Y-24165754D01*
X28898594Y-24104431D01*
X28896540Y-24091956D01*
X28894939Y-24077750D01*
X28886194Y-24000131D01*
X28877769Y-23925349D01*
X28877768Y-23925345D01*
X28864332Y-23886947D01*
X28818189Y-23755078D01*
X28817975Y-23754738D01*
X28754620Y-23653909D01*
X28722216Y-23602338D01*
X28594662Y-23474784D01*
X28575709Y-23462875D01*
X28441923Y-23378811D01*
X28271654Y-23319231D01*
X28271649Y-23319230D01*
X28105043Y-23300459D01*
X28040629Y-23273393D01*
X28031245Y-23264920D01*
X23562321Y-18795996D01*
X38894635Y-18795996D01*
X38894635Y-18796003D01*
X38914830Y-18975249D01*
X38914831Y-18975254D01*
X38974411Y-19145523D01*
X39031792Y-19236843D01*
X39070384Y-19298262D01*
X39197938Y-19425816D01*
X39240969Y-19452854D01*
X39346775Y-19519337D01*
X39350678Y-19521789D01*
X39426708Y-19548393D01*
X39520945Y-19581368D01*
X39520950Y-19581369D01*
X39700196Y-19601565D01*
X39700200Y-19601565D01*
X39700204Y-19601565D01*
X39879449Y-19581369D01*
X39879452Y-19581368D01*
X39879455Y-19581368D01*
X40049722Y-19521789D01*
X40202462Y-19425816D01*
X40330016Y-19298262D01*
X40425989Y-19145522D01*
X40485568Y-18975255D01*
X40487581Y-18957391D01*
X40505765Y-18796003D01*
X40505765Y-18795996D01*
X40485569Y-18616750D01*
X40485568Y-18616745D01*
X40458414Y-18539143D01*
X40425989Y-18446478D01*
X40423817Y-18443022D01*
X40383457Y-18378789D01*
X40330016Y-18293738D01*
X40202462Y-18166184D01*
X40182697Y-18153765D01*
X40049723Y-18070211D01*
X39879454Y-18010631D01*
X39879449Y-18010630D01*
X39700204Y-17990435D01*
X39700196Y-17990435D01*
X39520950Y-18010630D01*
X39520945Y-18010631D01*
X39350676Y-18070211D01*
X39197937Y-18166184D01*
X39070384Y-18293737D01*
X38974411Y-18446476D01*
X38914831Y-18616745D01*
X38914830Y-18616750D01*
X38894635Y-18795996D01*
X23562321Y-18795996D01*
X22354619Y-17588294D01*
X22321134Y-17526971D01*
X22318300Y-17500613D01*
X22318300Y-16713196D01*
X28963235Y-16713196D01*
X28963235Y-16713203D01*
X28983430Y-16892449D01*
X28983431Y-16892454D01*
X29043011Y-17062723D01*
X29114275Y-17176138D01*
X29138984Y-17215462D01*
X29266538Y-17343016D01*
X29311978Y-17371568D01*
X29414926Y-17436255D01*
X29419278Y-17438989D01*
X29528776Y-17477304D01*
X29589545Y-17498568D01*
X29589550Y-17498569D01*
X29768796Y-17518765D01*
X29768800Y-17518765D01*
X29768804Y-17518765D01*
X29948049Y-17498569D01*
X29948052Y-17498568D01*
X29948055Y-17498568D01*
X30118322Y-17438989D01*
X30271062Y-17343016D01*
X30354059Y-17260019D01*
X30415382Y-17226534D01*
X30441740Y-17223700D01*
X32680806Y-17223700D01*
X32680809Y-17223700D01*
X32810646Y-17188910D01*
X32927054Y-17121702D01*
X33022102Y-17026654D01*
X40281737Y-9767019D01*
X40343060Y-9733534D01*
X40369418Y-9730700D01*
X40856060Y-9730700D01*
X40923099Y-9750385D01*
X40943741Y-9767019D01*
X41026738Y-9850016D01*
X41079391Y-9883100D01*
X41161091Y-9934436D01*
X41179478Y-9945989D01*
X41290571Y-9984862D01*
X41349745Y-10005568D01*
X41349750Y-10005569D01*
X41528996Y-10025765D01*
X41529000Y-10025765D01*
X41529004Y-10025765D01*
X41708249Y-10005569D01*
X41708252Y-10005568D01*
X41708255Y-10005568D01*
X41878522Y-9945989D01*
X42031262Y-9850016D01*
X42158816Y-9722462D01*
X42254789Y-9569722D01*
X42314368Y-9399455D01*
X42315578Y-9388715D01*
X42334565Y-9220203D01*
X42334565Y-9220196D01*
X42314369Y-9040950D01*
X42314368Y-9040945D01*
X42299228Y-8997678D01*
X42254789Y-8870678D01*
X42238615Y-8844938D01*
X42175500Y-8744491D01*
X42158816Y-8717938D01*
X42031262Y-8590384D01*
X41985822Y-8561832D01*
X41878523Y-8494411D01*
X41708254Y-8434831D01*
X41708249Y-8434830D01*
X41529004Y-8414635D01*
X41528996Y-8414635D01*
X41349750Y-8434830D01*
X41349745Y-8434831D01*
X41179476Y-8494411D01*
X41026737Y-8590384D01*
X40943741Y-8673381D01*
X40882418Y-8706866D01*
X40856060Y-8709700D01*
X40039391Y-8709700D01*
X39961488Y-8730574D01*
X39909552Y-8744490D01*
X39909551Y-8744491D01*
X39801439Y-8806910D01*
X39793149Y-8811696D01*
X39793143Y-8811700D01*
X32438463Y-16166381D01*
X32377140Y-16199866D01*
X32350782Y-16202700D01*
X30441740Y-16202700D01*
X30374701Y-16183015D01*
X30354059Y-16166381D01*
X30271062Y-16083384D01*
X30118323Y-15987411D01*
X29948054Y-15927831D01*
X29948049Y-15927830D01*
X29768804Y-15907635D01*
X29768796Y-15907635D01*
X29589550Y-15927830D01*
X29589545Y-15927831D01*
X29419276Y-15987411D01*
X29266537Y-16083384D01*
X29138984Y-16210937D01*
X29043011Y-16363676D01*
X28983431Y-16533945D01*
X28983430Y-16533950D01*
X28963235Y-16713196D01*
X22318300Y-16713196D01*
X22318300Y-13358340D01*
X22337985Y-13291301D01*
X22354619Y-13270659D01*
X22371663Y-13253615D01*
X22397616Y-13227662D01*
X22493589Y-13074922D01*
X22553168Y-12904655D01*
X22553169Y-12904649D01*
X22573365Y-12725403D01*
X22573365Y-12725396D01*
X22553169Y-12546150D01*
X22553168Y-12546145D01*
X22539305Y-12506527D01*
X22493589Y-12375878D01*
X22484582Y-12361544D01*
X22406713Y-12237616D01*
X22397616Y-12223138D01*
X22354619Y-12180141D01*
X22321134Y-12118818D01*
X22318300Y-12092460D01*
X22318300Y-9880587D01*
X22337985Y-9813548D01*
X22354619Y-9792906D01*
X22952725Y-9194800D01*
X36280140Y-9194800D01*
X36299926Y-9383056D01*
X36299927Y-9383059D01*
X36358418Y-9563077D01*
X36358421Y-9563084D01*
X36453067Y-9727016D01*
X36562279Y-9848308D01*
X36579729Y-9867688D01*
X36732865Y-9978948D01*
X36732870Y-9978951D01*
X36905792Y-10055942D01*
X36905797Y-10055944D01*
X37090954Y-10095300D01*
X37090955Y-10095300D01*
X37280244Y-10095300D01*
X37280246Y-10095300D01*
X37465403Y-10055944D01*
X37638330Y-9978951D01*
X37791471Y-9867688D01*
X37918133Y-9727016D01*
X38012779Y-9563084D01*
X38071274Y-9383056D01*
X38091060Y-9194800D01*
X38071274Y-9006544D01*
X38012779Y-8826516D01*
X37918133Y-8662584D01*
X37791471Y-8521912D01*
X37791470Y-8521911D01*
X37638334Y-8410651D01*
X37638329Y-8410648D01*
X37465407Y-8333657D01*
X37465402Y-8333655D01*
X37319601Y-8302665D01*
X37280246Y-8294300D01*
X37090954Y-8294300D01*
X37058497Y-8301198D01*
X36905797Y-8333655D01*
X36905792Y-8333657D01*
X36732870Y-8410648D01*
X36732865Y-8410651D01*
X36579729Y-8521911D01*
X36453066Y-8662585D01*
X36358421Y-8826515D01*
X36358418Y-8826522D01*
X36301424Y-9001934D01*
X36299926Y-9006544D01*
X36280140Y-9194800D01*
X22952725Y-9194800D01*
X29223906Y-2923619D01*
X29285229Y-2890134D01*
X29311587Y-2887300D01*
X50598860Y-2887300D01*
X50665899Y-2906985D01*
X50686541Y-2923619D01*
X50729538Y-2966616D01*
X50819880Y-3023382D01*
X50835841Y-3033411D01*
X50882278Y-3062589D01*
X51052545Y-3122168D01*
X51052550Y-3122169D01*
X51231796Y-3142365D01*
X51231800Y-3142365D01*
X51231804Y-3142365D01*
X51411049Y-3122169D01*
X51411052Y-3122168D01*
X51411055Y-3122168D01*
X51581322Y-3062589D01*
X51734062Y-2966616D01*
X51861616Y-2839062D01*
X51957589Y-2686322D01*
X52017168Y-2516055D01*
X52017169Y-2516049D01*
X52037365Y-2336803D01*
X52037365Y-2336796D01*
X52017169Y-2157550D01*
X52017168Y-2157545D01*
X51957588Y-1987276D01*
X51861615Y-1834537D01*
X51734062Y-1706984D01*
X51581323Y-1611011D01*
X51411054Y-1551431D01*
X51411049Y-1551430D01*
X51231804Y-1531235D01*
X51231796Y-1531235D01*
X51052550Y-1551430D01*
X51052545Y-1551431D01*
X50882276Y-1611011D01*
X50729537Y-1706984D01*
X50686541Y-1749981D01*
X50625218Y-1783466D01*
X50598860Y-1786300D01*
X28959725Y-1786300D01*
X28901338Y-1801944D01*
X28901338Y-1801945D01*
X28819715Y-1823816D01*
X28819713Y-1823816D01*
X28819713Y-1823817D01*
X28694186Y-1896289D01*
X28694183Y-1896291D01*
X21327291Y-9263183D01*
X21327289Y-9263186D01*
X21274808Y-9354088D01*
X21274807Y-9354090D01*
X21258082Y-9383059D01*
X21254816Y-9388715D01*
X21217300Y-9528725D01*
X21217300Y-9528727D01*
X21217300Y-12092460D01*
X21197615Y-12159499D01*
X21180981Y-12180141D01*
X21137984Y-12223137D01*
X21042011Y-12375876D01*
X20982431Y-12546145D01*
X20982430Y-12546150D01*
X20962235Y-12725396D01*
X20962235Y-12725403D01*
X20982430Y-12904649D01*
X20982431Y-12904654D01*
X21042011Y-13074923D01*
X21137984Y-13227662D01*
X21180981Y-13270659D01*
X21214466Y-13331982D01*
X21217300Y-13358340D01*
X21217300Y-17852475D01*
X21218688Y-17857654D01*
X21244471Y-17953881D01*
X21254813Y-17992478D01*
X21254816Y-17992485D01*
X21265292Y-18010631D01*
X21327289Y-18118013D01*
X21327291Y-18118016D01*
X27252720Y-24043445D01*
X27286205Y-24104768D01*
X27288259Y-24117243D01*
X27307030Y-24283849D01*
X27307031Y-24283854D01*
X27366611Y-24454123D01*
X27424631Y-24546461D01*
X27462584Y-24606862D01*
X27590138Y-24734416D01*
X27665845Y-24781986D01*
X27735251Y-24825597D01*
X27742878Y-24830389D01*
X27891228Y-24882299D01*
X27913145Y-24889968D01*
X27913149Y-24889969D01*
X28011991Y-24901105D01*
X28079757Y-24908740D01*
X28144170Y-24935806D01*
X28153554Y-24944279D01*
X31239394Y-28030119D01*
X31272879Y-28091442D01*
X31267895Y-28161134D01*
X31239394Y-28205481D01*
X24547894Y-34896981D01*
X24486571Y-34930466D01*
X24460213Y-34933300D01*
X22349940Y-34933300D01*
X22282901Y-34913615D01*
X22262259Y-34896981D01*
X22219262Y-34853984D01*
X22066523Y-34758011D01*
X21896254Y-34698431D01*
X21896249Y-34698430D01*
X21717004Y-34678235D01*
X21716996Y-34678235D01*
X21537750Y-34698430D01*
X21537745Y-34698431D01*
X21367476Y-34758011D01*
X21214737Y-34853984D01*
X21087184Y-34981537D01*
X20991211Y-35134276D01*
X20931631Y-35304545D01*
X20931630Y-35304550D01*
X20911435Y-35483796D01*
X20911435Y-35483803D01*
X20931630Y-35663049D01*
X20931631Y-35663054D01*
X20991211Y-35833323D01*
X21048385Y-35924314D01*
X21087184Y-35986062D01*
X21214738Y-36113616D01*
X21367478Y-36209589D01*
X21432691Y-36232408D01*
X21537745Y-36269168D01*
X21537750Y-36269169D01*
X21716996Y-36289365D01*
X21717000Y-36289365D01*
X21717004Y-36289365D01*
X21896249Y-36269169D01*
X21896252Y-36269168D01*
X21896255Y-36269168D01*
X22066522Y-36209589D01*
X22219262Y-36113616D01*
X22262259Y-36070619D01*
X22323582Y-36037134D01*
X22349940Y-36034300D01*
X24812072Y-36034300D01*
X24812074Y-36034300D01*
X24812075Y-36034300D01*
X24952085Y-35996784D01*
X24970653Y-35986063D01*
X24970655Y-35986063D01*
X25077608Y-35924314D01*
X25077607Y-35924314D01*
X25077615Y-35924310D01*
X25921919Y-35080004D01*
X25983242Y-35046520D01*
X26052933Y-35051504D01*
X26097281Y-35080005D01*
X32306181Y-41288905D01*
X32339666Y-41350228D01*
X32342500Y-41376586D01*
X32342500Y-42242260D01*
X32322815Y-42309299D01*
X32306181Y-42329941D01*
X32263184Y-42372937D01*
X32167211Y-42525676D01*
X32107631Y-42695945D01*
X32107630Y-42695950D01*
X32087435Y-42875196D01*
X32087435Y-42875203D01*
X32107630Y-43054449D01*
X32107631Y-43054454D01*
X32167211Y-43224723D01*
X32230780Y-43325891D01*
X32263184Y-43377462D01*
X32390738Y-43505016D01*
X32543478Y-43600989D01*
X32543483Y-43600992D01*
X32545951Y-43602181D01*
X32547270Y-43603372D01*
X32549374Y-43604694D01*
X32549142Y-43605062D01*
X32597810Y-43649004D01*
X32616122Y-43716431D01*
X32595073Y-43783055D01*
X32541346Y-43827722D01*
X32492148Y-43837900D01*
X18246018Y-43837900D01*
X18178979Y-43818215D01*
X18158337Y-43801581D01*
X9027752Y-34670996D01*
X19209635Y-34670996D01*
X19209635Y-34671003D01*
X19229830Y-34850249D01*
X19229831Y-34850254D01*
X19289411Y-35020523D01*
X19353812Y-35123016D01*
X19385384Y-35173262D01*
X19512938Y-35300816D01*
X19582978Y-35344825D01*
X19660804Y-35393727D01*
X19665678Y-35396789D01*
X19835945Y-35456368D01*
X19835950Y-35456369D01*
X20015196Y-35476565D01*
X20015200Y-35476565D01*
X20015204Y-35476565D01*
X20194449Y-35456369D01*
X20194452Y-35456368D01*
X20194455Y-35456368D01*
X20364722Y-35396789D01*
X20517462Y-35300816D01*
X20645016Y-35173262D01*
X20740989Y-35020522D01*
X20800568Y-34850255D01*
X20800798Y-34848214D01*
X20820765Y-34671003D01*
X20820765Y-34670996D01*
X20800569Y-34491750D01*
X20800568Y-34491745D01*
X20764225Y-34387882D01*
X20740989Y-34321478D01*
X20728423Y-34301480D01*
X20701782Y-34259080D01*
X20645016Y-34168738D01*
X20517462Y-34041184D01*
X20364723Y-33945211D01*
X20194454Y-33885631D01*
X20194449Y-33885630D01*
X20015204Y-33865435D01*
X20015196Y-33865435D01*
X19835950Y-33885630D01*
X19835945Y-33885631D01*
X19665676Y-33945211D01*
X19512937Y-34041184D01*
X19385384Y-34168737D01*
X19289411Y-34321476D01*
X19229831Y-34491745D01*
X19229830Y-34491750D01*
X19209635Y-34670996D01*
X9027752Y-34670996D01*
X7912819Y-33556063D01*
X7879334Y-33494740D01*
X7876500Y-33468382D01*
X7876500Y-30378396D01*
X13291435Y-30378396D01*
X13291435Y-30378403D01*
X13311630Y-30557649D01*
X13311631Y-30557654D01*
X13371211Y-30727923D01*
X13424132Y-30812145D01*
X13467184Y-30880662D01*
X13594738Y-31008216D01*
X13678660Y-31060948D01*
X13734053Y-31095754D01*
X13747478Y-31104189D01*
X13885203Y-31152381D01*
X13917745Y-31163768D01*
X13917750Y-31163769D01*
X14096996Y-31183965D01*
X14097000Y-31183965D01*
X14097004Y-31183965D01*
X14276249Y-31163769D01*
X14276252Y-31163768D01*
X14276255Y-31163768D01*
X14446522Y-31104189D01*
X14599262Y-31008216D01*
X14726816Y-30880662D01*
X14822789Y-30727922D01*
X14882368Y-30557655D01*
X14882761Y-30554168D01*
X14902565Y-30378403D01*
X14902565Y-30378396D01*
X14882369Y-30199150D01*
X14882368Y-30199145D01*
X14843667Y-30088544D01*
X14822789Y-30028878D01*
X14726816Y-29876138D01*
X14643819Y-29793141D01*
X14610334Y-29731818D01*
X14607500Y-29705460D01*
X14607500Y-29472818D01*
X14627185Y-29405779D01*
X14643819Y-29385137D01*
X17726537Y-26302419D01*
X17787860Y-26268934D01*
X17814218Y-26266100D01*
X23177660Y-26266100D01*
X23244699Y-26285785D01*
X23265341Y-26302419D01*
X23348338Y-26385416D01*
X23381008Y-26405944D01*
X23492418Y-26475948D01*
X23501078Y-26481389D01*
X23597419Y-26515100D01*
X23671345Y-26540968D01*
X23671350Y-26540969D01*
X23850596Y-26561165D01*
X23850600Y-26561165D01*
X23850604Y-26561165D01*
X24029849Y-26540969D01*
X24029852Y-26540968D01*
X24029855Y-26540968D01*
X24200122Y-26481389D01*
X24352862Y-26385416D01*
X24480416Y-26257862D01*
X24576389Y-26105122D01*
X24635968Y-25934855D01*
X24637012Y-25925588D01*
X24656165Y-25755603D01*
X24656165Y-25755596D01*
X24635969Y-25576350D01*
X24635968Y-25576345D01*
X24620556Y-25532299D01*
X24576389Y-25406078D01*
X24575206Y-25404196D01*
X24497100Y-25279891D01*
X24480416Y-25253338D01*
X24352862Y-25125784D01*
X24304188Y-25095200D01*
X24200123Y-25029811D01*
X24029854Y-24970231D01*
X24029849Y-24970230D01*
X23850604Y-24950035D01*
X23850596Y-24950035D01*
X23671350Y-24970230D01*
X23671345Y-24970231D01*
X23501076Y-25029811D01*
X23348337Y-25125784D01*
X23265341Y-25208781D01*
X23204018Y-25242266D01*
X23177660Y-25245100D01*
X17484191Y-25245100D01*
X17406288Y-25265974D01*
X17354352Y-25279890D01*
X17354351Y-25279891D01*
X17319465Y-25300033D01*
X17277437Y-25324298D01*
X17277408Y-25324315D01*
X17237947Y-25347097D01*
X17237944Y-25347099D01*
X13688499Y-28896544D01*
X13688495Y-28896549D01*
X13621291Y-29012951D01*
X13621290Y-29012952D01*
X13603895Y-29077872D01*
X13586500Y-29142791D01*
X13586500Y-29142793D01*
X13586500Y-29705460D01*
X13566815Y-29772499D01*
X13550181Y-29793141D01*
X13467184Y-29876137D01*
X13371211Y-30028876D01*
X13311631Y-30199145D01*
X13311630Y-30199150D01*
X13291435Y-30378396D01*
X7876500Y-30378396D01*
X7876500Y-30238540D01*
X7896185Y-30171501D01*
X7912819Y-30150859D01*
X7945356Y-30118322D01*
X7995816Y-30067862D01*
X8091789Y-29915122D01*
X8151368Y-29744855D01*
X8151369Y-29744849D01*
X8171565Y-29565603D01*
X8171565Y-29565596D01*
X8151369Y-29386350D01*
X8151368Y-29386345D01*
X8115818Y-29284750D01*
X8091789Y-29216078D01*
X8088305Y-29210534D01*
X8027948Y-29114476D01*
X7995816Y-29063338D01*
X7868262Y-28935784D01*
X7831255Y-28912531D01*
X7715523Y-28839811D01*
X7545254Y-28780231D01*
X7545249Y-28780230D01*
X7366004Y-28760035D01*
X7365996Y-28760035D01*
X7186750Y-28780230D01*
X7186745Y-28780231D01*
X7016476Y-28839811D01*
X6863737Y-28935784D01*
X6736184Y-29063337D01*
X6640211Y-29216076D01*
X6580631Y-29386345D01*
X6580630Y-29386350D01*
X6560435Y-29565596D01*
X6560435Y-29565603D01*
X6580630Y-29744849D01*
X6580631Y-29744854D01*
X6640211Y-29915123D01*
X6736184Y-30067862D01*
X6819181Y-30150859D01*
X6852666Y-30212182D01*
X6855500Y-30238540D01*
X6855500Y-33748782D01*
X6835815Y-33815821D01*
X6783011Y-33861576D01*
X6713853Y-33871520D01*
X6650297Y-33842495D01*
X6643819Y-33836463D01*
X6109419Y-33302063D01*
X6075934Y-33240740D01*
X6073100Y-33214382D01*
X6073100Y-20497800D01*
X10448340Y-20497800D01*
X10468126Y-20686056D01*
X10468127Y-20686059D01*
X10526618Y-20866077D01*
X10526621Y-20866084D01*
X10621267Y-21030016D01*
X10730756Y-21151615D01*
X10747929Y-21170688D01*
X10901065Y-21281948D01*
X10901070Y-21281951D01*
X11073992Y-21358942D01*
X11073997Y-21358944D01*
X11259154Y-21398300D01*
X11259155Y-21398300D01*
X11448444Y-21398300D01*
X11448446Y-21398300D01*
X11633603Y-21358944D01*
X11806530Y-21281951D01*
X11959671Y-21170688D01*
X12086333Y-21030016D01*
X12180979Y-20866084D01*
X12239474Y-20686056D01*
X12259260Y-20497800D01*
X12239474Y-20309544D01*
X12180979Y-20129516D01*
X12086333Y-19965584D01*
X11959671Y-19824912D01*
X11951026Y-19818631D01*
X11806532Y-19713650D01*
X11806529Y-19713648D01*
X11633607Y-19636657D01*
X11633602Y-19636655D01*
X11470934Y-19602080D01*
X11448446Y-19597300D01*
X11259154Y-19597300D01*
X11236666Y-19602080D01*
X11073997Y-19636655D01*
X11073992Y-19636657D01*
X10901070Y-19713648D01*
X10901068Y-19713650D01*
X10747929Y-19824911D01*
X10621266Y-19965585D01*
X10526621Y-20129515D01*
X10526618Y-20129522D01*
X10472321Y-20296632D01*
X10468126Y-20309544D01*
X10448340Y-20497800D01*
X6073100Y-20497800D01*
X6073100Y-12039596D01*
X18523835Y-12039596D01*
X18523835Y-12039603D01*
X18544030Y-12218849D01*
X18544031Y-12218854D01*
X18603611Y-12389123D01*
X18699584Y-12541862D01*
X18827138Y-12669416D01*
X18979878Y-12765389D01*
X19148467Y-12824381D01*
X19150145Y-12824968D01*
X19150150Y-12824969D01*
X19329396Y-12845165D01*
X19329400Y-12845165D01*
X19329404Y-12845165D01*
X19508649Y-12824969D01*
X19508652Y-12824968D01*
X19508655Y-12824968D01*
X19678922Y-12765389D01*
X19831662Y-12669416D01*
X19959216Y-12541862D01*
X20055189Y-12389122D01*
X20114768Y-12218855D01*
X20121456Y-12159499D01*
X20134965Y-12039603D01*
X20134965Y-12039596D01*
X20114769Y-11860350D01*
X20114768Y-11860345D01*
X20098817Y-11814761D01*
X20055189Y-11690078D01*
X19959216Y-11537338D01*
X19831662Y-11409784D01*
X19809378Y-11395782D01*
X19678923Y-11313811D01*
X19508654Y-11254231D01*
X19508649Y-11254230D01*
X19329404Y-11234035D01*
X19329396Y-11234035D01*
X19150150Y-11254230D01*
X19150145Y-11254231D01*
X18979876Y-11313811D01*
X18827137Y-11409784D01*
X18699584Y-11537337D01*
X18603611Y-11690076D01*
X18544031Y-11860345D01*
X18544030Y-11860350D01*
X18523835Y-12039596D01*
X6073100Y-12039596D01*
X6073100Y-9762593D01*
X6073099Y-9762589D01*
X6073053Y-9762418D01*
X6062835Y-9724282D01*
X6038311Y-9632755D01*
X5971102Y-9516346D01*
X5878152Y-9423396D01*
X14815435Y-9423396D01*
X14815435Y-9423403D01*
X14835630Y-9602649D01*
X14835631Y-9602654D01*
X14895211Y-9772923D01*
X14954756Y-9867688D01*
X14991184Y-9925662D01*
X15118738Y-10053216D01*
X15271478Y-10149189D01*
X15328572Y-10169167D01*
X15441745Y-10208768D01*
X15441750Y-10208769D01*
X15620996Y-10228965D01*
X15621000Y-10228965D01*
X15621004Y-10228965D01*
X15800249Y-10208769D01*
X15800252Y-10208768D01*
X15800255Y-10208768D01*
X15970522Y-10149189D01*
X16123262Y-10053216D01*
X16250816Y-9925662D01*
X16346789Y-9772922D01*
X16406368Y-9602655D01*
X16407095Y-9596202D01*
X16426565Y-9423403D01*
X16426565Y-9423396D01*
X16406369Y-9244150D01*
X16406368Y-9244145D01*
X16388731Y-9193742D01*
X16346789Y-9073878D01*
X16277958Y-8964335D01*
X16258959Y-8897100D01*
X16279327Y-8830264D01*
X16295267Y-8810688D01*
X19936337Y-5169619D01*
X19997660Y-5136134D01*
X20024018Y-5133300D01*
X23511406Y-5133300D01*
X23511409Y-5133300D01*
X23641246Y-5098510D01*
X23757654Y-5031302D01*
X23852702Y-4936254D01*
X24190434Y-4598520D01*
X24251754Y-4565038D01*
X24291995Y-4562984D01*
X24307800Y-4564765D01*
X24307801Y-4564764D01*
X24307802Y-4564765D01*
X24307803Y-4564765D01*
X24487049Y-4544569D01*
X24487052Y-4544568D01*
X24487055Y-4544568D01*
X24657322Y-4484989D01*
X24810062Y-4389016D01*
X24937616Y-4261462D01*
X25033589Y-4108722D01*
X25093168Y-3938455D01*
X25093169Y-3938449D01*
X25113365Y-3759203D01*
X25113365Y-3759196D01*
X25093169Y-3579950D01*
X25093168Y-3579945D01*
X25033588Y-3409676D01*
X24983167Y-3329432D01*
X24937616Y-3256938D01*
X24810062Y-3129384D01*
X24798578Y-3122168D01*
X24657323Y-3033411D01*
X24487054Y-2973831D01*
X24487049Y-2973830D01*
X24307804Y-2953635D01*
X24307796Y-2953635D01*
X24128550Y-2973830D01*
X24128545Y-2973831D01*
X23958276Y-3033411D01*
X23805537Y-3129384D01*
X23677984Y-3256937D01*
X23582011Y-3409676D01*
X23522431Y-3579945D01*
X23522430Y-3579950D01*
X23502235Y-3759196D01*
X23502235Y-3759203D01*
X23504015Y-3775002D01*
X23491960Y-3843824D01*
X23468476Y-3876566D01*
X23269061Y-4075982D01*
X23207741Y-4109466D01*
X23181382Y-4112300D01*
X19693991Y-4112300D01*
X19616088Y-4133174D01*
X19564152Y-4147090D01*
X19564151Y-4147091D01*
X19494553Y-4187273D01*
X19494553Y-4187274D01*
X19447746Y-4214298D01*
X19447743Y-4214300D01*
X15212499Y-8449544D01*
X15212495Y-8449549D01*
X15145291Y-8565951D01*
X15145290Y-8565952D01*
X15130430Y-8621411D01*
X15110500Y-8695791D01*
X15110500Y-8695793D01*
X15110500Y-8750460D01*
X15090815Y-8817499D01*
X15074181Y-8838141D01*
X14991184Y-8921137D01*
X14895211Y-9073876D01*
X14835631Y-9244145D01*
X14835630Y-9244150D01*
X14815435Y-9423396D01*
X5878152Y-9423396D01*
X5690723Y-9235967D01*
X5657238Y-9174644D01*
X5655184Y-9134403D01*
X5656965Y-9118600D01*
X5645712Y-9018731D01*
X5636769Y-8939350D01*
X5636768Y-8939345D01*
X5605793Y-8850824D01*
X5577189Y-8769078D01*
X5570662Y-8758691D01*
X5531140Y-8695791D01*
X5481216Y-8616338D01*
X5353662Y-8488784D01*
X5337131Y-8478397D01*
X5200923Y-8392811D01*
X5030654Y-8333231D01*
X5030649Y-8333230D01*
X4851404Y-8313035D01*
X4851396Y-8313035D01*
X4672150Y-8333230D01*
X4672145Y-8333231D01*
X4501876Y-8392811D01*
X4349137Y-8488784D01*
X4221584Y-8616337D01*
X4125611Y-8769076D01*
X4066031Y-8939345D01*
X4066030Y-8939350D01*
X4045835Y-9118596D01*
X431800Y-9118596D01*
X431800Y-8966762D01*
X451485Y-8899723D01*
X468119Y-8879081D01*
X9082281Y-264919D01*
X9143604Y-231434D01*
X9169962Y-228600D01*
X122402038Y-228600D01*
X122469077Y-248285D01*
G37*
%TD.AperFunction*%
%TD*%
M02*
