%TF.GenerationSoftware,KiCad,Pcbnew,8.0.3*%
%TF.CreationDate,2024-07-01T12:15:54-06:00*%
%TF.ProjectId,VoiceBoardR3,566f6963-6542-46f6-9172-6452332e6b69,rev?*%
%TF.SameCoordinates,Original*%
%TF.FileFunction,Soldermask,Top*%
%TF.FilePolarity,Negative*%
%FSLAX46Y46*%
G04 Gerber Fmt 4.6, Leading zero omitted, Abs format (unit mm)*
G04 Created by KiCad (PCBNEW 8.0.3) date 2024-07-01 12:15:54*
%MOMM*%
%LPD*%
G01*
G04 APERTURE LIST*
G04 Aperture macros list*
%AMRoundRect*
0 Rectangle with rounded corners*
0 $1 Rounding radius*
0 $2 $3 $4 $5 $6 $7 $8 $9 X,Y pos of 4 corners*
0 Add a 4 corners polygon primitive as box body*
4,1,4,$2,$3,$4,$5,$6,$7,$8,$9,$2,$3,0*
0 Add four circle primitives for the rounded corners*
1,1,$1+$1,$2,$3*
1,1,$1+$1,$4,$5*
1,1,$1+$1,$6,$7*
1,1,$1+$1,$8,$9*
0 Add four rect primitives between the rounded corners*
20,1,$1+$1,$2,$3,$4,$5,0*
20,1,$1+$1,$4,$5,$6,$7,0*
20,1,$1+$1,$6,$7,$8,$9,0*
20,1,$1+$1,$8,$9,$2,$3,0*%
G04 Aperture macros list end*
%ADD10RoundRect,0.250000X0.250000X0.475000X-0.250000X0.475000X-0.250000X-0.475000X0.250000X-0.475000X0*%
%ADD11RoundRect,0.250000X0.262500X0.450000X-0.262500X0.450000X-0.262500X-0.450000X0.262500X-0.450000X0*%
%ADD12RoundRect,0.250000X-0.450000X0.262500X-0.450000X-0.262500X0.450000X-0.262500X0.450000X0.262500X0*%
%ADD13RoundRect,0.250000X0.475000X-0.250000X0.475000X0.250000X-0.475000X0.250000X-0.475000X-0.250000X0*%
%ADD14RoundRect,0.250000X-0.475000X0.250000X-0.475000X-0.250000X0.475000X-0.250000X0.475000X0.250000X0*%
%ADD15RoundRect,0.225000X0.375000X-0.225000X0.375000X0.225000X-0.375000X0.225000X-0.375000X-0.225000X0*%
%ADD16RoundRect,0.150000X0.150000X-0.825000X0.150000X0.825000X-0.150000X0.825000X-0.150000X-0.825000X0*%
%ADD17RoundRect,0.100000X-0.100000X0.637500X-0.100000X-0.637500X0.100000X-0.637500X0.100000X0.637500X0*%
%ADD18RoundRect,0.250000X0.450000X-0.262500X0.450000X0.262500X-0.450000X0.262500X-0.450000X-0.262500X0*%
%ADD19C,1.000000*%
%ADD20RoundRect,0.250000X-0.262500X-0.450000X0.262500X-0.450000X0.262500X0.450000X-0.262500X0.450000X0*%
%ADD21R,0.800000X0.900000*%
%ADD22RoundRect,0.250000X-0.250000X-0.475000X0.250000X-0.475000X0.250000X0.475000X-0.250000X0.475000X0*%
%ADD23R,1.700000X1.700000*%
%ADD24O,1.700000X1.700000*%
%ADD25RoundRect,0.150000X-0.150000X0.825000X-0.150000X-0.825000X0.150000X-0.825000X0.150000X0.825000X0*%
%ADD26RoundRect,0.243750X-0.243750X-0.456250X0.243750X-0.456250X0.243750X0.456250X-0.243750X0.456250X0*%
%ADD27RoundRect,0.225000X-0.375000X0.225000X-0.375000X-0.225000X0.375000X-0.225000X0.375000X0.225000X0*%
%ADD28RoundRect,0.243750X0.243750X0.456250X-0.243750X0.456250X-0.243750X-0.456250X0.243750X-0.456250X0*%
%ADD29R,1.000000X1.500000*%
%ADD30RoundRect,0.150000X-0.825000X-0.150000X0.825000X-0.150000X0.825000X0.150000X-0.825000X0.150000X0*%
G04 APERTURE END LIST*
D10*
%TO.C,C218*%
X59496999Y-35468100D03*
X57597001Y-35468100D03*
%TD*%
D11*
%TO.C,R205*%
X11959600Y-12547600D03*
X10134600Y-12547600D03*
%TD*%
D12*
%TO.C,R310*%
X106553000Y-9741300D03*
X106553000Y-11566300D03*
%TD*%
D13*
%TO.C,C210*%
X41173400Y-30744199D03*
X41173400Y-28844201D03*
%TD*%
D14*
%TO.C,C212*%
X21717000Y-28031401D03*
X21717000Y-29931399D03*
%TD*%
D15*
%TO.C,D202*%
X15163800Y-18515600D03*
X15163800Y-15215600D03*
%TD*%
D14*
%TO.C,C410*%
X97214600Y-39639201D03*
X97214600Y-41539199D03*
%TD*%
D16*
%TO.C,U303*%
X105283000Y-18832600D03*
X106553000Y-18832600D03*
X107823000Y-18832600D03*
X109093000Y-18832600D03*
X110363000Y-18832600D03*
X111633000Y-18832600D03*
X112903000Y-18832600D03*
X114173000Y-18832600D03*
X114173000Y-13882600D03*
X112903000Y-13882600D03*
X111633000Y-13882600D03*
X110363000Y-13882600D03*
X109093000Y-13882600D03*
X107823000Y-13882600D03*
X106553000Y-13882600D03*
X105283000Y-13882600D03*
%TD*%
D17*
%TO.C,U205*%
X60100400Y-27525600D03*
X59450400Y-27525600D03*
X58800400Y-27525600D03*
X58150400Y-27525600D03*
X57500400Y-27525600D03*
X56850400Y-27525600D03*
X56200400Y-27525600D03*
X55550400Y-27525600D03*
X54900400Y-27525600D03*
X54250400Y-27525600D03*
X54250400Y-33250600D03*
X54900400Y-33250600D03*
X55550400Y-33250600D03*
X56200400Y-33250600D03*
X56850400Y-33250600D03*
X57500400Y-33250600D03*
X58150400Y-33250600D03*
X58800400Y-33250600D03*
X59450400Y-33250600D03*
X60100400Y-33250600D03*
%TD*%
D10*
%TO.C,C201*%
X19491999Y-5943600D03*
X17592001Y-5943600D03*
%TD*%
D18*
%TO.C,R204*%
X15544800Y-7999100D03*
X15544800Y-6174100D03*
%TD*%
D19*
%TO.C,SAW1*%
X37185600Y-9194800D03*
%TD*%
D18*
%TO.C,R314*%
X103657400Y-23493100D03*
X103657400Y-21668100D03*
%TD*%
D12*
%TO.C,R243*%
X32334200Y-33682300D03*
X32334200Y-35507300D03*
%TD*%
%TO.C,R234*%
X26339800Y-5488300D03*
X26339800Y-7313300D03*
%TD*%
%TO.C,R417*%
X117805200Y-26976700D03*
X117805200Y-28801700D03*
%TD*%
D13*
%TO.C,C207*%
X21742400Y-18755399D03*
X21742400Y-16855401D03*
%TD*%
D14*
%TO.C,C204*%
X29032200Y-33594001D03*
X29032200Y-35493999D03*
%TD*%
D19*
%TO.C,TRI1*%
X11353800Y-20497800D03*
%TD*%
D18*
%TO.C,R221*%
X19659600Y-41120700D03*
X19659600Y-39295700D03*
%TD*%
D20*
%TO.C,R203*%
X14251300Y-11379200D03*
X16076300Y-11379200D03*
%TD*%
%TO.C,R418*%
X103227500Y-26670000D03*
X105052500Y-26670000D03*
%TD*%
D21*
%TO.C,Q401*%
X84622600Y-30540200D03*
X86522600Y-30540200D03*
X85572600Y-28540200D03*
%TD*%
%TO.C,Q201*%
X17566600Y-4098800D03*
X19466600Y-4098800D03*
X18516600Y-2098800D03*
%TD*%
D18*
%TO.C,R210*%
X17602200Y-18692500D03*
X17602200Y-16867500D03*
%TD*%
D19*
%TO.C,TRI2*%
X35331400Y-37896800D03*
%TD*%
D11*
%TO.C,R241*%
X68781300Y-24917400D03*
X66956300Y-24917400D03*
%TD*%
D13*
%TO.C,C404*%
X77063600Y-31699200D03*
X77063600Y-29799202D03*
%TD*%
D22*
%TO.C,C405*%
X79136200Y-31308001D03*
X81036200Y-31308001D03*
%TD*%
D11*
%TO.C,R239*%
X51738500Y-34190400D03*
X49913500Y-34190400D03*
%TD*%
D20*
%TO.C,R411*%
X102897300Y-40055800D03*
X104722300Y-40055800D03*
%TD*%
D11*
%TO.C,R422*%
X68857500Y-29464000D03*
X67032500Y-29464000D03*
%TD*%
D12*
%TO.C,R429*%
X87833200Y-39854500D03*
X87833200Y-41679500D03*
%TD*%
D18*
%TO.C,R425*%
X81000600Y-43117101D03*
X81000600Y-41292101D03*
%TD*%
%TO.C,R404*%
X80899000Y-22121500D03*
X80899000Y-20296500D03*
%TD*%
D10*
%TO.C,C209*%
X19593599Y-28524200D03*
X17693601Y-28524200D03*
%TD*%
D18*
%TO.C,R419*%
X116586000Y-34719900D03*
X116586000Y-32894900D03*
%TD*%
D12*
%TO.C,R201*%
X23799800Y-16867500D03*
X23799800Y-18692500D03*
%TD*%
D21*
%TO.C,Q302*%
X85283000Y-15505700D03*
X87183000Y-15505700D03*
X86233000Y-13505700D03*
%TD*%
D15*
%TO.C,D204*%
X30302200Y-40918400D03*
X30302200Y-37618400D03*
%TD*%
D14*
%TO.C,C303*%
X123113800Y-21097201D03*
X123113800Y-22997199D03*
%TD*%
D22*
%TO.C,C406*%
X88381800Y-26365200D03*
X90281800Y-26365200D03*
%TD*%
D11*
%TO.C,R235*%
X27557100Y-20294600D03*
X25732100Y-20294600D03*
%TD*%
D17*
%TO.C,U203*%
X62970600Y-4919600D03*
X62320600Y-4919600D03*
X61670600Y-4919600D03*
X61020600Y-4919600D03*
X60370600Y-4919600D03*
X59720600Y-4919600D03*
X59070600Y-4919600D03*
X58420600Y-4919600D03*
X57770600Y-4919600D03*
X57120600Y-4919600D03*
X57120600Y-10644600D03*
X57770600Y-10644600D03*
X58420600Y-10644600D03*
X59070600Y-10644600D03*
X59720600Y-10644600D03*
X60370600Y-10644600D03*
X61020600Y-10644600D03*
X61670600Y-10644600D03*
X62320600Y-10644600D03*
X62970600Y-10644600D03*
%TD*%
D21*
%TO.C,Q403*%
X126146600Y-30750000D03*
X124246600Y-30750000D03*
X125196600Y-32750000D03*
%TD*%
D20*
%TO.C,R218*%
X26011500Y-40716200D03*
X27836500Y-40716200D03*
%TD*%
D11*
%TO.C,R428*%
X84021300Y-37632601D03*
X82196300Y-37632601D03*
%TD*%
D12*
%TO.C,R245*%
X44983400Y-17375500D03*
X44983400Y-19200500D03*
%TD*%
D22*
%TO.C,C202*%
X6439500Y-9118600D03*
X8339500Y-9118600D03*
%TD*%
D23*
%TO.C,U103*%
X43437500Y-47887500D03*
D24*
X43437500Y-45347500D03*
X45977500Y-47887500D03*
X45977500Y-45347500D03*
X48517500Y-47887500D03*
X48517500Y-45347500D03*
X51057500Y-47887500D03*
X51057500Y-45347500D03*
X53597500Y-47887500D03*
X53597500Y-45347500D03*
X56137500Y-47887500D03*
X56137500Y-45347500D03*
X58677500Y-47887500D03*
X58677500Y-45347500D03*
X61217500Y-47887500D03*
X61217500Y-45347500D03*
X63757500Y-47887500D03*
X63757500Y-45347500D03*
%TD*%
D13*
%TO.C,C213*%
X21717000Y-41183599D03*
X21717000Y-39283601D03*
%TD*%
D25*
%TO.C,U201*%
X25551100Y-9615400D03*
X24281100Y-9615400D03*
X23011100Y-9615400D03*
X21741100Y-9615400D03*
X20471100Y-9615400D03*
X19201100Y-9615400D03*
X17931100Y-9615400D03*
X17931100Y-14565400D03*
X19201100Y-14565400D03*
X20471100Y-14565400D03*
X21741100Y-14565400D03*
X23011100Y-14565400D03*
X24281100Y-14565400D03*
X25551100Y-14565400D03*
%TD*%
D26*
%TO.C,D301*%
X89384899Y-7239000D03*
X91259901Y-7239000D03*
%TD*%
D27*
%TO.C,D205*%
X37362100Y-16206200D03*
X37362100Y-19506200D03*
%TD*%
D14*
%TO.C,C407*%
X110820200Y-38445401D03*
X110820200Y-40345399D03*
%TD*%
D11*
%TO.C,R233*%
X67257300Y-14249400D03*
X65432300Y-14249400D03*
%TD*%
D14*
%TO.C,C306*%
X96697800Y-20690801D03*
X96697800Y-22590799D03*
%TD*%
%TO.C,C308*%
X94513400Y-20690801D03*
X94513400Y-22590799D03*
%TD*%
D12*
%TO.C,R406*%
X95885000Y-28297500D03*
X95885000Y-30122500D03*
%TD*%
D21*
%TO.C,Q406*%
X72527200Y-41153801D03*
X70627200Y-41153801D03*
X71577200Y-43153801D03*
%TD*%
D13*
%TO.C,C307*%
X97891600Y-11109999D03*
X97891600Y-9210001D03*
%TD*%
D20*
%TO.C,R202*%
X25732100Y-18262600D03*
X27557100Y-18262600D03*
%TD*%
D28*
%TO.C,D302*%
X91259901Y-5080000D03*
X89384899Y-5080000D03*
%TD*%
D18*
%TO.C,R207*%
X24282400Y-7313300D03*
X24282400Y-5488300D03*
%TD*%
D13*
%TO.C,C413*%
X69265800Y-37906999D03*
X69265800Y-36007001D03*
%TD*%
D12*
%TO.C,R246*%
X48082200Y-23090500D03*
X48082200Y-24915500D03*
%TD*%
D18*
%TO.C,R313*%
X107010200Y-23467700D03*
X107010200Y-21642700D03*
%TD*%
D12*
%TO.C,R316*%
X93421200Y-9247500D03*
X93421200Y-11072500D03*
%TD*%
D14*
%TO.C,C206*%
X21742400Y-5450801D03*
X21742400Y-7350799D03*
%TD*%
D20*
%TO.C,R301*%
X88292300Y-21640800D03*
X90117300Y-21640800D03*
%TD*%
%TO.C,R232*%
X55526300Y-17449800D03*
X57351300Y-17449800D03*
%TD*%
D18*
%TO.C,R240*%
X72059800Y-22045300D03*
X72059800Y-20220300D03*
%TD*%
D12*
%TO.C,R220*%
X51892200Y-19610700D03*
X51892200Y-21435700D03*
%TD*%
D20*
%TO.C,R402*%
X71172700Y-31318200D03*
X72997700Y-31318200D03*
%TD*%
D15*
%TO.C,D201*%
X29768800Y-18236200D03*
X29768800Y-14936200D03*
%TD*%
D11*
%TO.C,R242*%
X45845100Y-9296400D03*
X44020100Y-9296400D03*
%TD*%
%TO.C,R230*%
X54987200Y-5664201D03*
X53162200Y-5664201D03*
%TD*%
%TO.C,R208*%
X31417900Y-20243800D03*
X29592900Y-20243800D03*
%TD*%
%TO.C,R236*%
X27836500Y-42875200D03*
X26011500Y-42875200D03*
%TD*%
D21*
%TO.C,Q202*%
X17693600Y-26603200D03*
X19593600Y-26603200D03*
X18643600Y-24603200D03*
%TD*%
D12*
%TO.C,R405*%
X93776800Y-28297500D03*
X93776800Y-30122500D03*
%TD*%
D11*
%TO.C,R212*%
X12078300Y-30073600D03*
X10253300Y-30073600D03*
%TD*%
D17*
%TO.C,U302*%
X121152200Y-13495100D03*
X120502200Y-13495100D03*
X119852200Y-13495100D03*
X119202200Y-13495100D03*
X118552200Y-13495100D03*
X117902200Y-13495100D03*
X117252200Y-13495100D03*
X117252200Y-19220100D03*
X117902200Y-19220100D03*
X118552200Y-19220100D03*
X119202200Y-19220100D03*
X119852200Y-19220100D03*
X120502200Y-19220100D03*
X121152200Y-19220100D03*
%TD*%
D29*
%TO.C,JP301*%
X118023900Y-9552400D03*
X119323900Y-9552400D03*
%TD*%
D12*
%TO.C,R227*%
X25958800Y-28068900D03*
X25958800Y-29893900D03*
%TD*%
D20*
%TO.C,R401*%
X79173700Y-27762200D03*
X80998700Y-27762200D03*
%TD*%
D16*
%TO.C,U402*%
X91338400Y-37222200D03*
X92608400Y-37222200D03*
X93878400Y-37222200D03*
X95148400Y-37222200D03*
X96418400Y-37222200D03*
X97688400Y-37222200D03*
X98958400Y-37222200D03*
X100228400Y-37222200D03*
X100228400Y-32272200D03*
X98958400Y-32272200D03*
X97688400Y-32272200D03*
X96418400Y-32272200D03*
X95148400Y-32272200D03*
X93878400Y-32272200D03*
X92608400Y-32272200D03*
X91338400Y-32272200D03*
%TD*%
D19*
%TO.C,SAW2*%
X32359600Y-30276800D03*
%TD*%
D13*
%TO.C,C309*%
X95681800Y-11109999D03*
X95681800Y-9210001D03*
%TD*%
D21*
%TO.C,Q404*%
X120482400Y-34712400D03*
X118582400Y-34712400D03*
X119532400Y-36712400D03*
%TD*%
D13*
%TO.C,C409*%
X99161600Y-30159999D03*
X99161600Y-28260001D03*
%TD*%
D21*
%TO.C,Q402*%
X126146600Y-34712400D03*
X124246600Y-34712400D03*
X125196600Y-36712400D03*
%TD*%
D12*
%TO.C,R409*%
X107010200Y-38482900D03*
X107010200Y-40307900D03*
%TD*%
%TO.C,R412*%
X124231400Y-38508300D03*
X124231400Y-40333300D03*
%TD*%
D11*
%TO.C,R206*%
X11975300Y-9119201D03*
X10150300Y-9119201D03*
%TD*%
D18*
%TO.C,R312*%
X101676200Y-17524100D03*
X101676200Y-15699100D03*
%TD*%
D20*
%TO.C,R307*%
X101041200Y-9906000D03*
X102866200Y-9906000D03*
%TD*%
D12*
%TO.C,R407*%
X90373200Y-28297500D03*
X90373200Y-30122500D03*
%TD*%
D11*
%TO.C,R430*%
X105204900Y-30835600D03*
X103379900Y-30835600D03*
%TD*%
D12*
%TO.C,R224*%
X37412900Y-33809300D03*
X37412900Y-35634300D03*
%TD*%
D18*
%TO.C,R216*%
X23850600Y-29893900D03*
X23850600Y-28068900D03*
%TD*%
%TO.C,R215*%
X15798800Y-30376500D03*
X15798800Y-28551500D03*
%TD*%
D11*
%TO.C,R304*%
X86307300Y-21869400D03*
X84482300Y-21869400D03*
%TD*%
D14*
%TO.C,C211*%
X54229600Y-35196201D03*
X54229600Y-37096199D03*
%TD*%
D11*
%TO.C,R317*%
X115898300Y-9550400D03*
X114073300Y-9550400D03*
%TD*%
D12*
%TO.C,R420*%
X107188000Y-26113100D03*
X107188000Y-27938100D03*
%TD*%
D11*
%TO.C,R229*%
X54987200Y-8991600D03*
X53162200Y-8991600D03*
%TD*%
D10*
%TO.C,C217*%
X62951399Y-12760500D03*
X61051401Y-12760500D03*
%TD*%
D22*
%TO.C,C215*%
X55488801Y-21131500D03*
X57388799Y-21131500D03*
%TD*%
D13*
%TO.C,C311*%
X110794800Y-11629199D03*
X110794800Y-9729201D03*
%TD*%
D22*
%TO.C,C414*%
X82164700Y-35544201D03*
X84064700Y-35544201D03*
%TD*%
D10*
%TO.C,C216*%
X68767999Y-21131500D03*
X66868001Y-21131500D03*
%TD*%
D13*
%TO.C,C304*%
X123063000Y-11490999D03*
X123063000Y-9591001D03*
%TD*%
D11*
%TO.C,R315*%
X91234900Y-9652000D03*
X89409900Y-9652000D03*
%TD*%
D16*
%TO.C,U403*%
X107011500Y-36206200D03*
X108281500Y-36206200D03*
X109551500Y-36206200D03*
X110821500Y-36206200D03*
X112091500Y-36206200D03*
X113361500Y-36206200D03*
X114631500Y-36206200D03*
X114631500Y-31256200D03*
X113361500Y-31256200D03*
X112091500Y-31256200D03*
X110821500Y-31256200D03*
X109551500Y-31256200D03*
X108281500Y-31256200D03*
X107011500Y-31256200D03*
%TD*%
D11*
%TO.C,R219*%
X31570300Y-42875200D03*
X29745300Y-42875200D03*
%TD*%
D10*
%TO.C,C214*%
X58480999Y-13563600D03*
X56581001Y-13563600D03*
%TD*%
D18*
%TO.C,R225*%
X37434700Y-14450700D03*
X37434700Y-12625700D03*
%TD*%
D11*
%TO.C,R303*%
X86307300Y-25374600D03*
X84482300Y-25374600D03*
%TD*%
D18*
%TO.C,R222*%
X17627600Y-41120700D03*
X17627600Y-39295700D03*
%TD*%
D12*
%TO.C,R209*%
X32334200Y-11050900D03*
X32334200Y-12875900D03*
%TD*%
D11*
%TO.C,R410*%
X104722300Y-36728400D03*
X102897300Y-36728400D03*
%TD*%
D14*
%TO.C,C203*%
X28930600Y-11089601D03*
X28930600Y-12989599D03*
%TD*%
D20*
%TO.C,R231*%
X55373900Y-23926800D03*
X57198900Y-23926800D03*
%TD*%
D11*
%TO.C,R237*%
X51738500Y-30837600D03*
X49913500Y-30837600D03*
%TD*%
D18*
%TO.C,R211*%
X19634200Y-18692500D03*
X19634200Y-16867500D03*
%TD*%
D20*
%TO.C,R302*%
X80011900Y-17805400D03*
X81836900Y-17805400D03*
%TD*%
D18*
%TO.C,R408*%
X88265000Y-34237300D03*
X88265000Y-32412300D03*
%TD*%
D11*
%TO.C,R305*%
X100709100Y-20828000D03*
X98884100Y-20828000D03*
%TD*%
%TO.C,R244*%
X45819700Y-12623800D03*
X43994700Y-12623800D03*
%TD*%
D25*
%TO.C,U206*%
X44982100Y-21680400D03*
X43712100Y-21680400D03*
X42442100Y-21680400D03*
X41172100Y-21680400D03*
X39902100Y-21680400D03*
X38632100Y-21680400D03*
X37362100Y-21680400D03*
X37362100Y-26630400D03*
X38632100Y-26630400D03*
X39902100Y-26630400D03*
X41172100Y-26630400D03*
X42442100Y-26630400D03*
X43712100Y-26630400D03*
X44982100Y-26630400D03*
%TD*%
D15*
%TO.C,D206*%
X37412900Y-32053800D03*
X37412900Y-28753800D03*
%TD*%
D21*
%TO.C,Q301*%
X86299000Y-19821400D03*
X88199000Y-19821400D03*
X87249000Y-17821400D03*
%TD*%
D14*
%TO.C,C310*%
X110794800Y-21605201D03*
X110794800Y-23505199D03*
%TD*%
D12*
%TO.C,R414*%
X121031000Y-26951300D03*
X121031000Y-28776300D03*
%TD*%
%TO.C,R416*%
X118592600Y-38508300D03*
X118592600Y-40333300D03*
%TD*%
D21*
%TO.C,Q405*%
X120482400Y-30699200D03*
X118582400Y-30699200D03*
X119532400Y-32699200D03*
%TD*%
D13*
%TO.C,C305*%
X121005600Y-23022599D03*
X121005600Y-21122601D03*
%TD*%
D20*
%TO.C,R214*%
X14175100Y-33832800D03*
X16000100Y-33832800D03*
%TD*%
D11*
%TO.C,R238*%
X51738500Y-27459400D03*
X49913500Y-27459400D03*
%TD*%
D18*
%TO.C,R223*%
X39492099Y-35634300D03*
X39492099Y-33809300D03*
%TD*%
D11*
%TO.C,R424*%
X84834100Y-41518801D03*
X83009100Y-41518801D03*
%TD*%
D18*
%TO.C,R427*%
X94979400Y-41501700D03*
X94979400Y-39676700D03*
%TD*%
D20*
%TO.C,R403*%
X71172700Y-27990800D03*
X72997700Y-27990800D03*
%TD*%
D30*
%TO.C,U204*%
X59602600Y-17322800D03*
X59602600Y-18592800D03*
X59602600Y-19862800D03*
X59602600Y-21132800D03*
X59602600Y-22402800D03*
X59602600Y-23672800D03*
X59602600Y-24942800D03*
X64552600Y-24942800D03*
X64552600Y-23672800D03*
X64552600Y-22402800D03*
X64552600Y-21132800D03*
X64552600Y-19862800D03*
X64552600Y-18592800D03*
X64552600Y-17322800D03*
%TD*%
D14*
%TO.C,C205*%
X41173400Y-17541201D03*
X41173400Y-19441199D03*
%TD*%
%TO.C,C403*%
X76301600Y-41254602D03*
X76301600Y-43154600D03*
%TD*%
D20*
%TO.C,R306*%
X100992300Y-6604000D03*
X102817300Y-6604000D03*
%TD*%
D14*
%TO.C,C301*%
X92176600Y-20690801D03*
X92176600Y-22590799D03*
%TD*%
D16*
%TO.C,U301*%
X92169100Y-18313400D03*
X93439100Y-18313400D03*
X94709100Y-18313400D03*
X95979100Y-18313400D03*
X97249100Y-18313400D03*
X98519100Y-18313400D03*
X99789100Y-18313400D03*
X99789100Y-13363400D03*
X98519100Y-13363400D03*
X97249100Y-13363400D03*
X95979100Y-13363400D03*
X94709100Y-13363400D03*
X93439100Y-13363400D03*
X92169100Y-13363400D03*
%TD*%
D18*
%TO.C,R426*%
X91448800Y-41425500D03*
X91448800Y-39600500D03*
%TD*%
D16*
%TO.C,U404*%
X72772300Y-38837601D03*
X74042300Y-38837601D03*
X75312300Y-38837601D03*
X76582300Y-38837601D03*
X77852300Y-38837601D03*
X79122300Y-38837601D03*
X80392300Y-38837601D03*
X80392300Y-33887601D03*
X79122300Y-33887601D03*
X77852300Y-33887601D03*
X76582300Y-33887601D03*
X75312300Y-33887601D03*
X74042300Y-33887601D03*
X72772300Y-33887601D03*
%TD*%
D22*
%TO.C,C208*%
X6405800Y-26593800D03*
X8305800Y-26593800D03*
%TD*%
D14*
%TO.C,C302*%
X117500400Y-21148001D03*
X117500400Y-23047999D03*
%TD*%
D18*
%TO.C,R217*%
X23901400Y-41146100D03*
X23901400Y-39321100D03*
%TD*%
D13*
%TO.C,C408*%
X110515400Y-29093199D03*
X110515400Y-27193201D03*
%TD*%
D25*
%TO.C,U202*%
X25527000Y-32119800D03*
X24257000Y-32119800D03*
X22987000Y-32119800D03*
X21717000Y-32119800D03*
X20447000Y-32119800D03*
X19177000Y-32119800D03*
X17907000Y-32119800D03*
X17907000Y-37069800D03*
X19177000Y-37069800D03*
X20447000Y-37069800D03*
X21717000Y-37069800D03*
X22987000Y-37069800D03*
X24257000Y-37069800D03*
X25527000Y-37069800D03*
%TD*%
D11*
%TO.C,R213*%
X12078300Y-26600400D03*
X10253300Y-26600400D03*
%TD*%
D20*
%TO.C,R423*%
X64136900Y-37439600D03*
X65961900Y-37439600D03*
%TD*%
D11*
%TO.C,R228*%
X54987200Y-12395201D03*
X53162200Y-12395201D03*
%TD*%
%TO.C,R421*%
X68832100Y-32689800D03*
X67007100Y-32689800D03*
%TD*%
%TO.C,R415*%
X115669700Y-26822400D03*
X113844700Y-26822400D03*
%TD*%
D12*
%TO.C,R226*%
X39546500Y-12625700D03*
X39546500Y-14450700D03*
%TD*%
D18*
%TO.C,R308*%
X108661200Y-11591700D03*
X108661200Y-9766700D03*
%TD*%
D20*
%TO.C,R311*%
X80291300Y-7924800D03*
X82116300Y-7924800D03*
%TD*%
D15*
%TO.C,D203*%
X15341600Y-40258000D03*
X15341600Y-36958000D03*
%TD*%
D12*
%TO.C,R413*%
X124256800Y-27205300D03*
X124256800Y-29030300D03*
%TD*%
D11*
%TO.C,R309*%
X87094700Y-10134600D03*
X85269700Y-10134600D03*
%TD*%
M02*
