M48
; DRILL file {KiCad 7.0.7} date 2024 June 21, Friday 15:12:57
; FORMAT={3:3/ absolute / metric / suppress leading zeros}
; #@! TF.CreationDate,2024-06-21T15:12:57-06:00
; #@! TF.GenerationSoftware,Kicad,Pcbnew,7.0.7
; #@! TF.FileFunction,MixedPlating,1,4
FMAT,2
METRIC,TZ
; #@! TA.AperFunction,Plated,PTH,ViaDrill
T1C0.350
; #@! TA.AperFunction,Plated,PTH,ViaDrill
T2C0.400
; #@! TA.AperFunction,Plated,PTH,ViaDrill
T3C0.500
; #@! TA.AperFunction,Plated,PTH,ComponentDrill
T4C1.000
%
G90
G05
T1
X2220Y-20530
X12760Y-33690
X17300Y-45410
X17540Y-35150
X20660Y-11140
X25670Y-44170
X35260Y-41820
X52060Y-1590
X52980Y-40140
X53410Y-4580
X53410Y-7560
X54610Y-1590
X54630Y-6560
X54640Y-40140
X58550Y-4990
X61960Y-35980
X62600Y-42850
X66180Y-35610
X66340Y-16790
X69550Y-41540
X86230Y-40970
X98360Y-41330
X113870Y-44310
T2
X4200Y-10320
X4400Y-31480
X5570Y-29650
X7090Y-8540
X7210Y-12580
X9140Y-30990
X10200Y-24680
X10460Y-14360
X10970Y-16770
X11530Y-34920
X14030Y-21210
X15340Y-44480
X16060Y-16660
X16740Y-13060
X17860Y-21160
X18300Y-19190
X19240Y-37750
X20620Y-19120
X21460Y-14310
X21620Y-10550
X21840Y-17690
X23220Y-25880
X24050Y-5640
X25060Y-29450
X26310Y-16780
X27820Y-27338
X28290Y-42350
X28290Y-44510
X29940Y-25740
X30020Y-18120
X32250Y-34140
X33400Y-24460
X33410Y-17280
X34470Y-36570
X34510Y-33490
X34980Y-10640
X35370Y-25980
X36200Y-18810
X36890Y-35520
X37580Y-14240
X37820Y-29800
X38030Y-37800
X38070Y-21890
X39380Y-26920
X40940Y-45060
X41500Y-26300
X42480Y-25430
X42550Y-23780
X42680Y-30070
X43290Y-35470
X44620Y-15890
X45390Y-8920
X45710Y-36440
X46070Y-26970
X46150Y-23080
X46210Y-15410
X46690Y-41180
X48520Y-33970
X48550Y-14940
X48560Y-25730
X50170Y-9240
X50410Y-14950
X50510Y-38230
X50720Y-30960
X50790Y-6410
X51830Y-30180
X51838Y-19810
X52650Y-36040
X53088Y-13342
X53451Y-25820
X53860Y-20050
X54870Y-34110
X55250Y-23310
X55579Y-10560
X55920Y-36710
X56590Y-13480
X56970Y-16590
X57230Y-7560
X58030Y-14980
X58220Y-32510
X58310Y-38240
X60190Y-18700
X60290Y-29140
X61560Y-43570
X62170Y-24570
X63420Y-25990
X63440Y-13880
X63590Y-30400
X64020Y-20650
X64370Y-12430
X66420Y-23070
X67660Y-24520
X67690Y-27440
X67780Y-29098
X67820Y-7340
X67930Y-8810
X67980Y-12580
X68120Y-35750
X68730Y-30270
X69080Y-9840
X69510Y-15080
X70580Y-31050
X70840Y-15810
X71870Y-37290
X73430Y-9350
X73540Y-11960
X73810Y-38500
X73880Y-19560
X74940Y-18150
X75100Y-20500
X76220Y-12460
X78810Y-34530
X79580Y-27910
X80000Y-6110
X80480Y-17030
X80580Y-22560
X80770Y-3500
X81340Y-15960
X83860Y-37750
X85910Y-9110
X86580Y-24140
X87390Y-20090
X87690Y-9330
X87890Y-39050
X87970Y-21890
X89650Y-11490
X90030Y-1610
X90030Y-20520
X90050Y-15070
X90610Y-7780
X90980Y-38750
X91600Y-29890
X91750Y-22750
X94790Y-25730
X95360Y-19970
X95550Y-17770
X95590Y-32540
X95810Y-5640
X97420Y-32180
X99080Y-25120
X100550Y-28570
X101340Y-17400
X101420Y-37490
X101670Y-30550
X102100Y-9900
X102820Y-1710
X103720Y-34330
X103770Y-39040
X104070Y-19920
X105350Y-11340
X105640Y-38890
X107340Y-2590
X107530Y-15050
X109470Y-40410
X109530Y-37860
X109970Y-28170
X110370Y-42950
X110430Y-31320
X110660Y-23160
X110830Y-13740
X110900Y-6100
X111250Y-40350
X111910Y-21760
X113370Y-16080
X114790Y-29500
X115190Y-35300
X117100Y-41720
X118023Y-13352
X118030Y-9920
X119910Y-21120
X120310Y-32320
X121630Y-38440
X122940Y-43390
X125690Y-12600
X127140Y-19760
X127720Y-42630
T3
X54640Y-12200
X83410Y-4790
X94470Y-4820
T4
X43438Y-45348
X43438Y-47887
X45978Y-45348
X45978Y-47887
X48518Y-45348
X48518Y-47887
X51058Y-45348
X51058Y-47887
X53597Y-45348
X53597Y-47887
X56138Y-45348
X56138Y-47887
X58678Y-45348
X58678Y-47887
X61218Y-45348
X61218Y-47887
X63758Y-45348
X63758Y-47887
T0
M30
