%TF.GenerationSoftware,KiCad,Pcbnew,7.0.7*%
%TF.CreationDate,2024-06-21T15:12:59-06:00*%
%TF.ProjectId,VoiceBoardR3,566f6963-6542-46f6-9172-6452332e6b69,rev?*%
%TF.SameCoordinates,Original*%
%TF.FileFunction,Copper,L4,Bot*%
%TF.FilePolarity,Positive*%
%FSLAX46Y46*%
G04 Gerber Fmt 4.6, Leading zero omitted, Abs format (unit mm)*
G04 Created by KiCad (PCBNEW 7.0.7) date 2024-06-21 15:12:59*
%MOMM*%
%LPD*%
G01*
G04 APERTURE LIST*
G04 Aperture macros list*
%AMRoundRect*
0 Rectangle with rounded corners*
0 $1 Rounding radius*
0 $2 $3 $4 $5 $6 $7 $8 $9 X,Y pos of 4 corners*
0 Add a 4 corners polygon primitive as box body*
4,1,4,$2,$3,$4,$5,$6,$7,$8,$9,$2,$3,0*
0 Add four circle primitives for the rounded corners*
1,1,$1+$1,$2,$3*
1,1,$1+$1,$4,$5*
1,1,$1+$1,$6,$7*
1,1,$1+$1,$8,$9*
0 Add four rect primitives between the rounded corners*
20,1,$1+$1,$2,$3,$4,$5,0*
20,1,$1+$1,$4,$5,$6,$7,0*
20,1,$1+$1,$6,$7,$8,$9,0*
20,1,$1+$1,$8,$9,$2,$3,0*%
G04 Aperture macros list end*
%TA.AperFunction,ComponentPad*%
%ADD10R,1.700000X1.700000*%
%TD*%
%TA.AperFunction,ComponentPad*%
%ADD11O,1.700000X1.700000*%
%TD*%
%TA.AperFunction,SMDPad,CuDef*%
%ADD12RoundRect,0.250000X0.475000X-0.250000X0.475000X0.250000X-0.475000X0.250000X-0.475000X-0.250000X0*%
%TD*%
%TA.AperFunction,SMDPad,CuDef*%
%ADD13RoundRect,0.250000X-0.262500X-0.450000X0.262500X-0.450000X0.262500X0.450000X-0.262500X0.450000X0*%
%TD*%
%TA.AperFunction,SMDPad,CuDef*%
%ADD14C,1.000000*%
%TD*%
%TA.AperFunction,SMDPad,CuDef*%
%ADD15RoundRect,0.100000X-0.100000X0.637500X-0.100000X-0.637500X0.100000X-0.637500X0.100000X0.637500X0*%
%TD*%
%TA.AperFunction,SMDPad,CuDef*%
%ADD16RoundRect,0.250000X-0.475000X0.250000X-0.475000X-0.250000X0.475000X-0.250000X0.475000X0.250000X0*%
%TD*%
%TA.AperFunction,SMDPad,CuDef*%
%ADD17RoundRect,0.250000X0.450000X-0.262500X0.450000X0.262500X-0.450000X0.262500X-0.450000X-0.262500X0*%
%TD*%
%TA.AperFunction,SMDPad,CuDef*%
%ADD18RoundRect,0.250000X-0.250000X-0.475000X0.250000X-0.475000X0.250000X0.475000X-0.250000X0.475000X0*%
%TD*%
%TA.AperFunction,SMDPad,CuDef*%
%ADD19RoundRect,0.250000X0.250000X0.475000X-0.250000X0.475000X-0.250000X-0.475000X0.250000X-0.475000X0*%
%TD*%
%TA.AperFunction,SMDPad,CuDef*%
%ADD20R,1.500000X1.000000*%
%TD*%
%TA.AperFunction,SMDPad,CuDef*%
%ADD21RoundRect,0.250000X0.262500X0.450000X-0.262500X0.450000X-0.262500X-0.450000X0.262500X-0.450000X0*%
%TD*%
%TA.AperFunction,SMDPad,CuDef*%
%ADD22RoundRect,0.100000X0.100000X-0.637500X0.100000X0.637500X-0.100000X0.637500X-0.100000X-0.637500X0*%
%TD*%
%TA.AperFunction,SMDPad,CuDef*%
%ADD23RoundRect,0.100000X0.637500X0.100000X-0.637500X0.100000X-0.637500X-0.100000X0.637500X-0.100000X0*%
%TD*%
%TA.AperFunction,SMDPad,CuDef*%
%ADD24RoundRect,0.150000X-0.825000X-0.150000X0.825000X-0.150000X0.825000X0.150000X-0.825000X0.150000X0*%
%TD*%
%TA.AperFunction,SMDPad,CuDef*%
%ADD25RoundRect,0.250000X-0.450000X0.262500X-0.450000X-0.262500X0.450000X-0.262500X0.450000X0.262500X0*%
%TD*%
%TA.AperFunction,ViaPad*%
%ADD26C,0.800000*%
%TD*%
%TA.AperFunction,ViaPad*%
%ADD27C,1.000000*%
%TD*%
%TA.AperFunction,ViaPad*%
%ADD28C,0.650000*%
%TD*%
%TA.AperFunction,Conductor*%
%ADD29C,0.220000*%
%TD*%
%TA.AperFunction,Conductor*%
%ADD30C,0.250000*%
%TD*%
%TA.AperFunction,Conductor*%
%ADD31C,0.300000*%
%TD*%
%TA.AperFunction,Conductor*%
%ADD32C,0.500000*%
%TD*%
%TA.AperFunction,Conductor*%
%ADD33C,0.180000*%
%TD*%
%TA.AperFunction,Conductor*%
%ADD34C,0.200000*%
%TD*%
G04 APERTURE END LIST*
D10*
%TO.P,U103,1,SDA*%
%TO.N,SDA*%
X43437500Y-47887500D03*
D11*
%TO.P,U103,2,LVL1*%
%TO.N,LEVEL_1_CV*%
X43437500Y-45347500D03*
%TO.P,U103,3,SCL*%
%TO.N,SCL*%
X45977500Y-47887500D03*
%TO.P,U103,4,LVL2*%
%TO.N,LEVEL_2_CV*%
X45977500Y-45347500D03*
%TO.P,U103,5,CLK1*%
%TO.N,CLK_1*%
X48517500Y-47887500D03*
%TO.P,U103,6,PWM1*%
%TO.N,PWM_1_CV*%
X48517500Y-45347500D03*
%TO.P,U103,7,CLK2*%
%TO.N,CLK_2*%
X51057500Y-47887500D03*
%TO.P,U103,8,PWM2*%
%TO.N,PWM_2_CV*%
X51057500Y-45347500D03*
%TO.P,U103,9,HP*%
%TO.N,HP_MODE*%
X53597500Y-47887500D03*
%TO.P,U103,10,FOLD*%
%TO.N,FOLD_CV*%
X53597500Y-45347500D03*
%TO.P,U103,11,FF*%
%TO.N,FOLD_FIRST*%
X56137500Y-47887500D03*
%TO.P,U103,12,VCF*%
%TO.N,CUTOFF_CV*%
X56137500Y-45347500D03*
%TO.P,U103,13,OUT*%
%TO.N,VCA_OUT*%
X58677500Y-47887500D03*
%TO.P,U103,14,VCA*%
%TO.N,VCA_CV*%
X58677500Y-45347500D03*
%TO.P,U103,15,+3V3*%
%TO.N,+3.3V*%
X61217500Y-47887500D03*
%TO.P,U103,16,GND*%
%TO.N,GND*%
X61217500Y-45347500D03*
%TO.P,U103,17,+12V*%
%TO.N,+12V*%
X63757500Y-47887500D03*
%TO.P,U103,18,-12V*%
%TO.N,-12V*%
X63757500Y-45347500D03*
%TD*%
D12*
%TO.P,C210,1*%
%TO.N,Net-(U205A-P0W)*%
X44660000Y-22410000D03*
%TO.P,C210,2*%
%TO.N,Net-(C210-Pad2)*%
X44660000Y-20510000D03*
%TD*%
D13*
%TO.P,R230,1*%
%TO.N,Net-(U203B-P1W)*%
X59380000Y-11792500D03*
%TO.P,R230,2*%
%TO.N,Net-(U204C--)*%
X61205000Y-11792500D03*
%TD*%
D14*
%TO.P,TP102,1,1*%
%TO.N,VCA_IN*%
X67790000Y-38520000D03*
%TD*%
D15*
%TO.P,U302,1,VL*%
%TO.N,+3.3V*%
X85190000Y-7295000D03*
%TO.P,U302,2,SCL*%
%TO.N,SCL*%
X85840000Y-7295000D03*
%TO.P,U302,3,A1*%
%TO.N,GND*%
X86490000Y-7295000D03*
%TO.P,U302,4,SDA*%
%TO.N,SDA*%
X87140000Y-7295000D03*
%TO.P,U302,5,A0*%
%TO.N,GND*%
X87790000Y-7295000D03*
%TO.P,U302,6,~{WLAT}*%
%TO.N,Net-(JP301-A)*%
X88440000Y-7295000D03*
%TO.P,U302,7,NC*%
%TO.N,GND*%
X89090000Y-7295000D03*
%TO.P,U302,8,~{SHDN}*%
%TO.N,+3.3V*%
X89090000Y-13020000D03*
%TO.P,U302,9,DGND*%
%TO.N,GND*%
X88440000Y-13020000D03*
%TO.P,U302,10,V-*%
%TO.N,-12V*%
X87790000Y-13020000D03*
%TO.P,U302,11,P0B*%
%TO.N,GND*%
X87140000Y-13020000D03*
%TO.P,U302,12,P0W*%
%TO.N,Net-(U301D-+)*%
X86490000Y-13020000D03*
%TO.P,U302,13,P0A*%
%TO.N,FILTER_OUT*%
X85840000Y-13020000D03*
%TO.P,U302,14,V+*%
%TO.N,+12V*%
X85190000Y-13020000D03*
%TD*%
D12*
%TO.P,C102,1*%
%TO.N,+12V*%
X66400000Y-9247500D03*
%TO.P,C102,2*%
%TO.N,GND*%
X66400000Y-7347500D03*
%TD*%
D14*
%TO.P,TP104,1,1*%
%TO.N,CLK_1*%
X43250000Y-37350000D03*
%TD*%
D13*
%TO.P,R242,1*%
%TO.N,Net-(R241-Pad2)*%
X69087500Y-23170000D03*
%TO.P,R242,2*%
%TO.N,OSC_MIX*%
X70912500Y-23170000D03*
%TD*%
%TO.P,R228,1*%
%TO.N,Net-(U203C-P2W)*%
X59360000Y-15452500D03*
%TO.P,R228,2*%
%TO.N,Net-(U204C--)*%
X61185000Y-15452500D03*
%TD*%
D16*
%TO.P,C302,1*%
%TO.N,-12V*%
X88750000Y-15080000D03*
%TO.P,C302,2*%
%TO.N,GND*%
X88750000Y-16980000D03*
%TD*%
D14*
%TO.P,TP103,1,1*%
%TO.N,CLK_2*%
X29875000Y-42350000D03*
%TD*%
D17*
%TO.P,R233,1*%
%TO.N,Net-(U204C--)*%
X59592500Y-22305000D03*
%TO.P,R233,2*%
%TO.N,Net-(U203A-P0B)*%
X59592500Y-20480000D03*
%TD*%
D12*
%TO.P,C218,1*%
%TO.N,GND*%
X53892500Y-18902500D03*
%TO.P,C218,2*%
%TO.N,+3.3V*%
X53892500Y-17002500D03*
%TD*%
D16*
%TO.P,C103,1*%
%TO.N,-12V*%
X71900000Y-34047499D03*
%TO.P,C103,2*%
%TO.N,GND*%
X71900000Y-35947499D03*
%TD*%
D18*
%TO.P,C215,1*%
%TO.N,GND*%
X47602500Y-24552500D03*
%TO.P,C215,2*%
%TO.N,+12V*%
X49502500Y-24552500D03*
%TD*%
D19*
%TO.P,C304,1*%
%TO.N,+3.3V*%
X83390000Y-7280000D03*
%TO.P,C304,2*%
%TO.N,GND*%
X81490000Y-7280000D03*
%TD*%
D12*
%TO.P,C104,1*%
%TO.N,+12V*%
X66150000Y-26147500D03*
%TO.P,C104,2*%
%TO.N,GND*%
X66150000Y-24247500D03*
%TD*%
D20*
%TO.P,JP301,1,A*%
%TO.N,Net-(JP301-A)*%
X91430000Y-9520000D03*
%TO.P,JP301,2,B*%
%TO.N,+3.3V*%
X91430000Y-10820000D03*
%TD*%
D16*
%TO.P,C217,1*%
%TO.N,GND*%
X60292500Y-30572500D03*
%TO.P,C217,2*%
%TO.N,+3.3V*%
X60292500Y-32472500D03*
%TD*%
D21*
%TO.P,R238,1*%
%TO.N,Net-(U205B-P1W)*%
X49375000Y-35787500D03*
%TO.P,R238,2*%
%TO.N,Net-(U204A--)*%
X47550000Y-35787500D03*
%TD*%
%TO.P,R239,1*%
%TO.N,Net-(U205C-P2W)*%
X49405000Y-32322500D03*
%TO.P,R239,2*%
%TO.N,Net-(U204A--)*%
X47580000Y-32322500D03*
%TD*%
D17*
%TO.P,R240,1*%
%TO.N,Net-(C210-Pad2)*%
X49287500Y-22475000D03*
%TO.P,R240,2*%
%TO.N,Net-(U204B--)*%
X49287500Y-20650000D03*
%TD*%
D16*
%TO.P,C101,1*%
%TO.N,-12V*%
X72100000Y-17697500D03*
%TO.P,C101,2*%
%TO.N,GND*%
X72100000Y-19597500D03*
%TD*%
D22*
%TO.P,U205,1,P3A*%
%TO.N,GND*%
X57237500Y-38235000D03*
%TO.P,U205,2,P3W*%
%TO.N,Net-(U205D-P3W)*%
X56587500Y-38235000D03*
%TO.P,U205,3,P3B*%
%TO.N,TRI2_FULL*%
X55937500Y-38235000D03*
%TO.P,U205,4,HVC/A0*%
%TO.N,unconnected-(U205E-HVC{slash}A0-Pad4)*%
X55287500Y-38235000D03*
%TO.P,U205,5,SCL*%
%TO.N,SCL*%
X54637500Y-38235000D03*
%TO.P,U205,6,SDA*%
%TO.N,SDA*%
X53987500Y-38235000D03*
%TO.P,U205,7,VSS*%
%TO.N,GND*%
X53337500Y-38235000D03*
%TO.P,U205,8,P1B*%
%TO.N,PULSE2_FULL*%
X52687500Y-38235000D03*
%TO.P,U205,9,P1W*%
%TO.N,Net-(U205B-P1W)*%
X52037500Y-38235000D03*
%TO.P,U205,10,P1A*%
%TO.N,GND*%
X51387500Y-38235000D03*
%TO.P,U205,11,P0A*%
X51387500Y-32510000D03*
%TO.P,U205,12,P0W*%
%TO.N,Net-(U205A-P0W)*%
X52037500Y-32510000D03*
%TO.P,U205,13,P0B*%
%TO.N,Net-(U205A-P0B)*%
X52687500Y-32510000D03*
%TO.P,U205,14,NC*%
%TO.N,unconnected-(U205E-NC-Pad14)*%
X53337500Y-32510000D03*
%TO.P,U205,15,~{RESET}*%
%TO.N,+3.3V*%
X53987500Y-32510000D03*
%TO.P,U205,16,A1*%
X54637500Y-32510000D03*
%TO.P,U205,17,VDD*%
X55287500Y-32510000D03*
%TO.P,U205,18,P2B*%
%TO.N,SAW2_FULL*%
X55937500Y-32510000D03*
%TO.P,U205,19,P2W*%
%TO.N,Net-(U205C-P2W)*%
X56587500Y-32510000D03*
%TO.P,U205,20,P2A*%
%TO.N,GND*%
X57237500Y-32510000D03*
%TD*%
D13*
%TO.P,R231,1*%
%TO.N,Net-(C205-Pad2)*%
X46210000Y-17322500D03*
%TO.P,R231,2*%
%TO.N,Net-(U204B--)*%
X48035000Y-17322500D03*
%TD*%
D14*
%TO.P,TP101,1,1*%
%TO.N,FILTER_OUT*%
X96960000Y-2980000D03*
%TD*%
D19*
%TO.P,C216,1*%
%TO.N,GND*%
X60982500Y-24572500D03*
%TO.P,C216,2*%
%TO.N,-12V*%
X59082500Y-24572500D03*
%TD*%
D21*
%TO.P,R237,1*%
%TO.N,Net-(U205D-P3W)*%
X49375000Y-39312500D03*
%TO.P,R237,2*%
%TO.N,Net-(U204A--)*%
X47550000Y-39312500D03*
%TD*%
D15*
%TO.P,U203,1,P3A*%
%TO.N,GND*%
X51387500Y-9250001D03*
%TO.P,U203,2,P3W*%
%TO.N,Net-(U203D-P3W)*%
X52037500Y-9250001D03*
%TO.P,U203,3,P3B*%
%TO.N,TRI1_FULL*%
X52687500Y-9250001D03*
%TO.P,U203,4,HVC/A0*%
%TO.N,unconnected-(U203E-HVC{slash}A0-Pad4)*%
X53337500Y-9250001D03*
%TO.P,U203,5,SCL*%
%TO.N,SCL*%
X53987500Y-9250001D03*
%TO.P,U203,6,SDA*%
%TO.N,SDA*%
X54637500Y-9250001D03*
%TO.P,U203,7,VSS*%
%TO.N,GND*%
X55287500Y-9250001D03*
%TO.P,U203,8,P1B*%
%TO.N,PULSE1_FULL*%
X55937500Y-9250001D03*
%TO.P,U203,9,P1W*%
%TO.N,Net-(U203B-P1W)*%
X56587500Y-9250001D03*
%TO.P,U203,10,P1A*%
%TO.N,GND*%
X57237500Y-9250001D03*
%TO.P,U203,11,P0A*%
X57237500Y-14975001D03*
%TO.P,U203,12,P0W*%
%TO.N,Net-(U203A-P0W)*%
X56587500Y-14975001D03*
%TO.P,U203,13,P0B*%
%TO.N,Net-(U203A-P0B)*%
X55937500Y-14975001D03*
%TO.P,U203,14,NC*%
%TO.N,unconnected-(U203E-NC-Pad14)*%
X55287500Y-14975001D03*
%TO.P,U203,15,~{RESET}*%
%TO.N,+3.3V*%
X54637500Y-14975001D03*
%TO.P,U203,16,A1*%
%TO.N,GND*%
X53987500Y-14975001D03*
%TO.P,U203,17,VDD*%
%TO.N,+3.3V*%
X53337500Y-14975001D03*
%TO.P,U203,18,P2B*%
%TO.N,SAW1_FULL*%
X52687500Y-14975001D03*
%TO.P,U203,19,P2W*%
%TO.N,Net-(U203C-P2W)*%
X52037500Y-14975001D03*
%TO.P,U203,20,P2A*%
%TO.N,GND*%
X51387500Y-14975001D03*
%TD*%
D23*
%TO.P,U102,1,B1*%
%TO.N,FILTER_IN*%
X72112500Y-11272500D03*
%TO.P,U102,2,B0*%
%TO.N,GND*%
X72112500Y-11922500D03*
%TO.P,U102,3,C1*%
%TO.N,unconnected-(U102-C1-Pad3)*%
X72112500Y-12572500D03*
%TO.P,U102,4,C*%
%TO.N,LP_IN*%
X72112500Y-13222500D03*
%TO.P,U102,5,C0*%
%TO.N,FILTER_IN*%
X72112500Y-13872500D03*
%TO.P,U102,6,INH*%
%TO.N,GND*%
X72112500Y-14522500D03*
%TO.P,U102,7,VSS*%
%TO.N,-12V*%
X72112500Y-15172500D03*
%TO.P,U102,8,GND*%
%TO.N,GND*%
X72112500Y-15822500D03*
%TO.P,U102,9,S3*%
%TO.N,HP_MODE*%
X66387500Y-15822500D03*
%TO.P,U102,10,S2*%
X66387500Y-15172500D03*
%TO.P,U102,11,S1*%
%TO.N,FOLD_FIRST*%
X66387500Y-14522500D03*
%TO.P,U102,12,A0*%
%TO.N,FOLDER_IN*%
X66387500Y-13872500D03*
%TO.P,U102,13,A1*%
%TO.N,VCA_IN*%
X66387500Y-13222500D03*
%TO.P,U102,14,A*%
%TO.N,FILTER_OUT*%
X66387500Y-12572500D03*
%TO.P,U102,15,B*%
%TO.N,HP_IN*%
X66387500Y-11922500D03*
%TO.P,U102,16,VDD*%
%TO.N,+12V*%
X66387500Y-11272500D03*
%TD*%
D13*
%TO.P,R229,1*%
%TO.N,Net-(U203D-P3W)*%
X59380000Y-7862500D03*
%TO.P,R229,2*%
%TO.N,Net-(U204C--)*%
X61205000Y-7862500D03*
%TD*%
%TO.P,R241,1*%
%TO.N,Net-(U204B--)*%
X49960000Y-18462500D03*
%TO.P,R241,2*%
%TO.N,Net-(R241-Pad2)*%
X51785000Y-18462500D03*
%TD*%
D24*
%TO.P,U204,1*%
%TO.N,Net-(U205A-P0B)*%
X51837500Y-28372500D03*
%TO.P,U204,2,-*%
%TO.N,Net-(U204A--)*%
X51837500Y-27102500D03*
%TO.P,U204,3,+*%
%TO.N,GND*%
X51837500Y-25832500D03*
%TO.P,U204,4,V+*%
%TO.N,+12V*%
X51837500Y-24562500D03*
%TO.P,U204,5,+*%
%TO.N,GND*%
X51837500Y-23292500D03*
%TO.P,U204,6,-*%
%TO.N,Net-(U204B--)*%
X51837500Y-22022500D03*
%TO.P,U204,7*%
%TO.N,Net-(R241-Pad2)*%
X51837500Y-20752500D03*
%TO.P,U204,8*%
%TO.N,Net-(U203A-P0B)*%
X56787500Y-20752500D03*
%TO.P,U204,9,-*%
%TO.N,Net-(U204C--)*%
X56787500Y-22022500D03*
%TO.P,U204,10,+*%
%TO.N,GND*%
X56787500Y-23292500D03*
%TO.P,U204,11,V-*%
%TO.N,-12V*%
X56787500Y-24562500D03*
%TO.P,U204,12,+*%
%TO.N,unconnected-(U204D-+-Pad12)*%
X56787500Y-25832500D03*
%TO.P,U204,13,-*%
%TO.N,unconnected-(U204D---Pad13)*%
X56787500Y-27102500D03*
%TO.P,U204,14*%
%TO.N,unconnected-(U204-Pad14)*%
X56787500Y-28372500D03*
%TD*%
D17*
%TO.P,R317,1*%
%TO.N,Net-(JP301-A)*%
X90060000Y-4902500D03*
%TO.P,R317,2*%
%TO.N,GND*%
X90060000Y-3077500D03*
%TD*%
D16*
%TO.P,C303,1*%
%TO.N,+12V*%
X84190000Y-15150000D03*
%TO.P,C303,2*%
%TO.N,GND*%
X84190000Y-17050000D03*
%TD*%
D25*
%TO.P,R232,1*%
%TO.N,Net-(U204A--)*%
X49387500Y-26950000D03*
%TO.P,R232,2*%
%TO.N,Net-(U205A-P0B)*%
X49387500Y-28775000D03*
%TD*%
D23*
%TO.P,U101,1,B1*%
%TO.N,OSC_MIX*%
X71900000Y-27797500D03*
%TO.P,U101,2,B0*%
%TO.N,FILTER_OUT*%
X71900000Y-28447500D03*
%TO.P,U101,3,C1*%
%TO.N,FOLDER_OUT*%
X71900000Y-29097500D03*
%TO.P,U101,4,C*%
%TO.N,FILTER_IN*%
X71900000Y-29747500D03*
%TO.P,U101,5,C0*%
%TO.N,OSC_MIX*%
X71900000Y-30397500D03*
%TO.P,U101,6,INH*%
%TO.N,GND*%
X71900000Y-31047500D03*
%TO.P,U101,7,VSS*%
%TO.N,-12V*%
X71900000Y-31697500D03*
%TO.P,U101,8,GND*%
%TO.N,GND*%
X71900000Y-32347500D03*
%TO.P,U101,9,S3*%
%TO.N,FOLD_FIRST*%
X66175000Y-32347500D03*
%TO.P,U101,10,S2*%
X66175000Y-31697500D03*
%TO.P,U101,11,S1*%
X66175000Y-31047500D03*
%TO.P,U101,12,A0*%
%TO.N,VCA_IN*%
X66175000Y-30397500D03*
%TO.P,U101,13,A1*%
%TO.N,FILTER_IN*%
X66175000Y-29747500D03*
%TO.P,U101,14,A*%
%TO.N,FOLDER_OUT*%
X66175000Y-29097500D03*
%TO.P,U101,15,B*%
%TO.N,FOLDER_IN*%
X66175000Y-28447500D03*
%TO.P,U101,16,VDD*%
%TO.N,+12V*%
X66175000Y-27797500D03*
%TD*%
D26*
%TO.N,Net-(Q201-E)*%
X42480000Y-25430000D03*
X42680000Y-30070000D03*
%TO.N,Net-(C201-Pad2)*%
X39380000Y-26920000D03*
X32250000Y-34140000D03*
%TO.N,CLK_1*%
X36890000Y-35520000D03*
X43290000Y-35470000D03*
X40940000Y-45060000D03*
%TO.N,SAW1_FULL*%
X21460000Y-14310000D03*
X21840000Y-17690000D03*
X27820000Y-27337500D03*
X48550000Y-14940000D03*
X41500000Y-26300000D03*
%TO.N,Net-(C205-Pad2)*%
X46210000Y-15410000D03*
%TO.N,GND*%
X58030000Y-14980000D03*
X61560000Y-43570000D03*
X25060000Y-29450000D03*
X109970000Y-28170000D03*
X80000000Y-6110000D03*
X118030000Y-9920000D03*
X99080000Y-25120000D03*
X37580000Y-14240000D03*
X37820000Y-29800000D03*
X34980000Y-10640000D03*
X24050000Y-5640000D03*
X102100000Y-9900000D03*
X67820000Y-7340000D03*
X4400000Y-31480000D03*
X113370000Y-16080000D03*
X73430000Y-9350000D03*
X86580000Y-24140000D03*
X70580000Y-31050000D03*
X42550000Y-23780000D03*
X83860000Y-37750000D03*
X50410000Y-14950000D03*
X10970000Y-16770000D03*
X91750000Y-22750000D03*
X85910000Y-9110000D03*
X11530000Y-34920000D03*
X97420000Y-32180000D03*
X109530000Y-37860000D03*
X127720000Y-42630000D03*
X62170000Y-24570000D03*
X115190000Y-35300000D03*
X53450500Y-25820000D03*
X90610000Y-7780000D03*
X103770000Y-39040000D03*
X58220000Y-32510000D03*
X73540000Y-11960000D03*
X7090000Y-8540000D03*
X53088307Y-13341693D03*
X102820000Y-1710000D03*
X34470000Y-36570000D03*
X70840000Y-15810000D03*
X114790000Y-29500000D03*
X80480000Y-17030000D03*
X101340000Y-17400000D03*
X50720000Y-30960000D03*
X109470000Y-40410000D03*
X53860000Y-20050000D03*
X66420000Y-23070000D03*
X71870000Y-37290000D03*
X18300000Y-19190000D03*
X50510000Y-38230000D03*
X35370000Y-25980000D03*
X95550000Y-17770000D03*
X52650000Y-36040000D03*
X55249500Y-23310000D03*
X50170000Y-9240000D03*
X46150000Y-23080000D03*
X90980000Y-38750000D03*
X73880000Y-19560000D03*
X87890000Y-39050000D03*
X58310000Y-38240000D03*
X90030000Y-1610000D03*
X33410000Y-17280000D03*
X17860000Y-21160000D03*
X111250000Y-40350000D03*
X57230000Y-7560000D03*
X60290000Y-29140000D03*
%TO.N,+12V*%
X34510000Y-33490000D03*
X67930000Y-8810000D03*
X121630000Y-38440000D03*
X91600000Y-29890000D03*
X67690000Y-27440000D03*
X105640000Y-38890000D03*
X127140000Y-19760000D03*
X21620000Y-10550000D03*
X125690000Y-12600000D03*
X9140000Y-30990000D03*
X48560000Y-25730000D03*
X81340000Y-15960000D03*
X111910000Y-21760000D03*
X105350000Y-11340000D03*
%TO.N,-12V*%
X101670000Y-30550000D03*
X10200000Y-24680000D03*
X90050000Y-15070000D03*
X110430000Y-31320000D03*
X33400000Y-24460000D03*
X74940000Y-18150000D03*
X95590000Y-32540000D03*
%TO.N,CLK_2*%
X28290000Y-42350000D03*
X28290000Y-44510000D03*
%TO.N,SAW2_FULL*%
X5570000Y-29650000D03*
X20620000Y-19120000D03*
X38030000Y-37800000D03*
X19240000Y-37750000D03*
X16740000Y-13060000D03*
X54870000Y-34110000D03*
D27*
%TO.N,+3.3V*%
X94470000Y-4820000D03*
X83410000Y-4790000D03*
X54640000Y-12200000D03*
D26*
%TO.N,Net-(U301B--)*%
X90030000Y-20520000D03*
X87390000Y-20090000D03*
%TO.N,FILTER_OUT*%
X67980000Y-12580000D03*
X95810000Y-5640000D03*
X87690000Y-9330000D03*
X67660000Y-24520000D03*
%TO.N,Net-(U301C-+)*%
X94790000Y-25730000D03*
X95360000Y-19970000D03*
%TO.N,HP_IN*%
X69510000Y-15080000D03*
%TO.N,Net-(Q401-E)*%
X117100000Y-41720000D03*
X122940000Y-43390000D03*
%TO.N,FOLDER_IN*%
X63440000Y-13880000D03*
X80770000Y-3500000D03*
X63420000Y-25990000D03*
%TO.N,VCA_IN*%
X68120000Y-35750000D03*
X103720000Y-34330000D03*
X63590000Y-30400000D03*
X73810000Y-38500000D03*
X64370000Y-12430000D03*
%TO.N,Net-(D202-A)*%
X26310000Y-16780000D03*
X38070000Y-21890000D03*
%TO.N,Net-(D203-A)*%
X14030000Y-21210000D03*
X7210000Y-12580000D03*
D28*
%TO.N,SDA*%
X52980000Y-40140000D03*
X54630000Y-6560000D03*
X54610000Y-1590000D03*
%TO.N,SCL*%
X54640000Y-40140000D03*
X52060000Y-1590000D03*
X53410000Y-4580000D03*
X58550000Y-4990000D03*
X53410000Y-7560000D03*
%TO.N,FOLD_FIRST*%
X66180000Y-35610000D03*
%TO.N,HP_MODE*%
X66340000Y-16790000D03*
%TO.N,LEVEL_2_CV*%
X17540000Y-35150000D03*
X25670000Y-44170000D03*
X12760000Y-33690000D03*
%TO.N,PWM_1_CV*%
X2220000Y-20530000D03*
X17300000Y-45410000D03*
X20660000Y-11140000D03*
%TO.N,PWM_2_CV*%
X35260000Y-41820000D03*
%TO.N,CUTOFF_CV*%
X61960000Y-35980000D03*
%TO.N,FOLD_CV*%
X62600000Y-42850000D03*
X69550000Y-41540000D03*
X113870000Y-44310000D03*
%TO.N,VCA_CV*%
X86230000Y-40970000D03*
X98360000Y-41330000D03*
D26*
%TO.N,Net-(Q302-C)*%
X76220000Y-12460000D03*
X79580000Y-27910000D03*
%TO.N,Net-(Q402-B)*%
X119910000Y-21120000D03*
X107530000Y-15050000D03*
%TO.N,Net-(Q404-B)*%
X118022500Y-13352500D03*
X110830000Y-13740000D03*
%TO.N,Net-(Q406-C)*%
X101420000Y-37490000D03*
X100550000Y-28570000D03*
%TO.N,TRI1_FULL*%
X36200000Y-18810000D03*
X44620000Y-15890000D03*
X30020000Y-18120000D03*
%TO.N,TRI2_FULL*%
X55920000Y-36710000D03*
X15340000Y-44480000D03*
X16060000Y-16660000D03*
X46690000Y-41180000D03*
X10460000Y-14360000D03*
%TO.N,PULSE2_FULL*%
X4200000Y-10320000D03*
X45710000Y-36440000D03*
X48520000Y-33970000D03*
%TO.N,PULSE1_FULL*%
X50790000Y-6410000D03*
X55578630Y-10560383D03*
X45390000Y-8920000D03*
%TO.N,Net-(U203A-P0W)*%
X56590000Y-13480000D03*
%TO.N,Net-(U205A-P0W)*%
X46070000Y-26970000D03*
X51830000Y-30180000D03*
%TO.N,Net-(R241-Pad2)*%
X56970000Y-16590000D03*
X51837500Y-19810000D03*
X64020000Y-20650000D03*
X60190000Y-18700000D03*
%TO.N,Net-(U301C--)*%
X87970000Y-21890000D03*
X78810000Y-34530000D03*
%TO.N,LP_IN*%
X80580000Y-22560000D03*
%TO.N,Net-(R408-Pad1)*%
X120310000Y-32320000D03*
X104070000Y-19920000D03*
%TO.N,FOLDER_OUT*%
X67780000Y-29097500D03*
%TO.N,Net-(U404B--)*%
X110370000Y-42950000D03*
X110660000Y-23160000D03*
%TO.N,Net-(U301D-+)*%
X89650000Y-11490000D03*
%TO.N,FILTER_IN*%
X69080000Y-9840000D03*
X68730000Y-30270000D03*
%TO.N,Net-(U201A--)*%
X29940000Y-25740000D03*
X23220000Y-25880000D03*
%TO.N,Net-(R420-Pad2)*%
X107340000Y-2590000D03*
X75100000Y-20500000D03*
X110900000Y-6100000D03*
%TD*%
D29*
%TO.N,Net-(Q201-E)*%
X42480000Y-25430000D02*
X42480000Y-29870000D01*
X42480000Y-29870000D02*
X42680000Y-30070000D01*
%TO.N,Net-(C201-Pad2)*%
X38210000Y-26920000D02*
X39380000Y-26920000D01*
X32250000Y-32710000D02*
X32420000Y-32710000D01*
X32250000Y-34140000D02*
X32250000Y-32710000D01*
X32420000Y-32710000D02*
X38210000Y-26920000D01*
%TO.N,CLK_1*%
X47137500Y-46507500D02*
X42387500Y-46507500D01*
X43290000Y-35470000D02*
X43290000Y-37310000D01*
X43290000Y-37310000D02*
X43250000Y-37350000D01*
X42387500Y-46507500D02*
X40940000Y-45060000D01*
X48517500Y-47887500D02*
X47137500Y-46507500D01*
X43240000Y-35520000D02*
X43290000Y-35470000D01*
X36890000Y-35520000D02*
X43240000Y-35520000D01*
%TO.N,SAW1_FULL*%
X35510000Y-27340000D02*
X27822500Y-27340000D01*
X41500000Y-26300000D02*
X40820000Y-25620000D01*
X52130000Y-16540000D02*
X50150000Y-16540000D01*
X27822500Y-27340000D02*
X27820000Y-27337500D01*
X21840000Y-17690000D02*
X21840000Y-14690000D01*
X37230000Y-25620000D02*
X35510000Y-27340000D01*
X52687500Y-15982500D02*
X52130000Y-16540000D01*
X50150000Y-16540000D02*
X48550000Y-14940000D01*
X52687500Y-14975001D02*
X52687500Y-15982500D01*
X40820000Y-25620000D02*
X37230000Y-25620000D01*
X21840000Y-14690000D02*
X21460000Y-14310000D01*
%TO.N,Net-(C205-Pad2)*%
X46210000Y-15410000D02*
X46210000Y-17322500D01*
%TO.N,GND*%
X70852500Y-15822500D02*
X70840000Y-15810000D01*
X87520000Y-11890000D02*
X87977328Y-11890000D01*
X72112500Y-14522500D02*
X71445172Y-14522500D01*
X55267000Y-23292500D02*
X55249500Y-23310000D01*
X66150000Y-23340000D02*
X66420000Y-23070000D01*
X50180001Y-9250001D02*
X50170000Y-9240000D01*
X87790000Y-5347500D02*
X90060000Y-3077500D01*
X73502500Y-11922500D02*
X73540000Y-11960000D01*
D30*
X71900000Y-35947499D02*
X71900000Y-37260000D01*
D29*
X60292500Y-30572500D02*
X60292500Y-29142500D01*
X53892500Y-20017500D02*
X53860000Y-20050000D01*
X53987500Y-14236963D02*
X53092230Y-13341693D01*
D30*
X81170000Y-7280000D02*
X80000000Y-6110000D01*
D29*
X56310173Y-7560000D02*
X57230000Y-7560000D01*
X87140000Y-12270000D02*
X87520000Y-11890000D01*
X86490000Y-8530000D02*
X85910000Y-9110000D01*
X60982500Y-24572500D02*
X62167500Y-24572500D01*
X71900000Y-32347500D02*
X71232672Y-32347500D01*
X72112500Y-15822500D02*
X70852500Y-15822500D01*
X88750000Y-16980000D02*
X88680000Y-17050000D01*
X60292500Y-29142500D02*
X60290000Y-29140000D01*
X57237500Y-7567500D02*
X57230000Y-7560000D01*
X57237500Y-32510000D02*
X58220000Y-32510000D01*
X72100000Y-19597500D02*
X73842500Y-19597500D01*
X51837500Y-25832500D02*
X53438000Y-25832500D01*
X88680000Y-17050000D02*
X84190000Y-17050000D01*
X87140000Y-13020000D02*
X87140000Y-12270000D01*
X67812500Y-7347500D02*
X67820000Y-7340000D01*
X86490000Y-7295000D02*
X86490000Y-8530000D01*
X53892500Y-18902500D02*
X53892500Y-20017500D01*
X51387500Y-31627500D02*
X50720000Y-30960000D01*
X80500000Y-17050000D02*
X80480000Y-17030000D01*
X72112500Y-11922500D02*
X73502500Y-11922500D01*
X53337500Y-38235000D02*
X53337500Y-36727500D01*
X88440000Y-12352672D02*
X88440000Y-13020000D01*
X50435001Y-14975001D02*
X50410000Y-14950000D01*
X51387500Y-9250001D02*
X50180001Y-9250001D01*
X87790000Y-7295000D02*
X87790000Y-5347500D01*
X90060000Y-3077500D02*
X90060000Y-1640000D01*
X51387500Y-32510000D02*
X51387500Y-31627500D01*
X57237500Y-14975001D02*
X58025001Y-14975001D01*
X66150000Y-24247500D02*
X66150000Y-23340000D01*
X58305000Y-38235000D02*
X58310000Y-38240000D01*
X55287500Y-8582673D02*
X56310173Y-7560000D01*
X57237500Y-9250001D02*
X57237500Y-7567500D01*
X47602500Y-24532500D02*
X46150000Y-23080000D01*
X55287500Y-9250001D02*
X55287500Y-8582673D01*
X53092230Y-13341693D02*
X53088307Y-13341693D01*
X90125000Y-7295000D02*
X90610000Y-7780000D01*
X89090000Y-7295000D02*
X90125000Y-7295000D01*
X71232672Y-32347500D02*
X70580000Y-31694828D01*
X73842500Y-19597500D02*
X73880000Y-19560000D01*
X71900000Y-31047500D02*
X70582500Y-31047500D01*
X51387500Y-38235000D02*
X50515000Y-38235000D01*
X48637500Y-23517500D02*
X47602500Y-24552500D01*
X51612500Y-23517500D02*
X48637500Y-23517500D01*
X51387500Y-14975001D02*
X50435001Y-14975001D01*
X53987500Y-14975001D02*
X53987500Y-14236963D01*
X62167500Y-24572500D02*
X62170000Y-24570000D01*
X70582500Y-31047500D02*
X70580000Y-31050000D01*
X53438000Y-25832500D02*
X53450500Y-25820000D01*
X51837500Y-23292500D02*
X51612500Y-23517500D01*
X71445172Y-14522500D02*
X70840000Y-15127672D01*
X47602500Y-24552500D02*
X47602500Y-24532500D01*
X58025001Y-14975001D02*
X58030000Y-14980000D01*
X87977328Y-11890000D02*
X88440000Y-12352672D01*
X70580000Y-31694828D02*
X70580000Y-31050000D01*
X70840000Y-15127672D02*
X70840000Y-15810000D01*
X56787500Y-23292500D02*
X55267000Y-23292500D01*
D30*
X81490000Y-7280000D02*
X81170000Y-7280000D01*
D29*
X84190000Y-17050000D02*
X80500000Y-17050000D01*
X57237500Y-38235000D02*
X58305000Y-38235000D01*
X66400000Y-7347500D02*
X67812500Y-7347500D01*
D30*
X71900000Y-37260000D02*
X71870000Y-37290000D01*
D29*
X50515000Y-38235000D02*
X50510000Y-38230000D01*
X87140000Y-13020000D02*
X87140000Y-14100000D01*
X53337500Y-36727500D02*
X52650000Y-36040000D01*
X87140000Y-14100000D02*
X84190000Y-17050000D01*
X90060000Y-1640000D02*
X90030000Y-1610000D01*
D31*
%TO.N,+12V*%
X67492500Y-9247500D02*
X67930000Y-8810000D01*
D30*
X49512500Y-24562500D02*
X49502500Y-24552500D01*
X85190000Y-13020000D02*
X85190000Y-14150000D01*
X51837500Y-24562500D02*
X49512500Y-24562500D01*
D31*
X66175000Y-27797500D02*
X66175000Y-26172500D01*
X66387500Y-11272500D02*
X66387500Y-9260000D01*
X66400000Y-9247500D02*
X67492500Y-9247500D01*
D30*
X85190000Y-14150000D02*
X84190000Y-15150000D01*
D31*
X66175000Y-26172500D02*
X66150000Y-26147500D01*
D30*
X48560000Y-25300000D02*
X48560000Y-25730000D01*
X81340000Y-15960000D02*
X82150000Y-15150000D01*
X82150000Y-15150000D02*
X84190000Y-15150000D01*
D31*
X66175000Y-27797500D02*
X67332500Y-27797500D01*
D30*
X49307500Y-24552500D02*
X48560000Y-25300000D01*
X49502500Y-24552500D02*
X49307500Y-24552500D01*
D31*
X67332500Y-27797500D02*
X67690000Y-27440000D01*
X66387500Y-9260000D02*
X66400000Y-9247500D01*
%TO.N,-12V*%
X90050000Y-15070000D02*
X90830000Y-15850000D01*
X70932500Y-17697500D02*
X70200000Y-18430000D01*
X47910000Y-3400000D02*
X49650000Y-3400000D01*
X70030000Y-39075000D02*
X70030000Y-35917499D01*
X50150000Y-3400000D02*
X59130000Y-3400000D01*
X73870000Y-17180000D02*
X73340000Y-17710000D01*
X71900000Y-34047499D02*
X72722501Y-34047499D01*
X90040000Y-15080000D02*
X90050000Y-15070000D01*
X70200000Y-18430000D02*
X70200000Y-19950000D01*
X74030000Y-32143604D02*
X73550000Y-32623604D01*
X56797500Y-24572500D02*
X56787500Y-24562500D01*
X91070000Y-31320000D02*
X94370000Y-31320000D01*
X59130000Y-3400000D02*
X62390000Y-6660000D01*
X73092500Y-15172500D02*
X74160000Y-16240000D01*
X72722501Y-34047499D02*
X73550000Y-33220000D01*
X63757500Y-45347500D02*
X70030000Y-39075000D01*
X87790000Y-14120000D02*
X88750000Y-15080000D01*
X49650000Y-3400000D02*
X50150000Y-3400000D01*
X74160000Y-16890000D02*
X73870000Y-17180000D01*
X71020000Y-20770000D02*
X72700000Y-20770000D01*
X109660000Y-30550000D02*
X110430000Y-31320000D01*
X74060000Y-22130000D02*
X74030000Y-22160000D01*
X74030000Y-22160000D02*
X74030000Y-32143604D01*
X74160000Y-16240000D02*
X74160000Y-16890000D01*
X43350000Y-7960000D02*
X47910000Y-3400000D01*
X88750000Y-15080000D02*
X90040000Y-15080000D01*
X59082500Y-24572500D02*
X56797500Y-24572500D01*
X38150000Y-24650000D02*
X43350000Y-19450000D01*
X60560000Y-23120000D02*
X59107500Y-24572500D01*
X91430000Y-15070000D02*
X98850000Y-7650000D01*
X90050000Y-15070000D02*
X91430000Y-15070000D01*
X62390000Y-22190000D02*
X61460000Y-23120000D01*
X61460000Y-23120000D02*
X60560000Y-23120000D01*
X33590000Y-24650000D02*
X38150000Y-24650000D01*
X98850000Y-7650000D02*
X98850000Y-2380000D01*
X73550000Y-32623604D02*
X72623896Y-31697500D01*
X72700000Y-20770000D02*
X74060000Y-22130000D01*
X59107500Y-24572500D02*
X59082500Y-24572500D01*
X10200000Y-24680000D02*
X33180000Y-24680000D01*
X90830000Y-31080000D02*
X91070000Y-31320000D01*
X49650000Y-2090000D02*
X49650000Y-3400000D01*
X33400000Y-24460000D02*
X33590000Y-24650000D01*
X72100000Y-17697500D02*
X70932500Y-17697500D01*
X73327500Y-17697500D02*
X72100000Y-17697500D01*
X51150000Y-590000D02*
X49650000Y-2090000D01*
X97060000Y-590000D02*
X51150000Y-590000D01*
X70200000Y-19950000D02*
X71020000Y-20770000D01*
X70030000Y-35917499D02*
X71900000Y-34047499D01*
X94370000Y-31320000D02*
X95590000Y-32540000D01*
X90830000Y-15850000D02*
X90830000Y-31080000D01*
X74940000Y-18150000D02*
X74840000Y-18150000D01*
X72112500Y-15172500D02*
X73092500Y-15172500D01*
X72623896Y-31697500D02*
X71900000Y-31697500D01*
X43350000Y-19450000D02*
X43350000Y-7960000D01*
X73340000Y-17710000D02*
X73327500Y-17697500D01*
X74840000Y-18150000D02*
X73870000Y-17180000D01*
X33180000Y-24680000D02*
X33400000Y-24460000D01*
X73550000Y-33220000D02*
X73550000Y-32623604D01*
X98850000Y-2380000D02*
X97060000Y-590000D01*
X87790000Y-13020000D02*
X87790000Y-14120000D01*
X101670000Y-30550000D02*
X109660000Y-30550000D01*
X62390000Y-6660000D02*
X62390000Y-22190000D01*
D29*
%TO.N,CLK_2*%
X28980000Y-45200000D02*
X28290000Y-44510000D01*
X49675000Y-49270000D02*
X42150000Y-49270000D01*
X51057500Y-47887500D02*
X49675000Y-49270000D01*
X38080000Y-45200000D02*
X28980000Y-45200000D01*
X42150000Y-49270000D02*
X38080000Y-45200000D01*
X28290000Y-42350000D02*
X29875000Y-42350000D01*
%TO.N,SAW2_FULL*%
X13810000Y-13060000D02*
X11960000Y-11210000D01*
X6760000Y-10710000D02*
X4600000Y-12870000D01*
X55937500Y-33248038D02*
X55075538Y-34110000D01*
X4600000Y-28680000D02*
X5570000Y-29650000D01*
X55937500Y-32510000D02*
X55937500Y-33248038D01*
X20620000Y-15210000D02*
X20620000Y-19120000D01*
X11960000Y-11210000D02*
X11460000Y-10710000D01*
X18470000Y-13060000D02*
X20450000Y-15040000D01*
X11460000Y-10710000D02*
X6760000Y-10710000D01*
X20530000Y-15120000D02*
X20620000Y-15210000D01*
X20450000Y-15040000D02*
X20530000Y-15120000D01*
X38030000Y-37800000D02*
X19290000Y-37800000D01*
X16740000Y-13060000D02*
X13810000Y-13060000D01*
X16740000Y-13060000D02*
X18470000Y-13060000D01*
X55075538Y-34110000D02*
X54870000Y-34110000D01*
X19290000Y-37800000D02*
X19240000Y-37750000D01*
X4600000Y-12870000D02*
X4600000Y-28680000D01*
%TO.N,Net-(C210-Pad2)*%
X46360000Y-20530000D02*
X44680000Y-20530000D01*
X49287500Y-22475000D02*
X48305000Y-22475000D01*
X44680000Y-20530000D02*
X44660000Y-20510000D01*
X48305000Y-22475000D02*
X46360000Y-20530000D01*
D32*
%TO.N,+3.3V*%
X94470000Y-4820000D02*
X94470000Y-9030000D01*
X54350000Y-29870000D02*
X57690000Y-29870000D01*
D30*
X85190000Y-7295000D02*
X84355000Y-7295000D01*
D32*
X83410000Y-7260000D02*
X83390000Y-7280000D01*
X55190000Y-18300000D02*
X53892500Y-17002500D01*
D30*
X54637500Y-14975001D02*
X54637500Y-12202500D01*
D32*
X91430000Y-11810000D02*
X90220000Y-13020000D01*
D30*
X54637500Y-14975001D02*
X54637500Y-16257500D01*
D32*
X54350000Y-32222500D02*
X54350000Y-29870000D01*
X54350000Y-21295761D02*
X55190000Y-20455761D01*
D30*
X84355000Y-7295000D02*
X84340000Y-7280000D01*
D32*
X94470000Y-9030000D02*
X92680000Y-10820000D01*
D30*
X62460000Y-44912588D02*
X64266294Y-43106294D01*
D32*
X92680000Y-10820000D02*
X91430000Y-10820000D01*
X55190000Y-20455761D02*
X55190000Y-18300000D01*
X54637500Y-32510000D02*
X54350000Y-32222500D01*
D30*
X89090000Y-13020000D02*
X90220000Y-13020000D01*
D32*
X60472500Y-32472500D02*
X64300000Y-36300000D01*
D30*
X53337500Y-14975001D02*
X53337500Y-16447500D01*
D32*
X54350000Y-29870000D02*
X54350000Y-21295761D01*
X83390000Y-7280000D02*
X84340000Y-7280000D01*
D30*
X61217500Y-47887500D02*
X62460000Y-46645000D01*
D32*
X64266294Y-36333706D02*
X64266294Y-43106294D01*
D30*
X53337500Y-16447500D02*
X53892500Y-17002500D01*
X62460000Y-46645000D02*
X62460000Y-44912588D01*
D32*
X91430000Y-10820000D02*
X91430000Y-11810000D01*
D30*
X53987500Y-32510000D02*
X55287500Y-32510000D01*
X54637500Y-12202500D02*
X54640000Y-12200000D01*
X54637500Y-16257500D02*
X53892500Y-17002500D01*
D32*
X60292500Y-32472500D02*
X60472500Y-32472500D01*
X57690000Y-29870000D02*
X60292500Y-32472500D01*
X83410000Y-4790000D02*
X83410000Y-7260000D01*
D29*
%TO.N,Net-(U301B--)*%
X89600000Y-20090000D02*
X90030000Y-20520000D01*
X87390000Y-20090000D02*
X89600000Y-20090000D01*
%TO.N,FILTER_OUT*%
X66395000Y-12580000D02*
X66387500Y-12572500D01*
X69987500Y-28447500D02*
X69987500Y-28427500D01*
X87690000Y-9550000D02*
X87690000Y-9330000D01*
X85840000Y-13020000D02*
X85840000Y-11400000D01*
X95810000Y-5640000D02*
X96960000Y-4490000D01*
X64600000Y-11452328D02*
X64600000Y-7240000D01*
X85490000Y-10280000D02*
X86225000Y-11015000D01*
X64600000Y-7240000D02*
X66440000Y-5400000D01*
X67980000Y-12580000D02*
X66395000Y-12580000D01*
X69987500Y-28427500D02*
X67660000Y-26100000D01*
X66387500Y-12572500D02*
X65720172Y-12572500D01*
X66440000Y-5400000D02*
X76990000Y-5400000D01*
X81870000Y-10280000D02*
X85490000Y-10280000D01*
X96960000Y-4490000D02*
X96960000Y-2980000D01*
X65720172Y-12572500D02*
X64600000Y-11452328D01*
X76990000Y-5400000D02*
X81870000Y-10280000D01*
X71900000Y-28447500D02*
X69987500Y-28447500D01*
X85840000Y-11400000D02*
X86225000Y-11015000D01*
X87350000Y-9890000D02*
X87690000Y-9550000D01*
X67660000Y-26100000D02*
X67660000Y-24520000D01*
X86225000Y-11015000D02*
X87350000Y-9890000D01*
%TO.N,Net-(U301C-+)*%
X94790000Y-20540000D02*
X95360000Y-19970000D01*
X94790000Y-25730000D02*
X94790000Y-20540000D01*
%TO.N,HP_IN*%
X67260000Y-11870000D02*
X67730000Y-11400000D01*
X66387500Y-11922500D02*
X66440000Y-11870000D01*
X66440000Y-11870000D02*
X67260000Y-11870000D01*
X67730000Y-11400000D02*
X68540000Y-11400000D01*
X69430000Y-12290000D02*
X69510000Y-12370000D01*
X68540000Y-11400000D02*
X69430000Y-12290000D01*
X69510000Y-12370000D02*
X69510000Y-15080000D01*
D30*
%TO.N,Net-(Q401-E)*%
X117100000Y-41720000D02*
X121270000Y-41720000D01*
X121270000Y-41720000D02*
X122940000Y-43390000D01*
D29*
%TO.N,FOLDER_IN*%
X66175000Y-28447500D02*
X65277500Y-28447500D01*
X63440000Y-13880000D02*
X66380000Y-13880000D01*
X66380000Y-13880000D02*
X66387500Y-13872500D01*
X80680000Y-3410000D02*
X80770000Y-3500000D01*
X65277500Y-28447500D02*
X63420000Y-26590000D01*
X63420000Y-26590000D02*
X63420000Y-25990000D01*
X70120000Y-3410000D02*
X80680000Y-3410000D01*
X65830000Y-3410000D02*
X70120000Y-3410000D01*
X64810000Y-4430000D02*
X65830000Y-3410000D01*
X63440000Y-13880000D02*
X63440000Y-5800000D01*
X63440000Y-5800000D02*
X64810000Y-4430000D01*
%TO.N,VCA_IN*%
X63590000Y-30400000D02*
X66172500Y-30400000D01*
X68120000Y-31430000D02*
X68120000Y-35750000D01*
X101660000Y-38900000D02*
X100080000Y-40480000D01*
X66387500Y-13222500D02*
X65162500Y-13222500D01*
X65162500Y-13222500D02*
X64370000Y-12430000D01*
X100080000Y-40480000D02*
X100080000Y-42130000D01*
X67087500Y-30397500D02*
X68120000Y-31430000D01*
X66175000Y-30397500D02*
X67087500Y-30397500D01*
X68120000Y-36360000D02*
X67790000Y-36690000D01*
X78410000Y-43100000D02*
X73810000Y-38500000D01*
X66172500Y-30400000D02*
X66175000Y-30397500D01*
X103720000Y-34330000D02*
X103720000Y-36840000D01*
X103720000Y-36840000D02*
X101660000Y-38900000D01*
X100080000Y-42130000D02*
X99110000Y-43100000D01*
X67790000Y-36690000D02*
X67790000Y-38520000D01*
X68120000Y-35750000D02*
X68120000Y-36360000D01*
X97120000Y-43100000D02*
X78410000Y-43100000D01*
X99110000Y-43100000D02*
X97120000Y-43100000D01*
%TO.N,Net-(D202-A)*%
X26990000Y-16100000D02*
X36120000Y-16100000D01*
X36120000Y-16100000D02*
X38210000Y-18190000D01*
X26310000Y-16780000D02*
X26990000Y-16100000D01*
X38210000Y-18190000D02*
X38210000Y-21060000D01*
X38210000Y-21750000D02*
X38070000Y-21890000D01*
X38210000Y-21060000D02*
X38210000Y-21750000D01*
%TO.N,Net-(D203-A)*%
X7210000Y-14390000D02*
X14030000Y-21210000D01*
X7210000Y-12580000D02*
X7210000Y-14390000D01*
D33*
%TO.N,SDA*%
X53110000Y-40140000D02*
X52980000Y-40140000D01*
X53987500Y-39262500D02*
X53110000Y-40140000D01*
X85180000Y-1580000D02*
X54620000Y-1580000D01*
X54620000Y-1580000D02*
X54610000Y-1590000D01*
X54600000Y-9212501D02*
X54637500Y-9250001D01*
X54630000Y-6560000D02*
X54600000Y-6590000D01*
X87140000Y-7295000D02*
X87140000Y-3540000D01*
X85550000Y-1950000D02*
X85180000Y-1580000D01*
X54600000Y-6590000D02*
X54600000Y-9212501D01*
X53987500Y-38235000D02*
X53987500Y-39262500D01*
X87140000Y-3540000D02*
X85550000Y-1950000D01*
%TO.N,SCL*%
X52950000Y-2480000D02*
X52060000Y-1590000D01*
X53820000Y-4990000D02*
X53410000Y-4580000D01*
X53987500Y-9250001D02*
X53987500Y-8137500D01*
X54640000Y-38237500D02*
X54637500Y-38235000D01*
X85840000Y-4710000D02*
X83610000Y-2480000D01*
X83610000Y-2480000D02*
X52950000Y-2480000D01*
X58550000Y-4990000D02*
X53820000Y-4990000D01*
X54640000Y-40140000D02*
X54640000Y-38237500D01*
X53987500Y-8137500D02*
X53410000Y-7560000D01*
X85840000Y-7295000D02*
X85840000Y-4710000D01*
%TO.N,FOLD_FIRST*%
X66175000Y-32347500D02*
X66175000Y-31047500D01*
X64897500Y-14522500D02*
X63130000Y-16290000D01*
X66180000Y-35610000D02*
X66180000Y-32352500D01*
X63130000Y-16290000D02*
X63130000Y-21350000D01*
X66180000Y-32352500D02*
X66175000Y-32347500D01*
X64350000Y-22570000D02*
X64350000Y-23730000D01*
X63692500Y-31697500D02*
X66175000Y-31697500D01*
X66387500Y-14522500D02*
X64897500Y-14522500D01*
X62020000Y-30030000D02*
X63690000Y-31700000D01*
X64350000Y-23730000D02*
X62020000Y-26060000D01*
X63690000Y-31700000D02*
X63692500Y-31697500D01*
X63130000Y-21350000D02*
X64350000Y-22570000D01*
X62020000Y-26060000D02*
X62020000Y-30030000D01*
%TO.N,HP_MODE*%
X66340000Y-16790000D02*
X66340000Y-15870000D01*
X66387500Y-15172500D02*
X66387500Y-15822500D01*
X66340000Y-15870000D02*
X66387500Y-15822500D01*
D34*
%TO.N,LEVEL_2_CV*%
X27890000Y-43370000D02*
X31510000Y-43370000D01*
X17540000Y-35150000D02*
X14220000Y-35150000D01*
X14220000Y-35150000D02*
X12760000Y-33690000D01*
X25670000Y-44170000D02*
X27090000Y-44170000D01*
X32310000Y-44170000D02*
X44800000Y-44170000D01*
X27090000Y-44170000D02*
X27890000Y-43370000D01*
X31510000Y-43370000D02*
X32310000Y-44170000D01*
X44800000Y-44170000D02*
X45977500Y-45347500D01*
%TO.N,PWM_1_CV*%
X2220000Y-10710000D02*
X4310000Y-8620000D01*
X20660000Y-9180000D02*
X20660000Y-11140000D01*
X2220000Y-20530000D02*
X2220000Y-10710000D01*
X48517500Y-45347500D02*
X46390000Y-43220000D01*
X4310000Y-8620000D02*
X6330000Y-6600000D01*
X18090000Y-6600000D02*
X18090000Y-6610000D01*
X22990000Y-45410000D02*
X17300000Y-45410000D01*
X34390000Y-43220000D02*
X32340000Y-41170000D01*
X18090000Y-6610000D02*
X20660000Y-9180000D01*
X32340000Y-41170000D02*
X27230000Y-41170000D01*
X27230000Y-41170000D02*
X22990000Y-45410000D01*
X46390000Y-43220000D02*
X34390000Y-43220000D01*
X6330000Y-6600000D02*
X18090000Y-6600000D01*
%TO.N,PWM_2_CV*%
X47960000Y-42250000D02*
X35690000Y-42250000D01*
X35690000Y-42250000D02*
X35260000Y-41820000D01*
X51057500Y-45347500D02*
X47960000Y-42250000D01*
%TO.N,CUTOFF_CV*%
X57180000Y-41920000D02*
X61960000Y-37140000D01*
X52360000Y-45950000D02*
X52360000Y-44250000D01*
X52360000Y-44250000D02*
X54690000Y-41920000D01*
X56137500Y-45347500D02*
X54875000Y-46610000D01*
X61960000Y-37140000D02*
X61960000Y-35980000D01*
X53020000Y-46610000D02*
X52360000Y-45950000D01*
X54875000Y-46610000D02*
X53020000Y-46610000D01*
X54690000Y-41920000D02*
X57180000Y-41920000D01*
%TO.N,FOLD_CV*%
X69550000Y-42400000D02*
X69550000Y-41540000D01*
X78030000Y-44310000D02*
X77210000Y-45130000D01*
X72260000Y-45110000D02*
X69550000Y-42400000D01*
X77210000Y-45130000D02*
X72260000Y-45130000D01*
X113870000Y-44310000D02*
X78030000Y-44310000D01*
X56095000Y-42850000D02*
X53597500Y-45347500D01*
X72260000Y-45130000D02*
X72260000Y-45110000D01*
X62600000Y-42850000D02*
X56095000Y-42850000D01*
%TO.N,VCA_CV*%
X86230000Y-40970000D02*
X98000000Y-40970000D01*
X98000000Y-40970000D02*
X98360000Y-41330000D01*
D29*
%TO.N,Net-(Q302-C)*%
X76230000Y-24560000D02*
X76230000Y-12470000D01*
X79580000Y-27910000D02*
X76230000Y-24560000D01*
X76230000Y-12470000D02*
X76220000Y-12460000D01*
%TO.N,Net-(Q402-B)*%
X107530000Y-15050000D02*
X116930000Y-15050000D01*
X119920000Y-21110000D02*
X119910000Y-21120000D01*
X116930000Y-15050000D02*
X119920000Y-18040000D01*
X119920000Y-18040000D02*
X119920000Y-21110000D01*
%TO.N,Net-(Q404-B)*%
X117635000Y-13740000D02*
X118022500Y-13352500D01*
X110830000Y-13740000D02*
X117635000Y-13740000D01*
%TO.N,Net-(Q406-C)*%
X100640000Y-32600000D02*
X100550000Y-32510000D01*
X101420000Y-33380000D02*
X100640000Y-32600000D01*
X100550000Y-32510000D02*
X100550000Y-28570000D01*
X101420000Y-37490000D02*
X101420000Y-33380000D01*
%TO.N,TRI1_FULL*%
X52687500Y-9917329D02*
X52687500Y-9250001D01*
X46260000Y-11930000D02*
X50674829Y-11930000D01*
X36200000Y-18810000D02*
X30710000Y-18810000D01*
X50674829Y-11930000D02*
X52687500Y-9917329D01*
X44620000Y-13570000D02*
X46260000Y-11930000D01*
X44620000Y-15890000D02*
X44620000Y-13570000D01*
X30710000Y-18810000D02*
X30020000Y-18120000D01*
%TO.N,TRI2_FULL*%
X26510000Y-40610000D02*
X22640000Y-44480000D01*
X22640000Y-44480000D02*
X15340000Y-44480000D01*
X46120000Y-40610000D02*
X26510000Y-40610000D01*
X16060000Y-16660000D02*
X13660000Y-16660000D01*
X11360000Y-14360000D02*
X10460000Y-14360000D01*
X55937500Y-36727500D02*
X55920000Y-36710000D01*
X55937500Y-38235000D02*
X55937500Y-36727500D01*
X46690000Y-41180000D02*
X46120000Y-40610000D01*
X13660000Y-16660000D02*
X11360000Y-14360000D01*
%TO.N,PULSE2_FULL*%
X52687500Y-38235000D02*
X52687500Y-37287500D01*
X44290000Y-39130000D02*
X45710000Y-37710000D01*
X50640000Y-35240000D02*
X49370000Y-33970000D01*
X52687500Y-37287500D02*
X51460000Y-36060000D01*
X4200000Y-10320000D02*
X3550000Y-10970000D01*
X3550000Y-32650000D02*
X10030000Y-39130000D01*
X51460000Y-36060000D02*
X50640000Y-35240000D01*
X3550000Y-10970000D02*
X3550000Y-32650000D01*
X45710000Y-37710000D02*
X45710000Y-36440000D01*
X10030000Y-39130000D02*
X44290000Y-39130000D01*
X49370000Y-33970000D02*
X48520000Y-33970000D01*
%TO.N,PULSE1_FULL*%
X55937500Y-10201513D02*
X55578630Y-10560383D01*
X47900000Y-6410000D02*
X45390000Y-8920000D01*
X55937500Y-9250001D02*
X55937500Y-10201513D01*
X50790000Y-6410000D02*
X47900000Y-6410000D01*
%TO.N,Net-(U203C-P2W)*%
X59360000Y-15452500D02*
X59360000Y-14610000D01*
X56050000Y-11300000D02*
X53470000Y-11300000D01*
X59360000Y-14610000D02*
X56050000Y-11300000D01*
X53470000Y-11300000D02*
X52037500Y-12732500D01*
X52037500Y-12732500D02*
X52037500Y-14975001D01*
D30*
%TO.N,Net-(U204C--)*%
X61340000Y-21550000D02*
X61340000Y-15607500D01*
X59592500Y-22305000D02*
X60585000Y-22305000D01*
X60585000Y-22305000D02*
X61340000Y-21550000D01*
X59310000Y-22022500D02*
X59592500Y-22305000D01*
X61205000Y-11792500D02*
X61205000Y-7862500D01*
X61185000Y-11812500D02*
X61205000Y-11792500D01*
X56787500Y-22022500D02*
X59310000Y-22022500D01*
X61340000Y-15607500D02*
X61185000Y-15452500D01*
X61185000Y-15452500D02*
X61185000Y-11812500D01*
D29*
%TO.N,Net-(U203A-P0W)*%
X56590000Y-13480000D02*
X56590000Y-14972501D01*
X56590000Y-14972501D02*
X56587500Y-14975001D01*
%TO.N,Net-(U203B-P1W)*%
X56587500Y-9917329D02*
X58462671Y-11792500D01*
X58462671Y-11792500D02*
X59380000Y-11792500D01*
X56587500Y-9250001D02*
X56587500Y-9917329D01*
D30*
%TO.N,Net-(U203D-P3W)*%
X59380000Y-7380000D02*
X57800000Y-5800000D01*
X57800000Y-5800000D02*
X53100000Y-5800000D01*
X59380000Y-7862500D02*
X59380000Y-7380000D01*
X53100000Y-5800000D02*
X52037500Y-6862500D01*
X52037500Y-6862500D02*
X52037500Y-9250001D01*
D29*
%TO.N,Net-(U204B--)*%
X49287500Y-20650000D02*
X50660000Y-22022500D01*
X49960000Y-19977500D02*
X49287500Y-20650000D01*
X50660000Y-22022500D02*
X51837500Y-22022500D01*
X48035000Y-17322500D02*
X48820000Y-17322500D01*
X49960000Y-18462500D02*
X49960000Y-19977500D01*
X48820000Y-17322500D02*
X49960000Y-18462500D01*
%TO.N,Net-(U204A--)*%
X47550000Y-32352500D02*
X47580000Y-32322500D01*
X49540000Y-27102500D02*
X49387500Y-26950000D01*
X48730000Y-26950000D02*
X47580000Y-28100000D01*
X51837500Y-27102500D02*
X49540000Y-27102500D01*
X47550000Y-39312500D02*
X47550000Y-32352500D01*
X49387500Y-26950000D02*
X48730000Y-26950000D01*
X47580000Y-28100000D02*
X47580000Y-32322500D01*
%TO.N,Net-(U205A-P0W)*%
X52037500Y-30387500D02*
X52037500Y-32510000D01*
X44660000Y-22410000D02*
X44660000Y-25560000D01*
X51830000Y-30180000D02*
X52037500Y-30387500D01*
X44660000Y-25560000D02*
X46070000Y-26970000D01*
%TO.N,Net-(U205B-P1W)*%
X52037500Y-37567672D02*
X52037500Y-38235000D01*
X50257328Y-35787500D02*
X52037500Y-37567672D01*
X49375000Y-35787500D02*
X50257328Y-35787500D01*
%TO.N,Net-(U205C-P2W)*%
X55380000Y-34930000D02*
X52012500Y-34930000D01*
X56587500Y-33722500D02*
X55380000Y-34930000D01*
X52012500Y-34930000D02*
X49405000Y-32322500D01*
X56587500Y-32510000D02*
X56587500Y-33722500D01*
%TO.N,Net-(U205D-P3W)*%
X55410000Y-41130000D02*
X56590000Y-39950000D01*
X56590000Y-39950000D02*
X56590000Y-38237500D01*
X49375000Y-39605000D02*
X50900000Y-41130000D01*
X56590000Y-38237500D02*
X56587500Y-38235000D01*
X49375000Y-39312500D02*
X49375000Y-39605000D01*
X50900000Y-41130000D02*
X55410000Y-41130000D01*
%TO.N,Net-(R241-Pad2)*%
X66567500Y-20650000D02*
X64020000Y-20650000D01*
X51837500Y-20752500D02*
X51837500Y-19810000D01*
X58080000Y-16590000D02*
X56970000Y-16590000D01*
X51837500Y-19810000D02*
X51837500Y-18515000D01*
X51837500Y-18515000D02*
X51785000Y-18462500D01*
X60190000Y-18700000D02*
X58080000Y-16590000D01*
X69087500Y-23170000D02*
X66567500Y-20650000D01*
%TO.N,OSC_MIX*%
X71900000Y-27797500D02*
X71357500Y-27797500D01*
X71357500Y-27797500D02*
X70070000Y-26510000D01*
X70070000Y-24012500D02*
X70912500Y-23170000D01*
X72667500Y-27797500D02*
X71900000Y-27797500D01*
X73260000Y-28390000D02*
X72667500Y-27797500D01*
X71900000Y-30397500D02*
X72712500Y-30397500D01*
X70070000Y-26510000D02*
X70070000Y-24012500D01*
X73260000Y-29850000D02*
X73260000Y-28390000D01*
X72712500Y-30397500D02*
X73260000Y-29850000D01*
%TO.N,Net-(U301C--)*%
X78810000Y-34530000D02*
X81330000Y-34530000D01*
X87920000Y-27940000D02*
X87920000Y-21940000D01*
X87920000Y-21940000D02*
X87970000Y-21890000D01*
X81330000Y-34530000D02*
X87920000Y-27940000D01*
%TO.N,LP_IN*%
X75510000Y-11660000D02*
X75880000Y-11290000D01*
X79060000Y-13350000D02*
X79060000Y-21830000D01*
X72112500Y-13222500D02*
X73947500Y-13222500D01*
X75880000Y-11290000D02*
X77000000Y-11290000D01*
X73947500Y-13222500D02*
X75510000Y-11660000D01*
X78430000Y-12720000D02*
X79060000Y-13350000D01*
X79060000Y-21830000D02*
X79790000Y-22560000D01*
X79790000Y-22560000D02*
X80580000Y-22560000D01*
X77000000Y-11290000D02*
X78430000Y-12720000D01*
D30*
%TO.N,Net-(R408-Pad1)*%
X120310000Y-27180000D02*
X120310000Y-32320000D01*
X104070000Y-19920000D02*
X113050000Y-19920000D01*
X120280000Y-27150000D02*
X120310000Y-27180000D01*
X113050000Y-19920000D02*
X120280000Y-27150000D01*
D29*
%TO.N,FOLDER_OUT*%
X67780000Y-29097500D02*
X71900000Y-29097500D01*
X66175000Y-29097500D02*
X67780000Y-29097500D01*
X66167500Y-29090000D02*
X66175000Y-29097500D01*
D30*
%TO.N,Net-(U404B--)*%
X110370000Y-34170000D02*
X112430000Y-32110000D01*
X112430000Y-32110000D02*
X112430000Y-24930000D01*
X110370000Y-42950000D02*
X110370000Y-34170000D01*
X112430000Y-24930000D02*
X110660000Y-23160000D01*
D29*
%TO.N,Net-(U301D-+)*%
X89320000Y-11160000D02*
X89650000Y-11490000D01*
X86490000Y-11870000D02*
X87200000Y-11160000D01*
X87200000Y-11160000D02*
X89320000Y-11160000D01*
X86490000Y-13020000D02*
X86490000Y-11870000D01*
%TO.N,FILTER_IN*%
X70572500Y-29747500D02*
X71900000Y-29747500D01*
X71065000Y-11652672D02*
X71445172Y-11272500D01*
X67247500Y-29747500D02*
X67770000Y-30270000D01*
X68730000Y-30270000D02*
X70050000Y-30270000D01*
X72112500Y-13872500D02*
X71445172Y-13872500D01*
X71065000Y-13492328D02*
X71065000Y-11652672D01*
X71445172Y-11272500D02*
X72112500Y-11272500D01*
X72112500Y-11272500D02*
X70680000Y-9840000D01*
X70050000Y-30270000D02*
X70572500Y-29747500D01*
X66175000Y-29747500D02*
X67247500Y-29747500D01*
X67770000Y-30270000D02*
X68730000Y-30270000D01*
X71445172Y-13872500D02*
X71065000Y-13492328D01*
X70680000Y-9840000D02*
X69080000Y-9840000D01*
%TO.N,Net-(U205A-P0B)*%
X52687500Y-29222500D02*
X51837500Y-28372500D01*
X52687500Y-32510000D02*
X52687500Y-29222500D01*
X51435000Y-28775000D02*
X51837500Y-28372500D01*
X49387500Y-28775000D02*
X51435000Y-28775000D01*
D30*
%TO.N,Net-(U203A-P0B)*%
X55937500Y-14975001D02*
X55937500Y-16747500D01*
X55937500Y-16747500D02*
X56740000Y-17550000D01*
X56787500Y-20752500D02*
X59320000Y-20752500D01*
X56740000Y-17550000D02*
X56740000Y-20705000D01*
X59320000Y-20752500D02*
X59592500Y-20480000D01*
X56740000Y-20705000D02*
X56787500Y-20752500D01*
D29*
%TO.N,Net-(U201A--)*%
X23220000Y-25880000D02*
X29800000Y-25880000D01*
X29800000Y-25880000D02*
X29940000Y-25740000D01*
%TO.N,Net-(R420-Pad2)*%
X75110000Y-20510000D02*
X75110000Y-25870000D01*
X96480000Y-33140000D02*
X96480000Y-31610000D01*
X76380000Y-33990000D02*
X79000000Y-36610000D01*
X107390000Y-2590000D02*
X110900000Y-6100000D01*
X107340000Y-2600000D02*
X107340000Y-2590000D01*
X92950000Y-16990000D02*
X107340000Y-2600000D01*
X95460000Y-34160000D02*
X96480000Y-33140000D01*
X92950000Y-28080000D02*
X92950000Y-16990000D01*
X75110000Y-25870000D02*
X76380000Y-27140000D01*
X79000000Y-36610000D02*
X81360000Y-36610000D01*
X81360000Y-36610000D02*
X83810000Y-34160000D01*
X83810000Y-34160000D02*
X95460000Y-34160000D01*
X76380000Y-27140000D02*
X76380000Y-33990000D01*
X107340000Y-2590000D02*
X107390000Y-2590000D01*
X96480000Y-31610000D02*
X92950000Y-28080000D01*
X75100000Y-20500000D02*
X75110000Y-20510000D01*
%TO.N,Net-(JP301-A)*%
X91430000Y-9520000D02*
X89997672Y-9520000D01*
X88440000Y-7295000D02*
X88440000Y-6522500D01*
X89997672Y-9520000D02*
X88440000Y-7962328D01*
X88440000Y-6522500D02*
X90060000Y-4902500D01*
X88440000Y-7962328D02*
X88440000Y-7295000D01*
%TD*%
M02*
