%TF.GenerationSoftware,KiCad,Pcbnew,7.0.7*%
%TF.CreationDate,2024-06-21T15:12:59-06:00*%
%TF.ProjectId,VoiceBoardR3,566f6963-6542-46f6-9172-6452332e6b69,rev?*%
%TF.SameCoordinates,Original*%
%TF.FileFunction,Copper,L1,Top*%
%TF.FilePolarity,Positive*%
%FSLAX46Y46*%
G04 Gerber Fmt 4.6, Leading zero omitted, Abs format (unit mm)*
G04 Created by KiCad (PCBNEW 7.0.7) date 2024-06-21 15:12:59*
%MOMM*%
%LPD*%
G01*
G04 APERTURE LIST*
G04 Aperture macros list*
%AMRoundRect*
0 Rectangle with rounded corners*
0 $1 Rounding radius*
0 $2 $3 $4 $5 $6 $7 $8 $9 X,Y pos of 4 corners*
0 Add a 4 corners polygon primitive as box body*
4,1,4,$2,$3,$4,$5,$6,$7,$8,$9,$2,$3,0*
0 Add four circle primitives for the rounded corners*
1,1,$1+$1,$2,$3*
1,1,$1+$1,$4,$5*
1,1,$1+$1,$6,$7*
1,1,$1+$1,$8,$9*
0 Add four rect primitives between the rounded corners*
20,1,$1+$1,$2,$3,$4,$5,0*
20,1,$1+$1,$4,$5,$6,$7,0*
20,1,$1+$1,$6,$7,$8,$9,0*
20,1,$1+$1,$8,$9,$2,$3,0*%
G04 Aperture macros list end*
%TA.AperFunction,SMDPad,CuDef*%
%ADD10RoundRect,0.250000X-0.262500X-0.450000X0.262500X-0.450000X0.262500X0.450000X-0.262500X0.450000X0*%
%TD*%
%TA.AperFunction,SMDPad,CuDef*%
%ADD11RoundRect,0.250000X0.262500X0.450000X-0.262500X0.450000X-0.262500X-0.450000X0.262500X-0.450000X0*%
%TD*%
%TA.AperFunction,SMDPad,CuDef*%
%ADD12RoundRect,0.150000X0.150000X-0.825000X0.150000X0.825000X-0.150000X0.825000X-0.150000X-0.825000X0*%
%TD*%
%TA.AperFunction,SMDPad,CuDef*%
%ADD13RoundRect,0.250000X0.475000X-0.250000X0.475000X0.250000X-0.475000X0.250000X-0.475000X-0.250000X0*%
%TD*%
%TA.AperFunction,SMDPad,CuDef*%
%ADD14RoundRect,0.250000X0.450000X-0.262500X0.450000X0.262500X-0.450000X0.262500X-0.450000X-0.262500X0*%
%TD*%
%TA.AperFunction,SMDPad,CuDef*%
%ADD15RoundRect,0.200000X0.200000X-0.250000X0.200000X0.250000X-0.200000X0.250000X-0.200000X-0.250000X0*%
%TD*%
%TA.AperFunction,SMDPad,CuDef*%
%ADD16RoundRect,0.200000X-0.250000X-0.200000X0.250000X-0.200000X0.250000X0.200000X-0.250000X0.200000X0*%
%TD*%
%TA.AperFunction,SMDPad,CuDef*%
%ADD17RoundRect,0.250000X-0.450000X0.262500X-0.450000X-0.262500X0.450000X-0.262500X0.450000X0.262500X0*%
%TD*%
%TA.AperFunction,SMDPad,CuDef*%
%ADD18RoundRect,0.250000X0.250000X0.475000X-0.250000X0.475000X-0.250000X-0.475000X0.250000X-0.475000X0*%
%TD*%
%TA.AperFunction,SMDPad,CuDef*%
%ADD19RoundRect,0.150000X-0.825000X-0.150000X0.825000X-0.150000X0.825000X0.150000X-0.825000X0.150000X0*%
%TD*%
%TA.AperFunction,SMDPad,CuDef*%
%ADD20RoundRect,0.250000X-0.250000X-0.475000X0.250000X-0.475000X0.250000X0.475000X-0.250000X0.475000X0*%
%TD*%
%TA.AperFunction,SMDPad,CuDef*%
%ADD21RoundRect,0.250000X-0.475000X0.250000X-0.475000X-0.250000X0.475000X-0.250000X0.475000X0.250000X0*%
%TD*%
%TA.AperFunction,ComponentPad*%
%ADD22R,1.700000X1.700000*%
%TD*%
%TA.AperFunction,ComponentPad*%
%ADD23O,1.700000X1.700000*%
%TD*%
%TA.AperFunction,SMDPad,CuDef*%
%ADD24RoundRect,0.225000X0.225000X0.375000X-0.225000X0.375000X-0.225000X-0.375000X0.225000X-0.375000X0*%
%TD*%
%TA.AperFunction,SMDPad,CuDef*%
%ADD25RoundRect,0.243750X0.456250X-0.243750X0.456250X0.243750X-0.456250X0.243750X-0.456250X-0.243750X0*%
%TD*%
%TA.AperFunction,SMDPad,CuDef*%
%ADD26RoundRect,0.200000X-0.200000X0.250000X-0.200000X-0.250000X0.200000X-0.250000X0.200000X0.250000X0*%
%TD*%
%TA.AperFunction,SMDPad,CuDef*%
%ADD27RoundRect,0.225000X-0.375000X0.225000X-0.375000X-0.225000X0.375000X-0.225000X0.375000X0.225000X0*%
%TD*%
%TA.AperFunction,SMDPad,CuDef*%
%ADD28RoundRect,0.243750X-0.456250X0.243750X-0.456250X-0.243750X0.456250X-0.243750X0.456250X0.243750X0*%
%TD*%
%TA.AperFunction,ViaPad*%
%ADD29C,0.800000*%
%TD*%
%TA.AperFunction,ViaPad*%
%ADD30C,1.000000*%
%TD*%
%TA.AperFunction,ViaPad*%
%ADD31C,0.650000*%
%TD*%
%TA.AperFunction,Conductor*%
%ADD32C,0.220000*%
%TD*%
%TA.AperFunction,Conductor*%
%ADD33C,0.250000*%
%TD*%
%TA.AperFunction,Conductor*%
%ADD34C,0.300000*%
%TD*%
%TA.AperFunction,Conductor*%
%ADD35C,0.500000*%
%TD*%
%TA.AperFunction,Conductor*%
%ADD36C,0.180000*%
%TD*%
%TA.AperFunction,Conductor*%
%ADD37C,0.200000*%
%TD*%
G04 APERTURE END LIST*
D10*
%TO.P,R402,1*%
%TO.N,FOLD_CV*%
X114850000Y-45212500D03*
%TO.P,R402,2*%
%TO.N,Net-(U404C--)*%
X116675000Y-45212500D03*
%TD*%
D11*
%TO.P,R410,1*%
%TO.N,Net-(R409-Pad1)*%
X102825000Y-6562500D03*
%TO.P,R410,2*%
%TO.N,Net-(U403B-+)*%
X101000000Y-6562500D03*
%TD*%
%TO.P,R303,1*%
%TO.N,Net-(Q301-B)*%
X76495000Y-5812500D03*
%TO.P,R303,2*%
%TO.N,CUTOFF_CV*%
X74670000Y-5812500D03*
%TD*%
D12*
%TO.P,U402,1*%
%TO.N,Net-(R424-Pad1)*%
X105567500Y-25192500D03*
%TO.P,U402,2,DIODE_BIAS*%
%TO.N,unconnected-(U402C-DIODE_BIAS-Pad2)*%
X106837500Y-25192500D03*
%TO.P,U402,3,+*%
%TO.N,Net-(U402C-+)*%
X108107500Y-25192500D03*
%TO.P,U402,4,-*%
%TO.N,Net-(U402C--)*%
X109377500Y-25192500D03*
%TO.P,U402,5*%
%TO.N,Net-(U404B--)*%
X110647500Y-25192500D03*
%TO.P,U402,6,V-*%
%TO.N,-12V*%
X111917500Y-25192500D03*
%TO.P,U402,7*%
%TO.N,unconnected-(U402-Pad7)*%
X113187500Y-25192500D03*
%TO.P,U402,8*%
%TO.N,unconnected-(U402-Pad8)*%
X114457500Y-25192500D03*
%TO.P,U402,9*%
%TO.N,unconnected-(U402-Pad9)*%
X114457500Y-20242500D03*
%TO.P,U402,10*%
%TO.N,unconnected-(U402-Pad10)*%
X113187500Y-20242500D03*
%TO.P,U402,11,V+*%
%TO.N,+12V*%
X111917500Y-20242500D03*
%TO.P,U402,12*%
%TO.N,Net-(U403A--)*%
X110647500Y-20242500D03*
%TO.P,U402,13,-*%
%TO.N,Net-(U402A--)*%
X109377500Y-20242500D03*
%TO.P,U402,14,+*%
%TO.N,Net-(U402A-+)*%
X108107500Y-20242500D03*
%TO.P,U402,15,DIODE_BIAS*%
%TO.N,unconnected-(U402A-DIODE_BIAS-Pad15)*%
X106837500Y-20242500D03*
%TO.P,U402,16*%
%TO.N,Net-(R408-Pad1)*%
X105567500Y-20242500D03*
%TD*%
D13*
%TO.P,C212,1*%
%TO.N,GND*%
X10202500Y-32132500D03*
%TO.P,C212,2*%
%TO.N,+12V*%
X10202500Y-30232500D03*
%TD*%
D14*
%TO.P,R314,1*%
%TO.N,GND*%
X82287500Y-37762500D03*
%TO.P,R314,2*%
%TO.N,Net-(U303C-+)*%
X82287500Y-35937500D03*
%TD*%
D13*
%TO.P,C209,1*%
%TO.N,Net-(Q202-E)*%
X14962500Y-32132500D03*
%TO.P,C209,2*%
%TO.N,Net-(C209-Pad2)*%
X14962500Y-30232500D03*
%TD*%
D10*
%TO.P,R222,1*%
%TO.N,Net-(U202C--)*%
X14240000Y-19632500D03*
%TO.P,R222,2*%
%TO.N,TRI2_FULL*%
X16065000Y-19632500D03*
%TD*%
D11*
%TO.P,R417,1*%
%TO.N,-12V*%
X125660000Y-6217500D03*
%TO.P,R417,2*%
%TO.N,Net-(Q405-E)*%
X123835000Y-6217500D03*
%TD*%
D14*
%TO.P,R426,1*%
%TO.N,GND*%
X104112500Y-29425000D03*
%TO.P,R426,2*%
%TO.N,Net-(U402C-+)*%
X104112500Y-27600000D03*
%TD*%
D15*
%TO.P,Q404,1,B*%
%TO.N,Net-(Q404-B)*%
X120012500Y-11362500D03*
%TO.P,Q404,2,E*%
%TO.N,Net-(Q404-E)*%
X121912500Y-11362500D03*
%TO.P,Q404,3,C*%
%TO.N,Net-(Q404-C)*%
X120962500Y-9362500D03*
%TD*%
D11*
%TO.P,R210,1*%
%TO.N,Net-(U201C--)*%
X39175000Y-18812500D03*
%TO.P,R210,2*%
%TO.N,TRI1_FULL*%
X37350000Y-18812500D03*
%TD*%
D14*
%TO.P,R422,1*%
%TO.N,Net-(Q406-E)*%
X99087500Y-33475000D03*
%TO.P,R422,2*%
%TO.N,GND*%
X99087500Y-31650000D03*
%TD*%
D16*
%TO.P,Q202,1,B*%
%TO.N,Net-(Q202-B)*%
X20052500Y-29732500D03*
%TO.P,Q202,2,E*%
%TO.N,Net-(Q202-E)*%
X20052500Y-31632500D03*
%TO.P,Q202,3,C*%
%TO.N,Net-(Q202-C)*%
X22052500Y-30682500D03*
%TD*%
D17*
%TO.P,R226,1*%
%TO.N,PULSE1_FULL*%
X37120000Y-8877500D03*
%TO.P,R226,2*%
%TO.N,GND*%
X37120000Y-10702500D03*
%TD*%
D14*
%TO.P,R415,1*%
%TO.N,Net-(Q404-B)*%
X116412500Y-14025000D03*
%TO.P,R415,2*%
%TO.N,Net-(U403C--)*%
X116412500Y-12200000D03*
%TD*%
D10*
%TO.P,R213,1*%
%TO.N,Net-(Q202-B)*%
X20135000Y-35787500D03*
%TO.P,R213,2*%
%TO.N,Net-(C208-Pad2)*%
X21960000Y-35787500D03*
%TD*%
D13*
%TO.P,C203,1*%
%TO.N,SAW1_FULL*%
X31202500Y-32132500D03*
%TO.P,C203,2*%
%TO.N,Net-(U201C-+)*%
X31202500Y-30232500D03*
%TD*%
D18*
%TO.P,C307,1*%
%TO.N,Net-(U301B-+)*%
X78227500Y-25347500D03*
%TO.P,C307,2*%
%TO.N,HP_IN*%
X76327500Y-25347500D03*
%TD*%
D10*
%TO.P,R423,1*%
%TO.N,VCA_CV*%
X99925000Y-41337500D03*
%TO.P,R423,2*%
%TO.N,Net-(U404A--)*%
X101750000Y-41337500D03*
%TD*%
D13*
%TO.P,C206,1*%
%TO.N,GND*%
X33402500Y-32132500D03*
%TO.P,C206,2*%
%TO.N,+12V*%
X33402500Y-30232500D03*
%TD*%
D14*
%TO.P,R313,1*%
%TO.N,GND*%
X87837500Y-37775000D03*
%TO.P,R313,2*%
%TO.N,Net-(U303C--)*%
X87837500Y-35950000D03*
%TD*%
D11*
%TO.P,R211,1*%
%TO.N,GND*%
X41215000Y-22882500D03*
%TO.P,R211,2*%
%TO.N,Net-(U201C--)*%
X39390000Y-22882500D03*
%TD*%
D18*
%TO.P,C407,1*%
%TO.N,+12V*%
X105340000Y-9910000D03*
%TO.P,C407,2*%
%TO.N,GND*%
X103440000Y-9910000D03*
%TD*%
D19*
%TO.P,U404,1*%
%TO.N,Net-(Q406-B)*%
X107912500Y-35302500D03*
%TO.P,U404,2,-*%
%TO.N,Net-(U404A--)*%
X107912500Y-36572500D03*
%TO.P,U404,3,+*%
%TO.N,GND*%
X107912500Y-37842500D03*
%TO.P,U404,4,V+*%
%TO.N,+12V*%
X107912500Y-39112500D03*
%TO.P,U404,5,+*%
%TO.N,GND*%
X107912500Y-40382500D03*
%TO.P,U404,6,-*%
%TO.N,Net-(U404B--)*%
X107912500Y-41652500D03*
%TO.P,U404,7*%
%TO.N,Net-(R425-Pad2)*%
X107912500Y-42922500D03*
%TO.P,U404,8*%
%TO.N,Net-(Q401-B)*%
X112862500Y-42922500D03*
%TO.P,U404,9,-*%
%TO.N,Net-(U404C--)*%
X112862500Y-41652500D03*
%TO.P,U404,10,+*%
%TO.N,GND*%
X112862500Y-40382500D03*
%TO.P,U404,11,V-*%
%TO.N,-12V*%
X112862500Y-39112500D03*
%TO.P,U404,12,+*%
%TO.N,GND*%
X112862500Y-37842500D03*
%TO.P,U404,13,-*%
%TO.N,unconnected-(U404D---Pad13)*%
X112862500Y-36572500D03*
%TO.P,U404,14*%
%TO.N,unconnected-(U404-Pad14)*%
X112862500Y-35302500D03*
%TD*%
D20*
%TO.P,C406,1*%
%TO.N,FOLDER_IN*%
X96762500Y-23412500D03*
%TO.P,C406,2*%
%TO.N,Net-(C406-Pad2)*%
X98662500Y-23412500D03*
%TD*%
D14*
%TO.P,R302,1*%
%TO.N,-12V*%
X78762500Y-18865000D03*
%TO.P,R302,2*%
%TO.N,Net-(Q301-C)*%
X78762500Y-17040000D03*
%TD*%
D11*
%TO.P,R218,1*%
%TO.N,Net-(U202D--)*%
X7765000Y-20432500D03*
%TO.P,R218,2*%
%TO.N,Net-(R218-Pad2)*%
X5940000Y-20432500D03*
%TD*%
D10*
%TO.P,R430,1*%
%TO.N,Net-(R420-Pad2)*%
X108550000Y-2612500D03*
%TO.P,R430,2*%
%TO.N,Net-(R418-Pad1)*%
X110375000Y-2612500D03*
%TD*%
%TO.P,R235,1*%
%TO.N,Net-(R202-Pad2)*%
X29577500Y-9310000D03*
%TO.P,R235,2*%
%TO.N,TRI1_FULL*%
X31402500Y-9310000D03*
%TD*%
%TO.P,R225,1*%
%TO.N,Net-(D205-K)*%
X29577500Y-5740000D03*
%TO.P,R225,2*%
%TO.N,PULSE1_FULL*%
X31402500Y-5740000D03*
%TD*%
D18*
%TO.P,C403,1*%
%TO.N,+12V*%
X105662500Y-40512500D03*
%TO.P,C403,2*%
%TO.N,GND*%
X103762500Y-40512500D03*
%TD*%
D14*
%TO.P,R243,1*%
%TO.N,GND*%
X3957500Y-30080000D03*
%TO.P,R243,2*%
%TO.N,Net-(U202C-+)*%
X3957500Y-28255000D03*
%TD*%
%TO.P,R203,1*%
%TO.N,LEVEL_1_CV*%
X35662500Y-32075000D03*
%TO.P,R203,2*%
%TO.N,Net-(Q201-E)*%
X35662500Y-30250000D03*
%TD*%
D21*
%TO.P,C219,1*%
%TO.N,GND*%
X24042500Y-6912500D03*
%TO.P,C219,2*%
%TO.N,+12V*%
X24042500Y-8812500D03*
%TD*%
D15*
%TO.P,Q401,1,B*%
%TO.N,Net-(Q401-B)*%
X124050000Y-39987500D03*
%TO.P,Q401,2,E*%
%TO.N,Net-(Q401-E)*%
X125950000Y-39987500D03*
%TO.P,Q401,3,C*%
%TO.N,Net-(Q401-C)*%
X125000000Y-37987500D03*
%TD*%
%TO.P,Q201,1,B*%
%TO.N,Net-(Q201-B)*%
X43770000Y-31060000D03*
%TO.P,Q201,2,E*%
%TO.N,Net-(Q201-E)*%
X45670000Y-31060000D03*
%TO.P,Q201,3,C*%
%TO.N,Net-(Q201-C)*%
X44720000Y-29060000D03*
%TD*%
D14*
%TO.P,R427,1*%
%TO.N,GND*%
X108462500Y-29425000D03*
%TO.P,R427,2*%
%TO.N,Net-(U402C--)*%
X108462500Y-27600000D03*
%TD*%
D13*
%TO.P,C404,1*%
%TO.N,-12V*%
X115187500Y-38737500D03*
%TO.P,C404,2*%
%TO.N,GND*%
X115187500Y-36837500D03*
%TD*%
D12*
%TO.P,U202,1*%
%TO.N,SAW2_FULL*%
X6392500Y-27857500D03*
%TO.P,U202,2,-*%
%TO.N,Net-(U202A--)*%
X7662500Y-27857500D03*
%TO.P,U202,3,+*%
%TO.N,GND*%
X8932500Y-27857500D03*
%TO.P,U202,4,V+*%
%TO.N,+12V*%
X10202500Y-27857500D03*
%TO.P,U202,5,+*%
%TO.N,GND*%
X11472500Y-27857500D03*
%TO.P,U202,6,-*%
%TO.N,Net-(Q202-E)*%
X12742500Y-27857500D03*
%TO.P,U202,7*%
%TO.N,Net-(C209-Pad2)*%
X14012500Y-27857500D03*
%TO.P,U202,8*%
%TO.N,Net-(D203-A)*%
X14012500Y-22907500D03*
%TO.P,U202,9,-*%
%TO.N,Net-(U202C--)*%
X12742500Y-22907500D03*
%TO.P,U202,10,+*%
%TO.N,Net-(U202C-+)*%
X11472500Y-22907500D03*
%TO.P,U202,11,V-*%
%TO.N,-12V*%
X10202500Y-22907500D03*
%TO.P,U202,12,+*%
%TO.N,GND*%
X8932500Y-22907500D03*
%TO.P,U202,13,-*%
%TO.N,Net-(U202D--)*%
X7662500Y-22907500D03*
%TO.P,U202,14*%
%TO.N,Net-(D204-A)*%
X6392500Y-22907500D03*
%TD*%
D21*
%TO.P,C301,1*%
%TO.N,Net-(C301-Pad1)*%
X82987500Y-11327500D03*
%TO.P,C301,2*%
%TO.N,Net-(Q301-C)*%
X82987500Y-13227500D03*
%TD*%
D20*
%TO.P,C413,1*%
%TO.N,Net-(U404A--)*%
X94537500Y-39662500D03*
%TO.P,C413,2*%
%TO.N,Net-(Q406-B)*%
X96437500Y-39662500D03*
%TD*%
D10*
%TO.P,R209,1*%
%TO.N,GND*%
X37590000Y-15832500D03*
%TO.P,R209,2*%
%TO.N,Net-(U201C-+)*%
X39415000Y-15832500D03*
%TD*%
%TO.P,R204,1*%
%TO.N,Net-(C201-Pad2)*%
X39390000Y-28382500D03*
%TO.P,R204,2*%
%TO.N,Net-(Q201-C)*%
X41215000Y-28382500D03*
%TD*%
D17*
%TO.P,R424,1*%
%TO.N,Net-(R424-Pad1)*%
X99187500Y-27600000D03*
%TO.P,R424,2*%
%TO.N,Net-(Q406-C)*%
X99187500Y-29425000D03*
%TD*%
D21*
%TO.P,C308,1*%
%TO.N,+12V*%
X83002500Y-14977500D03*
%TO.P,C308,2*%
%TO.N,GND*%
X83002500Y-16877500D03*
%TD*%
D10*
%TO.P,R301,1*%
%TO.N,Net-(Q301-E)*%
X78775000Y-9352500D03*
%TO.P,R301,2*%
%TO.N,Net-(C301-Pad1)*%
X80600000Y-9352500D03*
%TD*%
D11*
%TO.P,R219,1*%
%TO.N,-12V*%
X13722500Y-14360000D03*
%TO.P,R219,2*%
%TO.N,TRI2_FULL*%
X11897500Y-14360000D03*
%TD*%
D22*
%TO.P,U103,1,SDA*%
%TO.N,SDA*%
X43437500Y-47887500D03*
D23*
%TO.P,U103,2,LVL1*%
%TO.N,LEVEL_1_CV*%
X43437500Y-45347500D03*
%TO.P,U103,3,SCL*%
%TO.N,SCL*%
X45977500Y-47887500D03*
%TO.P,U103,4,LVL2*%
%TO.N,LEVEL_2_CV*%
X45977500Y-45347500D03*
%TO.P,U103,5,CLK1*%
%TO.N,CLK_1*%
X48517500Y-47887500D03*
%TO.P,U103,6,PWM1*%
%TO.N,PWM_1_CV*%
X48517500Y-45347500D03*
%TO.P,U103,7,CLK2*%
%TO.N,CLK_2*%
X51057500Y-47887500D03*
%TO.P,U103,8,PWM2*%
%TO.N,PWM_2_CV*%
X51057500Y-45347500D03*
%TO.P,U103,9,HP*%
%TO.N,HP_MODE*%
X53597500Y-47887500D03*
%TO.P,U103,10,FOLD*%
%TO.N,FOLD_CV*%
X53597500Y-45347500D03*
%TO.P,U103,11,FF*%
%TO.N,FOLD_FIRST*%
X56137500Y-47887500D03*
%TO.P,U103,12,VCF*%
%TO.N,CUTOFF_CV*%
X56137500Y-45347500D03*
%TO.P,U103,13,OUT*%
%TO.N,VCA_OUT*%
X58677500Y-47887500D03*
%TO.P,U103,14,VCA*%
%TO.N,VCA_CV*%
X58677500Y-45347500D03*
%TO.P,U103,15,+3V3*%
%TO.N,+3.3V*%
X61217500Y-47887500D03*
%TO.P,U103,16,GND*%
%TO.N,GND*%
X61217500Y-45347500D03*
%TO.P,U103,17,+12V*%
%TO.N,+12V*%
X63757500Y-47887500D03*
%TO.P,U103,18,-12V*%
%TO.N,-12V*%
X63757500Y-45347500D03*
%TD*%
D24*
%TO.P,D203,1,K*%
%TO.N,TRI2_FULL*%
X8847500Y-12580000D03*
%TO.P,D203,2,A*%
%TO.N,Net-(D203-A)*%
X5547500Y-12580000D03*
%TD*%
D25*
%TO.P,D302,1,K*%
%TO.N,Net-(D301-A)*%
X96637500Y-12740000D03*
%TO.P,D302,2,A*%
%TO.N,Net-(D301-K)*%
X96637500Y-10865000D03*
%TD*%
D13*
%TO.P,C220,1*%
%TO.N,GND*%
X18467500Y-18037500D03*
%TO.P,C220,2*%
%TO.N,-12V*%
X18467500Y-16137500D03*
%TD*%
D17*
%TO.P,R216,1*%
%TO.N,Net-(U202A--)*%
X7912500Y-30275000D03*
%TO.P,R216,2*%
%TO.N,Net-(C209-Pad2)*%
X7912500Y-32100000D03*
%TD*%
D21*
%TO.P,C207,1*%
%TO.N,GND*%
X33402500Y-18482500D03*
%TO.P,C207,2*%
%TO.N,-12V*%
X33402500Y-20382500D03*
%TD*%
D17*
%TO.P,R207,1*%
%TO.N,Net-(U201A--)*%
X28952500Y-30270000D03*
%TO.P,R207,2*%
%TO.N,Net-(C201-Pad2)*%
X28952500Y-32095000D03*
%TD*%
D18*
%TO.P,C208,1*%
%TO.N,CLK_2*%
X26927500Y-34787500D03*
%TO.P,C208,2*%
%TO.N,Net-(C208-Pad2)*%
X25027500Y-34787500D03*
%TD*%
D12*
%TO.P,U201,1*%
%TO.N,SAW1_FULL*%
X29592500Y-27857500D03*
%TO.P,U201,2,-*%
%TO.N,Net-(U201A--)*%
X30862500Y-27857500D03*
%TO.P,U201,3,+*%
%TO.N,GND*%
X32132500Y-27857500D03*
%TO.P,U201,4,V+*%
%TO.N,+12V*%
X33402500Y-27857500D03*
%TO.P,U201,5,+*%
%TO.N,GND*%
X34672500Y-27857500D03*
%TO.P,U201,6,-*%
%TO.N,Net-(Q201-E)*%
X35942500Y-27857500D03*
%TO.P,U201,7*%
%TO.N,Net-(C201-Pad2)*%
X37212500Y-27857500D03*
%TO.P,U201,8*%
%TO.N,Net-(D202-A)*%
X37212500Y-22907500D03*
%TO.P,U201,9,-*%
%TO.N,Net-(U201C--)*%
X35942500Y-22907500D03*
%TO.P,U201,10,+*%
%TO.N,Net-(U201C-+)*%
X34672500Y-22907500D03*
%TO.P,U201,11,V-*%
%TO.N,-12V*%
X33402500Y-22907500D03*
%TO.P,U201,12,+*%
%TO.N,GND*%
X32132500Y-22907500D03*
%TO.P,U201,13,-*%
%TO.N,Net-(U201D--)*%
X30862500Y-22907500D03*
%TO.P,U201,14*%
%TO.N,Net-(D201-A)*%
X29592500Y-22907500D03*
%TD*%
D11*
%TO.P,R304,1*%
%TO.N,Net-(Q301-B)*%
X76512501Y-9352500D03*
%TO.P,R304,2*%
%TO.N,GND*%
X74687501Y-9352500D03*
%TD*%
D14*
%TO.P,R217,1*%
%TO.N,Net-(U202C-+)*%
X3950000Y-25972500D03*
%TO.P,R217,2*%
%TO.N,Net-(U202D--)*%
X3950000Y-24147500D03*
%TD*%
D17*
%TO.P,R408,1*%
%TO.N,Net-(R408-Pad1)*%
X120287500Y-34425000D03*
%TO.P,R408,2*%
%TO.N,Net-(Q401-C)*%
X120287500Y-36250000D03*
%TD*%
D10*
%TO.P,R407,1*%
%TO.N,GND*%
X102750000Y-17412500D03*
%TO.P,R407,2*%
%TO.N,Net-(U402A-+)*%
X104575000Y-17412500D03*
%TD*%
D11*
%TO.P,R234,1*%
%TO.N,SAW1_FULL*%
X26450000Y-27337500D03*
%TO.P,R234,2*%
%TO.N,Net-(U201A--)*%
X24625000Y-27337500D03*
%TD*%
D17*
%TO.P,R224,1*%
%TO.N,Net-(D206-K)*%
X10742500Y-8545000D03*
%TO.P,R224,2*%
%TO.N,PULSE2_FULL*%
X10742500Y-10370000D03*
%TD*%
D11*
%TO.P,R202,1*%
%TO.N,Net-(U201D--)*%
X30662500Y-20450000D03*
%TO.P,R202,2*%
%TO.N,Net-(R202-Pad2)*%
X28837500Y-20450000D03*
%TD*%
D10*
%TO.P,R311,1*%
%TO.N,LP_IN*%
X80600000Y-25337500D03*
%TO.P,R311,2*%
%TO.N,Net-(U303A--)*%
X82425000Y-25337500D03*
%TD*%
D13*
%TO.P,C306,1*%
%TO.N,Net-(U301C-+)*%
X98827500Y-16402500D03*
%TO.P,C306,2*%
%TO.N,Net-(D301-K)*%
X98827500Y-14502500D03*
%TD*%
D21*
%TO.P,C213,1*%
%TO.N,GND*%
X10202500Y-18732500D03*
%TO.P,C213,2*%
%TO.N,-12V*%
X10202500Y-20632500D03*
%TD*%
D17*
%TO.P,R309,1*%
%TO.N,GND*%
X88162500Y-24100000D03*
%TO.P,R309,2*%
%TO.N,Net-(U303A--)*%
X88162500Y-25925000D03*
%TD*%
%TO.P,R212,1*%
%TO.N,GND*%
X25037500Y-30800000D03*
%TO.P,R212,2*%
%TO.N,Net-(C208-Pad2)*%
X25037500Y-32625000D03*
%TD*%
D26*
%TO.P,Q406,1,B*%
%TO.N,Net-(Q406-B)*%
X100987500Y-35462500D03*
%TO.P,Q406,2,E*%
%TO.N,Net-(Q406-E)*%
X99087500Y-35462500D03*
%TO.P,Q406,3,C*%
%TO.N,Net-(Q406-C)*%
X100037500Y-37462500D03*
%TD*%
D27*
%TO.P,D205,1,K*%
%TO.N,Net-(D205-K)*%
X25980000Y-10712500D03*
%TO.P,D205,2,A*%
%TO.N,Net-(D205-A)*%
X25980000Y-14012500D03*
%TD*%
D12*
%TO.P,U303,1*%
%TO.N,Net-(R307-Pad2)*%
X84667500Y-33237500D03*
%TO.P,U303,2,DIODE_BIAS*%
%TO.N,unconnected-(U303C-DIODE_BIAS-Pad2)*%
X85937500Y-33237500D03*
%TO.P,U303,3,+*%
%TO.N,Net-(U303C-+)*%
X87207500Y-33237500D03*
%TO.P,U303,4,-*%
%TO.N,Net-(U303C--)*%
X88477500Y-33237500D03*
%TO.P,U303,5*%
%TO.N,Net-(U301B-+)*%
X89747500Y-33237500D03*
%TO.P,U303,6,V-*%
%TO.N,-12V*%
X91017500Y-33237500D03*
%TO.P,U303,7*%
%TO.N,unconnected-(U303-Pad7)*%
X92287500Y-33237500D03*
%TO.P,U303,8*%
%TO.N,unconnected-(U303-Pad8)*%
X93557500Y-33237500D03*
%TO.P,U303,9*%
%TO.N,unconnected-(U303-Pad9)*%
X93557500Y-28287500D03*
%TO.P,U303,10*%
%TO.N,unconnected-(U303-Pad10)*%
X92287500Y-28287500D03*
%TO.P,U303,11,V+*%
%TO.N,+12V*%
X91017500Y-28287500D03*
%TO.P,U303,12*%
%TO.N,Net-(U301C-+)*%
X89747500Y-28287500D03*
%TO.P,U303,13,-*%
%TO.N,Net-(U303A--)*%
X88477500Y-28287500D03*
%TO.P,U303,14,+*%
%TO.N,Net-(U303A-+)*%
X87207500Y-28287500D03*
%TO.P,U303,15,DIODE_BIAS*%
%TO.N,unconnected-(U303A-DIODE_BIAS-Pad15)*%
X85937500Y-28287500D03*
%TO.P,U303,16*%
%TO.N,Net-(R306-Pad2)*%
X84667500Y-28287500D03*
%TD*%
D16*
%TO.P,Q301,1,B*%
%TO.N,Net-(Q301-B)*%
X78742500Y-12777501D03*
%TO.P,Q301,2,E*%
%TO.N,Net-(Q301-E)*%
X78742500Y-14677501D03*
%TO.P,Q301,3,C*%
%TO.N,Net-(Q301-C)*%
X80742500Y-13727501D03*
%TD*%
D17*
%TO.P,R425,1*%
%TO.N,Net-(U404B--)*%
X104287500Y-43750000D03*
%TO.P,R425,2*%
%TO.N,Net-(R425-Pad2)*%
X104287500Y-45575000D03*
%TD*%
D11*
%TO.P,R403,1*%
%TO.N,+12V*%
X120312500Y-38437500D03*
%TO.P,R403,2*%
%TO.N,Net-(U404C--)*%
X118487500Y-38437500D03*
%TD*%
D24*
%TO.P,D202,1,K*%
%TO.N,TRI1_FULL*%
X31380000Y-15670000D03*
%TO.P,D202,2,A*%
%TO.N,Net-(D202-A)*%
X28080000Y-15670000D03*
%TD*%
D10*
%TO.P,R215,1*%
%TO.N,Net-(C209-Pad2)*%
X16040000Y-27882500D03*
%TO.P,R215,2*%
%TO.N,Net-(Q202-C)*%
X17865000Y-27882500D03*
%TD*%
%TO.P,R406,1*%
%TO.N,GND*%
X100500000Y-24762500D03*
%TO.P,R406,2*%
%TO.N,Net-(U402A--)*%
X102325000Y-24762500D03*
%TD*%
D21*
%TO.P,C410,1*%
%TO.N,-12V*%
X112187500Y-27562500D03*
%TO.P,C410,2*%
%TO.N,GND*%
X112187500Y-29462500D03*
%TD*%
D20*
%TO.P,C205,1*%
%TO.N,Net-(U203A-P0W)*%
X33380000Y-15820000D03*
%TO.P,C205,2*%
%TO.N,Net-(C205-Pad2)*%
X35280000Y-15820000D03*
%TD*%
D10*
%TO.P,R405,1*%
%TO.N,Net-(C406-Pad2)*%
X100475000Y-21302500D03*
%TO.P,R405,2*%
%TO.N,Net-(U402A--)*%
X102300000Y-21302500D03*
%TD*%
%TO.P,R308,1*%
%TO.N,Net-(U303A--)*%
X85047500Y-21900000D03*
%TO.P,R308,2*%
%TO.N,Net-(U301C--)*%
X86872500Y-21900000D03*
%TD*%
D17*
%TO.P,R409,1*%
%TO.N,Net-(R409-Pad1)*%
X104912500Y-5800000D03*
%TO.P,R409,2*%
%TO.N,Net-(U403A--)*%
X104912500Y-7625000D03*
%TD*%
D11*
%TO.P,R413,1*%
%TO.N,-12V*%
X125575000Y-15962500D03*
%TO.P,R413,2*%
%TO.N,Net-(Q403-E)*%
X123750000Y-15962500D03*
%TD*%
D27*
%TO.P,D206,1,K*%
%TO.N,Net-(D206-K)*%
X14440000Y-8522500D03*
%TO.P,D206,2,A*%
%TO.N,Net-(D206-A)*%
X14440000Y-11822500D03*
%TD*%
D13*
%TO.P,C409,1*%
%TO.N,+12V*%
X111887500Y-17942500D03*
%TO.P,C409,2*%
%TO.N,GND*%
X111887500Y-16042500D03*
%TD*%
D15*
%TO.P,Q403,1,B*%
%TO.N,Net-(Q402-B)*%
X119912500Y-15962500D03*
%TO.P,Q403,2,E*%
%TO.N,Net-(Q403-E)*%
X121812500Y-15962500D03*
%TO.P,Q403,3,C*%
%TO.N,Net-(Q402-C)*%
X120862500Y-13962500D03*
%TD*%
D17*
%TO.P,R306,1*%
%TO.N,Net-(Q302-C)*%
X80162500Y-29850000D03*
%TO.P,R306,2*%
%TO.N,Net-(R306-Pad2)*%
X80162500Y-31675000D03*
%TD*%
D19*
%TO.P,U206,1*%
%TO.N,Net-(D206-A)*%
X18467500Y-10502500D03*
%TO.P,U206,2,-*%
%TO.N,PWM_2_CV*%
X18467500Y-11772500D03*
%TO.P,U206,3,+*%
%TO.N,SAW2_FULL*%
X18467500Y-13042500D03*
%TO.P,U206,4,V-*%
%TO.N,-12V*%
X18467500Y-14312500D03*
%TO.P,U206,5,+*%
%TO.N,SAW1_FULL*%
X23417500Y-14312500D03*
%TO.P,U206,6,-*%
%TO.N,PWM_1_CV*%
X23417500Y-13042500D03*
%TO.P,U206,7*%
%TO.N,Net-(D205-A)*%
X23417500Y-11772500D03*
%TO.P,U206,8,V+*%
%TO.N,+12V*%
X23417500Y-10502500D03*
%TD*%
D20*
%TO.P,C408,1*%
%TO.N,-12V*%
X114840000Y-9910000D03*
%TO.P,C408,2*%
%TO.N,GND*%
X116740000Y-9910000D03*
%TD*%
D14*
%TO.P,R315,1*%
%TO.N,Net-(D301-A)*%
X94462500Y-12715000D03*
%TO.P,R315,2*%
%TO.N,Net-(D301-K)*%
X94462500Y-10890000D03*
%TD*%
D13*
%TO.P,C201,1*%
%TO.N,Net-(Q201-E)*%
X39952500Y-32282500D03*
%TO.P,C201,2*%
%TO.N,Net-(C201-Pad2)*%
X39952500Y-30382500D03*
%TD*%
D24*
%TO.P,D201,1,K*%
%TO.N,TRI1_FULL*%
X31070000Y-18130000D03*
%TO.P,D201,2,A*%
%TO.N,Net-(D201-A)*%
X27770000Y-18130000D03*
%TD*%
D13*
%TO.P,C311,1*%
%TO.N,+12V*%
X91750000Y-25990000D03*
%TO.P,C311,2*%
%TO.N,GND*%
X91750000Y-24090000D03*
%TD*%
D10*
%TO.P,R418,1*%
%TO.N,Net-(R418-Pad1)*%
X112700000Y-2612500D03*
%TO.P,R418,2*%
%TO.N,Net-(U403D--)*%
X114525000Y-2612500D03*
%TD*%
D15*
%TO.P,Q405,1,B*%
%TO.N,Net-(Q404-B)*%
X119997500Y-7417500D03*
%TO.P,Q405,2,E*%
%TO.N,Net-(Q405-E)*%
X121897500Y-7417500D03*
%TO.P,Q405,3,C*%
%TO.N,Net-(Q404-C)*%
X120947500Y-5417500D03*
%TD*%
%TO.P,Q402,1,B*%
%TO.N,Net-(Q402-B)*%
X119927500Y-20037501D03*
%TO.P,Q402,2,E*%
%TO.N,Net-(Q402-E)*%
X121827500Y-20037501D03*
%TO.P,Q402,3,C*%
%TO.N,Net-(Q402-C)*%
X120877500Y-18037501D03*
%TD*%
D10*
%TO.P,R404,1*%
%TO.N,Net-(Q401-E)*%
X124575000Y-43312500D03*
%TO.P,R404,2*%
%TO.N,GND*%
X126400000Y-43312500D03*
%TD*%
D20*
%TO.P,C405,1*%
%TO.N,Net-(U404C--)*%
X119400000Y-43440000D03*
%TO.P,C405,2*%
%TO.N,Net-(Q401-E)*%
X121300000Y-43440000D03*
%TD*%
D10*
%TO.P,R414,1*%
%TO.N,Net-(U403C--)*%
X114800000Y-17737500D03*
%TO.P,R414,2*%
%TO.N,Net-(Q402-C)*%
X116625000Y-17737500D03*
%TD*%
D28*
%TO.P,D301,1,K*%
%TO.N,Net-(D301-K)*%
X98812500Y-10875000D03*
%TO.P,D301,2,A*%
%TO.N,Net-(D301-A)*%
X98812500Y-12750000D03*
%TD*%
D10*
%TO.P,R411,1*%
%TO.N,Net-(U403B-+)*%
X101000000Y-4342500D03*
%TO.P,R411,2*%
%TO.N,GND*%
X102825000Y-4342500D03*
%TD*%
D14*
%TO.P,R236,1*%
%TO.N,Net-(R218-Pad2)*%
X3400000Y-18622500D03*
%TO.P,R236,2*%
%TO.N,TRI2_FULL*%
X3400000Y-16797500D03*
%TD*%
D10*
%TO.P,R420,1*%
%TO.N,FOLDER_OUT*%
X74525000Y-22312500D03*
%TO.P,R420,2*%
%TO.N,Net-(R420-Pad2)*%
X76350000Y-22312500D03*
%TD*%
D14*
%TO.P,R305,1*%
%TO.N,Net-(U303C-+)*%
X78787500Y-37750000D03*
%TO.P,R305,2*%
%TO.N,Net-(U301C--)*%
X78787500Y-35925000D03*
%TD*%
%TO.P,R316,1*%
%TO.N,GND*%
X96677500Y-16365000D03*
%TO.P,R316,2*%
%TO.N,Net-(D301-A)*%
X96677500Y-14540000D03*
%TD*%
D19*
%TO.P,U301,1*%
%TO.N,Net-(C301-Pad1)*%
X86662500Y-11202500D03*
%TO.P,U301,2,-*%
%TO.N,Net-(Q301-C)*%
X86662500Y-12472500D03*
%TO.P,U301,3,+*%
%TO.N,GND*%
X86662500Y-13742500D03*
%TO.P,U301,4,V+*%
%TO.N,+12V*%
X86662500Y-15012500D03*
%TO.P,U301,5,+*%
%TO.N,Net-(U301B-+)*%
X86662500Y-16282500D03*
%TO.P,U301,6,-*%
%TO.N,Net-(U301B--)*%
X86662500Y-17552500D03*
%TO.P,U301,7*%
X86662500Y-18822500D03*
%TO.P,U301,8*%
%TO.N,Net-(U301C--)*%
X91612500Y-18822500D03*
%TO.P,U301,9,-*%
X91612500Y-17552500D03*
%TO.P,U301,10,+*%
%TO.N,Net-(U301C-+)*%
X91612500Y-16282500D03*
%TO.P,U301,11,V-*%
%TO.N,-12V*%
X91612500Y-15012500D03*
%TO.P,U301,12,+*%
%TO.N,Net-(U301D-+)*%
X91612500Y-13742500D03*
%TO.P,U301,13,-*%
%TO.N,Net-(D301-A)*%
X91612500Y-12472500D03*
%TO.P,U301,14*%
%TO.N,Net-(D301-K)*%
X91612500Y-11202500D03*
%TD*%
D11*
%TO.P,R227,1*%
%TO.N,SAW2_FULL*%
X17400000Y-37987500D03*
%TO.P,R227,2*%
%TO.N,Net-(U202A--)*%
X15575000Y-37987500D03*
%TD*%
D17*
%TO.P,R310,1*%
%TO.N,GND*%
X84762500Y-24100000D03*
%TO.P,R310,2*%
%TO.N,Net-(U303A-+)*%
X84762500Y-25925000D03*
%TD*%
D14*
%TO.P,R312,1*%
%TO.N,Net-(U303C--)*%
X96962500Y-29425000D03*
%TO.P,R312,2*%
%TO.N,Net-(U301B--)*%
X96962500Y-27600000D03*
%TD*%
D21*
%TO.P,C309,1*%
%TO.N,-12V*%
X94477500Y-14502500D03*
%TO.P,C309,2*%
%TO.N,GND*%
X94477500Y-16402500D03*
%TD*%
D17*
%TO.P,R307,1*%
%TO.N,Net-(Q302-C)*%
X76637500Y-29875000D03*
%TO.P,R307,2*%
%TO.N,Net-(R307-Pad2)*%
X76637500Y-31700000D03*
%TD*%
D11*
%TO.P,R429,1*%
%TO.N,Net-(R425-Pad2)*%
X101755000Y-43972500D03*
%TO.P,R429,2*%
%TO.N,VCA_OUT*%
X99930000Y-43972500D03*
%TD*%
D17*
%TO.P,R205,1*%
%TO.N,GND*%
X37810000Y-31217500D03*
%TO.P,R205,2*%
%TO.N,Net-(C202-Pad2)*%
X37810000Y-33042500D03*
%TD*%
D19*
%TO.P,U403,1*%
%TO.N,Net-(R409-Pad1)*%
X107537500Y-6102500D03*
%TO.P,U403,2,-*%
%TO.N,Net-(U403A--)*%
X107537500Y-7372500D03*
%TO.P,U403,3,+*%
%TO.N,GND*%
X107537500Y-8642500D03*
%TO.P,U403,4,V+*%
%TO.N,+12V*%
X107537500Y-9912500D03*
%TO.P,U403,5,+*%
%TO.N,Net-(U403B-+)*%
X107537500Y-11182500D03*
%TO.P,U403,6,-*%
%TO.N,Net-(Q402-B)*%
X107537500Y-12452500D03*
%TO.P,U403,7*%
X107537500Y-13722500D03*
%TO.P,U403,8*%
%TO.N,Net-(Q404-B)*%
X112487500Y-13722500D03*
%TO.P,U403,9,-*%
%TO.N,Net-(U403C--)*%
X112487500Y-12452500D03*
%TO.P,U403,10,+*%
%TO.N,GND*%
X112487500Y-11182500D03*
%TO.P,U403,11,V-*%
%TO.N,-12V*%
X112487500Y-9912500D03*
%TO.P,U403,12,+*%
%TO.N,GND*%
X112487500Y-8642500D03*
%TO.P,U403,13,-*%
%TO.N,Net-(U403D--)*%
X112487500Y-7372500D03*
%TO.P,U403,14*%
%TO.N,Net-(R420-Pad2)*%
X112487500Y-6102500D03*
%TD*%
D10*
%TO.P,R416,1*%
%TO.N,Net-(Q404-E)*%
X123835000Y-10917500D03*
%TO.P,R416,2*%
%TO.N,+12V*%
X125660000Y-10917500D03*
%TD*%
D14*
%TO.P,R421,1*%
%TO.N,Net-(U404A--)*%
X96837500Y-37375000D03*
%TO.P,R421,2*%
%TO.N,Net-(Q406-E)*%
X96837500Y-35550000D03*
%TD*%
D20*
%TO.P,C414,1*%
%TO.N,VCA_IN*%
X102612500Y-33112500D03*
%TO.P,C414,2*%
%TO.N,Net-(C414-Pad2)*%
X104512500Y-33112500D03*
%TD*%
D14*
%TO.P,R401,1*%
%TO.N,Net-(U404C--)*%
X115212500Y-42800000D03*
%TO.P,R401,2*%
%TO.N,Net-(Q401-E)*%
X115212500Y-40975000D03*
%TD*%
D11*
%TO.P,R206,1*%
%TO.N,Net-(Q201-B)*%
X41675000Y-34262500D03*
%TO.P,R206,2*%
%TO.N,Net-(C202-Pad2)*%
X39850000Y-34262500D03*
%TD*%
D24*
%TO.P,D204,1,K*%
%TO.N,TRI2_FULL*%
X8877500Y-16430000D03*
%TO.P,D204,2,A*%
%TO.N,Net-(D204-A)*%
X5577500Y-16430000D03*
%TD*%
D21*
%TO.P,C310,1*%
%TO.N,-12V*%
X91010000Y-35560000D03*
%TO.P,C310,2*%
%TO.N,GND*%
X91010000Y-37460000D03*
%TD*%
D14*
%TO.P,R223,1*%
%TO.N,PULSE2_FULL*%
X8457500Y-10354999D03*
%TO.P,R223,2*%
%TO.N,GND*%
X8457500Y-8529999D03*
%TD*%
%TO.P,R201,1*%
%TO.N,Net-(U201C-+)*%
X25937500Y-24675000D03*
%TO.P,R201,2*%
%TO.N,Net-(U201D--)*%
X25937500Y-22850000D03*
%TD*%
D11*
%TO.P,R221,1*%
%TO.N,GND*%
X17865000Y-22882500D03*
%TO.P,R221,2*%
%TO.N,Net-(U202C--)*%
X16040000Y-22882500D03*
%TD*%
D10*
%TO.P,R208,1*%
%TO.N,-12V*%
X29530000Y-12817500D03*
%TO.P,R208,2*%
%TO.N,TRI1_FULL*%
X31355000Y-12817500D03*
%TD*%
D18*
%TO.P,C202,1*%
%TO.N,CLK_1*%
X41712500Y-36587500D03*
%TO.P,C202,2*%
%TO.N,Net-(C202-Pad2)*%
X39812500Y-36587500D03*
%TD*%
D10*
%TO.P,R419,1*%
%TO.N,Net-(U403D--)*%
X114850000Y-6362500D03*
%TO.P,R419,2*%
%TO.N,Net-(Q404-C)*%
X116675000Y-6362500D03*
%TD*%
D18*
%TO.P,C204,1*%
%TO.N,SAW2_FULL*%
X21610000Y-20610000D03*
%TO.P,C204,2*%
%TO.N,Net-(U202C-+)*%
X19710000Y-20610000D03*
%TD*%
D17*
%TO.P,R428,1*%
%TO.N,Net-(U402C--)*%
X106262500Y-27600000D03*
%TO.P,R428,2*%
%TO.N,Net-(C414-Pad2)*%
X106262500Y-29425000D03*
%TD*%
D16*
%TO.P,Q302,1,B*%
%TO.N,GND*%
X74862500Y-12777500D03*
%TO.P,Q302,2,E*%
%TO.N,Net-(Q301-E)*%
X74862500Y-14677500D03*
%TO.P,Q302,3,C*%
%TO.N,Net-(Q302-C)*%
X76862500Y-13727500D03*
%TD*%
D14*
%TO.P,R214,1*%
%TO.N,LEVEL_2_CV*%
X12752500Y-32095000D03*
%TO.P,R214,2*%
%TO.N,Net-(Q202-E)*%
X12752500Y-30270000D03*
%TD*%
D13*
%TO.P,C305,1*%
%TO.N,Net-(U301B--)*%
X92327500Y-8727500D03*
%TO.P,C305,2*%
%TO.N,FILTER_OUT*%
X92327500Y-6827500D03*
%TD*%
D10*
%TO.P,R412,1*%
%TO.N,Net-(Q402-E)*%
X123750000Y-20712500D03*
%TO.P,R412,2*%
%TO.N,+12V*%
X125575000Y-20712500D03*
%TD*%
D29*
%TO.N,Net-(Q201-E)*%
X42480000Y-25430000D03*
X42680000Y-30070000D03*
%TO.N,Net-(C201-Pad2)*%
X39380000Y-26920000D03*
X32250000Y-34140000D03*
%TO.N,CLK_1*%
X36890000Y-35520000D03*
X43290000Y-35470000D03*
X40940000Y-45060000D03*
%TO.N,SAW1_FULL*%
X21460000Y-14310000D03*
X21840000Y-17690000D03*
X27820000Y-27337500D03*
X48550000Y-14940000D03*
X41500000Y-26300000D03*
%TO.N,Net-(C205-Pad2)*%
X46210000Y-15410000D03*
%TO.N,GND*%
X58030000Y-14980000D03*
X61560000Y-43570000D03*
X25060000Y-29450000D03*
X109970000Y-28170000D03*
X80000000Y-6110000D03*
X118030000Y-9920000D03*
X99080000Y-25120000D03*
X37580000Y-14240000D03*
X37820000Y-29800000D03*
X34980000Y-10640000D03*
X24050000Y-5640000D03*
X102100000Y-9900000D03*
X67820000Y-7340000D03*
X4400000Y-31480000D03*
X113370000Y-16080000D03*
X73430000Y-9350000D03*
X86580000Y-24140000D03*
X70580000Y-31050000D03*
X42550000Y-23780000D03*
X83860000Y-37750000D03*
X50410000Y-14950000D03*
X10970000Y-16770000D03*
X91750000Y-22750000D03*
X85910000Y-9110000D03*
X11530000Y-34920000D03*
X97420000Y-32180000D03*
X109530000Y-37860000D03*
X127720000Y-42630000D03*
X62170000Y-24570000D03*
X115190000Y-35300000D03*
X53450500Y-25820000D03*
X90610000Y-7780000D03*
X103770000Y-39040000D03*
X58220000Y-32510000D03*
X73540000Y-11960000D03*
X7090000Y-8540000D03*
X53088307Y-13341693D03*
X102820000Y-1710000D03*
X34470000Y-36570000D03*
X70840000Y-15810000D03*
X114790000Y-29500000D03*
X80480000Y-17030000D03*
X101340000Y-17400000D03*
X50720000Y-30960000D03*
X109470000Y-40410000D03*
X53860000Y-20050000D03*
X66420000Y-23070000D03*
X71870000Y-37290000D03*
X18300000Y-19190000D03*
X50510000Y-38230000D03*
X35370000Y-25980000D03*
X95550000Y-17770000D03*
X52650000Y-36040000D03*
X55249500Y-23310000D03*
X50170000Y-9240000D03*
X46150000Y-23080000D03*
X90980000Y-38750000D03*
X73880000Y-19560000D03*
X87890000Y-39050000D03*
X58310000Y-38240000D03*
X90030000Y-1610000D03*
X33410000Y-17280000D03*
X17860000Y-21160000D03*
X111250000Y-40350000D03*
X57230000Y-7560000D03*
X60290000Y-29140000D03*
%TO.N,+12V*%
X34510000Y-33490000D03*
X67930000Y-8810000D03*
X121630000Y-38440000D03*
X91600000Y-29890000D03*
X67690000Y-27440000D03*
X105640000Y-38890000D03*
X127140000Y-19760000D03*
X21620000Y-10550000D03*
X125690000Y-12600000D03*
X9140000Y-30990000D03*
X48560000Y-25730000D03*
X81340000Y-15960000D03*
X111910000Y-21760000D03*
X105350000Y-11340000D03*
%TO.N,-12V*%
X101670000Y-30550000D03*
X10200000Y-24680000D03*
X90050000Y-15070000D03*
X110430000Y-31320000D03*
X33400000Y-24460000D03*
X74940000Y-18150000D03*
X95590000Y-32540000D03*
%TO.N,CLK_2*%
X28290000Y-42350000D03*
X28290000Y-44510000D03*
%TO.N,SAW2_FULL*%
X5570000Y-29650000D03*
X20620000Y-19120000D03*
X38030000Y-37800000D03*
X19240000Y-37750000D03*
X16740000Y-13060000D03*
X54870000Y-34110000D03*
D30*
%TO.N,+3.3V*%
X94470000Y-4820000D03*
X83410000Y-4790000D03*
X54640000Y-12200000D03*
D29*
%TO.N,Net-(U301B--)*%
X90030000Y-20520000D03*
X87390000Y-20090000D03*
%TO.N,FILTER_OUT*%
X67980000Y-12580000D03*
X95810000Y-5640000D03*
X87690000Y-9330000D03*
X67660000Y-24520000D03*
%TO.N,Net-(U301C-+)*%
X94790000Y-25730000D03*
X95360000Y-19970000D03*
%TO.N,HP_IN*%
X69510000Y-15080000D03*
%TO.N,Net-(Q401-E)*%
X117100000Y-41720000D03*
X122940000Y-43390000D03*
%TO.N,FOLDER_IN*%
X63440000Y-13880000D03*
X80770000Y-3500000D03*
X63420000Y-25990000D03*
%TO.N,VCA_IN*%
X68120000Y-35750000D03*
X103720000Y-34330000D03*
X63590000Y-30400000D03*
X73810000Y-38500000D03*
X64370000Y-12430000D03*
%TO.N,Net-(D202-A)*%
X26310000Y-16780000D03*
X38070000Y-21890000D03*
%TO.N,Net-(D203-A)*%
X14030000Y-21210000D03*
X7210000Y-12580000D03*
D31*
%TO.N,SDA*%
X52980000Y-40140000D03*
X54630000Y-6560000D03*
X54610000Y-1590000D03*
%TO.N,SCL*%
X54640000Y-40140000D03*
X52060000Y-1590000D03*
X53410000Y-4580000D03*
X58550000Y-4990000D03*
X53410000Y-7560000D03*
%TO.N,FOLD_FIRST*%
X66180000Y-35610000D03*
%TO.N,HP_MODE*%
X66340000Y-16790000D03*
%TO.N,LEVEL_2_CV*%
X17540000Y-35150000D03*
X25670000Y-44170000D03*
X12760000Y-33690000D03*
%TO.N,PWM_1_CV*%
X2220000Y-20530000D03*
X17300000Y-45410000D03*
X20660000Y-11140000D03*
%TO.N,PWM_2_CV*%
X35260000Y-41820000D03*
%TO.N,CUTOFF_CV*%
X61960000Y-35980000D03*
%TO.N,FOLD_CV*%
X62600000Y-42850000D03*
X69550000Y-41540000D03*
X113870000Y-44310000D03*
%TO.N,VCA_CV*%
X86230000Y-40970000D03*
X98360000Y-41330000D03*
D29*
%TO.N,Net-(Q302-C)*%
X76220000Y-12460000D03*
X79580000Y-27910000D03*
%TO.N,Net-(Q402-B)*%
X119910000Y-21120000D03*
X107530000Y-15050000D03*
%TO.N,Net-(Q404-B)*%
X118022500Y-13352500D03*
X110830000Y-13740000D03*
%TO.N,Net-(Q406-C)*%
X101420000Y-37490000D03*
X100550000Y-28570000D03*
%TO.N,TRI1_FULL*%
X36200000Y-18810000D03*
X44620000Y-15890000D03*
X30020000Y-18120000D03*
%TO.N,TRI2_FULL*%
X55920000Y-36710000D03*
X15340000Y-44480000D03*
X16060000Y-16660000D03*
X46690000Y-41180000D03*
X10460000Y-14360000D03*
%TO.N,PULSE2_FULL*%
X4200000Y-10320000D03*
X45710000Y-36440000D03*
X48520000Y-33970000D03*
%TO.N,PULSE1_FULL*%
X50790000Y-6410000D03*
X55578630Y-10560383D03*
X45390000Y-8920000D03*
%TO.N,Net-(U203A-P0W)*%
X56590000Y-13480000D03*
%TO.N,Net-(U205A-P0W)*%
X46070000Y-26970000D03*
X51830000Y-30180000D03*
%TO.N,Net-(R241-Pad2)*%
X56970000Y-16590000D03*
X51837500Y-19810000D03*
X64020000Y-20650000D03*
X60190000Y-18700000D03*
%TO.N,Net-(U301C--)*%
X87970000Y-21890000D03*
X78810000Y-34530000D03*
%TO.N,LP_IN*%
X80580000Y-22560000D03*
%TO.N,Net-(R408-Pad1)*%
X120310000Y-32320000D03*
X104070000Y-19920000D03*
%TO.N,FOLDER_OUT*%
X67780000Y-29097500D03*
%TO.N,Net-(U404B--)*%
X110370000Y-42950000D03*
X110660000Y-23160000D03*
%TO.N,Net-(U301D-+)*%
X89650000Y-11490000D03*
%TO.N,FILTER_IN*%
X69080000Y-9840000D03*
X68730000Y-30270000D03*
%TO.N,Net-(U201A--)*%
X29940000Y-25740000D03*
X23220000Y-25880000D03*
%TO.N,Net-(R420-Pad2)*%
X107340000Y-2590000D03*
X75100000Y-20500000D03*
X110900000Y-6100000D03*
%TD*%
D32*
%TO.N,Net-(Q201-E)*%
X39952500Y-32282500D02*
X40247500Y-32282500D01*
X42680000Y-30070000D02*
X44680000Y-30070000D01*
X35662500Y-28137500D02*
X35942500Y-27857500D01*
X44680000Y-30070000D02*
X45670000Y-31060000D01*
X35662500Y-30250000D02*
X35662500Y-28137500D01*
X37630000Y-25430000D02*
X42480000Y-25430000D01*
X35942500Y-27117500D02*
X36790000Y-26270000D01*
X40247500Y-32282500D02*
X42460000Y-30070000D01*
X42460000Y-30070000D02*
X42680000Y-30070000D01*
X36790000Y-26270000D02*
X37630000Y-25430000D01*
X35942500Y-27857500D02*
X35942500Y-27117500D01*
%TO.N,Net-(C201-Pad2)*%
X37212500Y-27857500D02*
X37737500Y-28382500D01*
X37737500Y-28382500D02*
X39390000Y-28382500D01*
X28952500Y-32095000D02*
X30997500Y-34140000D01*
X30997500Y-34140000D02*
X32250000Y-34140000D01*
X39380000Y-28372500D02*
X39390000Y-28382500D01*
X39380000Y-26920000D02*
X39380000Y-28372500D01*
X39390000Y-28382500D02*
X39390000Y-29820000D01*
X39390000Y-29820000D02*
X39952500Y-30382500D01*
%TO.N,CLK_1*%
X36320000Y-39140000D02*
X36320000Y-36090000D01*
X37620000Y-40440000D02*
X36320000Y-39140000D01*
X42172500Y-36587500D02*
X43290000Y-35470000D01*
X36320000Y-36090000D02*
X36890000Y-35520000D01*
X41712500Y-36587500D02*
X42172500Y-36587500D01*
X40940000Y-45060000D02*
X40940000Y-43760000D01*
X40940000Y-43760000D02*
X37620000Y-40440000D01*
%TO.N,Net-(C202-Pad2)*%
X39030000Y-34262500D02*
X39850000Y-34262500D01*
X39850000Y-36550000D02*
X39812500Y-36587500D01*
X39850000Y-34262500D02*
X39850000Y-36550000D01*
X37810000Y-33042500D02*
X39030000Y-34262500D01*
%TO.N,SAW1_FULL*%
X27470000Y-28980000D02*
X27470000Y-30550000D01*
X30342500Y-31272500D02*
X31202500Y-32132500D01*
X26450000Y-27337500D02*
X26450000Y-27190000D01*
X21460000Y-14310000D02*
X23415000Y-14310000D01*
X27470000Y-30550000D02*
X28192500Y-31272500D01*
X29072500Y-27337500D02*
X29592500Y-27857500D01*
X48550000Y-14940000D02*
X48550000Y-21810000D01*
X23720000Y-24460000D02*
X23720000Y-19570000D01*
X26450000Y-27337500D02*
X27820000Y-27337500D01*
X29000000Y-28450000D02*
X28000000Y-28450000D01*
X28192500Y-31272500D02*
X30342500Y-31272500D01*
X43490000Y-26870000D02*
X42070000Y-26870000D01*
X48550000Y-21810000D02*
X43490000Y-26870000D01*
X23415000Y-14310000D02*
X23417500Y-14312500D01*
X42070000Y-26870000D02*
X41500000Y-26300000D01*
X26450000Y-27190000D02*
X23720000Y-24460000D01*
X28000000Y-28450000D02*
X27470000Y-28980000D01*
X27820000Y-27337500D02*
X29072500Y-27337500D01*
X29592500Y-27857500D02*
X29000000Y-28450000D01*
X23720000Y-19570000D02*
X21840000Y-17690000D01*
%TO.N,Net-(U201C-+)*%
X32220000Y-25360000D02*
X31472500Y-26107500D01*
X31472500Y-26107500D02*
X31472500Y-29962500D01*
X38770000Y-16900000D02*
X36240000Y-16900000D01*
X34672500Y-24937500D02*
X34250000Y-25360000D01*
X39415000Y-16255000D02*
X38770000Y-16900000D01*
X39415000Y-15832500D02*
X39415000Y-16255000D01*
X34670000Y-22905000D02*
X34672500Y-22907500D01*
X31780000Y-24920000D02*
X32220000Y-25360000D01*
X34672500Y-22907500D02*
X34672500Y-24937500D01*
X34250000Y-25360000D02*
X32220000Y-25360000D01*
X34670000Y-18470000D02*
X34670000Y-22905000D01*
X36240000Y-16900000D02*
X34670000Y-18470000D01*
X26182500Y-24920000D02*
X31780000Y-24920000D01*
X31472500Y-29962500D02*
X31202500Y-30232500D01*
X25937500Y-24675000D02*
X26182500Y-24920000D01*
%TO.N,Net-(U202C-+)*%
X11472500Y-23642500D02*
X12630000Y-24800000D01*
X3950000Y-25972500D02*
X4452500Y-25470000D01*
X11960000Y-25470000D02*
X12630000Y-24800000D01*
X18310000Y-24800000D02*
X19710000Y-23400000D01*
X3957500Y-25980000D02*
X3950000Y-25972500D01*
X12630000Y-24800000D02*
X18310000Y-24800000D01*
X19710000Y-23400000D02*
X19710000Y-20610000D01*
X11472500Y-22907500D02*
X11472500Y-23642500D01*
X4452500Y-25470000D02*
X11960000Y-25470000D01*
X3957500Y-28255000D02*
X3957500Y-25980000D01*
%TO.N,Net-(C205-Pad2)*%
X36270000Y-13440000D02*
X36480000Y-13230000D01*
X44030000Y-13230000D02*
X46210000Y-15410000D01*
X35280000Y-15820000D02*
X35280000Y-14430000D01*
X35280000Y-14430000D02*
X36270000Y-13440000D01*
X36480000Y-13230000D02*
X44030000Y-13230000D01*
D33*
%TO.N,GND*%
X103762500Y-39047500D02*
X103770000Y-39040000D01*
D32*
X102110000Y-9910000D02*
X102100000Y-9900000D01*
X82287500Y-37762500D02*
X83847500Y-37762500D01*
X107640000Y-28602500D02*
X104935000Y-28602500D01*
X91010000Y-38720000D02*
X90980000Y-38750000D01*
X3957500Y-30080000D02*
X3957500Y-31037500D01*
X3957500Y-31037500D02*
X4400000Y-31480000D01*
X73432500Y-9352500D02*
X73430000Y-9350000D01*
D33*
X107912500Y-40382500D02*
X109442500Y-40382500D01*
D32*
X108715000Y-29425000D02*
X109970000Y-28170000D01*
D33*
X103762500Y-40512500D02*
X103762500Y-39047500D01*
D32*
X34672500Y-26677500D02*
X35370000Y-25980000D01*
X86620000Y-24100000D02*
X86580000Y-24140000D01*
X87837500Y-37775000D02*
X87837500Y-38997500D01*
X37590000Y-15832500D02*
X37590000Y-14250000D01*
X33402500Y-18482500D02*
X33402500Y-17287500D01*
X111887500Y-16042500D02*
X113332500Y-16042500D01*
X102750000Y-17412500D02*
X101352500Y-17412500D01*
X88162500Y-24100000D02*
X86620000Y-24100000D01*
X8932500Y-27857500D02*
X8932500Y-26927500D01*
X91750000Y-24090000D02*
X91750000Y-22750000D01*
X61217500Y-45347500D02*
X61217500Y-43912500D01*
X112187500Y-29462500D02*
X114752500Y-29462500D01*
X74687501Y-12602501D02*
X74862500Y-12777500D01*
X100500000Y-24762500D02*
X99437500Y-24762500D01*
X9710000Y-26150000D02*
X10710000Y-26150000D01*
X102825000Y-4342500D02*
X102825000Y-1715000D01*
X113332500Y-16042500D02*
X113370000Y-16080000D01*
X41652500Y-22882500D02*
X42550000Y-23780000D01*
X11472500Y-30862500D02*
X10202500Y-32132500D01*
D33*
X126400000Y-43312500D02*
X127037500Y-43312500D01*
D32*
X32720000Y-26160000D02*
X33330538Y-26160000D01*
X34672500Y-27501962D02*
X34672500Y-27857500D01*
X118020000Y-9910000D02*
X118030000Y-9920000D01*
X35042500Y-10702500D02*
X34980000Y-10640000D01*
X33402500Y-32132500D02*
X33402500Y-35502500D01*
X32132500Y-26747500D02*
X32720000Y-26160000D01*
X104707500Y-8642500D02*
X103440000Y-9910000D01*
X10202500Y-33592500D02*
X11530000Y-34920000D01*
D33*
X112862500Y-40382500D02*
X111282500Y-40382500D01*
D32*
X107537500Y-8642500D02*
X104707500Y-8642500D01*
X32132500Y-22907500D02*
X32132500Y-19752500D01*
X103440000Y-9910000D02*
X102110000Y-9910000D01*
X18467500Y-18037500D02*
X18467500Y-19022500D01*
X41215000Y-22882500D02*
X41652500Y-22882500D01*
X112487500Y-8642500D02*
X115472500Y-8642500D01*
X74687501Y-9352500D02*
X74687501Y-12602501D01*
X17865000Y-22882500D02*
X17865000Y-21165000D01*
X87947500Y-10807500D02*
X86250000Y-9110000D01*
X115472500Y-8642500D02*
X116740000Y-9910000D01*
X37590000Y-14250000D02*
X37580000Y-14240000D01*
X115467500Y-11182500D02*
X116740000Y-9910000D01*
X37120000Y-10702500D02*
X35042500Y-10702500D01*
D33*
X115187500Y-35302500D02*
X115190000Y-35300000D01*
D32*
X24042500Y-6912500D02*
X24042500Y-5647500D01*
X33402500Y-35502500D02*
X34470000Y-36570000D01*
X86540000Y-24100000D02*
X84762500Y-24100000D01*
D33*
X107912500Y-37842500D02*
X109512500Y-37842500D01*
D32*
X82850000Y-17030000D02*
X83002500Y-16877500D01*
X17865000Y-21165000D02*
X17860000Y-21160000D01*
X10202500Y-17537500D02*
X10970000Y-16770000D01*
X10710000Y-26150000D02*
X11472500Y-26912500D01*
X97950000Y-31650000D02*
X97420000Y-32180000D01*
X8457500Y-8529999D02*
X7100001Y-8529999D01*
X104935000Y-28602500D02*
X104112500Y-29425000D01*
X116740000Y-9910000D02*
X118020000Y-9910000D01*
X80480000Y-17030000D02*
X82850000Y-17030000D01*
X99437500Y-24762500D02*
X99080000Y-25120000D01*
X33330538Y-26160000D02*
X34672500Y-27501962D01*
D33*
X127037500Y-43312500D02*
X127720000Y-42630000D01*
D32*
X94477500Y-16402500D02*
X94477500Y-16697500D01*
X94515000Y-16365000D02*
X94477500Y-16402500D01*
X74687501Y-9352500D02*
X73432500Y-9352500D01*
X33402500Y-17287500D02*
X33410000Y-17280000D01*
X8932500Y-22907500D02*
X8932500Y-20002500D01*
X7100001Y-8529999D02*
X7090000Y-8540000D01*
X87837500Y-38997500D02*
X87890000Y-39050000D01*
X102825000Y-1715000D02*
X102820000Y-1710000D01*
X87947500Y-13502500D02*
X87947500Y-10807500D01*
X34672500Y-27857500D02*
X34672500Y-26677500D01*
X37810000Y-31217500D02*
X37810000Y-29810000D01*
D33*
X109442500Y-40382500D02*
X109470000Y-40410000D01*
D32*
X24042500Y-5647500D02*
X24050000Y-5640000D01*
X37810000Y-29810000D02*
X37820000Y-29800000D01*
D33*
X112862500Y-37842500D02*
X114182500Y-37842500D01*
D32*
X108462500Y-29425000D02*
X108715000Y-29425000D01*
X18467500Y-19022500D02*
X18300000Y-19190000D01*
X61217500Y-43912500D02*
X61560000Y-43570000D01*
X11472500Y-26912500D02*
X11472500Y-27857500D01*
X8932500Y-20002500D02*
X10202500Y-18732500D01*
X10202500Y-18732500D02*
X10202500Y-17537500D01*
X114752500Y-29462500D02*
X114790000Y-29500000D01*
X32132500Y-27857500D02*
X32132500Y-26747500D01*
X11472500Y-27857500D02*
X11472500Y-30862500D01*
X87707500Y-13742500D02*
X87947500Y-13502500D01*
X91010000Y-37460000D02*
X91010000Y-38720000D01*
X8932500Y-26927500D02*
X9710000Y-26150000D01*
X86250000Y-9110000D02*
X85910000Y-9110000D01*
X10202500Y-32132500D02*
X10202500Y-33592500D01*
X108462500Y-29425000D02*
X107640000Y-28602500D01*
X101352500Y-17412500D02*
X101340000Y-17400000D01*
X25037500Y-30800000D02*
X25037500Y-29472500D01*
X112487500Y-11182500D02*
X115467500Y-11182500D01*
D33*
X111282500Y-40382500D02*
X111250000Y-40350000D01*
D32*
X86662500Y-13742500D02*
X87707500Y-13742500D01*
X83847500Y-37762500D02*
X83860000Y-37750000D01*
D33*
X115187500Y-36837500D02*
X115187500Y-35302500D01*
D32*
X86580000Y-24140000D02*
X86540000Y-24100000D01*
X96677500Y-16365000D02*
X94515000Y-16365000D01*
D33*
X114182500Y-37842500D02*
X115187500Y-36837500D01*
D32*
X32132500Y-19752500D02*
X33402500Y-18482500D01*
D33*
X109512500Y-37842500D02*
X109530000Y-37860000D01*
D32*
X99087500Y-31650000D02*
X97950000Y-31650000D01*
X94477500Y-16697500D02*
X95550000Y-17770000D01*
X25037500Y-29472500D02*
X25060000Y-29450000D01*
D34*
%TO.N,+12V*%
X125575000Y-20712500D02*
X126187500Y-20712500D01*
X111917500Y-17972500D02*
X111887500Y-17942500D01*
D33*
X120312500Y-38437500D02*
X121627500Y-38437500D01*
D34*
X23417500Y-10502500D02*
X23417500Y-9437500D01*
X33402500Y-27857500D02*
X33402500Y-30232500D01*
D33*
X82322500Y-14977500D02*
X81340000Y-15960000D01*
D34*
X125660000Y-10917500D02*
X125660000Y-12570000D01*
D33*
X83037500Y-15012500D02*
X83002500Y-14977500D01*
D34*
X10202500Y-30232500D02*
X9897500Y-30232500D01*
X111917500Y-20242500D02*
X111917500Y-21752500D01*
X107062500Y-39112500D02*
X105662500Y-40512500D01*
X21667500Y-10502500D02*
X21620000Y-10550000D01*
X111917500Y-20242500D02*
X111917500Y-17972500D01*
X105340000Y-9910000D02*
X105350000Y-9920000D01*
D33*
X91017500Y-26722500D02*
X91017500Y-28287500D01*
D34*
X33402500Y-30232500D02*
X33492500Y-30232500D01*
X105662500Y-38912500D02*
X105640000Y-38890000D01*
X105350000Y-9920000D02*
X105350000Y-11340000D01*
X9897500Y-30232500D02*
X9140000Y-30990000D01*
D33*
X91017500Y-28287500D02*
X91017500Y-29307500D01*
D34*
X10202500Y-27857500D02*
X10202500Y-30232500D01*
X105342500Y-9912500D02*
X105340000Y-9910000D01*
D33*
X91017500Y-29307500D02*
X91600000Y-29890000D01*
X83002500Y-14977500D02*
X82322500Y-14977500D01*
D34*
X23417500Y-10502500D02*
X21667500Y-10502500D01*
X125660000Y-12570000D02*
X125690000Y-12600000D01*
D33*
X86662500Y-15012500D02*
X83037500Y-15012500D01*
X91750000Y-25990000D02*
X91017500Y-26722500D01*
D34*
X126187500Y-20712500D02*
X127140000Y-19760000D01*
X23417500Y-9437500D02*
X24042500Y-8812500D01*
X107912500Y-39112500D02*
X107062500Y-39112500D01*
X111917500Y-21752500D02*
X111910000Y-21760000D01*
D33*
X121627500Y-38437500D02*
X121630000Y-38440000D01*
D34*
X107537500Y-9912500D02*
X105342500Y-9912500D01*
X33492500Y-30232500D02*
X34510000Y-31250000D01*
X105662500Y-40512500D02*
X105662500Y-38912500D01*
X34510000Y-31250000D02*
X34510000Y-33490000D01*
%TO.N,-12V*%
X18420000Y-14360000D02*
X18467500Y-14312500D01*
X112653528Y-4320000D02*
X113662500Y-3311028D01*
X127210000Y-15960000D02*
X127207500Y-15962500D01*
X111917500Y-27292500D02*
X112187500Y-27562500D01*
X110430000Y-38140000D02*
X110430000Y-31320000D01*
X112487500Y-9912500D02*
X111022500Y-9912500D01*
X11347500Y-20632500D02*
X12360000Y-19620000D01*
X111917500Y-25192500D02*
X111917500Y-24022500D01*
X78762500Y-18865000D02*
X75655000Y-18865000D01*
X111917500Y-25192500D02*
X111917500Y-27292500D01*
X125660000Y-4990000D02*
X125660000Y-6217500D01*
X12360000Y-17440000D02*
X13720000Y-16080000D01*
X112862500Y-39112500D02*
X114812500Y-39112500D01*
X127720000Y-16460000D02*
X127720000Y-16470000D01*
X91612500Y-15012500D02*
X93967500Y-15012500D01*
X10202500Y-24677500D02*
X10200000Y-24680000D01*
X94950000Y-34610000D02*
X94950000Y-33180000D01*
X112862500Y-39112500D02*
X111402500Y-39112500D01*
X94010000Y-35550000D02*
X94950000Y-34610000D01*
X121710000Y-1040000D02*
X125660000Y-4990000D01*
X114520000Y-1040000D02*
X121710000Y-1040000D01*
X10202500Y-20632500D02*
X11347500Y-20632500D01*
X91612500Y-15012500D02*
X90107500Y-15012500D01*
X126620000Y-22240000D02*
X128660000Y-20200000D01*
X90107500Y-15012500D02*
X90050000Y-15070000D01*
X95590000Y-32540000D02*
X97580000Y-30550000D01*
X10202500Y-20632500D02*
X10202500Y-22907500D01*
X66195000Y-42910000D02*
X87240000Y-42910000D01*
X128660000Y-20200000D02*
X128660000Y-17410000D01*
X112487500Y-9912500D02*
X114837500Y-9912500D01*
X25660000Y-16130000D02*
X18475000Y-16130000D01*
X10202500Y-22907500D02*
X10202500Y-24677500D01*
X128650000Y-9207500D02*
X128650000Y-15530000D01*
X87240000Y-42910000D02*
X89600000Y-40550000D01*
X128650000Y-15530000D02*
X127720000Y-16460000D01*
X94950000Y-33180000D02*
X95590000Y-32540000D01*
X113662500Y-1897500D02*
X114520000Y-1040000D01*
X91017500Y-33237500D02*
X91017500Y-35552500D01*
X93910000Y-35550000D02*
X94010000Y-35550000D01*
X93910000Y-35560000D02*
X93910000Y-35550000D01*
X110980000Y-4320000D02*
X112653528Y-4320000D01*
X18475000Y-16130000D02*
X18467500Y-16137500D01*
X127720000Y-16470000D02*
X127210000Y-15960000D01*
X29530000Y-12817500D02*
X28972500Y-12817500D01*
X91017500Y-35552500D02*
X91010000Y-35560000D01*
X33402500Y-24457500D02*
X33400000Y-24460000D01*
X89600000Y-36970000D02*
X91010000Y-35560000D01*
X111937500Y-24022500D02*
X113720000Y-22240000D01*
X13720000Y-14362500D02*
X13722500Y-14360000D01*
X111022500Y-9912500D02*
X109990000Y-8880000D01*
X33402500Y-22907500D02*
X33402500Y-20382500D01*
X110430000Y-31320000D02*
X110430000Y-29320000D01*
X109990000Y-8880000D02*
X109990000Y-5310000D01*
X111917500Y-24022500D02*
X111937500Y-24022500D01*
X63757500Y-45347500D02*
X66195000Y-42910000D01*
X127207500Y-15962500D02*
X125575000Y-15962500D01*
X113720000Y-22240000D02*
X126620000Y-22240000D01*
X33402500Y-22907500D02*
X33402500Y-24457500D01*
X89600000Y-40550000D02*
X89600000Y-36970000D01*
X75655000Y-18865000D02*
X74940000Y-18150000D01*
X114812500Y-39112500D02*
X115187500Y-38737500D01*
X110430000Y-29320000D02*
X112187500Y-27562500D01*
X97580000Y-30550000D02*
X101670000Y-30550000D01*
X128660000Y-17410000D02*
X127720000Y-16470000D01*
X93967500Y-15012500D02*
X94477500Y-14502500D01*
X109990000Y-5310000D02*
X110980000Y-4320000D01*
X28972500Y-12817500D02*
X25660000Y-16130000D01*
X18467500Y-14312500D02*
X18467500Y-16137500D01*
X91010000Y-35560000D02*
X93910000Y-35560000D01*
X113662500Y-3311028D02*
X113662500Y-1897500D01*
X13722500Y-14360000D02*
X18420000Y-14360000D01*
X125660000Y-6217500D02*
X128650000Y-9207500D01*
X13720000Y-16080000D02*
X13720000Y-14362500D01*
X12360000Y-19620000D02*
X12360000Y-17440000D01*
X114837500Y-9912500D02*
X114840000Y-9910000D01*
X111402500Y-39112500D02*
X110430000Y-38140000D01*
D32*
%TO.N,CLK_2*%
X28290000Y-44510000D02*
X28290000Y-42350000D01*
X28290000Y-36150000D02*
X28290000Y-42350000D01*
X26927500Y-34787500D02*
X28290000Y-36150000D01*
%TO.N,Net-(C208-Pad2)*%
X25027500Y-32635000D02*
X25037500Y-32625000D01*
X25027500Y-34787500D02*
X25027500Y-32635000D01*
X21960000Y-35787500D02*
X24027500Y-35787500D01*
X24027500Y-35787500D02*
X25027500Y-34787500D01*
%TO.N,Net-(Q202-E)*%
X23400000Y-27940000D02*
X23400000Y-31850000D01*
X21200000Y-25740000D02*
X23400000Y-27940000D01*
X23400000Y-31850000D02*
X22470000Y-32780000D01*
X22470000Y-32780000D02*
X21200000Y-32780000D01*
X13100000Y-30270000D02*
X12752500Y-30270000D01*
X12742500Y-27857500D02*
X12742500Y-26687500D01*
X21200000Y-32780000D02*
X20052500Y-31632500D01*
X12742500Y-27857500D02*
X12752500Y-27867500D01*
X14962500Y-32132500D02*
X13100000Y-30270000D01*
X12742500Y-26687500D02*
X13690000Y-25740000D01*
X13690000Y-25740000D02*
X21200000Y-25740000D01*
X12752500Y-27867500D02*
X12752500Y-30270000D01*
%TO.N,Net-(C209-Pad2)*%
X14037500Y-27882500D02*
X14012500Y-27857500D01*
X7912500Y-33832500D02*
X10240000Y-36160000D01*
X7912500Y-32100000D02*
X7912500Y-33832500D01*
X16040000Y-27882500D02*
X14037500Y-27882500D01*
X16480000Y-34330000D02*
X16480000Y-31200000D01*
X10240000Y-36160000D02*
X14650000Y-36160000D01*
X15512500Y-30232500D02*
X16480000Y-31200000D01*
X14962500Y-30232500D02*
X15512500Y-30232500D01*
X14012500Y-29282500D02*
X14962500Y-30232500D01*
X14650000Y-36160000D02*
X16480000Y-34330000D01*
X14012500Y-27857500D02*
X14012500Y-29282500D01*
%TO.N,SAW2_FULL*%
X20620000Y-19620000D02*
X21610000Y-20610000D01*
X6392500Y-27857500D02*
X6392500Y-29630000D01*
X6392500Y-30487500D02*
X5760000Y-31120000D01*
X6392500Y-29630000D02*
X6392500Y-30487500D01*
X6372500Y-29650000D02*
X6392500Y-29630000D01*
X54870000Y-34110000D02*
X50650000Y-34110000D01*
X5760000Y-31120000D02*
X5760000Y-33710000D01*
X15487500Y-39900000D02*
X17400000Y-37987500D01*
X5570000Y-29650000D02*
X6372500Y-29650000D01*
X19240000Y-37750000D02*
X17637500Y-37750000D01*
X16757500Y-13042500D02*
X16740000Y-13060000D01*
X44970000Y-39790000D02*
X40020000Y-39790000D01*
X40020000Y-39790000D02*
X38030000Y-37800000D01*
X17637500Y-37750000D02*
X17400000Y-37987500D01*
X18467500Y-13042500D02*
X16757500Y-13042500D01*
X11950000Y-39900000D02*
X15487500Y-39900000D01*
X20620000Y-19120000D02*
X20620000Y-19620000D01*
X5760000Y-33710000D02*
X11950000Y-39900000D01*
X50650000Y-34110000D02*
X44970000Y-39790000D01*
%TO.N,Net-(D205-K)*%
X25980000Y-9337500D02*
X29577500Y-5740000D01*
X25980000Y-10712500D02*
X25980000Y-9337500D01*
%TO.N,Net-(D205-A)*%
X23773038Y-11772500D02*
X25980000Y-13979462D01*
X25980000Y-13979462D02*
X25980000Y-14012500D01*
X23417500Y-11772500D02*
X23773038Y-11772500D01*
D35*
%TO.N,+3.3V*%
X83410000Y-4790000D02*
X79510000Y-4790000D01*
X48450000Y-2170000D02*
X48450000Y-6010000D01*
X77000000Y-2280000D02*
X59670000Y-2280000D01*
X58010000Y-620000D02*
X50000000Y-620000D01*
X94440000Y-4790000D02*
X94470000Y-4820000D01*
X79510000Y-4790000D02*
X77000000Y-2280000D01*
X50000000Y-620000D02*
X48450000Y-2170000D01*
X83410000Y-4790000D02*
X94440000Y-4790000D01*
X48450000Y-6010000D02*
X54640000Y-12200000D01*
X59670000Y-2280000D02*
X58010000Y-620000D01*
D33*
%TO.N,Net-(C301-Pad1)*%
X81012500Y-9352500D02*
X82987500Y-11327500D01*
X82987500Y-11327500D02*
X83112500Y-11202500D01*
X80600000Y-9352500D02*
X81012500Y-9352500D01*
X83112500Y-11202500D02*
X86662500Y-11202500D01*
%TO.N,Net-(Q301-C)*%
X86662500Y-12472500D02*
X83742500Y-12472500D01*
X83742500Y-12472500D02*
X82987500Y-13227500D01*
X81242501Y-13227500D02*
X80742500Y-13727501D01*
X80742500Y-15060000D02*
X78762500Y-17040000D01*
X80742500Y-13727501D02*
X80742500Y-15060000D01*
X82987500Y-13227500D02*
X81242501Y-13227500D01*
D32*
%TO.N,Net-(U301B--)*%
X86662500Y-17552500D02*
X86662500Y-18822500D01*
X90847500Y-8727500D02*
X92327500Y-8727500D01*
X86662500Y-19362500D02*
X87390000Y-20090000D01*
X94790000Y-22050000D02*
X93260000Y-20520000D01*
X94790000Y-24230000D02*
X94790000Y-22050000D01*
X96962500Y-27600000D02*
X96962500Y-26402500D01*
X87957500Y-17552500D02*
X88680000Y-16830000D01*
X88680000Y-16830000D02*
X88680000Y-10880000D01*
X88680000Y-10880000D02*
X90840000Y-8720000D01*
X90840000Y-8720000D02*
X90847500Y-8727500D01*
X86662500Y-18822500D02*
X86662500Y-19362500D01*
X93260000Y-20520000D02*
X90030000Y-20520000D01*
X96962500Y-26402500D02*
X94790000Y-24230000D01*
X86662500Y-17552500D02*
X87957500Y-17552500D01*
%TO.N,FILTER_OUT*%
X87690000Y-9330000D02*
X90192500Y-6827500D01*
X92327500Y-6827500D02*
X94622500Y-6827500D01*
X94622500Y-6827500D02*
X95810000Y-5640000D01*
X67660000Y-12900000D02*
X67980000Y-12580000D01*
X67660000Y-24520000D02*
X67660000Y-12900000D01*
X90192500Y-6827500D02*
X92327500Y-6827500D01*
%TO.N,Net-(U301C-+)*%
X92542500Y-16282500D02*
X91612500Y-16282500D01*
X95360000Y-19970000D02*
X95360000Y-18780000D01*
X94090000Y-25030000D02*
X94790000Y-25730000D01*
X97830000Y-18730000D02*
X95310000Y-18730000D01*
X98827500Y-17812500D02*
X97870000Y-18770000D01*
X94990000Y-18730000D02*
X92542500Y-16282500D01*
X95310000Y-18730000D02*
X94990000Y-18730000D01*
X91256962Y-16282500D02*
X91612500Y-16282500D01*
X97870000Y-18770000D02*
X97830000Y-18730000D01*
X98827500Y-16402500D02*
X98827500Y-17812500D01*
X89747500Y-26462500D02*
X91180000Y-25030000D01*
X95360000Y-18780000D02*
X95310000Y-18730000D01*
X89747500Y-28287500D02*
X89747500Y-26462500D01*
X91180000Y-25030000D02*
X94090000Y-25030000D01*
%TO.N,Net-(D301-K)*%
X94150000Y-11202500D02*
X94462500Y-10890000D01*
X91612500Y-11202500D02*
X94150000Y-11202500D01*
X99475000Y-10875000D02*
X100000000Y-11400000D01*
X100000000Y-13950000D02*
X99447500Y-14502500D01*
X98812500Y-10875000D02*
X99475000Y-10875000D01*
X100000000Y-11400000D02*
X100000000Y-13950000D01*
X99447500Y-14502500D02*
X98827500Y-14502500D01*
X94462500Y-10890000D02*
X98797500Y-10890000D01*
X98797500Y-10890000D02*
X98812500Y-10875000D01*
%TO.N,Net-(U301B-+)*%
X81400000Y-33130000D02*
X79800000Y-33130000D01*
X78680000Y-32010000D02*
X78680000Y-31260000D01*
X84530000Y-19650000D02*
X84530000Y-18059462D01*
X81830000Y-28950000D02*
X78227500Y-25347500D01*
X83850000Y-20330000D02*
X84530000Y-19650000D01*
X89747500Y-33237500D02*
X89747500Y-32157500D01*
X78680000Y-31260000D02*
X79180000Y-30760000D01*
X89747500Y-32157500D02*
X88530000Y-30940000D01*
X88530000Y-30940000D02*
X83590000Y-30940000D01*
X83590000Y-30940000D02*
X81400000Y-33130000D01*
X78227500Y-25347500D02*
X78227500Y-22892500D01*
X81830000Y-29970000D02*
X81830000Y-28950000D01*
X84530000Y-18059462D02*
X86306962Y-16282500D01*
X86306962Y-16282500D02*
X86662500Y-16282500D01*
X79800000Y-33130000D02*
X78680000Y-32010000D01*
X80790000Y-20330000D02*
X83850000Y-20330000D01*
X81040000Y-30760000D02*
X81830000Y-29970000D01*
X78227500Y-22892500D02*
X80790000Y-20330000D01*
X79180000Y-30760000D02*
X81040000Y-30760000D01*
%TO.N,HP_IN*%
X73900000Y-25350000D02*
X76325000Y-25350000D01*
X69510000Y-15080000D02*
X69510000Y-20960000D01*
X69510000Y-20960000D02*
X73900000Y-25350000D01*
X76325000Y-25350000D02*
X76327500Y-25347500D01*
D33*
%TO.N,Net-(U404C--)*%
X118487500Y-42527500D02*
X119400000Y-43440000D01*
X117627500Y-45212500D02*
X119400000Y-43440000D01*
X118487500Y-38437500D02*
X118487500Y-42527500D01*
X116675000Y-43675000D02*
X116675000Y-45212500D01*
X116675000Y-45212500D02*
X117627500Y-45212500D01*
X114065000Y-41652500D02*
X115212500Y-42800000D01*
X112862500Y-41652500D02*
X114065000Y-41652500D01*
X115800000Y-42800000D02*
X116675000Y-43675000D01*
X115212500Y-42800000D02*
X115800000Y-42800000D01*
%TO.N,Net-(Q401-E)*%
X124575000Y-41362500D02*
X125950000Y-39987500D01*
X121350000Y-43390000D02*
X121300000Y-43440000D01*
X122940000Y-43390000D02*
X124497500Y-43390000D01*
X122940000Y-43390000D02*
X121350000Y-43390000D01*
X124575000Y-43312500D02*
X124575000Y-41362500D01*
X115212500Y-40975000D02*
X116355000Y-40975000D01*
X116355000Y-40975000D02*
X117100000Y-41720000D01*
X124497500Y-43390000D02*
X124575000Y-43312500D01*
D32*
%TO.N,FOLDER_IN*%
X63420000Y-25990000D02*
X64960000Y-24450000D01*
X63440000Y-16990000D02*
X63440000Y-13880000D01*
X100640000Y-16940000D02*
X100640000Y-10550000D01*
X64960000Y-18510000D02*
X63440000Y-16990000D01*
X99510000Y-9420000D02*
X99510000Y-7640000D01*
X100640000Y-10550000D02*
X99510000Y-9420000D01*
X99510000Y-7640000D02*
X95370000Y-3500000D01*
X96762500Y-23412500D02*
X96762500Y-20817500D01*
X96762500Y-20817500D02*
X100640000Y-16940000D01*
X95370000Y-3500000D02*
X80770000Y-3500000D01*
X64960000Y-24450000D02*
X64960000Y-18510000D01*
%TO.N,Net-(C406-Pad2)*%
X98662500Y-23115000D02*
X100475000Y-21302500D01*
X98662500Y-23412500D02*
X98662500Y-23115000D01*
%TO.N,Net-(U404A--)*%
X96320000Y-42640000D02*
X100447500Y-42640000D01*
X94537500Y-39662500D02*
X94537500Y-40857500D01*
X96837500Y-37375000D02*
X96825000Y-37375000D01*
X100447500Y-42640000D02*
X101750000Y-41337500D01*
X101750000Y-41337500D02*
X101750000Y-39430000D01*
X96825000Y-37375000D02*
X94537500Y-39662500D01*
X104610000Y-36570000D02*
X107910000Y-36570000D01*
X107910000Y-36570000D02*
X107912500Y-36572500D01*
X94537500Y-40857500D02*
X96320000Y-42640000D01*
X101750000Y-39430000D02*
X104610000Y-36570000D01*
%TO.N,Net-(Q406-B)*%
X96437500Y-39662500D02*
X96777500Y-39662500D01*
X107752500Y-35462500D02*
X107912500Y-35302500D01*
X98670000Y-37520000D02*
X100727500Y-35462500D01*
X98660000Y-37520000D02*
X98670000Y-37520000D01*
X98660000Y-37780000D02*
X98660000Y-37520000D01*
X96777500Y-39662500D02*
X98660000Y-37780000D01*
X100727500Y-35462500D02*
X100987500Y-35462500D01*
X100987500Y-35462500D02*
X107752500Y-35462500D01*
%TO.N,VCA_IN*%
X64370000Y-16630000D02*
X65600000Y-17860000D01*
X62930000Y-29740000D02*
X63590000Y-30400000D01*
X65600000Y-25760000D02*
X62930000Y-28430000D01*
X64370000Y-12430000D02*
X64370000Y-16630000D01*
X62930000Y-28430000D02*
X62930000Y-29740000D01*
X70870000Y-38500000D02*
X68120000Y-35750000D01*
X102612500Y-33222500D02*
X103720000Y-34330000D01*
X73810000Y-38500000D02*
X70870000Y-38500000D01*
X102612500Y-33112500D02*
X102612500Y-33222500D01*
X65600000Y-17860000D02*
X65600000Y-25760000D01*
D33*
%TO.N,Net-(C414-Pad2)*%
X106262500Y-31362500D02*
X106262500Y-29425000D01*
X104512500Y-33112500D02*
X106262500Y-31362500D01*
D32*
%TO.N,Net-(D201-A)*%
X27770000Y-18130000D02*
X27770000Y-21085000D01*
X27770000Y-21085000D02*
X29592500Y-22907500D01*
%TO.N,Net-(D202-A)*%
X27420000Y-15670000D02*
X26310000Y-16780000D01*
X38070000Y-21890000D02*
X38070000Y-22050000D01*
X38070000Y-22050000D02*
X37212500Y-22907500D01*
X28080000Y-15670000D02*
X27420000Y-15670000D01*
%TO.N,Net-(D203-A)*%
X14030000Y-22890000D02*
X14012500Y-22907500D01*
X5547500Y-12580000D02*
X7210000Y-12580000D01*
X14030000Y-21210000D02*
X14030000Y-22890000D01*
%TO.N,Net-(D204-A)*%
X6392500Y-22389460D02*
X6762500Y-22019460D01*
X6392500Y-22907500D02*
X6392500Y-22389460D01*
X6762500Y-22019460D02*
X6762500Y-17615000D01*
X6762500Y-17615000D02*
X5577500Y-16430000D01*
%TO.N,Net-(D301-A)*%
X91612500Y-12472500D02*
X91855000Y-12715000D01*
X94462500Y-12715000D02*
X98777500Y-12715000D01*
X98777500Y-12715000D02*
X98812500Y-12750000D01*
X96677500Y-12780000D02*
X96637500Y-12740000D01*
X96677500Y-14540000D02*
X96677500Y-12780000D01*
X91855000Y-12715000D02*
X94462500Y-12715000D01*
D36*
%TO.N,SDA*%
X50880000Y-42240000D02*
X46150000Y-42240000D01*
X57070000Y-37470000D02*
X56290000Y-38250000D01*
X59530000Y-15210000D02*
X57070000Y-17670000D01*
X44680000Y-46645000D02*
X43437500Y-47887500D01*
X57660000Y-6560000D02*
X59530000Y-8430000D01*
X54610000Y-1590000D02*
X54610000Y-6540000D01*
X44680000Y-43710000D02*
X44680000Y-46645000D01*
X54610000Y-6540000D02*
X54630000Y-6560000D01*
X54870000Y-38250000D02*
X52980000Y-40140000D01*
X46150000Y-42240000D02*
X44680000Y-43710000D01*
X56290000Y-38250000D02*
X54870000Y-38250000D01*
X59530000Y-8430000D02*
X59530000Y-15210000D01*
X54630000Y-6560000D02*
X57660000Y-6560000D01*
X57070000Y-17670000D02*
X57070000Y-37470000D01*
X52980000Y-40140000D02*
X50880000Y-42240000D01*
%TO.N,SCL*%
X53410000Y-7560000D02*
X53410000Y-4580000D01*
X54640000Y-40140000D02*
X55340000Y-39440000D01*
X59110000Y-39440000D02*
X60090000Y-38460000D01*
X58210000Y-17940000D02*
X60710000Y-15440000D01*
X47210000Y-46655000D02*
X47210000Y-44640000D01*
X60710000Y-7150000D02*
X58550000Y-4990000D01*
X58210000Y-30820000D02*
X58210000Y-17940000D01*
X55340000Y-39440000D02*
X59110000Y-39440000D01*
X48470000Y-43380000D02*
X51400000Y-43380000D01*
X45977500Y-47887500D02*
X47210000Y-46655000D01*
X60710000Y-15440000D02*
X60710000Y-7150000D01*
X60090000Y-38460000D02*
X60070000Y-38440000D01*
X53410000Y-4580000D02*
X53410000Y-2940000D01*
X60070000Y-32680000D02*
X58210000Y-30820000D01*
X60070000Y-38440000D02*
X60070000Y-32680000D01*
X47210000Y-44640000D02*
X48470000Y-43380000D01*
X53410000Y-2940000D02*
X52060000Y-1590000D01*
X51400000Y-43380000D02*
X54640000Y-40140000D01*
%TO.N,FOLD_FIRST*%
X57420000Y-44370000D02*
X66180000Y-35610000D01*
X56137500Y-47887500D02*
X57420000Y-46605000D01*
X57420000Y-46605000D02*
X57420000Y-44370000D01*
%TO.N,HP_MODE*%
X67110000Y-21510000D02*
X66330000Y-20730000D01*
X66400000Y-24350000D02*
X67110000Y-23640000D01*
X54880000Y-46605000D02*
X54880000Y-44330000D01*
X67110000Y-23640000D02*
X67110000Y-21510000D01*
X54880000Y-44330000D02*
X57160000Y-42050000D01*
X53597500Y-47887500D02*
X54880000Y-46605000D01*
X66330000Y-20730000D02*
X66330000Y-16800000D01*
X57930000Y-42050000D02*
X64610000Y-35370000D01*
X64610000Y-35370000D02*
X64610000Y-27870000D01*
X66400000Y-26080000D02*
X66400000Y-24350000D01*
X66330000Y-16800000D02*
X66340000Y-16790000D01*
X64610000Y-27870000D02*
X66400000Y-26080000D01*
X57160000Y-42050000D02*
X57930000Y-42050000D01*
D37*
%TO.N,LEVEL_1_CV*%
X37890000Y-42230000D02*
X35660000Y-40000000D01*
X39740000Y-45990000D02*
X37890000Y-44140000D01*
X35660000Y-40000000D02*
X35660000Y-32077500D01*
X35660000Y-32077500D02*
X35662500Y-32075000D01*
X43437500Y-45347500D02*
X42795000Y-45990000D01*
X42795000Y-45990000D02*
X39740000Y-45990000D01*
X37890000Y-44140000D02*
X37890000Y-42230000D01*
%TO.N,LEVEL_2_CV*%
X25670000Y-44170000D02*
X25670000Y-42210000D01*
X20510000Y-37050000D02*
X19440000Y-37050000D01*
X19440000Y-37050000D02*
X17540000Y-35150000D01*
X12760000Y-33690000D02*
X12760000Y-32102500D01*
X25670000Y-42210000D02*
X20510000Y-37050000D01*
X12760000Y-32102500D02*
X12752500Y-32095000D01*
%TO.N,PWM_1_CV*%
X2320000Y-31350000D02*
X2320000Y-28240000D01*
X17300000Y-45410000D02*
X17300000Y-44600000D01*
X20660000Y-11140000D02*
X22562500Y-13042500D01*
X17300000Y-44600000D02*
X15270000Y-42570000D01*
X15270000Y-42570000D02*
X14750000Y-42050000D01*
X2320000Y-20630000D02*
X2220000Y-20530000D01*
X11130000Y-40160000D02*
X2320000Y-31350000D01*
X13020000Y-42050000D02*
X11130000Y-40160000D01*
X13200000Y-42050000D02*
X13020000Y-42050000D01*
X2320000Y-28240000D02*
X2320000Y-20630000D01*
X22562500Y-13042500D02*
X23417500Y-13042500D01*
X14750000Y-42050000D02*
X13200000Y-42050000D01*
%TO.N,PWM_2_CV*%
X19017500Y-9357500D02*
X19742500Y-10082500D01*
X31600000Y-45480000D02*
X19530000Y-45480000D01*
X19530000Y-45480000D02*
X18870000Y-46140000D01*
X3787500Y-9357500D02*
X19017500Y-9357500D01*
X19742500Y-11587500D02*
X19557500Y-11772500D01*
X580000Y-32260000D02*
X580000Y-12530000D01*
X580000Y-12530000D02*
X3770000Y-9340000D01*
X18870000Y-46140000D02*
X14460000Y-46140000D01*
X19742500Y-10082500D02*
X19742500Y-11587500D01*
X35260000Y-41820000D02*
X31600000Y-45480000D01*
X3770000Y-9340000D02*
X3787500Y-9357500D01*
X19557500Y-11772500D02*
X18467500Y-11772500D01*
X14460000Y-46140000D02*
X580000Y-32260000D01*
%TO.N,CUTOFF_CV*%
X60940000Y-17490000D02*
X62040000Y-16390000D01*
X65790000Y-5670000D02*
X74527500Y-5670000D01*
X61960000Y-35980000D02*
X61200000Y-35220000D01*
X74527500Y-5670000D02*
X74670000Y-5812500D01*
X62040000Y-9420000D02*
X65790000Y-5670000D01*
X62040000Y-16390000D02*
X62040000Y-9420000D01*
X61200000Y-35220000D02*
X61200000Y-22240000D01*
X59960000Y-17490000D02*
X60940000Y-17490000D01*
X61200000Y-22240000D02*
X59160000Y-20200000D01*
X59160000Y-20200000D02*
X59160000Y-18290000D01*
X59160000Y-18290000D02*
X59960000Y-17490000D01*
%TO.N,FOLD_CV*%
X114772500Y-45212500D02*
X113870000Y-44310000D01*
X69550000Y-41540000D02*
X63910000Y-41540000D01*
X63910000Y-41540000D02*
X62600000Y-42850000D01*
X114850000Y-45212500D02*
X114772500Y-45212500D01*
%TO.N,VCA_CV*%
X63715000Y-40310000D02*
X81510000Y-40310000D01*
X99917500Y-41330000D02*
X99925000Y-41337500D01*
X81510000Y-40310000D02*
X85570000Y-40310000D01*
X63385000Y-40640000D02*
X63715000Y-40310000D01*
X58677500Y-45347500D02*
X63385000Y-40640000D01*
X85570000Y-40310000D02*
X86230000Y-40970000D01*
X98360000Y-41330000D02*
X99917500Y-41330000D01*
D32*
%TO.N,VCA_OUT*%
X99572500Y-44330000D02*
X99930000Y-43972500D01*
X58677500Y-47887500D02*
X60057500Y-46507500D01*
X67522500Y-46507500D02*
X69700000Y-44330000D01*
X69700000Y-44330000D02*
X99572500Y-44330000D01*
X60057500Y-46507500D02*
X67522500Y-46507500D01*
%TO.N,Net-(Q201-B)*%
X43770000Y-32167500D02*
X41675000Y-34262500D01*
X43770000Y-31060000D02*
X43770000Y-32167500D01*
%TO.N,Net-(Q201-C)*%
X41215000Y-28382500D02*
X44042500Y-28382500D01*
X44042500Y-28382500D02*
X44720000Y-29060000D01*
%TO.N,Net-(Q202-B)*%
X20052500Y-29732500D02*
X20052500Y-29747500D01*
X20052500Y-29747500D02*
X19000000Y-30800000D01*
X19000000Y-30800000D02*
X19000000Y-34652500D01*
X19000000Y-34652500D02*
X20135000Y-35787500D01*
%TO.N,Net-(Q202-C)*%
X22052500Y-29602500D02*
X22052500Y-30682500D01*
X20332500Y-27882500D02*
X22052500Y-29602500D01*
X17865000Y-27882500D02*
X20332500Y-27882500D01*
D33*
%TO.N,Net-(Q301-B)*%
X76495000Y-5812500D02*
X76495000Y-9334999D01*
X78742500Y-12777501D02*
X76512501Y-10547502D01*
X76495000Y-9334999D02*
X76512501Y-9352500D01*
X76512501Y-10547502D02*
X76512501Y-9352500D01*
%TO.N,Net-(Q301-E)*%
X78775000Y-9835000D02*
X79870000Y-10930000D01*
X74862501Y-14677501D02*
X74862500Y-14677500D01*
X79870000Y-10930000D02*
X79870000Y-13550001D01*
X79870000Y-13550001D02*
X78742500Y-14677501D01*
X78742500Y-14677501D02*
X74862501Y-14677501D01*
X78775000Y-9352500D02*
X78775000Y-9835000D01*
D32*
%TO.N,Net-(Q302-C)*%
X80162500Y-29850000D02*
X76662500Y-29850000D01*
X80162500Y-29850000D02*
X80162500Y-28492500D01*
X76662500Y-29850000D02*
X76637500Y-29875000D01*
X76220000Y-12460000D02*
X76220000Y-13085000D01*
X76220000Y-13085000D02*
X76862500Y-13727500D01*
X80162500Y-28492500D02*
X79580000Y-27910000D01*
D33*
%TO.N,Net-(Q401-B)*%
X120350000Y-41430000D02*
X120350000Y-44720000D01*
X118500000Y-46570000D02*
X113890000Y-46570000D01*
X121792500Y-39987500D02*
X120350000Y-41430000D01*
X124050000Y-39987500D02*
X121792500Y-39987500D01*
X120350000Y-44720000D02*
X118500000Y-46570000D01*
X113890000Y-46570000D02*
X112862500Y-45542500D01*
X112862500Y-45542500D02*
X112862500Y-42922500D01*
%TO.N,Net-(Q401-C)*%
X123262500Y-36250000D02*
X125000000Y-37987500D01*
X120287500Y-36250000D02*
X123262500Y-36250000D01*
D32*
%TO.N,Net-(Q402-B)*%
X107537500Y-15042500D02*
X107530000Y-15050000D01*
X119912500Y-15962500D02*
X119912500Y-20022501D01*
X119910000Y-21120000D02*
X119910000Y-20055001D01*
X107537500Y-12452500D02*
X107537500Y-13722500D01*
X119912500Y-20022501D02*
X119927500Y-20037501D01*
X107537500Y-13722500D02*
X107537500Y-15042500D01*
X119910000Y-20055001D02*
X119927500Y-20037501D01*
%TO.N,Net-(Q402-E)*%
X123750000Y-20712500D02*
X122502499Y-20712500D01*
X122502499Y-20712500D02*
X121827500Y-20037501D01*
%TO.N,Net-(Q402-C)*%
X120400000Y-13962500D02*
X120862500Y-13962500D01*
X120877500Y-18037501D02*
X120877500Y-13977500D01*
X120877500Y-13977500D02*
X120862500Y-13962500D01*
X116625000Y-17737500D02*
X120400000Y-13962500D01*
%TO.N,Net-(Q403-E)*%
X121812500Y-15962500D02*
X123750000Y-15962500D01*
%TO.N,Net-(Q404-B)*%
X116412500Y-14025000D02*
X117350000Y-14025000D01*
X112487500Y-13722500D02*
X110847500Y-13722500D01*
X120012500Y-11362500D02*
X120012500Y-7432500D01*
X110847500Y-13722500D02*
X110830000Y-13740000D01*
X117350000Y-14025000D02*
X118022500Y-13352500D01*
X118022500Y-13352500D02*
X120012500Y-11362500D01*
X120012500Y-7432500D02*
X119997500Y-7417500D01*
%TO.N,Net-(Q404-E)*%
X123835000Y-10917500D02*
X122357500Y-10917500D01*
X122357500Y-10917500D02*
X121912500Y-11362500D01*
%TO.N,Net-(Q404-C)*%
X120002500Y-6362500D02*
X120947500Y-5417500D01*
X116675000Y-6362500D02*
X120002500Y-6362500D01*
X120962500Y-9362500D02*
X120962500Y-5432500D01*
X120962500Y-5432500D02*
X120947500Y-5417500D01*
%TO.N,Net-(Q405-E)*%
X121897500Y-7417500D02*
X122635000Y-7417500D01*
X122635000Y-7417500D02*
X123835000Y-6217500D01*
%TO.N,Net-(Q406-E)*%
X99087500Y-33475000D02*
X99087500Y-35462500D01*
X96925000Y-35462500D02*
X96837500Y-35550000D01*
X99087500Y-35462500D02*
X96925000Y-35462500D01*
%TO.N,Net-(Q406-C)*%
X100037500Y-37462500D02*
X101392500Y-37462500D01*
X100042500Y-28570000D02*
X99187500Y-29425000D01*
X101392500Y-37462500D02*
X101420000Y-37490000D01*
X100550000Y-28570000D02*
X100042500Y-28570000D01*
%TO.N,Net-(U201D--)*%
X30862500Y-22907500D02*
X30862500Y-20650000D01*
X30862500Y-23927500D02*
X30420000Y-24370000D01*
X30862500Y-20650000D02*
X30662500Y-20450000D01*
X27457500Y-24370000D02*
X25937500Y-22850000D01*
X30862500Y-22907500D02*
X30862500Y-23927500D01*
X30420000Y-24370000D02*
X27457500Y-24370000D01*
%TO.N,Net-(U201C--)*%
X37572500Y-24700000D02*
X37379462Y-24700000D01*
X39390000Y-22882500D02*
X39390000Y-19027500D01*
X39390000Y-19027500D02*
X39175000Y-18812500D01*
X39390000Y-22882500D02*
X37572500Y-24700000D01*
X35942500Y-23263038D02*
X35942500Y-22907500D01*
X37379462Y-24700000D02*
X35942500Y-23263038D01*
%TO.N,TRI1_FULL*%
X31355000Y-15645000D02*
X31380000Y-15670000D01*
X37350000Y-18530000D02*
X38350000Y-17530000D01*
X38350000Y-17530000D02*
X42980000Y-17530000D01*
X31060000Y-18120000D02*
X31070000Y-18130000D01*
X31402500Y-12770000D02*
X31355000Y-12817500D01*
X30020000Y-18120000D02*
X31060000Y-18120000D01*
X31355000Y-12817500D02*
X31355000Y-15645000D01*
X37350000Y-18812500D02*
X37350000Y-18530000D01*
X31070000Y-15980000D02*
X31070000Y-18130000D01*
X31380000Y-15670000D02*
X31070000Y-15980000D01*
X31402500Y-9310000D02*
X31402500Y-12770000D01*
X36202500Y-18812500D02*
X36200000Y-18810000D01*
X42980000Y-17530000D02*
X44620000Y-15890000D01*
X37350000Y-18812500D02*
X36202500Y-18812500D01*
%TO.N,Net-(U202D--)*%
X7662500Y-20535000D02*
X7765000Y-20432500D01*
X7662500Y-22907500D02*
X7662500Y-20535000D01*
X6733038Y-24192500D02*
X7662500Y-23263038D01*
X3995000Y-24192500D02*
X6733038Y-24192500D01*
X7662500Y-23263038D02*
X7662500Y-22907500D01*
X3950000Y-24147500D02*
X3995000Y-24192500D01*
%TO.N,Net-(U202C--)*%
X12742500Y-22907500D02*
X12742500Y-21130000D01*
X12742500Y-21130000D02*
X14240000Y-19632500D01*
X16040000Y-21432500D02*
X14240000Y-19632500D01*
X16040000Y-22882500D02*
X16040000Y-21432500D01*
%TO.N,TRI2_FULL*%
X8847500Y-14330000D02*
X8847500Y-16400000D01*
X8847500Y-16400000D02*
X8877500Y-16430000D01*
X14330000Y-44480000D02*
X15340000Y-44480000D01*
X3400000Y-16797500D02*
X3400000Y-12600000D01*
X1160000Y-31310000D02*
X1160000Y-19037500D01*
X46690000Y-41180000D02*
X49980000Y-41180000D01*
X1160000Y-19037500D02*
X3400000Y-16797500D01*
X8847500Y-12580000D02*
X8847500Y-14330000D01*
X11897500Y-14360000D02*
X10460000Y-14360000D01*
X14330000Y-44480000D02*
X1160000Y-31310000D01*
X16065000Y-19632500D02*
X16065000Y-16665000D01*
X3400000Y-12600000D02*
X4730000Y-11270000D01*
X4730000Y-11270000D02*
X7537500Y-11270000D01*
X8877500Y-14360000D02*
X8847500Y-14330000D01*
X10460000Y-14360000D02*
X8877500Y-14360000D01*
X7537500Y-11270000D02*
X8847500Y-12580000D01*
X49980000Y-41180000D02*
X54450000Y-36710000D01*
X54450000Y-36710000D02*
X55920000Y-36710000D01*
X16065000Y-16665000D02*
X16060000Y-16660000D01*
%TO.N,PULSE2_FULL*%
X47150000Y-33970000D02*
X45710000Y-35410000D01*
X48520000Y-33970000D02*
X47150000Y-33970000D01*
X8457500Y-10354999D02*
X8472501Y-10370000D01*
X8422501Y-10320000D02*
X8457500Y-10354999D01*
X8472501Y-10370000D02*
X10742500Y-10370000D01*
X45710000Y-35410000D02*
X45710000Y-36440000D01*
X4200000Y-10320000D02*
X8422501Y-10320000D01*
%TO.N,PULSE1_FULL*%
X54940383Y-10560383D02*
X55578630Y-10560383D01*
X45390000Y-8920000D02*
X37162500Y-8920000D01*
X50790000Y-6410000D02*
X54940383Y-10560383D01*
X37162500Y-8920000D02*
X37120000Y-8877500D01*
X31402500Y-5740000D02*
X33982500Y-5740000D01*
X33982500Y-5740000D02*
X37120000Y-8877500D01*
%TO.N,Net-(U203A-P0W)*%
X52760000Y-11730000D02*
X54510000Y-13480000D01*
X54510000Y-13480000D02*
X56590000Y-13480000D01*
X33380000Y-15820000D02*
X33380000Y-14980000D01*
X33380000Y-14980000D02*
X36630000Y-11730000D01*
X36630000Y-11730000D02*
X52760000Y-11730000D01*
%TO.N,Net-(U205A-P0W)*%
X46070000Y-26970000D02*
X48620000Y-26970000D01*
X48620000Y-26970000D02*
X51830000Y-30180000D01*
%TO.N,Net-(R241-Pad2)*%
X55057500Y-16590000D02*
X51837500Y-19810000D01*
X56970000Y-16590000D02*
X55057500Y-16590000D01*
X64020000Y-20650000D02*
X62140000Y-20650000D01*
X62140000Y-20650000D02*
X60190000Y-18700000D01*
%TO.N,Net-(U303C-+)*%
X84863038Y-35937500D02*
X87207500Y-33593038D01*
X78787500Y-37750000D02*
X80475000Y-37750000D01*
X87207500Y-33593038D02*
X87207500Y-33237500D01*
X82287500Y-35937500D02*
X84863038Y-35937500D01*
X80475000Y-37750000D02*
X82287500Y-35937500D01*
%TO.N,Net-(U301C--)*%
X78787500Y-35925000D02*
X78787500Y-34552500D01*
X91612500Y-18210000D02*
X91612500Y-18822500D01*
X88990000Y-20870000D02*
X88990000Y-19480000D01*
X91612500Y-17552500D02*
X91612500Y-18210000D01*
X88990000Y-19480000D02*
X90260000Y-18210000D01*
X87970000Y-21890000D02*
X88990000Y-20870000D01*
X78787500Y-34552500D02*
X78810000Y-34530000D01*
X87960000Y-21900000D02*
X87970000Y-21890000D01*
X90260000Y-18210000D02*
X91612500Y-18210000D01*
X86872500Y-21900000D02*
X87960000Y-21900000D01*
%TO.N,Net-(R306-Pad2)*%
X80162500Y-31675000D02*
X81280000Y-31675000D01*
X81280000Y-31675000D02*
X84667500Y-28287500D01*
%TO.N,Net-(R307-Pad2)*%
X77440000Y-31700000D02*
X80000000Y-34260000D01*
X83645000Y-34260000D02*
X84667500Y-33237500D01*
X76637500Y-31700000D02*
X77440000Y-31700000D01*
X80000000Y-34260000D02*
X83645000Y-34260000D01*
%TO.N,Net-(U303A--)*%
X88477500Y-26240000D02*
X88162500Y-25925000D01*
X88162500Y-25925000D02*
X87160000Y-24922500D01*
X85047500Y-21900000D02*
X82425000Y-24522500D01*
X82840000Y-24922500D02*
X82425000Y-25337500D01*
X87160000Y-24922500D02*
X82840000Y-24922500D01*
X88477500Y-28287500D02*
X88477500Y-26240000D01*
X88477500Y-29132500D02*
X88477500Y-28287500D01*
X82425000Y-24522500D02*
X82425000Y-25337500D01*
%TO.N,Net-(U303A-+)*%
X87207500Y-27931962D02*
X87207500Y-28287500D01*
X85200538Y-25925000D02*
X87207500Y-27931962D01*
X84762500Y-25925000D02*
X85200538Y-25925000D01*
%TO.N,LP_IN*%
X80580000Y-25317500D02*
X80600000Y-25337500D01*
X80580000Y-22560000D02*
X80580000Y-25317500D01*
%TO.N,Net-(U303C--)*%
X90785908Y-30600000D02*
X90360000Y-31025908D01*
X88477500Y-33237500D02*
X88477500Y-35210000D01*
X88477500Y-35210000D02*
X88477500Y-35310000D01*
X90360000Y-31025908D02*
X90360000Y-34250538D01*
X88477500Y-35310000D02*
X87837500Y-35950000D01*
X96962500Y-29425000D02*
X95787500Y-30600000D01*
X95787500Y-30600000D02*
X90785908Y-30600000D01*
X89400538Y-35210000D02*
X88477500Y-35210000D01*
X90360000Y-34250538D02*
X89400538Y-35210000D01*
D33*
%TO.N,Net-(U402A--)*%
X102325000Y-24762500D02*
X102325000Y-22810000D01*
X109377500Y-20242500D02*
X109377500Y-21462500D01*
X102325000Y-21327500D02*
X102300000Y-21302500D01*
X108030000Y-22810000D02*
X102325000Y-22810000D01*
X109377500Y-21462500D02*
X108030000Y-22810000D01*
X102325000Y-22810000D02*
X102325000Y-21327500D01*
%TO.N,Net-(U402A-+)*%
X108107500Y-19865749D02*
X108107500Y-20242500D01*
X104575000Y-17412500D02*
X105654251Y-17412500D01*
X105654251Y-17412500D02*
X108107500Y-19865749D01*
%TO.N,Net-(R408-Pad1)*%
X104392500Y-20242500D02*
X104070000Y-19920000D01*
X105567500Y-20242500D02*
X104392500Y-20242500D01*
X120310000Y-32320000D02*
X120310000Y-34402500D01*
X120310000Y-34402500D02*
X120287500Y-34425000D01*
D32*
%TO.N,Net-(R409-Pad1)*%
X104912500Y-5800000D02*
X107235000Y-5800000D01*
X107235000Y-5800000D02*
X107537500Y-6102500D01*
X102825000Y-6562500D02*
X103587500Y-5800000D01*
X103587500Y-5800000D02*
X104912500Y-5800000D01*
%TO.N,Net-(U403A--)*%
X110660000Y-20230000D02*
X110647500Y-20242500D01*
X107537500Y-7372500D02*
X105165000Y-7372500D01*
X109020000Y-16380000D02*
X110660000Y-18020000D01*
X105165000Y-7372500D02*
X104912500Y-7625000D01*
X108142500Y-7372500D02*
X109020000Y-8250000D01*
X109020000Y-8250000D02*
X109020000Y-16380000D01*
X107537500Y-7372500D02*
X108142500Y-7372500D01*
X110660000Y-18020000D02*
X110660000Y-20230000D01*
%TO.N,Net-(U403B-+)*%
X103490000Y-12620000D02*
X101000000Y-10130000D01*
X105380000Y-12620000D02*
X103490000Y-12620000D01*
X101000000Y-10130000D02*
X101000000Y-6562500D01*
X106817500Y-11182500D02*
X105380000Y-12620000D01*
X101000000Y-6562500D02*
X101000000Y-4342500D01*
X107537500Y-11182500D02*
X106817500Y-11182500D01*
%TO.N,Net-(U403C--)*%
X114800000Y-13812500D02*
X116412500Y-12200000D01*
X112487500Y-12452500D02*
X116160000Y-12452500D01*
X116160000Y-12452500D02*
X116412500Y-12200000D01*
X114800000Y-17737500D02*
X114800000Y-13812500D01*
%TO.N,Net-(R418-Pad1)*%
X112700000Y-2612500D02*
X110375000Y-2612500D01*
%TO.N,Net-(U403D--)*%
X114850000Y-6362500D02*
X113840000Y-7372500D01*
X114850000Y-2937500D02*
X114525000Y-2612500D01*
X114850000Y-6362500D02*
X114850000Y-2937500D01*
X113840000Y-7372500D02*
X112487500Y-7372500D01*
%TO.N,FOLDER_OUT*%
X67780000Y-31230000D02*
X67780000Y-29097500D01*
X77250000Y-24753040D02*
X77250000Y-26910000D01*
X74525000Y-22312500D02*
X74809460Y-22312500D01*
X74809460Y-22312500D02*
X77250000Y-24753040D01*
X71750000Y-32410000D02*
X68960000Y-32410000D01*
X68960000Y-32410000D02*
X67780000Y-31230000D01*
X77250000Y-26910000D02*
X71750000Y-32410000D01*
D33*
%TO.N,Net-(R424-Pad1)*%
X105567500Y-25192500D02*
X104237500Y-25192500D01*
X104237500Y-25192500D02*
X101830000Y-27600000D01*
X101830000Y-27600000D02*
X99187500Y-27600000D01*
%TO.N,Net-(U404B--)*%
X107912500Y-41652500D02*
X106385000Y-41652500D01*
X106385000Y-41652500D02*
X104287500Y-43750000D01*
X110660000Y-25180000D02*
X110647500Y-25192500D01*
X107912500Y-41652500D02*
X109072500Y-41652500D01*
X110660000Y-23160000D02*
X110660000Y-25180000D01*
X109072500Y-41652500D02*
X110370000Y-42950000D01*
%TO.N,Net-(R425-Pad2)*%
X105260000Y-45575000D02*
X107912500Y-42922500D01*
X104287500Y-45575000D02*
X103357500Y-45575000D01*
X104287500Y-45575000D02*
X105260000Y-45575000D01*
X103357500Y-45575000D02*
X101755000Y-43972500D01*
%TO.N,Net-(U402C-+)*%
X107036751Y-26640000D02*
X105072500Y-26640000D01*
X105072500Y-26640000D02*
X104112500Y-27600000D01*
X108107500Y-25192500D02*
X108107500Y-25569251D01*
X108107500Y-25569251D02*
X107036751Y-26640000D01*
%TO.N,Net-(U402C--)*%
X109377500Y-26685000D02*
X109377500Y-25192500D01*
X106262500Y-27600000D02*
X108462500Y-27600000D01*
X108462500Y-27600000D02*
X109377500Y-26685000D01*
D32*
%TO.N,Net-(U301D-+)*%
X89650000Y-12135538D02*
X91256962Y-13742500D01*
X91256962Y-13742500D02*
X91612500Y-13742500D01*
X89650000Y-11490000D02*
X89650000Y-12135538D01*
%TO.N,FILTER_IN*%
X68580000Y-30120000D02*
X68730000Y-30270000D01*
X69080000Y-13750000D02*
X69080000Y-9840000D01*
X68730000Y-30270000D02*
X69660000Y-29340000D01*
X68570000Y-21910000D02*
X68570000Y-14260000D01*
X69660000Y-29340000D02*
X69660000Y-23000000D01*
X69660000Y-23000000D02*
X68570000Y-21910000D01*
X68570000Y-14260000D02*
X69080000Y-13750000D01*
%TO.N,Net-(U201A--)*%
X30862500Y-26662500D02*
X30862500Y-27857500D01*
X24625000Y-27337500D02*
X24625000Y-27285000D01*
X29940000Y-25740000D02*
X30862500Y-26662500D01*
X28952500Y-30270000D02*
X29648040Y-30270000D01*
X24625000Y-27285000D02*
X23220000Y-25880000D01*
X29648040Y-30270000D02*
X30862500Y-29055540D01*
X30862500Y-29055540D02*
X30862500Y-27857500D01*
%TO.N,Net-(R202-Pad2)*%
X28837500Y-16312500D02*
X30450000Y-14700000D01*
X30450000Y-14700000D02*
X30450000Y-10182500D01*
X30450000Y-10182500D02*
X29577500Y-9310000D01*
X28837500Y-20450000D02*
X28837500Y-16312500D01*
%TO.N,Net-(U202A--)*%
X6410000Y-33230000D02*
X6410000Y-31777500D01*
X7912500Y-28107500D02*
X7662500Y-27857500D01*
X7912500Y-30275000D02*
X7912500Y-28107500D01*
X15575000Y-37987500D02*
X11167500Y-37987500D01*
X6410000Y-31777500D02*
X7912500Y-30275000D01*
X11167500Y-37987500D02*
X6410000Y-33230000D01*
%TO.N,Net-(R218-Pad2)*%
X4130000Y-18622500D02*
X5940000Y-20432500D01*
X3400000Y-18622500D02*
X4130000Y-18622500D01*
%TO.N,Net-(R420-Pad2)*%
X112485000Y-6100000D02*
X112487500Y-6102500D01*
X75100000Y-21062500D02*
X76350000Y-22312500D01*
X107362500Y-2612500D02*
X107340000Y-2590000D01*
X110900000Y-6100000D02*
X112485000Y-6100000D01*
X75100000Y-20500000D02*
X75100000Y-21062500D01*
X108550000Y-2612500D02*
X107362500Y-2612500D01*
%TO.N,Net-(D206-K)*%
X10742500Y-8545000D02*
X14417500Y-8545000D01*
X14417500Y-8545000D02*
X14440000Y-8522500D01*
%TO.N,Net-(D206-A)*%
X14440000Y-11822500D02*
X15760000Y-10502500D01*
X15760000Y-10502500D02*
X18467500Y-10502500D01*
%TD*%
M02*
